<svg width="1080" height="1350" viewBox="0 0 1080 1350" fill="none" xmlns="http://www.w3.org/2000/svg">
<path d="M301.122 447L311.442 419H315.002L325.282 447H321.722L313.202 423.2L304.642 447H301.122ZM305.842 439.8L306.802 437.08H319.482L320.442 439.8H305.842ZM329.284 447V426.84H332.324L332.484 430.36C333.124 429.107 334.031 428.133 335.204 427.44C336.404 426.72 337.764 426.36 339.284 426.36C340.858 426.36 342.218 426.68 343.364 427.32C344.511 427.933 345.404 428.88 346.044 430.16C346.684 431.413 347.004 433.013 347.004 434.96V447H343.644V435.32C343.644 433.293 343.191 431.773 342.284 430.76C341.404 429.747 340.151 429.24 338.524 429.24C337.404 429.24 336.404 429.52 335.524 430.08C334.644 430.613 333.938 431.4 333.404 432.44C332.898 433.453 332.644 434.72 332.644 436.24V447H329.284ZM361.133 447.48C359.186 447.48 357.48 447.027 356.013 446.12C354.546 445.187 353.413 443.92 352.613 442.32C351.813 440.72 351.413 438.907 351.413 436.88C351.413 434.853 351.813 433.053 352.613 431.48C353.413 429.88 354.546 428.627 356.013 427.72C357.506 426.813 359.226 426.36 361.173 426.36C362.826 426.36 364.266 426.693 365.493 427.36C366.746 428.027 367.706 428.96 368.373 430.16V418.2H371.733V447H368.693L368.413 443.68C367.986 444.347 367.44 444.973 366.773 445.56C366.106 446.12 365.306 446.587 364.373 446.96C363.44 447.307 362.36 447.48 361.133 447.48ZM361.533 444.56C362.866 444.56 364.04 444.24 365.053 443.6C366.066 442.96 366.853 442.08 367.413 440.96C367.973 439.813 368.253 438.467 368.253 436.92C368.253 435.4 367.973 434.067 367.413 432.92C366.853 431.773 366.066 430.88 365.053 430.24C364.04 429.6 362.866 429.28 361.533 429.28C360.226 429.28 359.066 429.6 358.053 430.24C357.04 430.88 356.253 431.773 355.693 432.92C355.133 434.067 354.853 435.4 354.853 436.92C354.853 438.467 355.133 439.813 355.693 440.96C356.253 442.08 357.04 442.96 358.053 443.6C359.066 444.24 360.226 444.56 361.533 444.56ZM390.156 455.8L395.076 444.76H393.916L385.996 426.84H389.636L396.196 442.24L403.076 426.84H406.556L393.676 455.8H390.156ZM417.308 447.48C415.441 447.48 413.761 447.053 412.268 446.2C410.774 445.32 409.601 444.093 408.748 442.52C407.894 440.92 407.468 439.067 407.468 436.96C407.468 434.8 407.894 432.933 408.748 431.36C409.628 429.76 410.814 428.533 412.308 427.68C413.828 426.8 415.521 426.36 417.388 426.36C419.308 426.36 421.001 426.8 422.468 427.68C423.961 428.533 425.134 429.76 425.988 431.36C426.868 432.933 427.308 434.787 427.308 436.92C427.308 439.053 426.868 440.92 425.988 442.52C425.108 444.093 423.921 445.32 422.428 446.2C420.934 447.053 419.228 447.48 417.308 447.48ZM417.348 444.6C418.494 444.6 419.561 444.32 420.548 443.76C421.534 443.173 422.334 442.307 422.948 441.16C423.561 440.013 423.868 438.6 423.868 436.92C423.868 435.213 423.561 433.8 422.948 432.68C422.361 431.533 421.574 430.68 420.588 430.12C419.628 429.533 418.561 429.24 417.388 429.24C416.268 429.24 415.201 429.533 414.188 430.12C413.201 430.68 412.401 431.533 411.788 432.68C411.201 433.8 410.908 435.213 410.908 436.92C410.908 438.6 411.201 440.013 411.788 441.16C412.401 442.307 413.188 443.173 414.148 443.76C415.134 444.32 416.201 444.6 417.348 444.6ZM439.339 447.48C437.792 447.48 436.432 447.173 435.259 446.56C434.112 445.947 433.219 445 432.579 443.72C431.965 442.44 431.659 440.84 431.659 438.92V426.84H435.019V438.56C435.019 440.56 435.459 442.067 436.339 443.08C437.219 444.093 438.459 444.6 440.059 444.6C441.179 444.6 442.192 444.333 443.099 443.8C444.005 443.24 444.712 442.453 445.219 441.44C445.752 440.4 446.019 439.133 446.019 437.64V426.84H449.379V447H446.339L446.139 443.48C445.525 444.733 444.619 445.72 443.419 446.44C442.219 447.133 440.859 447.48 439.339 447.48ZM469.653 447L463.733 426.84H467.093L471.693 443.84H471.093L476.093 426.84H479.893L484.973 443.8L484.333 443.84L488.893 426.84H492.293L486.413 447H482.973L477.693 429.24H478.373L473.093 447H469.653ZM496.401 447V426.84H499.761V447H496.401ZM498.081 422.56C497.415 422.56 496.855 422.347 496.401 421.92C495.975 421.467 495.761 420.907 495.761 420.24C495.761 419.573 495.975 419.04 496.401 418.64C496.855 418.213 497.415 418 498.081 418C498.721 418 499.268 418.213 499.721 418.64C500.175 419.04 500.401 419.573 500.401 420.24C500.401 420.907 500.175 421.467 499.721 421.92C499.268 422.347 498.721 422.56 498.081 422.56ZM505.691 447V418.2H509.051V447H505.691ZM514.597 447V418.2H517.957V447H514.597ZM534.128 447V426.84H537.168L537.408 430.68C537.861 429.773 538.435 429 539.128 428.36C539.848 427.72 540.701 427.227 541.688 426.88C542.701 426.533 543.848 426.36 545.128 426.36V429.88H543.888C543.035 429.88 542.221 430 541.448 430.24C540.675 430.453 539.981 430.813 539.368 431.32C538.781 431.827 538.315 432.52 537.968 433.4C537.648 434.253 537.488 435.32 537.488 436.6V447H534.128ZM557.031 447.48C555.137 447.48 553.457 447.04 551.991 446.16C550.551 445.28 549.417 444.053 548.591 442.48C547.764 440.88 547.351 439.027 547.351 436.92C547.351 434.787 547.751 432.933 548.551 431.36C549.377 429.787 550.524 428.56 551.991 427.68C553.484 426.8 555.191 426.36 557.111 426.36C559.084 426.36 560.751 426.8 562.111 427.68C563.497 428.56 564.551 429.72 565.271 431.16C566.017 432.573 566.391 434.133 566.391 435.84C566.391 436.107 566.391 436.387 566.391 436.68C566.391 436.973 566.377 437.307 566.351 437.68H549.871V435.08H563.111C563.031 433.24 562.417 431.8 561.271 430.76C560.151 429.72 558.737 429.2 557.031 429.2C555.884 429.2 554.817 429.467 553.831 430C552.871 430.507 552.097 431.267 551.511 432.28C550.924 433.267 550.631 434.507 550.631 436V437.12C550.631 438.773 550.924 440.16 551.511 441.28C552.124 442.4 552.911 443.24 553.871 443.8C554.857 444.36 555.911 444.64 557.031 444.64C558.444 444.64 559.604 444.333 560.511 443.72C561.444 443.08 562.111 442.227 562.511 441.16H565.831C565.511 442.36 564.951 443.44 564.151 444.4C563.351 445.36 562.351 446.12 561.151 446.68C559.977 447.213 558.604 447.48 557.031 447.48ZM577.485 447.48C575.858 447.48 574.498 447.2 573.405 446.64C572.312 446.053 571.498 445.293 570.965 444.36C570.432 443.4 570.165 442.36 570.165 441.24C570.165 439.88 570.512 438.733 571.205 437.8C571.925 436.84 572.925 436.12 574.205 435.64C575.512 435.133 577.045 434.88 578.805 434.88H584.125C584.125 433.627 583.925 432.587 583.525 431.76C583.152 430.907 582.592 430.267 581.845 429.84C581.125 429.413 580.218 429.2 579.125 429.2C577.845 429.2 576.738 429.52 575.805 430.16C574.872 430.8 574.298 431.747 574.085 433H570.645C570.805 431.56 571.285 430.36 572.085 429.4C572.912 428.413 573.952 427.667 575.205 427.16C576.458 426.627 577.765 426.36 579.125 426.36C580.992 426.36 582.538 426.707 583.765 427.4C585.018 428.067 585.952 429.013 586.565 430.24C587.178 431.44 587.485 432.867 587.485 434.52V447H584.485L584.285 443.44C584.018 444 583.672 444.533 583.245 445.04C582.845 445.52 582.365 445.947 581.805 446.32C581.245 446.667 580.605 446.947 579.885 447.16C579.192 447.373 578.392 447.48 577.485 447.48ZM578.005 444.64C578.938 444.64 579.778 444.453 580.525 444.08C581.298 443.68 581.952 443.147 582.485 442.48C583.018 441.787 583.418 441.027 583.685 440.2C583.978 439.373 584.125 438.507 584.125 437.6V437.48H579.085C577.778 437.48 576.725 437.64 575.925 437.96C575.125 438.253 574.552 438.68 574.205 439.24C573.858 439.773 573.685 440.387 573.685 441.08C573.685 441.8 573.845 442.427 574.165 442.96C574.512 443.493 575.005 443.907 575.645 444.2C576.312 444.493 577.098 444.64 578.005 444.64ZM601.563 447.48C599.616 447.48 597.909 447.027 596.443 446.12C594.976 445.187 593.843 443.92 593.043 442.32C592.243 440.72 591.843 438.907 591.843 436.88C591.843 434.853 592.243 433.053 593.043 431.48C593.843 429.88 594.976 428.627 596.443 427.72C597.936 426.813 599.656 426.36 601.603 426.36C603.256 426.36 604.696 426.693 605.923 427.36C607.176 428.027 608.136 428.96 608.803 430.16V418.2H612.163V447H609.123L608.843 443.68C608.416 444.347 607.869 444.973 607.203 445.56C606.536 446.12 605.736 446.587 604.803 446.96C603.869 447.307 602.789 447.48 601.563 447.48ZM601.963 444.56C603.296 444.56 604.469 444.24 605.483 443.6C606.496 442.96 607.283 442.08 607.843 440.96C608.403 439.813 608.683 438.467 608.683 436.92C608.683 435.4 608.403 434.067 607.843 432.92C607.283 431.773 606.496 430.88 605.483 430.24C604.469 429.6 603.296 429.28 601.963 429.28C600.656 429.28 599.496 429.6 598.483 430.24C597.469 430.88 596.683 431.773 596.123 432.92C595.563 434.067 595.283 435.4 595.283 436.92C595.283 438.467 595.563 439.813 596.123 440.96C596.683 442.08 597.469 442.96 598.483 443.6C599.496 444.24 600.656 444.56 601.963 444.56ZM636.306 447C635.106 447 634.066 446.813 633.186 446.44C632.306 446.067 631.626 445.44 631.146 444.56C630.693 443.653 630.466 442.44 630.466 440.92V429.68H626.946V426.84H630.466L630.906 421.96H633.826V426.84H639.666V429.68H633.826V440.92C633.826 442.173 634.079 443.027 634.586 443.48C635.093 443.907 635.986 444.12 637.266 444.12H639.426V447H636.306ZM644.05 447V418.2H647.41V430.24C648.077 429.04 649.01 428.093 650.21 427.4C651.437 426.707 652.77 426.36 654.21 426.36C655.757 426.36 657.103 426.68 658.25 427.32C659.397 427.933 660.277 428.88 660.89 430.16C661.503 431.44 661.81 433.053 661.81 435V447H658.49V435.36C658.49 433.333 658.063 431.813 657.21 430.8C656.357 429.76 655.117 429.24 653.49 429.24C652.343 429.24 651.303 429.52 650.37 430.08C649.463 430.64 648.743 431.44 648.21 432.48C647.677 433.52 647.41 434.8 647.41 436.32V447H644.05ZM667.378 447V426.84H670.738V447H667.378ZM669.058 422.56C668.391 422.56 667.831 422.347 667.378 421.92C666.951 421.467 666.738 420.907 666.738 420.24C666.738 419.573 666.951 419.04 667.378 418.64C667.831 418.213 668.391 418 669.058 418C669.698 418 670.244 418.213 670.698 418.64C671.151 419.04 671.378 419.573 671.378 420.24C671.378 420.907 671.151 421.467 670.698 421.92C670.244 422.347 669.698 422.56 669.058 422.56ZM684.267 447.48C682.587 447.48 681.121 447.2 679.867 446.64C678.641 446.08 677.654 445.307 676.907 444.32C676.187 443.307 675.747 442.12 675.587 440.76H679.027C679.161 441.453 679.441 442.093 679.867 442.68C680.294 443.267 680.867 443.747 681.587 444.12C682.334 444.467 683.241 444.64 684.307 444.64C685.241 444.64 686.014 444.507 686.627 444.24C687.241 443.947 687.694 443.56 687.987 443.08C688.307 442.6 688.467 442.08 688.467 441.52C688.467 440.693 688.267 440.067 687.867 439.64C687.494 439.213 686.934 438.88 686.187 438.64C685.441 438.373 684.534 438.147 683.467 437.96C682.587 437.8 681.721 437.587 680.867 437.32C680.014 437.053 679.254 436.707 678.587 436.28C677.921 435.827 677.387 435.28 676.987 434.64C676.614 434 676.427 433.213 676.427 432.28C676.427 431.133 676.721 430.12 677.307 429.24C677.894 428.333 678.734 427.627 679.827 427.12C680.947 426.613 682.241 426.36 683.707 426.36C685.867 426.36 687.614 426.88 688.947 427.92C690.281 428.96 691.067 430.467 691.307 432.44H687.987C687.854 431.427 687.414 430.64 686.667 430.08C685.947 429.493 684.947 429.2 683.667 429.2C682.414 429.2 681.454 429.453 680.787 429.96C680.147 430.467 679.827 431.133 679.827 431.96C679.827 432.493 680.001 432.973 680.347 433.4C680.721 433.8 681.254 434.147 681.947 434.44C682.667 434.733 683.547 434.973 684.587 435.16C685.921 435.4 687.134 435.72 688.227 436.12C689.321 436.52 690.201 437.12 690.867 437.92C691.561 438.693 691.907 439.8 691.907 441.24C691.907 442.493 691.587 443.587 690.947 444.52C690.334 445.453 689.454 446.187 688.307 446.72C687.161 447.227 685.814 447.48 684.267 447.48ZM707.37 447V418.2H710.73V447H707.37ZM722.837 447.48C721.21 447.48 719.85 447.2 718.757 446.64C717.663 446.053 716.85 445.293 716.317 444.36C715.783 443.4 715.517 442.36 715.517 441.24C715.517 439.88 715.863 438.733 716.557 437.8C717.277 436.84 718.277 436.12 719.557 435.64C720.863 435.133 722.397 434.88 724.157 434.88H729.477C729.477 433.627 729.277 432.587 728.877 431.76C728.503 430.907 727.943 430.267 727.197 429.84C726.477 429.413 725.57 429.2 724.477 429.2C723.197 429.2 722.09 429.52 721.157 430.16C720.223 430.8 719.65 431.747 719.437 433H715.997C716.157 431.56 716.637 430.36 717.437 429.4C718.263 428.413 719.303 427.667 720.557 427.16C721.81 426.627 723.117 426.36 724.477 426.36C726.343 426.36 727.89 426.707 729.117 427.4C730.37 428.067 731.303 429.013 731.917 430.24C732.53 431.44 732.837 432.867 732.837 434.52V447H729.837L729.637 443.44C729.37 444 729.023 444.533 728.597 445.04C728.197 445.52 727.717 445.947 727.157 446.32C726.597 446.667 725.957 446.947 725.237 447.16C724.543 447.373 723.743 447.48 722.837 447.48ZM723.357 444.64C724.29 444.64 725.13 444.453 725.877 444.08C726.65 443.68 727.303 443.147 727.837 442.48C728.37 441.787 728.77 441.027 729.037 440.2C729.33 439.373 729.477 438.507 729.477 437.6V437.48H724.437C723.13 437.48 722.077 437.64 721.277 437.96C720.477 438.253 719.903 438.68 719.557 439.24C719.21 439.773 719.037 440.387 719.037 441.08C719.037 441.8 719.197 442.427 719.517 442.96C719.863 443.493 720.357 443.907 720.997 444.2C721.663 444.493 722.45 444.64 723.357 444.64ZM745.634 447.48C743.954 447.48 742.488 447.2 741.234 446.64C740.008 446.08 739.021 445.307 738.274 444.32C737.554 443.307 737.114 442.12 736.954 440.76H740.394C740.528 441.453 740.808 442.093 741.234 442.68C741.661 443.267 742.234 443.747 742.954 444.12C743.701 444.467 744.608 444.64 745.674 444.64C746.608 444.64 747.381 444.507 747.994 444.24C748.608 443.947 749.061 443.56 749.354 443.08C749.674 442.6 749.834 442.08 749.834 441.52C749.834 440.693 749.634 440.067 749.234 439.64C748.861 439.213 748.301 438.88 747.554 438.64C746.808 438.373 745.901 438.147 744.834 437.96C743.954 437.8 743.088 437.587 742.234 437.32C741.381 437.053 740.621 436.707 739.954 436.28C739.288 435.827 738.754 435.28 738.354 434.64C737.981 434 737.794 433.213 737.794 432.28C737.794 431.133 738.088 430.12 738.674 429.24C739.261 428.333 740.101 427.627 741.194 427.12C742.314 426.613 743.608 426.36 745.074 426.36C747.234 426.36 748.981 426.88 750.314 427.92C751.648 428.96 752.434 430.467 752.674 432.44H749.354C749.221 431.427 748.781 430.64 748.034 430.08C747.314 429.493 746.314 429.2 745.034 429.2C743.781 429.2 742.821 429.453 742.154 429.96C741.514 430.467 741.194 431.133 741.194 431.96C741.194 432.493 741.368 432.973 741.714 433.4C742.088 433.8 742.621 434.147 743.314 434.44C744.034 434.733 744.914 434.973 745.954 435.16C747.288 435.4 748.501 435.72 749.594 436.12C750.688 436.52 751.568 437.12 752.234 437.92C752.928 438.693 753.274 439.8 753.274 441.24C753.274 442.493 752.954 443.587 752.314 444.52C751.701 445.453 750.821 446.187 749.674 446.72C748.528 447.227 747.181 447.48 745.634 447.48ZM765.134 447C763.934 447 762.894 446.813 762.014 446.44C761.134 446.067 760.454 445.44 759.974 444.56C759.521 443.653 759.294 442.44 759.294 440.92V429.68H755.774V426.84H759.294L759.734 421.96H762.654V426.84H768.494V429.68H762.654V440.92C762.654 442.173 762.907 443.027 763.414 443.48C763.921 443.907 764.814 444.12 766.094 444.12H768.254V447H765.134ZM100.933 579V577.8L104.533 576.84C107.333 576.04 108.733 574.04 108.733 570.84V548.04L88.9328 507.72C88.2128 506.12 87.5328 504.92 86.8928 504.12C86.3328 503.32 85.4528 502.64 84.2528 502.08L82.0928 501V499.8H114.253V501L112.093 501.84C110.333 502.56 109.373 503.56 109.213 504.84C109.053 506.04 109.373 507.56 110.173 509.4L124.333 540.84L140.173 508.2C140.813 506.92 141.053 505.6 140.893 504.24C140.813 502.88 139.973 502 138.373 501.6L136.693 501V499.8H151.093V501L148.813 501.84C147.293 502.4 146.173 503.2 145.453 504.24C144.733 505.2 144.013 506.44 143.293 507.96L126.853 542.52V570.84C126.853 572.44 127.133 573.76 127.693 574.8C128.333 575.76 129.413 576.44 130.933 576.84L134.653 577.8V579H100.933ZM172.838 580.8C166.758 580.8 161.478 579.56 156.998 577.08C152.518 574.52 149.038 570.92 146.558 566.28C144.158 561.64 142.958 556.2 142.958 549.96C142.958 543.72 144.238 538.32 146.798 533.76C149.438 529.2 152.998 525.68 157.478 523.2C162.038 520.72 167.158 519.48 172.838 519.48C178.518 519.48 183.598 520.72 188.078 523.2C192.558 525.6 196.078 529.08 198.638 533.64C201.278 538.2 202.598 543.64 202.598 549.96C202.598 556.28 201.358 561.76 198.878 566.4C196.478 570.96 193.038 574.52 188.558 577.08C184.158 579.56 178.918 580.8 172.838 580.8ZM172.838 578.4C175.638 578.4 177.878 577.6 179.558 576C181.238 574.4 182.438 571.56 183.158 567.48C183.958 563.4 184.358 557.64 184.358 550.2C184.358 542.68 183.958 536.88 183.158 532.8C182.438 528.72 181.238 525.88 179.558 524.28C177.878 522.68 175.638 521.88 172.838 521.88C170.038 521.88 167.758 522.68 165.998 524.28C164.318 525.88 163.078 528.72 162.278 532.8C161.558 536.88 161.198 542.68 161.198 550.2C161.198 557.64 161.558 563.4 162.278 567.48C163.078 571.56 164.318 574.4 165.998 576C167.758 577.6 170.038 578.4 172.838 578.4ZM229.12 580.8C226 580.8 223.12 580.2 220.48 579C217.92 577.8 215.88 575.88 214.36 573.24C212.92 570.52 212.24 566.96 212.32 562.56L212.68 531.72C212.68 529.88 212.36 528.56 211.72 527.76C211.08 526.96 210.08 526.4 208.72 526.08L207.28 525.6V524.4L228.76 520.2L229.96 521.4L229.36 538.44V567.36C229.36 569.92 230.08 571.8 231.52 573C233.04 574.2 234.92 574.8 237.16 574.8C239.4 574.8 241.4 574.48 243.16 573.84C244.92 573.2 246.68 572.24 248.44 570.96L248.92 531.84C248.92 530 248.64 528.72 248.08 528C247.52 527.2 246.48 526.64 244.96 526.32L243.76 525.96V524.76L264.76 520.2L265.96 521.4L265.6 538.44V570.96C265.6 572.72 265.84 574.08 266.32 575.04C266.8 576 267.84 576.8 269.44 577.44L270.64 577.8V579L249.64 580.2L248.56 573.12C245.92 575.28 243.04 577.12 239.92 578.64C236.88 580.08 233.28 580.8 229.12 580.8ZM326.219 579.36L307.739 528.6C306.859 526.04 305.099 524.24 302.459 523.2L300.419 522.48V521.28H329.819V522.48L328.019 522.96C324.899 523.92 323.859 525.84 324.899 528.72L336.059 562.68L346.019 536.28L343.739 529.44C343.179 527.68 342.579 526.36 341.939 525.48C341.379 524.52 340.619 523.84 339.659 523.44L337.619 522.48V521.28H362.459V522.48L360.779 523.2C359.579 523.68 358.859 524.32 358.619 525.12C358.379 525.92 358.539 527.12 359.099 528.72L370.139 562.08L381.539 528.96C382.659 525.92 382.059 524 379.739 523.2L377.099 522.48V521.28H391.499V522.48L388.619 523.32C387.259 523.72 386.259 524.36 385.619 525.24C385.059 526.04 384.539 527.16 384.059 528.6L366.779 579.36H360.659L347.339 540.12L333.179 579.36H326.219ZM409.769 513.24C407.049 513.24 404.729 512.4 402.809 510.72C400.969 508.96 400.049 506.76 400.049 504.12C400.049 501.4 400.969 499.2 402.809 497.52C404.729 495.84 407.049 495 409.769 495C412.489 495 414.769 495.84 416.609 497.52C418.449 499.2 419.369 501.4 419.369 504.12C419.369 506.76 418.449 508.96 416.609 510.72C414.769 512.4 412.489 513.24 409.769 513.24ZM395.609 579V577.8L397.289 577.32C398.889 576.84 399.969 576.12 400.529 575.16C401.169 574.2 401.489 572.92 401.489 571.32V533.76C401.489 532.08 401.169 530.84 400.529 530.04C399.969 529.16 398.889 528.56 397.289 528.24L395.609 527.88V526.68L417.569 519.6L418.769 520.8L418.409 537.84V571.44C418.409 573.04 418.689 574.32 419.249 575.28C419.889 576.24 420.969 576.96 422.489 577.44L423.689 577.8V579H395.609ZM429.362 579V577.8L430.802 577.32C433.682 576.36 435.122 574.36 435.122 571.32V507.12C435.122 505.52 434.802 504.32 434.162 503.52C433.522 502.64 432.402 502 430.802 501.6L429.242 501.24V500.04L451.202 494.88L452.642 495.96L452.162 512.76V553.8C452.162 556.76 452.162 559.72 452.162 562.68C452.242 565.56 452.282 568.44 452.282 571.32C452.282 572.92 452.602 574.24 453.242 575.28C453.882 576.24 454.962 576.96 456.482 577.44L458.042 577.8V579H429.362ZM463.698 579V577.8L465.138 577.32C468.018 576.36 469.458 574.36 469.458 571.32V507.12C469.458 505.52 469.138 504.32 468.498 503.52C467.858 502.64 466.738 502 465.138 501.6L463.578 501.24V500.04L485.538 494.88L486.978 495.96L486.498 512.76V553.8C486.498 556.76 486.498 559.72 486.498 562.68C486.578 565.56 486.618 568.44 486.618 571.32C486.618 572.92 486.938 574.24 487.578 575.28C488.218 576.24 489.298 576.96 490.818 577.44L492.378 577.8V579H463.698ZM523.806 579V577.8L525.606 577.32C527.206 576.84 528.286 576.12 528.846 575.16C529.486 574.2 529.806 572.96 529.806 571.44V533.88C529.806 532.12 529.486 530.84 528.846 530.04C528.286 529.16 527.206 528.56 525.606 528.24L523.806 527.76V526.56L544.446 519.6L545.646 520.8L546.726 531.12V532.08C547.846 529.84 549.286 527.8 551.046 525.96C552.886 524.04 554.886 522.48 557.046 521.28C559.286 520.08 561.486 519.48 563.646 519.48C566.686 519.48 569.006 520.32 570.606 522C572.206 523.68 573.006 525.8 573.006 528.36C573.006 531.08 572.206 533.2 570.606 534.72C569.086 536.16 567.246 536.88 565.086 536.88C561.726 536.88 558.766 535.2 556.206 531.84L555.966 531.6C555.166 530.48 554.246 529.88 553.206 529.8C552.166 529.64 551.206 530.12 550.326 531.24C549.526 531.96 548.846 532.84 548.286 533.88C547.806 534.84 547.326 535.96 546.846 537.24V570.72C546.846 573.92 548.246 575.92 551.046 576.72L554.886 577.8V579H523.806ZM605.02 519.48C610.22 519.48 614.66 520.56 618.34 522.72C622.02 524.8 624.82 527.68 626.74 531.36C628.74 534.96 629.74 539.08 629.74 543.72C629.74 544.6 629.7 545.52 629.62 546.48C629.54 547.36 629.38 548.16 629.14 548.88H593.38C593.46 557.52 594.98 563.76 597.94 567.6C600.98 571.36 605.46 573.24 611.38 573.24C615.38 573.24 618.62 572.6 621.1 571.32C623.58 570.04 625.9 568.16 628.06 565.68L629.26 566.76C626.78 571.16 623.46 574.6 619.3 577.08C615.22 579.56 610.3 580.8 604.54 580.8C598.86 580.8 593.82 579.6 589.42 577.2C585.02 574.72 581.58 571.2 579.1 566.64C576.62 562.08 575.38 556.64 575.38 550.32C575.38 543.76 576.82 538.2 579.7 533.64C582.58 529 586.26 525.48 590.74 523.08C595.3 520.68 600.06 519.48 605.02 519.48ZM604.66 521.88C602.34 521.88 600.34 522.6 598.66 524.04C597.06 525.4 595.78 527.88 594.82 531.48C593.94 535 593.46 540 593.38 546.48H613.9C614.7 537.76 614.38 531.48 612.94 527.64C611.5 523.8 608.74 521.88 604.66 521.88ZM652.772 580.8C648.132 580.8 644.212 579.48 641.012 576.84C637.892 574.2 636.332 570.4 636.332 565.44C636.332 561.68 638.252 558.24 642.092 555.12C645.932 551.92 651.972 549.52 660.212 547.92C661.492 547.68 662.932 547.44 664.532 547.2C666.132 546.88 667.812 546.56 669.572 546.24V536.76C669.572 531.32 668.892 527.52 667.532 525.36C666.252 523.12 664.212 522 661.412 522C659.492 522 657.972 522.64 656.852 523.92C655.732 525.12 655.012 527.24 654.692 530.28L654.452 531.6C654.292 535.04 653.452 537.56 651.932 539.16C650.412 540.76 648.532 541.56 646.292 541.56C644.212 541.56 642.492 540.92 641.132 539.64C639.772 538.36 639.092 536.64 639.092 534.48C639.092 531.2 640.212 528.44 642.452 526.2C644.772 523.96 647.812 522.28 651.572 521.16C655.332 520.04 659.412 519.48 663.812 519.48C670.932 519.48 676.412 521.24 680.252 524.76C684.172 528.2 686.132 533.84 686.132 541.68V568.2C686.132 571.8 687.812 573.6 691.172 573.6H693.812L694.892 574.56C693.372 576.48 691.692 577.96 689.852 579C688.092 580.04 685.572 580.56 682.292 580.56C678.772 580.56 675.972 579.76 673.892 578.16C671.892 576.48 670.572 574.28 669.932 571.56C667.532 574.12 665.052 576.32 662.492 578.16C660.012 579.92 656.772 580.8 652.772 580.8ZM660.092 573.48C661.692 573.48 663.172 573.12 664.532 572.4C665.972 571.6 667.652 570.4 669.572 568.8V548.64C668.772 548.8 667.972 548.96 667.172 549.12C666.372 549.28 665.452 549.44 664.412 549.6C660.732 550.56 657.772 552.2 655.532 554.52C653.372 556.76 652.292 559.8 652.292 563.64C652.292 566.92 653.052 569.4 654.572 571.08C656.092 572.68 657.932 573.48 660.092 573.48ZM722.801 580.8C718.081 580.8 713.841 579.76 710.081 577.68C706.321 575.52 703.321 572.24 701.081 567.84C698.921 563.36 697.841 557.64 697.841 550.68C697.841 543.64 699.081 537.84 701.561 533.28C704.041 528.64 707.321 525.2 711.401 522.96C715.481 520.64 719.921 519.48 724.721 519.48C727.521 519.48 730.201 519.76 732.761 520.32C735.321 520.88 737.601 521.72 739.601 522.84V507.24C739.601 505.56 739.321 504.32 738.761 503.52C738.281 502.72 737.201 502.16 735.521 501.84L733.241 501.36V500.16L755.081 494.88L756.401 495.96L755.921 512.76V571.44C755.921 573.04 756.201 574.36 756.761 575.4C757.321 576.36 758.361 577.04 759.881 577.44L760.961 577.8V579L740.441 580.32L739.361 576C737.201 577.44 734.721 578.6 731.921 579.48C729.201 580.36 726.161 580.8 722.801 580.8ZM729.761 576.36C733.121 576.36 736.201 575.36 739.001 573.36V525.72C736.041 523.8 733.001 522.84 729.881 522.84C726.041 522.84 722.761 525.08 720.041 529.56C717.321 533.96 715.961 540.92 715.961 550.44C715.961 559.96 717.241 566.68 719.801 570.6C722.361 574.44 725.681 576.36 729.761 576.36ZM815.2 580.8C810.08 580.8 806.08 579.52 803.2 576.96C800.4 574.4 799 570.32 799 564.72V523.68H790.72V522.48L793.6 522C796.08 521.44 798.2 520.64 799.96 519.6C801.8 518.56 803.6 517.16 805.36 515.4L815.2 504.48H816.4L816.04 521.28H829.48V523.68H815.92V566.88C815.92 569.68 816.52 571.8 817.72 573.24C819 574.68 820.6 575.4 822.52 575.4C824.2 575.4 825.68 575 826.96 574.2C828.24 573.32 829.52 572.16 830.8 570.72L832 571.92C830.4 574.64 828.2 576.8 825.4 578.4C822.6 580 819.2 580.8 815.2 580.8ZM836.119 579V577.8L837.559 577.32C840.439 576.36 841.879 574.36 841.879 571.32V507.24C841.879 505.56 841.599 504.32 841.039 503.52C840.479 502.72 839.399 502.12 837.799 501.72L835.999 501.24V500.04L857.119 494.88L859.039 495.96L858.559 512.88V527.88C861.359 525.56 864.359 523.6 867.559 522C870.839 520.32 874.439 519.48 878.359 519.48C883.559 519.48 887.679 520.96 890.719 523.92C893.839 526.88 895.399 531.44 895.399 537.6V571.44C895.399 573.04 895.719 574.32 896.359 575.28C896.999 576.24 898.119 576.96 899.719 577.44L900.679 577.8V579H872.599V577.8L874.039 577.44C876.919 576.48 878.359 574.44 878.359 571.32V533.64C878.359 530.44 877.799 528.24 876.679 527.04C875.639 525.84 873.759 525.24 871.039 525.24C869.279 525.24 867.359 525.6 865.279 526.32C863.199 526.96 861.079 528.12 858.919 529.8V571.56C858.919 574.68 860.359 576.68 863.239 577.56L864.199 577.8V579H836.119ZM919.769 513.24C917.049 513.24 914.729 512.4 912.809 510.72C910.969 508.96 910.049 506.76 910.049 504.12C910.049 501.4 910.969 499.2 912.809 497.52C914.729 495.84 917.049 495 919.769 495C922.489 495 924.769 495.84 926.609 497.52C928.449 499.2 929.369 501.4 929.369 504.12C929.369 506.76 928.449 508.96 926.609 510.72C924.769 512.4 922.489 513.24 919.769 513.24ZM905.609 579V577.8L907.289 577.32C908.889 576.84 909.969 576.12 910.529 575.16C911.169 574.2 911.489 572.92 911.489 571.32V533.76C911.489 532.08 911.169 530.84 910.529 530.04C909.969 529.16 908.889 528.56 907.289 528.24L905.609 527.88V526.68L927.569 519.6L928.769 520.8L928.409 537.84V571.44C928.409 573.04 928.689 574.32 929.249 575.28C929.889 576.24 930.969 576.96 932.489 577.44L933.689 577.8V579H905.609ZM959.762 580.8C955.842 580.8 952.322 580.32 949.202 579.36C946.082 578.48 943.202 577.36 940.562 576L940.682 561.72H941.882L945.962 568.92C947.722 572.12 949.642 574.52 951.722 576.12C953.882 577.64 956.602 578.4 959.882 578.4C963.722 578.4 966.802 577.56 969.122 575.88C971.522 574.12 972.722 571.8 972.722 568.92C972.722 566.28 971.882 564.12 970.202 562.44C968.522 560.76 965.402 559.24 960.842 557.88L955.802 556.32C950.922 554.88 947.082 552.64 944.282 549.6C941.482 546.56 940.082 542.84 940.082 538.44C940.082 533.16 942.162 528.68 946.322 525C950.482 521.32 956.442 519.48 964.202 519.48C967.322 519.48 970.242 519.84 972.962 520.56C975.762 521.2 978.442 522.2 981.002 523.56L980.282 536.52H979.082L974.882 529.08C973.362 526.44 971.842 524.6 970.322 523.56C968.882 522.44 966.682 521.88 963.722 521.88C961.002 521.88 958.442 522.64 956.042 524.16C953.642 525.68 952.442 527.84 952.442 530.64C952.442 533.36 953.442 535.52 955.442 537.12C957.522 538.72 960.562 540.2 964.562 541.56L969.962 543.12C975.722 544.88 979.842 547.32 982.322 550.44C984.802 553.48 986.042 557.16 986.042 561.48C986.042 567.32 983.722 572 979.082 575.52C974.522 579.04 968.082 580.8 959.762 580.8ZM428.887 711V709.8L430.687 709.44C433.887 708.56 435.487 706.48 435.487 703.2C435.567 700.32 435.607 697.32 435.607 694.2C435.607 691 435.607 688.2 435.607 685.8V655.68H428.887V654.36L430.807 654C434.007 653.44 436.007 651.48 436.807 648.12C438.887 640.52 442.807 634.88 448.567 631.2C454.327 627.52 461.327 625.68 469.567 625.68C474.527 625.68 478.567 626.76 481.687 628.92C484.887 631 486.487 633.64 486.487 636.84C486.487 639 485.807 640.72 484.447 642C483.167 643.2 481.407 643.8 479.167 643.8C476.767 643.8 474.847 643.12 473.407 641.76C471.967 640.32 470.727 638.6 469.687 636.6L466.927 631.32C466.367 630.28 465.687 629.56 464.887 629.16C464.087 628.76 463.207 628.84 462.247 629.4C456.087 632.52 452.887 640.48 452.647 653.28H478.207C480.607 653.28 483.007 652.88 485.407 652.08L487.207 651.48L488.767 652.8L488.407 669.48V686.4C488.407 688.64 488.367 691.28 488.287 694.32C488.287 697.36 488.327 700.32 488.407 703.2C488.407 706.4 489.927 708.48 492.967 709.44L493.807 709.68V711H465.607V709.8L466.807 709.32C469.927 708.36 471.487 706.28 471.487 703.08C471.567 700.12 471.567 697 471.487 693.72C471.487 690.44 471.487 687.8 471.487 685.8V677.76C471.487 675.36 471.447 672.8 471.367 670.08C471.367 667.28 471.367 664.6 471.367 662.04C471.367 659.48 471.327 657.36 471.247 655.68H452.647V685.8C452.647 688.12 452.607 690.88 452.527 694.08C452.527 697.2 452.567 700.2 452.647 703.08C452.647 706.36 454.247 708.4 457.447 709.2L459.727 709.8V711H428.887ZM498.611 711V709.8L500.411 709.32C502.011 708.84 503.091 708.12 503.651 707.16C504.291 706.2 504.611 704.96 504.611 703.44V665.88C504.611 664.12 504.291 662.84 503.651 662.04C503.091 661.16 502.011 660.56 500.411 660.24L498.611 659.76V658.56L519.251 651.6L520.451 652.8L521.531 663.12V664.08C522.651 661.84 524.091 659.8 525.851 657.96C527.691 656.04 529.691 654.48 531.851 653.28C534.091 652.08 536.291 651.48 538.451 651.48C541.491 651.48 543.811 652.32 545.411 654C547.011 655.68 547.811 657.8 547.811 660.36C547.811 663.08 547.011 665.2 545.411 666.72C543.891 668.16 542.051 668.88 539.891 668.88C536.531 668.88 533.571 667.2 531.011 663.84L530.771 663.6C529.971 662.48 529.051 661.88 528.011 661.8C526.971 661.64 526.011 662.12 525.131 663.24C524.331 663.96 523.651 664.84 523.091 665.88C522.611 666.84 522.131 667.96 521.651 669.24V702.72C521.651 705.92 523.051 707.92 525.851 708.72L529.691 709.8V711H498.611ZM571.168 712.8C567.248 712.8 563.728 712.32 560.608 711.36C557.488 710.48 554.608 709.36 551.968 708L552.088 693.72H553.288L557.368 700.92C559.128 704.12 561.048 706.52 563.128 708.12C565.288 709.64 568.008 710.4 571.288 710.4C575.128 710.4 578.208 709.56 580.528 707.88C582.928 706.12 584.128 703.8 584.128 700.92C584.128 698.28 583.288 696.12 581.608 694.44C579.928 692.76 576.808 691.24 572.248 689.88L567.208 688.32C562.328 686.88 558.488 684.64 555.688 681.6C552.888 678.56 551.488 674.84 551.488 670.44C551.488 665.16 553.568 660.68 557.728 657C561.888 653.32 567.848 651.48 575.608 651.48C578.728 651.48 581.648 651.84 584.368 652.56C587.168 653.2 589.848 654.2 592.408 655.56L591.688 668.52H590.488L586.288 661.08C584.768 658.44 583.248 656.6 581.728 655.56C580.288 654.44 578.088 653.88 575.128 653.88C572.408 653.88 569.848 654.64 567.448 656.16C565.048 657.68 563.848 659.84 563.848 662.64C563.848 665.36 564.848 667.52 566.848 669.12C568.928 670.72 571.968 672.2 575.968 673.56L581.368 675.12C587.128 676.88 591.248 679.32 593.728 682.44C596.208 685.48 597.448 689.16 597.448 693.48C597.448 699.32 595.128 704 590.488 707.52C585.928 711.04 579.488 712.8 571.168 712.8ZM625.473 712.8C620.353 712.8 616.353 711.52 613.473 708.96C610.673 706.4 609.273 702.32 609.273 696.72V655.68H600.993V654.48L603.873 654C606.353 653.44 608.473 652.64 610.233 651.6C612.073 650.56 613.873 649.16 615.633 647.4L625.473 636.48H626.673L626.313 653.28H639.753V655.68H626.193V698.88C626.193 701.68 626.793 703.8 627.993 705.24C629.273 706.68 630.873 707.4 632.793 707.4C634.473 707.4 635.953 707 637.233 706.2C638.513 705.32 639.793 704.16 641.073 702.72L642.273 703.92C640.673 706.64 638.473 708.8 635.673 710.4C632.873 712 629.473 712.8 625.473 712.8ZM300.144 810V779.712H290.112V776.4H314.208V779.712H304.176V810H300.144ZM318.938 810V775.44H322.97V789.888C323.77 788.448 324.89 787.312 326.33 786.48C327.802 785.648 329.402 785.232 331.13 785.232C332.986 785.232 334.602 785.616 335.978 786.384C337.354 787.12 338.41 788.256 339.146 789.792C339.882 791.328 340.25 793.264 340.25 795.6V810H336.266V796.032C336.266 793.6 335.754 791.776 334.73 790.56C333.706 789.312 332.218 788.688 330.266 788.688C328.89 788.688 327.642 789.024 326.522 789.696C325.434 790.368 324.57 791.328 323.93 792.576C323.29 793.824 322.97 795.36 322.97 797.184V810H318.938ZM357.156 810.576C354.884 810.576 352.868 810.048 351.108 808.992C349.38 807.936 348.02 806.464 347.028 804.576C346.036 802.656 345.54 800.432 345.54 797.904C345.54 795.344 346.02 793.12 346.98 791.232C347.972 789.344 349.348 787.872 351.108 786.816C352.9 785.76 354.948 785.232 357.252 785.232C359.62 785.232 361.62 785.76 363.252 786.816C364.916 787.872 366.18 789.264 367.044 790.992C367.94 792.688 368.388 794.56 368.388 796.608C368.388 796.928 368.388 797.264 368.388 797.616C368.388 797.968 368.372 798.368 368.34 798.816H348.564V795.696H364.452C364.356 793.488 363.62 791.76 362.244 790.512C360.9 789.264 359.204 788.64 357.156 788.64C355.78 788.64 354.5 788.96 353.316 789.6C352.164 790.208 351.236 791.12 350.532 792.336C349.828 793.52 349.476 795.008 349.476 796.8V798.144C349.476 800.128 349.828 801.792 350.532 803.136C351.268 804.48 352.212 805.488 353.364 806.16C354.548 806.832 355.812 807.168 357.156 807.168C358.852 807.168 360.244 806.8 361.332 806.064C362.452 805.296 363.252 804.272 363.732 802.992H367.716C367.332 804.432 366.66 805.728 365.7 806.88C364.74 808.032 363.54 808.944 362.1 809.616C360.692 810.256 359.044 810.576 357.156 810.576ZM373.829 810V785.808H377.477L377.669 790.032C378.437 788.528 379.525 787.36 380.933 786.528C382.373 785.664 384.005 785.232 385.829 785.232C387.717 785.232 389.349 785.616 390.725 786.384C392.101 787.12 393.173 788.256 393.941 789.792C394.709 791.296 395.093 793.216 395.093 795.552V810H391.061V795.984C391.061 793.552 390.517 791.728 389.429 790.512C388.373 789.296 386.869 788.688 384.917 788.688C383.573 788.688 382.373 789.024 381.317 789.696C380.261 790.336 379.413 791.28 378.773 792.528C378.165 793.744 377.861 795.264 377.861 797.088V810H373.829ZM416.781 820.56L422.685 807.312H421.293L411.789 785.808H416.157L424.029 804.288L432.285 785.808H436.461L421.005 820.56H416.781ZM449.363 810.576C447.123 810.576 445.107 810.064 443.315 809.04C441.523 807.984 440.115 806.512 439.091 804.624C438.067 802.704 437.555 800.48 437.555 797.952C437.555 795.36 438.067 793.12 439.091 791.232C440.147 789.312 441.571 787.84 443.363 786.816C445.187 785.76 447.219 785.232 449.459 785.232C451.763 785.232 453.795 785.76 455.555 786.816C457.347 787.84 458.755 789.312 459.779 791.232C460.835 793.12 461.363 795.344 461.363 797.904C461.363 800.464 460.835 802.704 459.779 804.624C458.723 806.512 457.299 807.984 455.507 809.04C453.715 810.064 451.667 810.576 449.363 810.576ZM449.411 807.12C450.787 807.12 452.067 806.784 453.251 806.112C454.435 805.408 455.395 804.368 456.131 802.992C456.867 801.616 457.235 799.92 457.235 797.904C457.235 795.856 456.867 794.16 456.131 792.816C455.427 791.44 454.483 790.416 453.299 789.744C452.147 789.04 450.867 788.688 449.459 788.688C448.115 788.688 446.835 789.04 445.619 789.744C444.435 790.416 443.475 791.44 442.739 792.816C442.035 794.16 441.683 795.856 441.683 797.904C441.683 799.92 442.035 801.616 442.739 802.992C443.475 804.368 444.419 805.408 445.571 806.112C446.755 806.784 448.035 807.12 449.411 807.12ZM475.8 810.576C473.944 810.576 472.312 810.208 470.904 809.472C469.528 808.736 468.456 807.6 467.688 806.064C466.952 804.528 466.584 802.608 466.584 800.304V785.808H470.616V799.872C470.616 802.272 471.144 804.08 472.2 805.296C473.256 806.512 474.744 807.12 476.664 807.12C478.008 807.12 479.224 806.8 480.312 806.16C481.4 805.488 482.248 804.544 482.856 803.328C483.496 802.08 483.816 800.56 483.816 798.768V785.808H487.848V810H484.2L483.96 805.776C483.224 807.28 482.136 808.464 480.696 809.328C479.256 810.16 477.624 810.576 475.8 810.576ZM512.178 810L505.074 785.808H509.106L514.626 806.208H513.906L519.906 785.808H524.466L530.562 806.16L529.794 806.208L535.266 785.808H539.346L532.29 810H528.162L521.826 788.688H522.642L516.306 810H512.178ZM544.275 810V785.808H548.307V810H544.275ZM546.291 780.672C545.491 780.672 544.819 780.416 544.275 779.904C543.763 779.36 543.507 778.688 543.507 777.888C543.507 777.088 543.763 776.448 544.275 775.968C544.819 775.456 545.491 775.2 546.291 775.2C547.059 775.2 547.715 775.456 548.259 775.968C548.803 776.448 549.075 777.088 549.075 777.888C549.075 778.688 548.803 779.36 548.259 779.904C547.715 780.416 547.059 780.672 546.291 780.672ZM555.423 810V775.44H559.455V810H555.423ZM566.11 810V775.44H570.142V810H566.11ZM589.548 810V785.808H593.196L593.484 790.416C594.028 789.328 594.716 788.4 595.548 787.632C596.412 786.864 597.436 786.272 598.62 785.856C599.836 785.44 601.212 785.232 602.748 785.232V789.456H601.26C600.236 789.456 599.26 789.6 598.332 789.888C597.404 790.144 596.572 790.576 595.836 791.184C595.132 791.792 594.572 792.624 594.156 793.68C593.772 794.704 593.58 795.984 593.58 797.52V810H589.548ZM617.031 810.576C614.759 810.576 612.743 810.048 610.983 808.992C609.255 807.936 607.895 806.464 606.903 804.576C605.911 802.656 605.415 800.432 605.415 797.904C605.415 795.344 605.895 793.12 606.855 791.232C607.847 789.344 609.223 787.872 610.983 786.816C612.775 785.76 614.823 785.232 617.127 785.232C619.495 785.232 621.495 785.76 623.127 786.816C624.791 787.872 626.055 789.264 626.919 790.992C627.815 792.688 628.263 794.56 628.263 796.608C628.263 796.928 628.263 797.264 628.263 797.616C628.263 797.968 628.247 798.368 628.215 798.816H608.439V795.696H624.327C624.231 793.488 623.495 791.76 622.119 790.512C620.775 789.264 619.079 788.64 617.031 788.64C615.655 788.64 614.375 788.96 613.191 789.6C612.039 790.208 611.111 791.12 610.407 792.336C609.703 793.52 609.351 795.008 609.351 796.8V798.144C609.351 800.128 609.703 801.792 610.407 803.136C611.143 804.48 612.087 805.488 613.239 806.16C614.423 806.832 615.687 807.168 617.031 807.168C618.727 807.168 620.119 806.8 621.207 806.064C622.327 805.296 623.127 804.272 623.607 802.992H627.591C627.207 804.432 626.535 805.728 625.575 806.88C624.615 808.032 623.415 808.944 621.975 809.616C620.567 810.256 618.919 810.576 617.031 810.576ZM641.576 810.576C639.624 810.576 637.992 810.24 636.68 809.568C635.368 808.864 634.392 807.952 633.752 806.832C633.112 805.68 632.792 804.432 632.792 803.088C632.792 801.456 633.208 800.08 634.04 798.96C634.904 797.808 636.104 796.944 637.64 796.368C639.208 795.76 641.048 795.456 643.16 795.456H649.544C649.544 793.952 649.304 792.704 648.824 791.712C648.376 790.688 647.704 789.92 646.808 789.408C645.944 788.896 644.856 788.64 643.544 788.64C642.008 788.64 640.68 789.024 639.56 789.792C638.44 790.56 637.752 791.696 637.496 793.2H633.368C633.56 791.472 634.136 790.032 635.096 788.88C636.088 787.696 637.336 786.8 638.84 786.192C640.344 785.552 641.912 785.232 643.544 785.232C645.784 785.232 647.64 785.648 649.112 786.48C650.616 787.28 651.736 788.416 652.472 789.888C653.208 791.328 653.576 793.04 653.576 795.024V810H649.976L649.736 805.728C649.416 806.4 649 807.04 648.488 807.648C648.008 808.224 647.432 808.736 646.76 809.184C646.088 809.6 645.32 809.936 644.456 810.192C643.624 810.448 642.664 810.576 641.576 810.576ZM642.2 807.168C643.32 807.168 644.328 806.944 645.224 806.496C646.152 806.016 646.936 805.376 647.576 804.576C648.216 803.744 648.696 802.832 649.016 801.84C649.368 800.848 649.544 799.808 649.544 798.72V798.576H643.496C641.928 798.576 640.664 798.768 639.704 799.152C638.744 799.504 638.056 800.016 637.64 800.688C637.224 801.328 637.016 802.064 637.016 802.896C637.016 803.76 637.208 804.512 637.592 805.152C638.008 805.792 638.6 806.288 639.368 806.64C640.168 806.992 641.112 807.168 642.2 807.168ZM670.469 810.576C668.133 810.576 666.085 810.032 664.325 808.944C662.565 807.824 661.205 806.304 660.245 804.384C659.285 802.464 658.805 800.288 658.805 797.856C658.805 795.424 659.285 793.264 660.245 791.376C661.205 789.456 662.565 787.952 664.325 786.864C666.117 785.776 668.181 785.232 670.517 785.232C672.501 785.232 674.229 785.632 675.701 786.432C677.205 787.232 678.357 788.352 679.157 789.792V775.44H683.189V810H679.541L679.205 806.016C678.693 806.816 678.037 807.568 677.237 808.272C676.437 808.944 675.477 809.504 674.357 809.952C673.237 810.368 671.941 810.576 670.469 810.576ZM670.949 807.072C672.549 807.072 673.957 806.688 675.173 805.92C676.389 805.152 677.333 804.096 678.005 802.752C678.677 801.376 679.013 799.76 679.013 797.904C679.013 796.08 678.677 794.48 678.005 793.104C677.333 791.728 676.389 790.656 675.173 789.888C673.957 789.12 672.549 788.736 670.949 788.736C669.381 788.736 667.989 789.12 666.773 789.888C665.557 790.656 664.613 791.728 663.941 793.104C663.269 794.48 662.933 796.08 662.933 797.904C662.933 799.76 663.269 801.376 663.941 802.752C664.613 804.096 665.557 805.152 666.773 805.92C667.989 806.688 669.381 807.072 670.949 807.072ZM712.161 810C710.721 810 709.473 809.776 708.417 809.328C707.361 808.88 706.545 808.128 705.969 807.072C705.425 805.984 705.153 804.528 705.153 802.704V789.216H700.929V785.808H705.153L705.681 779.952H709.185V785.808H716.193V789.216H709.185V802.704C709.185 804.208 709.489 805.232 710.097 805.776C710.705 806.288 711.777 806.544 713.313 806.544H715.905V810H712.161ZM721.454 810V775.44H725.486V789.888C726.286 788.448 727.406 787.312 728.846 786.48C730.318 785.648 731.918 785.232 733.646 785.232C735.502 785.232 737.118 785.616 738.494 786.384C739.87 787.12 740.926 788.256 741.662 789.792C742.398 791.328 742.766 793.264 742.766 795.6V810H738.782V796.032C738.782 793.6 738.27 791.776 737.246 790.56C736.222 789.312 734.734 788.688 732.782 788.688C731.406 788.688 730.158 789.024 729.038 789.696C727.95 790.368 727.086 791.328 726.446 792.576C725.806 793.824 725.486 795.36 725.486 797.184V810H721.454ZM749.447 810V785.808H753.479V810H749.447ZM751.463 780.672C750.663 780.672 749.991 780.416 749.447 779.904C748.935 779.36 748.679 778.688 748.679 777.888C748.679 777.088 748.935 776.448 749.447 775.968C749.991 775.456 750.663 775.2 751.463 775.2C752.231 775.2 752.887 775.456 753.431 775.968C753.975 776.448 754.247 777.088 754.247 777.888C754.247 778.688 753.975 779.36 753.431 779.904C752.887 780.416 752.231 780.672 751.463 780.672ZM769.714 810.576C767.698 810.576 765.938 810.24 764.434 809.568C762.962 808.896 761.778 807.968 760.882 806.784C760.018 805.568 759.49 804.144 759.298 802.512H763.426C763.586 803.344 763.922 804.112 764.434 804.816C764.946 805.52 765.634 806.096 766.498 806.544C767.394 806.96 768.482 807.168 769.762 807.168C770.882 807.168 771.81 807.008 772.546 806.688C773.282 806.336 773.826 805.872 774.178 805.296C774.562 804.72 774.754 804.096 774.754 803.424C774.754 802.432 774.514 801.68 774.034 801.168C773.586 800.656 772.914 800.256 772.018 799.968C771.122 799.648 770.034 799.376 768.754 799.152C767.698 798.96 766.658 798.704 765.634 798.384C764.61 798.064 763.698 797.648 762.898 797.136C762.098 796.592 761.458 795.936 760.978 795.168C760.53 794.4 760.306 793.456 760.306 792.336C760.306 790.96 760.658 789.744 761.362 788.688C762.066 787.6 763.074 786.752 764.386 786.144C765.73 785.536 767.282 785.232 769.042 785.232C771.634 785.232 773.73 785.856 775.33 787.104C776.93 788.352 777.874 790.16 778.162 792.528H774.178C774.018 791.312 773.49 790.368 772.594 789.696C771.73 788.992 770.53 788.64 768.994 788.64C767.49 788.64 766.338 788.944 765.538 789.552C764.77 790.16 764.386 790.96 764.386 791.952C764.386 792.592 764.594 793.168 765.01 793.68C765.458 794.16 766.098 794.576 766.93 794.928C767.794 795.28 768.85 795.568 770.098 795.792C771.698 796.08 773.154 796.464 774.466 796.944C775.778 797.424 776.834 798.144 777.634 799.104C778.466 800.032 778.882 801.36 778.882 803.088C778.882 804.592 778.498 805.904 777.73 807.024C776.994 808.144 775.938 809.024 774.562 809.664C773.186 810.272 771.57 810.576 769.714 810.576Z" fill="black"/>
</svg>
