<svg xmlns="http://www.w3.org/2000/svg" width="1080" height="1350" fill="none"><path fill="#000" d="M325.065 448q-.68-1.8-1.28-3.52-.6-1.76-1.24-3.56h-12.56l-2.52 7.08h-4.04a797 797 0 0 1 3-8.12q1.4-3.76 2.72-7.12 1.36-3.36 2.68-6.4 1.32-3.08 2.76-6.08h3.56q1.44 3 2.76 6.08 1.32 3.04 2.64 6.4 1.36 3.36 2.76 7.12 1.401 3.72 3 8.12zm-3.64-10.28a298 298 0 0 0-2.56-6.72 105 105 0 0 0-2.6-6.28 106 106 0 0 0-2.68 6.28q-1.24 3.24-2.48 6.72zm11.404-9.92q1.28-.32 3.4-.68t4.88-.36q2.48 0 4.12.72 1.64.68 2.6 1.96 1 1.24 1.4 3t.4 3.88V448h-3.72v-10.88q0-1.92-.28-3.28-.24-1.36-.84-2.2t-1.6-1.2q-1-.4-2.48-.4a20 20 0 0 0-2.48.16 11.4 11.4 0 0 0-1.68.24V448h-3.72zm36.409 3.8q-.68-.56-1.96-1.08t-2.8-.52q-1.6 0-2.76.6a4.83 4.83 0 0 0-1.84 1.6q-.72 1-1.04 2.4t-.32 3q0 3.64 1.8 5.64 1.8 1.96 4.8 1.96 1.52 0 2.52-.12 1.04-.16 1.6-.32zm0-14 3.72-.64v30.44q-1.28.36-3.28.72t-4.6.36q-2.4 0-4.32-.76t-3.28-2.16-2.12-3.4q-.72-2.04-.72-4.56 0-2.4.6-4.4.64-2 1.84-3.44a8.3 8.3 0 0 1 2.92-2.24q1.76-.8 4-.8 1.8 0 3.16.48 1.4.48 2.08.92zm16.932 34.28a6.2 6.2 0 0 0 1.12.36q.72.2 1.4.2 2.2 0 3.44-1 1.24-.96 2.24-3.16a120 120 0 0 1-4.72-10.16q-2.16-5.4-3.6-10.92h4q.44 1.8 1.04 3.88.64 2.08 1.4 4.28a98 98 0 0 0 1.64 4.4q.88 2.2 1.84 4.24 1.52-4.2 2.64-8.32a219 219 0 0 0 2.12-8.48h3.84q-1.44 5.88-3.2 11.32-1.76 5.4-3.8 10.12-.8 1.8-1.68 3.08-.84 1.32-1.88 2.16t-2.36 1.24q-1.28.4-2.92.4-.44 0-.92-.08-.48-.04-.96-.16a8 8 0 0 1-.84-.2 5 5 0 0 1-.52-.2zm40.683-14.28q0 2.48-.72 4.48t-2.04 3.44a8.9 8.9 0 0 1-3.08 2.24q-1.8.76-3.92.76t-3.92-.76a9.3 9.3 0 0 1-3.12-2.24q-1.28-1.44-2-3.44t-.72-4.48q0-2.44.72-4.44.72-2.04 2-3.48a8.9 8.9 0 0 1 3.12-2.2q1.8-.8 3.92-.8t3.92.8a8.5 8.5 0 0 1 3.08 2.2q1.32 1.44 2.04 3.48.72 2 .72 4.44m-3.88 0q0-3.52-1.6-5.56-1.56-2.08-4.28-2.08t-4.32 2.08q-1.56 2.04-1.56 5.56t1.56 5.6q1.6 2.04 4.32 2.04t4.28-2.04q1.6-2.08 1.6-5.6m25.674 9.8q-1.28.32-3.4.68-2.08.36-4.84.36-2.4 0-4.04-.68-1.641-.72-2.64-2t-1.44-3q-.44-1.76-.44-3.88V427.2h3.72v10.88q0 3.8 1.2 5.44t4.04 1.64q.6 0 1.24-.04.639-.04 1.2-.08.56-.08 1-.12.48-.08.68-.16V427.2h3.72zm32.666.6a198 198 0 0 1-2.4-6.56 120 120 0 0 1-2.28-7.72 119 119 0 0 1-2.28 7.72 152 152 0 0 1-2.36 6.56h-3.24q-1.839-4.12-3.6-9.4-1.76-5.28-3.32-11.4h4q.4 1.88.96 4.08t1.16 4.4q.64 2.2 1.32 4.24a71 71 0 0 0 1.28 3.56 84 84 0 0 0 1.32-3.96q.68-2.12 1.28-4.24.6-2.16 1.12-4.2.561-2.08.96-3.88h3.08q.36 1.8.88 3.88.52 2.04 1.12 4.2.6 2.12 1.24 4.24.68 2.08 1.36 3.96.6-1.52 1.24-3.56.681-2.04 1.32-4.24.64-2.2 1.2-4.4.561-2.2.96-4.08h3.84q-1.56 6.12-3.32 11.4t-3.6 9.4zm17.814 0h-3.72v-20.8h3.72zm-1.88-24.56q-1 0-1.72-.64-.68-.68-.68-1.8t.68-1.76a2.42 2.42 0 0 1 1.72-.68q1 0 1.68.68.72.64.72 1.76t-.72 1.8q-.68.64-1.68.64m14.517 24.96q-3.44-.08-4.88-1.48t-1.44-4.36V417.6l3.72-.64v25q0 .92.16 1.52t.52.96.96.56q.6.16 1.48.28zm10.938 0q-3.44-.08-4.88-1.48t-1.44-4.36V417.6l3.72-.64v25q0 .92.16 1.52t.52.96.96.56q.6.16 1.48.28zm21.635-21.64q.48 0 1.08.08.64.04 1.24.16.6.08 1.08.2.52.08.76.16l-.64 3.24q-.44-.16-1.48-.36-1-.24-2.6-.24-1.04 0-2.08.24-1 .2-1.32.28V448h-3.72v-19.92q1.32-.48 3.28-.88 1.96-.44 4.4-.44m6.59 10.88q0-2.76.8-4.8.8-2.08 2.12-3.44a8.6 8.6 0 0 1 3.04-2.04 9.5 9.5 0 0 1 3.52-.68q4.2 0 6.44 2.64 2.24 2.6 2.24 7.96v.64q0 .36-.04.68h-14.24q.24 3.24 1.88 4.92t5.12 1.68q1.96 0 3.28-.32 1.359-.36 2.04-.68l.52 3.12q-.681.36-2.4.76-1.68.4-3.84.4-2.72 0-4.72-.8-1.96-.84-3.24-2.28t-1.92-3.4q-.6-2-.6-4.36m14.28-2.04q.04-2.52-1.28-4.12-1.28-1.64-3.56-1.64-1.281 0-2.28.52-.96.48-1.64 1.28a6.3 6.3 0 0 0-1.08 1.84q-.36 1.04-.48 2.12zm16.263 9.72q1.32 0 2.32-.04 1.04-.08 1.72-.24v-6.2q-.399-.2-1.32-.32-.879-.16-2.16-.16-.84 0-1.8.12a5.4 5.4 0 0 0-1.72.52q-.76.36-1.28 1.04-.52.64-.52 1.72 0 2 1.28 2.8 1.281.76 3.48.76m-.32-18.64q2.24 0 3.76.6 1.56.56 2.48 1.64.96 1.04 1.36 2.52.4 1.44.4 3.2v13q-.48.08-1.36.24-.84.12-1.92.24t-2.36.2q-1.24.12-2.48.12-1.76 0-3.24-.36t-2.56-1.12a5.4 5.4 0 0 1-1.68-2.08q-.6-1.28-.6-3.08 0-1.72.68-2.96a5.75 5.75 0 0 1 1.92-2q1.2-.76 2.8-1.12t3.36-.36q.56 0 1.16.08.6.04 1.12.16a18 18 0 0 1 1.52.28v-1.04q0-.92-.2-1.8a4 4 0 0 0-.72-1.6q-.519-.72-1.44-1.12-.88-.44-2.32-.44-1.839 0-3.24.28-1.359.24-2.04.52l-.44-3.08q.72-.32 2.4-.6a19.5 19.5 0 0 1 3.64-.32m27.619 4.92q-.68-.56-1.96-1.08t-2.8-.52q-1.6 0-2.76.6a4.83 4.83 0 0 0-1.84 1.6q-.72 1-1.04 2.4t-.32 3q0 3.64 1.8 5.64 1.8 1.96 4.8 1.96 1.52 0 2.52-.12 1.04-.16 1.6-.32zm0-14 3.72-.64v30.44q-1.28.36-3.28.72t-4.6.36q-2.4 0-4.32-.76t-3.28-2.16-2.12-3.4q-.72-2.04-.72-4.56 0-2.4.6-4.4.64-2 1.84-3.44a8.3 8.3 0 0 1 2.92-2.24q1.76-.8 4-.8 1.8 0 3.16.48 1.4.48 2.08.92zm22.852 9.6h7.88v3.12h-7.88v9.6q0 1.56.24 2.6.24 1 .72 1.6.48.56 1.2.8t1.68.24q1.68 0 2.68-.36 1.041-.4 1.44-.56l.72 3.08q-.56.28-1.96.68-1.4.44-3.2.44-2.12 0-3.52-.52-1.36-.56-2.2-1.64t-1.2-2.64q-.32-1.6-.32-3.68V421.4l3.72-.64zm12.614 20.8v-30.4l3.72-.64v10.64a11.6 11.6 0 0 1 2.2-.6q1.2-.24 2.36-.24 2.48 0 4.12.72 1.64.68 2.6 1.96 1 1.24 1.4 3t.4 3.88V448h-3.72v-10.88q0-1.92-.28-3.28-.24-1.36-.84-2.2t-1.6-1.2q-1-.4-2.48-.4-.6 0-1.24.08t-1.24.2q-.56.08-1.04.2a7 7 0 0 0-.64.2V448zm26.572 0h-3.72v-20.8h3.72zm-1.88-24.56q-1 0-1.72-.64-.68-.68-.68-1.8t.68-1.76a2.42 2.42 0 0 1 1.72-.68q.999 0 1.68.68.72.64.72 1.76t-.72 1.8q-.681.64-1.68.64m13.117 21.88q2.28 0 3.36-.6 1.12-.6 1.12-1.92 0-1.36-1.08-2.16t-3.56-1.8q-1.2-.48-2.32-.96a8.8 8.8 0 0 1-1.88-1.2q-.8-.68-1.28-1.64t-.48-2.36q0-2.76 2.04-4.36 2.04-1.64 5.56-1.64.88 0 1.76.12.88.08 1.64.24.76.12 1.32.28.6.16.92.28l-.68 3.2q-.6-.32-1.88-.64-1.28-.36-3.08-.36-1.56 0-2.72.64-1.16.6-1.16 1.92 0 .68.24 1.2.28.52.8.96.56.4 1.36.76t1.92.76q1.48.56 2.64 1.12 1.16.52 1.96 1.24a4.7 4.7 0 0 1 1.28 1.76q.44 1 .44 2.48 0 2.88-2.16 4.36-2.12 1.48-6.08 1.48-2.76 0-4.32-.48-1.56-.44-2.12-.68l.68-3.2q.64.24 2.04.72t3.72.48m28.509 3.08q-3.44-.08-4.88-1.48t-1.44-4.36V417.6l3.72-.64v25q0 .92.16 1.52t.52.96.96.56q.6.16 1.48.28zm11.738-3.08q1.32 0 2.32-.04a11.5 11.5 0 0 0 1.72-.24v-6.2q-.4-.2-1.32-.32-.88-.16-2.16-.16-.84 0-1.8.12a5.4 5.4 0 0 0-1.72.52q-.76.36-1.28 1.04-.52.64-.52 1.72 0 2 1.28 2.8 1.28.76 3.48.76m-.32-18.64q2.24 0 3.76.6 1.56.56 2.48 1.64.96 1.04 1.36 2.52.4 1.44.4 3.2v13q-.48.08-1.36.24-.84.12-1.92.24t-2.36.2q-1.24.12-2.48.12-1.761 0-3.24-.36t-2.56-1.12a5.4 5.4 0 0 1-1.68-2.08q-.6-1.28-.6-3.08 0-1.72.68-2.96a5.75 5.75 0 0 1 1.92-2q1.2-.76 2.8-1.12t3.36-.36q.56 0 1.16.08.6.04 1.12.16a18 18 0 0 1 1.52.28v-1.04a8 8 0 0 0-.2-1.8 4 4 0 0 0-.72-1.6q-.52-.72-1.44-1.12-.88-.44-2.32-.44-1.84 0-3.24.28-1.36.24-2.04.52l-.44-3.08q.72-.32 2.4-.6 1.68-.32 3.64-.32m19.018 18.64q2.28 0 3.36-.6 1.12-.6 1.12-1.92 0-1.36-1.08-2.16t-3.56-1.8q-1.2-.48-2.32-.96a8.8 8.8 0 0 1-1.88-1.2q-.8-.68-1.28-1.64t-.48-2.36q0-2.76 2.04-4.36 2.04-1.64 5.56-1.64a13 13 0 0 1 1.76.12 14 14 0 0 1 1.64.24q.76.12 1.32.28.6.16.92.28l-.68 3.2q-.6-.32-1.88-.64-1.28-.36-3.08-.36-1.56 0-2.72.64-1.16.6-1.16 1.92 0 .68.24 1.2.28.52.8.96.56.4 1.36.76.801.36 1.92.76 1.48.56 2.64 1.12 1.16.52 1.96 1.24a4.7 4.7 0 0 1 1.28 1.76q.44 1 .44 2.48 0 2.88-2.16 4.36-2.12 1.48-6.08 1.48-2.76 0-4.32-.48-1.56-.44-2.12-.68l.68-3.2q.64.24 2.04.72 1.401.48 3.72.48m16.492-18.12h7.88v3.12h-7.88v9.6q0 1.56.24 2.6.24 1 .72 1.6.48.56 1.2.8t1.68.24q1.68 0 2.68-.36 1.04-.4 1.44-.56l.72 3.08q-.56.28-1.96.68-1.4.44-3.2.44-2.12 0-3.52-.52-1.36-.56-2.2-1.64t-1.2-2.64q-.32-1.6-.32-3.68V421.4l3.72-.64zM182.784 557.44h-10.2l-16.44-52.56h11.04l10.44 41.4 9.84-41.4h11.04zm-10.56-6h10.92V580h-10.92zm55.839 9.36v-27.24q0-2.28-.72-2.88-.6-.72-2.88-.72h-3.6v-8.52h6.72q5.88 0 8.52 2.76 2.64 2.64 2.64 7.92v28.68zm0 7.08v-12.12h10.68v13.68q0 5.16-2.64 7.92-2.64 2.64-8.52 2.64h-7.32v-8.52h4.2q2.28 0 2.88-.72.72-.72.72-2.88m-13.68-34.32v27.36h-10.68v-28.8q0-5.28 2.64-7.92 2.64-2.76 8.4-2.76h6.84v8.52h-3.6q-2.16 0-2.88.72-.72.6-.72 2.88m0 21.48v12.84q0 2.16.72 2.88t2.88.72h3.24V580h-6.48q-5.76 0-8.4-2.64-2.64-2.76-2.64-7.92v-14.4zm34.215-33.6h10.8v46.32q0 2.04.72 2.76t2.88.72h4.2q2.04 0 3-.84.96-.96.96-3.36v-3.84h.48v8.64q0 4.32-2.16 6.24t-5.76 1.92h-4.32q-5.52 0-8.16-2.64-2.64-2.76-2.64-7.92zm22.56 0h10.8V580h-10.8v-58.56m87.811 0h10.2l-10.8 58.56h-14.28l-6.96-44.28-6.96 44.28h-14.28l-10.68-58.56h10.2l7.8 49.32 7.56-49.32h12.84l7.32 49.32zM385.846 580h-10.8v-58.56h10.8zm-11.04-69.72V499.6h11.28v10.68zM407.174 580h-10.8v-80.28h10.8zm21.328 0h-10.8v-80.28h10.8zm50.552-58.68v9.48h-4.32q-7.56 0-7.56 8.76v2.52h-.48v-10.2q0-2.52 1.08-4.92 1.2-2.52 3.36-4.08 2.28-1.56 5.52-1.56zM467.174 580h-10.8v-58.56h10.8V580m28.114-46.56V568q0 2.04.72 2.76t2.88.72h3V580h-6q-5.76 0-8.52-2.64-2.64-2.76-2.64-7.92v-37.32q0-5.28 2.64-7.92 2.76-2.76 8.52-2.76h6.6v8.52h-3.6q-2.16 0-2.88.72-.72.6-.72 2.76m12.96 19.08v-19.08q0-2.16-.72-2.76-.6-.72-2.76-.72h-3.84v-8.52h6.72q5.88 0 8.52 2.76 2.76 2.64 2.76 7.92v20.4zm-.24 15.36v-4.8h10.56v6.36q0 5.16-2.64 7.92-2.64 2.64-8.52 2.64h-6.48v-8.52h3.48q2.28 0 2.88-.72.72-.72.72-2.88m10.92-21.72v7.92h-30.36v-7.92zm19.362 6.6h-10.8v-20.64q0-5.28 2.64-7.92 2.64-2.76 8.16-2.76h4.32q3.6 0 5.76 1.92t2.16 6.24v8.04h-.48v-3.24q0-2.28-.96-3.24t-3-.96h-4.2q-2.16 0-2.88.72-.72.6-.72 2.76zM560.85 580h-10.8v-58.56h10.8zm-33.36-31.32h10.8v19.08q0 2.04.72 2.76t2.88.72h4.2q2.04 0 3-.84.96-.96.96-3.36v-3.12h.48v7.92q0 4.32-2.16 6.24t-5.76 1.92h-4.32q-5.52 0-8.16-2.64-2.64-2.76-2.64-7.92zm54.042 3.96h-10.8V532q0-5.28 2.64-7.92 2.64-2.76 8.16-2.76h4.32q3.6 0 5.76 1.92t2.16 6.24v8.64h-.48v-3.84q0-2.28-.96-3.24t-3-.96h-4.2q-2.16 0-2.88.72-.72.6-.72 2.76zm11.76-52.92h10.8V580h-10.8v-80.28m-22.56 48.96h10.8v19.08q0 2.04.72 2.76t2.88.72h4.2q2.04 0 3-.84.96-.96.96-3.36v-2.76h.48v7.56q0 4.32-2.16 6.24t-5.76 1.92h-4.32q-5.52 0-8.16-2.64-2.64-2.76-2.64-7.92zm73.066-37.2v55.8q0 2.04.72 2.76t2.76.72h4.56V580h-7.68q-5.88 0-8.64-2.64-2.64-2.76-2.64-7.92v-57.96zm8.04 9.96v8.76h-24.48v-8.76zm39.81 58.56h-10.8v-46.32q0-2.16-.72-2.76-.72-.72-2.88-.72h-4.2q-2.04 0-3 .96t-.96 3.24v3.6h-.48v-8.4q0-4.32 2.16-6.24t5.76-1.92h4.32q5.52 0 8.16 2.76 2.64 2.64 2.64 7.92zm-22.56 0h-10.8v-80.28h10.8zm43.828 0h-10.8v-58.56h10.8zm-11.04-69.72V499.6h11.28v10.68zm41.128 57.96v-9.72q0-2.16-.72-2.76-.6-.72-2.88-.72h-6.12q-5.88 0-8.52-2.64-2.64-2.76-2.64-7.92v-12.36q0-5.28 2.64-7.92 2.76-2.76 8.52-2.76h8.76q5.88 0 8.52 2.76 2.76 2.64 2.76 7.92v5.64h-10.56v-4.56q0-2.16-.72-2.76-.6-.72-2.88-.72h-2.88q-2.16 0-2.88.72-.72.6-.72 2.76v10.08q0 2.16.72 2.88.72.6 2.88.6h6.24q5.76 0 8.4 2.76 2.64 2.64 2.64 7.92v12q0 5.16-2.76 7.92-2.64 2.64-8.4 2.64h-8.88q-5.76 0-8.52-2.64-2.64-2.76-2.64-7.92v-5.76h10.68v4.56q0 2.04.72 2.76t2.76.72h2.88q2.28 0 2.88-.72.72-.72.72-2.76M814.843 580h-10.8v-58.56h10.8zm-22.68-67.8V580h-10.68v-69.72q0-5.16 2.64-7.8 2.76-2.76 8.52-2.76h5.52v9h-2.4q-2.16 0-2.88.72-.72.6-.72 2.76m20.16 9.24v8.76h-36.72v-8.76zm-8.28-12.72v-9h10.8v9zm44.034 12.6v9.48h-4.32q-7.56 0-7.56 8.76v2.52h-.48v-10.2q0-2.52 1.08-4.92 1.2-2.52 3.36-4.08 2.28-1.56 5.52-1.56zM836.197 580h-10.8v-58.56h10.8V580m37.354-11.76v-9.72q0-2.16-.72-2.76-.6-.72-2.88-.72h-6.12q-5.88 0-8.52-2.64-2.64-2.76-2.64-7.92v-12.36q0-5.28 2.64-7.92 2.76-2.76 8.52-2.76h8.76q5.88 0 8.52 2.76 2.76 2.64 2.76 7.92v5.64h-10.56v-4.56q0-2.16-.72-2.76-.6-.72-2.88-.72h-2.88q-2.16 0-2.88.72-.72.6-.72 2.76v10.08q0 2.16.72 2.88.72.6 2.88.6h6.24q5.76 0 8.4 2.76 2.64 2.64 2.64 7.92v12q0 5.16-2.76 7.92-2.64 2.64-8.4 2.64h-8.88q-5.76 0-8.52-2.64-2.64-2.76-2.64-7.92v-5.76h10.68v4.56q0 2.04.72 2.76t2.76.72h2.88q2.28 0 2.88-.72.72-.72.72-2.76m31.575-56.76v55.8q0 2.04.72 2.76t2.76.72h4.56V580h-7.68q-5.88 0-8.64-2.64-2.64-2.76-2.64-7.92v-57.96zm8.04 9.96v8.76h-24.48v-8.76zM317.461 645.736v4.032h-10.464V679h-4.656v-29.232h-10.464v-4.032zM322.09 679v-36.48l4.464-.768v12.768q1.248-.48 2.64-.72 1.44-.288 2.832-.288 2.976 0 4.944.864 1.968.816 3.12 2.352 1.2 1.488 1.68 3.6t.48 4.656V679h-4.464v-13.056q0-2.304-.336-3.936-.288-1.632-1.008-2.64a3.94 3.94 0 0 0-1.92-1.44q-1.2-.48-2.976-.48-.72 0-1.488.096t-1.488.24q-.672.096-1.248.24a8 8 0 0 0-.768.24V679zm26.03-12.432q0-3.312.96-5.76.96-2.496 2.544-4.128a10.3 10.3 0 0 1 3.648-2.448 11.4 11.4 0 0 1 4.224-.816q5.04 0 7.728 3.168 2.688 3.12 2.688 9.552v.768q0 .432-.048.816h-17.088q.288 3.888 2.256 5.904t6.144 2.016q2.352 0 3.936-.384 1.632-.432 2.448-.816l.624 3.744q-.816.432-2.88.912-2.016.48-4.608.48-3.264 0-5.664-.96-2.352-1.008-3.888-2.736t-2.304-4.08q-.72-2.4-.72-5.232m17.136-2.448q.048-3.024-1.536-4.944-1.536-1.968-4.272-1.968-1.536 0-2.736.624a6.2 6.2 0 0 0-1.968 1.536 7.6 7.6 0 0 0-1.296 2.208q-.432 1.248-.576 2.544zm11.068-9.36q1.536-.384 4.08-.816t5.856-.432q2.976 0 4.944.864 1.968.816 3.12 2.352 1.2 1.488 1.68 3.6t.48 4.656V679h-4.464v-13.056q0-2.304-.336-3.936-.288-1.632-1.008-2.64a3.94 3.94 0 0 0-1.92-1.44q-1.2-.48-2.976-.48-.72 0-1.488.048t-1.488.144q-.672.048-1.248.144-.528.096-.768.144V679h-4.464zm35.744 28.896q.528.24 1.344.432.864.24 1.68.24 2.64 0 4.128-1.2 1.488-1.152 2.688-3.792a143 143 0 0 1-5.664-12.192 110 110 0 0 1-4.32-13.104h4.8q.528 2.16 1.248 4.656a159 159 0 0 0 1.68 5.136q.912 2.64 1.968 5.28a94 94 0 0 0 2.208 5.088 128 128 0 0 0 3.168-9.984 263 263 0 0 0 2.544-10.176h4.608a194 194 0 0 1-3.84 13.584q-2.112 6.48-4.56 12.144-.96 2.16-2.016 3.696-1.008 1.584-2.256 2.592a8.3 8.3 0 0 1-2.832 1.488q-1.536.48-3.504.48a7 7 0 0 1-1.104-.096 7 7 0 0 1-1.152-.192 9 9 0 0 1-1.008-.24 5 5 0 0 1-.624-.24zm48.82-17.136q0 2.976-.864 5.376t-2.448 4.128a10.7 10.7 0 0 1-3.696 2.688q-2.16.912-4.704.912t-4.704-.912a11.2 11.2 0 0 1-3.744-2.688q-1.536-1.728-2.4-4.128t-.864-5.376q0-2.928.864-5.328.864-2.448 2.4-4.176a10.6 10.6 0 0 1 3.744-2.64q2.16-.96 4.704-.96t4.704.96a10.2 10.2 0 0 1 3.696 2.64q1.584 1.728 2.448 4.176.864 2.4.864 5.328m-4.656 0q0-4.224-1.92-6.672-1.872-2.496-5.136-2.496t-5.184 2.496q-1.872 2.448-1.872 6.672t1.872 6.72q1.92 2.448 5.184 2.448t5.136-2.448q1.92-2.496 1.92-6.72m30.808 11.76q-1.536.384-4.08.816-2.496.432-5.808.432-2.88 0-4.848-.816-1.968-.864-3.168-2.4t-1.728-3.6q-.528-2.112-.528-4.656V654.04h4.464v13.056q0 4.56 1.44 6.528t4.848 1.968q.72 0 1.488-.048t1.44-.096q.672-.096 1.2-.144.576-.096.816-.192V654.04h4.464zm39.2.72a234 234 0 0 1-2.88-7.872 143 143 0 0 1-2.736-9.264q-1.248 4.8-2.736 9.264a184 184 0 0 1-2.832 7.872h-3.888q-2.208-4.944-4.32-11.28t-3.984-13.68h4.8q.48 2.256 1.152 4.896t1.392 5.28q.768 2.64 1.584 5.088a85 85 0 0 0 1.536 4.272 103 103 0 0 0 1.584-4.752 154 154 0 0 0 1.536-5.088q.72-2.592 1.344-5.04.672-2.496 1.152-4.656h3.696q.432 2.16 1.056 4.656a244 244 0 0 0 1.344 5.04q.72 2.544 1.488 5.088a162 162 0 0 0 1.632 4.752q.72-1.824 1.488-4.272a138 138 0 0 0 1.584-5.088q.768-2.64 1.44-5.28t1.152-4.896h4.608q-1.872 7.344-3.984 13.68t-4.32 11.28zm21.377 0h-4.464v-24.96h4.464zm-2.256-29.472q-1.2 0-2.064-.768-.817-.816-.817-2.16t.817-2.112a2.9 2.9 0 0 1 2.064-.816q1.2 0 2.016.816.864.768.864 2.112t-.864 2.16q-.816.768-2.016.768m17.42 29.952q-4.128-.096-5.856-1.776t-1.728-5.232V642.52l4.464-.768v30q0 1.104.192 1.824t.624 1.152 1.152.672q.72.192 1.776.336zm13.125 0q-4.128-.096-5.856-1.776t-1.728-5.232V642.52l4.464-.768v30q0 1.104.192 1.824t.624 1.152 1.152.672q.72.192 1.776.336zm25.963-25.968a10 10 0 0 1 1.296.096q.768.048 1.488.192.72.096 1.296.24.624.096.912.192l-.768 3.888q-.528-.192-1.776-.432-1.2-.288-3.12-.288-1.248 0-2.496.288-1.2.24-1.584.336V679h-4.464v-23.904q1.584-.576 3.936-1.056 2.352-.528 5.28-.528m7.907 13.056q0-3.312.96-5.76.96-2.496 2.544-4.128a10.3 10.3 0 0 1 3.648-2.448 11.4 11.4 0 0 1 4.224-.816q5.04 0 7.728 3.168 2.688 3.12 2.688 9.552v.768q0 .432-.048.816h-17.088q.288 3.888 2.256 5.904t6.144 2.016q2.352 0 3.936-.384 1.632-.432 2.448-.816l.624 3.744q-.816.432-2.88.912-2.016.48-4.608.48-3.264 0-5.664-.96-2.352-1.008-3.888-2.736t-2.304-4.08q-.72-2.4-.72-5.232m17.136-2.448q.048-3.024-1.536-4.944-1.536-1.968-4.272-1.968-1.536 0-2.736.624a6.2 6.2 0 0 0-1.968 1.536 7.6 7.6 0 0 0-1.296 2.208q-.432 1.248-.576 2.544zm19.517 11.664q1.584 0 2.784-.048 1.248-.096 2.064-.288v-7.44q-.48-.24-1.584-.384-1.056-.192-2.592-.192-1.008 0-2.16.144a6.4 6.4 0 0 0-2.064.624 4.14 4.14 0 0 0-1.536 1.248q-.624.768-.624 2.064 0 2.4 1.536 3.36 1.536.912 4.176.912m-.384-22.368q2.688 0 4.512.72 1.872.672 2.976 1.968 1.152 1.248 1.632 3.024.48 1.728.48 3.84v15.6q-.576.096-1.632.288-1.008.144-2.304.288a59 59 0 0 1-2.832.24q-1.488.144-2.976.144-2.112 0-3.888-.432t-3.072-1.344q-1.296-.96-2.016-2.496t-.72-3.696q0-2.064.816-3.552a6.9 6.9 0 0 1 2.304-2.4q1.44-.912 3.36-1.344a18.3 18.3 0 0 1 4.032-.432q.672 0 1.392.096.72.048 1.344.192a22 22 0 0 1 1.824.336v-1.248q0-1.104-.24-2.16a4.8 4.8 0 0 0-.864-1.92q-.624-.864-1.728-1.344-1.056-.528-2.784-.528-2.208 0-3.888.336-1.632.288-2.448.624l-.528-3.696q.864-.384 2.88-.72 2.016-.384 4.368-.384m33.142 5.904q-.816-.672-2.352-1.296t-3.36-.624q-1.92 0-3.312.72a5.8 5.8 0 0 0-2.208 1.92q-.864 1.2-1.248 2.88a16 16 0 0 0-.384 3.6q0 4.368 2.16 6.768 2.16 2.352 5.76 2.352 1.824 0 3.024-.144 1.248-.192 1.92-.384zm0-16.8 4.464-.768v36.528q-1.536.432-3.936.864t-5.52.432q-2.88 0-5.184-.912t-3.936-2.592-2.544-4.08q-.864-2.448-.864-5.472 0-2.88.72-5.28.768-2.4 2.208-4.128a10 10 0 0 1 3.504-2.688q2.112-.96 4.8-.96 2.16 0 3.792.576 1.68.576 2.496 1.104zm27.423 11.52h9.456v3.744h-9.456v11.52q0 1.872.288 3.12.288 1.2.864 1.92.576.672 1.44.96t2.016.288q2.016 0 3.216-.432 1.248-.48 1.728-.672l.864 3.696q-.672.336-2.352.816-1.68.528-3.84.528-2.544 0-4.224-.624-1.632-.672-2.64-1.968t-1.44-3.168q-.384-1.92-.384-4.416V647.08l4.464-.768zM721.746 679v-36.48l4.464-.768v12.768q1.248-.48 2.64-.72 1.44-.288 2.832-.288 2.976 0 4.944.864 1.968.816 3.12 2.352 1.2 1.488 1.68 3.6t.48 4.656V679h-4.464v-13.056q0-2.304-.336-3.936-.288-1.632-1.008-2.64a3.94 3.94 0 0 0-1.92-1.44q-1.2-.48-2.976-.48-.72 0-1.488.096t-1.488.24q-.672.096-1.248.24a8 8 0 0 0-.768.24V679zm31.886 0h-4.464v-24.96h4.464zm-2.256-29.472q-1.2 0-2.064-.768-.816-.816-.816-2.16t.816-2.112a2.9 2.9 0 0 1 2.064-.816q1.2 0 2.016.816.864.768.864 2.112t-.864 2.16q-.816.768-2.016.768m15.741 26.256q2.736 0 4.032-.72 1.344-.72 1.344-2.304 0-1.632-1.296-2.592t-4.272-2.16q-1.44-.576-2.784-1.152a10.5 10.5 0 0 1-2.256-1.44 6.2 6.2 0 0 1-1.536-1.968q-.576-1.152-.576-2.832 0-3.312 2.448-5.232 2.448-1.968 6.672-1.968 1.056 0 2.112.144 1.056.096 1.968.288.912.144 1.584.336.72.192 1.104.336l-.816 3.84q-.72-.384-2.256-.768-1.536-.432-3.696-.432-1.872 0-3.264.768-1.392.72-1.392 2.304 0 .816.288 1.44.336.624.96 1.152.672.48 1.632.912t2.304.912q1.776.672 3.168 1.344 1.392.624 2.352 1.488a5.6 5.6 0 0 1 1.536 2.112q.528 1.2.528 2.976 0 3.456-2.592 5.232-2.544 1.776-7.296 1.776-3.312 0-5.184-.576-1.872-.528-2.544-.816l.816-3.84q.768.288 2.448.864t4.464.576"/></svg>