<svg xmlns="http://www.w3.org/2000/svg" width="1080" height="1350" fill="none"><path fill="#000" d="m302.107 447 12.44-28.2h2.88l12.64 28.2h-3.44l-3.52-8.04 1.48.84h-17.24l1.6-.84-3.44 8.04zm13.84-24.4-6.48 15.2-.96-.72h14.88l-.72.72-6.64-15.2zM333.961 447v-15.44q0-1.12-.12-2.28-.08-1.2-.2-2.36h3.12l.4 4.4h-.48q.88-2.32 2.8-3.52 1.96-1.24 4.52-1.24 3.56 0 5.36 1.92 1.84 1.88 1.84 5.96V447h-3.24v-12.36q0-2.84-1.16-4.12-1.12-1.32-3.52-1.32-2.799 0-4.44 1.72-1.64 1.72-1.64 4.6V447zM364.999 447.36q-2.64 0-4.64-1.24-2.001-1.281-3.12-3.6-1.08-2.32-1.08-5.56 0-3.28 1.08-5.6 1.119-2.32 3.12-3.56 2-1.24 4.64-1.24 2.72 0 4.68 1.36a6.55 6.55 0 0 1 2.68 3.68h-.48v-14.04h3.24V447h-3.2v-4.8h.44q-.64 2.4-2.64 3.8-2 1.36-4.72 1.36m.68-2.64q2.84 0 4.56-1.96 1.72-2 1.72-5.8 0-3.84-1.72-5.8-1.72-2-4.56-2-2.841 0-4.56 2-1.68 1.96-1.68 5.8 0 3.8 1.68 5.8 1.719 1.96 4.56 1.96M391.013 456.08l-.76-2.68q1.88-.44 3.12-1.04 1.28-.56 2.12-1.52t1.44-2.4l1.04-2.36-.08 1.36-8.76-20.52h3.52l7.24 17.64h-1.04l7.16-17.64h3.4l-9.28 21.76q-.8 1.92-1.76 3.2-.96 1.32-2.08 2.12-1.08.84-2.4 1.32t-2.88.76M421.029 447.36q-2.88 0-5.04-1.24-2.12-1.281-3.28-3.6-1.16-2.36-1.16-5.56 0-3.24 1.16-5.56t3.28-3.56q2.16-1.28 5.04-1.28 2.92 0 5.04 1.28 2.16 1.24 3.32 3.56 1.2 2.32 1.2 5.56 0 3.2-1.2 5.56-1.16 2.319-3.32 3.6-2.12 1.24-5.04 1.24m0-2.64q2.88 0 4.56-1.96 1.68-2 1.68-5.8 0-3.84-1.72-5.8-1.68-2-4.52-2t-4.52 2q-1.68 1.96-1.68 5.8 0 3.8 1.68 5.8 1.68 1.96 4.52 1.96M442.721 447.36q-3.56 0-5.4-1.96-1.8-1.96-1.8-6v-12.48h3.24v12.4q0 2.76 1.12 4.08 1.12 1.28 3.48 1.28 2.64 0 4.24-1.72t1.6-4.6v-11.44h3.24V447h-3.16v-4.52h.52q-.84 2.319-2.72 3.6-1.84 1.28-4.36 1.28M474.517 447l-7.44-20.08h3.44l6.2 17.68h-1.04l6.4-17.68h2.8l6.28 17.68h-1l6.24-17.68h3.28l-7.48 20.08h-3.12l-6.48-17.96h1.6l-6.52 17.96zM503.922 447v-20.08h3.24V447zm-.4-24.64v-3.64h4v3.64zM513.453 447v-29.44h3.24V447zM522.985 447v-29.44h3.24V447zM542.866 447v-15.24q0-1.2-.08-2.44a34 34 0 0 0-.16-2.4h3.12l.4 4.88-.56.04q.4-1.8 1.4-2.96a6.2 6.2 0 0 1 2.36-1.72q1.36-.6 2.84-.6.6 0 1.04.04.48.04.88.2l-.04 2.88a4.6 4.6 0 0 0-1.12-.24 7 7 0 0 0-1.12-.08q-1.76 0-3.08.84a5.63 5.63 0 0 0-1.96 2.16 6.3 6.3 0 0 0-.64 2.8V447zM566.162 447.36q-4.719 0-7.44-2.72-2.72-2.76-2.719-7.64 0-3.16 1.199-5.48 1.2-2.36 3.36-3.64 2.161-1.32 4.96-1.32 2.76 0 4.64 1.16 1.881 1.16 2.88 3.32 1 2.12 1 5.04v1.2h-15.56v-2.04h13.44l-.68.52q0-3.2-1.44-5t-4.28-1.8q-3 0-4.68 2.12-1.68 2.079-1.68 5.64v.36q0 3.76 1.841 5.72 1.88 1.92 5.239 1.92 1.8 0 3.36-.52 1.6-.561 3.04-1.8l1.12 2.28q-1.32 1.28-3.36 2-2 .68-4.24.68M586.64 447.36q-2.679 0-4.68-1.24-2-1.281-3.12-3.6-1.08-2.32-1.08-5.56 0-3.28 1.08-5.6 1.12-2.32 3.12-3.56t4.68-1.24q2.721 0 4.68 1.4 2.001 1.359 2.64 3.72h-.48l.44-4.76h3.12q-.12 1.16-.24 2.36-.08 1.16-.08 2.28V447h-3.24v-4.72h.44q-.639 2.36-2.64 3.72-2 1.36-4.64 1.36m.64-2.64q2.88 0 4.56-1.96 1.68-2 1.68-5.8 0-3.84-1.68-5.8-1.68-2-4.56-2-2.84 0-4.56 2-1.68 1.96-1.68 5.8 0 3.8 1.68 5.8 1.72 1.96 4.56 1.96M610.585 447.36q-2.64 0-4.64-1.24-2.001-1.281-3.12-3.6-1.08-2.32-1.08-5.56 0-3.28 1.08-5.6 1.119-2.32 3.12-3.56 2-1.24 4.64-1.24 2.72 0 4.68 1.36a6.55 6.55 0 0 1 2.68 3.68h-.48v-14.04h3.24V447h-3.2v-4.8h.44q-.64 2.4-2.64 3.8-2 1.36-4.72 1.36m.68-2.64q2.84 0 4.56-1.96 1.72-2 1.72-5.8 0-3.84-1.72-5.8-1.72-2-4.56-2-2.841 0-4.56 2-1.68 1.96-1.68 5.8 0 3.8 1.68 5.8 1.719 1.96 4.56 1.96M644.519 447.36q-2.96 0-4.52-1.68-1.56-1.72-1.56-5.16v-11.08h-3.92v-2.52h3.92v-5.48l3.24-.92v6.4h5.76v2.52h-5.76v10.72q0 2.4.8 3.44.84 1 2.48 1 .76 0 1.36-.12.6-.16 1.08-.36v2.72q-.56.24-1.36.36a7.4 7.4 0 0 1-1.52.16M651.383 447v-29.44h3.24v13.8h-.52q.84-2.36 2.8-3.56 2-1.24 4.6-1.24 3.6 0 5.36 1.96 1.76 1.92 1.76 5.84V447h-3.24v-12.44q0-2.8-1.12-4.08-1.08-1.28-3.52-1.28-2.8 0-4.48 1.72-1.64 1.72-1.64 4.52V447zM674.821 447v-20.08h3.24V447zm-.4-24.64v-3.64h4v3.64zM691.032 447.36q-2.4 0-4.48-.64-2.08-.68-3.44-1.88l1.12-2.28a10.4 10.4 0 0 0 3.2 1.72q1.76.56 3.64.56 2.4 0 3.6-.84 1.24-.88 1.24-2.4 0-1.16-.8-1.84-.76-.72-2.52-1.12l-3.72-.76q-2.56-.56-3.84-1.88-1.28-1.36-1.28-3.44 0-1.76.92-3.08.92-1.36 2.68-2.12 1.76-.8 4.12-.8 2.2 0 4.04.68 1.88.64 3.12 1.88l-1.16 2.24a7.6 7.6 0 0 0-2.76-1.72 8.5 8.5 0 0 0-3.16-.6q-2.36 0-3.56.96-1.16.92-1.16 2.44 0 1.16.72 1.92.76.72 2.32 1.08l3.72.76q2.72.6 4.04 1.88 1.36 1.239 1.36 3.36 0 1.8-1 3.16-1 1.32-2.8 2.04-1.76.72-4.16.72M714.625 447v-29.44h3.24V447zM731.797 447.36q-2.68 0-4.68-1.24-2.001-1.281-3.12-3.6-1.08-2.32-1.08-5.56 0-3.28 1.08-5.6 1.119-2.32 3.12-3.56 2-1.24 4.68-1.24 2.72 0 4.68 1.4 2 1.359 2.64 3.72h-.48l.44-4.76h3.12q-.12 1.16-.24 2.36-.08 1.16-.08 2.28V447h-3.24v-4.72h.44q-.64 2.36-2.64 3.72t-4.64 1.36m.64-2.64q2.88 0 4.56-1.96 1.68-2 1.68-5.8 0-3.84-1.68-5.8-1.68-2-4.56-2-2.841 0-4.56 2-1.68 1.96-1.68 5.8 0 3.8 1.68 5.8 1.719 1.96 4.56 1.96M754.821 447.36q-2.4 0-4.48-.64-2.08-.68-3.44-1.88l1.12-2.28a10.4 10.4 0 0 0 3.2 1.72q1.76.56 3.64.56 2.4 0 3.6-.84 1.24-.88 1.24-2.4 0-1.16-.8-1.84-.76-.72-2.52-1.12l-3.72-.76q-2.56-.56-3.84-1.88-1.28-1.36-1.28-3.44 0-1.76.92-3.08.92-1.36 2.68-2.12 1.76-.8 4.12-.8 2.2 0 4.04.68 1.88.64 3.12 1.88l-1.16 2.24a7.6 7.6 0 0 0-2.76-1.72 8.5 8.5 0 0 0-3.16-.6q-2.36 0-3.56.96-1.16.92-1.16 2.44 0 1.16.72 1.92.76.72 2.32 1.08l3.72.76q2.72.6 4.04 1.88 1.36 1.239 1.36 3.36 0 1.8-1 3.16-1 1.32-2.8 2.04-1.76.72-4.16.72M774.909 447.36q-2.96 0-4.52-1.68-1.56-1.72-1.56-5.16v-11.08h-3.92v-2.52h3.92v-5.48l3.24-.92v6.4h5.76v2.52h-5.76v10.72q0 2.4.8 3.44.84 1 2.48 1 .76 0 1.36-.12.6-.16 1.08-.36v2.72a5.6 5.6 0 0 1-1.36.36 7.4 7.4 0 0 1-1.52.16M302.347 810v-29.845h-11.703v-3.29h27.26v3.29h-11.656V810zM322.722 810v-34.592h3.807v16.215h-.611q.987-2.773 3.29-4.183 2.35-1.457 5.405-1.457 4.23 0 6.298 2.303 2.068 2.256 2.068 6.862V810h-3.807v-14.617q0-3.291-1.316-4.794-1.27-1.504-4.136-1.504-3.29 0-5.264 2.021-1.927 2.02-1.927 5.311V810zM361.212 810.423q-5.546 0-8.742-3.196-3.196-3.244-3.196-8.977 0-3.714 1.41-6.439 1.41-2.774 3.948-4.277 2.538-1.551 5.828-1.551 3.243 0 5.452 1.363t3.384 3.901q1.175 2.49 1.175 5.922v1.41h-18.283v-2.397h15.792l-.799.611q0-3.76-1.692-5.875t-5.029-2.115q-3.525 0-5.499 2.491-1.974 2.444-1.974 6.627v.423q0 4.417 2.162 6.721 2.21 2.256 6.157 2.256 2.115 0 3.948-.611 1.88-.659 3.572-2.115l1.316 2.679q-1.551 1.503-3.948 2.35-2.35.799-4.982.799M376.766 810v-18.142q0-1.317-.141-2.679a75 75 0 0 0-.235-2.773h3.666l.47 5.17h-.564q1.034-2.726 3.29-4.136 2.304-1.457 5.311-1.457 4.183 0 6.298 2.256 2.163 2.208 2.162 7.003V810h-3.807v-14.523q0-3.338-1.363-4.841-1.316-1.551-4.136-1.551-3.29 0-5.217 2.021t-1.927 5.405V810zM416.56 820.669l-.893-3.149q2.21-.517 3.666-1.222 1.504-.658 2.491-1.786t1.692-2.82l1.222-2.773-.094 1.598-10.293-24.111h4.136l8.507 20.727h-1.222l8.413-20.727h3.995l-10.904 25.568q-.94 2.256-2.068 3.76-1.127 1.55-2.444 2.491a10.3 10.3 0 0 1-2.82 1.551 20.6 20.6 0 0 1-3.384.893M452.3 810.423q-3.384 0-5.922-1.457-2.491-1.504-3.854-4.23-1.363-2.774-1.363-6.533 0-3.807 1.363-6.533t3.854-4.183q2.538-1.504 5.922-1.504 3.43 0 5.922 1.504 2.538 1.456 3.901 4.183 1.41 2.726 1.41 6.533 0 3.76-1.41 6.533-1.363 2.726-3.901 4.23-2.491 1.457-5.922 1.457m0-3.102q3.384 0 5.358-2.303 1.974-2.35 1.974-6.815 0-4.512-2.021-6.815-1.974-2.35-5.311-2.35t-5.311 2.35q-1.974 2.303-1.974 6.815 0 4.464 1.974 6.815 1.974 2.303 5.311 2.303M478.257 810.423q-4.182 0-6.345-2.303-2.115-2.304-2.115-7.05v-14.664h3.807v14.57q0 3.243 1.316 4.794 1.317 1.504 4.089 1.504 3.102 0 4.982-2.021t1.88-5.405v-13.442h3.807V810h-3.713v-5.311h.611q-.987 2.726-3.196 4.23-2.162 1.504-5.123 1.504M516.557 810l-8.742-23.594h4.042l7.285 20.774h-1.222l7.52-20.774h3.29l7.379 20.774h-1.175l7.332-20.774h3.854L537.331 810h-3.666l-7.614-21.103h1.88L520.27 810zM551.579 810v-23.594h3.807V810zm-.47-28.952v-4.277h4.7v4.277zM563.248 810v-34.592h3.807V810zM574.917 810v-34.592h3.807V810zM599.217 810v-17.907q0-1.41-.094-2.867a40 40 0 0 0-.188-2.82h3.666l.47 5.734-.658.047q.47-2.115 1.645-3.478a7.3 7.3 0 0 1 2.773-2.021 8.2 8.2 0 0 1 3.337-.705q.706 0 1.222.047.564.046 1.034.235l-.047 3.384a5.5 5.5 0 0 0-1.316-.282 8 8 0 0 0-1.316-.094q-2.067 0-3.619.987a6.64 6.64 0 0 0-2.303 2.538 7.45 7.45 0 0 0-.752 3.29V810zM627.061 810.423q-5.546 0-8.742-3.196-3.196-3.244-3.196-8.977 0-3.714 1.41-6.439 1.41-2.774 3.948-4.277 2.538-1.551 5.828-1.551 3.244 0 5.452 1.363 2.21 1.363 3.384 3.901 1.175 2.49 1.175 5.922v1.41h-18.283v-2.397h15.792l-.799.611q0-3.76-1.692-5.875t-5.029-2.115q-3.525 0-5.499 2.491-1.974 2.444-1.974 6.627v.423q0 4.417 2.162 6.721 2.21 2.256 6.157 2.256 2.115 0 3.948-.611 1.88-.659 3.572-2.115l1.316 2.679q-1.551 1.503-3.948 2.35-2.35.799-4.982.799M651.593 810.423q-3.15 0-5.499-1.457-2.35-1.504-3.666-4.23-1.269-2.726-1.269-6.533 0-3.855 1.269-6.58 1.316-2.727 3.666-4.183 2.349-1.457 5.499-1.457 3.195 0 5.499 1.645 2.349 1.597 3.102 4.371h-.564l.517-5.593h3.666q-.141 1.362-.282 2.773a39 39 0 0 0-.094 2.679V810h-3.807v-5.546h.517q-.753 2.772-3.102 4.371-2.35 1.598-5.452 1.598m.752-3.102q3.384 0 5.358-2.303 1.974-2.35 1.974-6.815 0-4.512-1.974-6.815-1.974-2.35-5.358-2.35-3.337 0-5.358 2.35-1.974 2.303-1.974 6.815 0 4.464 1.974 6.815 2.02 2.303 5.358 2.303M680.197 810.423q-3.102 0-5.452-1.457-2.349-1.504-3.666-4.23-1.269-2.726-1.269-6.533 0-3.855 1.269-6.58 1.317-2.727 3.666-4.183 2.35-1.457 5.452-1.457 3.197 0 5.499 1.598 2.35 1.597 3.149 4.324h-.564v-16.497h3.807V810h-3.76v-5.64h.517q-.751 2.82-3.102 4.465-2.35 1.598-5.546 1.598m.799-3.102q3.337 0 5.358-2.303 2.021-2.35 2.021-6.815 0-4.512-2.021-6.815-2.02-2.35-5.358-2.35-3.336 0-5.358 2.35-1.974 2.303-1.974 6.815 0 4.464 1.974 6.815 2.022 2.303 5.358 2.303M721.01 810.423q-3.478 0-5.311-1.974-1.833-2.022-1.833-6.063v-13.019h-4.606v-2.961h4.606v-6.439l3.807-1.081v7.52h6.768v2.961h-6.768v12.596q0 2.82.94 4.042.987 1.175 2.914 1.175.893 0 1.598-.141.705-.189 1.269-.423v3.196q-.658.282-1.598.423a8.7 8.7 0 0 1-1.786.188M729.545 810v-34.592h3.807v16.215h-.61q.987-2.773 3.289-4.183 2.35-1.457 5.405-1.457 4.23 0 6.298 2.303 2.068 2.256 2.068 6.862V810h-3.807v-14.617q0-3.291-1.315-4.794-1.27-1.504-4.136-1.504-3.291 0-5.265 2.021-1.926 2.02-1.927 5.311V810zM757.555 810v-23.594h3.807V810zm-.47-28.952v-4.277h4.7v4.277zM777.073 810.423q-2.82 0-5.264-.752-2.444-.8-4.042-2.209l1.316-2.679a12.2 12.2 0 0 0 3.76 2.021q2.068.657 4.277.658 2.82 0 4.23-.987 1.457-1.035 1.457-2.82 0-1.364-.94-2.162-.894-.846-2.961-1.316l-4.371-.893q-3.008-.658-4.512-2.209-1.504-1.599-1.504-4.042 0-2.068 1.081-3.619 1.081-1.599 3.149-2.491 2.068-.94 4.841-.94 2.585 0 4.747.799 2.209.751 3.666 2.209l-1.363 2.632a9 9 0 0 0-3.243-2.021 10 10 0 0 0-3.713-.705q-2.773 0-4.183 1.128-1.363 1.08-1.363 2.867 0 1.362.846 2.256.893.846 2.726 1.269l4.371.893q3.195.705 4.747 2.209 1.598 1.457 1.598 3.948 0 2.115-1.175 3.713-1.175 1.551-3.29 2.397-2.068.846-4.888.846M136.025 585q-7.2 0-9.84-2.76-2.64-2.88-2.64-8.76 0-2.04.24-6.6t1.08-14.16q-.96-1.8-1.68-3.12t-1.44-2.76-1.56-3.36-2.16-4.8q-2.04-4.44-4.68-10.32-2.52-5.88-4.92-11.28-2.4-5.52-4.08-9.72-1.56-4.2-1.56-5.28 0-2.52 8.04-2.52 5.04 0 8.04 1.08 3.12.96 5.04 2.76 1.92 1.68 2.88 4.08.96 2.28 1.8 4.92 1.08 3.48 1.56 5.16t.72 2.76l.72 2.16q.36.96.96 3.12.72 2.16 1.92 6t3.36 10.56q3.48-7.32 5.52-11.88 2.16-4.56 3.72-8.4 1.56-3.96 2.88-8.04 1.44-4.2 3.6-10.56.72-2.28 1.44-2.88.84-.72 2.52-.72.6 0 3.24.24 2.76.12 5.64.84 3 .72 5.4 2.28t2.4 4.2q0 2.04-1.44 5.76-1.32 3.72-3.6 8.4-2.16 4.56-5.16 9.72-2.88 5.16-6 10.08t-6.24 9.12q-3 4.08-5.52 6.72-.12 2.88-.36 6.84-.12 3.96-.48 7.92-.24 3.84-.48 7.08-.24 3.12-.36 4.32-.12.96-.48 1.44-.36.36-1.44.36zM194.654 586.2q-8.28 0-13.8-2.28-5.4-2.4-8.64-6.48t-4.56-9.48q-1.32-5.52-1.32-11.76 0-7.2 1.68-14.04 1.8-6.96 6-12.36t11.04-8.64q6.96-3.36 17.28-3.36 15.12 0 21.6 7.44 6.6 7.32 6.6 20.64 0 3.72-.6 8.28-.48 4.44-2.04 8.88-1.44 4.44-4.08 8.64-2.52 4.2-6.48 7.44t-9.6 5.16q-5.52 1.92-13.08 1.92m5.64-52.44q-4.56 0-7.32 2.4-2.64 2.28-4.08 5.64-1.32 3.24-1.8 6.96-.36 3.6-.36 6.12 0 7.92 2.52 11.64t7.2 3.72q4.2 0 6.84-2.64 2.76-2.64 4.2-6.36 1.56-3.72 2.04-7.8.6-4.08.6-6.84 0-6-2.28-9.36-2.16-3.48-7.56-3.48M257.612 529.2q0 2.52-.48 7.08-.36 4.56-.84 9.48-.36 4.92-.84 9.24-.36 4.32-.36 6.24 0 4.2 2.04 6.6 2.16 2.28 5.88 2.28 3.24 0 5.4-2.52 2.28-2.64 3.6-6.72 1.44-4.2 2.28-9.48t1.2-10.68q.48-5.4.72-10.44.36-5.16.72-8.88.12-.96.72-1.68t1.92-.72h4.32q3.72 0 6 .84 2.4.72 3.72 2.16 1.44 1.44 1.92 3.6.6 2.04.6 4.8 0 1.8-.24 5.16-.12 3.24-.6 9.12-.48 5.76-1.2 14.76-.6 8.88-1.56 22.08-.24 2.52-.6 3-.24.48-1.92.48h-4.68q-3.6 0-6-.84-2.28-.84-3.72-2.16a7.3 7.3 0 0 1-2.04-3.12q-.6-1.8-.72-3.72-1.8 3.12-4.08 5.28-2.16 2.16-4.56 3.48-2.4 1.2-4.92 1.68-2.52.6-4.92.6-4.56 0-8.16-1.44-3.6-1.56-6.12-4.08-2.4-2.52-3.72-6t-1.32-7.44q0-1.56.12-5.04.24-3.6.48-8.04.36-4.44.72-9.36.36-5.04.6-9.48.36-4.44.6-7.8.36-3.36.48-4.8.24-2.16.96-2.88.72-.84 2.4-.84h3.84q3.72 0 6.12.72t3.72 2.04q1.44 1.32 1.92 3.24.6 1.8.6 4.2M384.569 572.16q1.56-8.76 2.64-15.24 1.2-6.6 1.92-11.4.84-4.8 1.32-8.28.6-3.48.96-6.12.48-2.76.72-4.8.36-2.16.72-4.44.24-1.32 1.2-2.04 1.08-.72 3.96-.72 1.56 0 4.32.24 2.88.12 5.64.84t4.68 2.28q2.04 1.44 2.04 4.08 0 1.92-1.08 5.76-1.08 3.72-2.76 8.64t-3.84 10.56q-2.16 5.52-4.44 11.04-2.16 5.4-4.2 10.32t-3.48 8.52q-.96 2.16-1.92 2.88-.84.72-3.12.72h-7.08q-3.36 0-5.52-.84t-3.48-2.28-2.04-3.24q-.72-1.92-1.08-4.08-1.2-6.12-2.52-16.44t-2.4-24.36q-.6 2.64-1.44 7.08-.72 4.44-1.68 9.6-.84 5.16-1.8 10.56t-1.8 10.08a284 284 0 0 1-1.56 7.92q-.72 3.24-1.2 4.2-.6 1.2-1.56 1.56-.84.24-2.52.24h-8.4q-3.12 0-5.4-.84a15.6 15.6 0 0 1-3.84-2.4q-1.56-1.44-2.64-3.24a18 18 0 0 1-1.44-3.96l-9.96-38.76q-3.24-13.08-3.24-14.04 0-1.08 1.08-1.92t2.76-.84q5.16 0 8.88.48 3.72.36 6.12 1.44 2.52 1.08 3.84 3t1.68 5.04q.12 1.68.48 6.84t.72 11.76q.48 6.48.84 13.2.48 6.72.84 11.4 1.44-7.44 2.28-11.88.96-4.44 1.56-7.44t.96-5.28q.48-2.28 1.08-5.4t1.32-7.8q.84-4.68 2.28-12.48.48-2.88 6.36-2.88 3.72 0 6.96.24t5.76 1.2q2.52.84 4.32 2.64 1.8 1.68 2.52 4.68.24.84.36 1.68.24.84.48 2.4t.48 4.32q.36 2.76.72 7.44.48 4.68 1.08 11.64t1.56 16.92M428.473 585q-3.72 0-6.12-.72-2.28-.84-3.72-2.28-1.32-1.44-1.92-3.48-.48-2.16-.48-4.92 0-1.8.12-5.04.24-3.36.72-9.12.48-5.88 1.08-14.76.72-9 1.68-22.2.12-2.64.6-3.12.36-.36 1.92-.36h4.68q3.72 0 6 .72 2.4.72 3.72 2.16 1.44 1.44 1.92 3.48.6 2.04.6 4.56 0 1.8-.24 5.4t-.72 9.84q-.36 6.12-1.08 15.36-.72 9.12-1.8 22.08-.12 1.44-.6 1.92t-2.04.48zm-8.52-80.16q0-4.8 3.48-7.56t9.36-2.76q5.16 0 7.44 2.16 2.4 2.04 2.4 5.52 0 4.44-3.36 7.44-3.24 2.88-9.6 2.88-9.72 0-9.72-7.68M458.983 586.08q-7.44 0-10.68-3.96t-3.24-13.08q0-1.44.12-3.6.24-2.16.48-5.52.36-3.48.84-8.52t.96-12.24q.6-7.2 1.2-16.92.72-9.72 1.44-22.56.12-2.64.6-3.12.36-.36 1.92-.36h4.68q3.6 0 6 .84t3.84 2.28 2.04 3.36q.6 1.8.6 3.84 0 2.4-.36 6.96-.24 4.44-.72 10.08t-.96 11.76-.96 11.76q-.48 5.52-.84 9.96-.24 4.44-.24 6.72 0 3.12 1.08 4.44 1.2 1.32 2.52 1.92 1.32.48 2.4.72 1.2.12 1.2.72 0 2.64-.6 5.28-.6 2.52-2.16 4.68-1.56 2.04-4.32 3.36-2.64 1.2-6.84 1.2M490.394 586.08q-7.44 0-10.68-3.96t-3.24-13.08q0-1.44.12-3.6.24-2.16.48-5.52.36-3.48.84-8.52t.96-12.24q.6-7.2 1.2-16.92.72-9.72 1.44-22.56.12-2.64.6-3.12.36-.36 1.92-.36h4.68q3.6 0 6 .84t3.84 2.28 2.04 3.36q.6 1.8.6 3.84 0 2.4-.36 6.96-.24 4.44-.72 10.08t-.96 11.76-.96 11.76q-.48 5.52-.84 9.96-.24 4.44-.24 6.72 0 3.12 1.08 4.44 1.2 1.32 2.52 1.92 1.32.48 2.4.72 1.2.12 1.2.72 0 2.64-.6 5.28-.6 2.52-2.16 4.68-1.56 2.04-4.32 3.36-2.64 1.2-6.84 1.2M567.626 547.68h-1.68l-1.68-.24q-.84-.24-1.44-.48-.6-.36-.6-.84 0-1.56.12-2.88t.12-2.76q0-2.64-.72-4.32t-2.88-1.68q-3.36 0-5.64 4.44-2.16 4.32-2.76 13.08-.24 3.84-.72 8.76-.36 4.8-.72 9.36-.36 4.44-.6 7.92t-.24 4.56q0 1.2-.84 1.8t-1.8.6h-4.32q-3.72 0-6.12-.72-2.28-.84-3.72-2.28-1.32-1.44-1.92-3.48-.48-2.16-.48-4.92 0-1.8.12-5.04.24-3.36.72-9.12.48-5.88 1.08-14.76.72-9 1.68-22.2.24-3.48 2.52-3.48h4.68q3.36 0 5.64.72t3.72 2.04q1.44 1.2 2.04 2.88.72 1.68.96 3.48 1.44-2.76 3.36-4.68 2.04-2.04 4.2-3.24 2.16-1.32 4.44-1.8 2.28-.6 4.2-.6 2.28 0 4.56.84 2.4.84 4.32 2.52t3 4.32q1.2 2.64 1.2 6.24 0 3.24-.96 6.12t-2.76 5.16q-1.8 2.16-4.44 3.48-2.52 1.2-5.64 1.2M609.208 586.2q-5.28 0-10.56-1.32a25.5 25.5 0 0 1-9.36-4.56q-4.08-3.24-6.72-8.64t-2.64-13.56q0-3 .48-7.2t1.8-8.64q1.44-4.44 3.84-8.76 2.52-4.44 6.48-7.92t9.6-5.64 13.44-2.16q6.24 0 10.56 1.44t6.96 3.96q2.64 2.4 3.84 5.64t1.2 6.96q0 5.52-2.28 9.36a20.3 20.3 0 0 1-5.76 6.48q-3.48 2.52-7.8 3.96t-8.52 2.28q-4.2.72-7.8.96-3.48.12-5.4.12 0 2.28.6 4.56.72 2.16 2.04 3.84t3.48 2.76 5.28 1.08 4.8-.96q1.8-1.08 2.88-2.28 1.08-1.32 1.8-2.28.84-1.08 2.16-1.08.6 0 2.04.36 1.56.24 3.12 1.2t2.76 2.64 1.2 4.32q0 3.48-2.16 6t-5.64 4.08q-3.36 1.56-7.56 2.28t-8.16.72m2.28-52.44q-2.64 0-4.56 1.56-1.8 1.44-3.12 3.72-1.2 2.28-1.92 5.04-.6 2.76-.96 5.28 7.44-.12 12-2.52 4.68-2.4 4.68-6.84 0-2.4-1.56-4.32-1.44-1.92-4.56-1.92M636.955 570.24q0-10.8 9.72-16.92t28.68-6.6q.12-1.32.12-2.16.12-.96.12-2.28 0-3.84-1.44-6.12t-6-2.28q-2.52 0-4.08.72t-2.52 2.04q-.96 1.2-1.56 3t-1.08 3.96q-.24 1.08-1.08 1.44-.84.24-2.64.24-12.24 0-12.24-9.24 0-3.72 1.68-7.08 1.8-3.36 5.16-5.76 3.48-2.52 8.64-3.96t12-1.44q13.32 0 19.32 5.52t6 15.6q0 1.32-.36 4.8-.24 3.36-.72 7.2-.36 3.72-.72 7.08-.24 3.36-.24 4.68 0 3 1.08 4.32 1.08 1.2 2.4 1.68 1.44.48 2.52.72t1.08 1.2q0 2.64-.72 5.4t-2.4 5.04q-1.56 2.28-4.44 3.72-2.76 1.44-6.84 1.44-5.76 0-8.64-2.76t-3.84-7.68q-2.88 4.2-7.56 7.32-4.56 3.12-12 3.12-3.6 0-6.84-.84-3.12-.84-5.52-2.76-2.28-1.92-3.72-4.92-1.32-3.12-1.32-7.44m37.32-13.68q-3.12 0-6.12.48t-5.4 1.56q-2.28.96-3.72 2.64t-1.44 4.08q0 2.76 1.68 3.84 1.8 1.08 3.84 1.08 1.92 0 3.84-.84t3.36-2.52q1.56-1.8 2.64-4.32t1.32-6M725.332 586.2q-4.68 0-9-1.68-4.2-1.68-7.44-5.28-3.12-3.6-5.04-9.12-1.8-5.52-1.8-13.32 0-3.48.48-7.68.48-4.32 1.68-8.64t3.36-8.4 5.4-7.2q3.36-3.24 7.92-5.16 4.68-1.92 10.92-1.92 6 0 9.6 2.16 3.72 2.04 4.68 7.2.24-4.68.48-8.16t.36-6.48l.48-6q.24-3 .48-6.84.12-2.64.6-3.12.24-.24.6-.24.36-.12 1.32-.12h4.68q3.6 0 6 .84t3.84 2.28 2.04 3.36q.6 1.8.6 3.84l-.24 3q-.24 3-.6 8.04-.36 4.92-.84 11.28t-.96 13.2l-.96 13.44q-.48 6.6-.96 12.24-.48 5.52-.84 9.6-.24 3.96-.36 5.28-.24 1.44-.6 1.92t-2.04.48h-4.32q-2.52 0-4.8-.36-2.16-.48-3.84-1.44a8.35 8.35 0 0 1-2.52-2.76q-.84-1.8-.84-4.56-2.16 4.56-6.6 7.44-4.32 2.88-10.92 2.88m10.44-52.44q-6.12 0-9.12 5.4-2.88 5.28-2.88 14.28 0 3.12.36 6.12.48 3 1.56 5.4t2.88 3.84q1.92 1.44 4.8 1.44 5.16 0 8.64-5.04t3.48-15.84q0-3-.36-5.76-.36-2.88-1.44-5.04t-3-3.48-4.92-1.32M818.361 535.2q-.36 4.56-.84 9-.36 4.44-.72 8.4t-.6 7.08q-.12 3.12-.12 4.8 0 3.12.72 4.2.72.96 2.4.96 1.32 0 2.28-.48t1.8-1.08 1.44-1.08q.72-.48 1.56-.48t1.56.96.72 4.44q0 6.6-3.6 10.44t-12.36 3.84q-8.64 0-12.84-3.96-4.08-4.08-4.08-12.36 0-1.8.12-4.2.24-2.52.6-6.48t.84-9.72q.6-5.76 1.2-14.28h-6.36q-.96 0-1.2-.36-.12-.48-.12-1.32l.36-6.12q.12-1.56.36-3 .36-1.56 1.2-2.76.96-1.2 2.64-1.92t4.44-.72q.84-2.16 1.92-5.16t2.16-5.76q1.08-2.88 2.04-4.8 1.08-1.92 1.92-1.92h3.48q5.04 0 6.96 3.12t1.92 7.44q0 2.4-.36 7.08h12.6q1.92 0 1.92 1.68l-.48 6.48q-.24 3.6-2.04 5.88-1.68 2.16-7.08 2.16zM875.531 570.12q.36-3.96.72-8.28.48-4.32.72-8.28.36-3.96.6-7.08t.24-4.56q0-3.12-1.56-5.52-1.44-2.52-5.76-2.52-5.76 0-9.36 5.4-3.48 5.4-4.08 14.4-.24 2.52-.6 7.08-.36 4.44-.72 9.12-.36 4.56-.72 8.28-.24 3.6-.24 4.44 0 1.44-.6 1.92-.48.48-2.04.48h-4.32q-3.72 0-6.12-.72-2.28-.84-3.72-2.28-1.32-1.44-1.92-3.48-.48-2.16-.48-4.92 0-2.64.36-7.32.48-4.8 1.2-13.08.72-8.4 1.68-21.36t2.04-32.16q.12-2.64.6-3.12.36-.36 1.92-.36h4.68q3.6 0 6 .84t3.84 2.28 2.04 3.36q.6 1.8.6 3.84 0 2.16-.48 8.04-.36 5.88-.96 13.8 3.6-6 7.92-8.28 4.44-2.28 11.16-2.28 5.04 0 8.76 1.08t6.12 3.72q2.52 2.52 3.72 6.72 1.2 4.08 1.2 10.2 0 1.92-.36 6.6t-.96 10.68q-.48 6-1.08 12.6-.48 6.48-.84 11.88-.12 1.32-.24 2.04t-.48 1.08q-.24.36-.84.48t-1.68.12h-3.84q-3.84 0-6.24-.72t-3.72-2.04-1.92-3.24q-.48-2.04-.48-4.56v-2.28q.12-1.08.24-2.04M916.259 585q-3.72 0-6.12-.72-2.28-.84-3.72-2.28-1.32-1.44-1.92-3.48-.48-2.16-.48-4.92 0-1.8.12-5.04.24-3.36.72-9.12.48-5.88 1.08-14.76.72-9 1.68-22.2.12-2.64.6-3.12.36-.36 1.92-.36h4.68q3.72 0 6 .72 2.4.72 3.72 2.16 1.44 1.44 1.92 3.48.6 2.04.6 4.56 0 1.8-.24 5.4t-.72 9.84q-.36 6.12-1.08 15.36-.72 9.12-1.8 22.08-.12 1.44-.6 1.92t-2.04.48zm-8.52-80.16q0-4.8 3.48-7.56t9.36-2.76q5.16 0 7.44 2.16 2.4 2.04 2.4 5.52 0 4.44-3.36 7.44-3.24 2.88-9.6 2.88-9.72 0-9.72-7.68M960.809 517.8q10.2 0 15 4.08 4.8 3.96 4.8 10.2 0 5.28-3.36 8.04-3.24 2.76-9.48 2.76-1.68 0-2.28-.36t-.6-1.32q0-1.08-.24-2.4-.12-1.44-.84-2.64-.6-1.32-2.04-2.16-1.32-.84-3.84-.84-3.36 0-5.4 1.68-2.04 1.56-2.04 3.96 0 2.52 2.04 4.08 2.16 1.44 5.28 2.76 3.24 1.32 6.96 2.76a26.6 26.6 0 0 1 6.84 3.6q3.24 2.28 5.28 5.76 2.16 3.36 2.16 8.76 0 8.64-6.12 14.16t-18.36 5.52q-3.36 0-7.8-.6-4.32-.48-8.28-1.56-3.96-1.2-6.72-3.12-2.64-1.92-2.64-4.8 0-1.08.36-2.64.48-1.56 1.32-3 .96-1.44 2.16-2.4 1.32-1.08 3.12-1.08 1.44 0 2.64.72t2.76 1.56q1.68.72 4.08 1.44t6.36.72q3 0 5.28-.72 2.4-.72 2.4-3.24 0-2.28-1.92-3.6-1.92-1.44-4.92-2.64-2.88-1.2-6.36-2.52-3.36-1.44-6.36-3.72-2.88-2.28-4.8-5.76-1.92-3.6-1.92-9.24 0-6.12 2.4-10.32 2.52-4.32 6.36-6.96 3.96-2.64 8.88-3.72 4.92-1.2 9.84-1.2M486.192 717q-3.72 0-6.12-.72-2.28-.84-3.72-2.28-1.32-1.44-1.92-3.48-.48-2.16-.48-4.92v-3.12q.12-1.68.36-4.68.24-3.12.6-8.28.48-5.28 1.08-14.04h-14.52q-.24 3.6-.6 7.8t-.72 8.52q-.36 4.2-.72 8.28-.24 4.08-.48 7.2t-.48 5.16q-.12 2.04-.12 2.16-.12 1.44-.6 1.92t-2.04.48h-4.32q-3.24 0-5.52-.48-2.16-.48-3.6-1.8-1.32-1.32-1.92-3.72t-.6-6.24q.36-4.44.72-9.36.24-4.2.6-9.36.36-5.28.84-10.56h-5.76q-1.32 0-1.32-1.32l.36-6.48q.12-1.44.36-2.88.36-1.56 1.08-2.64.84-1.2 2.4-1.92 1.56-.84 4.08-.96l.48-4.8q.72-7.8 3.12-13.08 2.52-5.4 6.36-8.64 3.96-3.36 9.24-4.8 5.4-1.44 12.12-1.44 6.6 0 11.28 1.2 4.68 1.08 7.68 3.12t4.32 4.8a12.44 12.44 0 0 1 1.32 5.64q0 6.24-3.96 8.88-3.84 2.64-10.44 2.64-1.8 0-2.52-.24-.6-.36-.6-1.44 0-1.92-.24-3.48-.12-1.68-.84-2.76t-2.16-1.68-3.84-.6q-3 0-5.04 1.44t-3.36 3.84q-1.32 2.28-2.04 5.28t-1.2 6.12h21.72q3.6 0 5.88.84 2.28.72 3.6 2.16t1.8 3.48q.6 1.92.6 4.44 0 1.8-.12 4.08t-.48 6.96-.96 12.6q-.6 7.8-1.68 20.76-.12 1.44-.6 1.92t-2.04.48zM539.85 679.68h-1.68l-1.68-.24q-.84-.24-1.44-.48-.6-.36-.6-.84 0-1.56.12-2.88t.12-2.76q0-2.64-.72-4.32t-2.88-1.68q-3.36 0-5.64 4.44-2.16 4.32-2.76 13.08-.24 3.84-.72 8.76-.36 4.8-.72 9.36-.36 4.44-.6 7.92t-.24 4.56q0 1.2-.84 1.8t-1.8.6h-4.32q-3.72 0-6.12-.72-2.28-.84-3.72-2.28-1.32-1.44-1.92-3.48-.48-2.16-.48-4.92 0-1.8.12-5.04.24-3.36.72-9.12.48-5.88 1.08-14.76.72-9 1.68-22.2.24-3.48 2.52-3.48h4.68q3.36 0 5.64.72t3.72 2.04q1.44 1.2 2.04 2.88.72 1.68.96 3.48 1.44-2.76 3.36-4.68 2.04-2.04 4.2-3.24 2.16-1.32 4.44-1.8 2.28-.6 4.2-.6 2.28 0 4.56.84 2.4.84 4.32 2.52t3 4.32q1.2 2.64 1.2 6.24 0 3.24-.96 6.12t-2.76 5.16q-1.8 2.16-4.44 3.48-2.52 1.2-5.64 1.2M581.672 649.8q10.2 0 15 4.08 4.8 3.96 4.8 10.2 0 5.28-3.36 8.04-3.24 2.76-9.48 2.76-1.68 0-2.28-.36t-.6-1.32q0-1.08-.24-2.4-.12-1.44-.84-2.64-.6-1.32-2.04-2.16-1.32-.84-3.84-.84-3.36 0-5.4 1.68-2.04 1.56-2.04 3.96 0 2.52 2.04 4.08 2.16 1.44 5.28 2.76 3.24 1.32 6.96 2.76a26.6 26.6 0 0 1 6.84 3.6q3.24 2.28 5.28 5.76 2.16 3.36 2.16 8.76 0 8.64-6.12 14.16t-18.36 5.52q-3.36 0-7.8-.6-4.32-.48-8.28-1.56-3.96-1.2-6.72-3.12-2.64-1.92-2.64-4.8 0-1.08.36-2.64.48-1.56 1.32-3 .96-1.44 2.16-2.4 1.32-1.08 3.12-1.08 1.44 0 2.64.72t2.76 1.56q1.68.72 4.08 1.44t6.36.72q3 0 5.28-.72 2.4-.72 2.4-3.24 0-2.28-1.92-3.6-1.92-1.44-4.92-2.64-2.88-1.2-6.36-2.52-3.36-1.44-6.36-3.72-2.88-2.28-4.8-5.76-1.92-3.6-1.92-9.24 0-6.12 2.4-10.32 2.52-4.32 6.36-6.96 3.96-2.64 8.88-3.72 4.92-1.2 9.84-1.2M631.079 667.2q-.36 4.56-.84 9-.36 4.44-.72 8.4t-.6 7.08q-.12 3.12-.12 4.8 0 3.12.72 4.2.72.96 2.4.96 1.32 0 2.28-.48t1.8-1.08 1.44-1.08q.72-.48 1.56-.48t1.56.96.72 4.44q0 6.6-3.6 10.44t-12.36 3.84q-8.64 0-12.84-3.96-4.08-4.08-4.08-12.36 0-1.8.12-4.2.24-2.52.6-6.48t.84-9.72q.6-5.76 1.2-14.28h-6.36q-.96 0-1.2-.36-.12-.48-.12-1.32l.36-6.12q.12-1.56.36-3 .36-1.56 1.2-2.76.96-1.2 2.64-1.92t4.44-.72q.84-2.16 1.92-5.16t2.16-5.76q1.08-2.88 2.04-4.8 1.08-1.92 1.92-1.92h3.48q5.04 0 6.96 3.12t1.92 7.44q0 2.4-.36 7.08h12.6q1.92 0 1.92 1.68l-.48 6.48q-.24 3.6-2.04 5.88-1.68 2.16-7.08 2.16z"/></svg>