<svg xmlns="http://www.w3.org/2000/svg" width="1080" height="1350" fill="none"><path fill="#000" d="m329.707 439.309-2.168 6.523q-.195.606.527.879.723.273 2.325.449v.84h-8.125v-.84q1.327-.234 2.109-.488.781-.254.977-.84l7.265-21.992q.45-.489 1.113-.879a25 25 0 0 1 1.172-.684l8.203 23.555q.196.547.743.859.566.313 1.816.469v.84h-8.242v-.84q1.503-.098 2.09-.39.605-.293.39-.938l-2.226-6.523zm7.363-1.758-3.437-10.039-3.34 10.039zM359.18 448v-.84q2.734-.704 2.734-1.191v-10.332q0-2.383-.566-3.106-.547-.742-1.934-.742-1.191 0-2.949 1.231-1.738 1.23-3.633 4.257v8.692q0 .293.742.605.743.313 1.992.586v.84h-8.398v-.84q1.289-.332 2.012-.605.722-.274.722-.586v-11.856q0-1.015-.136-1.504-.137-.488-.704-.683-.566-.195-1.894-.332v-.782a15 15 0 0 0 2.461-.605q1.152-.41 2.226-.957l.684.684.215 4.863q1.152-1.739 2.558-2.969 1.427-1.25 2.813-1.914t2.402-.664q1.68 0 2.989 1.035 1.328 1.035 1.328 3.242v12.442q0 .254.586.527.605.274 2.148.664v.84zm29.511-1.641q-1.797 1.192-2.793 1.7-.996.527-1.543.527-.78 0-1.21-1.309-.43-1.328-.43-4.589v-19.571q0-1.445-.137-2.109-.137-.684-.723-.918t-1.972-.332v-.762a21.6 21.6 0 0 0 2.871-.566 80 80 0 0 0 2.285-.703l.606.585v24.727q0 1.368.117 1.992.137.625.332.899.156.214.664.136.507-.098 1.68-.546zm-4.531-3.437a38 38 0 0 1-2.5 2.988q-1.171 1.27-2.461 1.973-1.269.703-2.91.703-1.445 0-2.969-1.094-1.523-1.113-2.558-3.183-1.035-2.09-1.035-4.981 0-1.68.664-3.437a11.5 11.5 0 0 1 1.894-3.282 9.8 9.8 0 0 1 2.91-2.421q1.68-.938 3.731-.938 1.172 0 2.363.41t2.715 1.934q0 1.172-.274 1.601-.254.411-.878.801a4.35 4.35 0 0 0-1.836-1.914q-1.212-.684-2.696-.684-2.48 0-4.082 1.836-1.581 1.817-1.582 5.489 0 2.207.801 3.867.82 1.64 1.973 2.558 1.172.899 2.246.899 1.035 0 1.992-.586a12.3 12.3 0 0 0 1.914-1.484l1.856-1.778q.254.118.449.352.195.215.273.371m32.969-12.246q-1.172.273-1.563.508-.37.234-.586.8l-6.523 17.618q-1.074 2.89-2.48 4.687-1.407 1.797-2.891 2.637-1.485.84-2.793.84-1.485 0-2.441-.332-.957-.332-.957-.704 0-.156.41-.703.39-.526.918-1.113.546-.567.957-.82.918.546 1.855.566.938.04 1.66-.215.723-.253 1.758-1.621a13 13 0 0 0 1.758-3.027l.566-1.348-6.406-16.445a1.45 1.45 0 0 0-.703-.82q-.489-.294-1.465-.508v-.84h7.539v.84q-1.503.195-1.992.449-.468.234-.215.879l4.805 12.441 4.512-12.441q.214-.625-.293-.859-.508-.255-1.954-.469v-.84h6.524zm18.144 7.851q0 1.953-.722 3.75a11 11 0 0 1-1.934 3.223 9.6 9.6 0 0 1-2.832 2.266 7.3 7.3 0 0 1-3.379.82q-2.46 0-4.297-1.211-1.816-1.211-2.832-3.301-.996-2.09-.996-4.746 0-1.933.684-3.73a11.3 11.3 0 0 1 1.914-3.243 9.2 9.2 0 0 1 2.832-2.265 7.4 7.4 0 0 1 3.457-.84q2.461 0 4.277 1.211 1.817 1.21 2.813 3.301 1.015 2.09 1.015 4.765m-3.027.586q0-2.07-.859-3.808-.84-1.758-2.149-2.832-1.289-1.075-2.636-1.075-1.974 0-3.145.977-1.153.976-1.66 2.637-.488 1.659-.488 3.75 0 2.05.898 3.808.918 1.739 2.227 2.813 1.328 1.055 2.519 1.055 2.773 0 4.024-1.993 1.269-1.992 1.269-5.332m25.469 7.285a32 32 0 0 1-2.617 1.563q-1.173.625-1.66.625-.684 0-1.114-.898-.43-.918-.547-2.93-1.62 1.621-2.89 2.441-1.25.82-2.246 1.094-.996.293-1.836.293a5.5 5.5 0 0 1-2.285-.488q-1.056-.489-1.719-1.797-.645-1.31-.645-3.75v-8.438q0-1.25-.136-1.777a.92.92 0 0 0-.645-.723q-.528-.176-1.738-.293v-.781a18.6 18.6 0 0 0 2.5-.469 25 25 0 0 0 2.402-.82l.547.762v11.465q0 2.733.781 3.75.801 1.015 2.207 1.015 1.27 0 2.617-.762 1.368-.76 3.086-2.597v-8.77q0-1.171-.195-1.738a1.12 1.12 0 0 0-.762-.781q-.566-.215-1.777-.274v-.781a17.5 17.5 0 0 0 2.695-.547 44 44 0 0 0 2.383-.742l.586.762v13.027q0 1.191.098 1.973.098.762.351.957.215.156.782.078.585-.098 1.582-.527zm36.992-15.722q-1.191.273-1.523.527-.313.234-.43.684l-4.316 14.961a1.68 1.68 0 0 1-.684.937q-.508.352-1.094.527a10 10 0 0 1-.898.274l-4.961-14.18.156-4.57h1.231l5.078 14.453 3.379-12.402q.117-.45-.411-.723-.526-.273-1.875-.488v-.84h6.348zm-17.598 16.172q-.292.898-1.191 1.25-.899.37-1.406.488l-5.117-16.699q-.177-.762-2.129-1.211v-.84h7.539v.84q-1.27.117-1.817.312-.527.195-.625.43a.72.72 0 0 0 0 .469l3.672 12.402 4.805-14.453h1.074l.41 2.051zm25.625-23.477q0 1.094-.644 1.895-.645.78-1.621.781-1.641 0-1.641-1.875 0-1.113.664-1.875.664-.781 1.582-.781 1.66 0 1.66 1.855M496.484 448v-.84q2.735-.547 2.735-1.191v-11.055q0-1.347-.117-2.012-.118-.663-.684-.918-.566-.273-1.934-.39v-.782a27 27 0 0 0 2.618-.644q1.386-.429 2.382-.918h.664v16.719q0 .234.645.586.664.332 2.09.605v.84zm10.664 0v-.84q1.68-.292 2.305-.586.625-.293.625-.605v-23.281q0-1.154-.234-1.641-.215-.509-.821-.684-.585-.176-1.679-.293v-.781a32 32 0 0 0 2.578-.605 12.3 12.3 0 0 0 2.383-.957l.703.664v27.578q0 .293.664.605.664.313 2.266.586v.84zm10.86 0v-.84q1.68-.292 2.304-.586.626-.293.626-.605v-23.281q0-1.154-.235-1.641-.215-.509-.82-.684-.587-.176-1.68-.293v-.781a32 32 0 0 0 2.578-.605 12.2 12.2 0 0 0 2.383-.957l.703.664v27.578q0 .293.664.605.664.313 2.266.586v.84zm33.554-18.027q.255.136.157 1.054a13.4 13.4 0 0 1-.391 1.993q-.273 1.074-.605 1.777h-.84q-.234-1.582-.84-2.188-.586-.624-1.328-.625-.86 0-2.188 1.504t-2.265 4.824v7.657q0 .293.722.605.743.313 2.578.586v.84h-8.964v-.84q1.289-.292 2.011-.586.723-.293.723-.605v-11.367q0-1.29-.137-1.797-.136-.508-.312-.684-.253-.273-.723-.371-.468-.098-1.562-.156v-.782a69 69 0 0 0 2.5-.664 9.8 9.8 0 0 0 2.187-.898l.684.684.254 4.433q1.054-2.167 2.461-3.633 1.406-1.484 3.086-1.484.624 0 1.347.156.743.156 1.445.567m17.11 7.148q-.351.39-.938.723-.585.331-1.211.586h-11.211l.04-1.758h9.375q.449 0 .585-.137.157-.156.157-.566a7 7 0 0 0-.157-1.309 5.2 5.2 0 0 0-.585-1.543 3.4 3.4 0 0 0-1.211-1.289q-.8-.527-2.071-.527-1.562 0-2.734.918t-1.816 2.5q-.645 1.562-.645 3.574 0 2.05.684 3.828.702 1.758 1.992 2.852 1.308 1.074 3.105 1.074.82 0 1.582-.156.782-.177 1.778-.743.995-.566 2.441-1.757.254.137.449.39.195.255.274.41-1.739 1.895-2.969 2.852-1.23.938-2.324 1.23-1.074.313-2.422.313-1.992 0-3.711-1.113-1.719-1.133-2.774-3.164-1.035-2.032-1.035-4.786 0-2.636 1.133-4.98 1.153-2.364 3.184-3.75.859-.606 2.09-1.074 1.23-.47 2.265-.469 1.914 0 3.203.762a5.85 5.85 0 0 1 2.051 1.933 8.4 8.4 0 0 1 1.094 2.559q.332 1.367.332 2.617m19.648 9.277q-1.659 1.134-2.754 1.661-1.074.527-1.621.527-.683 0-1.113-1.016-.43-1.035-.43-2.773v-10.508q0-1.328-.683-2.227-.684-.917-2.598-.859a3.94 3.94 0 0 0-2.285.762q-1.016.723-.898 1.894.039.235-.665.528a10 10 0 0 1-1.523.488q-.8.176-1.133.098l-.273-.762q.605-1.308 1.992-2.422a12 12 0 0 1 3.125-1.836q1.758-.703 3.398-.703 2.15 0 3.301 1.133 1.172 1.113 1.172 3.125v11.015q0 1.524.781 1.524.274 0 .703-.098.43-.117 1.211-.429zm-5.722-7.929q-2.247.351-3.496.703t-1.895.742q-.645.371-1.074.82a5 5 0 0 0-.821 1.211q-.312.664-.312 1.582 0 1.036.371 1.582.391.547.899.743.507.195.839.195 1.212 0 2.579-.645 1.366-.644 2.91-2.011l.156 1.445q-1.837 1.972-3.652 2.871-1.817.879-3.145.879-.937 0-1.895-.43-.957-.41-1.621-1.347-.644-.937-.644-2.442 0-1.503.508-2.48a7.1 7.1 0 0 1 1.25-1.719q.644-.645 1.562-1.191.918-.547 2.656-1.036 1.758-.488 4.825-.937zm26.523 7.89q-1.797 1.192-2.793 1.7-.996.527-1.543.527-.781 0-1.211-1.309-.429-1.328-.429-4.589v-19.571q0-1.445-.137-2.109-.136-.684-.723-.918-.585-.234-1.973-.332v-.762a22 22 0 0 0 2.872-.566 80 80 0 0 0 2.285-.703l.605.585v24.727q0 1.368.117 1.992.138.625.332.899.157.214.665.136.507-.098 1.679-.546zm-4.531-3.437a38 38 0 0 1-2.5 2.988q-1.172 1.27-2.461 1.973-1.27.703-2.91.703-1.446 0-2.969-1.094-1.523-1.113-2.559-3.183-1.035-2.09-1.035-4.981 0-1.68.664-3.437a11.6 11.6 0 0 1 1.895-3.282 9.8 9.8 0 0 1 2.91-2.421q1.68-.938 3.73-.938a7.2 7.2 0 0 1 2.364.41q1.191.41 2.715 1.934 0 1.172-.274 1.601-.253.411-.879.801a4.34 4.34 0 0 0-1.836-1.914q-1.21-.684-2.695-.684-2.48 0-4.082 1.836-1.582 1.817-1.582 5.489 0 2.207.801 3.867.82 1.64 1.972 2.558 1.173.899 2.246.899 1.036 0 1.993-.586a12.3 12.3 0 0 0 1.914-1.484l1.855-1.778q.254.118.449.352.196.215.274.371m26.855 2.793q-1.914 1.426-3.691 2.148-1.758.723-2.793.723-1.348 0-2.383-1.094-1.016-1.094-1.016-3.808v-11.993h-2.519l-.41-.546 1.523-1.309h1.406v-4.805l2.325-2.031.605.488v6.348h6.387l.566.566a9 9 0 0 1-.976 1.172q-.606.625-.996.801-.47-.234-1.426-.449-.957-.235-2.539-.235h-1.016v10.313q0 2.343.469 3.203.468.84 1.641.84.683 0 1.718-.274 1.035-.273 2.559-1.054zM645.117 448v-.84q2.735-.704 2.735-1.191v-10.332q0-2.383-.606-3.106-.606-.742-1.894-.742-1.349 0-3.125 1.387-1.778 1.367-3.457 4.101v8.692q0 .293.742.605.743.313 1.992.586v.84h-8.399v-.84q1.29-.332 2.012-.605.723-.274.723-.586v-23.321q0-1.093-.156-1.582-.157-.487-.743-.664-.565-.195-1.836-.332v-.781q1.66-.312 2.735-.644a15 15 0 0 0 2.207-.918l.723.664v16.25a14.6 14.6 0 0 1 2.539-2.871q1.406-1.212 2.773-1.856 1.367-.664 2.383-.664 1.68 0 2.988 1.035 1.328 1.035 1.328 3.242v12.442q0 .254.586.527.606.274 2.149.664v.84zm16.602-24.629q0 1.094-.645 1.895-.644.78-1.621.781-1.641 0-1.641-1.875 0-1.113.665-1.875.663-.781 1.582-.781 1.66 0 1.66 1.855M655.469 448v-.84q2.734-.547 2.734-1.191v-11.055q0-1.347-.117-2.012-.117-.663-.684-.918-.566-.273-1.933-.39v-.782q1.23-.234 2.617-.644 1.387-.429 2.383-.918h.664v16.719q0 .234.644.586.665.332 2.09.605v.84zm23.164-5.527q0 2.07-.821 3.3-.8 1.231-1.972 1.836-1.153.606-2.266.782-1.093.195-1.66.195-.918 0-2.246-.352a11.6 11.6 0 0 1-2.637-1.074q-.116-.078-.176-.625a15 15 0 0 1-.019-1.347q.02-.782.098-1.524.098-.762.234-1.191l.84.215q.098 1.64 1.484 2.792 1.387 1.153 3.399 1.153 1.405 0 2.304-.84.899-.86.899-2.227 0-.898-.489-1.523-.488-.625-1.562-1.27a47 47 0 0 0-2.793-1.543q-1.074-.565-2.051-1.23a6.2 6.2 0 0 1-1.601-1.543q-.606-.899-.606-2.129 0-1.621.84-2.754a5.33 5.33 0 0 1 2.168-1.719 6.7 6.7 0 0 1 2.793-.605q.82 0 1.816.195a11 11 0 0 1 1.895.508q.918.332 1.426.801.156.136-.039.781a10 10 0 0 1-.469 1.289q-.293.645-.469.86l-.762-.157q-.918-1.386-1.933-1.953-1.016-.566-1.973-.566-1.288 0-2.031.781-.723.762-.723 1.563 0 1.074 1.055 1.836 1.054.742 3.262 1.894 1.132.586 2.226 1.289a6.5 6.5 0 0 1 1.836 1.66q.723.976.723 2.442M690.43 448v-.84q1.68-.292 2.304-.586.625-.293.625-.605v-23.281q0-1.154-.234-1.641-.215-.509-.82-.684-.586-.176-1.68-.293v-.781a32 32 0 0 0 2.578-.605 12.2 12.2 0 0 0 2.383-.957l.703.664v27.578q0 .293.664.605.664.313 2.266.586v.84zm27.773-1.602q-1.66 1.134-2.754 1.661-1.074.527-1.621.527-.684 0-1.113-1.016-.43-1.035-.43-2.773v-10.508q0-1.328-.683-2.227-.684-.917-2.598-.859a3.94 3.94 0 0 0-2.285.762q-1.016.723-.899 1.894.04.235-.664.528a10 10 0 0 1-1.523.488q-.801.176-1.133.098l-.273-.762q.605-1.308 1.992-2.422a12 12 0 0 1 3.125-1.836q1.757-.703 3.398-.703 2.149 0 3.301 1.133 1.172 1.113 1.172 3.125v11.015q0 1.524.781 1.524.274 0 .703-.098.43-.117 1.211-.429zm-5.723-7.929q-2.245.351-3.496.703t-1.894.742q-.645.371-1.074.82a5 5 0 0 0-.821 1.211q-.312.664-.312 1.582 0 1.036.371 1.582.39.547.898.743.509.195.84.195 1.211 0 2.578-.645 1.368-.644 2.91-2.011l.157 1.445q-1.836 1.972-3.653 2.871-1.817.879-3.144.879a4.6 4.6 0 0 1-1.895-.43q-.957-.41-1.621-1.347-.644-.937-.644-2.442 0-1.503.508-2.48a7.1 7.1 0 0 1 1.25-1.719q.644-.645 1.562-1.191.918-.547 2.656-1.036 1.758-.488 4.824-.937zm19.668 4.004q0 2.07-.82 3.3-.8 1.231-1.973 1.836-1.152.606-2.265.782-1.094.195-1.66.195-.918 0-2.246-.352a11.5 11.5 0 0 1-2.637-1.074q-.117-.078-.176-.625a15 15 0 0 1-.019-1.347q.02-.782.097-1.524.097-.762.235-1.191l.839.215q.098 1.64 1.485 2.792 1.386 1.153 3.398 1.153 1.407 0 2.305-.84.898-.86.898-2.227 0-.898-.488-1.523t-1.562-1.27a47 47 0 0 0-2.793-1.543q-1.075-.565-2.051-1.23a6.3 6.3 0 0 1-1.602-1.543q-.605-.899-.605-2.129 0-1.621.84-2.754a5.3 5.3 0 0 1 2.168-1.719 6.7 6.7 0 0 1 2.793-.605q.82 0 1.816.195a11 11 0 0 1 1.895.508q.918.332 1.425.801.156.136-.039.781a10 10 0 0 1-.468 1.289q-.294.645-.469.86l-.762-.157q-.918-1.386-1.934-1.953-1.015-.566-1.972-.566-1.29 0-2.031.781-.723.762-.723 1.563 0 1.074 1.055 1.836 1.055.742 3.261 1.894 1.133.586 2.227 1.289a6.5 6.5 0 0 1 1.836 1.66q.722.976.722 2.442m15 3.242q-1.914 1.426-3.691 2.148-1.758.723-2.793.723-1.348 0-2.383-1.094-1.015-1.094-1.015-3.808v-11.993h-2.52l-.41-.546 1.523-1.309h1.407v-4.805L739.59 423l.605.488v6.348h6.387l.566.566a9 9 0 0 1-.976 1.172q-.606.625-.996.801-.47-.234-1.426-.449-.957-.235-2.539-.235h-1.016v10.313q0 2.343.469 3.203.469.84 1.641.84.683 0 1.718-.274 1.036-.273 2.559-1.054zM171.129 486.64h36.84v19.68h-4.8l-23.16 41.52v12.48h6V580h-45.6v-19.68h6v-12.48l-23.88-41.52h-4.8v-19.68h46.44v19.68h-4.2l7.08 18.6h1.2l7.08-18.6h-4.2zm63.002 95.04q-17.04 0-26.64-8.88-9.6-9-9.6-26.16t9.6-26.04q9.6-9 26.64-9 17.28 0 26.76 9.12 9.48 9 9.48 25.92 0 17.16-9.6 26.16-9.6 8.88-26.64 8.88m0-21.36q3.48 0 5.16-1.8 1.8-1.92 1.8-5.88v-12q0-3.96-1.8-5.76-1.68-1.92-5.16-1.92t-5.28 1.92q-1.68 1.8-1.68 5.76v12q0 3.96 1.68 5.88 1.8 1.8 5.28 1.8m119.02 0V580h-32.88v-9.36q-8.64 11.04-21.6 11.04-9.96 0-15-6.24-4.92-6.24-4.92-17.16v-25.32h-5.28v-19.68h32.88v39.36q0 3.96 1.68 5.88 1.8 1.8 5.28 1.8t5.16-1.8q1.8-1.92 1.8-5.88v-19.68h-6.48v-19.68h34.08v47.04zM412.353 580l-15.84-47.04h-5.04v-19.68h37.08v19.68h-5.04l4.32 18.72h1.2l8.76-38.4h22.08l8.76 38.4h1.2l4.2-18.72h-5.04v-19.68h34.8v19.68h-5.04L483.513 580h-29.16l-6.6-33.36h-1.2l-6.6 33.36zm100.567-73.32v-20.04h24.48v20.04zM507.16 580v-19.68h5.28v-27.36h-5.28v-19.68h32.88v47.04h5.28V580zm41.484.12v-19.8h5.28v-54h-5.28v-19.68h32.88v73.68h5.28v19.8zm41.954 0v-19.8h5.28v-54h-5.28v-19.68h32.88v73.68h5.28v19.8zm129.169-68.52q2.4 0 4.56.48t3.6 1.2v22.92q-4.92-2.04-10.56-2.04-7.56 0-11.64 3.96t-4.08 11.76v10.44h10.8V580h-43.68v-19.68h5.28v-27.36h-5.28v-19.68h32.88v8.76q3.36-5.04 7.68-7.68 4.32-2.76 10.44-2.76m47.801 70.08q-17.04 0-26.64-8.88-9.6-9-9.6-26.16t9.6-26.04q9.6-9 26.64-9 16.92 0 24.36 8.88 7.56 8.76 7.56 21.84v8.64h-38.88v.72q0 4.44 2.64 6.6 2.64 2.04 8.76 2.04 7.32 0 13.92-1.08t11.52-2.76v19.2q-4.2 2.28-12.36 4.2-8.04 1.8-17.52 1.8m6.96-43.92v-1.44q0-4.08-1.8-5.88-1.68-1.8-5.16-1.8t-5.28 1.92q-1.68 1.8-1.68 5.76v1.44zm98.49 22.56V580h-31.68v-8.16q-2.64 3.84-7.44 6.84-4.68 3-11.52 3-9 0-14.16-4.8t-5.16-13.56q0-22.68 38.52-23.28-.36-4.08-3.12-5.52-2.76-1.56-9.36-1.56-5.4 0-11.64 1.2-6.12 1.08-11.28 3v-22.08q6.36-1.56 13.8-2.52t14.52-.96q17.88 0 25.56 6.48t7.68 20.04v22.2zm-31.68-8.4q-5.4 0-8.4 1.44-2.88 1.44-2.88 4.8 0 2.04 1.2 3.36 1.32 1.2 3.6 1.2 3.12 0 4.8-2.64t1.68-7.44zm59.189 29.76q-12.24 0-18.48-9.12-6.12-9.12-6.12-25.92t6.12-25.92q6.24-9.12 18.48-9.12 6.12 0 10.8 3 4.8 3 7.8 6.84v-15.12h-7.08v-19.68h34.68v73.68h5.28V580h-32.88v-8.16q-3 3.84-7.8 6.84-4.68 3-10.8 3m11.64-21.36q3.48 0 5.16-1.8 1.8-1.92 1.8-5.88v-12q0-3.96-1.8-5.76-1.68-1.92-5.16-1.92t-5.28 1.92q-1.68 1.8-1.68 5.76v12q0 3.96 1.68 5.88 1.8 1.8 5.28 1.8M294.456 713.68q-12.72 0-19.2-6.12-6.36-6.24-6.36-20.88v-21.72h-5.28v-19.68q4.56 0 6.84-2.28 2.28-2.4 2.28-6.48v-5.4h25.44v14.16h16.2v19.68h-16.2v19.68q0 3.96 1.68 5.88 1.8 1.8 5.28 1.8 4.56 0 9.96-1.08v18.84q-3.36 1.32-9.12 2.4-5.64 1.2-11.52 1.2m104.181-21.36V712h-37.92v-19.68h5.04v-19.68q0-3.96-1.68-5.76-1.68-1.92-5.04-1.92-7.2 0-7.2 7.68v19.68h5.04V712h-37.92v-19.68h5.28v-54h-5.28v-19.68h32.88v36q4.44-5.52 9.6-8.28t12-2.76q9.96 0 14.88 6.24 5.04 6.24 5.04 17.16v25.32zm9.635-53.64v-20.04h24.48v20.04zm-5.76 73.32v-19.68h5.28v-27.36h-5.28v-19.68h32.88v47.04h5.28V712zm70.644 1.68q-15.12 0-29.16-4.8v-17.76h19.44v1.2q0 5.76 7.32 5.76 6.48 0 6.48-4.44 0-2.4-1.92-3.6-1.8-1.2-6.48-2.04l-6-1.08q-18.84-3.36-18.84-21.36 0-10.44 7.92-16.2t21.36-5.76q15 0 25.32 5.04v16.68h-18.24v-1.2q0-2.4-1.68-3.6-1.56-1.32-4.68-1.32-6 0-6 3.84 0 2.04 1.68 3.12t6.12 2.04l6.84 1.32q10.68 2.04 15.24 7.56t4.56 14.16q0 10.92-7.68 16.68-7.56 5.76-21.6 5.76m110.203-75.36q-4.68 0-6.48 1.56t-1.8 5.4h9.36v19.68h-9.36v27.36h9.36V712h-42.24v-19.68h5.28v-27.36h-5.28v-19.68h5.52q0-14.64 7.08-21.48 7.2-6.84 20.88-6.84 5.88 0 10.68.84 4.8.72 7.68 1.8v-.96h24.48v20.04h-23.4v.24q-6.36-.6-11.76-.6m37.8 54h5.28V712h-38.16v-19.68h5.28v-27.36h-5.28v-19.68h32.88zm59.936-48.72q2.4 0 4.56.48t3.6 1.2v22.92q-4.92-2.04-10.56-2.04-7.56 0-11.64 3.96t-4.08 11.76v10.44h10.8V712h-43.68v-19.68h5.28v-27.36h-5.28v-19.68h32.88v8.76q3.36-5.04 7.68-7.68 4.32-2.76 10.44-2.76m41.202 70.08q-15.12 0-29.16-4.8v-17.76h19.44v1.2q0 5.76 7.32 5.76 6.48 0 6.48-4.44 0-2.4-1.92-3.6-1.8-1.2-6.48-2.04l-6-1.08q-18.84-3.36-18.84-21.36 0-10.44 7.92-16.2t21.36-5.76q15 0 25.32 5.04v16.68h-18.24v-1.2q0-2.4-1.68-3.6-1.56-1.32-4.68-1.32-6 0-6 3.84 0 2.04 1.68 3.12t6.12 2.04l6.84 1.32q10.68 2.04 15.24 7.56t4.56 14.16q0 10.92-7.68 16.68-7.56 5.76-21.6 5.76m62.706 0q-12.72 0-19.2-6.12-6.36-6.24-6.36-20.88v-21.72h-5.28v-19.68q4.56 0 6.84-2.28 2.28-2.4 2.28-6.48v-5.4h25.44v14.16h16.2v19.68h-16.2v19.68q0 3.96 1.68 5.88 1.8 1.8 5.28 1.8 4.56 0 9.96-1.08v18.84q-3.36 1.32-9.12 2.4-5.64 1.2-11.52 1.2m-450.276 68.375a21 21 0 0 1-.235 2.625 52 52 0 0 1-.469 2.882h-1.054q-.446-2.18-.821-3.07-.351-.914-1.359-.914h-9.305l.68-2.109h11.859zm-21.352 1.523q-.47 0-.844.258-.375.258-.82 1.148-.422.867-1.125 2.696l-1.008-.446q.117-1.383.328-2.953.211-1.594.446-2.812h14.695l.656 2.109zM316.539 811v-1.008q2.157-.446 3-.89.844-.47.844-.797v-24.891q0-.281-.867-.445l-2.532-.492v-1.008h10.5v1.008a54 54 0 0 1-2.461.468q-.89.14-.89.469v24.891q0 .305.844.773.843.469 3 .914V811zm34.945 0v-1.008q3.282-.843 3.282-1.43v-12.398q0-2.859-.727-3.726-.726-.891-2.273-.891-1.617 0-3.75 1.664-2.133 1.64-4.149 4.922v10.429q0 .352.891.727.89.375 2.39.703V811H337.07v-1.008q1.548-.398 2.414-.726.868-.329.868-.704v-27.984q0-1.313-.188-1.898-.187-.587-.891-.797-.68-.234-2.203-.399v-.937q1.992-.375 3.282-.774a18 18 0 0 0 2.648-1.101l.867.797v19.5a17.6 17.6 0 0 1 3.047-3.446q1.687-1.453 3.328-2.226 1.64-.797 2.86-.797 2.015 0 3.586 1.242 1.593 1.242 1.593 3.891v14.929q0 .306.703.633.727.329 2.578.797V811zm31.078-13.055q-.422.47-1.124.867-.704.399-1.454.704h-13.453l.047-2.11h11.25q.54 0 .703-.164.188-.187.188-.68 0-.632-.188-1.57a6.3 6.3 0 0 0-.703-1.851 4.04 4.04 0 0 0-1.453-1.547q-.962-.633-2.484-.633-1.875 0-3.282 1.101-1.406 1.103-2.179 3-.774 1.875-.774 4.29 0 2.46.821 4.593.843 2.11 2.39 3.422 1.57 1.29 3.727 1.289a9.4 9.4 0 0 0 1.898-.187q.938-.211 2.133-.891t2.93-2.109q.305.163.539.469.234.304.328.492-2.086 2.273-3.563 3.422-1.476 1.125-2.789 1.476-1.289.375-2.906.375-2.39 0-4.453-1.336-2.062-1.36-3.328-3.797-1.242-2.437-1.242-5.742 0-3.163 1.359-5.976 1.383-2.837 3.82-4.5 1.032-.727 2.508-1.29 1.476-.562 2.719-.562 2.296 0 3.844.914 1.546.89 2.461 2.32a10.1 10.1 0 0 1 1.312 3.071q.399 1.64.398 3.14M400.141 811v-1.008q3.28-.843 3.281-1.43v-12.398q0-2.859-.68-3.726-.656-.891-2.32-.891-1.43 0-3.539 1.476-2.086 1.477-4.36 5.11v10.429q0 .352.891.727t2.391.703V811h-10.078v-1.008q1.546-.398 2.414-.726.867-.329.867-.704v-14.226q0-1.219-.164-1.805-.165-.586-.844-.82-.68-.234-2.273-.399v-.937a18 18 0 0 0 2.953-.727 22.5 22.5 0 0 0 2.672-1.148l.82.82.258 5.836q1.383-2.086 3.07-3.562 1.712-1.5 3.375-2.297t2.883-.797q2.016 0 3.586 1.242 1.594 1.242 1.594 3.891v14.929q0 .306.703.633.726.329 2.578.797V811zm44.554-20.789q-1.406.329-1.875.609-.445.282-.703.961l-7.828 21.141q-1.288 3.468-2.977 5.625-1.687 2.156-3.468 3.164-1.782 1.008-3.352 1.008-1.78 0-2.93-.399-1.148-.398-1.148-.843 0-.188.492-.844.47-.633 1.102-1.336.656-.68 1.148-.985 1.102.657 2.227.68 1.125.047 1.992-.258.867-.304 2.109-1.945a15.7 15.7 0 0 0 2.11-3.633l.679-1.617-7.687-19.734a1.75 1.75 0 0 0-.844-.985q-.585-.351-1.758-.609v-1.008h9.047v1.008q-1.805.234-2.39.539-.563.282-.258 1.055l5.765 14.929 5.414-14.929q.258-.75-.351-1.032-.61-.304-2.344-.562v-1.008h7.828zm21.774 9.422q0 2.343-.867 4.5a13.3 13.3 0 0 1-2.321 3.867 11.5 11.5 0 0 1-3.398 2.719 8.8 8.8 0 0 1-4.055.984q-2.953 0-5.156-1.453-2.18-1.453-3.399-3.961-1.194-2.508-1.195-5.695 0-2.32.82-4.477a13.5 13.5 0 0 1 2.297-3.89q1.477-1.735 3.399-2.719a8.9 8.9 0 0 1 4.148-1.008q2.954 0 5.133 1.453 2.18 1.453 3.375 3.961 1.219 2.508 1.219 5.719m-3.633.703q0-2.485-1.031-4.57-1.009-2.11-2.578-3.399-1.547-1.289-3.165-1.289-2.366 0-3.773 1.172-1.383 1.172-1.992 3.164-.586 1.992-.586 4.5 0 2.461 1.078 4.57 1.101 2.087 2.672 3.375 1.593 1.266 3.023 1.266 3.328 0 4.828-2.391 1.524-2.39 1.524-6.398m30.562 8.742a37 37 0 0 1-3.14 1.875q-1.407.75-1.992.75-.821 0-1.336-1.078-.516-1.101-.657-3.516-1.945 1.946-3.468 2.93-1.5.984-2.696 1.313-1.195.351-2.203.351a6.54 6.54 0 0 1-2.742-.586q-1.266-.585-2.062-2.156-.774-1.57-.774-4.5v-10.125q0-1.5-.164-2.133-.141-.656-.773-.867-.634-.211-2.086-.352v-.937a22 22 0 0 0 3-.563q1.335-.375 2.883-.984l.656.914v13.758q0 3.28.937 4.5.962 1.219 2.649 1.219 1.523 0 3.14-.914 1.64-.915 3.703-3.118v-10.523q0-1.407-.234-2.086a1.35 1.35 0 0 0-.914-.938q-.68-.257-2.133-.328v-.937a21 21 0 0 0 3.235-.656q1.57-.446 2.859-.891l.703.914v15.633q0 1.43.117 2.367.117.914.422 1.148.258.189.938.094.702-.117 1.898-.633zm44.391-18.867q-1.43.328-1.828.633-.375.281-.516.82l-5.179 17.953q-.188.68-.821 1.125a4.6 4.6 0 0 1-1.312.633 12 12 0 0 1-1.078.328l-5.953-17.015.187-5.485h1.477l6.093 17.344 4.055-14.883q.141-.539-.492-.867t-2.25-.586v-1.008h7.617zm-21.117 19.406q-.351 1.078-1.43 1.5-1.078.445-1.687.586l-6.141-20.039q-.211-.914-2.555-1.453v-1.008h9.047v1.008q-1.523.141-2.179.375-.633.234-.75.516a.86.86 0 0 0 0 .562l4.406 14.883 5.765-17.344h1.29l.492 2.461zm30.75-28.172q0 1.313-.774 2.274-.773.937-1.945.937-1.969 0-1.969-2.25 0-1.335.797-2.25.796-.937 1.899-.937 1.992 0 1.992 2.226m-7.5 29.555v-1.008q3.28-.656 3.281-1.43v-13.265q0-1.617-.141-2.414t-.82-1.102q-.68-.328-2.32-.469v-.937a33 33 0 0 0 3.14-.773q1.665-.516 2.86-1.102h.797v20.062q0 .282.773.704.796.397 2.508.726V811zm12.797 0v-1.008q2.015-.352 2.765-.703t.75-.727v-27.937q0-1.383-.281-1.969-.258-.609-.984-.82-.703-.211-2.016-.352v-.937a38 38 0 0 0 3.094-.727 14.5 14.5 0 0 0 2.859-1.148l.844.797v33.093q0 .352.797.727.796.375 2.719.703V811zm13.031 0v-1.008q2.016-.352 2.766-.703t.75-.727v-27.937q0-1.383-.282-1.969-.258-.609-.984-.82-.703-.211-2.016-.352v-.937a38 38 0 0 0 3.094-.727 14.6 14.6 0 0 0 2.86-1.148l.843.797v33.093q0 .352.797.727t2.719.703V811zm40.266-21.633q.304.164.187 1.266a16 16 0 0 1-.469 2.39q-.328 1.29-.726 2.133H604q-.281-1.898-1.008-2.625-.703-.75-1.594-.75-1.03 0-2.625 1.805-1.593 1.805-2.718 5.789v9.187q0 .352.867.727.89.375 3.094.703V811h-10.758v-1.008q1.547-.352 2.414-.703t.867-.727v-13.64q0-1.547-.164-2.156t-.375-.821q-.304-.327-.867-.445t-1.875-.188v-.937a85 85 0 0 0 3-.797q1.476-.421 2.625-1.078l.82.82.305 5.321q1.266-2.602 2.953-4.36 1.687-1.78 3.703-1.781.75 0 1.617.188a5.8 5.8 0 0 1 1.735.679m20.531 8.578q-.421.47-1.125.867-.703.399-1.453.704h-13.453l.046-2.11h11.25q.54 0 .704-.164.187-.187.187-.68 0-.632-.187-1.57a6.3 6.3 0 0 0-.704-1.851 4.04 4.04 0 0 0-1.453-1.547q-.96-.633-2.484-.633-1.875 0-3.281 1.101-1.406 1.103-2.18 3-.774 1.875-.773 4.29 0 2.46.82 4.593.843 2.11 2.391 3.422 1.57 1.29 3.726 1.289.984 0 1.899-.187.937-.211 2.132-.891t2.93-2.109q.305.163.539.469.234.304.328.492-2.086 2.273-3.562 3.422-1.477 1.125-2.789 1.476-1.29.375-2.907.375-2.39 0-4.453-1.336-2.062-1.36-3.328-3.797-1.242-2.437-1.242-5.742 0-3.163 1.359-5.976 1.383-2.837 3.821-4.5 1.03-.727 2.507-1.29 1.477-.562 2.719-.562 2.297 0 3.844.914 1.547.89 2.461 2.32a10.1 10.1 0 0 1 1.312 3.071 13.3 13.3 0 0 1 .399 3.14m23.578 11.133q-1.992 1.359-3.305 1.992-1.289.633-1.945.633-.82 0-1.336-1.219-.516-1.242-.516-3.328v-12.609q0-1.594-.82-2.672-.82-1.101-3.117-1.031-1.5.023-2.742.914-1.22.867-1.078 2.273.046.282-.797.633t-1.828.586q-.961.211-1.36.117l-.328-.914q.727-1.57 2.391-2.906a14.4 14.4 0 0 1 3.75-2.203q2.109-.844 4.078-.844 2.578 0 3.961 1.359 1.406 1.337 1.406 3.75v13.219q0 1.828.938 1.828.328 0 .843-.117.516-.141 1.453-.516zm-6.867-9.516q-2.696.423-4.196.844-1.5.422-2.273.891a5.7 5.7 0 0 0-1.289.984 6 6 0 0 0-.984 1.453q-.375.797-.375 1.899 0 1.242.445 1.898.468.657 1.078.891.609.234 1.008.234 1.453 0 3.094-.773 1.64-.774 3.492-2.414l.187 1.734q-2.202 2.367-4.383 3.445-2.179 1.055-3.773 1.055-1.125 0-2.273-.515-1.148-.493-1.946-1.618-.773-1.125-.773-2.929 0-1.805.609-2.977a8.5 8.5 0 0 1 1.5-2.062 9.5 9.5 0 0 1 1.875-1.43q1.102-.657 3.188-1.242 2.11-.586 5.789-1.125zm31.828 9.469q-2.157 1.43-3.352 2.039-1.195.633-1.851.633-.938 0-1.453-1.57-.516-1.594-.516-5.508v-23.484q0-1.735-.164-2.532-.164-.82-.867-1.101-.704-.281-2.367-.399v-.914a26 26 0 0 0 3.445-.679 90 90 0 0 0 2.742-.844l.727.703v29.672q0 1.641.14 2.391.164.75.399 1.078.187.257.797.164.61-.117 2.015-.657zm-5.438-4.125q-1.569 2.063-3 3.586-1.405 1.524-2.953 2.367-1.522.844-3.492.844-1.735 0-3.562-1.312-1.829-1.336-3.071-3.821-1.242-2.508-1.242-5.976 0-2.016.797-4.125a13.8 13.8 0 0 1 2.273-3.938 11.8 11.8 0 0 1 3.493-2.906q2.015-1.125 4.476-1.125 1.407 0 2.836.492 1.43.493 3.258 2.32 0 1.407-.328 1.922-.305.493-1.055.961a5.2 5.2 0 0 0-2.203-2.297q-1.454-.82-3.234-.82-2.978 0-4.899 2.203-1.898 2.18-1.898 6.586 0 2.649.961 4.641.984 1.968 2.367 3.07 1.406 1.078 2.695 1.078 1.242 0 2.391-.703a14.7 14.7 0 0 0 2.297-1.781l2.226-2.133q.305.14.539.422.235.258.328.445m32.227 3.352q-2.297 1.71-4.43 2.578-2.109.867-3.351.867-1.617 0-2.86-1.312-1.218-1.313-1.218-4.571v-14.39h-3.024l-.492-.657 1.828-1.57h1.688v-5.765l2.789-2.438.726.586v7.617h7.664l.68.68a10.7 10.7 0 0 1-1.172 1.406q-.726.75-1.195.961-.563-.281-1.711-.539-1.148-.282-3.047-.281h-1.219v12.375q0 2.813.563 3.843.563 1.008 1.968 1.008.82 0 2.063-.328 1.242-.328 3.07-1.266zM718.281 811v-1.008q3.281-.843 3.281-1.43v-12.398q0-2.859-.726-3.726-.726-.891-2.274-.891-1.617 0-3.75 1.664-2.132 1.64-4.148 4.922v10.429q0 .352.891.727.89.375 2.39.703V811h-10.078v-1.008q1.547-.398 2.414-.726.867-.329.867-.704v-27.984q0-1.313-.187-1.898-.187-.587-.891-.797-.68-.234-2.203-.399v-.937q1.992-.375 3.281-.774a18 18 0 0 0 2.649-1.101l.867.797v19.5a17.6 17.6 0 0 1 3.047-3.446q1.687-1.453 3.328-2.226 1.641-.797 2.859-.797a5.62 5.62 0 0 1 3.586 1.242q1.594 1.242 1.594 3.891v14.929q0 .306.703.633.727.329 2.578.797V811zm19.922-29.555q0 1.313-.773 2.274-.773.937-1.946.937-1.968 0-1.968-2.25 0-1.335.796-2.25.798-.937 1.899-.937 1.992 0 1.992 2.226m-7.5 29.555v-1.008q3.281-.656 3.281-1.43v-13.265q0-1.617-.14-2.414t-.821-1.102q-.68-.328-2.32-.469v-.937a33 33 0 0 0 3.141-.773q1.664-.516 2.859-1.102h.797v20.062q0 .282.773.704.798.397 2.508.726V811zm27.797-6.633q0 2.484-.984 3.961-.961 1.477-2.368 2.203-1.382.727-2.718.938-1.312.234-1.992.234-1.102 0-2.696-.422a14 14 0 0 1-3.164-1.289q-.14-.093-.211-.75a18 18 0 0 1-.023-1.617q.023-.937.117-1.828.117-.914.281-1.43l1.008.258q.117 1.97 1.781 3.352 1.665 1.382 4.078 1.382 1.688 0 2.766-1.007 1.078-1.032 1.078-2.672 0-1.078-.586-1.828-.585-.75-1.875-1.524-1.266-.774-3.351-1.851A26 26 0 0 1 747.18 799a7.5 7.5 0 0 1-1.922-1.852q-.727-1.078-.727-2.554 0-1.946 1.008-3.305a6.4 6.4 0 0 1 2.602-2.062 8 8 0 0 1 3.351-.727q.984 0 2.18.234 1.196.211 2.273.61 1.102.398 1.711.961.188.164-.047.937-.21.75-.562 1.547-.352.774-.563 1.031l-.914-.187q-1.102-1.665-2.32-2.344-1.219-.68-2.367-.68-1.547 0-2.438.938-.867.914-.867 1.875 0 1.289 1.266 2.203 1.265.891 3.914 2.273 1.36.704 2.672 1.547a7.7 7.7 0 0 1 2.203 1.993q.867 1.171.867 2.929"/></svg>