<svg xmlns="http://www.w3.org/2000/svg" width="1080" height="1350" fill="none"><path fill="#000" d="m314.518 446 10.84-27.44h5l10.88 27.44h-4.12l-2.68-6.8h-13.36l-2.64 6.8zm7.8-10.04h10.84l-3.32-8.6q-.12-.36-.36-1t-.52-1.4l-.56-1.6a86 86 0 0 0-.52-1.52h-.24l-.64 1.84q-.36 1.04-.72 2.04-.36.96-.6 1.64zM344.264 446v-21.04h2.84l.32 3.16h.28q.84-1.28 1.88-2.08a7.2 7.2 0 0 1 2.36-1.16q1.32-.4 2.8-.4 2 0 3.48.68 1.52.68 2.36 2.2.88 1.52.88 4.12V446h-3.52v-14.04q0-1.32-.36-2.16-.32-.84-.92-1.32-.56-.48-1.4-.68a7.5 7.5 0 0 0-1.8-.2q-1.48 0-2.8.72t-2.12 2.08q-.76 1.36-.76 3.24V446zm29.699.48q-2.6 0-4.48-1.16-1.84-1.16-2.88-3.6-1-2.48-1-6.4 0-3.72 1.04-6.12t2.88-3.56 4.28-1.16q1.4 0 2.6.32t2.12 1q.96.68 1.68 1.8h.24v-10.52h3.52V446h-2.84l-.32-3h-.28q-1.08 1.76-2.8 2.64-1.72.84-3.76.84m.84-3.08q2 0 3.24-.88t1.8-2.56q.6-1.68.6-4.16v-.64q0-2.16-.44-3.64t-1.2-2.36-1.76-1.24a6.2 6.2 0 0 0-2.12-.36q-1.96 0-3.2.8-1.24.76-1.84 2.44-.6 1.64-.6 4.28v.84q0 2.72.64 4.4.64 1.64 1.84 2.36 1.24.72 3.04.72m24.855 9.88q-.96 0-1.68-.16-.68-.12-.92-.16v-2.56h1.76a4.7 4.7 0 0 0 1.88-.4q.92-.4 1.72-1.36t1.36-2.64l-8.16-21.04h3.68l4.2 10.84q.28.76.64 1.88.4 1.08.76 2.24.4 1.16.64 2.04h.24q.16-.64.4-1.44t.48-1.64l.52-1.64q.28-.8.44-1.4l3.56-10.88h3.56l-7.12 20.44q-.6 1.72-1.32 3.16-.72 1.48-1.6 2.52a6 6 0 0 1-2.12 1.6q-1.24.6-2.92.6m26.801-6.8q-3.201 0-5.4-1.16-2.16-1.2-3.32-3.64-1.12-2.44-1.12-6.2 0-3.8 1.12-6.2 1.16-2.44 3.32-3.6 2.199-1.2 5.4-1.2 3.2 0 5.36 1.2 2.2 1.16 3.32 3.6 1.12 2.4 1.12 6.2 0 3.76-1.12 6.2t-3.32 3.64q-2.16 1.16-5.36 1.16m0-2.96q2.04 0 3.4-.8t2.04-2.48q.72-1.72.72-4.32v-.88q0-2.64-.72-4.32-.681-1.68-2.04-2.48-1.36-.8-3.4-.8t-3.44.8q-1.36.8-2.04 2.48t-.68 4.32v.88q0 2.6.68 4.32.68 1.68 2.04 2.48 1.4.8 3.44.8m20.692 2.96q-3.04 0-4.88-1.56t-1.84-5.44v-14.52h3.52V439q0 1.32.32 2.16t.92 1.32 1.4.68q.84.2 1.8.2 1.52 0 2.8-.72t2.08-2.08q.84-1.4.84-3.24v-12.36h3.52V446h-2.84l-.32-3.16h-.28q-.84 1.28-1.92 2.08-1.04.8-2.36 1.16-1.28.4-2.76.4m28.34-.48-6.36-21.04h3.64l3.2 11.56q.24.84.44 1.84.24.96.44 1.8.24.8.32 1.24h.24l.36-1.72q.24-.96.4-1.84.2-.88.32-1.36l2.88-11.52h3.8l2.92 11.52q.16.68.36 1.6l.4 1.76q.24.88.32 1.56h.24q.16-.64.36-1.48.2-.88.44-1.76.24-.92.44-1.6l3.16-11.6h3.36l-6.32 21.04h-3.6l-2.72-10.88a63 63 0 0 0-.4-1.76l-.48-2.08a126 126 0 0 0-.36-1.88h-.24q-.08.6-.28 1.52-.16.92-.4 2.04-.24 1.08-.56 2.16l-2.72 10.88zm24.867-25v-3.92h3.52V421zm0 25v-21.04h3.52V446zm8.984 0v-28.92h3.52V446zm8.984 0v-28.92h3.52V446zm17.344 0v-21.04h2.84l.32 3.48h.28a8 8 0 0 1 .88-1.88 4.26 4.26 0 0 1 1.52-1.48q.96-.6 2.36-.6.6 0 1.08.12.52.08.76.2v3.24h-1.32q-1.36 0-2.36.48-.96.44-1.6 1.28t-.96 2q-.28 1.16-.28 2.48V446zm21.291.48q-3.12 0-5.28-1.16-2.121-1.2-3.24-3.64-1.08-2.44-1.08-6.2 0-3.8 1.08-6.2 1.12-2.44 3.28-3.6 2.16-1.2 5.4-1.2 2.96 0 4.96 1.16 2 1.12 3 3.4 1.04 2.24 1.04 5.64v1.68h-15.12q.08 2.52.72 4.16.68 1.6 2 2.36 1.32.72 3.32.72 1.36 0 2.36-.32 1.04-.36 1.72-1 .72-.64 1.08-1.52t.4-1.92h3.44a8.6 8.6 0 0 1-.64 3.12 6.5 6.5 0 0 1-1.76 2.4q-1.16 1-2.84 1.56t-3.84.56m-5.88-12.76h11.4q0-1.76-.4-2.96t-1.16-1.96a4 4 0 0 0-1.72-1.08q-.96-.36-2.2-.36-1.84 0-3.12.68t-1.96 2.08q-.681 1.4-.84 3.6m24.674 12.76a9.8 9.8 0 0 1-2.32-.28 7 7 0 0 1-2.16-.92q-1-.64-1.6-1.76-.6-1.16-.6-2.88 0-2.16 1.04-3.56t2.88-2.16q1.88-.8 4.44-1.08a45 45 0 0 1 5.56-.32v-2.4q0-1.16-.4-2t-1.44-1.28q-1-.48-2.88-.48-1.8 0-2.88.48-1.04.44-1.48 1.16-.4.72-.4 1.6v.6h-3.4a2 2 0 0 1-.04-.4v-.48q0-1.92 1.04-3.2 1.08-1.32 3-1.96 1.92-.68 4.4-.68 2.64 0 4.4.76 1.8.76 2.68 2.16.92 1.4.92 3.36v11.4q0 .76.36 1.08.36.28.88.28h1.56v2.32a7.6 7.6 0 0 1-1.24.4q-.68.2-1.56.2-1.04 0-1.72-.44-.68-.4-1.04-1.12a5.6 5.6 0 0 1-.48-1.68h-.28a7.3 7.3 0 0 1-1.84 1.76q-1.08.72-2.44 1.12t-2.96.4m.88-2.96q1.28 0 2.4-.4a6.6 6.6 0 0 0 2.04-1.12 5.8 5.8 0 0 0 1.4-1.8 5 5 0 0 0 .52-2.28v-1.76q-3.24 0-5.52.36t-3.52 1.28q-1.2.92-1.2 2.6 0 1.08.48 1.76t1.36 1.04q.88.32 2.04.32m22.797 2.96q-2.6 0-4.48-1.16-1.84-1.16-2.88-3.6-1-2.48-1-6.4 0-3.72 1.04-6.12t2.88-3.56 4.28-1.16q1.4 0 2.6.32t2.12 1q.96.68 1.68 1.8h.24v-10.52h3.52V446h-2.84l-.32-3h-.28q-1.08 1.76-2.8 2.64-1.72.84-3.76.84m.84-3.08q2 0 3.24-.88 1.239-.88 1.8-2.56.6-1.68.6-4.16v-.64q0-2.16-.44-3.64-.441-1.48-1.2-2.36-.76-.88-1.76-1.24a6.2 6.2 0 0 0-2.12-.36q-1.96 0-3.2.8-1.24.76-1.84 2.44-.6 1.64-.6 4.28v.84q0 2.72.64 4.4.64 1.64 1.84 2.36 1.24.72 3.04.72m27.974 3.08q-1.64 0-2.56-.6a3.6 3.6 0 0 1-1.32-1.64 6.1 6.1 0 0 1-.4-2.2v-14.12h-2.72v-2.96h2.8l.64-5.88h2.8v5.88h3.96v2.96h-3.96v13.6q0 1 .36 1.52.36.48 1.36.48h2.24v2.32q-.399.2-.96.32t-1.16.2q-.56.12-1.08.12m6.955-.48v-28.92h3.52v10.52h.28a7.5 7.5 0 0 1 1.8-1.76 7.2 7.2 0 0 1 2.2-1q1.24-.36 2.68-.36 2.001 0 3.48.68 1.52.68 2.36 2.2.88 1.52.88 4.12V446h-3.52v-14.04q0-1.32-.36-2.16-.32-.84-.92-1.32-.56-.48-1.4-.68a7.5 7.5 0 0 0-1.8-.2q-1.48 0-2.8.72-1.32.68-2.12 2.04-.76 1.32-.76 3.28V446zm22.539-25v-3.92h3.52V421zm0 25v-21.04h3.52V446zm16.345.48q-2.16 0-3.8-.44t-2.72-1.28a5.6 5.6 0 0 1-1.64-2q-.56-1.16-.56-2.64v-.36q0-.2.04-.32h3.48q-.04.16-.04.28v.24q.04 1.4.72 2.2.72.8 1.96 1.12t2.76.32q1.32 0 2.44-.32 1.12-.36 1.76-1.04.68-.72.68-1.8 0-1.32-.88-2-.84-.72-2.24-1.12t-2.92-.84a47 47 0 0 1-2.56-.8 11.6 11.6 0 0 1-2.32-1.08 5.35 5.35 0 0 1-1.64-1.64q-.6-1.04-.6-2.6 0-1.4.56-2.48.6-1.08 1.68-1.84t2.6-1.12q1.56-.4 3.44-.4 2 0 3.48.44 1.52.44 2.52 1.24t1.48 1.84q.48 1 .48 2.16v.48q0 .2-.04.32h-3.44v-.44q0-.8-.44-1.52-.4-.76-1.44-1.2-1-.48-2.8-.48-1.16 0-2 .2-.84.16-1.4.56-.56.36-.84.88-.28.48-.28 1.12 0 1.04.68 1.6t1.8.92q1.16.36 2.48.8 1.4.4 2.84.84 1.48.4 2.68 1.04a5 5 0 0 1 1.96 1.76q.76 1.08.76 2.88 0 1.68-.64 2.92a5.4 5.4 0 0 1-1.84 2.04q-1.16.8-2.76 1.16-1.56.4-3.44.4m21.39-.48v-28.92h3.52V446zm14.264.48a9.9 9.9 0 0 1-2.32-.28 7 7 0 0 1-2.16-.92 4.65 4.65 0 0 1-1.6-1.76q-.6-1.16-.6-2.88 0-2.16 1.04-3.56t2.88-2.16q1.881-.8 4.44-1.08a45 45 0 0 1 5.56-.32v-2.4q0-1.16-.4-2-.399-.84-1.44-1.28-.999-.48-2.88-.48-1.8 0-2.88.48-1.04.44-1.48 1.16-.4.72-.4 1.6v.6h-3.4a2 2 0 0 1-.04-.4v-.48q0-1.92 1.04-3.2 1.08-1.32 3-1.96 1.92-.68 4.4-.68 2.64 0 4.4.76 1.8.76 2.68 2.16.92 1.4.92 3.36v11.4q0 .76.36 1.08.36.28.88.28h1.56v2.32q-.56.24-1.24.4-.68.2-1.56.2-1.04 0-1.72-.44-.68-.4-1.04-1.12a5.6 5.6 0 0 1-.48-1.68h-.28a7.3 7.3 0 0 1-1.84 1.76q-1.08.72-2.44 1.12t-2.96.4m.88-2.96a7.1 7.1 0 0 0 2.4-.4 6.6 6.6 0 0 0 2.04-1.12 5.75 5.75 0 0 0 1.4-1.8 5 5 0 0 0 .52-2.28v-1.76q-3.24 0-5.52.36t-3.52 1.28q-1.2.92-1.2 2.6 0 1.08.48 1.76t1.36 1.04q.88.32 2.04.32m22.997 2.96q-2.16 0-3.8-.44t-2.72-1.28a5.6 5.6 0 0 1-1.64-2q-.56-1.16-.56-2.64v-.36q0-.2.04-.32h3.48q-.04.16-.04.28v.24q.04 1.4.72 2.2.72.8 1.96 1.12t2.76.32q1.32 0 2.44-.32 1.12-.36 1.76-1.04.68-.72.68-1.8 0-1.32-.88-2-.84-.72-2.24-1.12t-2.92-.84a47 47 0 0 1-2.56-.8 11.6 11.6 0 0 1-2.32-1.08 5.35 5.35 0 0 1-1.64-1.64q-.6-1.04-.6-2.6 0-1.4.56-2.48.6-1.08 1.68-1.84t2.6-1.12q1.56-.4 3.44-.4 2 0 3.48.44 1.52.44 2.52 1.24t1.48 1.84q.48 1 .48 2.16v.48q0 .2-.04.32h-3.44v-.44q0-.8-.44-1.52-.4-.76-1.44-1.2-1-.48-2.8-.48-1.16 0-2 .2-.84.16-1.4.56-.56.36-.84.88-.28.48-.28 1.12 0 1.04.68 1.6t1.8.92q1.16.36 2.48.8 1.4.4 2.84.84 1.48.4 2.68 1.04a5 5 0 0 1 1.96 1.76q.76 1.08.76 2.88 0 1.68-.64 2.92a5.4 5.4 0 0 1-1.84 2.04q-1.16.8-2.76 1.16-1.56.4-3.44.4m17.951 0q-1.64 0-2.56-.6a3.6 3.6 0 0 1-1.32-1.64 6.1 6.1 0 0 1-.4-2.2v-14.12h-2.72v-2.96h2.8l.64-5.88h2.8v5.88h3.96v2.96h-3.96v13.6q0 1 .36 1.52.36.48 1.36.48h2.24v2.32q-.4.2-.96.32t-1.16.2q-.561.12-1.08.12M169.261 578h-26.52v-32.04l-32.76-50.52h30.48l15.84 27.48h.48l15.84-27.48h28.92l-32.28 50.52zm63.043-64.8q16.68 0 26.16 8.52 9.6 8.4 9.6 24.6t-9.6 24.72q-9.48 8.4-26.16 8.4t-26.16-8.4-9.48-24.72 9.48-24.72 26.16-8.4m0 16.2q-11.76 0-11.76 13.56v6.84q0 13.44 11.76 13.44 11.88 0 11.88-13.44v-6.84q0-13.56-11.88-13.56m93.239 48.6-1.56-9.6q-3.72 5.16-9.84 8.16-6 2.88-12.72 2.88-11.04 0-16.56-6.12t-5.52-17.64v-41.04h23.88v38.16q0 4.08 2.04 6.6 2.16 2.4 6 2.4 4.44 0 7.2-2.88t2.76-7.08v-37.2h23.88V578zm133.56 0-9.84-35.28h-.48l-9.96 35.28h-23.28l-23.16-63.36h25.68l9.6 37.44h.84l9.96-37.44h23.76l9.6 37.44h.84l9.72-37.44h23.28L482.383 578zm54.64-70.8V491h23.88v16.2zm0 70.8v-63.36h23.88V578zm39.961 0v-87h23.88v87zm39.961 0v-87h23.88v87zm117.602-64.92q2.76 0 4.92.72 2.16.6 2.16.72v20.04h-7.68q-7.44 0-10.8 3.84-3.24 3.84-3.24 11.4V578h-23.88v-63.36h19.56l1.56 9.6q2.16-5.52 6.84-8.28 4.68-2.88 10.56-2.88m49.435.12q17.4 0 26.52 8.16 9.24 8.16 9.24 24.96v4.08h-47.52q0 6.84 3 10.32 3.12 3.48 9.72 3.48 6 0 8.76-2.52 2.88-2.52 2.88-6.72h23.16q0 11.52-8.76 18t-25.56 6.48q-17.64 0-27.36-8.16-9.72-8.28-9.72-24.96 0-16.32 9.48-24.72t26.16-8.4m.96 15.24q-11.28 0-12.6 10.68h23.28q0-4.92-2.88-7.8-2.76-2.88-7.8-2.88m77.639-15.24q14.52 0 23.64 4.92 9.12 4.8 9.12 15.72v24.72q0 2.04.96 3.36t2.88 1.32h4.32v13.8q-.36.24-1.92.84-1.44.48-4.2.96-2.76.6-6.36.6-6.96 0-11.52-2.04-4.44-2.16-6.12-5.88-4.56 3.6-10.2 5.76t-13.2 2.16q-22.32 0-22.32-17.76 0-9.24 4.92-14.04 5.04-4.92 14.4-6.72t24.48-1.8V536q0-3.72-2.64-5.64-2.52-1.92-6.6-1.92-3.72 0-6.48 1.32-2.64 1.32-2.64 4.2v.48h-23.52q-.12-.6-.12-1.68 0-9 8.52-14.28 8.64-5.28 24.6-5.28m8.88 37.2q-10.2 0-15.12 2.28-4.8 2.16-4.8 5.88 0 6 8.16 6 4.68 0 8.16-2.52 3.6-2.52 3.6-6.24zM934.1 578l-2.04-9q-6.96 10.44-20.16 10.44-12.84 0-19.8-8.4t-6.96-24.84q0-16.32 6.96-24.6 6.96-8.4 19.8-8.4 10.92 0 17.76 7.32V491h23.88v87zm-14.76-47.16q-10.32 0-10.32 12.36v6.36q0 12.24 10.32 12.24 5.28 0 7.92-3.72t2.64-9.72v-3.96q0-6-2.64-9.72-2.64-3.84-7.92-3.84m-609.763 115.8v16.2h-13.44v24.12q0 4.32 1.44 6.36 1.44 1.92 5.28 1.92h6.72v14.04q-2.88.96-7.44 1.56t-7.92.6q-10.56 0-16.32-3.84-5.64-3.84-5.64-13.08v-31.68h-8.88v-16.2h9.84l5.16-19.2h17.76v19.2zm34.96 6.6q3.84-3.84 9-5.88 5.16-2.16 10.8-2.16 11.04 0 16.56 6.12t5.52 17.64V710h-23.88v-38.16q0-4.08-2.16-6.48-2.04-2.52-5.88-2.52-4.44 0-7.2 2.88t-2.76 7.08V710h-23.88v-87h23.88zm56.999-14.04V623h23.88v16.2zm0 70.8v-63.36h23.88V710zm69.241-64.8q12.72 0 21.48 5.04 8.88 4.92 8.88 15.36h-22.2q0-3.48-3.12-4.92-2.16-1.2-5.4-1.2-8.64 0-8.64 4.08 0 2.28 3 3.24t9.84 2.04q8.4 1.2 14.04 2.88 5.64 1.56 9.84 5.76 4.2 4.08 4.2 11.52 0 12.12-9.12 17.28-9 5.16-23.64 5.16-8.4 0-15.84-2.28-7.44-2.4-12.12-7.32t-4.68-12.48h22.2v.48q.12 4.08 3.36 5.76 3.36 1.56 7.08 1.56 9.96 0 9.96-4.68 0-2.4-3.12-3.48t-10.2-2.28q-8.52-1.44-14.04-3.12-5.4-1.68-9.48-5.64-4.08-4.08-4.08-11.28 0-11.64 8.76-16.56 8.88-4.92 23.04-4.92m108.28-23.64q2.4 0 5.88.72 3.48.6 5.64 1.44v14.04h-4.32q-3.84 0-5.16 1.44t-1.32 4.92v2.52h10.8v16.2h-10.8V710h-23.88v-47.16h-8.16v-16.2h8.16V644q0-12.24 6-17.28 6-5.16 17.16-5.16m16.56 17.64V623h23.88v16.2zm0 70.8v-63.36h23.88V710zm76.919-64.92q2.76 0 4.92.72 2.16.6 2.16.72v20.04h-7.68q-7.44 0-10.8 3.84-3.24 3.84-3.24 11.4V710h-23.88v-63.36h19.56l1.56 9.6q2.16-5.52 6.84-8.28 4.68-2.88 10.56-2.88m47.968.12q12.72 0 21.48 5.04 8.88 4.92 8.88 15.36h-22.2q0-3.48-3.12-4.92-2.16-1.2-5.4-1.2-8.64 0-8.64 4.08 0 2.28 3 3.24t9.84 2.04q8.4 1.2 14.04 2.88 5.64 1.56 9.84 5.76 4.2 4.08 4.2 11.52 0 12.12-9.12 17.28-9 5.16-23.64 5.16-8.4 0-15.84-2.28-7.44-2.4-12.12-7.32t-4.68-12.48h22.2v.48q.12 4.08 3.36 5.76 3.36 1.56 7.08 1.56 9.96 0 9.96-4.68 0-2.4-3.12-3.48t-10.2-2.28q-8.52-1.44-14.04-3.12-5.4-1.68-9.48-5.64-4.08-4.08-4.08-11.28 0-11.64 8.76-16.56 8.88-4.92 23.04-4.92m85.479 1.44v16.2h-13.44v24.12q0 4.32 1.44 6.36 1.44 1.92 5.28 1.92h6.72v14.04q-2.88.96-7.44 1.56t-7.92.6q-10.56 0-16.32-3.84-5.64-3.84-5.64-13.08v-31.68h-8.88v-16.2h9.84l5.16-19.2h17.76v19.2zM313.872 809v-28.944h-11.28v-3.984h27.216v3.984h-11.376V809zm20.229 0v-34.704h4.224v12.624h.336q.96-1.296 2.16-2.112t2.64-1.2q1.488-.432 3.216-.432 2.4 0 4.176.816 1.824.816 2.832 2.64 1.056 1.824 1.056 4.944V809h-4.224v-16.848q0-1.584-.432-2.592-.384-1.008-1.104-1.584-.672-.576-1.68-.816-.96-.24-2.16-.24a6.9 6.9 0 0 0-3.36.864q-1.584.816-2.544 2.448-.912 1.584-.912 3.936V809zm37.127.576q-3.744 0-6.336-1.392-2.544-1.44-3.888-4.368-1.296-2.928-1.296-7.44 0-4.56 1.296-7.44 1.344-2.928 3.936-4.32 2.592-1.44 6.48-1.44 3.552 0 5.952 1.392 2.4 1.344 3.6 4.08 1.248 2.688 1.248 6.768v2.016h-18.144q.096 3.024.864 4.992.816 1.92 2.4 2.832 1.584.864 3.984.864 1.632 0 2.832-.384 1.248-.432 2.064-1.2a4.9 4.9 0 0 0 1.296-1.824 6.7 6.7 0 0 0 .48-2.304h4.128q-.048 2.016-.768 3.744a7.8 7.8 0 0 1-2.112 2.88q-1.392 1.2-3.408 1.872t-4.608.672m-7.056-15.312h13.68q0-2.112-.48-3.552t-1.392-2.352a4.8 4.8 0 0 0-2.064-1.296q-1.152-.432-2.64-.432-2.208 0-3.744.816t-2.352 2.496-1.008 4.32M387.445 809v-25.248h3.408l.384 3.792h.336q1.008-1.536 2.256-2.496a8.7 8.7 0 0 1 2.832-1.392q1.584-.48 3.36-.48 2.4 0 4.176.816 1.824.816 2.832 2.64 1.056 1.824 1.056 4.944V809h-4.224v-16.848q0-1.584-.432-2.592-.384-1.008-1.104-1.584-.672-.576-1.68-.816-.96-.24-2.16-.24a6.9 6.9 0 0 0-3.36.864q-1.584.864-2.544 2.496-.912 1.632-.912 3.888V809zm39.238 8.736q-1.152 0-2.016-.192-.816-.144-1.104-.192v-3.072h2.112q1.152 0 2.256-.48t2.064-1.632 1.632-3.168l-9.792-25.248h4.416l5.04 13.008q.336.912.768 2.256.48 1.296.912 2.688.48 1.392.768 2.448h.288a39 39 0 0 1 .48-1.728q.288-.96.576-1.968l.624-1.968q.336-.96.528-1.68l4.272-13.056h4.272l-8.544 24.528a32 32 0 0 1-1.584 3.792q-.864 1.776-1.92 3.024a7.14 7.14 0 0 1-2.544 1.92q-1.488.72-3.504.72m32.161-8.16q-3.84 0-6.48-1.392-2.592-1.44-3.984-4.368-1.344-2.928-1.344-7.44 0-4.56 1.344-7.44 1.392-2.928 3.984-4.32 2.64-1.44 6.48-1.44t6.432 1.44q2.64 1.392 3.984 4.32 1.344 2.88 1.344 7.44 0 4.512-1.344 7.44t-3.984 4.368q-2.592 1.392-6.432 1.392m0-3.552q2.448 0 4.08-.96t2.448-2.976q.864-2.064.864-5.184v-1.056q0-3.168-.864-5.184-.816-2.016-2.448-2.976t-4.08-.96-4.128.96q-1.632.96-2.448 2.976t-.816 5.184v1.056q0 3.12.816 5.184.816 2.016 2.448 2.976 1.68.96 4.128.96m24.831 3.552q-3.648 0-5.856-1.872t-2.208-6.528v-17.424h4.224V800.6q0 1.584.384 2.592t1.104 1.584 1.68.816q1.008.24 2.16.24a6.74 6.74 0 0 0 3.36-.864q1.536-.864 2.496-2.496 1.008-1.68 1.008-3.888v-14.832h4.224V809h-3.408l-.384-3.792h-.336q-1.008 1.536-2.304 2.496a8.1 8.1 0 0 1-2.832 1.392q-1.536.48-3.312.48m34.008-.576-7.632-25.248h4.368l3.84 13.872q.288 1.008.528 2.208.288 1.152.528 2.16.288.96.384 1.488h.288l.432-2.064a35 35 0 0 0 .48-2.208q.24-1.056.384-1.632l3.456-13.824h4.56l3.504 13.824q.192.816.432 1.92l.48 2.112q.288 1.056.384 1.872h.288q.192-.768.432-1.776.24-1.056.528-2.112.288-1.104.528-1.92l3.792-13.92h4.032L536.115 809h-4.32l-3.264-13.056a78 78 0 0 0-.48-2.112l-.576-2.496q-.24-1.296-.432-2.256h-.288q-.096.72-.336 1.824a65 65 0 0 1-.48 2.448 39 39 0 0 1-.672 2.592L522.003 809zm29.84-30v-4.704h4.224V779zm0 30v-25.248h4.224V809zm10.781 0v-34.704h4.224V809zm10.781 0v-34.704h4.224V809zm20.813 0v-25.248h3.408l.384 4.176h.336q.384-1.2 1.056-2.256a5.1 5.1 0 0 1 1.824-1.776q1.152-.72 2.832-.72.72 0 1.296.144.624.096.912.24v3.888h-1.584q-1.632 0-2.832.576a5 5 0 0 0-1.92 1.536q-.768 1.008-1.152 2.4-.336 1.392-.336 2.976V809zm25.549.576q-3.744 0-6.336-1.392-2.544-1.44-3.888-4.368-1.296-2.928-1.296-7.44 0-4.56 1.296-7.44 1.344-2.928 3.936-4.32 2.592-1.44 6.48-1.44 3.552 0 5.952 1.392 2.4 1.344 3.6 4.08 1.248 2.688 1.248 6.768v2.016h-18.144q.096 3.024.864 4.992.816 1.92 2.4 2.832 1.584.864 3.984.864 1.632 0 2.832-.384 1.248-.432 2.064-1.2a4.9 4.9 0 0 0 1.296-1.824 6.7 6.7 0 0 0 .48-2.304h4.128q-.048 2.016-.768 3.744a7.8 7.8 0 0 1-2.112 2.88q-1.392 1.2-3.408 1.872t-4.608.672m-7.056-15.312h13.68q0-2.112-.48-3.552t-1.392-2.352a4.8 4.8 0 0 0-2.064-1.296q-1.152-.432-2.64-.432-2.208 0-3.744.816t-2.352 2.496-1.008 4.32M638 809.576q-1.392 0-2.784-.336a8.5 8.5 0 0 1-2.592-1.104q-1.2-.768-1.92-2.112-.72-1.392-.72-3.456 0-2.592 1.248-4.272t3.456-2.592q2.256-.96 5.328-1.296 3.072-.384 6.672-.384v-2.88q0-1.392-.48-2.4t-1.728-1.536q-1.2-.576-3.456-.576-2.16 0-3.456.576-1.248.528-1.776 1.392a3.9 3.9 0 0 0-.48 1.92v.72h-4.08a2.4 2.4 0 0 1-.048-.48v-.576q0-2.304 1.248-3.84 1.296-1.584 3.6-2.352 2.304-.816 5.28-.816 3.168 0 5.28.912 2.16.912 3.216 2.592 1.104 1.68 1.104 4.032v13.68q0 .912.432 1.296.432.336 1.056.336h1.872v2.784a9 9 0 0 1-1.488.48q-.816.24-1.872.24-1.248 0-2.064-.528a3.17 3.17 0 0 1-1.248-1.344 6.7 6.7 0 0 1-.576-2.016h-.336q-.864 1.2-2.208 2.112a10.7 10.7 0 0 1-2.928 1.344q-1.632.48-3.552.48m1.056-3.552a8.5 8.5 0 0 0 2.88-.48 7.9 7.9 0 0 0 2.448-1.344 6.9 6.9 0 0 0 1.68-2.16q.624-1.248.624-2.736v-2.112q-3.888 0-6.624.432t-4.224 1.536q-1.44 1.104-1.44 3.12 0 1.296.576 2.112t1.632 1.248q1.056.384 2.448.384m27.356 3.552q-3.12 0-5.376-1.392-2.208-1.392-3.456-4.32-1.2-2.976-1.2-7.68 0-4.464 1.248-7.344t3.456-4.272 5.136-1.392q1.68 0 3.12.384a7.5 7.5 0 0 1 2.544 1.2q1.152.816 2.016 2.16h.288v-12.624h4.224V809h-3.408l-.384-3.6h-.336q-1.296 2.112-3.36 3.168-2.064 1.008-4.512 1.008m1.008-3.696q2.4 0 3.888-1.056t2.16-3.072q.72-2.016.72-4.992v-.768q0-2.592-.528-4.368t-1.44-2.832-2.112-1.488a7.5 7.5 0 0 0-2.544-.432q-2.352 0-3.84.96-1.488.912-2.208 2.928-.72 1.968-.72 5.136v1.008q0 3.264.768 5.28.768 1.968 2.208 2.832 1.488.864 3.648.864m33.569 3.696q-1.968 0-3.072-.72a4.3 4.3 0 0 1-1.584-1.968 7.3 7.3 0 0 1-.48-2.64v-16.944h-3.264v-3.552h3.36l.768-7.056h3.36v7.056h4.752v3.552h-4.752v16.32q0 1.2.432 1.824.432.576 1.632.576h2.688v2.784q-.48.24-1.152.384t-1.392.24q-.672.144-1.296.144m8.346-.576v-34.704h4.224v12.624h.336q.96-1.296 2.16-2.112t2.64-1.2q1.488-.432 3.216-.432 2.4 0 4.176.816 1.824.816 2.832 2.64 1.056 1.824 1.056 4.944V809h-4.224v-16.848q0-1.584-.432-2.592-.384-1.008-1.104-1.584-.672-.576-1.68-.816-.96-.24-2.16-.24a6.9 6.9 0 0 0-3.36.864q-1.584.816-2.544 2.448-.912 1.584-.912 3.936V809zm27.047-30v-4.704h4.224V779zm0 30v-25.248h4.224V809zm19.614.576q-2.592 0-4.56-.528t-3.264-1.536-1.968-2.4-.672-3.168v-.432q0-.24.048-.384h4.176a1.4 1.4 0 0 0-.048.336v.288q.048 1.68.864 2.64.864.96 2.352 1.344t3.312.384q1.584 0 2.928-.384 1.344-.432 2.112-1.248.816-.864.816-2.16 0-1.584-1.056-2.4-1.008-.864-2.688-1.344t-3.504-1.008a57 57 0 0 1-3.072-.96 14 14 0 0 1-2.784-1.296 6.4 6.4 0 0 1-1.968-1.968q-.72-1.248-.72-3.12 0-1.68.672-2.976.72-1.296 2.016-2.208t3.12-1.344q1.872-.48 4.128-.48 2.4 0 4.176.528 1.824.528 3.024 1.488t1.776 2.208q.576 1.2.576 2.592v.576q0 .24-.048.384h-4.128v-.528q0-.96-.528-1.824-.48-.912-1.728-1.44-1.2-.576-3.36-.576-1.392 0-2.4.24-1.008.192-1.68.672-.672.432-1.008 1.056-.336.576-.336 1.344 0 1.248.816 1.92t2.16 1.104q1.392.432 2.976.96 1.68.48 3.408 1.008a15.3 15.3 0 0 1 3.216 1.248q1.488.768 2.352 2.112.912 1.296.912 3.456 0 2.016-.768 3.504a6.5 6.5 0 0 1-2.208 2.448q-1.392.96-3.312 1.392-1.872.48-4.128.48"/></svg>