<svg xmlns="http://www.w3.org/2000/svg" width="1080" height="1350" fill="none"><path fill="#000" d="M302.139 444.2q-.84 0-1.32-.52t-.48-1.28q0-.32.2-.8l10.2-24.08q.28-.64.84-1.12.6-.52 1.48-.52h.4q.92 0 1.48.52.561.48.84 1.12l10.2 24.08q.2.48.2.8 0 .76-.48 1.28t-1.32.52q-1.24 0-1.72-1.12l-2.6-6.24h-13.6l-2.6 6.24q-.48 1.12-1.72 1.12m5.72-10.68h10.8l-5.4-13zM332.909 444.2a1.74 1.74 0 0 1-1.28-.52 1.74 1.74 0 0 1-.52-1.28v-17.16q0-.801.52-1.32.52-.52 1.28-.52t1.28.52q.56.519.56 1.32v1.64a15.4 15.4 0 0 1 3-2.52q1.76-1.16 4.44-1.16 2.28 0 3.88 1.08 1.6 1.04 2.44 2.84.84 1.76.84 3.92v11.36q0 .76-.56 1.28-.52.52-1.28.52a1.74 1.74 0 0 1-1.28-.52 1.74 1.74 0 0 1-.52-1.28v-10.96q0-2.28-1.04-3.56-1-1.32-3.36-1.32-2.16 0-3.76 1.16t-2.8 2.68v12q0 .76-.56 1.28-.52.52-1.28.52M363.924 444.4q-2.4 0-4.64-1.24-2.2-1.24-3.64-3.6-1.4-2.361-1.4-5.76 0-3.4 1.4-5.76 1.44-2.361 3.64-3.6 2.24-1.24 4.64-1.24 2.12 0 3.8.8t3.04 2.24v-9.8q0-.801.52-1.32.56-.52 1.32-.52t1.28.52.52 1.32v25.96q0 .76-.52 1.28t-1.28.52-1.32-.52a1.74 1.74 0 0 1-.52-1.28v-1.04q-1.36 1.44-3.04 2.24t-3.8.8m.52-3.4q1.96 0 3.56-.84a10.6 10.6 0 0 0 2.76-2.16v-8.4a9.9 9.9 0 0 0-2.76-2.12q-1.6-.88-3.56-.88-2.84 0-4.72 1.84-1.84 1.8-1.84 5.36 0 3.52 1.84 5.36 1.88 1.84 4.72 1.84M395.669 453.4q-.72 0-1.24-.52-.48-.52-.48-1.24 0-.36.12-.64l2.6-6.68-7.52-18.32a3 3 0 0 0-.12-.36 2 2 0 0 1-.04-.4q0-.76.52-1.28.52-.56 1.28-.56.56 0 1 .32.48.32.68.8l6.16 15.28 6.28-15.2q.24-.56.64-.88.44-.32 1.04-.32.76 0 1.28.56.52.52.52 1.28 0 .36-.12.68l-10.92 26.24q-.24.52-.64.88t-1.04.36M421.32 444.4q-3.081 0-5.4-1.32a9.47 9.47 0 0 1-3.6-3.72q-1.24-2.4-1.24-5.56t1.24-5.52q1.28-2.4 3.6-3.72 2.319-1.36 5.4-1.36 3.08 0 5.36 1.36 2.319 1.32 3.6 3.72 1.28 2.36 1.28 5.52t-1.28 5.56a9.5 9.5 0 0 1-3.6 3.72q-2.28 1.32-5.36 1.32m0-3.32q1.52 0 3.04-.72t2.52-2.32q1.04-1.64 1.04-4.28t-1.04-4.24q-1-1.6-2.52-2.28-1.52-.72-3.04-.72t-3.08.72q-1.521.68-2.52 2.28t-1 4.24q0 2.64 1 4.28.999 1.6 2.52 2.32 1.56.72 3.08.72M443.616 444.4q-2.28 0-3.88-1.04a6.94 6.94 0 0 1-2.44-2.88q-.84-1.8-.84-3.92V425.2q0-.76.52-1.28.56-.52 1.32-.52t1.28.52.52 1.28v10.96q0 2.28 1.04 3.6 1.04 1.28 3.36 1.28 2.16 0 3.76-1.16 1.6-1.2 2.8-2.68v-12q0-.76.52-1.28.56-.52 1.32-.52t1.28.52.52 1.28v17.16q0 .759-.52 1.32-.52.52-1.28.52t-1.32-.52a1.88 1.88 0 0 1-.52-1.32v-1.64q-1.24 1.359-3 2.52-1.761 1.16-4.44 1.16M477.501 444.2q-.8 0-1.44-.48-.64-.52-.88-1.2l-5.68-16.64q-.12-.36-.12-.68 0-.76.52-1.28a1.74 1.74 0 0 1 1.28-.52q.56 0 1 .28.48.28.64.8l4.68 15.4 4.64-15.04q.201-.64.72-1.04.56-.4 1.24-.4t1.24.4.72 1.04l4.64 15.04 4.68-15.4a1.36 1.36 0 0 1 .64-.8q.48-.28 1-.28.76 0 1.28.52t.52 1.28q0 .32-.12.68l-5.68 16.64q-.24.68-.88 1.2-.639.48-1.44.48t-1.44-.48a3 3 0 0 1-.92-1.24l-4.24-13.24-4.24 13.24q-.28.72-.92 1.24-.639.48-1.44.48M504.821 419.44q-.84 0-1.44-.6t-.6-1.44v-.16q0-.84.6-1.44t1.44-.6h.24q.84 0 1.44.6t.6 1.44v.16q0 .84-.6 1.44t-1.44.6zm.08 24.76q-.76 0-1.28-.52a1.74 1.74 0 0 1-.52-1.28v-17.16q0-.801.52-1.32.52-.52 1.28-.52.8 0 1.32.52.52.519.52 1.32v17.16q0 .76-.52 1.28t-1.32.52M514.862 444.2q-.76 0-1.28-.52a1.74 1.74 0 0 1-.52-1.28v-25.96q0-.801.52-1.32.52-.52 1.28-.52.8 0 1.32.52.52.519.52 1.32v25.96q0 .76-.52 1.28t-1.32.52M524.823 444.2q-.76 0-1.28-.52a1.74 1.74 0 0 1-.52-1.28v-25.96q0-.801.52-1.32.52-.52 1.28-.52.8 0 1.32.52.52.519.52 1.32v25.96q0 .76-.52 1.28t-1.32.52M545.174 444.2q-.76 0-1.28-.52a1.74 1.74 0 0 1-.52-1.28v-17.16q0-.76.52-1.28.52-.56 1.28-.56t1.28.56q.56.52.56 1.28v1.72q1.08-1.44 2.64-2.6t3.64-1.16h.2q.76 0 1.24.52.52.52.52 1.28t-.52 1.24-1.32.48h-.2q-1.96 0-3.56 1a8.2 8.2 0 0 0-2.64 2.52v12.16q0 .76-.56 1.28a1.74 1.74 0 0 1-1.28.52M567.221 444.4q-4.88 0-7.64-2.76-2.72-2.8-2.72-7.84 0-2.72 1-5.12a8.95 8.95 0 0 1 3.12-3.96q2.12-1.52 5.44-1.52 3.08 0 5.2 1.44a8.9 8.9 0 0 1 3.2 3.68q1.12 2.28 1.12 4.96 0 .76-.52 1.28-.48.52-1.32.52h-13.56q.32 2.679 2.04 4.32 1.72 1.6 4.96 1.6 1.8 0 3.04-.32 1.24-.36 2.36-.92.32-.16.72-.16.64 0 1.12.44t.48 1.12q0 .48-.32.88-.28.36-.72.6-1.32.76-2.88 1.28-1.52.48-4.12.48m-6.68-12.28h11.8q-.12-2.08-1.08-3.36-.92-1.28-2.24-1.88t-2.6-.6-2.6.6-2.24 1.88-1.04 3.36M585.957 444.4a7.5 7.5 0 0 1-3.24-.72 6.16 6.16 0 0 1-2.4-2.04q-.88-1.36-.88-3.24 0-2.84 2.24-4.64 2.28-1.84 6.96-1.84h4.84v-.32q0-2.68-1.32-3.8-1.32-1.16-4.04-1.16-1.68 0-2.96.32-1.24.28-2.36.64-.32.08-.52.08-.6 0-1.04-.44a1.47 1.47 0 0 1-.44-1.08q0-1.08 1.04-1.52 1.4-.6 3.08-1 1.72-.44 3.84-.44 2.92 0 4.76 1.16t2.72 2.96.88 3.76v11.32q0 .76-.56 1.28a1.74 1.74 0 0 1-1.28.52q-.76 0-1.28-.52a1.74 1.74 0 0 1-.52-1.28v-1.04q-1.08 1.12-2.88 2.08t-4.64.96m1.36-3.2a7.1 7.1 0 0 0 3.52-.92q1.641-.92 2.64-2.08v-3.36h-4.36q-2.799 0-4.44.72-1.6.72-1.6 2.44 0 1.28.88 2.24.921.96 3.36.96M611.658 444.4q-2.4 0-4.64-1.24-2.2-1.24-3.64-3.6-1.4-2.361-1.4-5.76 0-3.4 1.4-5.76 1.44-2.361 3.64-3.6 2.24-1.24 4.64-1.24 2.12 0 3.8.8t3.04 2.24v-9.8q0-.801.52-1.32.561-.52 1.32-.52.76 0 1.28.52.52.519.52 1.32v25.96q0 .76-.52 1.28t-1.28.52q-.759 0-1.32-.52a1.74 1.74 0 0 1-.52-1.28v-1.04a10.2 10.2 0 0 1-3.04 2.24q-1.68.8-3.8.8m.52-3.4q1.96 0 3.56-.84a10.6 10.6 0 0 0 2.76-2.16v-8.4a9.9 9.9 0 0 0-2.76-2.12q-1.6-.88-3.56-.88-2.84 0-4.72 1.84-1.84 1.8-1.84 5.36 0 3.52 1.84 5.36 1.88 1.84 4.72 1.84M645.883 444.4q-.72 0-1.72-.16-.96-.12-1.92-.6-.92-.52-1.56-1.6t-.64-2.92v-12.4h-2.84q-.76 0-.76-.76 0-.4.36-.68l5.44-5.32a2 2 0 0 1 .24-.2.7.7 0 0 1 .44-.16q.32 0 .52.24.24.24.24.56v3.2h4.52q.68 0 1.12.44t.44 1.12q0 .64-.44 1.12-.44.44-1.12.44h-4.52v12.08q0 1.16.44 1.68t1.04.64q.64.08 1.12.08.96 0 1.4-.16.48-.2 1-.2.56 0 1 .4t.44 1.04q0 .92-.92 1.4-.72.32-1.56.52-.8.2-1.76.2M655.917 444.2a1.74 1.74 0 0 1-1.28-.52 1.74 1.74 0 0 1-.52-1.28v-25.96q0-.801.52-1.32.52-.52 1.28-.52t1.28.52q.56.519.56 1.32v10.44a15.4 15.4 0 0 1 3-2.52q1.76-1.16 4.44-1.16 2.28 0 3.88 1.08 1.6 1.04 2.44 2.84.84 1.76.84 3.92v11.36q0 .76-.56 1.28-.52.52-1.28.52a1.74 1.74 0 0 1-1.28-.52 1.74 1.74 0 0 1-.52-1.28v-10.96q0-2.28-1.04-3.56-1-1.32-3.36-1.32-2.16 0-3.76 1.16t-2.8 2.68v12q0 .76-.56 1.28-.52.52-1.28.52M680.212 419.44q-.84 0-1.44-.6t-.6-1.44v-.16q0-.84.6-1.44t1.44-.6h.24q.84 0 1.44.6t.6 1.44v.16q0 .84-.6 1.44t-1.44.6zm.08 24.76a1.74 1.74 0 0 1-1.28-.52 1.74 1.74 0 0 1-.52-1.28v-17.16q0-.801.52-1.32.52-.52 1.28-.52.8 0 1.32.52.52.519.52 1.32v17.16q0 .76-.52 1.28t-1.32.52M695.053 444.4q-2.2 0-4-.48a14.8 14.8 0 0 1-3.28-1.32q-.68-.48-.68-1.32 0-.6.44-1.08a1.4 1.4 0 0 1 1.12-.52q.36 0 .72.16 1.08.48 2.36.84 1.32.36 3.08.36 2.319 0 3.36-.72 1.08-.76 1.08-2.12 0-.88-.88-1.36-.84-.48-2.24-.8-1.36-.36-2.88-.72a18 18 0 0 1-2.92-1.04q-1.36-.681-2.24-1.8-.84-1.16-.84-2.96 0-2.72 1.96-4.52t5.84-1.8q1.64 0 3.08.28 1.48.279 2.72.72.56.16.84.64.32.44.32.88 0 .64-.48 1.12-.44.48-1.12.48h-.28l-.24-.08a14.4 14.4 0 0 0-2.12-.52q-1.12-.2-2.44-.2-2.2 0-3.4.8t-1.2 2q0 1.04.84 1.6.88.56 2.24.92 1.4.32 2.92.68 1.56.36 2.92 1.04 1.4.639 2.24 1.8.88 1.16.88 3.12 0 2.439-1.96 4.2-1.92 1.72-5.76 1.72M719.862 444.2q-.76 0-1.28-.52a1.74 1.74 0 0 1-.52-1.28v-25.96q0-.801.52-1.32.52-.52 1.28-.52.8 0 1.32.52.52.519.52 1.32v25.96q0 .76-.52 1.28t-1.32.52M733.223 444.4a7.5 7.5 0 0 1-3.24-.72 6.15 6.15 0 0 1-2.4-2.04q-.88-1.36-.88-3.24 0-2.84 2.24-4.64 2.28-1.84 6.96-1.84h4.84v-.32q0-2.68-1.32-3.8-1.32-1.16-4.04-1.16-1.68 0-2.96.32-1.24.28-2.36.64-.32.08-.52.08-.6 0-1.04-.44a1.47 1.47 0 0 1-.44-1.08q0-1.08 1.04-1.52 1.4-.6 3.08-1 1.72-.44 3.84-.44 2.92 0 4.76 1.16t2.72 2.96.88 3.76v11.32q0 .76-.56 1.28-.52.52-1.28.52t-1.28-.52a1.74 1.74 0 0 1-.52-1.28v-1.04q-1.08 1.12-2.88 2.08t-4.64.96m1.36-3.2a7.1 7.1 0 0 0 3.52-.92q1.64-.92 2.64-2.08v-3.36h-4.36q-2.8 0-4.44.72-1.6.72-1.6 2.44 0 1.28.88 2.24.92.96 3.36.96M757.084 444.4q-2.2 0-4-.48a14.8 14.8 0 0 1-3.28-1.32q-.68-.48-.68-1.32 0-.6.44-1.08.44-.52 1.12-.52.36 0 .72.16 1.08.48 2.36.84 1.32.36 3.08.36 2.319 0 3.36-.72 1.08-.76 1.08-2.12 0-.88-.88-1.36-.84-.48-2.24-.8-1.36-.36-2.88-.72a18 18 0 0 1-2.92-1.04 6.5 6.5 0 0 1-2.24-1.8q-.84-1.16-.84-2.96 0-2.72 1.96-4.52t5.84-1.8q1.64 0 3.08.28 1.48.279 2.72.72.56.16.84.64.32.44.32.88 0 .64-.48 1.12-.44.48-1.12.48h-.28l-.24-.08a14.4 14.4 0 0 0-2.12-.52q-1.12-.2-2.44-.2-2.2 0-3.4.8t-1.2 2q0 1.04.84 1.6.88.56 2.24.92 1.4.32 2.92.68 1.56.36 2.92 1.04 1.4.639 2.24 1.8.88 1.16.88 3.12 0 2.439-1.96 4.2-1.92 1.72-5.76 1.72M776.586 444.4q-.72 0-1.72-.16-.96-.12-1.92-.6-.92-.52-1.56-1.6t-.64-2.92v-12.4h-2.84q-.76 0-.76-.76 0-.4.36-.68l5.44-5.32a2.4 2.4 0 0 1 .24-.2.7.7 0 0 1 .44-.16q.32 0 .52.24.24.24.24.56v3.2h4.52q.68 0 1.12.44t.44 1.12q0 .64-.44 1.12-.44.44-1.12.44h-4.52v12.08q0 1.16.44 1.68t1.04.64q.64.08 1.12.08.96 0 1.4-.16.48-.2 1-.2.56 0 1 .4t.44 1.04q0 .92-.92 1.4-.72.32-1.56.52-.8.2-1.76.2M300.399 806.235a2.05 2.05 0 0 1-1.504-.611 2.05 2.05 0 0 1-.611-1.504v-26.931h-9.588q-.846 0-1.41-.564t-.564-1.41.564-1.41a1.84 1.84 0 0 1 1.41-.611h23.406q.846 0 1.41.611.61.564.611 1.41a1.84 1.84 0 0 1-.611 1.41q-.564.564-1.41.564h-9.541v26.931q0 .892-.658 1.504a2.05 2.05 0 0 1-1.504.611M320.774 806.235a2.05 2.05 0 0 1-1.504-.611 2.05 2.05 0 0 1-.611-1.504v-30.503q0-.94.611-1.551t1.504-.611 1.504.611q.658.61.658 1.551v12.267a18.2 18.2 0 0 1 3.525-2.961q2.069-1.363 5.217-1.363 2.68 0 4.559 1.269 1.88 1.221 2.867 3.337.987 2.068.987 4.606v13.348q0 .892-.658 1.504a2.05 2.05 0 0 1-1.504.611 2.05 2.05 0 0 1-1.504-.611 2.05 2.05 0 0 1-.611-1.504v-12.878q0-2.68-1.222-4.183-1.174-1.551-3.948-1.551-2.538 0-4.418 1.363a16.5 16.5 0 0 0-3.29 3.149v14.1q0 .892-.658 1.504a2.05 2.05 0 0 1-1.504.611M358.486 806.47q-5.734 0-8.977-3.243-3.196-3.29-3.196-9.212 0-3.196 1.175-6.016 1.175-2.868 3.666-4.653 2.49-1.786 6.392-1.786 3.618 0 6.11 1.692a10.46 10.46 0 0 1 3.76 4.324q1.316 2.678 1.316 5.828 0 .892-.611 1.504-.564.61-1.551.611h-15.933q.375 3.149 2.397 5.076 2.02 1.88 5.828 1.88 2.115 0 3.572-.376a16.5 16.5 0 0 0 2.773-1.081q.375-.188.846-.188.752 0 1.316.517.564.516.564 1.316 0 .564-.376 1.034-.33.423-.846.705a18.5 18.5 0 0 1-3.384 1.504q-1.787.564-4.841.564m-7.849-14.429h13.865q-.141-2.445-1.269-3.948-1.081-1.504-2.632-2.209t-3.055-.705-3.055.705-2.632 2.209-1.222 3.948M376.976 806.235a2.04 2.04 0 0 1-1.504-.611 2.04 2.04 0 0 1-.611-1.504v-20.163q0-.94.611-1.551.61-.612 1.504-.611.892 0 1.504.611.658.61.658 1.551v1.927a18.1 18.1 0 0 1 3.525-2.961q2.067-1.363 5.217-1.363 2.678 0 4.559 1.269 1.88 1.221 2.867 3.337.987 2.068.987 4.606v13.348q0 .892-.658 1.504a2.05 2.05 0 0 1-1.504.611 2.04 2.04 0 0 1-1.504-.611 2.04 2.04 0 0 1-.611-1.504v-12.878q0-2.68-1.222-4.183-1.176-1.551-3.948-1.551-2.538 0-4.418 1.363a16.5 16.5 0 0 0-3.29 3.149v14.1q0 .892-.658 1.504a2.05 2.05 0 0 1-1.504.611M422.008 817.045a2 2 0 0 1-1.457-.611 2.08 2.08 0 0 1-.564-1.457q0-.423.141-.752l3.055-7.849-8.836-21.526a3 3 0 0 0-.141-.423 2.4 2.4 0 0 1-.047-.47q0-.894.611-1.504a1.97 1.97 0 0 1 1.504-.658q.659 0 1.175.376.564.375.799.94l7.238 17.954 7.379-17.86q.282-.659.752-1.034.517-.376 1.222-.376a1.97 1.97 0 0 1 1.504.658q.612.61.611 1.504 0 .423-.141.799l-12.831 30.832a3.1 3.1 0 0 1-.752 1.034q-.47.423-1.222.423M452.618 806.47q-3.618 0-6.345-1.551a11.14 11.14 0 0 1-4.23-4.371q-1.457-2.82-1.457-6.533t1.457-6.486q1.504-2.82 4.23-4.371 2.727-1.598 6.345-1.598 3.62 0 6.298 1.598 2.727 1.551 4.23 4.371 1.504 2.772 1.504 6.486t-1.504 6.533a11.1 11.1 0 0 1-4.23 4.371q-2.679 1.551-6.298 1.551m0-3.901q1.787 0 3.572-.846t2.961-2.726q1.222-1.927 1.222-5.029t-1.222-4.982q-1.175-1.881-2.961-2.679-1.785-.846-3.572-.846-1.785 0-3.619.846-1.785.798-2.961 2.679t-1.175 4.982 1.175 5.029q1.176 1.88 2.961 2.726 1.833.846 3.619.846M479.286 806.47q-2.68 0-4.559-1.222-1.88-1.269-2.867-3.384t-.987-4.606V783.91q0-.894.611-1.504a2.2 2.2 0 0 1 1.551-.611q.893 0 1.504.611.61.61.611 1.504v12.878q0 2.679 1.222 4.23 1.223 1.504 3.948 1.504 2.538 0 4.418-1.363 1.88-1.41 3.29-3.149v-14.1q0-.894.611-1.504a2.2 2.2 0 0 1 1.551-.611q.893 0 1.504.611.61.61.611 1.504v20.163q0 .893-.611 1.551a2.05 2.05 0 0 1-1.504.611 2.2 2.2 0 0 1-1.551-.611 2.2 2.2 0 0 1-.611-1.551v-1.927q-1.457 1.598-3.525 2.961-2.069 1.362-5.217 1.363M520.042 806.235a2.75 2.75 0 0 1-1.692-.564q-.752-.612-1.034-1.41l-6.674-19.552a2.5 2.5 0 0 1-.141-.799q0-.894.611-1.504.61-.612 1.504-.611.657 0 1.175.329a1.6 1.6 0 0 1 .752.94l5.499 18.095 5.452-17.672q.234-.753.846-1.222.657-.47 1.457-.47.798 0 1.457.47.657.47.846 1.222l5.452 17.672 5.499-18.095q.188-.612.752-.94.563-.33 1.175-.329.892 0 1.504.611.61.61.611 1.504 0 .376-.141.799l-6.674 19.552q-.282.798-1.034 1.41a2.75 2.75 0 0 1-1.692.564 2.75 2.75 0 0 1-1.692-.564 3.5 3.5 0 0 1-1.081-1.457l-4.982-15.557-4.982 15.557a3.5 3.5 0 0 1-1.081 1.457 2.75 2.75 0 0 1-1.692.564M552.612 777.142a2.3 2.3 0 0 1-1.692-.705 2.3 2.3 0 0 1-.705-1.692v-.188q0-.987.705-1.692a2.3 2.3 0 0 1 1.692-.705h.282q.987 0 1.692.705t.705 1.692v.188q0 .987-.705 1.692t-1.692.705zm.094 29.093a2.05 2.05 0 0 1-1.504-.611 2.05 2.05 0 0 1-.611-1.504v-20.163q0-.94.611-1.551a2.04 2.04 0 0 1 1.504-.611q.94 0 1.551.611.611.61.611 1.551v20.163q0 .892-.611 1.504-.61.61-1.551.611M564.88 806.235a2.05 2.05 0 0 1-1.504-.611 2.05 2.05 0 0 1-.611-1.504v-30.503q0-.94.611-1.551a2.04 2.04 0 0 1 1.504-.611q.94 0 1.551.611.612.61.611 1.551v30.503q0 .892-.611 1.504-.61.61-1.551.611M577.054 806.235a2.05 2.05 0 0 1-1.504-.611 2.05 2.05 0 0 1-.611-1.504v-30.503q0-.94.611-1.551a2.04 2.04 0 0 1 1.504-.611q.94 0 1.551.611.612.61.611 1.551v30.503q0 .892-.611 1.504-.61.61-1.551.611M601.908 806.235a2.04 2.04 0 0 1-1.504-.611 2.04 2.04 0 0 1-.611-1.504v-20.163q0-.894.611-1.504a1.97 1.97 0 0 1 1.504-.658q.892 0 1.504.658.658.61.658 1.504v2.021a15.1 15.1 0 0 1 3.102-3.055q1.832-1.363 4.277-1.363h.235q.893 0 1.457.611.61.61.611 1.504 0 .893-.611 1.457-.612.564-1.551.564h-.235q-2.304 0-4.183 1.175a9.64 9.64 0 0 0-3.102 2.961v14.288q0 .892-.658 1.504a2.05 2.05 0 0 1-1.504.611M628.282 806.47q-5.734 0-8.977-3.243-3.196-3.29-3.196-9.212 0-3.196 1.175-6.016 1.176-2.868 3.666-4.653 2.492-1.786 6.392-1.786 3.62 0 6.11 1.692a10.45 10.45 0 0 1 3.76 4.324q1.317 2.678 1.316 5.828 0 .892-.611 1.504-.564.61-1.551.611h-15.933q.376 3.149 2.397 5.076 2.022 1.88 5.828 1.88 2.115 0 3.572-.376a16.5 16.5 0 0 0 2.773-1.081q.376-.188.846-.188.752 0 1.316.517.564.516.564 1.316 0 .564-.376 1.034a2.7 2.7 0 0 1-.846.705 18.5 18.5 0 0 1-3.384 1.504q-1.785.564-4.841.564m-7.849-14.429h13.865q-.141-2.445-1.269-3.948-1.08-1.504-2.632-2.209-1.55-.705-3.055-.705-1.503 0-3.055.705-1.55.705-2.632 2.209-1.08 1.503-1.222 3.948M650.767 806.47a8.8 8.8 0 0 1-3.807-.846 7.24 7.24 0 0 1-2.82-2.397q-1.034-1.599-1.034-3.807 0-3.337 2.632-5.452 2.679-2.163 8.178-2.162h5.687v-.376q0-3.15-1.551-4.465-1.55-1.363-4.747-1.363-1.974 0-3.478.376-1.456.329-2.773.752a2.7 2.7 0 0 1-.611.094q-.705 0-1.222-.517a1.73 1.73 0 0 1-.517-1.269q0-1.27 1.222-1.786a22 22 0 0 1 3.619-1.175q2.022-.517 4.512-.517 3.432 0 5.593 1.363 2.163 1.362 3.196 3.478a9.9 9.9 0 0 1 1.034 4.418v13.301q0 .892-.658 1.504a2.04 2.04 0 0 1-1.504.611 2.05 2.05 0 0 1-1.504-.611 2.05 2.05 0 0 1-.611-1.504v-1.222q-1.269 1.316-3.384 2.444t-5.452 1.128m1.598-3.76a8.3 8.3 0 0 0 4.136-1.081q1.928-1.082 3.102-2.444v-3.948h-5.123q-3.29 0-5.217.846-1.88.846-1.88 2.867 0 1.504 1.034 2.632 1.082 1.128 3.948 1.128M681.436 806.47q-2.82 0-5.452-1.457-2.585-1.458-4.277-4.23-1.645-2.774-1.645-6.768 0-3.996 1.645-6.768 1.692-2.774 4.277-4.23 2.632-1.457 5.452-1.457 2.491 0 4.465.94t3.572 2.632v-11.515q0-.94.611-1.551a2.2 2.2 0 0 1 1.551-.611q.893 0 1.504.611.61.61.611 1.551v30.503q0 .892-.611 1.504a2.05 2.05 0 0 1-1.504.611 2.2 2.2 0 0 1-1.551-.611 2.05 2.05 0 0 1-.611-1.504v-1.222q-1.598 1.692-3.572 2.632t-4.465.94m.611-3.995q2.303 0 4.183-.987a12.4 12.4 0 0 0 3.243-2.538v-9.87a11.6 11.6 0 0 0-3.243-2.491q-1.88-1.035-4.183-1.034-3.337 0-5.546 2.162-2.162 2.115-2.162 6.298 0 4.135 2.162 6.298 2.209 2.162 5.546 2.162M722.59 806.47q-.845 0-2.021-.188a7 7 0 0 1-2.256-.705q-1.08-.611-1.833-1.88-.752-1.27-.752-3.431v-14.57h-3.337q-.893 0-.893-.893 0-.47.423-.799l6.392-6.251q.094-.094.282-.235a.8.8 0 0 1 .517-.188q.377 0 .611.282a.9.9 0 0 1 .282.658v3.76h5.311q.8 0 1.316.517.517.516.517 1.316 0 .752-.517 1.316-.516.517-1.316.517h-5.311v14.194q0 1.362.517 1.974.517.61 1.222.752.752.094 1.316.094 1.129 0 1.645-.188a3 3 0 0 1 1.175-.235q.659 0 1.175.47.517.47.517 1.222 0 1.08-1.081 1.645-.846.375-1.833.611a8.6 8.6 0 0 1-2.068.235M734.85 806.235a2.04 2.04 0 0 1-1.504-.611 2.04 2.04 0 0 1-.611-1.504v-30.503q0-.94.611-1.551.61-.611 1.504-.611.892 0 1.504.611.658.61.658 1.551v12.267a18.1 18.1 0 0 1 3.525-2.961q2.067-1.363 5.217-1.363 2.678 0 4.559 1.269 1.88 1.221 2.867 3.337.987 2.068.987 4.606v13.348q0 .892-.658 1.504a2.05 2.05 0 0 1-1.504.611 2.04 2.04 0 0 1-1.504-.611 2.04 2.04 0 0 1-.611-1.504v-12.878q0-2.68-1.222-4.183-1.176-1.551-3.948-1.551-2.538 0-4.418 1.363a16.5 16.5 0 0 0-3.29 3.149v14.1q0 .892-.658 1.504a2.05 2.05 0 0 1-1.504.611M763.866 777.142a2.3 2.3 0 0 1-1.692-.705 2.3 2.3 0 0 1-.705-1.692v-.188q0-.987.705-1.692a2.3 2.3 0 0 1 1.692-.705h.282q.987 0 1.692.705t.705 1.692v.188q0 .987-.705 1.692t-1.692.705zm.094 29.093a2.05 2.05 0 0 1-1.504-.611 2.05 2.05 0 0 1-.611-1.504v-20.163q0-.94.611-1.551a2.04 2.04 0 0 1 1.504-.611q.94 0 1.551.611.612.61.611 1.551v20.163q0 .892-.611 1.504-.61.61-1.551.611M781.774 806.47q-2.585 0-4.7-.564a17.4 17.4 0 0 1-3.854-1.551q-.799-.564-.799-1.551 0-.705.517-1.269a1.65 1.65 0 0 1 1.316-.611q.423 0 .846.188a20.5 20.5 0 0 0 2.773.987q1.551.423 3.619.423 2.727 0 3.948-.846 1.269-.894 1.269-2.491 0-1.034-1.034-1.598-.987-.565-2.632-.94a133 133 0 0 0-3.384-.846 21.4 21.4 0 0 1-3.431-1.222q-1.597-.8-2.632-2.115-.987-1.363-.987-3.478 0-3.196 2.303-5.311t6.862-2.115q1.927 0 3.619.329 1.74.328 3.196.846.659.188.987.752.376.516.376 1.034 0 .752-.564 1.316-.516.564-1.316.564h-.329l-.282-.094a17 17 0 0 0-2.491-.611 16.3 16.3 0 0 0-2.867-.235q-2.585 0-3.995.94t-1.41 2.35q0 1.221.987 1.88 1.035.658 2.632 1.081a411 411 0 0 1 3.431.799q1.833.423 3.431 1.222 1.645.752 2.632 2.115 1.034 1.362 1.034 3.666 0 2.866-2.303 4.935-2.256 2.02-6.768 2.021M123.534 580h-19.44q-2.28 0-3.36-.96-.96-1.08-.96-3.36v-15.36l-18.36-24.6q-2.76-3.72-3.72-6.48-.84-2.76-.84-8.28v-23.04q0-2.28.96-3.24 1.08-1.08 3.36-1.08h18.48q2.28 0 3.24 1.08 1.08.96 1.08 3.24v19.68q0 1.2.12 2.52t.96 2.52l5.52 8.64q.6 1.08 1.2 1.56.72.48 1.68.48h1.2q.96 0 1.56-.48.72-.48 1.32-1.56l5.52-8.64q.84-1.2.96-2.52t.12-2.52v-19.68q0-2.28.96-3.24 1.08-1.08 3.36-1.08h17.88q2.28 0 3.24 1.08 1.08.96 1.08 3.24v23.04q0 5.52-.96 8.28t-3.6 6.48l-18.24 24.72v15.24q0 2.28-1.08 3.36-.96.96-3.24.96M232.743 557.32q0 5.52-1.68 10.08-1.56 4.44-5.76 7.68-4.08 3.12-11.4 4.92-7.2 1.8-18.36 1.8t-18.48-1.8-11.52-4.92q-4.08-3.24-5.76-7.68-1.56-4.56-1.56-10.08V516.4q0-5.52 1.56-9.96 1.68-4.56 5.76-7.8 4.2-3.24 11.52-5.04t18.48-1.8 18.36 1.8q7.32 1.8 11.4 5.04 4.2 3.24 5.76 7.8 1.68 4.44 1.68 9.96zm-47.28-4.32q0 2.4 1.8 4.08 1.8 1.56 8.28 1.56t8.28-1.56q1.8-1.68 1.8-4.08v-32.28q0-2.28-1.8-3.84-1.8-1.68-8.28-1.68t-8.28 1.68q-1.8 1.56-1.8 3.84zM316.779 557.32q0 5.52-1.68 10.08-1.56 4.44-5.76 7.68-4.08 3.12-11.28 4.92t-18.36 1.8-18.36-1.8-11.4-4.92q-4.08-3.24-5.76-7.68-1.56-4.56-1.56-10.08v-59.4q0-2.28.96-3.24 1.08-1.08 3.36-1.08h18.84q2.28 0 3.24 1.08 1.08.96 1.08 3.24v54.72q0 2.4 1.8 4.08 1.8 1.56 8.04 1.56 6.36 0 8.16-1.56 1.8-1.68 1.8-4.08v-54.72q0-2.28.96-3.24 1.08-1.08 3.36-1.08h18.24q2.28 0 3.24 1.08 1.08.96 1.08 3.24zM412.144 493.6h17.88q2.28 0 3.24 1.08 1.08.96 1.08 3.24v46.56q0 3.84-.36 7.2-.24 3.24-1.8 7.68l-6 16.32q-.6 1.8-1.8 3.12-1.08 1.2-3 1.2h-15.96q-1.92 0-3.48-.84t-2.04-2.76l-5.52-19.56q-.36-1.2-.96-1.56-.48-.48-1.2-.48h-1.08q-.72 0-1.32.48-.48.36-.84 1.56l-5.64 19.56q-.48 1.8-1.8 2.76-1.32.84-3.24.84h-15.84q-1.92 0-3.36-1.2-1.32-1.2-1.92-3.12l-6-16.56q-1.56-4.44-1.92-7.68-.24-3.36-.24-7.2v-46.32q0-2.28.96-3.24 1.08-1.08 3.36-1.08h18.48q2.28 0 3.24 1.08 1.08.96 1.08 3.24v44.16l6.96-15.12q.96-2.04 2.52-2.88t3.84-.84h5.04q2.28 0 3.84.84t2.52 2.88l6.96 15.12v-44.16q0-2.28.96-3.24 1.08-1.08 3.36-1.08M447.43 580q-2.28 0-3.36-.96-.96-1.08-.96-3.36V561.4q0-2.28.96-3.24 1.08-1.08 3.36-1.08h11.88v-40.32h-11.88q-2.28 0-3.36-.96-.96-1.08-.96-3.36v-14.52q0-2.28.96-3.24 1.08-1.08 3.36-1.08h51.12q2.28 0 3.24 1.08 1.08.96 1.08 3.24v14.52q0 2.28-1.08 3.36-.96.96-3.24.96h-11.64v40.32h11.64q2.28 0 3.24 1.08 1.08.96 1.08 3.24v14.28q0 2.28-1.08 3.36-.96.96-3.24.96zM578.287 580h-61.08q-2.28 0-3.36-.96-.96-1.08-.96-3.36v-77.76q0-2.28.96-3.24 1.08-1.08 3.36-1.08h18.6q2.28 0 3.24 1.08 1.08.96 1.08 3.24v59.4h16.44v-19.44q0-2.28.96-3.24 1.08-1.08 3.36-1.08h17.4q2.28 0 3.24 1.08 1.08.96 1.08 3.24v37.8q0 2.28-1.08 3.36-.96.96-3.24.96M656.924 580h-61.08q-2.28 0-3.36-.96-.96-1.08-.96-3.36v-77.76q0-2.28.96-3.24 1.08-1.08 3.36-1.08h18.6q2.28 0 3.24 1.08 1.08.96 1.08 3.24v59.4h16.44v-19.44q0-2.28.96-3.24 1.08-1.08 3.36-1.08h17.4q2.28 0 3.24 1.08 1.08.96 1.08 3.24v37.8q0 2.28-1.08 3.36-.96.96-3.24.96M718.263 515.2v15.36h9q3.12 0 4.2-1.56 1.08-1.68 1.08-4.08v-4.08q0-2.4-1.08-3.96-1.08-1.68-4.2-1.68zm-4.32 64.8h-18.48q-2.28 0-3.36-.96-.96-1.08-.96-3.36v-77.76q0-2.28.96-3.24 1.08-1.08 3.36-1.08h39.96q13.44 0 18.48 5.64 5.16 5.52 5.16 14.4v5.52q0 5.04-1.56 8.64-1.44 3.48-5.16 5.04 6.48.72 10.44 5.28 4.08 4.56 4.08 12.12v25.44q0 2.28-1.08 3.36-.96.96-3.24.96h-18.6q-2.28 0-3.36-.96-.96-1.08-.96-3.36v-18.36q0-2.64-1.08-3.84-.96-1.32-3.48-1.32h-16.8v23.52q0 2.28-1.08 3.36-.96.96-3.24.96M835.523 580h-55.68q-2.28 0-3.36-.96-.96-1.08-.96-3.36v-77.76q0-2.28.96-3.24 1.08-1.08 3.36-1.08h55.68q2.28 0 3.24 1.08 1.08.96 1.08 3.24v14.04q0 2.28-1.08 3.36-.96.96-3.24.96h-33.12v9.24h23.4q2.28 0 3.24 1.08 1.08.96 1.08 3.24v12.84q0 2.28-1.08 3.36-.96.96-3.24.96h-23.4v10.32h33.12q2.28 0 3.24 1.08 1.08.96 1.08 3.24v14.04q0 2.28-1.08 3.36-.96.96-3.24.96M880.558 518.8l-5.64 18.24h18.84l-5.64-18.24q-.48-1.08-1.08-1.56-.48-.48-1.2-.48h-3q-.72 0-1.32.48-.48.48-.96 1.56m-6.84 56.88q0 2.28-1.08 3.36-.96.96-3.24.96h-17.64q-2.28 0-3.36-.96-.96-1.08-.96-3.36V544q0-3.6 1.08-8.28 1.2-4.68 3.6-10.92l10.44-27.24q.72-2.04 2.16-3 1.56-.96 3.96-.96h32.28q2.28 0 3.72.96 1.56.96 2.28 3l10.44 27.24q2.4 6.24 3.48 10.92 1.2 4.68 1.2 8.28v31.68q0 2.28-1.08 3.36-.96.96-3.24.96h-18.12q-2.4 0-3.6-.96-1.08-1.08-1.08-3.36v-16.8h-21.24zM976.854 580h-40.44q-2.28 0-3.359-.96-.96-1.08-.961-3.36v-77.76q0-2.28.961-3.24 1.08-1.08 3.359-1.08h40.44q15 0 22.201 6 7.314 6 7.315 18.48v37.44q-.001 12.48-7.315 18.48-7.2 6-22.201 6m-17.52-63.48v40.8h14.281q2.88 0 4.199-1.44 1.44-1.44 1.44-4.44v-29.16q0-3-1.44-4.32-1.32-1.44-4.199-1.44zM241.129 712h-19.44q-2.28 0-3.36-.96-.96-1.08-.96-3.36v-58.92h-17.64q-2.28 0-3.36-.96-.96-1.08-.96-3.36v-14.52q0-2.28.96-3.24 1.08-1.08 3.36-1.08h63.36q2.28 0 3.24 1.08 1.08.96 1.08 3.24v14.52q0 2.28-1.08 3.36-.96.96-3.24.96h-17.64v58.92q0 2.28-1.08 3.36-.96.96-3.24.96M297.199 712h-18.6q-2.28 0-3.36-.96-.96-1.08-.96-3.36v-77.76q0-2.28.96-3.24 1.08-1.08 3.36-1.08h18.6q2.28 0 3.24 1.08 1.08.96 1.08 3.24v26.04h20.04v-26.04q0-2.28.96-3.24 1.08-1.08 3.36-1.08h18.6q2.28 0 3.24 1.08 1.08.96 1.08 3.24v77.76q0 2.28-1.08 3.36-.96.96-3.24.96h-18.6q-2.28 0-3.36-.96-.96-1.08-.96-3.36v-26.64h-20.04v26.64q0 2.28-1.08 3.36-.96.96-3.24.96M362.934 712q-2.28 0-3.36-.96-.96-1.08-.961-3.36V693.4q0-2.28.961-3.24 1.08-1.08 3.36-1.08h11.88v-40.32h-11.88q-2.28 0-3.36-.96-.96-1.08-.961-3.36v-14.52q0-2.28.961-3.24 1.08-1.08 3.36-1.08h51.119q2.28 0 3.241 1.08 1.08.96 1.08 3.24v14.52q0 2.28-1.08 3.36-.96.96-3.241.96h-11.639v40.32h11.639q2.28 0 3.241 1.08 1.08.96 1.08 3.24v14.28q0 2.28-1.08 3.36-.96.96-3.241.96zM468.47 712h-37.92q-2.28 0-3.36-.96-.96-1.08-.96-3.36v-14.04q0-2.28.96-3.24 1.08-1.08 3.36-1.08h32.28q1.56 0 2.28-.96.84-1.08.84-2.52 0-2.04-.84-3-.72-.96-2.28-1.08l-18-2.52q-8.4-1.2-13.56-5.52-5.04-4.32-5.04-14.4v-12.6q0-10.2 6.6-15.6 6.6-5.52 18.24-5.52h33.6q2.28 0 3.24 1.08 1.08.96 1.08 3.24v14.28q0 2.28-1.08 3.36-.96.96-3.24.96h-27.96q-1.56 0-2.4 1.08-.84.96-.84 2.52t.84 2.64 2.4 1.2l17.88 2.4q8.4 1.2 13.56 5.52t5.16 14.4v12.6q0 10.2-6.72 15.72-6.6 5.4-18.12 5.4M546.71 712h-18.6q-2.28 0-3.36-.96-.96-1.08-.96-3.36v-77.76q0-2.28.96-3.24 1.08-1.08 3.36-1.08h53.52q2.28 0 3.24 1.08 1.08.96 1.08 3.24v14.28q0 2.28-1.08 3.36-.96.96-3.24.96h-30.6V661h20.88q2.28 0 3.24 1.08 1.08.96 1.08 3.24v14.4q0 2.28-1.08 3.36-.96.96-3.24.96h-20.88v23.64q0 2.28-1.08 3.36-.96.96-3.24.96M595.57 712q-2.28 0-3.361-.96-.96-1.08-.959-3.36V693.4q0-2.28.959-3.24 1.08-1.08 3.361-1.08h11.879v-40.32H595.57q-2.28 0-3.361-.96-.96-1.08-.959-3.36v-14.52q0-2.28.959-3.24 1.08-1.08 3.361-1.08h51.12q2.28 0 3.24 1.08 1.079.96 1.079 3.24v14.52q0 2.28-1.079 3.36-.96.96-3.24.96h-11.641v40.32h11.641q2.28 0 3.24 1.08 1.079.96 1.079 3.24v14.28q0 2.28-1.079 3.36-.96.96-3.24.96zM688.146 647.2v15.36h9q3.12 0 4.2-1.56 1.08-1.68 1.08-4.08v-4.08q0-2.4-1.08-3.96-1.08-1.68-4.2-1.68zm-4.32 64.8h-18.48q-2.28 0-3.36-.96-.96-1.08-.96-3.36v-77.76q0-2.28.96-3.24 1.08-1.08 3.36-1.08h39.96q13.44 0 18.48 5.64 5.16 5.52 5.16 14.4v5.52q0 5.04-1.56 8.64-1.44 3.48-5.16 5.04 6.48.72 10.44 5.28 4.08 4.56 4.08 12.12v25.44q0 2.28-1.08 3.36-.96.96-3.24.96h-18.6q-2.28 0-3.36-.96-.96-1.08-.96-3.36v-18.36q0-2.64-1.08-3.84-.96-1.32-3.48-1.32h-16.8v23.52q0 2.28-1.08 3.36-.96.96-3.24.96M785.485 712h-37.92q-2.28 0-3.36-.96-.96-1.08-.96-3.36v-14.04q0-2.28.96-3.24 1.08-1.08 3.36-1.08h32.28q1.56 0 2.28-.96.84-1.08.84-2.52 0-2.04-.84-3-.72-.96-2.28-1.08l-18-2.52q-8.4-1.2-13.56-5.52-5.04-4.32-5.04-14.4v-12.6q0-10.2 6.6-15.6 6.6-5.52 18.24-5.52h33.6q2.28 0 3.24 1.08 1.08.96 1.08 3.24v14.28q0 2.28-1.08 3.36-.96.96-3.24.96h-27.96q-1.56 0-2.4 1.08-.84.96-.84 2.52t.84 2.64 2.4 1.2l17.88 2.4q8.4 1.2 13.56 5.52t5.16 14.4v12.6q0 10.2-6.72 15.72-6.6 5.4-18.12 5.4M858.28 712h-19.44q-2.28 0-3.36-.96-.96-1.08-.96-3.36v-58.92h-17.64q-2.28 0-3.36-.96-.96-1.08-.96-3.36v-14.52q0-2.28.96-3.24 1.08-1.08 3.36-1.08h63.36q2.28 0 3.24 1.08 1.08.96 1.08 3.24v14.52q0 2.28-1.08 3.36-.96.96-3.24.96H862.6v58.92q0 2.28-1.08 3.36-.96.96-3.24.96"/></svg>