<svg xmlns="http://www.w3.org/2000/svg" width="1080" height="1350" fill="none"><path fill="#000" d="m312.444 445 11.24-26.48h3.76l11.24 26.48h-3.32l-3.24-7.68h-13.12l-3.24 7.68zm7.72-10.44h10.8l-5.4-12.92zM341.409 445v-20h3v3.12q1.08-1.44 2.64-2.44t4-1a7.86 7.86 0 0 1 3.88 1q1.84.96 2.96 2.92 1.16 1.92 1.16 4.76V445h-3v-11.56q0-2.72-1.56-4.36-1.56-1.68-4.04-1.68-1.68 0-3.04.76t-2.2 2.16q-.8 1.36-.8 3.16V445zm31.096.32q-2.92 0-5.12-1.36-2.16-1.4-3.36-3.76t-1.2-5.2q0-2.88 1.2-5.2 1.2-2.36 3.36-3.72 2.2-1.4 5.12-1.4 2.48 0 4.24.96a8.1 8.1 0 0 1 2.92 2.6V417h3v28h-3v-3.2q-1.12 1.6-2.92 2.56-1.76.96-4.24.96m.4-2.72q2.24 0 3.76-1.04a6.6 6.6 0 0 0 2.36-2.76q.8-1.76.8-3.8 0-2.08-.8-3.8a6.6 6.6 0 0 0-2.36-2.76q-1.52-1.04-3.76-1.04-2.2 0-3.8 1.04a6.8 6.8 0 0 0-2.44 2.76q-.84 1.72-.84 3.8 0 2.04.84 3.8a6.8 6.8 0 0 0 2.44 2.76q1.6 1.04 3.8 1.04m25.545 10.32 3.64-8.2-8.16-19.72h3.32l6.44 16.4 6.56-16.4h3.28l-11.84 27.92zm26.092-7.6q-3.04 0-5.28-1.36a9.35 9.35 0 0 1-3.44-3.76q-1.2-2.36-1.2-5.2 0-2.88 1.2-5.2a9.1 9.1 0 0 1 3.44-3.72q2.24-1.4 5.28-1.4 3.08 0 5.28 1.4a9.1 9.1 0 0 1 3.44 3.72q1.2 2.32 1.2 5.2 0 2.84-1.2 5.2a9.35 9.35 0 0 1-3.44 3.76q-2.2 1.36-5.28 1.36m0-2.72q2.24 0 3.76-1.04a6.6 6.6 0 0 0 2.36-2.76q.8-1.76.8-3.8 0-2.08-.8-3.8a6.6 6.6 0 0 0-2.36-2.76q-1.52-1.04-3.76-1.04-2.2 0-3.76 1.04a6.6 6.6 0 0 0-2.36 2.76q-.8 1.72-.8 3.8 0 2.04.8 3.8a6.6 6.6 0 0 0 2.36 2.76q1.56 1.04 3.76 1.04m21.698 2.72q-2.04 0-3.88-.96-1.84-1-3-2.92-1.12-1.96-1.12-4.8V425h3v11.56q0 2.72 1.56 4.4 1.6 1.64 4.04 1.64 1.68 0 3.04-.76a6 6 0 0 0 2.16-2.16q.84-1.36.84-3.16V425h3v20h-3v-3.12q-1.08 1.44-2.64 2.44t-4 1m27.252-.32-6.28-20h3.2l4.8 16.28 5.08-16.28h3.28l5.08 16.28 4.8-16.28h3.2l-6.28 20h-3.44l-5-15.96-5 15.96zm25.843-23.36v-3.92h3.24v3.92zm.12 23.36v-20h3v20zm8.204 0v-28h3v28zm8.203 0v-28h3v28zm16.718 0v-20h3v4.92q.16-.52.6-1.36.48-.88 1.36-1.76t2.2-1.48q1.36-.64 3.2-.64h.2v3h-.36q-2.24 0-3.88 1.24-1.6 1.2-2.48 3.16-.84 1.92-.84 4.12v8.8zm22.162.32q-3.04 0-5.32-1.36a9.84 9.84 0 0 1-3.56-3.76q-1.24-2.36-1.24-5.2 0-2.88 1.2-5.2a9.1 9.1 0 0 1 3.44-3.72q2.24-1.4 5.28-1.4 3.08 0 5.28 1.4a9.1 9.1 0 0 1 3.44 3.72q1.2 2.32 1.2 5.2v1.2h-16.76a8.5 8.5 0 0 0 1.12 3.24 7 7 0 0 0 2.44 2.32q1.52.84 3.52.84 2.12 0 3.56-.92a6.8 6.8 0 0 0 2.24-2.44h3.28a9.9 9.9 0 0 1-3.32 4.4q-2.24 1.68-5.8 1.68m-7-11.92h13.6q-.4-2.56-2.16-4.28t-4.64-1.72-4.64 1.72q-1.72 1.72-2.16 4.28m28.825 11.92q-2.92 0-5.12-1.36-2.16-1.4-3.36-3.76t-1.2-5.2q0-2.88 1.2-5.2 1.2-2.36 3.36-3.72 2.2-1.4 5.12-1.4 2.48 0 4.24.96a8.1 8.1 0 0 1 2.92 2.6V425h3v20h-3v-3.2q-1.12 1.6-2.92 2.56-1.76.96-4.24.96m.4-2.72q2.24 0 3.76-1.04a6.6 6.6 0 0 0 2.36-2.76q.8-1.76.8-3.8 0-2.08-.8-3.8a6.6 6.6 0 0 0-2.36-2.76q-1.52-1.04-3.76-1.04-2.2 0-3.8 1.04a6.8 6.8 0 0 0-2.44 2.76q-.84 1.72-.84 3.8 0 2.04.84 3.8a6.8 6.8 0 0 0 2.44 2.76q1.6 1.04 3.8 1.04m23.389 2.72q-2.92 0-5.12-1.36-2.16-1.4-3.36-3.76t-1.2-5.2q0-2.88 1.2-5.2 1.2-2.36 3.36-3.72 2.2-1.4 5.12-1.4 2.48 0 4.24.96a8.1 8.1 0 0 1 2.92 2.6V417h3v28h-3v-3.2q-1.12 1.6-2.92 2.56-1.76.96-4.24.96m.4-2.72q2.24 0 3.76-1.04a6.6 6.6 0 0 0 2.36-2.76q.8-1.76.8-3.8 0-2.08-.8-3.8a6.6 6.6 0 0 0-2.36-2.76q-1.52-1.04-3.76-1.04-2.2 0-3.8 1.04a6.8 6.8 0 0 0-2.44 2.76q-.84 1.72-.84 3.8 0 2.04.84 3.8a6.8 6.8 0 0 0 2.44 2.76q1.6 1.04 3.8 1.04m25.625 2.4v-17.36h-4.08V425h4.08v-7.16h3V425h4.6v2.64h-4.6V445zm10.887 0v-28h3v11.12q1.08-1.44 2.64-2.44t4-1q2.08 0 3.88 1 1.84.96 2.96 2.92 1.16 1.92 1.16 4.76V445h-3v-11.56q0-2.72-1.56-4.36-1.56-1.68-4.04-1.68-1.68 0-3.04.76t-2.2 2.16q-.8 1.36-.8 3.16V445zm22.536-23.36v-3.92h3.24v3.92zm.12 23.36v-20h3v20zm15.483.32q-2.76 0-4.68-.92-1.88-.92-2.88-2.4a6.7 6.7 0 0 1-1.12-3.28h3.12q.12 1 .68 1.96.6.92 1.8 1.52 1.2.56 3.12.56.6 0 1.48-.12a7 7 0 0 0 1.68-.44 3.46 3.46 0 0 0 1.4-.96q.56-.64.56-1.64 0-1.24-.96-1.92t-2.48-1.04a65 65 0 0 0-3.24-.76 23.6 23.6 0 0 1-3.2-.92q-1.52-.6-2.48-1.64-.96-1.08-.96-2.92 0-2.72 1.96-4.2 2.001-1.52 5.88-1.52 2.64 0 4.28.84 1.68.8 2.52 2.08a5.9 5.9 0 0 1 1.04 2.76h-3.04q-.16-1.28-1.28-2.2-1.08-.92-3.6-.92-4.76 0-4.76 2.88 0 1.2.96 1.84t2.48 1.04q1.52.36 3.2.72 1.72.32 3.24.92t2.48 1.72q.96 1.08.96 2.96 0 2.92-2.24 4.48-2.2 1.52-5.92 1.52m20.533-.32v-28h3v28zm16.643.32q-2.92 0-5.12-1.36-2.16-1.4-3.36-3.76t-1.2-5.2q0-2.88 1.2-5.2 1.2-2.36 3.36-3.72 2.2-1.4 5.12-1.4 2.48 0 4.24.96a8.1 8.1 0 0 1 2.92 2.6V425h3v20h-3v-3.2q-1.12 1.6-2.92 2.56-1.76.96-4.24.96m.4-2.72q2.24 0 3.76-1.04a6.6 6.6 0 0 0 2.36-2.76q.8-1.76.8-3.8 0-2.08-.8-3.8a6.6 6.6 0 0 0-2.36-2.76q-1.52-1.04-3.76-1.04-2.2 0-3.8 1.04a6.8 6.8 0 0 0-2.44 2.76q-.84 1.72-.84 3.8 0 2.04.84 3.8a6.8 6.8 0 0 0 2.44 2.76q1.6 1.04 3.8 1.04m22.229 2.72q-2.76 0-4.68-.92-1.88-.92-2.88-2.4a6.7 6.7 0 0 1-1.12-3.28h3.12q.12 1 .68 1.96.6.92 1.8 1.52 1.2.56 3.12.56.6 0 1.48-.12a7 7 0 0 0 1.68-.44 3.46 3.46 0 0 0 1.4-.96q.56-.64.56-1.64 0-1.24-.96-1.92t-2.48-1.04a65 65 0 0 0-3.24-.76 23.5 23.5 0 0 1-3.2-.92q-1.52-.6-2.48-1.64-.96-1.08-.96-2.92 0-2.72 1.96-4.2 2-1.52 5.88-1.52 2.64 0 4.28.84 1.68.8 2.52 2.08a5.93 5.93 0 0 1 1.04 2.76h-3.04q-.16-1.28-1.28-2.2-1.08-.92-3.6-.92-4.76 0-4.76 2.88 0 1.2.96 1.84t2.48 1.04q1.52.36 3.2.72 1.72.32 3.24.92t2.48 1.72q.96 1.08.96 2.96 0 2.92-2.24 4.48-2.2 1.52-5.92 1.52m14.177-.32v-17.36h-4.08V425h4.08v-7.16h3V425h4.6v2.64h-4.6V445zM217.872 577h-27.6v-2.4h4.8v-25.32l-21.48-37.08h-6.24v-2.4h33.6v2.4h-5.88l16.8 30.24 15.6-30.24h-9.6v-2.4h21v2.4h-8.4l-17.4 33.84v28.56h4.8zm46.826-7.2q2.64 6 9.12 6t9.24-6.12 2.76-20.16q0-14.16-2.76-20.28-2.76-6.24-9.24-6.24t-9.12 6.24q-2.64 6.12-2.64 20.28t2.64 20.28m8.88 8.4q-11.4 0-20.64-7.44t-9.24-21.12q0-7.32 2.64-13.08 2.76-5.76 7.2-9.12 4.56-3.36 9.72-5.04 5.16-1.8 10.56-1.8t10.56 1.8a32.2 32.2 0 0 1 9.72 5.04q4.56 3.36 7.32 9.12t2.76 12.96-2.76 12.84-7.32 9q-9.12 6.84-20.52 6.84m80.454-1.2v-6.36q-2.28 3.24-7.2 5.52-4.8 2.16-10.44 2.16-21.36 0-21.36-23.16V524.2h-6v-2.4h24v36q0 8.52 2.52 12.12t7.56 3.6q6.72 0 10.92-7.2V524.2h-6v-2.4h24v52.8h6v2.4zm54.609-52.8v-2.4h32.4v2.4h-6.36l12.96 29.04 7.8-19.56-3.96-9.48h-4.44v-2.4h30v2.4h-5.28l12.96 29.04 11.16-29.04h-9.6v-2.4h19.56v2.4h-7.2l-20.28 52.8h-2.52l-18.96-39.72-15.72 39.72h-2.52l-24.36-52.8zm127.21 50.4h6v2.4h-30v-2.4h6v-50.4h-4.8v-2.4h22.8zm1.08-68.64q0 4.32-3.12 7.44-3 3-7.44 3-4.32 0-7.44-3-3.12-3.12-3.12-7.44 0-4.44 3.12-7.56t7.44-3.12q4.44 0 7.44 3.12 3.12 3.12 3.12 7.56m37.357 68.64h6v2.4h-30v-2.4h6V499h-6v-2.4h24zm38.438 0h6v2.4h-30v-2.4h6V499h-6v-2.4h24zm70.219 2.4h-30v-2.4h6v-50.4h-6v-2.4h24v14.28q1.08-5.88 3.84-9.6 2.88-3.72 6.24-4.92 3.48-1.2 6.6-1.2 3.24 0 6.12 1.2 3 1.08 4.44 4.56 1.44 3.36.12 6.84-1.32 3.36-4.68 4.8-3.24 1.44-6 .36t-3.96-2.88q-1.2-1.92-1.68-3.6-1.2-4.44-3.24-4.44-2.28 0-5.04 7.92-2.76 7.8-2.76 16.56v22.92h6zm81.047-24h-36.24q1.2 21.12 16.44 21.12 4.08 0 9.24-1.92 5.28-1.92 7.68-5.4l1.68 1.2q-2.64 4.44-9 7.32t-12.72 2.88q-6.24 0-11.28-1.2-5.04-1.32-9.84-4.32t-7.56-9q-2.64-6-2.64-14.52 0-14.52 8.04-21.48 8.04-7.08 19.44-7.08 11.52 0 19.08 7.68 7.68 7.68 7.68 24.72m-36.36-2.4h19.56q0-11.04-2.4-19.32-2.28-8.28-7.44-8.28t-7.44 8.04q-2.28 7.92-2.28 18.24zm103.278 24q-1.2 1.2-4.56 2.16-3.36.84-7.8.84-9.84 0-12.36-5.88-6 6.24-18.36 6.24-6.6 0-10.92-3-4.2-3.12-4.2-9.12 0-8.04 6.24-12.36 6.24-4.44 21.84-6.24l4.8-.6v-5.88q0-10.44-1.56-14.04t-6.24-3.6q-4.56 0-5.88 1.32-1.32 1.2-.96 2.88.36 1.56 1.2 4.2t.84 4.2q0 3.72-2.64 6.36-2.52 2.52-6.24 2.52-3.6 0-6.24-2.52-2.64-2.64-2.64-6.36 0-6.12 6.24-10.44 6.36-4.44 18.84-4.44 12.6 0 17.88 4.92 5.4 4.92 5.4 17.4v21.6q0 6.36 1.56 8.04 1.56 1.56 5.76.6zm-41.52-11.16q.6 4.56 3.36 7.08 2.76 2.4 6.36 2.4 3.72 0 6.48-3.6v-20.4l-4.32.6q-5.52.72-9 4.2-3.36 3.48-2.88 9.72m71.391 15q-9.72 0-16.8-7.68t-7.08-21.72 6.96-21.96 16.92-7.92q4.92 0 9.24 2.04t6.24 6.12V499h-6v-2.4h24v78h6v2.4h-24v-5.52q-3.24 6.96-15.48 6.96m15.48-27.72v-19.8q-3.24-6.48-8.52-6.48-5.16 0-8.88 6t-3.72 19.08q0 12.96 3.84 18.96t9.24 5.16q3-.48 4.56-1.92 3.48-3.36 3.48-21M323.579 656.2v29.28q0 10.32.84 12.6.84 2.16 1.8 3.72 1.8 3.12 6.24 3.12 4.56 0 6.36-1.2v2.4q-5.76 4.08-12.6 4.08-10.08 0-15.36-4.8t-5.28-17.16V656.2h-8.88v-2.4h8.88q5.76-.96 10.2-5.52 4.44-4.68 6.12-12.84h1.68v18.36h13.92v2.4zm84.28 50.4h6v2.4h-30v-2.4h6V673q0-8.52-2.52-12.12t-7.56-3.6q-6.84 0-10.92 7.2v42.12h6v2.4h-30v-2.4h6V631h-6v-2.4h24v31.44q2.28-3.24 7.08-5.4t10.56-2.16q21.36 0 21.36 23.16zm38.343 0h6v2.4h-30v-2.4h6v-50.4h-4.8v-2.4h22.8zm1.08-68.64q0 4.32-3.12 7.44-3 3-7.44 3-4.32 0-7.44-3-3.12-3.12-3.12-7.44 0-4.44 3.12-7.56t7.44-3.12q4.44 0 7.44 3.12 3.12 3.12 3.12 7.56m40.358 70.08q12.48 0 12.48-6.84 0-3.84-4.32-6.24-4.32-2.52-10.44-4.08a162 162 0 0 1-12.12-3.6q-5.88-2.04-9.84-6.48-3.84-4.44-3.12-11.64t7.32-11.88q6.72-4.68 16.44-4.68 9.84 0 15.84 3.12t6.72 8.4q.48 3.24-1.08 6-1.44 2.76-4.92 2.88-3.36.12-5.64-1.8-2.16-1.92-2.04-4.44t1.92-4.44q1.8-2.04 1.8-3.24 0-2.04-3.96-3-3.84-1.08-9-1.08-5.04 0-8.28 2.28t-3.24 5.64 3.96 5.76q4.08 2.4 9.84 3.96 5.76 1.44 11.4 3.36 5.76 1.8 9.72 5.88 4.08 4.08 4.08 10.32 0 8.28-5.88 13.32-5.88 4.92-17.76 4.92t-19.32-3.6q-7.32-3.6-8.04-9.24-.48-3.24 1.08-6t4.92-2.88 5.52 1.8q2.28 1.92 2.16 4.44t-1.92 4.56q-1.8 1.92-1.8 3.12 0 2.4 5.52 3.96 5.64 1.44 12 1.44m117.774-1.44h6v2.4h-30v-2.4h6v-50.4h-20.04v50.4h6v2.4h-30v-2.4h6v-50.4h-7.2v-2.4h7.2q0-9.12 3.72-15.12 3.84-6.12 11.76-10.08 4.32-2.16 10.8-3 6.6-.96 13.56.24 7.08 1.2 10.8 4.32t4.32 7.2q.6 3.96-1.8 6.84t-5.88 3.36q-3.48.36-6.24-1.92-3.96-3.6-3-8.28.24-1.2.96-2.4 1.44-2.4.96-3.6-.48-1.32-3.84-2.52-3.24-1.2-8.76-.24-5.4.96-7.44 6.72-1.92 5.76-1.92 18.48h38.04zm44.366 2.4h-30v-2.4h6v-50.4h-6v-2.4h24v14.28q1.08-5.88 3.84-9.6 2.88-3.72 6.24-4.92 3.48-1.2 6.6-1.2 3.24 0 6.12 1.2 3 1.08 4.44 4.56 1.44 3.36.12 6.84-1.32 3.36-4.68 4.8-3.24 1.44-6 .36t-3.96-2.88q-1.2-1.92-1.68-3.6-1.2-4.44-3.24-4.44-2.28 0-5.04 7.92-2.76 7.8-2.76 16.56v22.92h6zm55.008-.96q12.48 0 12.48-6.84 0-3.84-4.32-6.24-4.32-2.52-10.44-4.08a162 162 0 0 1-12.12-3.6q-5.88-2.04-9.84-6.48-3.84-4.44-3.12-11.64t7.32-11.88q6.72-4.68 16.44-4.68 9.84 0 15.84 3.12t6.72 8.4q.48 3.24-1.08 6-1.44 2.76-4.92 2.88-3.36.12-5.64-1.8-2.16-1.92-2.04-4.44t1.92-4.44q1.8-2.04 1.8-3.24 0-2.04-3.96-3-3.84-1.08-9-1.08-5.04 0-8.28 2.28t-3.24 5.64 3.96 5.76q4.08 2.4 9.84 3.96 5.76 1.44 11.4 3.36 5.76 1.8 9.72 5.88 4.08 4.08 4.08 10.32 0 8.28-5.88 13.32-5.88 4.92-17.76 4.92t-19.32-3.6q-7.32-3.6-8.04-9.24-.48-3.24 1.08-6t4.92-2.88 5.52 1.8q2.28 1.92 2.16 4.44t-1.92 4.56q-1.8 1.92-1.8 3.12 0 2.4 5.52 3.96 5.64 1.44 12 1.44m52.033-51.84v29.28q0 10.32.84 12.6.84 2.16 1.8 3.72 1.8 3.12 6.24 3.12 4.56 0 6.36-1.2v2.4q-5.76 4.08-12.6 4.08-10.08 0-15.36-4.8t-5.28-17.16V656.2h-8.88v-2.4h8.88q5.76-.96 10.2-5.52 4.44-4.68 6.12-12.84h1.68v18.36h13.92v2.4zM312.901 808v-28.368h-11.088v-3.408h25.776v3.408h-11.088V808zm18.5 0v-33.6h3.6v13.344a12 12 0 0 1 3.168-2.928q1.872-1.2 4.8-1.2 2.496 0 4.656 1.2 2.208 1.152 3.552 3.504 1.392 2.304 1.392 5.712V808h-3.6v-13.872q0-3.264-1.872-5.232-1.872-2.016-4.848-2.016-2.016 0-3.648.912t-2.64 2.592q-.96 1.632-.96 3.792V808zm37.844.384q-3.648 0-6.384-1.632a11.8 11.8 0 0 1-4.272-4.512q-1.488-2.832-1.488-6.24 0-3.456 1.44-6.24a10.9 10.9 0 0 1 4.128-4.464q2.688-1.68 6.336-1.68 3.696 0 6.336 1.68a10.9 10.9 0 0 1 4.128 4.464q1.44 2.784 1.44 6.24v1.44h-20.112a10.2 10.2 0 0 0 1.344 3.888 8.4 8.4 0 0 0 2.928 2.784q1.824 1.008 4.224 1.008 2.544 0 4.272-1.104a8.1 8.1 0 0 0 2.688-2.928h3.936a11.86 11.86 0 0 1-3.984 5.28q-2.688 2.016-6.96 2.016m-8.4-14.304h16.32q-.48-3.072-2.592-5.136t-5.568-2.064-5.568 2.064q-2.064 2.064-2.592 5.136M385.308 808v-24h3.6v3.744a12 12 0 0 1 3.168-2.928q1.872-1.2 4.8-1.2 2.496 0 4.656 1.2 2.208 1.152 3.552 3.504 1.392 2.304 1.392 5.712V808h-3.6v-13.872q0-3.264-1.872-5.232-1.872-2.016-4.848-2.016-2.016 0-3.648.912t-2.64 2.592q-.96 1.632-.96 3.792V808zm39.902 9.504 4.368-9.84L419.786 784h3.984l7.728 19.68L439.37 784h3.936l-14.208 33.504zm31.31-9.12q-3.648 0-6.336-1.632a11.2 11.2 0 0 1-4.128-4.512q-1.44-2.832-1.44-6.24 0-3.456 1.44-6.24a10.9 10.9 0 0 1 4.128-4.464q2.688-1.68 6.336-1.68 3.696 0 6.336 1.68a10.9 10.9 0 0 1 4.128 4.464q1.44 2.784 1.44 6.24 0 3.408-1.44 6.24a11.2 11.2 0 0 1-4.128 4.512q-2.64 1.632-6.336 1.632m0-3.264q2.688 0 4.512-1.248a7.9 7.9 0 0 0 2.832-3.312q.96-2.112.96-4.56 0-2.496-.96-4.56a7.9 7.9 0 0 0-2.832-3.312q-1.824-1.248-4.512-1.248-2.64 0-4.512 1.248a7.9 7.9 0 0 0-2.832 3.312q-.96 2.064-.96 4.56 0 2.448.96 4.56a7.9 7.9 0 0 0 2.832 3.312q1.872 1.248 4.512 1.248m26.038 3.264a9.9 9.9 0 0 1-4.656-1.152q-2.208-1.2-3.6-3.504-1.344-2.352-1.344-5.76V784h3.6v13.872q0 3.264 1.872 5.28 1.92 1.968 4.848 1.968 2.016 0 3.648-.912a7.2 7.2 0 0 0 2.592-2.592q1.008-1.632 1.008-3.792V784h3.6v24h-3.6v-3.744a12 12 0 0 1-3.168 2.928q-1.872 1.2-4.8 1.2M515.26 808l-7.536-24h3.84l5.76 19.536L523.42 784h3.936l6.096 19.536 5.76-19.536h3.84l-7.536 24h-4.128l-6-19.152-6 19.152zm31.013-28.032v-4.704h3.888v4.704zm.144 28.032v-24h3.6v24zm9.844 0v-33.6h3.6V808zm9.843 0v-33.6h3.6V808zm20.063 0v-24h3.6v5.904q.192-.624.72-1.632.576-1.056 1.632-2.112t2.64-1.776q1.632-.768 3.84-.768h.24v3.6h-.432q-2.688 0-4.656 1.488-1.92 1.44-2.976 3.792-1.008 2.304-1.008 4.944V808zm26.593.384q-3.648 0-6.384-1.632a11.8 11.8 0 0 1-4.272-4.512q-1.488-2.832-1.488-6.24 0-3.456 1.44-6.24a10.9 10.9 0 0 1 4.128-4.464q2.688-1.68 6.336-1.68 3.696 0 6.336 1.68a10.9 10.9 0 0 1 4.128 4.464q1.44 2.784 1.44 6.24v1.44h-20.112a10.2 10.2 0 0 0 1.344 3.888 8.4 8.4 0 0 0 2.928 2.784q1.824 1.008 4.224 1.008 2.544 0 4.272-1.104a8.1 8.1 0 0 0 2.688-2.928h3.936a11.86 11.86 0 0 1-3.984 5.28q-2.688 2.016-6.96 2.016m-8.4-14.304h16.32q-.48-3.072-2.592-5.136t-5.568-2.064-5.568 2.064q-2.064 2.064-2.592 5.136m34.591 14.304q-3.504 0-6.144-1.632-2.592-1.68-4.032-4.512t-1.44-6.24q0-3.456 1.44-6.24 1.44-2.832 4.032-4.464 2.64-1.68 6.144-1.68 2.976 0 5.088 1.152a9.7 9.7 0 0 1 3.504 3.12V784h3.6v24h-3.6v-3.84q-1.344 1.92-3.504 3.072-2.112 1.152-5.088 1.152m.48-3.264q2.688 0 4.512-1.248a7.9 7.9 0 0 0 2.832-3.312q.96-2.112.96-4.56 0-2.496-.96-4.56a7.9 7.9 0 0 0-2.832-3.312q-1.824-1.248-4.512-1.248-2.64 0-4.56 1.248a8.14 8.14 0 0 0-2.928 3.312q-1.008 2.064-1.008 4.56 0 2.448 1.008 4.56a8.14 8.14 0 0 0 2.928 3.312q1.92 1.248 4.56 1.248m28.067 3.264q-3.504 0-6.144-1.632-2.592-1.68-4.032-4.512t-1.44-6.24q0-3.456 1.44-6.24 1.44-2.832 4.032-4.464 2.64-1.68 6.144-1.68 2.976 0 5.088 1.152a9.7 9.7 0 0 1 3.504 3.12V774.4h3.6V808h-3.6v-3.84q-1.344 1.92-3.504 3.072-2.112 1.152-5.088 1.152m.48-3.264q2.688 0 4.512-1.248a7.9 7.9 0 0 0 2.832-3.312q.96-2.112.96-4.56 0-2.496-.96-4.56a7.9 7.9 0 0 0-2.832-3.312q-1.824-1.248-4.512-1.248-2.64 0-4.56 1.248a8.14 8.14 0 0 0-2.928 3.312q-1.008 2.064-1.008 4.56 0 2.448 1.008 4.56a8.14 8.14 0 0 0 2.928 3.312q1.92 1.248 4.56 1.248m30.75 2.88v-20.832h-4.896V784h4.896v-8.592h3.6V784h5.52v3.168h-5.52V808zm13.064 0v-33.6h3.6v13.344a12 12 0 0 1 3.168-2.928q1.872-1.2 4.8-1.2 2.496 0 4.656 1.2 2.208 1.152 3.552 3.504 1.392 2.304 1.392 5.712V808h-3.6v-13.872q0-3.264-1.872-5.232-1.872-2.016-4.848-2.016-2.016 0-3.648.912t-2.64 2.592q-.96 1.632-.96 3.792V808zm27.043-28.032v-4.704h3.888v4.704zm.144 28.032v-24h3.6v24zm18.58.384q-3.312 0-5.616-1.104-2.256-1.104-3.456-2.88-1.2-1.824-1.344-3.936h3.744q.144 1.2.816 2.352.72 1.104 2.16 1.824 1.44.672 3.744.672.72 0 1.776-.144a8.5 8.5 0 0 0 2.016-.528 4.16 4.16 0 0 0 1.68-1.152q.672-.768.672-1.968 0-1.488-1.152-2.304t-2.976-1.248a79 79 0 0 0-3.888-.912 28 28 0 0 1-3.84-1.104q-1.824-.72-2.976-1.968-1.152-1.296-1.152-3.504 0-3.264 2.352-5.04 2.4-1.824 7.056-1.824 3.168 0 5.136 1.008 2.016.96 3.024 2.496 1.056 1.536 1.248 3.312h-3.648q-.192-1.536-1.536-2.64-1.296-1.104-4.32-1.104-5.712 0-5.712 3.456 0 1.44 1.152 2.208t2.976 1.248q1.824.432 3.84.864 2.064.384 3.888 1.104t2.976 2.064q1.152 1.296 1.152 3.552 0 3.504-2.688 5.376-2.64 1.824-7.104 1.824"/></svg>