<svg xmlns="http://www.w3.org/2000/svg" width="1080" height="1350" fill="none"><path fill="#000" d="M303.485 446h-3.694l10.682-29.091h3.637L324.791 446h-3.693l-8.693-24.489h-.227zm1.363-11.364h14.887v3.125h-14.887zM332.22 432.875V446h-3.352v-21.818h3.239v3.409h.284a6.24 6.24 0 0 1 2.329-2.671q1.563-1.022 4.035-1.022 2.215 0 3.877.909 1.662.894 2.586 2.727.923 1.818.923 4.602V446h-3.352v-13.636q0-2.572-1.336-4.006-1.335-1.449-3.664-1.449-1.605 0-2.87.696-1.25.696-1.974 2.031-.725 1.336-.725 3.239M360.505 446.455q-2.727 0-4.815-1.378-2.088-1.392-3.267-3.921-1.179-2.543-1.179-6.008 0-3.438 1.179-5.966t3.281-3.906 4.858-1.378q2.131 0 3.367.71 1.25.696 1.903 1.591.668.88 1.037 1.449h.284v-10.739h3.352V446h-3.238v-3.352h-.398q-.37.596-1.051 1.505-.682.895-1.946 1.606-1.264.696-3.367.696m.455-3.012q2.016 0 3.409-1.051 1.392-1.065 2.116-2.94.725-1.89.725-4.361 0-2.443-.71-4.276-.711-1.846-2.103-2.869-1.392-1.037-3.437-1.037-2.131 0-3.551 1.094-1.406 1.08-2.117 2.94-.696 1.847-.696 4.148 0 2.33.71 4.233.725 1.889 2.131 3.011 1.42 1.108 3.523 1.108M390.519 454.182a7.4 7.4 0 0 1-1.519-.142q-.668-.128-.924-.256l.853-2.954q1.221.312 2.159.227t1.662-.838q.738-.74 1.349-2.401l.625-1.704-8.068-21.932h3.636l6.023 17.386h.227l6.023-17.386h3.636l-9.261 25q-.626 1.69-1.548 2.798-.924 1.122-2.145 1.662-1.207.54-2.728.54M418.708 446.455q-2.954 0-5.184-1.407-2.217-1.406-3.466-3.934-1.236-2.53-1.236-5.909 0-3.41 1.236-5.952 1.25-2.543 3.466-3.949 2.23-1.406 5.184-1.406t5.171 1.406q2.23 1.406 3.466 3.949 1.25 2.543 1.25 5.952 0 3.38-1.25 5.909-1.236 2.528-3.466 3.934-2.216 1.407-5.171 1.407m0-3.012q2.245 0 3.694-1.15t2.144-3.026q.696-1.875.696-4.062t-.696-4.077-2.144-3.054q-1.449-1.165-3.694-1.165t-3.693 1.165q-1.449 1.164-2.145 3.054t-.696 4.077.696 4.062 2.145 3.026q1.449 1.15 3.693 1.15M447.462 437.08v-12.898h3.352V446h-3.352v-3.693h-.227q-.767 1.662-2.387 2.827-1.619 1.15-4.091 1.15-2.045 0-3.636-.895-1.591-.909-2.5-2.727-.909-1.832-.909-4.617v-13.863h3.352v13.636q0 2.387 1.335 3.807 1.35 1.42 3.438 1.42 1.25 0 2.543-.639 1.307-.639 2.187-1.96.895-1.321.895-3.366M473.147 446l-6.647-21.818h3.522l4.716 16.704h.227l4.66-16.704h3.579l4.602 16.648h.228l4.716-16.648h3.522L489.625 446h-3.296l-4.773-16.761h-.341L476.443 446zM500.704 446v-21.818h3.352V446zm1.705-25.455a2.38 2.38 0 0 1-1.691-.667q-.696-.667-.696-1.605t.696-1.605a2.39 2.39 0 0 1 1.691-.668q.98 0 1.676.668.71.667.71 1.605t-.71 1.605a2.34 2.34 0 0 1-1.676.667M513.549 416.909V446h-3.353v-29.091zM523.041 416.909V446h-3.353v-29.091zM540.431 446v-21.818h3.238v3.295h.228q.596-1.618 2.159-2.628 1.562-1.008 3.522-1.008.37 0 .924.014.553.015.838.043v3.409a10 10 0 0 0-.781-.128 8 8 0 0 0-1.265-.099q-1.59 0-2.841.667a5.05 5.05 0 0 0-1.96 1.818q-.71 1.15-.71 2.628V446zM563.797 446.455q-3.154 0-5.44-1.393-2.273-1.406-3.509-3.92-1.221-2.529-1.221-5.881 0-3.351 1.221-5.909 1.236-2.571 3.438-4.005 2.216-1.449 5.17-1.449 1.705 0 3.367.568t3.025 1.846q1.364 1.265 2.174 3.353t.809 5.142v1.42h-16.818v-2.897h13.409q0-1.848-.738-3.296a5.57 5.57 0 0 0-2.074-2.287q-1.336-.838-3.154-.838-2.002 0-3.466.994a6.55 6.55 0 0 0-2.23 2.557 7.5 7.5 0 0 0-.781 3.381v1.932q0 2.47.852 4.19.867 1.704 2.401 2.599 1.534.881 3.565.881 1.321 0 2.387-.369a5.1 5.1 0 0 0 1.86-1.136q.782-.767 1.208-1.904l3.238.909a7.2 7.2 0 0 1-1.718 2.898q-1.208 1.236-2.983 1.932-1.776.682-3.992.682M584.351 446.511q-2.073 0-3.764-.781-1.69-.795-2.685-2.287-.994-1.506-.994-3.636 0-1.875.739-3.04a5.2 5.2 0 0 1 1.974-1.847 10.4 10.4 0 0 1 2.727-.994 34 34 0 0 1 3.026-.54q1.989-.255 3.224-.383 1.251-.142 1.818-.469.583-.327.583-1.136v-.114q0-2.101-1.151-3.267-1.136-1.165-3.451-1.165-2.402 0-3.765 1.051-1.364 1.051-1.917 2.245l-3.182-1.137q.852-1.988 2.273-3.096a8.5 8.5 0 0 1 3.125-1.563 13 13 0 0 1 3.352-.454q1.052 0 2.415.255a7.7 7.7 0 0 1 2.656 1.009q1.293.767 2.145 2.315t.852 4.148V446h-3.352v-2.955h-.171q-.34.711-1.136 1.52-.795.81-2.116 1.378t-3.225.568m.511-3.011q1.99 0 3.353-.781 1.378-.781 2.074-2.017.71-1.236.71-2.6v-3.068q-.213.256-.938.469-.71.199-1.647.355-.924.142-1.804.256-.867.1-1.407.17-1.306.17-2.443.554-1.122.369-1.818 1.122-.681.74-.682 2.017 0 1.748 1.293 2.642 1.307.88 3.309.881M608.708 446.455q-2.727 0-4.815-1.378-2.088-1.392-3.267-3.921-1.179-2.543-1.179-6.008 0-3.438 1.179-5.966t3.281-3.906 4.858-1.378q2.131 0 3.367.71 1.25.696 1.903 1.591.668.88 1.037 1.449h.284v-10.739h3.352V446h-3.238v-3.352h-.398q-.37.596-1.051 1.505-.682.895-1.946 1.606-1.264.696-3.367.696m.455-3.012q2.017 0 3.409-1.051 1.392-1.065 2.116-2.94.725-1.89.725-4.361 0-2.443-.71-4.276-.711-1.846-2.103-2.869-1.391-1.037-3.437-1.037-2.131 0-3.551 1.094-1.407 1.08-2.117 2.94-.696 1.847-.696 4.148 0 2.33.71 4.233.725 1.889 2.131 3.011 1.42 1.108 3.523 1.108M646.052 424.182v2.841h-11.307v-2.841zm-8.011-5.227h3.352v20.795q0 1.42.412 2.131.426.696 1.079.937.668.227 1.407.227.554 0 .909-.056l.568-.114.682 3.011a7 7 0 0 1-.952.256q-.61.142-1.548.142a6.75 6.75 0 0 1-2.784-.611 5.5 5.5 0 0 1-2.245-1.861q-.88-1.25-.88-3.153zM654.916 432.875V446h-3.353v-29.091h3.353v10.682h.284a6.16 6.16 0 0 1 2.301-2.685q1.548-1.008 4.119-1.008 2.23 0 3.907.895 1.675.88 2.599 2.713.937 1.818.937 4.63V446h-3.352v-13.636q0-2.6-1.349-4.02-1.335-1.435-3.708-1.435-1.647 0-2.954.696-1.293.696-2.046 2.031-.738 1.336-.738 3.239M675.196 446v-21.818h3.353V446zm1.705-25.455a2.38 2.38 0 0 1-1.69-.667q-.697-.667-.697-1.605t.697-1.605a2.38 2.38 0 0 1 1.69-.668q.98 0 1.676.668.71.667.71 1.605t-.71 1.605a2.34 2.34 0 0 1-1.676.667M700.143 429.068l-3.011.852a5.6 5.6 0 0 0-.838-1.463q-.54-.724-1.478-1.193t-2.4-.469q-2.003 0-3.338.924-1.321.91-1.321 2.315 0 1.25.909 1.975.909.724 2.841 1.207l3.238.795q2.927.71 4.361 2.174 1.435 1.449 1.435 3.735 0 1.875-1.08 3.353-1.065 1.477-2.983 2.329-1.917.852-4.46.853-3.338 0-5.526-1.449t-2.769-4.233l3.181-.796q.455 1.762 1.719 2.642 1.278.88 3.338.881 2.344 0 3.722-.994 1.392-1.01 1.392-2.415 0-1.137-.796-1.903-.795-.782-2.443-1.165l-3.636-.853q-2.997-.71-4.404-2.201-1.392-1.506-1.392-3.764 0-1.848 1.037-3.267 1.052-1.42 2.855-2.231 1.82-.809 4.12-.809 3.239 0 5.085 1.42 1.861 1.42 2.642 3.75M720.189 416.909V446h-3.352v-29.091zM732.75 446.511q-2.075 0-3.765-.781-1.69-.795-2.684-2.287-.995-1.506-.995-3.636 0-1.875.739-3.04a5.2 5.2 0 0 1 1.974-1.847 10.4 10.4 0 0 1 2.728-.994 33 33 0 0 1 3.025-.54q1.989-.255 3.225-.383 1.25-.142 1.818-.469.582-.327.582-1.136v-.114q0-2.101-1.15-3.267-1.137-1.165-3.452-1.165-2.4 0-3.764 1.051t-1.918 2.245l-3.182-1.137q.853-1.988 2.273-3.096a8.5 8.5 0 0 1 3.125-1.563 13 13 0 0 1 3.352-.454q1.052 0 2.415.255a7.7 7.7 0 0 1 2.656 1.009q1.293.767 2.145 2.315t.853 4.148V446h-3.353v-2.955h-.17q-.34.711-1.137 1.52-.795.81-2.116 1.378t-3.224.568m.511-3.011q1.989 0 3.352-.781 1.378-.781 2.074-2.017.71-1.236.71-2.6v-3.068q-.213.256-.937.469-.71.199-1.648.355-.923.142-1.804.256-.867.1-1.406.17-1.307.17-2.443.554-1.123.369-1.819 1.122-.681.74-.681 2.017 0 1.748 1.292 2.642 1.308.88 3.31.881M764.323 429.068l-3.012.852a5.6 5.6 0 0 0-.838-1.463q-.54-.724-1.477-1.193t-2.401-.469q-2.002 0-3.338.924-1.32.91-1.321 2.315 0 1.25.909 1.975.91.724 2.841 1.207l3.239.795q2.926.71 4.361 2.174 1.434 1.449 1.434 3.735 0 1.875-1.079 3.353-1.066 1.477-2.983 2.329t-4.46.853q-3.339 0-5.526-1.449t-2.77-4.233l3.182-.796q.455 1.762 1.719 2.642 1.278.88 3.338.881 2.343 0 3.721-.994 1.393-1.01 1.393-2.415 0-1.137-.796-1.903-.796-.782-2.443-1.165l-3.636-.853q-2.998-.71-4.404-2.201-1.392-1.506-1.392-3.764 0-1.848 1.037-3.267 1.051-1.42 2.855-2.231 1.818-.809 4.119-.809 3.24 0 5.086 1.42 1.86 1.42 2.642 3.75M779.255 424.182v2.841h-11.307v-2.841zm-8.011-5.227h3.352v20.795q0 1.42.412 2.131.426.696 1.08.937.667.227 1.406.227.553 0 .909-.056l.568-.114.682 3.011a7 7 0 0 1-.952.256q-.61.142-1.548.142a6.75 6.75 0 0 1-2.784-.611 5.5 5.5 0 0 1-2.244-1.861q-.882-1.25-.881-3.153zM287.233 778.49v-3.672h25.636v3.672h-10.748V809h-4.14v-30.51zM323.132 793.578V809h-3.939v-34.182h3.939v12.551h.334a7.25 7.25 0 0 1 2.704-3.154q1.82-1.185 4.84-1.185 2.62 0 4.59 1.051 1.97 1.035 3.054 3.188 1.102 2.136 1.102 5.441V809h-3.939v-16.023q0-3.054-1.586-4.723-1.569-1.686-4.356-1.686-1.937 0-3.471.818-1.52.818-2.404 2.387-.868 1.569-.868 3.805M358.181 809.534q-3.706 0-6.393-1.636-2.67-1.652-4.122-4.606-1.436-2.971-1.436-6.91t1.436-6.943q1.452-3.021 4.039-4.707 2.603-1.702 6.075-1.702 2.003 0 3.956.667 1.952.669 3.555 2.17 1.602 1.485 2.553 3.939t.952 6.042v1.669h-19.762v-3.405h15.756q0-2.17-.868-3.872a6.53 6.53 0 0 0-2.437-2.687q-1.569-.985-3.705-.985-2.353 0-4.072 1.169a7.7 7.7 0 0 0-2.621 3.004 8.8 8.8 0 0 0-.918 3.972v2.27q0 2.904 1.002 4.924 1.018 2.002 2.82 3.054 1.803 1.035 4.19 1.035 1.551 0 2.804-.434a6 6 0 0 0 2.186-1.335q.918-.902 1.419-2.237l3.805 1.068a8.44 8.44 0 0 1-2.02 3.405q-1.418 1.452-3.504 2.27-2.087.801-4.69.801M379.196 793.578V809h-3.939v-25.636h3.806v4.005h.334a7.3 7.3 0 0 1 2.737-3.137q1.836-1.202 4.74-1.202 2.604 0 4.556 1.068 1.953 1.051 3.038 3.205 1.085 2.136 1.085 5.407V809h-3.939v-16.023q0-3.021-1.569-4.706-1.569-1.703-4.306-1.703-1.886 0-3.371.818-1.47.818-2.32 2.387-.852 1.569-.852 3.805M419.446 818.614a8.7 8.7 0 0 1-1.786-.167q-.784-.15-1.084-.301l1.001-3.471q1.436.367 2.537.267t1.953-.985q.868-.868 1.585-2.821l.735-2.002-9.481-25.77h4.273l7.077 20.429h.267l7.077-20.429h4.272l-10.882 29.375q-.734 1.986-1.819 3.288-1.084 1.319-2.52 1.952-1.419.635-3.205.635M453.038 809.534q-3.471 0-6.092-1.652-2.604-1.653-4.072-4.623-1.452-2.971-1.452-6.944 0-4.005 1.452-6.993 1.468-2.988 4.072-4.64 2.62-1.652 6.092-1.652t6.076 1.652q2.62 1.652 4.072 4.64 1.469 2.988 1.469 6.993 0 3.973-1.469 6.944-1.452 2.97-4.072 4.623-2.604 1.652-6.076 1.652m0-3.538q2.637 0 4.34-1.352 1.703-1.351 2.52-3.555.818-2.203.818-4.774 0-2.57-.818-4.79-.817-2.22-2.52-3.588-1.703-1.37-4.34-1.369-2.637 0-4.339 1.369t-2.52 3.588q-.818 2.22-.818 4.79t.818 4.774 2.52 3.555 4.339 1.352M487.294 798.518v-15.154h3.939V809h-3.939v-4.339h-.267q-.902 1.952-2.804 3.321-1.903 1.352-4.807 1.352-2.404 0-4.273-1.052-1.869-1.068-2.937-3.204-1.07-2.154-1.069-5.425v-16.289h3.939v16.022q0 2.805 1.569 4.473 1.586 1.67 4.039 1.669 1.469 0 2.988-.751 1.536-.75 2.57-2.303 1.052-1.552 1.052-3.956M518.414 809l-7.811-25.636h4.139l5.541 19.627h.267l5.475-19.627h4.206l5.407 19.561h.267l5.542-19.561h4.139L537.775 809h-3.872l-5.608-19.695h-.401L522.286 809zM551.263 809v-25.636h3.939V809zm2.003-29.909a2.8 2.8 0 0 1-1.986-.785q-.818-.784-.818-1.886t.818-1.886a2.8 2.8 0 0 1 1.986-.784q1.151 0 1.97.784.834.785.834 1.886 0 1.102-.834 1.886a2.75 2.75 0 0 1-1.97.785M566.825 774.818V809h-3.938v-34.182zM578.449 774.818V809h-3.939v-34.182zM599.822 809v-25.636h3.805v3.872h.267q.701-1.903 2.537-3.088t4.14-1.185q.433 0 1.084.017t.985.05v4.006a11 11 0 0 0-.918-.151 9 9 0 0 0-1.485-.117q-1.87 0-3.338.785a5.9 5.9 0 0 0-2.304 2.136q-.834 1.353-.834 3.088V809zM627.748 809.534q-3.706 0-6.393-1.636-2.67-1.652-4.122-4.606-1.436-2.971-1.436-6.91t1.436-6.943q1.452-3.021 4.039-4.707 2.603-1.702 6.075-1.702 2.003 0 3.956.667 1.952.669 3.555 2.17 1.602 1.485 2.553 3.939.952 2.454.952 6.042v1.669h-19.762v-3.405h15.756q0-2.17-.868-3.872a6.53 6.53 0 0 0-2.437-2.687q-1.569-.985-3.705-.985-2.353 0-4.072 1.169a7.7 7.7 0 0 0-2.621 3.004 8.8 8.8 0 0 0-.918 3.972v2.27q0 2.904 1.002 4.924 1.018 2.002 2.82 3.054 1.803 1.035 4.19 1.035 1.551 0 2.804-.434a6 6 0 0 0 2.186-1.335q.918-.902 1.419-2.237l3.805 1.068a8.45 8.45 0 0 1-2.019 3.405q-1.42 1.452-3.505 2.27-2.087.801-4.69.801M652.368 809.601q-2.436 0-4.423-.918-1.986-.935-3.154-2.687-1.168-1.77-1.168-4.273 0-2.203.868-3.572a6.1 6.1 0 0 1 2.32-2.169 12.2 12.2 0 0 1 3.204-1.169 39 39 0 0 1 3.555-.634q2.337-.3 3.789-.451 1.469-.167 2.136-.55.685-.384.685-1.336v-.133q0-2.47-1.352-3.839-1.336-1.369-4.056-1.369-2.821 0-4.423 1.236t-2.253 2.637l-3.739-1.336q1.002-2.336 2.671-3.638a10 10 0 0 1 3.671-1.836 15.3 15.3 0 0 1 3.939-.534q1.236 0 2.838.3a9.1 9.1 0 0 1 3.121 1.185q1.518.902 2.52 2.721 1.002 1.82 1.001 4.873V809h-3.938v-3.472h-.201q-.4.835-1.335 1.786t-2.487 1.619-3.789.668m.601-3.539q2.337 0 3.939-.917 1.62-.918 2.437-2.37.835-1.453.835-3.055v-3.605q-.251.3-1.102.551-.835.234-1.936.417-1.085.166-2.12.301-1.018.116-1.652.2a15 15 0 0 0-2.871.651q-1.318.434-2.136 1.318-.801.868-.801 2.37 0 2.053 1.518 3.105 1.536 1.035 3.889 1.034M681.458 809.534q-3.204 0-5.658-1.619-2.453-1.635-3.839-4.606-1.385-2.988-1.385-7.06 0-4.04 1.385-7.01 1.386-2.971 3.856-4.59 2.47-1.62 5.708-1.619 2.504 0 3.956.834 1.468.819 2.236 1.87.785 1.035 1.218 1.702h.334v-12.618h3.939V809h-3.805v-3.939h-.468a25 25 0 0 1-1.235 1.769q-.801 1.052-2.286 1.886-1.485.818-3.956.818m.534-3.538q2.37 0 4.006-1.235 1.635-1.252 2.487-3.455.85-2.22.851-5.124 0-2.871-.834-5.024-.835-2.17-2.471-3.371-1.635-1.22-4.039-1.219-2.504 0-4.172 1.285-1.653 1.27-2.487 3.455-.818 2.17-.818 4.874 0 2.737.835 4.974.851 2.219 2.503 3.538 1.67 1.302 4.139 1.302M726.277 783.364v3.338h-13.285v-3.338zm-9.413-6.142h3.939v24.434q0 1.669.484 2.504.5.817 1.268 1.101a5.1 5.1 0 0 0 1.653.267q.65 0 1.068-.066l.667-.134.802 3.538q-.401.151-1.119.301-.718.167-1.819.167a7.9 7.9 0 0 1-3.271-.718 6.5 6.5 0 0 1-2.637-2.186q-1.035-1.469-1.035-3.706zM737.162 793.578V809h-3.939v-34.182h3.939v12.551h.334a7.25 7.25 0 0 1 2.704-3.154q1.819-1.185 4.84-1.185 2.62 0 4.59 1.051 1.97 1.035 3.054 3.188 1.101 2.136 1.101 5.441V809h-3.938v-16.023q0-3.054-1.586-4.723-1.569-1.686-4.356-1.686-1.936 0-3.472.818-1.518.818-2.403 2.387-.868 1.569-.868 3.805M761.462 809v-25.636h3.938V809zm2.002-29.909a2.8 2.8 0 0 1-1.986-.785q-.818-.784-.818-1.886t.818-1.886a2.8 2.8 0 0 1 1.986-.784q1.152 0 1.97.784.834.785.834 1.886 0 1.102-.834 1.886a2.74 2.74 0 0 1-1.97.785M791.244 789.105l-3.538 1.002a6.6 6.6 0 0 0-.985-1.72q-.635-.85-1.736-1.402-1.102-.55-2.821-.55-2.352 0-3.922 1.085-1.552 1.068-1.552 2.72 0 1.469 1.068 2.32t3.338 1.419l3.806.934q3.438.835 5.124 2.554 1.685 1.702 1.685 4.39 0 2.202-1.268 3.938-1.252 1.737-3.505 2.738t-5.241 1.001q-3.923 0-6.492-1.702-2.571-1.702-3.255-4.974l3.739-.935q.534 2.07 2.019 3.105 1.503 1.035 3.922 1.034 2.754 0 4.373-1.168 1.636-1.185 1.636-2.837 0-1.335-.935-2.237-.935-.918-2.871-1.368l-4.272-1.002q-3.522-.834-5.174-2.587-1.636-1.768-1.636-4.423 0-2.17 1.218-3.838 1.236-1.67 3.355-2.621 2.137-.951 4.84-.951 3.805 0 5.976 1.669 2.186 1.669 3.104 4.406M134.91 482h31.8l7.92 31.68h1.08l8.04-31.68h31.8l-25.92 65.52V572h-28.8v-24.48zM215.055 536q0-19.32 9-28.68 9-9.48 29.16-9.48t29.16 9.48q9 9.36 9 28.68t-9 28.8q-9 9.36-29.16 9.36-19.68 0-28.92-9.24t-9.24-28.92m30.96-11.04v28.2h4.44q5.28 0 7.56-1.08 2.4-1.08 2.4-5.04v-28.2h-4.44q-5.28 0-7.68 1.08-2.28 1.08-2.28 5.04M296.656 500h28.8v53.16h4.44q5.28 0 7.56-1.08 2.4-1.08 2.4-5.04V500h28.8v72h-14.4l-8.4-8.16q-8.64 10.32-24.6 10.32-12.84 0-18.72-5.4-5.88-5.52-5.88-18.36zM452.634 572h-33.96l-14.4-72h28.2l5.88 42.72h1.56l9.12-42.72h21.6l8.04 42.72h1.56l6.96-42.72h28.2l-14.4 72h-35.4l-5.64-30.96h-1.08zM548.629 572h-28.8v-68.4l28.8-3.6zm-30.36-85.56q0-3.24.72-5.4.72-2.28 2.52-3.6 1.8-1.44 4.92-2.04t7.92-.6 7.8.6q3.12.6 4.92 2.04 1.8 1.32 2.52 3.6.72 2.16.72 5.4t-.72 5.4a7.6 7.6 0 0 1-2.52 3.6q-1.8 1.32-4.92 1.92-3 .48-7.8.48-3.48 0-6.48-.24-2.88-.24-5.04-1.32-2.16-1.2-3.36-3.48t-1.2-6.36M558.271 478.4l28.8-2.16v75.12q2.28.48 4.08.72t3 .36l-1.32 21.12q-18.36 0-24.36-2.16-5.04-1.8-7.68-4.68-2.52-2.88-2.52-8.28zM598.002 478.4l28.8-2.16v75.12q2.28.48 4.08.72t3 .36l-1.32 21.12q-18.36 0-24.36-2.16-5.04-1.8-7.68-4.68-2.52-2.88-2.52-8.28zM668.91 572v-72h14.4l7.92 8.04q8.64-7.92 21.36-10.2l1.68 27.24q-1.68 0-4.08.48t-4.92 1.2q-2.4.72-4.44 1.8-2.04.96-3.12 2.28V572zM746.214 547.52v5.04a79 79 0 0 0 8.64.48q13.44 0 27.12-4.32l3.36 21.12q-16.2 4.32-31.92 4.32-20.16 0-29.16-9.36-9-9.48-9-28.8t9-28.68q9.12-9.48 29.16-9.48 10.08 0 16.8 1.32 6.72 1.2 10.8 4.2 4.2 2.88 5.88 7.92 1.8 4.92 1.8 12.48 0 6.24-2.16 10.8-2.04 4.44-6.96 7.32t-13.08 4.32q-8.16 1.32-20.28 1.32m0-22.56v5.88h5.88q5.28 0 7.56-1.08 2.4-1.08 2.4-5.04v-5.88h-5.88q-5.28 0-7.68 1.08-2.28 1.08-2.28 5.04M828.742 497.84q34.56 0 34.56 23.76V572h-14.4l-8.16-8.16q-2.16 2.4-5.16 4.32-2.88 1.92-6.24 3.24t-6.84 2.04-6.72.72q-6.12 0-11.04-1.32-4.8-1.2-8.16-3.96t-5.16-7.32-1.8-11.16q0-25.92 39.12-25.92h5.76v-5.16q-2.28-.12-4.2-.24-1.8-.12-3.36-.12-16.2 0-27.96 3.96l-3.48-20.64q14.4-4.44 33.24-4.44m-10.08 49.44v5.88h6q6.24 0 8.16-1.44 1.68-1.56 1.68-3.72v-6.84h-5.88q-5.16 0-7.56 1.08t-2.4 5.04M942.704 476.24V572h-14.4l-6.24-6q-6.12 8.16-22.56 8.16-8.64 0-14.52-3.12t-9.6-8.28q-3.6-5.28-5.28-12.24-1.56-6.96-1.56-14.52 0-7.2 1.44-13.68 1.44-6.6 4.8-11.52t8.88-7.8q5.52-3 13.68-3h16.56v-21.6zm-43.2 48.72v28.2h4.44q4.92 0 7.2-.84 2.4-.96 2.76-4.32v-29.16h-4.44q-5.28 0-7.68 1.08-2.28 1.08-2.28 5.04M286.738 650.6h-7.2V632h7.2v-11.52l28.8-7.2V632h9.96v18.6h-9.96v32.76q1.8.36 3.96.72 2.16.24 4.56.36l-1.32 21.12q-19.68 0-25.68-2.16-5.04-1.8-7.68-4.56-2.64-2.88-2.64-8.4zM360.241 659.6V704h-28.8v-93.6l28.8-2.16v26.4q9.24-4.8 20.4-4.8 11.28 0 17.04 4.44 5.76 4.32 5.76 12.12V704h-28.8v-50.4h-4.44q-5.28 0-7.68 1.08-2.28 1.08-2.28 4.92M441.105 704h-28.8v-68.4l28.8-3.6zm-30.36-85.56q0-3.24.72-5.4.72-2.28 2.52-3.6 1.8-1.44 4.92-2.04t7.92-.6 7.8.6q3.12.6 4.92 2.04 1.8 1.32 2.52 3.6.72 2.16.72 5.4t-.72 5.4a7.6 7.6 0 0 1-2.52 3.6q-1.8 1.32-4.92 1.92-3 .48-7.8.48-3.48 0-6.48-.24-2.88-.24-5.04-1.32-2.16-1.2-3.36-3.48t-1.2-6.36M457.707 634.88q9.24-5.04 25.32-5.04 16.2 0 29.64 4.44l-3.36 19.56a71.4 71.4 0 0 0-11.16-2.4q-5.52-.72-11.28-.72-1.68 0-4.2.12-2.4.12-5.52.48v4.56q6.6 0 13.56.72 6.96.6 12.6 3.12 5.76 2.4 9.36 7.32 3.72 4.8 3.72 13.2 0 5.88-1.32 10.56-1.32 4.56-4.08 7.32-2.88 2.76-6 4.44-3 1.68-7.92 2.4-3.84.6-8.28.84-4.32.36-9.36.36-17.64 0-32.28-4.2l3.6-20.4a93 93 0 0 0 12.6 2.76q6.48.96 13.56.96 3.24 0 6.12-.12 3-.12 5.76-.48v-4.56q-11.52 0-19.32-1.44-7.68-1.56-12.48-4.68-4.68-3.12-6.72-8.16-1.92-5.04-1.92-12 0-13.92 9.36-18.96M597.707 627.08l-11.76-1.08v6h8.64v18.72h-8.64V704h-28.8v-53.28h-7.2V632h7.2l.96-8.64q2.04-16.56 25.44-16.56 6.12 0 15.84 1.44z"/><path fill="#000" d="M628.389 704h-28.8v-68.4l28.8-3.6zm-30.36-85.56q0-3.24.72-5.4.72-2.28 2.52-3.6 1.8-1.44 4.92-2.04t7.92-.6 7.8.6q3.12.6 4.92 2.04 1.8 1.32 2.52 3.6.72 2.16.72 5.4t-.72 5.4a7.6 7.6 0 0 1-2.52 3.6q-1.8 1.32-4.92 1.92-3 .48-7.8.48-3.48 0-6.48-.24-2.88-.24-5.04-1.32-2.16-1.2-3.36-3.48t-1.2-6.36M638.031 704v-72h14.4l7.92 8.04q8.64-7.92 21.36-10.2l1.68 27.24q-1.68 0-4.08.48t-4.92 1.2q-2.4.72-4.44 1.8-2.04.96-3.12 2.28V704zM694.215 634.88q9.24-5.04 25.32-5.04 16.2 0 29.64 4.44l-3.36 19.56a71.4 71.4 0 0 0-11.16-2.4q-5.52-.72-11.28-.72-1.68 0-4.2.12-2.4.12-5.52.48v4.56q6.6 0 13.56.72 6.96.6 12.6 3.12 5.76 2.4 9.36 7.32 3.72 4.8 3.72 13.2 0 5.88-1.32 10.56-1.32 4.56-4.08 7.32-2.88 2.76-6 4.44-3 1.68-7.92 2.4-3.84.6-8.28.84-4.32.36-9.36.36-17.64 0-32.28-4.2l3.6-20.4a93 93 0 0 0 12.6 2.76q6.48.96 13.56.96 3.24 0 6.12-.12 3-.12 5.76-.48v-4.56q-11.52 0-19.32-1.44-7.68-1.56-12.48-4.68-4.68-3.12-6.72-8.16-1.92-5.04-1.92-12 0-13.92 9.36-18.96M761.038 650.6h-7.2V632h7.2v-11.52l28.8-7.2V632h9.96v18.6h-9.96v32.76q1.8.36 3.96.72 2.16.24 4.56.36l-1.32 21.12q-19.68 0-25.68-2.16-5.04-1.8-7.68-4.56-2.64-2.88-2.64-8.4z"/></svg>