<svg xmlns="http://www.w3.org/2000/svg" width="1080" height="1350" fill="none"><path fill="#000" d="M298.485 448h-3.693l10.682-29.091h3.636L319.792 448h-3.693l-8.693-24.489h-.227zm1.364-11.364h14.886v3.125h-14.886zm27.372-1.761V448h-3.352v-21.818h3.239v3.409h.284a6.24 6.24 0 0 1 2.329-2.671q1.563-1.022 4.034-1.022 2.216 0 3.878.909 1.662.894 2.585 2.727.924 1.818.924 4.602V448h-3.353v-13.636q0-2.572-1.335-4.006-1.335-1.449-3.665-1.449-1.605 0-2.869.696-1.25.696-1.974 2.031-.725 1.336-.725 3.239m28.285 13.58q-2.727 0-4.815-1.378-2.088-1.392-3.267-3.921-1.179-2.543-1.179-6.008 0-3.438 1.179-5.966t3.281-3.906 4.858-1.378q2.13 0 3.366.71 1.25.696 1.904 1.591.667.88 1.037 1.449h.284v-10.739h3.352V448h-3.239v-3.352h-.397q-.37.596-1.051 1.505-.683.895-1.946 1.606-1.264.696-3.367.696m.455-3.012q2.016 0 3.409-1.051 1.392-1.065 2.116-2.94.725-1.89.725-4.361 0-2.443-.711-4.276-.71-1.846-2.102-2.869-1.392-1.037-3.437-1.037-2.131 0-3.552 1.094-1.406 1.08-2.116 2.94-.696 1.847-.696 4.148 0 2.33.71 4.233.724 1.889 2.131 3.011 1.42 1.108 3.523 1.108m29.559 10.739a7.4 7.4 0 0 1-1.52-.142q-.667-.128-.923-.256l.852-2.954q1.222.312 2.159.227.938-.085 1.662-.838.74-.74 1.35-2.401l.625-1.704-8.068-21.932h3.636l6.023 17.386h.227l6.023-17.386h3.636l-9.261 25q-.625 1.69-1.549 2.798-.923 1.122-2.144 1.662-1.208.54-2.728.54m28.189-7.727q-2.955 0-5.184-1.407-2.217-1.406-3.466-3.934-1.236-2.53-1.236-5.909 0-3.41 1.236-5.952 1.25-2.543 3.466-3.949 2.229-1.406 5.184-1.406t5.171 1.406q2.23 1.406 3.466 3.949 1.25 2.543 1.25 5.952 0 3.38-1.25 5.909-1.236 2.528-3.466 3.934-2.217 1.407-5.171 1.407m0-3.012q2.244 0 3.693-1.15t2.145-3.026q.696-1.875.696-4.062t-.696-4.077-2.145-3.054q-1.449-1.165-3.693-1.165t-3.693 1.165q-1.449 1.164-2.145 3.054t-.696 4.077.696 4.062 2.145 3.026q1.449 1.15 3.693 1.15m28.754-6.363v-12.898h3.352V448h-3.352v-3.693h-.228q-.766 1.662-2.386 2.827-1.619 1.15-4.091 1.15-2.045 0-3.636-.895-1.591-.909-2.5-2.727-.909-1.832-.909-4.617v-13.863h3.352v13.636q0 2.387 1.335 3.807 1.35 1.42 3.438 1.42 1.25 0 2.542-.639 1.308-.639 2.188-1.96.894-1.321.895-3.366m25.685 8.92-6.648-21.818h3.523l4.716 16.704h.227l4.659-16.704h3.58l4.602 16.648h.227l4.716-16.648h3.523L484.625 448h-3.295l-4.773-16.761h-.341L471.444 448zm27.557 0v-21.818h3.352V448zm1.704-25.455a2.38 2.38 0 0 1-1.69-.667q-.696-.667-.696-1.605t.696-1.605a2.38 2.38 0 0 1 1.69-.668q.981 0 1.677.668.71.667.71 1.605t-.71 1.605a2.34 2.34 0 0 1-1.677.667m11.14-3.636V448h-3.352v-29.091zm9.493 0V448h-3.353v-29.091zM535.431 448v-21.818h3.239v3.295h.227q.597-1.618 2.159-2.628 1.563-1.008 3.523-1.008.37 0 .923.014.555.015.839.043v3.409a10 10 0 0 0-.782-.128 8 8 0 0 0-1.264-.099q-1.59 0-2.841.667a5.04 5.04 0 0 0-1.96 1.818q-.71 1.15-.71 2.628V448zm23.367.455q-3.154 0-5.44-1.393-2.274-1.406-3.509-3.92-1.221-2.529-1.222-5.881 0-3.351 1.222-5.909 1.236-2.571 3.438-4.005 2.215-1.449 5.17-1.449 1.705 0 3.367.568t3.025 1.846q1.364 1.265 2.173 3.353.81 2.088.81 5.142v1.42h-16.818v-2.897h13.409q0-1.848-.739-3.296a5.57 5.57 0 0 0-2.074-2.287q-1.335-.838-3.153-.838-2.002 0-3.466.994a6.55 6.55 0 0 0-2.23 2.557 7.5 7.5 0 0 0-.781 3.381v1.932q0 2.47.852 4.19.867 1.704 2.401 2.599 1.534.881 3.565.881 1.321 0 2.386-.369a5.1 5.1 0 0 0 1.861-1.136q.781-.767 1.207-1.904l3.239.909a7.2 7.2 0 0 1-1.719 2.898q-1.207 1.236-2.983 1.932-1.775.682-3.991.682m20.554.056q-2.074 0-3.764-.781-1.69-.795-2.685-2.287-.994-1.506-.994-3.636 0-1.875.738-3.04a5.2 5.2 0 0 1 1.975-1.847 10.4 10.4 0 0 1 2.727-.994 33 33 0 0 1 3.026-.54q1.988-.255 3.224-.383 1.25-.142 1.818-.469.583-.327.583-1.136v-.114q0-2.101-1.151-3.267-1.136-1.165-3.452-1.165-2.4 0-3.764 1.051t-1.917 2.245l-3.182-1.137q.852-1.988 2.272-3.096a8.5 8.5 0 0 1 3.125-1.563 13 13 0 0 1 3.353-.454q1.05 0 2.415.255a7.8 7.8 0 0 1 2.656 1.009q1.292.767 2.145 2.315.852 1.548.852 4.148V448H586v-2.955h-.171q-.34.711-1.136 1.52-.795.81-2.117 1.378-1.32.568-3.224.568m.511-3.011q1.989 0 3.353-.781 1.377-.781 2.073-2.017a5.14 5.14 0 0 0 .711-2.6v-3.068q-.213.256-.938.469a16 16 0 0 1-1.648.355 74 74 0 0 1-1.804.256q-.866.1-1.406.17-1.306.17-2.443.554-1.122.369-1.818 1.122-.682.74-.682 2.017 0 1.748 1.293 2.642 1.307.88 3.309.881m23.846 2.955q-2.727 0-4.815-1.378-2.088-1.392-3.267-3.921-1.179-2.543-1.179-6.008 0-3.438 1.179-5.966t3.281-3.906 4.858-1.378q2.13 0 3.366.71 1.25.696 1.904 1.591.668.88 1.037 1.449h.284v-10.739h3.352V448h-3.238v-3.352h-.398q-.37.596-1.051 1.505-.683.895-1.946 1.606-1.264.696-3.367.696m.455-3.012q2.017 0 3.409-1.051 1.392-1.065 2.116-2.94.725-1.89.725-4.361 0-2.443-.711-4.276-.71-1.846-2.102-2.869-1.392-1.037-3.437-1.037-2.131 0-3.551 1.094-1.407 1.08-2.117 2.94-.696 1.847-.696 4.148 0 2.33.71 4.233.724 1.889 2.131 3.011 1.42 1.108 3.523 1.108m36.889-19.261v2.841h-11.307v-2.841zm-8.011-5.227h3.352v20.795q0 1.42.412 2.131.426.696 1.079.937.668.227 1.407.227.554 0 .909-.056l.568-.114.682 3.011a7 7 0 0 1-.952.256q-.61.142-1.548.142a6.75 6.75 0 0 1-2.784-.611 5.5 5.5 0 0 1-2.245-1.861q-.88-1.25-.88-3.153zm16.875 13.92V448h-3.353v-29.091h3.353v10.682h.284a6.16 6.16 0 0 1 2.301-2.685q1.548-1.008 4.119-1.008 2.23 0 3.906.895 1.677.88 2.6 2.713.937 1.818.937 4.63V448h-3.352v-13.636q0-2.6-1.349-4.02-1.336-1.435-3.708-1.435-1.647 0-2.954.696-1.293.696-2.046 2.031-.738 1.336-.738 3.239M670.197 448v-21.818h3.352V448zm1.705-25.455a2.38 2.38 0 0 1-1.691-.667q-.696-.667-.696-1.605t.696-1.605a2.39 2.39 0 0 1 1.691-.668q.98 0 1.676.668.71.667.71 1.605t-.71 1.605a2.34 2.34 0 0 1-1.676.667m23.242 8.523-3.012.852a5.6 5.6 0 0 0-.838-1.463q-.539-.724-1.477-1.193-.937-.469-2.4-.469-2.003 0-3.339.924-1.32.91-1.321 2.315 0 1.25.91 1.975.91.724 2.84 1.207l3.239.795q2.926.71 4.361 2.174 1.434 1.449 1.435 3.735 0 1.875-1.08 3.353-1.066 1.477-2.983 2.329t-4.46.853q-3.338 0-5.526-1.449t-2.77-4.233l3.182-.796q.454 1.762 1.719 2.642 1.278.88 3.338.881 2.344 0 3.722-.994 1.392-1.01 1.392-2.415 0-1.137-.796-1.903-.795-.782-2.443-1.165l-3.636-.853q-2.997-.71-4.404-2.201-1.392-1.506-1.392-3.764 0-1.848 1.037-3.267 1.052-1.42 2.855-2.231 1.818-.809 4.12-.809 3.239 0 5.085 1.42 1.86 1.42 2.642 3.75m20.046-12.159V448h-3.352v-29.091zm12.56 29.602q-2.073 0-3.764-.781-1.69-.795-2.685-2.287-.993-1.506-.994-3.636 0-1.875.739-3.04a5.2 5.2 0 0 1 1.974-1.847 10.4 10.4 0 0 1 2.728-.994 33 33 0 0 1 3.025-.54q1.989-.255 3.225-.383 1.25-.142 1.818-.469.582-.327.582-1.136v-.114q0-2.101-1.15-3.267-1.137-1.165-3.452-1.165-2.401 0-3.764 1.051-1.364 1.051-1.918 2.245l-3.182-1.137q.852-1.988 2.273-3.096a8.5 8.5 0 0 1 3.125-1.563 13 13 0 0 1 3.352-.454q1.052 0 2.415.255a7.7 7.7 0 0 1 2.656 1.009q1.293.767 2.145 2.315t.852 4.148V448h-3.352v-2.955h-.17q-.341.711-1.137 1.52-.795.81-2.116 1.378t-3.225.568m.512-3.011q1.988 0 3.352-.781 1.378-.781 2.074-2.017.71-1.236.71-2.6v-3.068q-.213.256-.937.469-.71.199-1.648.355-.924.142-1.804.256-.867.1-1.406.17-1.308.17-2.444.554-1.122.369-1.818 1.122-.682.74-.682 2.017 0 1.748 1.293 2.642 1.306.88 3.31.881m31.062-14.432-3.012.852a5.6 5.6 0 0 0-.838-1.463q-.54-.724-1.477-1.193t-2.401-.469q-2.003 0-3.338.924-1.321.91-1.321 2.315 0 1.25.909 1.975.909.724 2.841 1.207l3.239.795q2.926.71 4.361 2.174 1.434 1.449 1.434 3.735 0 1.875-1.079 3.353-1.066 1.477-2.983 2.329t-4.46.853q-3.339 0-5.526-1.449t-2.77-4.233l3.182-.796q.454 1.762 1.719 2.642 1.278.88 3.338.881 2.343 0 3.721-.994 1.392-1.01 1.392-2.415 0-1.137-.795-1.903-.795-.782-2.443-1.165l-3.637-.853q-2.997-.71-4.403-2.201-1.392-1.506-1.392-3.764 0-1.848 1.037-3.267 1.051-1.42 2.855-2.231 1.818-.809 4.119-.809 3.239 0 5.085 1.42 1.861 1.42 2.643 3.75m14.932-4.886v2.841h-11.307v-2.841zm-8.011-5.227h3.352v20.795q0 1.42.412 2.131.426.696 1.079.937.668.227 1.407.227.554 0 .909-.056l.568-.114.682 3.011a7 7 0 0 1-.952.256q-.61.142-1.548.142a6.75 6.75 0 0 1-2.784-.611 5.5 5.5 0 0 1-2.245-1.861q-.88-1.25-.88-3.153zM222.714 496.6l-27.6 53.16V580h-13.68v-30.24l-27.72-53.16h15.24l19.32 40.92 19.32-40.92zm39.536 84.48q-9.36 0-16.92-4.2-7.56-4.32-11.88-12-4.32-7.8-4.32-18 0-10.08 4.44-17.88t12.12-12 17.16-4.2 17.16 4.2 12.12 12 4.44 17.88-4.56 17.88-12.48 12.12q-7.8 4.2-17.28 4.2m0-11.88q5.28 0 9.84-2.52 4.68-2.52 7.56-7.56t2.88-12.24-2.76-12.12q-2.76-5.04-7.32-7.56t-9.84-2.52-9.84 2.52q-4.44 2.52-7.08 7.56-2.64 4.92-2.64 12.12 0 10.68 5.4 16.56 5.52 5.76 13.8 5.76m107.724-55.32V580h-13.68v-7.8q-3.24 4.08-8.52 6.48-5.16 2.28-11.04 2.28-7.8 0-14.04-3.24-6.12-3.24-9.72-9.6-3.48-6.36-3.48-15.36v-38.88h13.56v36.84q0 8.88 4.44 13.68 4.44 4.68 12.12 4.68t12.12-4.68q4.56-4.8 4.56-13.68v-36.84zm138.021 0L487.475 580h-14.4l-13.32-48.84-13.32 48.84h-14.4l-20.64-66.12h13.92l13.8 53.16 14.04-53.16h14.28l13.44 52.92 13.68-52.92zm17.184-8.76q-3.72 0-6.24-2.52t-2.52-6.24 2.52-6.24 6.24-2.52q3.6 0 6.12 2.52t2.52 6.24-2.52 6.24-6.12 2.52m6.72 8.76V580h-13.68v-66.12zm31.64-22.68V580h-13.68v-88.8zm31.641 0V580H581.5v-88.8zm62.813 32.28q3-5.04 7.92-7.8 5.04-2.88 11.88-2.88v14.16h-3.48q-8.04 0-12.24 4.08-4.08 4.08-4.08 14.16V580h-13.68v-66.12h13.68zm92.974 21.84q0 3.72-.48 6.72h-50.52q.6 7.92 5.88 12.72t12.96 4.8q11.04 0 15.6-9.24h14.76q-3 9.12-10.92 15-7.8 5.76-19.44 5.76-9.48 0-17.04-4.2-7.44-4.32-11.76-12-4.2-7.8-4.2-18t4.08-17.88q4.2-7.8 11.64-12 7.56-4.2 17.28-4.2 9.36 0 16.68 4.08t11.4 11.52q4.08 7.32 4.08 16.92m-14.28-4.32q-.12-7.56-5.4-12.12t-13.08-4.56q-7.08 0-12.12 4.56-5.04 4.44-6 12.12zm23.183 5.64q0-9.96 4.08-17.64 4.2-7.68 11.28-11.88 7.2-4.32 15.84-4.32 7.8 0 13.56 3.12 5.88 3 9.36 7.56v-9.6h13.8V580h-13.8v-9.84q-3.48 4.68-9.48 7.8t-13.68 3.12q-8.52 0-15.6-4.32-7.08-4.44-11.28-12.24-4.08-7.92-4.08-17.88m54.12.24q0-6.84-2.88-11.88-2.76-5.04-7.32-7.68t-9.84-2.64-9.84 2.64q-4.56 2.52-7.44 7.56-2.76 4.92-2.76 11.76t2.76 12q2.88 5.16 7.44 7.92 4.68 2.64 9.84 2.64 5.28 0 9.84-2.64t7.32-7.68q2.88-5.16 2.88-12m27.208-.24q0-9.96 4.08-17.64 4.2-7.68 11.28-11.88 7.2-4.32 15.96-4.32 6.48 0 12.72 2.88 6.36 2.76 10.08 7.44V491.2h13.8V580h-13.8v-9.96q-3.36 4.8-9.36 7.92-5.88 3.12-13.56 3.12-8.64 0-15.84-4.32-7.08-4.44-11.28-12.24-4.08-7.92-4.08-17.88m54.12.24q0-6.84-2.88-11.88-2.76-5.04-7.32-7.68t-9.84-2.64-9.84 2.64q-4.56 2.52-7.44 7.56-2.76 4.92-2.76 11.76t2.76 12q2.88 5.16 7.44 7.92 4.68 2.64 9.84 2.64 5.28 0 9.84-2.64t7.32-7.68q2.88-5.16 2.88-12M322.069 657.04v36.6q0 3.72 1.68 5.4 1.8 1.56 6 1.56h8.4V712h-10.8q-9.24 0-14.16-4.32t-4.92-14.04v-36.6h-7.8v-11.16h7.8v-16.44h13.8v16.44h16.08v11.16zm62.889-12.24q7.56 0 13.44 3.24 6 3.24 9.36 9.6 3.48 6.36 3.48 15.36v39h-13.56v-36.96q0-8.88-4.44-13.56-4.44-4.8-12.12-4.8t-12.24 4.8q-4.44 4.68-4.44 13.56V712h-13.68v-88.8h13.68v30.36q3.48-4.2 8.76-6.48 5.4-2.28 11.76-2.28m50.69-7.68q-3.72 0-6.24-2.52t-2.52-6.24 2.52-6.24 6.24-2.52q3.6 0 6.12 2.52t2.52 6.24-2.52 6.24-6.12 2.52m6.72 8.76V712h-13.68v-66.12zm41.96 67.2q-7.8 0-14.04-2.76-6.12-2.88-9.72-7.68-3.6-4.92-3.84-10.92h14.16q.36 4.2 3.96 7.08 3.72 2.76 9.24 2.76 5.76 0 8.88-2.16 3.24-2.28 3.24-5.76 0-3.72-3.6-5.52-3.48-1.8-11.16-3.96-7.44-2.04-12.12-3.96t-8.16-5.88q-3.36-3.96-3.36-10.44 0-5.28 3.12-9.6 3.12-4.44 8.88-6.96 5.88-2.52 13.44-2.52 11.28 0 18.12 5.76 6.96 5.64 7.44 15.48h-13.68q-.36-4.44-3.6-7.08t-8.76-2.64q-5.4 0-8.28 2.04t-2.88 5.4q0 2.64 1.92 4.44t4.68 2.88q2.76.96 8.16 2.52 7.2 1.92 11.76 3.96 4.68 1.92 8.04 5.76t3.48 10.2q0 5.64-3.12 10.08t-8.88 6.96q-5.64 2.52-13.32 2.52m98.994-56.04h-12.24V712h-13.8v-54.96h-7.8v-11.16h7.8v-4.68q0-11.4 6-16.56 6.12-5.28 19.08-5.28v11.4q-6.24 0-8.76 2.4-2.52 2.28-2.52 8.04v4.68h12.24zm19.083-19.92q-3.72 0-6.24-2.52t-2.52-6.24 2.52-6.24 6.24-2.52q3.6 0 6.12 2.52t2.52 6.24-2.52 6.24-6.12 2.52m6.72 8.76V712h-13.68v-66.12zm31.641 9.6q3-5.04 7.92-7.8 5.04-2.88 11.88-2.88v14.16h-3.48q-8.04 0-12.24 4.08-4.08 4.08-4.08 14.16V712h-13.68v-66.12h13.68zm56.375 57.6q-7.8 0-14.04-2.76-6.12-2.88-9.72-7.68-3.6-4.92-3.84-10.92h14.16q.36 4.2 3.96 7.08 3.72 2.76 9.24 2.76 5.76 0 8.88-2.16 3.24-2.28 3.24-5.76 0-3.72-3.6-5.52-3.48-1.8-11.16-3.96-7.44-2.04-12.12-3.96t-8.16-5.88q-3.36-3.96-3.36-10.44 0-5.28 3.12-9.6 3.12-4.44 8.88-6.96 5.88-2.52 13.44-2.52 11.28 0 18.12 5.76 6.96 5.64 7.44 15.48h-13.68q-.36-4.44-3.6-7.08t-8.76-2.64q-5.4 0-8.28 2.04t-2.88 5.4q0 2.64 1.92 4.44t4.68 2.88q2.76.96 8.16 2.52 7.2 1.92 11.76 3.96 4.68 1.92 8.04 5.76t3.48 10.2q0 5.64-3.12 10.08t-8.88 6.96q-5.64 2.52-13.32 2.52m56.061-56.04v36.6q0 3.72 1.68 5.4 1.8 1.56 6 1.56h8.4V712h-10.8q-9.24 0-14.16-4.32t-4.92-14.04v-36.6h-7.8v-11.16h7.8v-16.44h13.8v16.44h16.08v11.16zM282.646 779.841v-3.75h26.182v3.75h-10.977V811h-4.227v-31.159zm36.184 15.409V811h-4.023v-34.909h4.023v12.818h.34a7.4 7.4 0 0 1 2.762-3.221q1.857-1.21 4.943-1.211 2.676 0 4.687 1.074 2.011 1.057 3.12 3.256 1.125 2.181 1.125 5.557V811h-4.023v-16.364q0-3.118-1.619-4.824-1.602-1.72-4.449-1.721-1.977 0-3.546.835-1.551.835-2.454 2.438-.886 1.602-.886 3.886m35.313 16.295q-3.783 0-6.528-1.67-2.727-1.687-4.21-4.705-1.466-3.034-1.466-7.056t1.466-7.091q1.482-3.085 4.125-4.807 2.66-1.739 6.204-1.739 2.046 0 4.04.682t3.631 2.216q1.636 1.516 2.608 4.023.972 2.505.971 6.17v1.705h-20.181v-3.478h16.09q0-2.216-.886-3.954a6.67 6.67 0 0 0-2.489-2.744q-1.602-1.006-3.784-1.006-2.403 0-4.159 1.193a7.85 7.85 0 0 0-2.676 3.068 9 9 0 0 0-.937 4.057v2.318q0 2.967 1.022 5.029 1.04 2.045 2.881 3.119 1.84 1.057 4.278 1.057 1.586 0 2.864-.443a6.1 6.1 0 0 0 2.233-1.364q.938-.92 1.449-2.284l3.886 1.091a8.6 8.6 0 0 1-2.062 3.477q-1.449 1.483-3.58 2.318-2.13.818-4.79.818m20.983-16.295V811h-4.022v-26.182h3.886v4.091h.341a7.48 7.48 0 0 1 2.795-3.204q1.875-1.228 4.841-1.228 2.66 0 4.654 1.091 1.994 1.074 3.102 3.273 1.108 2.181 1.108 5.523V811h-4.023v-16.364q0-3.085-1.602-4.806-1.602-1.74-4.398-1.739-1.926 0-3.443.835-1.5.835-2.369 2.438-.87 1.602-.87 3.886m40.147 25.568q-1.023 0-1.824-.17-.801-.154-1.108-.307l1.023-3.546q1.466.375 2.591.273t1.994-1.006q.887-.886 1.619-2.88l.75-2.046-9.682-26.318H415l7.227 20.864h.273l7.227-20.864h4.364l-11.114 30q-.75 2.028-1.858 3.358-1.107 1.347-2.574 1.994-1.448.648-3.272.648m33.826-9.273q-3.545 0-6.221-1.687-2.66-1.687-4.159-4.722-1.483-3.033-1.483-7.091 0-4.09 1.483-7.142 1.5-3.05 4.159-4.738 2.676-1.688 6.221-1.688t6.205 1.688q2.676 1.687 4.159 4.738 1.5 3.051 1.5 7.142 0 4.058-1.5 7.091-1.483 3.034-4.159 4.722-2.66 1.687-6.205 1.687m0-3.613q2.694 0 4.432-1.381 1.738-1.38 2.574-3.631t.835-4.875q0-2.625-.835-4.892-.836-2.267-2.574-3.664t-4.432-1.398q-2.693 0-4.431 1.398-1.739 1.397-2.574 3.664t-.835 4.892.835 4.875 2.574 3.631 4.431 1.381m34.505-7.637v-15.477h4.022V811h-4.022v-4.432h-.273q-.92 1.995-2.864 3.392-1.942 1.381-4.909 1.381-2.455 0-4.363-1.074-1.91-1.09-3-3.273-1.092-2.199-1.091-5.539v-16.637h4.022v16.364q0 2.864 1.603 4.568 1.618 1.705 4.125 1.705 1.5 0 3.051-.767 1.567-.768 2.625-2.353 1.074-1.585 1.074-4.04M514.426 811l-7.977-26.182h4.227l5.659 20.046h.273l5.591-20.046h4.295l5.523 19.977h.273l5.659-19.977h4.227L534.199 811h-3.955l-5.727-20.114h-.409L518.381 811zm33.068 0v-26.182h4.023V811zm2.046-30.545a2.86 2.86 0 0 1-2.029-.802q-.835-.801-.835-1.926t.835-1.926a2.86 2.86 0 0 1 2.029-.801q1.176 0 2.011.801.852.801.852 1.926t-.852 1.926a2.8 2.8 0 0 1-2.011.802m13.368-4.364V811h-4.023v-34.909zm11.39 0V811h-4.022v-34.909zM595.166 811v-26.182h3.887v3.955h.272q.716-1.944 2.591-3.154t4.227-1.21q.444 0 1.108.017.666.017 1.006.051v4.091a12 12 0 0 0-.937-.153 9 9 0 0 0-1.517-.12q-1.91 0-3.41.802a6.05 6.05 0 0 0-2.352 2.181q-.852 1.381-.852 3.154V811zm28.04.545q-3.784 0-6.528-1.67-2.728-1.687-4.211-4.705-1.466-3.034-1.466-7.056t1.466-7.091q1.483-3.085 4.125-4.807 2.66-1.739 6.205-1.739 2.046 0 4.04.682t3.63 2.216q1.637 1.516 2.608 4.023.972 2.505.972 6.17v1.705h-20.182v-3.478h16.091q0-2.216-.886-3.954a6.7 6.7 0 0 0-2.489-2.744q-1.603-1.006-3.784-1.006-2.404 0-4.159 1.193a7.85 7.85 0 0 0-2.676 3.068 9 9 0 0 0-.938 4.057v2.318q0 2.967 1.023 5.029 1.04 2.045 2.881 3.119 1.84 1.057 4.278 1.057 1.585 0 2.864-.443a6.1 6.1 0 0 0 2.233-1.364q.938-.92 1.448-2.284l3.887 1.091a8.6 8.6 0 0 1-2.063 3.477q-1.449 1.483-3.579 2.318-2.131.818-4.79.818m24.665.069q-2.489 0-4.517-.938-2.029-.954-3.222-2.744-1.193-1.807-1.193-4.364 0-2.25.886-3.648a6.26 6.26 0 0 1 2.37-2.215 12.4 12.4 0 0 1 3.272-1.194 40 40 0 0 1 3.631-.647q2.387-.307 3.869-.461 1.5-.17 2.182-.562.699-.392.699-1.364v-.136q0-2.523-1.381-3.921-1.363-1.397-4.142-1.397-2.88 0-4.517 1.261-1.636 1.262-2.301 2.693l-3.818-1.363q1.023-2.387 2.727-3.716a10.2 10.2 0 0 1 3.75-1.875 15.6 15.6 0 0 1 4.023-.546q1.261 0 2.898.307a9.3 9.3 0 0 1 3.187 1.21q1.551.92 2.574 2.779 1.023 1.857 1.023 4.977V811h-4.023v-3.545h-.205q-.409.852-1.363 1.823-.955.972-2.54 1.654-1.586.681-3.869.682m.613-3.614q2.386 0 4.023-.938 1.653-.936 2.489-2.42.852-1.483.852-3.119v-3.682q-.255.307-1.125.562-.852.239-1.977.427-1.108.17-2.165.306-1.04.12-1.688.205a15.3 15.3 0 0 0-2.931.665q-1.347.443-2.182 1.346-.819.886-.818 2.421 0 2.096 1.551 3.17 1.568 1.057 3.971 1.057m28.615 3.545q-3.272 0-5.778-1.653-2.505-1.671-3.92-4.704-1.415-3.052-1.415-7.211 0-4.125 1.415-7.159 1.414-3.034 3.937-4.687t5.83-1.654q2.557 0 4.039.853 1.5.835 2.284 1.909.802 1.056 1.245 1.738h.341v-12.886h4.022V811h-3.886v-4.023h-.477q-.444.717-1.262 1.807-.817 1.074-2.335 1.926-1.517.835-4.04.835m.546-3.613q2.42 0 4.091-1.262 1.67-1.278 2.54-3.528.869-2.267.869-5.233 0-2.932-.852-5.131-.853-2.216-2.523-3.443-1.671-1.244-4.125-1.244-2.557 0-4.261 1.312-1.688 1.296-2.54 3.529-.835 2.215-.835 4.977 0 2.796.852 5.08.869 2.267 2.557 3.613 1.704 1.33 4.227 1.33m44.267-23.114v3.409h-13.568v-3.409zm-9.614-6.273h4.023V803.5q0 1.705.494 2.557.512.836 1.296 1.125a5.2 5.2 0 0 0 1.687.273 7 7 0 0 0 1.091-.069l.682-.136.818 3.614a8 8 0 0 1-1.142.306q-.733.171-1.858.171a8.1 8.1 0 0 1-3.341-.733 6.64 6.64 0 0 1-2.693-2.233q-1.056-1.5-1.057-3.784zm20.25 16.705V811h-4.022v-34.909h4.022v12.818h.341a7.4 7.4 0 0 1 2.762-3.221q1.857-1.21 4.943-1.211 2.676 0 4.687 1.074 2.012 1.057 3.12 3.256 1.125 2.181 1.125 5.557V811h-4.023v-16.364q0-3.118-1.619-4.824-1.603-1.72-4.449-1.721-1.978 0-3.546.835-1.551.835-2.454 2.438-.887 1.602-.887 3.886M756.885 811v-26.182h4.023V811zm2.045-30.545q-1.176 0-2.028-.802-.835-.801-.835-1.926t.835-1.926a2.86 2.86 0 0 1 2.028-.801q1.176 0 2.012.801.852.801.852 1.926t-.852 1.926a2.8 2.8 0 0 1-2.012.802m27.891 10.227-3.614 1.023a6.7 6.7 0 0 0-1.005-1.756q-.648-.87-1.773-1.432t-2.881-.562q-2.403 0-4.005 1.107-1.586 1.092-1.586 2.779 0 1.5 1.091 2.369 1.092.87 3.409 1.449l3.887.955q3.511.852 5.233 2.608 1.72 1.738 1.721 4.483 0 2.25-1.295 4.022-1.279 1.773-3.58 2.796t-5.352 1.022q-4.005 0-6.631-1.738-2.625-1.738-3.324-5.08l3.819-.954q.545 2.114 2.062 3.17 1.534 1.057 4.006 1.057 2.812 0 4.466-1.193 1.67-1.21 1.67-2.898 0-1.363-.954-2.284-.955-.937-2.932-1.398l-4.364-1.022q-3.597-.853-5.284-2.643-1.67-1.806-1.67-4.517 0-2.216 1.244-3.92 1.261-1.704 3.426-2.676 2.182-.972 4.943-.972 3.886 0 6.103 1.705 2.232 1.704 3.17 4.5"/></svg>