<svg xmlns="http://www.w3.org/2000/svg" width="1080" height="1350" fill="none"><path fill="#000" d="M305.877 444q-.32 0-.56-.24a.77.77 0 0 1-.24-.56q0-.2.04-.44l9.92-25.88q.16-.4.44-.64.279-.24.84-.24h2.72q.52 0 .8.24.32.24.48.64l9.88 25.88q.08.24.08.44 0 .32-.24.56a.77.77 0 0 1-.56.24h-2.04q-.48 0-.72-.24a1.7 1.7 0 0 1-.28-.44l-2.2-5.68h-13.12l-2.2 5.68q-.04.2-.28.44t-.72.24zm6.4-9.8h10.8l-5.4-14.2zM334.953 444q-.4 0-.68-.24a1 1 0 0 1-.24-.68v-18.96q0-.4.24-.64a.93.93 0 0 1 .68-.28h1.88q.4 0 .64.28a.8.8 0 0 1 .28.64v1.76a8 8 0 0 1 2.6-2.2q1.6-.88 4.08-.88 2.6 0 4.4 1.16 1.84 1.12 2.76 3.16.92 2.001.92 4.68v11.28q0 .4-.24.68-.24.24-.64.24h-2q-.4 0-.68-.24a1 1 0 0 1-.24-.68V432q0-2.8-1.36-4.36-1.36-1.6-4-1.6-2.48 0-4 1.6-1.48 1.56-1.48 4.36v11.08a.92.92 0 0 1-.28.68q-.24.24-.64.24zM365.891 444.4q-2.2 0-3.8-.76-1.599-.8-2.64-2.12a10.1 10.1 0 0 1-1.52-3.08 16 16 0 0 1-.56-3.64q-.04-.639-.04-1.2t.04-1.2a16 16 0 0 1 .56-3.6 10.1 10.1 0 0 1 1.52-3.08 7.1 7.1 0 0 1 2.64-2.12q1.6-.8 3.8-.8 2.36 0 3.92.84t2.56 2.08v-9.2q0-.4.24-.64a.93.93 0 0 1 .68-.28h1.92q.4 0 .64.28a.8.8 0 0 1 .28.64v26.56a.92.92 0 0 1-.28.68q-.24.24-.64.24h-1.8q-.44 0-.68-.24a1 1 0 0 1-.24-.68v-1.68q-1 1.281-2.6 2.16-1.6.84-4 .84m.84-3.24q2 0 3.2-.92a5.7 5.7 0 0 0 1.8-2.32q.6-1.44.64-2.92.04-.64.04-1.52 0-.92-.04-1.56a6.9 6.9 0 0 0-.68-2.76 5.36 5.36 0 0 0-1.84-2.24q-1.2-.88-3.12-.88-2.04 0-3.24.92-1.2.88-1.72 2.36-.519 1.44-.6 3.12a35 35 0 0 0 0 2.32q.081 1.68.6 3.16a5.1 5.1 0 0 0 1.72 2.36q1.2.88 3.24.88M394.431 451.6q-.32 0-.56-.24a.77.77 0 0 1-.24-.56q0-.16.04-.32t.16-.4l3.08-7.32-7.64-18.04q-.2-.48-.2-.68 0-.36.24-.6t.6-.24h1.96q.4 0 .64.2.24.201.32.48l6.08 14.56 6.24-14.56q.12-.279.32-.48.24-.2.68-.2h1.88q.36 0 .6.24t.24.56q0 .201-.2.72l-11.36 26.2q-.12.28-.36.48-.2.2-.64.2zM420.639 444.4q-3.04 0-5.08-1.16a7.83 7.83 0 0 1-3.12-3.2q-1.08-2.08-1.2-4.72a31 31 0 0 1-.04-1.72q0-1.08.04-1.72.12-2.68 1.2-4.72a8.1 8.1 0 0 1 3.16-3.2q2.04-1.16 5.04-1.16t5.04 1.16a7.84 7.84 0 0 1 3.12 3.2q1.12 2.04 1.24 4.72.04.64.04 1.72 0 1.04-.04 1.72-.12 2.64-1.2 4.72a7.83 7.83 0 0 1-3.12 3.2q-2.04 1.16-5.08 1.16m0-3.08q2.481 0 3.96-1.56 1.48-1.6 1.6-4.64.04-.6.04-1.52t-.04-1.52q-.12-3.04-1.6-4.6-1.479-1.6-3.96-1.6t-4 1.6q-1.479 1.56-1.56 4.6-.04.6-.04 1.52t.04 1.52q.081 3.04 1.56 4.64 1.52 1.56 4 1.56M442.848 444.4q-2.56 0-4.36-1.12-1.76-1.16-2.68-3.2t-.92-4.68v-11.28q0-.4.24-.64a.93.93 0 0 1 .68-.28h2q.4 0 .64.28a.8.8 0 0 1 .28.64v11.08q0 5.96 5.2 5.96 2.48 0 3.96-1.56 1.52-1.6 1.52-4.4v-11.08q0-.4.24-.64a.93.93 0 0 1 .68-.28h1.96q.44 0 .68.28.24.24.24.64v18.96q0 .4-.24.68-.24.24-.68.24h-1.84a1 1 0 0 1-.68-.24 1 1 0 0 1-.24-.68v-1.76a8.2 8.2 0 0 1-2.64 2.24q-1.52.84-4.04.84M473.538 444q-.52 0-.8-.24a2.3 2.3 0 0 1-.48-.76l-5.68-18.56a1.1 1.1 0 0 1-.08-.4q0-.36.24-.6a.9.9 0 0 1 .6-.24h1.76q.44 0 .68.24t.32.44l4.44 15.08 4.76-14.92q.08-.28.32-.56.28-.28.8-.28h1.36q.52 0 .8.28t.32.56l4.76 14.92 4.44-15.08q.04-.2.28-.44t.68-.24h1.76q.36 0 .6.24t.24.6q0 .2-.08.4l-5.68 18.56q-.12.48-.44.76-.28.24-.84.24h-1.56q-.52 0-.88-.24-.32-.28-.44-.76l-4.64-14.32-4.64 14.32q-.16.48-.48.76-.32.24-.88.24zM501.008 444a1 1 0 0 1-.68-.24 1 1 0 0 1-.24-.68v-18.96q0-.4.24-.64a.93.93 0 0 1 .68-.28h1.92q.4 0 .64.28.24.24.24.64v18.96q0 .4-.24.68-.24.24-.64.24zm-.32-24.68a1 1 0 0 1-.68-.24 1 1 0 0 1-.24-.68v-2.16q0-.4.24-.64a.93.93 0 0 1 .68-.28h2.52q.4 0 .64.28a.8.8 0 0 1 .28.64v2.16a.92.92 0 0 1-.28.68q-.24.24-.64.24zM510.736 444q-.4 0-.68-.24a1 1 0 0 1-.24-.68v-26.56q0-.4.24-.64a.93.93 0 0 1 .68-.28h1.88q.44 0 .68.28.24.24.24.64v26.56q0 .4-.24.68-.24.24-.68.24zM520.462 444q-.4 0-.68-.24a1 1 0 0 1-.24-.68v-26.56q0-.4.24-.64a.93.93 0 0 1 .68-.28h1.88q.44 0 .68.28.24.24.24.64v26.56q0 .4-.24.68-.24.24-.68.24zM539.953 444q-.4 0-.68-.24a1 1 0 0 1-.24-.68v-18.92q0-.4.24-.68a.93.93 0 0 1 .68-.28h1.84q.4 0 .68.28t.28.68v1.76a5.1 5.1 0 0 1 2.2-2.04q1.401-.68 3.36-.68h1.6q.4 0 .64.28.24.24.24.64v1.64q0 .4-.24.64t-.64.24h-2.4q-2.16 0-3.4 1.28-1.24 1.24-1.24 3.4v11.76a.92.92 0 0 1-.28.68q-.28.24-.68.24zM562.118 444.4q-4.12 0-6.56-2.52-2.44-2.559-2.68-6.96-.04-.519-.04-1.32 0-.84.04-1.36.16-2.84 1.32-4.96 1.16-2.16 3.16-3.32 2.04-1.16 4.76-1.16 3.04 0 5.08 1.28 2.08 1.28 3.16 3.64t1.08 5.52v.68q0 .44-.28.68-.24.24-.64.24h-13.84v.36a8.5 8.5 0 0 0 .72 3.08 5.7 5.7 0 0 0 1.84 2.28q1.2.88 2.88.88 1.44 0 2.4-.44t1.56-.96q.6-.56.8-.84.36-.519.56-.6.2-.12.64-.12h1.92q.4 0 .64.24.28.201.24.6-.04.6-.64 1.48-.6.84-1.72 1.68t-2.72 1.4q-1.6.52-3.68.52m-5.44-12.32h10.96v-.12q0-1.8-.68-3.2-.64-1.4-1.88-2.2-1.24-.84-2.96-.84t-2.96.84q-1.2.8-1.84 2.2t-.64 3.2zM582.021 444.4q-2 0-3.64-.8t-2.64-2.16a5.06 5.06 0 0 1-1-3.08q0-2.76 2.24-4.4t5.84-2.16l5.96-.84v-1.16q0-1.92-1.12-3-1.08-1.08-3.56-1.08-1.8 0-2.92.72-1.08.72-1.52 1.84-.24.6-.84.6h-1.8q-.44 0-.68-.24-.2-.28-.2-.64 0-.6.44-1.48.48-.88 1.44-1.72t2.44-1.4q1.52-.6 3.68-.6 2.4 0 4.04.64 1.64.6 2.56 1.64a6 6 0 0 1 1.36 2.36q.44 1.32.44 2.68v12.96a.92.92 0 0 1-.28.68q-.24.24-.64.24h-1.84q-.44 0-.68-.24a1 1 0 0 1-.24-.68v-1.72q-.52.72-1.4 1.44-.88.68-2.2 1.16-1.32.44-3.24.44m.84-3q1.64 0 3-.68 1.36-.72 2.12-2.2.8-1.479.8-3.72v-1.12l-4.64.68q-2.84.4-4.28 1.36-1.44.92-1.44 2.36 0 1.12.64 1.88.68.72 1.68 1.08 1.04.36 2.12.36M605.891 444.4q-2.2 0-3.8-.76-1.599-.8-2.64-2.12a10.1 10.1 0 0 1-1.52-3.08 16 16 0 0 1-.56-3.64q-.04-.639-.04-1.2t.04-1.2a16 16 0 0 1 .56-3.6 10.1 10.1 0 0 1 1.52-3.08 7.1 7.1 0 0 1 2.64-2.12q1.6-.8 3.8-.8 2.36 0 3.92.84t2.56 2.08v-9.2q0-.4.24-.64a.93.93 0 0 1 .68-.28h1.92q.4 0 .64.28a.8.8 0 0 1 .28.64v26.56a.92.92 0 0 1-.28.68q-.24.24-.64.24h-1.8q-.44 0-.68-.24a1 1 0 0 1-.24-.68v-1.68q-1 1.281-2.6 2.16-1.6.84-4 .84m.84-3.24q2 0 3.2-.92a5.7 5.7 0 0 0 1.8-2.32q.6-1.44.64-2.92.04-.64.04-1.52 0-.92-.04-1.56a6.9 6.9 0 0 0-.68-2.76 5.36 5.36 0 0 0-1.84-2.24q-1.2-.88-3.12-.88-2.04 0-3.24.92-1.2.88-1.72 2.36-.519 1.44-.6 3.12a35 35 0 0 0 0 2.32q.081 1.68.6 3.16a5.1 5.1 0 0 0 1.72 2.36q1.2.88 3.24.88M639.146 444q-2.24 0-3.64-.84a5.08 5.08 0 0 1-2.04-2.44q-.64-1.6-.64-3.76V426.4h-3.12q-.4 0-.68-.24a1 1 0 0 1-.24-.68v-1.36q0-.4.24-.64a.93.93 0 0 1 .68-.28h3.12v-6.68q0-.4.24-.64a.93.93 0 0 1 .68-.28h1.88q.4 0 .64.28.28.24.28.64v6.68h4.96q.4 0 .64.28.28.24.28.64v1.36a.93.93 0 0 1-.28.68q-.24.24-.64.24h-4.96v10.28q0 1.88.64 2.96.639 1.08 2.28 1.08h2.44q.4 0 .64.28.28.24.28.64v1.44a.93.93 0 0 1-.28.68q-.24.24-.64.24zM647.611 444q-.4 0-.68-.24a1 1 0 0 1-.24-.68v-26.56q0-.4.24-.64a.93.93 0 0 1 .68-.28h2q.44 0 .68.28.24.24.24.64v9.32q1.08-1.36 2.64-2.2t3.96-.84q2.6 0 4.4 1.16 1.839 1.12 2.76 3.16.96 2.001.96 4.68v11.28q0 .4-.24.68-.24.24-.68.24h-2q-.4 0-.68-.24a1 1 0 0 1-.24-.68V432q0-2.8-1.36-4.36-1.36-1.6-4-1.6-2.48 0-4 1.6-1.52 1.56-1.52 4.36v11.08q0 .4-.24.68-.24.24-.68.24zM671.946 444q-.4 0-.68-.24a1 1 0 0 1-.24-.68v-18.96q0-.4.24-.64a.93.93 0 0 1 .68-.28h1.92q.4 0 .64.28.24.24.24.64v18.96q0 .4-.24.68-.24.24-.64.24zm-.32-24.68q-.4 0-.68-.24a1 1 0 0 1-.24-.68v-2.16q0-.4.24-.64a.93.93 0 0 1 .68-.28h2.52q.4 0 .64.28.28.24.28.64v2.16a.93.93 0 0 1-.28.68q-.24.24-.64.24zM687.913 444.4q-2.24 0-3.84-.56t-2.6-1.36-1.52-1.6q-.48-.8-.52-1.28-.04-.44.28-.68t.64-.24h1.76q.24 0 .36.08.16.04.4.32.52.56 1.16 1.12t1.56.92q.96.36 2.36.36 2.04 0 3.36-.76 1.32-.8 1.32-2.32 0-1-.56-1.6-.52-.6-1.92-1.08-1.36-.48-3.76-1-2.4-.56-3.8-1.36-1.4-.84-2-1.96-.6-1.16-.6-2.6 0-1.48.88-2.84.88-1.4 2.56-2.28 1.72-.88 4.28-.88 2.08 0 3.56.52t2.44 1.32q.96.76 1.44 1.52t.52 1.28a.8.8 0 0 1-.24.68q-.28.24-.64.24h-1.68a.9.9 0 0 1-.48-.12 3 3 0 0 1-.32-.28 8.7 8.7 0 0 0-.96-1.04q-.52-.519-1.4-.84-.84-.36-2.24-.36-2 0-3 .84t-1 2.12q0 .76.44 1.36t1.68 1.08 3.68 1.04q2.64.52 4.16 1.4t2.16 2.04.64 2.68a5.18 5.18 0 0 1-1 3.08q-.96 1.4-2.88 2.24-1.88.8-4.68.8M711.868 444q-.4 0-.68-.24a1 1 0 0 1-.24-.68v-26.56q0-.4.24-.64a.93.93 0 0 1 .68-.28h1.88q.44 0 .68.28.24.24.24.64v26.56q0 .4-.24.68-.24.24-.68.24zM726.435 444.4q-2 0-3.64-.8t-2.64-2.16a5.06 5.06 0 0 1-1-3.08q0-2.76 2.24-4.4t5.84-2.16l5.96-.84v-1.16q0-1.92-1.12-3-1.08-1.08-3.56-1.08-1.8 0-2.92.72-1.08.72-1.52 1.84-.24.6-.84.6h-1.8q-.44 0-.68-.24-.2-.28-.2-.64 0-.6.44-1.48.48-.88 1.44-1.72t2.44-1.4q1.52-.6 3.68-.6 2.4 0 4.04.64 1.64.6 2.56 1.64a6 6 0 0 1 1.36 2.36q.44 1.32.44 2.68v12.96a.92.92 0 0 1-.28.68q-.24.24-.64.24h-1.84q-.44 0-.68-.24a1 1 0 0 1-.24-.68v-1.72q-.52.72-1.4 1.44-.88.68-2.2 1.16-1.32.44-3.24.44m.84-3q1.64 0 3-.68 1.36-.72 2.12-2.2.8-1.479.8-3.72v-1.12l-4.64.68q-2.84.4-4.28 1.36-1.44.92-1.44 2.36 0 1.12.64 1.88.68.72 1.68 1.08 1.04.36 2.12.36M749.905 444.4q-2.24 0-3.84-.56t-2.6-1.36-1.52-1.6q-.48-.8-.52-1.28-.04-.44.28-.68t.64-.24h1.76q.24 0 .36.08.16.04.4.32.52.56 1.16 1.12t1.56.92q.96.36 2.36.36 2.04 0 3.36-.76 1.32-.8 1.32-2.32 0-1-.56-1.6-.519-.6-1.92-1.08-1.36-.48-3.76-1-2.4-.56-3.8-1.36-1.4-.84-2-1.96-.6-1.16-.6-2.6 0-1.48.88-2.84.88-1.4 2.56-2.28 1.72-.88 4.28-.88 2.08 0 3.56.52t2.44 1.32q.96.76 1.44 1.52t.52 1.28a.8.8 0 0 1-.24.68q-.28.24-.64.24h-1.68a.9.9 0 0 1-.48-.12 3 3 0 0 1-.32-.28 8.5 8.5 0 0 0-.96-1.04q-.52-.519-1.4-.84-.84-.36-2.24-.36-2 0-3 .84t-1 2.12q0 .76.44 1.36.441.6 1.68 1.08 1.24.48 3.68 1.04 2.64.52 4.16 1.4t2.16 2.04.64 2.68a5.18 5.18 0 0 1-1 3.08q-.96 1.4-2.88 2.24-1.88.8-4.68.8M771.177 444q-2.24 0-3.64-.84a5.1 5.1 0 0 1-2.04-2.44q-.64-1.6-.64-3.76V426.4h-3.12a1 1 0 0 1-.68-.24 1 1 0 0 1-.24-.68v-1.36q0-.4.24-.64a.93.93 0 0 1 .68-.28h3.12v-6.68q0-.4.24-.64a.93.93 0 0 1 .68-.28h1.88q.4 0 .64.28a.8.8 0 0 1 .28.64v6.68h4.96q.4 0 .64.28a.8.8 0 0 1 .28.64v1.36a.92.92 0 0 1-.28.68q-.24.24-.64.24h-4.96v10.28q0 1.88.64 2.96t2.28 1.08h2.44q.4 0 .64.28a.8.8 0 0 1 .28.64v1.44a.92.92 0 0 1-.28.68q-.24.24-.64.24zM304.415 807q-.47 0-.799-.282a1.18 1.18 0 0 1-.282-.799v-27.636h-9.024q-.47 0-.799-.282a1.18 1.18 0 0 1-.282-.799v-1.974q0-.517.282-.799a1.1 1.1 0 0 1 .799-.329h22.654q.517 0 .799.329.33.282.329.799v1.974q0 .47-.329.799-.282.282-.799.282h-8.977v27.636q0 .47-.329.799-.282.282-.799.282zM323.384 807q-.47 0-.799-.282a1.18 1.18 0 0 1-.282-.799v-31.208q0-.47.282-.752a1.1 1.1 0 0 1 .799-.329h2.35q.517 0 .799.329.282.282.282.752v10.951a9.9 9.9 0 0 1 3.102-2.585q1.833-.987 4.653-.987 3.055 0 5.17 1.363 2.163 1.316 3.243 3.713 1.128 2.35 1.128 5.499v13.254q0 .47-.282.799-.282.282-.799.282h-2.35q-.47 0-.799-.282a1.18 1.18 0 0 1-.282-.799V792.9q0-3.29-1.598-5.123-1.598-1.88-4.7-1.88-2.913 0-4.7 1.88-1.786 1.833-1.786 5.123v13.019q0 .47-.282.799-.282.282-.799.282zM361.096 807.47q-4.841 0-7.708-2.961-2.867-3.008-3.149-8.178a21 21 0 0 1-.047-1.551q0-.987.047-1.598.188-3.336 1.551-5.828 1.363-2.538 3.713-3.901 2.397-1.363 5.593-1.363 3.572 0 5.969 1.504 2.444 1.505 3.713 4.277t1.269 6.486v.799q0 .517-.329.799-.282.282-.752.282h-16.262v.423q.095 1.927.846 3.619a6.7 6.7 0 0 0 2.162 2.679q1.41 1.034 3.384 1.034 1.692 0 2.82-.517 1.128-.516 1.833-1.128.705-.657.94-.987.423-.61.658-.705.235-.141.752-.141h2.256q.47 0 .752.282.329.236.282.705-.047.705-.752 1.739-.705.987-2.021 1.974t-3.196 1.645q-1.88.612-4.324.611m-6.392-14.476h12.878v-.141q0-2.115-.799-3.76-.752-1.644-2.209-2.585-1.457-.987-3.478-.987t-3.478.987q-1.41.94-2.162 2.585t-.752 3.76zM379.218 807q-.47 0-.799-.282a1.18 1.18 0 0 1-.282-.799v-22.278q0-.47.282-.752.328-.329.799-.329h2.209q.47 0 .752.329a.94.94 0 0 1 .329.752v2.068a9.4 9.4 0 0 1 3.055-2.585q1.88-1.034 4.794-1.034 3.055 0 5.17 1.363 2.161 1.316 3.243 3.713 1.08 2.35 1.081 5.499v13.254q0 .47-.282.799-.282.282-.752.282h-2.35q-.47 0-.799-.282a1.18 1.18 0 0 1-.282-.799V792.9q0-3.29-1.598-5.123-1.598-1.88-4.7-1.88-2.915 0-4.7 1.88-1.74 1.833-1.739 5.123v13.019q0 .47-.329.799-.282.282-.752.282zM422.092 815.93a.9.9 0 0 1-.658-.282.9.9 0 0 1-.282-.658q0-.187.047-.376.047-.188.188-.47l3.619-8.601-8.977-21.197q-.235-.564-.235-.799 0-.423.282-.705a.96.96 0 0 1 .705-.282h2.303q.47 0 .752.235.282.236.376.564l7.144 17.108 7.332-17.108a1.8 1.8 0 0 1 .376-.564q.282-.235.799-.235h2.209q.423 0 .705.282a.9.9 0 0 1 .282.658q0 .236-.235.846l-13.348 30.785a1.5 1.5 0 0 1-.423.564q-.235.235-.752.235zM453.357 807.47q-3.572 0-5.969-1.363t-3.667-3.76q-1.269-2.444-1.41-5.546a36 36 0 0 1-.047-2.021q0-1.269.047-2.021.141-3.149 1.41-5.546a9.53 9.53 0 0 1 3.714-3.76q2.397-1.363 5.922-1.363t5.922 1.363 3.666 3.76q1.316 2.397 1.457 5.546.047.752.047 2.021 0 1.223-.047 2.021-.141 3.102-1.41 5.546-1.269 2.398-3.666 3.76-2.398 1.363-5.969 1.363m0-3.619q2.913 0 4.652-1.833 1.74-1.88 1.88-5.452.047-.705.047-1.786t-.047-1.786q-.14-3.572-1.88-5.405-1.739-1.88-4.652-1.88t-4.701 1.88q-1.739 1.833-1.832 5.405-.048.706-.047 1.786 0 1.081.047 1.786.093 3.573 1.832 5.452 1.786 1.833 4.701 1.833M479.922 807.47q-3.009 0-5.123-1.316-2.069-1.363-3.149-3.76t-1.081-5.499v-13.254q0-.47.282-.752.328-.329.799-.329H474q.47 0 .752.329a.94.94 0 0 1 .329.752v13.019q0 7.003 6.11 7.003 2.913 0 4.653-1.833 1.785-1.88 1.786-5.17v-13.019q0-.47.282-.752.328-.329.799-.329h2.303q.517 0 .799.329.282.282.282.752v22.278q0 .47-.282.799-.282.282-.799.282h-2.162q-.47 0-.799-.282a1.18 1.18 0 0 1-.282-.799v-2.068a9.65 9.65 0 0 1-3.102 2.632q-1.786.987-4.747.987M516.922 807q-.611 0-.94-.282-.329-.329-.564-.893l-6.674-21.808a1.3 1.3 0 0 1-.094-.47q0-.423.282-.705.329-.282.705-.282h2.068q.517 0 .799.282.282.283.376.517l5.217 17.719 5.593-17.531q.094-.328.376-.658.329-.329.94-.329h1.598q.611 0 .94.329.329.33.376.658l5.593 17.531 5.217-17.719q.047-.234.329-.517.282-.282.799-.282h2.068q.423 0 .705.282a.96.96 0 0 1 .282.705q0 .236-.094.47l-6.674 21.808q-.14.564-.517.893-.329.282-.987.282h-1.833q-.61 0-1.034-.282-.376-.329-.517-.893l-5.452-16.826-5.452 16.826q-.188.564-.564.893-.376.282-1.034.282zM549.67 807q-.47 0-.799-.282a1.18 1.18 0 0 1-.282-.799v-22.278q0-.47.282-.752.328-.329.799-.329h2.256q.47 0 .752.329.282.282.282.752v22.278q0 .47-.282.799-.282.282-.752.282zm-.376-28.999q-.47 0-.799-.282a1.18 1.18 0 0 1-.282-.799v-2.538q0-.47.282-.752.328-.329.799-.329h2.961q.47 0 .752.329a.94.94 0 0 1 .329.752v2.538q0 .47-.329.799-.282.282-.752.282zM561.57 807q-.47 0-.799-.282a1.18 1.18 0 0 1-.282-.799v-31.208q0-.47.282-.752.328-.329.799-.329h2.209q.517 0 .799.329.282.282.282.752v31.208q0 .47-.282.799-.283.282-.799.282zM573.468 807q-.47 0-.799-.282a1.18 1.18 0 0 1-.282-.799v-31.208q0-.47.282-.752a1.1 1.1 0 0 1 .799-.329h2.209q.517 0 .799.329.282.282.282.752v31.208q0 .47-.282.799-.282.282-.799.282zM597.311 807q-.47 0-.799-.282a1.18 1.18 0 0 1-.282-.799v-22.231q0-.47.282-.799.328-.329.799-.329h2.162q.47 0 .799.329.329.33.329.799v2.068a5.97 5.97 0 0 1 2.585-2.397q1.644-.798 3.948-.799h1.88q.47 0 .752.329.282.282.282.752v1.927q0 .47-.282.752t-.752.282h-2.82q-2.538 0-3.995 1.504-1.457 1.457-1.457 3.995v13.818q0 .47-.329.799-.33.282-.799.282zM623.824 807.47q-4.841 0-7.708-2.961-2.867-3.008-3.149-8.178a21 21 0 0 1-.047-1.551q0-.987.047-1.598.188-3.336 1.551-5.828 1.363-2.538 3.713-3.901 2.397-1.363 5.593-1.363 3.572 0 5.969 1.504 2.444 1.505 3.713 4.277t1.269 6.486v.799q0 .517-.329.799-.282.282-.752.282h-16.262v.423q.095 1.927.846 3.619a6.7 6.7 0 0 0 2.162 2.679q1.41 1.034 3.384 1.034 1.692 0 2.82-.517 1.128-.516 1.833-1.128.705-.657.94-.987.423-.61.658-.705.235-.141.752-.141h2.256q.47 0 .752.282.328.236.282.705-.047.705-.752 1.739-.705.987-2.021 1.974t-3.196 1.645q-1.88.612-4.324.611m-6.392-14.476h12.878v-.141q0-2.115-.799-3.76-.752-1.644-2.209-2.585-1.457-.987-3.478-.987t-3.478.987q-1.41.94-2.162 2.585t-.752 3.76zM647.68 807.47q-2.35 0-4.277-.94-1.928-.939-3.102-2.538-1.176-1.597-1.175-3.619 0-3.243 2.632-5.17 2.631-1.926 6.862-2.538l7.003-.987v-1.363q0-2.256-1.316-3.525-1.27-1.269-4.183-1.269-2.115 0-3.431.846-1.27.846-1.786 2.162-.282.705-.987.705h-2.115q-.517 0-.799-.282a1.26 1.26 0 0 1-.235-.752q0-.704.517-1.739.564-1.034 1.692-2.021t2.867-1.645q1.786-.705 4.324-.705 2.82 0 4.747.752 1.926.706 3.008 1.927a7.1 7.1 0 0 1 1.598 2.773 9.9 9.9 0 0 1 .517 3.149v15.228q0 .47-.329.799-.282.282-.752.282h-2.162q-.517 0-.799-.282a1.18 1.18 0 0 1-.282-.799v-2.021q-.612.846-1.645 1.692-1.035.8-2.585 1.363-1.551.517-3.807.517m.987-3.525q1.926 0 3.525-.799 1.597-.845 2.491-2.585.94-1.739.94-4.371v-1.316l-5.452.799q-3.337.47-5.029 1.598-1.692 1.081-1.692 2.773 0 1.317.752 2.209.798.846 1.974 1.269a7.6 7.6 0 0 0 2.491.423M676.197 807.47q-2.584 0-4.465-.893-1.88-.94-3.102-2.491a11.9 11.9 0 0 1-1.786-3.619 18.8 18.8 0 0 1-.658-4.277 23 23 0 0 1-.047-1.41q0-.657.047-1.41.094-2.208.658-4.23a11.9 11.9 0 0 1 1.786-3.619 8.36 8.36 0 0 1 3.102-2.491q1.88-.94 4.465-.94 2.773 0 4.606.987t3.008 2.444v-10.81q0-.47.282-.752a1.1 1.1 0 0 1 .799-.329h2.256q.47 0 .752.329.33.282.329.752v31.208q0 .47-.329.799-.282.282-.752.282h-2.115q-.516 0-.799-.282a1.18 1.18 0 0 1-.282-.799v-1.974q-1.174 1.505-3.055 2.538-1.88.987-4.7.987m.987-3.807q2.35 0 3.76-1.081a6.7 6.7 0 0 0 2.115-2.726 9.5 9.5 0 0 0 .752-3.431q.048-.751.047-1.786 0-1.08-.047-1.833-.046-1.644-.799-3.243a6.3 6.3 0 0 0-2.162-2.632q-1.41-1.034-3.666-1.034-2.397 0-3.807 1.081-1.41 1.035-2.021 2.773-.61 1.692-.705 3.666a40 40 0 0 0 0 2.726 13 13 0 0 0 .705 3.713 6 6 0 0 0 2.021 2.773q1.41 1.035 3.807 1.034M716.211 807q-2.631 0-4.277-.987-1.644-1.034-2.397-2.867-.752-1.88-.752-4.418V786.32h-3.666q-.47 0-.799-.282a1.18 1.18 0 0 1-.282-.799v-1.598q0-.47.282-.752a1.1 1.1 0 0 1 .799-.329h3.666v-7.849q0-.47.282-.752a1.1 1.1 0 0 1 .799-.329h2.209q.47 0 .752.329.33.282.329.752v7.849h5.828q.47 0 .752.329.33.282.329.752v1.598q0 .47-.329.799-.281.282-.752.282h-5.828v12.079q0 2.21.752 3.478.753 1.269 2.679 1.269h2.867q.47 0 .752.329.33.282.329.752v1.692q0 .47-.329.799-.282.282-.752.282zM726.628 807q-.47 0-.799-.282a1.18 1.18 0 0 1-.282-.799v-31.208q0-.47.282-.752.328-.329.799-.329h2.35q.516 0 .799.329.282.282.282.752v10.951a9.9 9.9 0 0 1 3.102-2.585q1.833-.987 4.653-.987 3.054 0 5.17 1.363 2.162 1.316 3.243 3.713 1.128 2.35 1.128 5.499v13.254q0 .47-.282.799-.283.282-.799.282h-2.35q-.47 0-.799-.282a1.18 1.18 0 0 1-.282-.799V792.9q0-3.29-1.598-5.123-1.599-1.88-4.7-1.88-2.915 0-4.7 1.88-1.786 1.833-1.786 5.123v13.019q0 .47-.282.799-.283.282-.799.282zM755.691 807q-.47 0-.799-.282a1.18 1.18 0 0 1-.282-.799v-22.278q0-.47.282-.752a1.1 1.1 0 0 1 .799-.329h2.256q.47 0 .752.329.282.282.282.752v22.278q0 .47-.282.799-.282.282-.752.282zm-.376-28.999q-.47 0-.799-.282a1.18 1.18 0 0 1-.282-.799v-2.538q0-.47.282-.752a1.1 1.1 0 0 1 .799-.329h2.961q.47 0 .752.329.33.282.329.752v2.538q0 .47-.329.799-.282.282-.752.282zM774.923 807.47q-2.632 0-4.512-.658-1.88-.657-3.055-1.598-1.174-.94-1.786-1.88-.563-.94-.611-1.504-.046-.516.329-.799.376-.282.752-.282h2.068q.282 0 .423.094.188.048.47.376.611.659 1.363 1.316.753.658 1.833 1.081 1.128.423 2.773.423 2.397 0 3.948-.893 1.551-.94 1.551-2.726 0-1.175-.658-1.88-.61-.705-2.256-1.269-1.598-.563-4.418-1.175-2.82-.657-4.465-1.598-1.644-.987-2.35-2.303-.705-1.363-.705-3.055 0-1.738 1.034-3.337 1.035-1.644 3.008-2.679 2.022-1.034 5.029-1.034 2.445 0 4.183.611 1.739.612 2.867 1.551 1.128.894 1.692 1.786.564.894.611 1.504a.94.94 0 0 1-.282.799q-.329.282-.752.282h-1.974q-.329 0-.564-.141a4 4 0 0 1-.376-.329 10 10 0 0 0-1.128-1.222q-.61-.61-1.645-.987-.987-.423-2.632-.423-2.349 0-3.525.987t-1.175 2.491q0 .894.517 1.598.518.705 1.974 1.269 1.458.564 4.324 1.222 3.102.612 4.888 1.645 1.787 1.035 2.538 2.397.753 1.364.752 3.149 0 1.974-1.175 3.619-1.128 1.645-3.384 2.632-2.209.94-5.499.94M102.904 580v-32.76l-26.4-54.84h11.16l17.4 36q1.44 3 2.28 5.16.84 2.04 1.08 3 .24-.96 1.08-3 .96-2.16 2.4-5.16l17.04-36h11.16l-26.4 54.84V580zM180.257 580.96q-7.92 0-13.68-3t-9-8.64q-3.12-5.76-3.12-13.56v-17.52q0-7.92 3.12-13.56 3.24-5.64 9-8.64t13.68-3 13.68 3 8.88 8.64q3.24 5.64 3.24 13.44v17.64q0 7.8-3.24 13.56-3.12 5.64-8.88 8.64t-13.68 3m0-9.6q7.08 0 11.04-3.96t3.96-11.64v-17.52q0-7.68-3.96-11.64t-11.04-3.96q-6.96 0-11.04 3.96-3.96 3.96-3.96 11.64v17.52q0 7.68 3.96 11.64 4.08 3.96 11.04 3.96M252.09 581.2q-11.4 0-18.24-6.72-6.84-6.84-6.84-18.48v-42h10.8v42q0 7.44 3.84 11.64 3.84 4.08 10.44 4.08 6.72 0 10.56-4.08 3.96-4.2 3.96-11.64v-42h10.8v42q0 11.64-6.96 18.48-6.96 6.72-18.36 6.72M374.876 580l-10.56-66h9.6l6.6 46.8q.36 2.64.72 5.76.48 3 .72 5.04.24-2.04.72-5.04.6-3.12.96-5.76l7.32-46.8h10.32l7.32 46.8q.36 2.64.84 5.76.6 3 .84 5.04.24-2.04.72-5.04.6-3.12.96-5.76l6.84-46.8h9.12l-11.04 66h-11.88l-7.08-45.6q-.48-3.36-1.08-6.72t-.84-5.28q-.24 1.92-.72 5.28t-1.08 6.72l-7.44 45.6zM442.27 580v-9.84h23.4v-46.32h-20.4V514h31.2v56.16h22.2V580zm27.6-77.88q-3.96 0-6.24-2.04t-2.28-5.52q0-3.6 2.28-5.64 2.28-2.16 6.24-2.16t6.24 2.16q2.28 2.04 2.28 5.64 0 3.48-2.28 5.52t-6.24 2.04M549.023 580q-5.76 0-10.08-2.28t-6.72-6.48-2.4-9.84v-59.16h-22.2v-9.84h33v69q0 4.08 2.28 6.48 2.28 2.28 6.12 2.28h21V580zM620.976 580q-5.76 0-10.08-2.28t-6.72-6.48-2.4-9.84v-59.16h-22.2v-9.84h33v69q0 4.08 2.28 6.48 2.28 2.28 6.12 2.28h21V580zM733.202 580v-66h10.56v12.6h2.52l-3.48 7.8q0-10.68 4.56-16.08 4.68-5.52 13.8-5.52 10.44 0 16.56 6.6 6.24 6.48 6.24 17.64V541h-10.8v-3q0-7.8-3.84-11.88-3.72-4.2-10.68-4.2-6.84 0-10.8 4.2-3.84 4.2-3.84 11.88v42zM827.835 581.2q-7.8 0-13.68-3.12-5.76-3.12-9-8.76-3.12-5.76-3.12-13.32v-18q0-7.68 3.12-13.32 3.24-5.64 9-8.76 5.88-3.12 13.68-3.12t13.56 3.12q5.88 3.12 9 8.76 3.24 5.64 3.24 13.32v11.64h-41.04V556q0 7.8 3.96 12 3.96 4.08 11.28 4.08 6.24 0 10.08-2.16 3.84-2.28 4.68-6.72h10.8q-1.08 8.28-8.16 13.2-6.96 4.8-17.4 4.8m15.24-38.76V538q0-7.8-3.96-12-3.84-4.2-11.28-4.2-7.32 0-11.28 4.2t-3.96 12v3.48h31.32zM894.028 581.2q-10.44 0-16.44-5.28-6-5.4-6-14.52 0-9.24 6-14.52t16.2-5.28h20.4V535q0-6.12-3.72-9.36-3.6-3.36-10.32-3.36-5.88 0-9.84 2.52-3.96 2.4-4.56 6.6h-10.8q1.08-8.52 8.04-13.56t17.4-5.04q11.4 0 18 5.88t6.6 15.96V580h-10.56v-12.6h-1.8l1.8-1.8q0 7.2-5.64 11.4-5.52 4.2-14.76 4.2m2.64-8.52q7.68 0 12.6-3.84t4.92-9.84v-9.36h-20.16q-5.4 0-8.52 3t-3.12 8.16q0 5.52 3.72 8.76 3.84 3.12 10.56 3.12M967.901 581.2q-9.84 0-15.96-6.6-6-6.6-6-17.88V537.4q0-11.4 6-18t15.96-6.6q8.16 0 13.08 4.44t4.92 11.88l-2.16-2.52h2.4l-.24-15v-19.2h10.8V580h-10.8v-12.6h-2.16l2.16-2.52q0 7.56-4.92 12-4.92 4.32-13.08 4.32m3.6-9.36q6.72 0 10.56-4.2t3.84-11.64v-18q0-7.44-3.84-11.64t-10.56-4.2q-6.84 0-10.8 4.08t-3.96 11.76v18q0 7.68 3.96 11.76t10.8 4.08M223.434 712q-8.52 0-13.32-4.56-4.68-4.56-4.68-12.84v-38.76h-18.6V646h18.6v-18.6h10.8V646h26.4v9.84h-26.4v38.76q0 7.56 7.2 7.56h18V712zM263.227 712v-87.6h10.8v34.2h2.28l-2.28 2.52q0-7.8 4.68-12 4.68-4.32 12.96-4.32 9.96 0 15.84 6.12t5.88 16.68V712h-10.8v-43.2q0-7.08-3.84-10.92-3.72-3.96-10.2-3.96-6.72 0-10.68 4.2-3.84 4.2-3.84 11.88v42zM334.34 712v-9.84h23.4v-46.32h-20.4V646h31.2v56.16h22.2V712zm27.6-77.88q-3.96 0-6.24-2.04t-2.28-5.52q0-3.6 2.28-5.64 2.28-2.16 6.24-2.16t6.24 2.16q2.28 2.04 2.28 5.64 0 3.48-2.28 5.52t-6.24 2.04M430.053 712.96q-6.72 0-11.76-2.04-4.92-2.16-7.92-6-2.88-3.84-3.48-9.12h10.8q.72 3.48 3.84 5.52 3.24 2.04 8.52 2.04h5.04q6.36 0 9.48-2.52 3.12-2.64 3.12-6.96 0-4.2-2.88-6.6-2.76-2.52-8.28-3.36l-8.88-1.44q-9.72-1.68-14.52-6-4.68-4.44-4.68-12.84 0-8.88 5.64-13.68 5.64-4.92 16.92-4.92h4.56q9.48 0 15.24 4.44t6.96 12h-10.8q-.72-3.12-3.6-4.92-2.88-1.92-7.8-1.92h-4.56q-6.12 0-9 2.28-2.76 2.28-2.76 6.84 0 4.08 2.4 6t7.56 2.76l8.88 1.44q10.68 1.68 15.48 6.24 4.92 4.56 4.92 13.2 0 9.12-5.88 14.4-5.76 5.16-17.52 5.16zM566.399 712v-49.56h-19.2v-9.84h19.2v-11.4q0-7.8 4.92-12.24 4.92-4.56 13.56-4.56h19.32v9.84h-19.32q-3.72 0-5.76 1.8-1.92 1.68-1.92 5.16v11.4h27v9.84h-27V712zM622.152 712v-9.84h23.4v-46.32h-20.4V646h31.2v56.16h22.2V712zm27.6-77.88q-3.96 0-6.24-2.04t-2.28-5.52q0-3.6 2.28-5.64 2.28-2.16 6.24-2.16t6.24 2.16q2.28 2.04 2.28 5.64 0 3.48-2.28 5.52t-6.24 2.04M697.225 712v-66h10.56v12.6h2.52l-3.479 7.8q0-10.68 4.559-16.08 4.68-5.52 13.8-5.52 10.44 0 16.56 6.6 6.24 6.48 6.24 17.64V673h-10.8v-3q0-7.8-3.84-11.88-3.72-4.2-10.68-4.2-6.84 0-10.8 4.2-3.84 4.2-3.84 11.88v42zM789.819 712.96q-6.72 0-11.76-2.04-4.92-2.16-7.92-6-2.88-3.84-3.48-9.12h10.8q.72 3.48 3.84 5.52 3.24 2.04 8.52 2.04h5.04q6.36 0 9.48-2.52 3.12-2.64 3.12-6.96 0-4.2-2.88-6.6-2.76-2.52-8.28-3.36l-8.88-1.44q-9.72-1.68-14.52-6-4.68-4.44-4.68-12.84 0-8.88 5.64-13.68 5.64-4.92 16.92-4.92h4.56q9.48 0 15.24 4.44t6.96 12h-10.8q-.72-3.12-3.6-4.92-2.88-1.92-7.8-1.92h-4.56q-6.12 0-9 2.28-2.76 2.28-2.76 6.84 0 4.08 2.4 6t7.56 2.76l8.88 1.44q10.68 1.68 15.48 6.24 4.92 4.56 4.92 13.2 0 9.12-5.88 14.4-5.76 5.16-17.52 5.16zM871.012 712q-8.52 0-13.32-4.56-4.68-4.56-4.68-12.84v-38.76h-18.6V646h18.6v-18.6h10.8V646h26.4v9.84h-26.4v38.76q0 7.56 7.2 7.56h18V712z"/></svg>