<svg width="1080" height="1350" viewBox="0 0 1080 1350" fill="none" xmlns="http://www.w3.org/2000/svg">
<path d="M312.767 448H303.887V446.84C304.847 446.413 305.807 446.093 306.767 445.88L316.887 419.52H318.047L328.167 445.88C328.7 445.987 329.22 446.107 329.727 446.24C330.26 446.373 330.753 446.573 331.207 446.84V448H320.967V446.84C321.5 446.627 322.047 446.44 322.607 446.28C323.167 446.12 323.713 445.987 324.247 445.88L321.527 438.56H311.967L309.327 445.88C310.447 446.04 311.593 446.36 312.767 446.84V448ZM312.767 436.48H320.847L317.687 428L316.927 424.56H316.847L315.847 428.08L312.767 436.48ZM354.271 448H345.671V447C346.391 446.627 347.178 446.307 348.031 446.04V436.56C348.031 434.533 347.738 432.933 347.151 431.76C346.565 430.587 345.498 430 343.951 430C343.285 430 342.658 430.12 342.071 430.36C341.511 430.6 341.005 430.933 340.551 431.36C340.125 431.76 339.751 432.227 339.431 432.76C339.111 433.267 338.858 433.8 338.671 434.36V446.04C339.498 446.2 340.298 446.52 341.071 447V448H332.431V447C333.098 446.653 333.978 446.333 335.071 446.04V430.32L332.431 430V428.96C333.125 428.667 333.925 428.4 334.831 428.16C335.738 427.92 336.685 427.707 337.671 427.52H338.671V432H338.711C339.271 430.773 340.071 429.72 341.111 428.84C342.178 427.96 343.458 427.52 344.951 427.52C346.018 427.52 346.965 427.653 347.791 427.92C348.645 428.16 349.351 428.6 349.911 429.24C350.471 429.88 350.898 430.747 351.191 431.84C351.485 432.907 351.631 434.267 351.631 435.92V446.04C352.698 446.227 353.578 446.547 354.271 447V448ZM369.861 444.04C369.728 444.627 369.501 445.187 369.181 445.72C368.861 446.253 368.461 446.733 367.981 447.16C367.528 447.56 366.995 447.88 366.381 448.12C365.795 448.36 365.155 448.48 364.461 448.48C361.821 448.48 359.848 447.64 358.541 445.96C357.235 444.28 356.581 441.667 356.581 438.12C356.581 434.707 357.408 432.107 359.061 430.32C360.741 428.533 362.995 427.64 365.821 427.64C366.808 427.64 367.581 427.693 368.141 427.8C368.701 427.88 369.315 428.04 369.981 428.28V420.72L366.941 420.4V419.36C367.715 419.04 368.608 418.76 369.621 418.52C370.661 418.28 371.648 418.08 372.581 417.92H373.581V445.72L376.221 446.04V446.88C375.448 447.253 374.648 447.573 373.821 447.84C372.995 448.107 372.181 448.293 371.381 448.4H370.381L370.021 444.04H369.861ZM365.261 446C366.568 446 367.608 445.587 368.381 444.76C369.155 443.933 369.688 442.813 369.981 441.4V430.12C369.528 429.853 368.995 429.667 368.381 429.56C367.768 429.453 366.981 429.4 366.021 429.4C364.208 429.4 362.821 430.2 361.861 431.8C360.901 433.373 360.421 435.48 360.421 438.12C360.421 439.213 360.515 440.24 360.701 441.2C360.888 442.133 361.181 442.96 361.581 443.68C361.981 444.4 362.475 444.973 363.061 445.4C363.675 445.8 364.408 446 365.261 446ZM388.535 430C388.135 429.893 387.762 429.76 387.415 429.6C387.095 429.44 386.762 429.253 386.415 429.04V428H394.775V429C394.215 429.373 393.455 429.707 392.495 430L397.615 441.84L398.375 444.32H398.455L399.055 441.8L402.855 430C402.055 429.84 401.322 429.52 400.655 429.04V428H407.495V429.04C406.935 429.413 406.175 429.733 405.215 430L398.975 448C398.335 449.707 397.722 451.08 397.135 452.12C396.575 453.187 396.002 454.027 395.415 454.64C394.855 455.253 394.269 455.693 393.655 455.96C393.069 456.253 392.429 456.467 391.735 456.6C391.442 456.093 391.175 455.533 390.935 454.92C390.722 454.307 390.535 453.72 390.375 453.16L390.895 452.2H395.055C395.215 451.987 395.349 451.773 395.455 451.56C395.589 451.373 395.722 451.133 395.855 450.84C395.989 450.547 396.135 450.173 396.295 449.72C396.455 449.267 396.642 448.693 396.855 448L388.535 430ZM408.691 438C408.691 436.32 408.904 434.84 409.331 433.56C409.784 432.253 410.424 431.16 411.251 430.28C412.077 429.373 413.064 428.693 414.211 428.24C415.384 427.76 416.677 427.52 418.091 427.52C419.744 427.52 421.171 427.773 422.371 428.28C423.571 428.787 424.544 429.507 425.291 430.44C426.064 431.347 426.624 432.44 426.971 433.72C427.344 435 427.531 436.427 427.531 438C427.531 441.36 426.677 443.947 424.971 445.76C423.264 447.573 420.971 448.48 418.091 448.48C416.491 448.48 415.104 448.24 413.931 447.76C412.757 447.253 411.784 446.547 411.011 445.64C410.237 444.707 409.651 443.6 409.251 442.32C408.877 441.013 408.691 439.573 408.691 438ZM412.531 438C412.531 439.2 412.637 440.333 412.851 441.4C413.091 442.467 413.451 443.4 413.931 444.2C414.437 444.973 415.091 445.587 415.891 446.04C416.691 446.493 417.651 446.72 418.771 446.72C420.211 446.72 421.384 446.013 422.291 444.6C423.224 443.187 423.691 440.987 423.691 438C423.691 436.773 423.571 435.64 423.331 434.6C423.117 433.533 422.771 432.613 422.291 431.84C421.811 431.04 421.197 430.413 420.451 429.96C419.704 429.507 418.811 429.28 417.771 429.28C416.197 429.28 414.931 429.987 413.971 431.4C413.011 432.813 412.531 435.013 412.531 438ZM432.24 440.08C432.24 438.4 432.28 436.76 432.36 435.16C432.44 433.533 432.48 431.92 432.48 430.32L429.84 430V428.96C430.693 428.64 431.56 428.36 432.44 428.12C433.347 427.88 434.227 427.68 435.08 427.52H436.08C436.08 429.52 436.04 431.507 435.96 433.48C435.88 435.453 435.84 437.413 435.84 439.36C435.84 440.4 435.893 441.333 436 442.16C436.133 442.987 436.347 443.68 436.64 444.24C436.96 444.8 437.387 445.24 437.92 445.56C438.453 445.853 439.133 446 439.96 446C441.16 446 442.16 445.573 442.96 444.72C443.787 443.84 444.427 442.707 444.88 441.32V430.32L442.28 430V428.96C443.107 428.64 443.96 428.36 444.84 428.12C445.747 427.88 446.627 427.68 447.48 427.52H448.48V445.72L451.12 446.04V446.88C450.347 447.227 449.56 447.533 448.76 447.8C447.987 448.067 447.173 448.267 446.32 448.4H445.32L445.04 443.64H444.88C444.747 444.2 444.507 444.773 444.16 445.36C443.84 445.92 443.413 446.44 442.88 446.92C442.347 447.373 441.733 447.747 441.04 448.04C440.373 448.333 439.64 448.48 438.84 448.48C437.773 448.48 436.827 448.347 436 448.08C435.2 447.84 434.52 447.4 433.96 446.76C433.4 446.12 432.973 445.267 432.68 444.2C432.387 443.107 432.24 441.733 432.24 440.08ZM469.855 448.48L463.575 430C463.202 429.867 462.829 429.733 462.455 429.6C462.109 429.44 461.775 429.253 461.455 429.04V428H469.775V429C469.402 429.213 469.029 429.413 468.655 429.6C468.282 429.76 467.895 429.893 467.495 430L470.975 441.68L471.495 444.56H471.575L472.175 441.6L476.495 428.4L477.695 428L482.295 441.64L483.015 444.56H483.095L483.695 441.64L486.775 430C486.482 429.947 486.135 429.84 485.735 429.68C485.362 429.52 484.975 429.307 484.575 429.04V428H491.375V429.04C490.815 429.413 490.055 429.733 489.095 430L483.415 448L481.295 448.48L477.335 437.16L476.575 433.84H476.455L475.535 437.16L471.935 448L469.855 448.48ZM501.477 448H492.597V447C492.997 446.787 493.41 446.613 493.837 446.48C494.264 446.32 494.73 446.173 495.237 446.04V430.32L492.597 430V428.96C493.37 428.64 494.21 428.36 495.117 428.12C496.024 427.88 496.93 427.68 497.837 427.52H498.837V446.04C499.37 446.173 499.85 446.32 500.277 446.48C500.704 446.613 501.104 446.787 501.477 447V448ZM494.477 421.2C494.477 420.48 494.704 419.907 495.157 419.48C495.637 419.053 496.264 418.84 497.037 418.84C497.81 418.84 498.424 419.053 498.877 419.48C499.33 419.907 499.557 420.48 499.557 421.2C499.557 421.92 499.33 422.493 498.877 422.92C498.424 423.32 497.81 423.52 497.037 423.52C496.264 423.52 495.637 423.32 495.157 422.92C494.704 422.493 494.477 421.92 494.477 421.2ZM513.508 448H504.628V447C505.508 446.573 506.388 446.253 507.268 446.04V420.72L504.228 420.4V419.36C504.922 419.04 505.788 418.76 506.828 418.52C507.868 418.28 508.882 418.08 509.868 417.92H510.868V446.04C511.748 446.253 512.628 446.573 513.508 447V448ZM525.54 448H516.66V447C517.54 446.573 518.42 446.253 519.3 446.04V420.72L516.26 420.4V419.36C516.953 419.04 517.82 418.76 518.86 418.52C519.9 418.28 520.913 418.08 521.9 417.92H522.9V446.04C523.78 446.253 524.66 446.573 525.54 447V448ZM546.537 431C546.244 431.16 545.871 431.493 545.417 432C544.991 432.48 544.604 433.2 544.257 434.16V446.04C544.791 446.093 545.324 446.2 545.857 446.36C546.391 446.493 546.924 446.707 547.457 447V448H538.017V447C538.497 446.733 538.951 446.533 539.377 446.4C539.804 446.267 540.231 446.147 540.657 446.04V430.32L538.017 430V428.96C538.871 428.587 539.751 428.293 540.657 428.08C541.564 427.84 542.431 427.653 543.257 427.52H544.257V431.76H544.417C544.657 431.227 544.991 430.693 545.417 430.16C545.871 429.627 546.377 429.147 546.937 428.72C547.524 428.293 548.151 427.973 548.817 427.76C549.511 427.52 550.217 427.44 550.937 427.52C551.124 427.867 551.284 428.253 551.417 428.68C551.577 429.08 551.724 429.507 551.857 429.96V431H546.537ZM569.969 445.2C569.756 445.653 569.422 446.08 568.969 446.48C568.516 446.88 567.996 447.227 567.409 447.52C566.822 447.813 566.182 448.04 565.489 448.2C564.796 448.387 564.089 448.48 563.369 448.48C561.796 448.48 560.409 448.24 559.209 447.76C558.009 447.253 557.009 446.547 556.209 445.64C555.409 444.707 554.796 443.6 554.369 442.32C553.969 441.04 553.769 439.6 553.769 438C553.769 434.587 554.556 431.987 556.129 430.2C557.702 428.413 559.929 427.52 562.809 427.52C563.742 427.52 564.662 427.653 565.569 427.92C566.476 428.16 567.276 428.573 567.969 429.16C568.689 429.747 569.262 430.533 569.689 431.52C570.142 432.48 570.369 433.68 570.369 435.12C570.369 435.573 570.342 436.04 570.289 436.52C570.262 436.973 570.196 437.467 570.089 438H557.609C557.609 439.12 557.742 440.173 558.009 441.16C558.302 442.12 558.729 442.96 559.289 443.68C559.849 444.4 560.556 444.973 561.409 445.4C562.262 445.8 563.262 446 564.409 446C565.342 446 566.289 445.867 567.249 445.6C568.209 445.333 568.929 444.987 569.409 444.56L569.969 445.2ZM562.649 429.28C561.129 429.28 559.969 429.8 559.169 430.84C558.369 431.853 557.889 433.653 557.729 436.24H566.529C566.556 436 566.569 435.773 566.569 435.56C566.596 435.32 566.609 435.093 566.609 434.88C566.609 433.173 566.289 431.813 565.649 430.8C565.009 429.787 564.009 429.28 562.649 429.28ZM588.646 442.76C588.646 443.347 588.659 443.853 588.686 444.28C588.713 444.707 588.739 445.16 588.766 445.64L591.526 446.04V446.88C590.859 447.227 590.113 447.533 589.286 447.8C588.486 448.067 587.713 448.267 586.966 448.4H585.966C585.699 447.787 585.539 447.12 585.486 446.4C585.433 445.653 585.393 444.84 585.366 443.96H585.166C585.059 444.493 584.846 445.04 584.526 445.6C584.233 446.133 583.833 446.613 583.326 447.04C582.846 447.467 582.273 447.813 581.606 448.08C580.939 448.347 580.179 448.48 579.326 448.48C577.699 448.48 576.366 447.987 575.326 447C574.313 446.013 573.806 444.72 573.806 443.12C573.806 441.893 574.046 440.893 574.526 440.12C575.033 439.32 575.766 438.693 576.726 438.24C577.686 437.787 578.873 437.467 580.286 437.28C581.699 437.067 583.339 436.907 585.206 436.8C585.313 435.653 585.339 434.627 585.286 433.72C585.259 432.787 585.113 432 584.846 431.36C584.606 430.693 584.233 430.187 583.726 429.84C583.246 429.467 582.606 429.28 581.806 429.28C581.433 429.28 581.006 429.307 580.526 429.36C580.073 429.387 579.619 429.493 579.166 429.68L577.286 434.48H576.246C575.979 433.68 575.739 432.853 575.526 432C575.339 431.147 575.219 430.307 575.166 429.48C576.179 428.867 577.299 428.387 578.526 428.04C579.779 427.693 581.166 427.52 582.686 427.52C584.046 427.52 585.126 427.72 585.926 428.12C586.753 428.493 587.379 428.987 587.806 429.6C588.233 430.213 588.513 430.893 588.646 431.64C588.779 432.387 588.846 433.133 588.846 433.88C588.846 435.48 588.806 437.027 588.726 438.52C588.673 439.987 588.646 441.4 588.646 442.76ZM580.926 446C581.593 446 582.179 445.867 582.686 445.6C583.193 445.333 583.619 445.013 583.966 444.64C584.313 444.267 584.593 443.893 584.806 443.52C585.019 443.12 585.166 442.787 585.246 442.52V438.32C583.699 438.32 582.433 438.4 581.446 438.56C580.459 438.72 579.686 438.973 579.126 439.32C578.566 439.667 578.179 440.107 577.966 440.64C577.753 441.147 577.646 441.733 577.646 442.4C577.646 443.547 577.939 444.44 578.526 445.08C579.113 445.693 579.913 446 580.926 446ZM607.361 444.04C607.228 444.627 607.001 445.187 606.681 445.72C606.361 446.253 605.961 446.733 605.481 447.16C605.028 447.56 604.495 447.88 603.881 448.12C603.295 448.36 602.655 448.48 601.961 448.48C599.321 448.48 597.348 447.64 596.041 445.96C594.735 444.28 594.081 441.667 594.081 438.12C594.081 434.707 594.908 432.107 596.561 430.32C598.241 428.533 600.495 427.64 603.321 427.64C604.308 427.64 605.081 427.693 605.641 427.8C606.201 427.88 606.815 428.04 607.481 428.28V420.72L604.441 420.4V419.36C605.215 419.04 606.108 418.76 607.121 418.52C608.161 418.28 609.148 418.08 610.081 417.92H611.081V445.72L613.721 446.04V446.88C612.948 447.253 612.148 447.573 611.321 447.84C610.495 448.107 609.681 448.293 608.881 448.4H607.881L607.521 444.04H607.361ZM602.761 446C604.068 446 605.108 445.587 605.881 444.76C606.655 443.933 607.188 442.813 607.481 441.4V430.12C607.028 429.853 606.495 429.667 605.881 429.56C605.268 429.453 604.481 429.4 603.521 429.4C601.708 429.4 600.321 430.2 599.361 431.8C598.401 433.373 597.921 435.48 597.921 438.12C597.921 439.213 598.015 440.24 598.201 441.2C598.388 442.133 598.681 442.96 599.081 443.68C599.481 444.4 599.975 444.973 600.561 445.4C601.175 445.8 601.908 446 602.761 446ZM624.955 428.96C625.969 428.32 627.035 427.867 628.155 427.6V424.2C628.502 423.933 628.902 423.68 629.355 423.44C629.835 423.173 630.302 422.947 630.755 422.76H631.755V428H637.755V430H631.755V441.6C631.755 443.2 632.009 444.333 632.515 445C633.022 445.667 633.782 446 634.795 446C635.275 446 635.875 445.973 636.595 445.92C637.315 445.84 637.929 445.707 638.435 445.52L638.715 446.12C638.502 446.36 638.195 446.613 637.795 446.88C637.422 447.147 636.982 447.4 636.475 447.64C635.995 447.88 635.462 448.08 634.875 448.24C634.289 448.4 633.689 448.48 633.075 448.48C631.475 448.48 630.249 448.027 629.395 447.12C628.569 446.213 628.155 444.747 628.155 442.72V430H624.955V428.96ZM661.999 448H653.359V447C653.999 446.653 654.799 446.333 655.759 446.04V436.68C655.759 434.6 655.466 432.973 654.879 431.8C654.293 430.6 653.226 430 651.679 430C650.986 430 650.359 430.133 649.799 430.4C649.239 430.64 648.733 430.96 648.279 431.36C647.826 431.76 647.439 432.227 647.119 432.76C646.799 433.267 646.559 433.8 646.399 434.36V446.04C646.826 446.147 647.226 446.267 647.599 446.4C647.999 446.533 648.386 446.733 648.759 447V448H640.159V447C640.986 446.573 641.866 446.253 642.799 446.04V420.72L639.759 420.4V419.36C640.533 419.04 641.426 418.76 642.439 418.52C643.479 418.28 644.466 418.08 645.399 417.92H646.399V432.04H646.439C646.999 430.787 647.799 429.72 648.839 428.84C649.906 427.96 651.186 427.52 652.679 427.52C653.746 427.52 654.693 427.653 655.519 427.92C656.373 428.16 657.079 428.6 657.639 429.24C658.199 429.88 658.626 430.747 658.919 431.84C659.213 432.907 659.359 434.267 659.359 435.92V446.04C659.813 446.147 660.266 446.267 660.719 446.4C661.173 446.533 661.599 446.733 661.999 447V448ZM673.196 448H664.316V447C664.716 446.787 665.129 446.613 665.556 446.48C665.982 446.32 666.449 446.173 666.956 446.04V430.32L664.316 430V428.96C665.089 428.64 665.929 428.36 666.836 428.12C667.742 427.88 668.649 427.68 669.556 427.52H670.556V446.04C671.089 446.173 671.569 446.32 671.996 446.48C672.422 446.613 672.822 446.787 673.196 447V448ZM666.196 421.2C666.196 420.48 666.422 419.907 666.876 419.48C667.356 419.053 667.982 418.84 668.756 418.84C669.529 418.84 670.142 419.053 670.596 419.48C671.049 419.907 671.276 420.48 671.276 421.2C671.276 421.92 671.049 422.493 670.596 422.92C670.142 423.32 669.529 423.52 668.756 423.52C667.982 423.52 667.356 423.32 666.876 422.92C666.422 422.493 666.196 421.92 666.196 421.2ZM686.507 443.44C686.507 442.693 686.267 442.067 685.787 441.56C685.334 441.027 684.747 440.533 684.027 440.08C683.307 439.627 682.534 439.187 681.707 438.76C680.907 438.333 680.147 437.84 679.427 437.28C678.707 436.693 678.107 436.027 677.627 435.28C677.174 434.533 676.947 433.613 676.947 432.52C676.947 431.8 677.107 431.133 677.427 430.52C677.774 429.907 678.227 429.387 678.787 428.96C679.347 428.507 680 428.16 680.747 427.92C681.494 427.653 682.294 427.52 683.147 427.52C684.587 427.52 685.76 427.6 686.667 427.76C687.6 427.92 688.494 428.147 689.347 428.44C689.24 429.293 689.107 430.16 688.947 431.04C688.814 431.893 688.614 432.773 688.347 433.68H687.347L685.827 429.6C685.507 429.467 685.147 429.387 684.747 429.36C684.347 429.307 683.934 429.28 683.507 429.28C683.027 429.28 682.6 429.373 682.227 429.56C681.88 429.72 681.574 429.933 681.307 430.2C681.067 430.467 680.88 430.773 680.747 431.12C680.614 431.467 680.547 431.813 680.547 432.16C680.547 432.88 680.774 433.507 681.227 434.04C681.707 434.547 682.307 435.027 683.027 435.48C683.747 435.907 684.507 436.333 685.307 436.76C686.134 437.187 686.907 437.667 687.627 438.2C688.347 438.733 688.934 439.36 689.387 440.08C689.867 440.773 690.107 441.613 690.107 442.6C690.107 443.507 689.907 444.32 689.507 445.04C689.134 445.76 688.6 446.373 687.907 446.88C687.24 447.387 686.454 447.773 685.547 448.04C684.667 448.333 683.72 448.48 682.707 448.48C681.56 448.48 680.507 448.373 679.547 448.16C678.587 447.973 677.587 447.693 676.547 447.32C676.6 446.36 676.72 445.44 676.907 444.56C677.094 443.653 677.334 442.787 677.627 441.96H678.627L680.387 446.32C680.68 446.533 681.027 446.653 681.427 446.68C681.854 446.707 682.24 446.72 682.587 446.72C683.76 446.72 684.707 446.4 685.427 445.76C686.147 445.12 686.507 444.347 686.507 443.44ZM712.258 448H703.378V447C704.258 446.573 705.138 446.253 706.018 446.04V420.72L702.978 420.4V419.36C703.672 419.04 704.538 418.76 705.578 418.52C706.618 418.28 707.632 418.08 708.618 417.92H709.618V446.04C710.498 446.253 711.378 446.573 712.258 447V448ZM730.17 442.76C730.17 443.347 730.183 443.853 730.21 444.28C730.236 444.707 730.263 445.16 730.29 445.64L733.05 446.04V446.88C732.383 447.227 731.636 447.533 730.81 447.8C730.01 448.067 729.236 448.267 728.49 448.4H727.49C727.223 447.787 727.063 447.12 727.01 446.4C726.956 445.653 726.916 444.84 726.89 443.96H726.69C726.583 444.493 726.37 445.04 726.05 445.6C725.756 446.133 725.356 446.613 724.85 447.04C724.37 447.467 723.796 447.813 723.13 448.08C722.463 448.347 721.703 448.48 720.85 448.48C719.223 448.48 717.89 447.987 716.85 447C715.836 446.013 715.33 444.72 715.33 443.12C715.33 441.893 715.57 440.893 716.05 440.12C716.556 439.32 717.29 438.693 718.25 438.24C719.21 437.787 720.396 437.467 721.81 437.28C723.223 437.067 724.863 436.907 726.73 436.8C726.836 435.653 726.863 434.627 726.81 433.72C726.783 432.787 726.636 432 726.37 431.36C726.13 430.693 725.756 430.187 725.25 429.84C724.77 429.467 724.13 429.28 723.33 429.28C722.956 429.28 722.53 429.307 722.05 429.36C721.596 429.387 721.143 429.493 720.69 429.68L718.81 434.48H717.77C717.503 433.68 717.263 432.853 717.05 432C716.863 431.147 716.743 430.307 716.69 429.48C717.703 428.867 718.823 428.387 720.05 428.04C721.303 427.693 722.69 427.52 724.21 427.52C725.57 427.52 726.65 427.72 727.45 428.12C728.276 428.493 728.903 428.987 729.33 429.6C729.756 430.213 730.036 430.893 730.17 431.64C730.303 432.387 730.37 433.133 730.37 433.88C730.37 435.48 730.33 437.027 730.25 438.52C730.196 439.987 730.17 441.4 730.17 442.76ZM722.45 446C723.116 446 723.703 445.867 724.21 445.6C724.716 445.333 725.143 445.013 725.49 444.64C725.836 444.267 726.116 443.893 726.33 443.52C726.543 443.12 726.69 442.787 726.77 442.52V438.32C725.223 438.32 723.956 438.4 722.97 438.56C721.983 438.72 721.21 438.973 720.65 439.32C720.09 439.667 719.703 440.107 719.49 440.64C719.276 441.147 719.17 441.733 719.17 442.4C719.17 443.547 719.463 444.44 720.05 445.08C720.636 445.693 721.436 446 722.45 446ZM745.765 443.44C745.765 442.693 745.525 442.067 745.045 441.56C744.592 441.027 744.005 440.533 743.285 440.08C742.565 439.627 741.792 439.187 740.965 438.76C740.165 438.333 739.405 437.84 738.685 437.28C737.965 436.693 737.365 436.027 736.885 435.28C736.432 434.533 736.205 433.613 736.205 432.52C736.205 431.8 736.365 431.133 736.685 430.52C737.032 429.907 737.485 429.387 738.045 428.96C738.605 428.507 739.258 428.16 740.005 427.92C740.752 427.653 741.552 427.52 742.405 427.52C743.845 427.52 745.018 427.6 745.925 427.76C746.858 427.92 747.752 428.147 748.605 428.44C748.498 429.293 748.365 430.16 748.205 431.04C748.072 431.893 747.872 432.773 747.605 433.68H746.605L745.085 429.6C744.765 429.467 744.405 429.387 744.005 429.36C743.605 429.307 743.192 429.28 742.765 429.28C742.285 429.28 741.858 429.373 741.485 429.56C741.138 429.72 740.832 429.933 740.565 430.2C740.325 430.467 740.138 430.773 740.005 431.12C739.872 431.467 739.805 431.813 739.805 432.16C739.805 432.88 740.032 433.507 740.485 434.04C740.965 434.547 741.565 435.027 742.285 435.48C743.005 435.907 743.765 436.333 744.565 436.76C745.392 437.187 746.165 437.667 746.885 438.2C747.605 438.733 748.192 439.36 748.645 440.08C749.125 440.773 749.365 441.613 749.365 442.6C749.365 443.507 749.165 444.32 748.765 445.04C748.392 445.76 747.858 446.373 747.165 446.88C746.498 447.387 745.712 447.773 744.805 448.04C743.925 448.333 742.978 448.48 741.965 448.48C740.818 448.48 739.765 448.373 738.805 448.16C737.845 447.973 736.845 447.693 735.805 447.32C735.858 446.36 735.978 445.44 736.165 444.56C736.352 443.653 736.592 442.787 736.885 441.96H737.885L739.645 446.32C739.938 446.533 740.285 446.653 740.685 446.68C741.112 446.707 741.498 446.72 741.845 446.72C743.018 446.72 743.965 446.4 744.685 445.76C745.405 445.12 745.765 444.347 745.765 443.44ZM751.87 428.96C752.883 428.32 753.95 427.867 755.07 427.6V424.2C755.416 423.933 755.816 423.68 756.27 423.44C756.75 423.173 757.216 422.947 757.67 422.76H758.67V428H764.67V430H758.67V441.6C758.67 443.2 758.923 444.333 759.43 445C759.936 445.667 760.696 446 761.71 446C762.19 446 762.79 445.973 763.51 445.92C764.23 445.84 764.843 445.707 765.35 445.52L765.63 446.12C765.416 446.36 765.11 446.613 764.71 446.88C764.336 447.147 763.896 447.4 763.39 447.64C762.91 447.88 762.376 448.08 761.79 448.24C761.203 448.4 760.603 448.48 759.99 448.48C758.39 448.48 757.163 448.027 756.31 447.12C755.483 446.213 755.07 444.747 755.07 442.72V430H751.87V428.96ZM246.016 522.051C245.117 521.152 244.355 520.312 243.73 519.531C243.105 518.711 242.422 518.008 241.68 517.422C240.977 516.836 240.117 516.367 239.102 516.016C238.086 515.625 236.777 515.43 235.176 515.43V493.691H286.68V515.43C283.242 515.43 280.957 515.996 279.824 517.129C278.73 518.262 278.77 519.668 279.941 521.348L288.027 532.598H288.496L296.523 521.348C297.891 519.824 298.027 518.457 296.934 517.246C295.879 516.035 293.496 515.43 289.785 515.43V493.691H325.059V515.43C323.887 515.43 322.852 515.547 321.953 515.781C321.094 516.016 320.273 516.406 319.492 516.953C318.75 517.461 317.969 518.145 317.148 519.004C316.367 519.824 315.41 520.84 314.277 522.051L297.461 542.676V551.699C297.461 554.238 298.203 555.977 299.688 556.914C301.172 557.812 303.633 558.262 307.07 558.262V580H253.34V558.262C256.777 558.262 259.238 557.812 260.723 556.914C262.207 555.977 262.949 554.238 262.949 551.699V542.676L246.016 522.051ZM325.82 547.598C325.82 541.855 326.816 536.816 328.809 532.48C330.801 528.145 333.633 524.531 337.305 521.641C341.016 518.711 345.469 516.504 350.664 515.02C355.859 513.535 361.66 512.793 368.066 512.793C374.473 512.793 380.273 513.535 385.469 515.02C390.664 516.504 395.098 518.711 398.77 521.641C402.441 524.531 405.273 528.145 407.266 532.48C409.297 536.816 410.312 541.855 410.312 547.598C410.312 553.262 409.297 558.281 407.266 562.656C405.273 567.031 402.441 570.703 398.77 573.672C395.098 576.602 390.664 578.809 385.469 580.293C380.273 581.777 374.473 582.52 368.066 582.52C361.66 582.52 355.859 581.777 350.664 580.293C345.469 578.809 341.016 576.602 337.305 573.672C333.633 570.703 330.801 567.031 328.809 562.656C326.816 558.281 325.82 553.262 325.82 547.598ZM359.16 547.598C359.16 550.879 359.297 553.672 359.57 555.977C359.883 558.242 360.371 560.078 361.035 561.484C361.699 562.852 362.598 563.867 363.73 564.531C364.863 565.156 366.309 565.469 368.066 565.469C369.824 565.469 371.25 565.156 372.344 564.531C373.477 563.867 374.375 562.852 375.039 561.484C375.742 560.078 376.23 558.242 376.504 555.977C376.777 553.672 376.914 550.879 376.914 547.598C376.914 541.035 376.289 536.445 375.039 533.828C373.828 531.172 371.504 529.844 368.066 529.844C366.309 529.844 364.863 530.156 363.73 530.781C362.598 531.367 361.699 532.363 361.035 533.77C360.371 535.137 359.883 536.973 359.57 539.277C359.297 541.543 359.16 544.316 359.16 547.598ZM500.078 553.574C500.078 555.449 500.605 556.699 501.66 557.324C502.754 557.949 503.984 558.262 505.352 558.262H508.457V580H473.652V563.945H472.715C471.816 569.922 469.375 574.453 465.391 577.539C461.406 580.625 455.605 582.168 447.988 582.168C442.637 582.168 438.281 581.406 434.922 579.883C431.562 578.359 428.965 576.445 427.129 574.141C425.293 571.797 424.023 569.277 423.32 566.582C422.656 563.848 422.324 561.289 422.324 558.906V542.91C422.324 540.84 421.953 539.375 421.211 538.516C420.508 537.617 419.121 537.168 417.051 537.168H413.535V515.43H454.492V552.402C454.492 553.926 454.668 555.156 455.02 556.094C455.371 556.992 455.82 557.695 456.367 558.203C456.953 558.672 457.598 558.984 458.301 559.141C459.043 559.297 459.727 559.375 460.352 559.375C462.93 559.375 464.824 558.633 466.035 557.148C467.285 555.664 467.91 553.555 467.91 550.82V542.91C467.91 540.84 467.539 539.375 466.797 538.516C466.094 537.617 464.707 537.168 462.637 537.168H459.18V515.43H500.078V553.574ZM607.949 561.426L600.918 580H570.273L555.801 542.207C555.059 540.371 554.16 539.082 553.105 538.34C552.09 537.559 550.41 537.168 548.066 537.168V515.43H591.543V537.168C589.707 537.168 588.496 537.52 587.91 538.223C587.363 538.887 587.285 540.02 587.676 541.621L592.832 559.609H593.711L599.219 541.621C600.195 538.652 598.906 537.168 595.352 537.168V515.43H635.195V537.168C633.359 537.168 632.168 537.52 631.621 538.223C631.074 538.887 630.996 540.02 631.387 541.621L636.543 559.609H637.363L642.871 541.621C643.848 538.652 642.578 537.168 639.062 537.168V515.43H668.828V537.168C667.148 537.168 665.684 537.559 664.434 538.34C663.184 539.082 662.207 540.371 661.504 542.207L646.973 580H615.156L607.949 561.426ZM715.762 515.43V551.934C715.762 554.551 716.406 556.27 717.695 557.09C718.984 557.871 720.625 558.262 722.617 558.262H724.199V580H674.863V558.262H677.148C679.219 558.262 680.742 557.617 681.719 556.328C682.734 555 683.242 553.574 683.242 552.051V543.789C683.242 541.523 682.52 539.863 681.074 538.809C679.668 537.715 678.027 537.168 676.152 537.168H674.863V515.43H715.762ZM682.305 501.016C682.305 497.656 683.574 494.785 686.113 492.402C688.691 490.02 692.344 488.828 697.07 488.828C701.875 488.828 705.566 490.02 708.145 492.402C710.762 494.785 712.07 497.656 712.07 501.016C712.07 504.453 710.762 507.363 708.145 509.746C705.566 512.09 701.875 513.262 697.07 513.262C692.344 513.262 688.691 512.09 686.113 509.746C683.574 507.363 682.305 504.453 682.305 501.016ZM771.074 493.691V551.934C771.074 554.551 771.719 556.27 773.008 557.09C774.297 557.871 775.938 558.262 777.93 558.262H779.512V580H730.176V558.262H732.461C734.531 558.262 736.055 557.617 737.031 556.328C738.047 555 738.555 553.574 738.555 552.051V522.051C738.555 519.785 737.832 518.125 736.387 517.07C734.98 515.977 733.34 515.43 731.465 515.43H730.176V493.691H771.074ZM826.387 493.691V551.934C826.387 554.551 827.031 556.27 828.32 557.09C829.609 557.871 831.25 558.262 833.242 558.262H834.824V580H785.488V558.262H787.773C789.844 558.262 791.367 557.617 792.344 556.328C793.359 555 793.867 553.574 793.867 552.051V522.051C793.867 519.785 793.145 518.125 791.699 517.07C790.293 515.977 788.652 515.43 786.777 515.43H785.488V493.691H826.387ZM235.703 647.43L234.707 663.543H235.703C237.07 657.371 239.336 652.703 242.5 649.539C245.703 646.375 249.844 644.793 254.922 644.793C257.93 644.793 260.508 645.281 262.656 646.258C264.844 647.195 266.602 648.465 267.93 650.066C269.258 651.668 270.215 653.523 270.801 655.633C271.387 657.703 271.68 659.852 271.68 662.078C271.68 663.914 271.406 665.73 270.859 667.527C270.312 669.324 269.434 670.945 268.223 672.391C267.012 673.836 265.449 675.008 263.535 675.906C261.621 676.766 259.258 677.195 256.445 677.195C252.539 677.195 249.453 676.199 247.188 674.207C244.961 672.215 243.848 669.812 243.848 667C243.848 665.633 244.004 664.48 244.316 663.543C244.629 662.566 244.941 661.785 245.254 661.199C245.605 660.574 245.84 660.125 245.957 659.852C246.074 659.578 245.938 659.441 245.547 659.441C244.727 659.441 243.828 660.379 242.852 662.254C241.914 664.129 241.445 667.078 241.445 671.102V684.52C241.445 686.59 241.797 688.074 242.5 688.973C243.242 689.832 244.648 690.262 246.719 690.262H250.234V712H200.898V690.262H204.355C205.957 690.262 207.168 689.754 207.988 688.738C208.848 687.684 209.277 686.434 209.277 684.988V673.855C209.277 672.02 208.73 670.789 207.637 670.164C206.582 669.5 205.371 669.168 204.004 669.168H200.898V647.43H235.703ZM308.477 683.348C308.633 689.168 309.727 693.191 311.758 695.418C313.828 697.605 316.777 698.699 320.605 698.699C321.895 698.699 323.145 698.523 324.355 698.172C325.605 697.781 326.758 697.176 327.812 696.355C328.867 695.496 329.766 694.383 330.508 693.016C331.289 691.609 331.797 689.852 332.031 687.742H353.359C352.578 692.781 351.133 697 349.023 700.398C346.953 703.797 344.277 706.551 340.996 708.66C337.715 710.73 333.887 712.215 329.512 713.113C325.176 714.051 320.332 714.52 314.98 714.52C309.473 714.52 304.297 713.816 299.453 712.41C294.609 711.004 290.352 708.875 286.68 706.023C283.047 703.133 280.195 699.52 278.125 695.184C276.055 690.809 275.02 685.613 275.02 679.598C275.02 673.855 275.996 668.816 277.949 664.48C279.902 660.145 282.637 656.531 286.152 653.641C289.707 650.711 293.887 648.504 298.691 647.02C303.535 645.535 308.848 644.793 314.629 644.793C321.738 644.793 327.852 645.73 332.969 647.605C338.086 649.48 342.266 652.098 345.508 655.457C348.75 658.816 351.133 662.859 352.656 667.586C354.18 672.312 354.902 677.566 354.824 683.348H308.477ZM317.148 660.613C314.414 660.613 312.383 661.59 311.055 663.543C309.766 665.457 308.906 668.641 308.477 673.094H325.645C325.41 669.266 324.59 666.238 323.184 664.012C321.777 661.746 319.766 660.613 317.148 660.613ZM391.035 655.574C389.043 655.574 387.324 655.73 385.879 656.043C384.473 656.316 383.262 656.648 382.246 657.039C381.23 657.43 380.391 657.879 379.727 658.387C379.062 658.855 378.477 659.285 377.969 659.676L378.555 660.262C379.297 659.871 380.098 659.48 380.957 659.09C381.855 658.699 382.988 658.504 384.355 658.504C386.66 658.504 388.652 659.266 390.332 660.789C392.012 662.273 392.852 664.656 392.852 667.938C392.852 671.062 391.562 673.582 388.984 675.496C386.445 677.371 383.027 678.309 378.73 678.309C374.629 678.309 371.348 677.137 368.887 674.793C366.465 672.41 365.254 669.051 365.254 664.715C365.254 662.332 365.918 659.969 367.246 657.625C368.574 655.242 370.625 653.113 373.398 651.238C376.211 649.363 379.766 647.82 384.062 646.609C388.398 645.398 393.613 644.793 399.707 644.793C406.973 644.793 412.91 645.477 417.52 646.844C422.129 648.211 425.703 649.969 428.242 652.117C430.82 654.266 432.578 656.707 433.516 659.441C434.492 662.176 434.98 664.93 434.98 667.703V690.613C434.98 694.168 435.098 696.59 435.332 697.879C435.566 699.129 436.445 699.754 437.969 699.754C439.18 699.754 440.02 699.188 440.488 698.055C440.996 696.883 441.25 694.891 441.25 692.078V684.754H447.93V692.195C447.93 695.711 447.637 698.836 447.051 701.57C446.465 704.266 445.352 706.59 443.711 708.543C442.07 710.457 439.844 711.902 437.031 712.879C434.219 713.895 430.625 714.402 426.25 714.402C422.305 714.402 419.023 713.973 416.406 713.113C413.828 712.293 411.777 711.258 410.254 710.008C408.73 708.758 407.637 707.469 406.973 706.141C406.348 704.773 406.035 703.562 406.035 702.508H405.098C404.863 704.109 404.18 705.633 403.047 707.078C401.953 708.523 400.41 709.812 398.418 710.945C396.465 712.039 394.102 712.918 391.328 713.582C388.594 714.285 385.469 714.637 381.953 714.637C378.594 714.637 375.527 714.305 372.754 713.641C370.02 713.016 367.676 712.02 365.723 710.652C363.809 709.246 362.305 707.449 361.211 705.262C360.156 703.035 359.629 700.398 359.629 697.352C359.629 693.602 360.684 690.652 362.793 688.504C364.902 686.316 367.559 684.598 370.762 683.348C373.965 682.059 377.441 681.023 381.191 680.242C384.98 679.422 388.477 678.445 391.68 677.312C394.883 676.18 397.539 674.715 399.648 672.918C401.758 671.121 402.812 668.582 402.812 665.301C402.812 662.371 401.895 660.027 400.059 658.27C398.223 656.473 395.215 655.574 391.035 655.574ZM402.812 680.945C401.953 682.195 400.879 683.211 399.59 683.992C398.301 684.734 397.051 685.477 395.84 686.219C394.668 686.922 393.633 687.781 392.734 688.797C391.875 689.773 391.445 691.102 391.445 692.781C391.445 694.07 391.797 695.242 392.5 696.297C393.203 697.312 394.57 697.82 396.602 697.82C398.438 697.82 399.922 697.117 401.055 695.711C402.227 694.266 402.812 692.254 402.812 689.676V680.945ZM531.367 625.691V685.457C531.367 687.059 531.797 688.27 532.656 689.09C533.555 689.871 534.805 690.262 536.406 690.262H539.746V712H500.371V701.336H499.434C498.809 703.016 497.891 704.617 496.68 706.141C495.469 707.664 493.984 709.012 492.227 710.184C490.469 711.316 488.379 712.215 485.957 712.879C483.574 713.582 480.859 713.934 477.812 713.934C468.242 713.934 460.996 711.043 456.074 705.262C451.152 699.441 448.691 690.926 448.691 679.715C448.691 668.504 451.328 660.184 456.602 654.754C461.875 649.324 469.121 646.609 478.34 646.609C480.801 646.609 483.008 646.805 484.961 647.195C486.914 647.586 488.691 648.094 490.293 648.719C491.895 649.305 493.418 649.988 494.863 650.77C496.309 651.512 497.754 652.234 499.199 652.938V650.828C499.199 648.719 498.828 647.234 498.086 646.375C497.383 645.477 495.996 645.027 493.926 645.027H490.82V625.691H531.367ZM482.031 680.301C482.031 682.41 482.148 684.402 482.383 686.277C482.617 688.152 483.047 689.793 483.672 691.199C484.336 692.605 485.195 693.699 486.25 694.48C487.344 695.262 488.77 695.652 490.527 695.652C492.285 695.652 493.73 695.281 494.863 694.539C495.996 693.797 496.875 692.762 497.5 691.434C498.164 690.105 498.613 688.523 498.848 686.688C499.082 684.852 499.199 682.898 499.199 680.828V667.586C498.223 666.648 496.914 665.867 495.273 665.242C493.633 664.578 492.051 664.246 490.527 664.246C488.77 664.246 487.344 664.695 486.25 665.594C485.195 666.453 484.336 667.625 483.672 669.109C483.047 670.594 482.617 672.312 482.383 674.266C482.148 676.219 482.031 678.23 482.031 680.301ZM622.129 625.691V647.43H639.648V669.168H622.129V687.156C622.129 689.734 622.48 691.844 623.184 693.484C623.926 695.125 625.43 695.945 627.695 695.945C628.945 695.945 629.941 695.711 630.684 695.242C631.465 694.734 632.07 694.09 632.5 693.309C632.969 692.488 633.262 691.57 633.379 690.555C633.496 689.5 633.555 688.367 633.555 687.156V678.426H640.293V687.859C640.293 691.648 639.883 695.184 639.062 698.465C638.281 701.746 636.914 704.578 634.961 706.961C633.047 709.344 630.43 711.238 627.109 712.645C623.789 714.051 619.609 714.754 614.57 714.754C608.984 714.754 604.531 714.07 601.211 712.703C597.891 711.336 595.371 709.461 593.652 707.078C591.934 704.695 590.801 701.863 590.254 698.582C589.746 695.301 589.492 691.727 589.492 687.859V669.168H580.293V649.832C583.223 649.832 585.938 649.207 588.438 647.957C590.977 646.668 593.145 644.91 594.941 642.684C596.777 640.418 598.184 637.84 599.16 634.949C600.176 632.059 600.684 628.973 600.684 625.691H622.129ZM707.617 644.793C712.773 644.793 716.953 645.555 720.156 647.078C723.398 648.602 725.918 650.535 727.715 652.879C729.551 655.184 730.801 657.703 731.465 660.438C732.129 663.133 732.461 665.672 732.461 668.055V684.52C732.461 686.59 732.812 688.074 733.516 688.973C734.258 689.832 735.664 690.262 737.734 690.262H740.898V712H700.352V674.559C700.352 673.035 700.156 671.824 699.766 670.926C699.414 669.988 698.945 669.285 698.359 668.816C697.812 668.309 697.188 667.977 696.484 667.82C695.781 667.664 695.098 667.586 694.434 667.586C691.895 667.586 690 668.328 688.75 669.812C687.5 671.297 686.875 673.406 686.875 676.141V684.52C686.875 686.59 687.227 688.074 687.93 688.973C688.672 689.832 690.078 690.262 692.148 690.262H696.484V712H646.328V690.262H649.785C651.387 690.262 652.598 689.754 653.418 688.738C654.277 687.684 654.707 686.434 654.707 684.988L654.59 654.051C654.59 651.785 653.867 650.125 652.422 649.07C651.016 647.977 649.375 647.43 647.5 647.43H646.328V625.691H686.875V647.43C686.875 648.172 686.641 649.461 686.172 651.297C685.703 653.133 684.824 654.969 683.535 656.805L684.707 657.391C686.816 653.562 689.648 650.516 693.203 648.25C696.758 645.945 701.562 644.793 707.617 644.793ZM787.773 647.43V683.934C787.773 686.551 788.418 688.27 789.707 689.09C790.996 689.871 792.637 690.262 794.629 690.262H796.211V712H746.875V690.262H749.16C751.23 690.262 752.754 689.617 753.73 688.328C754.746 687 755.254 685.574 755.254 684.051V675.789C755.254 673.523 754.531 671.863 753.086 670.809C751.68 669.715 750.039 669.168 748.164 669.168H746.875V647.43H787.773ZM754.316 633.016C754.316 629.656 755.586 626.785 758.125 624.402C760.703 622.02 764.355 620.828 769.082 620.828C773.887 620.828 777.578 622.02 780.156 624.402C782.773 626.785 784.082 629.656 784.082 633.016C784.082 636.453 782.773 639.363 780.156 641.746C777.578 644.09 773.887 645.262 769.082 645.262C764.355 645.262 760.703 644.09 758.125 641.746C755.586 639.363 754.316 636.453 754.316 633.016ZM868.691 668.816H852.578C851.445 666.004 849.688 663.777 847.305 662.137C844.922 660.496 842.441 659.676 839.863 659.676C838.105 659.676 836.699 660.008 835.645 660.672C834.629 661.297 834.121 662.254 834.121 663.543C834.121 665.145 835.02 666.355 836.816 667.176C838.613 667.957 840.859 668.66 843.555 669.285C846.289 669.91 849.238 670.672 852.402 671.57C855.566 672.43 858.496 673.68 861.191 675.32C863.926 676.961 866.191 679.168 867.988 681.941C869.785 684.715 870.684 688.367 870.684 692.898C870.684 696.414 869.902 699.48 868.34 702.098C866.777 704.715 864.629 706.863 861.895 708.543C859.199 710.223 856.016 711.473 852.344 712.293C848.672 713.152 844.707 713.582 840.449 713.582C836.309 713.582 832.383 713.172 828.672 712.352C825 711.57 821.484 710.223 818.125 708.309L817.539 712.352H802.07V688.855H818.125C819.648 691.98 821.562 694.402 823.867 696.121C826.211 697.84 828.789 698.699 831.602 698.699C833.75 698.699 835.273 698.309 836.172 697.527C837.109 696.707 837.578 695.809 837.578 694.832C837.578 693.23 836.68 692 834.883 691.141C833.086 690.242 830.859 689.461 828.203 688.797C825.586 688.094 822.695 687.332 819.531 686.512C816.367 685.652 813.457 684.422 810.801 682.82C808.184 681.219 805.977 679.07 804.18 676.375C802.383 673.641 801.484 670.066 801.484 665.652C801.484 662.488 802.188 659.598 803.594 656.98C805.039 654.363 807.09 652.156 809.746 650.359C812.402 648.562 815.527 647.195 819.121 646.258C822.715 645.281 826.66 644.793 830.957 644.793C835.762 644.793 840.078 645.34 843.906 646.434C847.773 647.488 850.664 648.66 852.578 649.949L853.164 645.789H868.691V668.816ZM379.258 779.43C378.594 779.117 377.871 778.668 377.09 778.082C376.348 777.457 375.664 776.695 375.039 775.797C374.414 774.859 373.867 773.805 373.398 772.633C372.969 771.422 372.754 770.055 372.754 768.531C372.754 765.797 373.535 763.434 375.098 761.441C376.66 759.449 378.828 757.809 381.602 756.52C384.414 755.23 387.773 754.293 391.68 753.707C395.625 753.121 400 752.828 404.805 752.828C410.391 752.828 415.078 753.16 418.867 753.824C422.695 754.488 425.781 755.445 428.125 756.695C430.508 757.945 432.188 759.449 433.164 761.207C434.18 762.965 434.688 764.918 434.688 767.066C434.688 768.355 434.473 769.605 434.043 770.816C433.652 771.988 432.969 773.062 431.992 774.039C431.055 775.016 429.805 775.797 428.242 776.383C426.68 776.969 424.785 777.262 422.559 777.262C418.496 777.262 415.488 776.305 413.535 774.391C411.621 772.477 410.664 770.113 410.664 767.301C410.664 765.699 411.094 764.371 411.953 763.316C412.852 762.223 413.828 761.48 414.883 761.09L414.18 760.621C412.07 760.621 410.352 760.895 409.023 761.441C407.734 761.988 406.719 762.652 405.977 763.434C405.273 764.176 404.805 765.035 404.57 766.012C404.336 766.949 404.219 767.867 404.219 768.766C404.219 770.055 404.473 771.344 404.98 772.633C405.488 773.883 406.348 775.016 407.559 776.031C408.77 777.008 410.371 777.828 412.363 778.492C414.355 779.117 416.836 779.43 419.805 779.43H426.309V801.168H413.066V815.934C413.066 818.551 413.711 820.27 415 821.09C416.289 821.871 417.93 822.262 419.922 822.262H423.906V844H372.168V822.262H374.453C376.523 822.262 378.047 821.617 379.023 820.328C380.039 819 380.547 817.574 380.547 816.051V801.168H369.766V779.43H379.258ZM476.816 779.43V815.934C476.816 818.551 477.461 820.27 478.75 821.09C480.039 821.871 481.68 822.262 483.672 822.262H485.254V844H435.918V822.262H438.203C440.273 822.262 441.797 821.617 442.773 820.328C443.789 819 444.297 817.574 444.297 816.051V807.789C444.297 805.523 443.574 803.863 442.129 802.809C440.723 801.715 439.082 801.168 437.207 801.168H435.918V779.43H476.816ZM443.359 765.016C443.359 761.656 444.629 758.785 447.168 756.402C449.746 754.02 453.398 752.828 458.125 752.828C462.93 752.828 466.621 754.02 469.199 756.402C471.816 758.785 473.125 761.656 473.125 765.016C473.125 768.453 471.816 771.363 469.199 773.746C466.621 776.09 462.93 777.262 458.125 777.262C453.398 777.262 449.746 776.09 447.168 773.746C444.629 771.363 443.359 768.453 443.359 765.016ZM526.035 779.43L525.039 795.543H526.035C527.402 789.371 529.668 784.703 532.832 781.539C536.035 778.375 540.176 776.793 545.254 776.793C548.262 776.793 550.84 777.281 552.988 778.258C555.176 779.195 556.934 780.465 558.262 782.066C559.59 783.668 560.547 785.523 561.133 787.633C561.719 789.703 562.012 791.852 562.012 794.078C562.012 795.914 561.738 797.73 561.191 799.527C560.645 801.324 559.766 802.945 558.555 804.391C557.344 805.836 555.781 807.008 553.867 807.906C551.953 808.766 549.59 809.195 546.777 809.195C542.871 809.195 539.785 808.199 537.52 806.207C535.293 804.215 534.18 801.812 534.18 799C534.18 797.633 534.336 796.48 534.648 795.543C534.961 794.566 535.273 793.785 535.586 793.199C535.938 792.574 536.172 792.125 536.289 791.852C536.406 791.578 536.27 791.441 535.879 791.441C535.059 791.441 534.16 792.379 533.184 794.254C532.246 796.129 531.777 799.078 531.777 803.102V816.52C531.777 818.59 532.129 820.074 532.832 820.973C533.574 821.832 534.98 822.262 537.051 822.262H540.566V844H491.23V822.262H494.688C496.289 822.262 497.5 821.754 498.32 820.738C499.18 819.684 499.609 818.434 499.609 816.988V805.855C499.609 804.02 499.062 802.789 497.969 802.164C496.914 801.5 495.703 801.168 494.336 801.168H491.23V779.43H526.035ZM634.609 800.816H618.496C617.363 798.004 615.605 795.777 613.223 794.137C610.84 792.496 608.359 791.676 605.781 791.676C604.023 791.676 602.617 792.008 601.562 792.672C600.547 793.297 600.039 794.254 600.039 795.543C600.039 797.145 600.938 798.355 602.734 799.176C604.531 799.957 606.777 800.66 609.473 801.285C612.207 801.91 615.156 802.672 618.32 803.57C621.484 804.43 624.414 805.68 627.109 807.32C629.844 808.961 632.109 811.168 633.906 813.941C635.703 816.715 636.602 820.367 636.602 824.898C636.602 828.414 635.82 831.48 634.258 834.098C632.695 836.715 630.547 838.863 627.812 840.543C625.117 842.223 621.934 843.473 618.262 844.293C614.59 845.152 610.625 845.582 606.367 845.582C602.227 845.582 598.301 845.172 594.59 844.352C590.918 843.57 587.402 842.223 584.043 840.309L583.457 844.352H567.988V820.855H584.043C585.566 823.98 587.48 826.402 589.785 828.121C592.129 829.84 594.707 830.699 597.52 830.699C599.668 830.699 601.191 830.309 602.09 829.527C603.027 828.707 603.496 827.809 603.496 826.832C603.496 825.23 602.598 824 600.801 823.141C599.004 822.242 596.777 821.461 594.121 820.797C591.504 820.094 588.613 819.332 585.449 818.512C582.285 817.652 579.375 816.422 576.719 814.82C574.102 813.219 571.895 811.07 570.098 808.375C568.301 805.641 567.402 802.066 567.402 797.652C567.402 794.488 568.105 791.598 569.512 788.98C570.957 786.363 573.008 784.156 575.664 782.359C578.32 780.562 581.445 779.195 585.039 778.258C588.633 777.281 592.578 776.793 596.875 776.793C601.68 776.793 605.996 777.34 609.824 778.434C613.691 779.488 616.582 780.66 618.496 781.949L619.082 777.789H634.609V800.816ZM683.242 757.691V779.43H700.762V801.168H683.242V819.156C683.242 821.734 683.594 823.844 684.297 825.484C685.039 827.125 686.543 827.945 688.809 827.945C690.059 827.945 691.055 827.711 691.797 827.242C692.578 826.734 693.184 826.09 693.613 825.309C694.082 824.488 694.375 823.57 694.492 822.555C694.609 821.5 694.668 820.367 694.668 819.156V810.426H701.406V819.859C701.406 823.648 700.996 827.184 700.176 830.465C699.395 833.746 698.027 836.578 696.074 838.961C694.16 841.344 691.543 843.238 688.223 844.645C684.902 846.051 680.723 846.754 675.684 846.754C670.098 846.754 665.645 846.07 662.324 844.703C659.004 843.336 656.484 841.461 654.766 839.078C653.047 836.695 651.914 833.863 651.367 830.582C650.859 827.301 650.605 823.727 650.605 819.859V801.168H641.406V781.832C644.336 781.832 647.051 781.207 649.551 779.957C652.09 778.668 654.258 776.91 656.055 774.684C657.891 772.418 659.297 769.84 660.273 766.949C661.289 764.059 661.797 760.973 661.797 757.691H683.242ZM312.405 943H298.917V941.608C299.621 941.352 300.325 941.128 301.029 940.936C301.765 940.744 302.549 940.584 303.381 940.456V911.896H296.037L293.493 918.76H292.293C292.197 918.12 292.117 917.4 292.053 916.6C291.989 915.768 291.925 914.936 291.861 914.104C291.829 913.24 291.797 912.408 291.765 911.608C291.733 910.776 291.717 910.04 291.717 909.4H319.605C319.605 910.04 319.589 910.76 319.557 911.56C319.525 912.36 319.477 913.192 319.413 914.056C319.381 914.888 319.333 915.72 319.269 916.552C319.237 917.352 319.173 918.088 319.077 918.76H317.829L315.333 911.896H307.989V940.456C308.821 940.616 309.589 940.776 310.293 940.936C311.029 941.096 311.733 941.32 312.405 941.608V943ZM347.883 943H337.515V941.8C338.283 941.384 339.243 941 340.395 940.648V929.416C340.395 926.92 340.043 924.968 339.339 923.56C338.635 922.12 337.355 921.4 335.499 921.4C334.667 921.4 333.915 921.56 333.243 921.88C332.571 922.168 331.963 922.552 331.419 923.032C330.875 923.512 330.411 924.072 330.027 924.712C329.643 925.32 329.355 925.96 329.163 926.632V940.648C329.675 940.776 330.155 940.92 330.603 941.08C331.083 941.24 331.547 941.48 331.995 941.8V943H321.675V941.8C322.667 941.288 323.723 940.904 324.843 940.648V910.264L321.195 909.88V908.632C322.123 908.248 323.195 907.912 324.411 907.624C325.659 907.336 326.843 907.096 327.963 906.904H329.163V923.848H329.211C329.883 922.344 330.843 921.064 332.091 920.008C333.371 918.952 334.907 918.424 336.699 918.424C337.979 918.424 339.115 918.584 340.107 918.904C341.131 919.192 341.979 919.72 342.651 920.488C343.323 921.256 343.835 922.296 344.187 923.608C344.539 924.888 344.715 926.52 344.715 928.504V940.648C345.259 940.776 345.803 940.92 346.347 941.08C346.891 941.24 347.403 941.48 347.883 941.8V943ZM370.103 939.64C369.847 940.184 369.447 940.696 368.903 941.176C368.359 941.656 367.735 942.072 367.031 942.424C366.327 942.776 365.559 943.048 364.727 943.24C363.895 943.464 363.047 943.576 362.183 943.576C360.295 943.576 358.631 943.288 357.191 942.712C355.751 942.104 354.551 941.256 353.591 940.168C352.631 939.048 351.895 937.72 351.383 936.184C350.903 934.648 350.663 932.92 350.663 931C350.663 926.904 351.607 923.784 353.495 921.64C355.383 919.496 358.055 918.424 361.511 918.424C362.631 918.424 363.735 918.584 364.823 918.904C365.911 919.192 366.871 919.688 367.703 920.392C368.567 921.096 369.255 922.04 369.767 923.224C370.311 924.376 370.583 925.816 370.583 927.544C370.583 928.088 370.551 928.648 370.487 929.224C370.455 929.768 370.375 930.36 370.247 931H355.271C355.271 932.344 355.431 933.608 355.751 934.792C356.103 935.944 356.615 936.952 357.287 937.816C357.959 938.68 358.807 939.368 359.831 939.88C360.855 940.36 362.055 940.6 363.431 940.6C364.551 940.6 365.687 940.44 366.839 940.12C367.991 939.8 368.855 939.384 369.431 938.872L370.103 939.64ZM361.319 920.536C359.495 920.536 358.103 921.16 357.143 922.408C356.183 923.624 355.607 925.784 355.415 928.888H365.975C366.007 928.6 366.023 928.328 366.023 928.072C366.055 927.784 366.071 927.512 366.071 927.256C366.071 925.208 365.687 923.576 364.919 922.36C364.151 921.144 362.951 920.536 361.319 920.536ZM400.532 943H390.212V941.8C391.076 941.352 392.02 940.968 393.044 940.648V929.272C393.044 926.84 392.692 924.92 391.988 923.512C391.284 922.104 390.004 921.4 388.148 921.4C387.348 921.4 386.596 921.544 385.892 921.832C385.22 922.12 384.612 922.52 384.068 923.032C383.556 923.512 383.108 924.072 382.724 924.712C382.34 925.32 382.036 925.96 381.812 926.632V940.648C382.804 940.84 383.764 941.224 384.692 941.8V943H374.324V941.8C375.124 941.384 376.18 941 377.492 940.648V921.784L374.324 921.4V920.152C375.156 919.8 376.116 919.48 377.204 919.192C378.292 918.904 379.428 918.648 380.612 918.424H381.812V923.8H381.86C382.532 922.328 383.492 921.064 384.74 920.008C386.02 918.952 387.556 918.424 389.348 918.424C390.628 918.424 391.764 918.584 392.756 918.904C393.78 919.192 394.628 919.72 395.3 920.488C395.972 921.256 396.484 922.296 396.836 923.608C397.188 924.888 397.364 926.52 397.364 928.504V940.648C398.644 940.872 399.7 941.256 400.532 941.8V943ZM415.024 921.4C414.544 921.272 414.096 921.112 413.68 920.92C413.296 920.728 412.896 920.504 412.48 920.248V919H422.512V920.2C421.84 920.648 420.928 921.048 419.776 921.4L425.92 935.608L426.832 938.584H426.928L427.648 935.56L432.208 921.4C431.248 921.208 430.368 920.824 429.568 920.248V919H437.776V920.248C437.104 920.696 436.192 921.08 435.04 921.4L427.552 943C426.784 945.048 426.048 946.696 425.344 947.944C424.672 949.224 423.984 950.232 423.28 950.968C422.608 951.704 421.904 952.232 421.168 952.552C420.464 952.904 419.696 953.16 418.864 953.32C418.512 952.712 418.192 952.04 417.904 951.304C417.648 950.568 417.424 949.864 417.232 949.192L417.856 948.04H422.848C423.04 947.784 423.2 947.528 423.328 947.272C423.488 947.048 423.648 946.76 423.808 946.408C423.968 946.056 424.144 945.608 424.336 945.064C424.528 944.52 424.752 943.832 425.008 943L415.024 921.4ZM439.21 931C439.21 928.984 439.466 927.208 439.978 925.672C440.522 924.104 441.29 922.792 442.282 921.736C443.274 920.648 444.458 919.832 445.834 919.288C447.242 918.712 448.794 918.424 450.49 918.424C452.474 918.424 454.186 918.728 455.626 919.336C457.066 919.944 458.234 920.808 459.13 921.928C460.058 923.016 460.73 924.328 461.146 925.864C461.594 927.4 461.818 929.112 461.818 931C461.818 935.032 460.794 938.136 458.746 940.312C456.698 942.488 453.946 943.576 450.49 943.576C448.57 943.576 446.906 943.288 445.498 942.712C444.09 942.104 442.922 941.256 441.994 940.168C441.066 939.048 440.362 937.72 439.882 936.184C439.434 934.616 439.21 932.888 439.21 931ZM443.818 931C443.818 932.44 443.946 933.8 444.202 935.08C444.49 936.36 444.922 937.48 445.498 938.44C446.106 939.368 446.89 940.104 447.85 940.648C448.81 941.192 449.962 941.464 451.306 941.464C453.034 941.464 454.442 940.616 455.53 938.92C456.65 937.224 457.21 934.584 457.21 931C457.21 929.528 457.066 928.168 456.778 926.92C456.522 925.64 456.106 924.536 455.53 923.608C454.954 922.648 454.218 921.896 453.322 921.352C452.426 920.808 451.354 920.536 450.106 920.536C448.218 920.536 446.698 921.384 445.546 923.08C444.394 924.776 443.818 927.416 443.818 931ZM467.469 933.496C467.469 931.48 467.517 929.512 467.613 927.592C467.709 925.64 467.757 923.704 467.757 921.784L464.589 921.4V920.152C465.613 919.768 466.653 919.432 467.709 919.144C468.797 918.856 469.853 918.616 470.877 918.424H472.077C472.077 920.824 472.029 923.208 471.933 925.576C471.837 927.944 471.789 930.296 471.789 932.632C471.789 933.88 471.853 935 471.981 935.992C472.141 936.984 472.397 937.816 472.749 938.488C473.133 939.16 473.645 939.688 474.285 940.072C474.925 940.424 475.741 940.6 476.733 940.6C478.173 940.6 479.373 940.088 480.333 939.064C481.325 938.008 482.093 936.648 482.637 934.984V921.784L479.517 921.4V920.152C480.509 919.768 481.533 919.432 482.589 919.144C483.677 918.856 484.733 918.616 485.757 918.424H486.957V940.264L490.125 940.648V941.656C489.197 942.072 488.253 942.44 487.293 942.76C486.365 943.08 485.389 943.32 484.365 943.48H483.165L482.829 937.768H482.637C482.477 938.44 482.189 939.128 481.773 939.832C481.389 940.504 480.877 941.128 480.237 941.704C479.597 942.248 478.861 942.696 478.029 943.048C477.229 943.4 476.349 943.576 475.389 943.576C474.109 943.576 472.973 943.416 471.981 943.096C471.021 942.808 470.205 942.28 469.533 941.512C468.861 940.744 468.349 939.72 467.997 938.44C467.645 937.128 467.469 935.48 467.469 933.496ZM512.608 943.576L505.072 921.4C504.624 921.24 504.176 921.08 503.728 920.92C503.312 920.728 502.912 920.504 502.528 920.248V919H512.512V920.2C512.064 920.456 511.616 920.696 511.168 920.92C510.72 921.112 510.256 921.272 509.776 921.4L513.952 935.416L514.576 938.872H514.672L515.392 935.32L520.576 919.48L522.016 919L527.536 935.368L528.4 938.872H528.496L529.216 935.368L532.912 921.4C532.56 921.336 532.144 921.208 531.664 921.016C531.216 920.824 530.752 920.568 530.272 920.248V919H538.432V920.248C537.76 920.696 536.848 921.08 535.696 921.4L528.88 943L526.336 943.576L521.584 929.992L520.672 926.008H520.528L519.424 929.992L515.104 943L512.608 943.576ZM550.554 943H539.898V941.8C540.378 941.544 540.874 941.336 541.386 941.176C541.898 940.984 542.458 940.808 543.066 940.648V921.784L539.898 921.4V920.152C540.826 919.768 541.834 919.432 542.922 919.144C544.01 918.856 545.098 918.616 546.186 918.424H547.386V940.648C548.026 940.808 548.602 940.984 549.114 941.176C549.626 941.336 550.106 941.544 550.554 941.8V943ZM542.154 910.84C542.154 909.976 542.426 909.288 542.97 908.776C543.546 908.264 544.298 908.008 545.226 908.008C546.154 908.008 546.89 908.264 547.434 908.776C547.978 909.288 548.25 909.976 548.25 910.84C548.25 911.704 547.978 912.392 547.434 912.904C546.89 913.384 546.154 913.624 545.226 913.624C544.298 913.624 543.546 913.384 542.97 912.904C542.426 912.392 542.154 911.704 542.154 910.84ZM564.991 943H554.335V941.8C555.391 941.288 556.447 940.904 557.503 940.648V910.264L553.855 909.88V908.632C554.687 908.248 555.727 907.912 556.975 907.624C558.223 907.336 559.439 907.096 560.623 906.904H561.823V940.648C562.879 940.904 563.935 941.288 564.991 941.8V943ZM579.429 943H568.773V941.8C569.829 941.288 570.885 940.904 571.941 940.648V910.264L568.293 909.88V908.632C569.125 908.248 570.165 907.912 571.413 907.624C572.661 907.336 573.877 907.096 575.061 906.904H576.261V940.648C577.317 940.904 578.373 941.288 579.429 941.8V943ZM604.626 922.6C604.274 922.792 603.826 923.192 603.282 923.8C602.77 924.376 602.306 925.24 601.89 926.392V940.648C602.53 940.712 603.17 940.84 603.81 941.032C604.45 941.192 605.09 941.448 605.73 941.8V943H594.402V941.8C594.978 941.48 595.522 941.24 596.034 941.08C596.546 940.92 597.058 940.776 597.57 940.648V921.784L594.402 921.4V920.152C595.426 919.704 596.482 919.352 597.57 919.096C598.658 918.808 599.698 918.584 600.69 918.424H601.89V923.512H602.082C602.37 922.872 602.77 922.232 603.282 921.592C603.826 920.952 604.434 920.376 605.106 919.864C605.81 919.352 606.562 918.968 607.362 918.712C608.194 918.424 609.042 918.328 609.906 918.424C610.13 918.84 610.322 919.304 610.482 919.816C610.674 920.296 610.85 920.808 611.01 921.352V922.6H604.626ZM632.744 939.64C632.488 940.184 632.088 940.696 631.544 941.176C631 941.656 630.376 942.072 629.672 942.424C628.968 942.776 628.2 943.048 627.368 943.24C626.536 943.464 625.688 943.576 624.824 943.576C622.936 943.576 621.272 943.288 619.832 942.712C618.392 942.104 617.192 941.256 616.232 940.168C615.272 939.048 614.536 937.72 614.024 936.184C613.544 934.648 613.304 932.92 613.304 931C613.304 926.904 614.248 923.784 616.136 921.64C618.024 919.496 620.696 918.424 624.152 918.424C625.272 918.424 626.376 918.584 627.464 918.904C628.552 919.192 629.512 919.688 630.344 920.392C631.208 921.096 631.896 922.04 632.408 923.224C632.952 924.376 633.224 925.816 633.224 927.544C633.224 928.088 633.192 928.648 633.128 929.224C633.096 929.768 633.016 930.36 632.888 931H617.912C617.912 932.344 618.072 933.608 618.392 934.792C618.744 935.944 619.256 936.952 619.928 937.816C620.6 938.68 621.448 939.368 622.472 939.88C623.496 940.36 624.696 940.6 626.072 940.6C627.192 940.6 628.328 940.44 629.48 940.12C630.632 939.8 631.496 939.384 632.072 938.872L632.744 939.64ZM623.96 920.536C622.136 920.536 620.744 921.16 619.784 922.408C618.824 923.624 618.248 925.784 618.056 928.888H628.616C628.648 928.6 628.664 928.328 628.664 928.072C628.696 927.784 628.712 927.512 628.712 927.256C628.712 925.208 628.328 923.576 627.56 922.36C626.792 921.144 625.592 920.536 623.96 920.536ZM655.157 936.712C655.157 937.416 655.173 938.024 655.205 938.536C655.237 939.048 655.269 939.592 655.301 940.168L658.613 940.648V941.656C657.813 942.072 656.917 942.44 655.925 942.76C654.965 943.08 654.037 943.32 653.141 943.48H651.941C651.621 942.744 651.429 941.944 651.365 941.08C651.301 940.184 651.253 939.208 651.221 938.152H650.981C650.853 938.792 650.597 939.448 650.213 940.12C649.861 940.76 649.381 941.336 648.773 941.848C648.197 942.36 647.509 942.776 646.709 943.096C645.909 943.416 644.997 943.576 643.973 943.576C642.021 943.576 640.421 942.984 639.173 941.8C637.957 940.616 637.349 939.064 637.349 937.144C637.349 935.672 637.637 934.472 638.213 933.544C638.821 932.584 639.701 931.832 640.853 931.288C642.005 930.744 643.429 930.36 645.125 930.136C646.821 929.88 648.789 929.688 651.029 929.56C651.157 928.184 651.189 926.952 651.125 925.864C651.093 924.744 650.917 923.8 650.597 923.032C650.309 922.232 649.861 921.624 649.253 921.208C648.677 920.76 647.909 920.536 646.949 920.536C646.501 920.536 645.989 920.568 645.413 920.632C644.869 920.664 644.325 920.792 643.781 921.016L641.525 926.776H640.277C639.957 925.816 639.669 924.824 639.413 923.8C639.189 922.776 639.045 921.768 638.981 920.776C640.197 920.04 641.541 919.464 643.013 919.048C644.517 918.632 646.181 918.424 648.005 918.424C649.637 918.424 650.933 918.664 651.893 919.144C652.885 919.592 653.637 920.184 654.149 920.92C654.661 921.656 654.997 922.472 655.157 923.368C655.317 924.264 655.397 925.16 655.397 926.056C655.397 927.976 655.349 929.832 655.253 931.624C655.189 933.384 655.157 935.08 655.157 936.712ZM645.893 940.6C646.693 940.6 647.397 940.44 648.005 940.12C648.613 939.8 649.125 939.416 649.541 938.968C649.957 938.52 650.293 938.072 650.549 937.624C650.805 937.144 650.981 936.744 651.077 936.424V931.384C649.221 931.384 647.701 931.48 646.517 931.672C645.333 931.864 644.405 932.168 643.733 932.584C643.061 933 642.597 933.528 642.341 934.168C642.085 934.776 641.957 935.48 641.957 936.28C641.957 937.656 642.309 938.728 643.013 939.496C643.717 940.232 644.677 940.6 645.893 940.6ZM677.615 938.248C677.455 938.952 677.183 939.624 676.799 940.264C676.415 940.904 675.935 941.48 675.359 941.992C674.815 942.472 674.175 942.856 673.439 943.144C672.735 943.432 671.967 943.576 671.135 943.576C667.967 943.576 665.599 942.568 664.031 940.552C662.463 938.536 661.679 935.4 661.679 931.144C661.679 927.048 662.671 923.928 664.655 921.784C666.671 919.64 669.375 918.568 672.767 918.568C673.951 918.568 674.879 918.632 675.551 918.76C676.223 918.856 676.959 919.048 677.759 919.336V910.264L674.111 909.88V908.632C675.039 908.248 676.111 907.912 677.327 907.624C678.575 907.336 679.759 907.096 680.879 906.904H682.079V940.264L685.247 940.648V941.656C684.319 942.104 683.359 942.488 682.367 942.808C681.375 943.128 680.399 943.352 679.439 943.48H678.239L677.807 938.248H677.615ZM672.095 940.6C673.663 940.6 674.911 940.104 675.839 939.112C676.767 938.12 677.407 936.776 677.759 935.08V921.544C677.215 921.224 676.575 921 675.839 920.872C675.103 920.744 674.159 920.68 673.007 920.68C670.831 920.68 669.167 921.64 668.015 923.56C666.863 925.448 666.287 927.976 666.287 931.144C666.287 932.456 666.399 933.688 666.623 934.84C666.847 935.96 667.199 936.952 667.679 937.816C668.159 938.68 668.751 939.368 669.455 939.88C670.191 940.36 671.071 940.6 672.095 940.6ZM698.728 920.152C699.944 919.384 701.224 918.84 702.568 918.52V914.44C702.984 914.12 703.464 913.816 704.008 913.528C704.584 913.208 705.144 912.936 705.688 912.712H706.888V919H714.088V921.4H706.888V935.32C706.888 937.24 707.192 938.6 707.8 939.4C708.408 940.2 709.32 940.6 710.536 940.6C711.112 940.6 711.832 940.568 712.696 940.504C713.56 940.408 714.296 940.248 714.904 940.024L715.24 940.744C714.984 941.032 714.616 941.336 714.136 941.656C713.688 941.976 713.16 942.28 712.552 942.568C711.976 942.856 711.336 943.096 710.632 943.288C709.928 943.48 709.208 943.576 708.472 943.576C706.552 943.576 705.08 943.032 704.056 941.944C703.064 940.856 702.568 939.096 702.568 936.664V921.4H698.728V920.152ZM743.18 943H732.812V941.8C733.58 941.384 734.54 941 735.692 940.648V929.416C735.692 926.92 735.34 924.968 734.636 923.56C733.932 922.12 732.652 921.4 730.796 921.4C729.964 921.4 729.212 921.56 728.54 921.88C727.868 922.168 727.26 922.552 726.716 923.032C726.172 923.512 725.708 924.072 725.324 924.712C724.94 925.32 724.652 925.96 724.46 926.632V940.648C724.972 940.776 725.452 940.92 725.9 941.08C726.38 941.24 726.844 941.48 727.292 941.8V943H716.972V941.8C717.964 941.288 719.02 940.904 720.14 940.648V910.264L716.492 909.88V908.632C717.42 908.248 718.492 907.912 719.708 907.624C720.956 907.336 722.14 907.096 723.26 906.904H724.46V923.848H724.508C725.18 922.344 726.14 921.064 727.388 920.008C728.668 918.952 730.204 918.424 731.996 918.424C733.276 918.424 734.412 918.584 735.404 918.904C736.428 919.192 737.276 919.72 737.948 920.488C738.62 921.256 739.132 922.296 739.484 923.608C739.836 924.888 740.012 926.52 740.012 928.504V940.648C740.556 940.776 741.1 940.92 741.644 941.08C742.188 941.24 742.7 941.48 743.18 941.8V943ZM756.616 943H745.96V941.8C746.44 941.544 746.936 941.336 747.448 941.176C747.96 940.984 748.52 940.808 749.128 940.648V921.784L745.96 921.4V920.152C746.888 919.768 747.896 919.432 748.984 919.144C750.072 918.856 751.16 918.616 752.248 918.424H753.448V940.648C754.088 940.808 754.664 940.984 755.176 941.176C755.688 941.336 756.168 941.544 756.616 941.8V943ZM748.216 910.84C748.216 909.976 748.488 909.288 749.032 908.776C749.608 908.264 750.36 908.008 751.288 908.008C752.216 908.008 752.952 908.264 753.496 908.776C754.04 909.288 754.312 909.976 754.312 910.84C754.312 911.704 754.04 912.392 753.496 912.904C752.952 913.384 752.216 913.624 751.288 913.624C750.36 913.624 749.608 913.384 749.032 912.904C748.488 912.392 748.216 911.704 748.216 910.84ZM772.59 937.528C772.59 936.632 772.302 935.88 771.726 935.272C771.182 934.632 770.478 934.04 769.614 933.496C768.75 932.952 767.822 932.424 766.83 931.912C765.87 931.4 764.958 930.808 764.094 930.136C763.23 929.432 762.51 928.632 761.934 927.736C761.39 926.84 761.118 925.736 761.118 924.424C761.118 923.56 761.31 922.76 761.694 922.024C762.11 921.288 762.654 920.664 763.326 920.152C763.998 919.608 764.782 919.192 765.678 918.904C766.574 918.584 767.534 918.424 768.558 918.424C770.286 918.424 771.694 918.52 772.782 918.712C773.902 918.904 774.974 919.176 775.998 919.528C775.87 920.552 775.71 921.592 775.518 922.648C775.358 923.672 775.118 924.728 774.798 925.816H773.598L771.774 920.92C771.39 920.76 770.958 920.664 770.478 920.632C769.998 920.568 769.502 920.536 768.99 920.536C768.414 920.536 767.902 920.648 767.454 920.872C767.038 921.064 766.67 921.32 766.35 921.64C766.062 921.96 765.838 922.328 765.678 922.744C765.518 923.16 765.438 923.576 765.438 923.992C765.438 924.856 765.71 925.608 766.254 926.248C766.83 926.856 767.55 927.432 768.414 927.976C769.278 928.488 770.19 929 771.15 929.512C772.142 930.024 773.07 930.6 773.934 931.24C774.798 931.88 775.502 932.632 776.046 933.496C776.622 934.328 776.91 935.336 776.91 936.52C776.91 937.608 776.67 938.584 776.19 939.448C775.742 940.312 775.102 941.048 774.27 941.656C773.47 942.264 772.526 942.728 771.438 943.048C770.382 943.4 769.246 943.576 768.03 943.576C766.654 943.576 765.39 943.448 764.238 943.192C763.086 942.968 761.886 942.632 760.638 942.184C760.702 941.032 760.846 939.928 761.07 938.872C761.294 937.784 761.582 936.744 761.934 935.752H763.134L765.246 940.984C765.598 941.24 766.014 941.384 766.494 941.416C767.006 941.448 767.47 941.464 767.886 941.464C769.294 941.464 770.43 941.08 771.294 940.312C772.158 939.544 772.59 938.616 772.59 937.528Z" fill="black"/>
</svg>
