<svg xmlns="http://www.w3.org/2000/svg" width="1080" height="1350" fill="none"><path fill="#000" d="m292.275 447 10.64-27.44h4.8l10.6 27.44h-4.48l-2.4-6.16h-12.56l-2.44 6.16zm7.76-9.4h10.2l-5-13.24h-.16zm21.836 9.4v-20.44h2.88l.56 3q1.12-1.68 2.88-2.52a8.7 8.7 0 0 1 3.88-.88q2.12 0 3.72.8a5.85 5.85 0 0 1 2.56 2.4q.92 1.56.92 3.92V447h-4v-13.04q0-2.52-1.16-3.6-1.16-1.12-3.28-1.12-1.36 0-2.52.68a5.2 5.2 0 0 0-1.8 1.84q-.64 1.12-.64 2.6V447zm31.309.4q-2.32 0-4.24-1.08-1.88-1.12-3.04-3.48-1.12-2.36-1.12-6.04v-.44q0-3.36 1.08-5.6 1.12-2.28 2.92-3.44 1.84-1.16 4.08-1.16 2.16 0 3.72.84 1.56.8 2.4 2.16V418.2h4V447h-3.04l-.56-2.84a7.36 7.36 0 0 1-2.56 2.4q-1.52.84-3.64.84m.72-2.84q1.4 0 2.52-.64 1.16-.68 1.84-2.16.72-1.52.72-4.04v-2.24q0-2.2-.68-3.6-.68-1.44-1.84-2.12a4.76 4.76 0 0 0-2.56-.72q-2.08 0-3.52 1.64-1.44 1.6-1.44 4.88v2.2q0 2.48.64 4 .68 1.48 1.8 2.16 1.16.64 2.52.64m26.375 9.88q-.88 0-1.6-.16a6.4 6.4 0 0 1-1.4-.4v-3.12q.44.16 1.12.32t1.32.16q1.04 0 1.72-.44.68-.4 1.24-1.4.6-1 1.2-2.72l-8-20.12h4.28l5.68 15.12h.2l5.56-15.12h3.96l-7.68 19.6a38 38 0 0 1-1.88 4.16q-.96 1.88-2.32 3t-3.4 1.12m27.378-7.04q-2.64 0-4.76-1.24-2.08-1.24-3.28-3.56t-1.2-5.48v-.68q0-3.24 1.2-5.52 1.2-2.32 3.28-3.52 2.12-1.24 4.76-1.24h.52q2.68 0 4.76 1.24t3.28 3.56q1.2 2.28 1.2 5.48v.68q0 3.16-1.2 5.48t-3.32 3.56q-2.08 1.24-4.72 1.24zm.24-2.84q1.52 0 2.72-.72t1.92-2.16.72-3.56v-2.68q0-2.16-.72-3.56-.72-1.44-1.92-2.16t-2.72-.72q-1.48 0-2.68.72t-1.92 2.16q-.72 1.4-.72 3.56v2.68q0 2.12.72 3.56t1.92 2.16 2.68.72m21.675 2.84q-3.16 0-5.04-1.72-1.88-1.76-1.88-5.4v-13.72h4v12.76q0 2.68 1.08 3.84 1.08 1.12 3.16 1.12a5.2 5.2 0 0 0 2.56-.64 5.3 5.3 0 0 0 1.92-1.84q.72-1.16.72-2.6v-12.64h4v16.64q0 .72.32 1.04.36.32.8.32t.92-.16.88-.4v2.56q-.52.4-1.281.6-.76.24-1.759.24-1.281 0-2.04-.48a2.94 2.94 0 0 1-1.12-1.24 7.2 7.2 0 0 1-.52-1.68q-1 1.6-2.84 2.52a8.9 8.9 0 0 1-3.88.88m31.546-.4-6.68-20.44h4.16l4.64 14.6h.16l4.72-14.6h4.2l4.68 14.6h.2l4.64-14.6h3.84l-6.68 20.44h-4.04l-4.8-14.72h-.16l-4.76 14.72zm29.007 0v-20.44h4V447zm-.12-25.44v-3.36h4.24v3.36zM500.973 447v-28.8h4V447zm10.468 0v-28.8h4V447zm19.532 0v-20.44h2.96l.56 3q.039-.08.36-.6.32-.52.96-1.16.68-.68 1.72-1.16 1.08-.48 2.64-.48 2.12 0 3.48.88a4.93 4.93 0 0 1 2.04 2.32q.68 1.48.68 3.36 0 .4-.04.84-.04.4-.04.64h-3.44v-.76q0-.88-.36-1.84a3.27 3.27 0 0 0-1.16-1.64q-.84-.68-2.36-.68-1.12 0-1.92.48-.76.48-1.24 1.2-.44.72-.64 1.52a6 6 0 0 0-.2 1.48V447zm27.888.4q-2.72 0-4.8-1.16-2.04-1.2-3.2-3.48-1.16-2.32-1.16-5.56v-.84q0-3.28 1.2-5.56 1.24-2.28 3.36-3.44 2.12-1.2 4.84-1.2h.44q2.48 0 4.4 1.04a7.2 7.2 0 0 1 2.96 2.96q1.08 1.92 1.08 4.56v2.56h-14.12q0 2.28.6 3.92.64 1.64 1.8 2.52 1.2.84 2.92.84 1.44 0 2.56-.56t1.8-1.72.68-2.88h3.76q0 2.44-1.16 4.24t-3.16 2.8q-1.96.96-4.44.96zm-4.96-12.52h10.16q0-3-1.32-4.44-1.28-1.44-3.6-1.44-2.12 0-3.64 1.48-1.48 1.48-1.6 4.4m24.812 12.52a9.7 9.7 0 0 1-3.16-.52 5.2 5.2 0 0 1-2.44-1.76q-.92-1.28-.92-3.44 0-2.2.96-3.52 1-1.36 2.8-2.08 1.84-.72 4.359-.96a60 60 0 0 1 5.601-.24v-2.08q0-2.16-1.08-3-1.04-.88-3.32-.88-1.92 0-3.32.84-1.4.8-1.4 2.56v.48h-3.88a2 2 0 0 1-.04-.4v-.48q0-1.76 1.08-3.04 1.119-1.32 3-2 1.92-.72 4.36-.72h.56q4.04 0 6 1.6 2 1.6 2 4.6v10.84q0 .72.32 1.04t.76.32.92-.16q.52-.16.92-.4v2.56q-.52.4-1.28.6-.76.24-1.8.24-1.28 0-2.08-.48-.76-.52-1.12-1.36a5.9 5.9 0 0 1-.44-1.88 7.77 7.77 0 0 1-3.04 2.76q-1.84.96-4.32.96m1.599-2.84q1.4 0 2.681-.6 1.28-.64 2.08-1.92.84-1.28.84-3.2v-1.52q-3 0-5.16.32-2.16.28-3.32 1.12-1.12.84-1.12 2.6 0 1.68 1 2.44t2.999.76m24.587 2.84q-2.32 0-4.24-1.08-1.88-1.12-3.04-3.48-1.12-2.36-1.12-6.04v-.44q0-3.36 1.08-5.6 1.12-2.28 2.92-3.44 1.839-1.16 4.08-1.16 2.16 0 3.72.84 1.56.8 2.4 2.16V418.2h4V447h-3.04l-.56-2.84a7.36 7.36 0 0 1-2.56 2.4q-1.52.84-3.64.84m.72-2.84q1.4 0 2.52-.64 1.16-.68 1.84-2.16.72-1.52.72-4.04v-2.24q0-2.2-.68-3.6-.68-1.44-1.84-2.12a4.76 4.76 0 0 0-2.56-.72q-2.08 0-3.52 1.64-1.44 1.6-1.44 4.88v2.2q0 2.48.64 4 .68 1.48 1.8 2.16 1.16.64 2.52.64m30.415 2.84q-1.48 0-2.68-.48a3.96 3.96 0 0 1-1.84-1.52q-.64-1.08-.64-2.84v-12.88h-2.24v-3.12h2.36l1.4-6.52h2.48v6.52h4.76v3.12h-4.76v12.16q0 1.76.72 2.24t1.56.48q.44 0 1.2-.2.8-.2 1.28-.4v2.68a4.6 4.6 0 0 1-1.08.4 6.4 6.4 0 0 1-1.28.28q-.64.08-1.24.08m8.845-.4v-28.8h4v11.08a6.64 6.64 0 0 1 2.76-2.32 8.3 8.3 0 0 1 3.52-.8q2.08 0 3.68.8 1.599.8 2.52 2.4.96 1.56.96 3.92V447h-4v-13.04q0-2.52-1.2-3.6-1.16-1.12-3.28-1.12-1.36 0-2.52.68a5.2 5.2 0 0 0-1.8 1.84q-.64 1.12-.64 2.6V447zm24.148 0v-20.44h4V447zm-.12-25.44v-3.36h4.24v3.36zm17.856 25.84q-2.12 0-3.68-.52t-2.6-1.36q-1.04-.88-1.56-1.92-.52-1.08-.52-2.12v-.4q0-.2.04-.48h3.52a.8.8 0 0 0-.04.24v.2q0 1.16.72 1.96.76.76 2 1.16 1.281.4 2.88.4 1.36 0 2.48-.36 1.161-.36 1.8-1.04.68-.72.68-1.68 0-1.12-.72-1.72-.72-.64-1.92-.96-1.2-.36-2.64-.6-1.4-.28-2.88-.6-1.44-.36-2.64-.96t-1.92-1.64q-.72-1.08-.72-2.84 0-1.36.6-2.48t1.72-1.88q1.12-.8 2.64-1.2 1.56-.44 3.4-.44h.52q1.76 0 3.2.48 1.44.44 2.48 1.24 1.041.76 1.56 1.76.56.96.56 2.04 0 .2-.04.44v.28h-3.52v-.44q0-.4-.2-.88-.159-.52-.72-.96-.52-.48-1.48-.8-.92-.32-2.4-.32-1.4 0-2.32.28t-1.44.72q-.48.44-.68.92t-.2.88q0 .96.72 1.56.72.56 1.92.88t2.64.56q1.48.24 2.92.6 1.44.32 2.64.96 1.2.6 1.92 1.68t.72 2.8q0 1.8-.68 3.08a5.4 5.4 0 0 1-1.88 2q-1.2.76-2.76 1.12t-3.32.36zm23.663-.4v-28.8h4V447zm15.708.4a9.7 9.7 0 0 1-3.16-.52 5.2 5.2 0 0 1-2.44-1.76q-.92-1.28-.92-3.44 0-2.2.96-3.52 1-1.36 2.8-2.08 1.84-.72 4.36-.96 2.56-.24 5.6-.24v-2.08q0-2.16-1.08-3-1.04-.88-3.32-.88-1.92 0-3.32.84-1.4.8-1.4 2.56v.48h-3.88a2 2 0 0 1-.04-.4v-.48q0-1.76 1.08-3.04 1.12-1.32 3-2 1.92-.72 4.36-.72h.56q4.041 0 6 1.6 2 1.6 2 4.6v10.84q0 .72.32 1.04t.76.32.92-.16q.52-.16.92-.4v2.56q-.52.4-1.28.6-.759.24-1.8.24-1.28 0-2.08-.48a3.1 3.1 0 0 1-1.12-1.36 5.9 5.9 0 0 1-.44-1.88 7.75 7.75 0 0 1-3.04 2.76q-1.839.96-4.32.96m1.6-2.84q1.4 0 2.68-.6 1.28-.64 2.08-1.92.84-1.28.84-3.2v-1.52q-3 0-5.16.32-2.16.28-3.32 1.12-1.12.84-1.12 2.6 0 1.68 1 2.44t3 .76m24.147 2.84q-2.12 0-3.68-.52t-2.6-1.36q-1.041-.88-1.56-1.92-.52-1.08-.52-2.12v-.4q0-.2.04-.48h3.52a.8.8 0 0 0-.04.24v.2q0 1.16.72 1.96.76.76 2 1.16 1.28.4 2.88.4 1.36 0 2.48-.36 1.16-.36 1.8-1.04.68-.72.68-1.68 0-1.12-.72-1.72-.72-.64-1.92-.96-1.2-.36-2.64-.6-1.401-.28-2.88-.6-1.44-.36-2.64-.96t-1.92-1.64q-.72-1.08-.72-2.84 0-1.36.6-2.48t1.72-1.88q1.119-.8 2.64-1.2 1.56-.44 3.4-.44h.52q1.76 0 3.2.48 1.44.44 2.48 1.24 1.04.76 1.56 1.76.56.96.56 2.04 0 .2-.04.44v.28h-3.52v-.44q0-.4-.2-.88-.16-.52-.72-.96-.52-.48-1.48-.8-.921-.32-2.4-.32-1.4 0-2.32.28-.921.28-1.44.72-.48.44-.68.92t-.2.88q0 .96.72 1.56.72.56 1.92.88t2.64.56q1.48.24 2.92.6 1.44.32 2.64.96 1.2.6 1.92 1.68t.72 2.8q0 1.8-.68 3.08a5.4 5.4 0 0 1-1.88 2q-1.2.76-2.76 1.12t-3.32.36zm20.559 0q-1.48 0-2.68-.48a3.96 3.96 0 0 1-1.84-1.52q-.64-1.08-.64-2.84v-12.88h-2.24v-3.12h2.36l1.4-6.52h2.48v6.52h4.76v3.12h-4.76v12.16q0 1.76.72 2.24t1.56.48q.441 0 1.2-.2.8-.2 1.28-.4v2.68a4.6 4.6 0 0 1-1.08.4q-.6.2-1.28.28-.64.08-1.24.08m-631.325 46.64v2.4q-2.4.6-4.92 3.36-2.4 2.64-5.4 8.4l-23.64 46.92h-3.24l-28.08-51.84q-2.4-4.32-4.08-5.52-1.56-1.2-2.88-1.2v-2.52q2.64.12 5.52.24t6.24.12h9.36q5.04-.12 9.36-.36v2.52q-3 0-5.4.6-2.28.6-3.12 2.4-.72 1.68.96 4.92l19.8 38.04-1.92 2.04 14.76-29.4q3.72-7.32 3.72-11.28.12-4.08-2.64-5.64-2.64-1.68-7.68-1.8v-2.4q3.72.12 7.32.24t6.84.12q3 0 5.16-.12t3.96-.24m-27.6 46.32v25.92q0 4.32.72 6.48t2.76 2.88 6 .96v2.4q-2.88-.24-7.32-.24-4.44-.12-9-.12-4.92 0-9.36.12-4.44 0-7.08.24v-2.4q4.08-.24 6.12-.96t2.64-2.88q.72-2.16.72-6.48v-24.6l7.8 7.44zm52.596-24.96q8.04 0 14.28 3.36t9.96 10.56 3.72 18.84-3.72 18.84q-3.72 7.08-9.96 10.44-6.24 3.24-14.28 3.24-7.92 0-14.28-3.24-6.36-3.36-10.08-10.44-3.6-7.2-3.6-18.84t3.6-18.84q3.72-7.2 10.08-10.56t14.28-3.36m0 2.4q-6.24 0-10.2 7.2-3.96 7.08-3.96 23.16t3.96 23.16q3.96 6.96 10.2 6.96 6.12 0 10.08-6.96 4.08-7.08 4.08-23.16t-4.08-23.16q-3.96-7.2-10.08-7.2m92.725-2.04v50.28q0 5.4 1.8 8.04 1.92 2.52 6.84 2.52v2.52q-3.72-.36-7.44-.36-3.96 0-7.56.36t-6.6 1.32v-13.08q-3 7.2-8.4 10.32-5.28 3-11.16 3-4.44 0-7.56-1.32-3.12-1.2-5.16-3.24-2.16-2.4-3-6.12-.84-3.84-.84-9.6v-30.24q0-5.4-1.8-7.92-1.8-2.64-6.84-2.64v-2.52q3.84.36 7.44.36 3.96 0 7.56-.36 3.6-.48 6.6-1.32v48q0 3.48.48 6.36t2.28 4.56 5.76 1.68q4.2 0 7.44-2.52 3.36-2.52 5.28-6.84t1.92-9.72v-27.12q0-5.4-1.8-7.92-1.8-2.64-6.84-2.64v-2.52q3.84.36 7.44.36 3.96 0 7.56-.36 3.6-.48 6.6-1.32m65.24 1.32v2.52q-2.88 0-5.16.48-2.16.36-2.88 2.16-.6 1.8.96 6.36l12.12 35.76-1.08.48 16.44-48.12 2.4 1.08-20.76 61.68h-3.96l-19.44-53.16q-1.92-4.8-3.84-5.76-1.8-.96-3.12-.96v-2.52q2.88.36 5.88.6 3.12.12 6.84.12t7.8-.24q4.2-.24 7.8-.48m64.8 0v2.4q-2.28.36-4.32 2.28t-3.6 6.84l-16.92 50.88h-3.96l-18.6-48.12 3-14.64q1.2.12 2.28.12 1.2-.12 2.4-.12l18 49.2-1.08.12 10.56-32.64q1.56-4.92 1.2-7.8t-2.52-4.32-6.48-1.8v-2.4q2.16.12 3.84.24 1.8 0 3.48.12h3.6q2.64 0 4.92-.12 2.4-.12 4.2-.24m17.924-30.24q3.72 0 6.24 2.4 2.52 2.28 2.52 5.76t-2.52 5.88q-2.52 2.28-6.24 2.28t-6.24-2.28q-2.52-2.4-2.52-5.88t2.52-5.76q2.52-2.4 6.24-2.4m7.2 28.92v52.08q0 5.04 1.92 6.84 2.04 1.8 6.72 1.8V579q-2.04-.12-6.36-.24-4.2-.24-8.64-.24-4.2 0-8.64.24-4.44.12-6.6.24v-2.52q4.68 0 6.6-1.8 2.04-1.8 2.04-6.84v-37.68q0-5.4-1.8-7.92-1.8-2.64-6.84-2.64v-2.52q3.84.36 7.44.36 4.08 0 7.56-.36 3.6-.48 6.6-1.32m35.257-30.84v82.92q0 5.04 1.92 6.84 2.04 1.8 6.72 1.8V579q-2.04-.12-6.36-.24-4.32-.24-8.64-.24t-8.76.24q-4.32.12-6.48.24v-2.52q4.68 0 6.6-1.8 2.04-1.8 2.04-6.84v-68.52q0-5.4-1.8-7.92-1.8-2.64-6.84-2.64v-2.52q3.84.36 7.44.36 3.96 0 7.56-.36 3.6-.48 6.6-1.32m35.508 0v82.92q0 5.04 1.92 6.84 2.04 1.8 6.72 1.8V579q-2.04-.12-6.36-.24-4.32-.24-8.64-.24t-8.76.24q-4.32.12-6.48.24v-2.52q4.68 0 6.6-1.8 2.04-1.8 2.04-6.84v-68.52q0-5.4-1.8-7.92-1.8-2.64-6.84-2.64v-2.52q3.84.36 7.44.36 3.96 0 7.56-.36 3.6-.48 6.6-1.32m82.33 30.48q3.48 0 5.88 1.44 2.52 1.44 3.72 3.72 1.32 2.16 1.32 4.92 0 3.48-2.16 6-2.04 2.4-5.52 2.4-3 0-5.16-1.8-2.04-1.8-2.04-4.92 0-2.64 1.32-4.44 1.44-1.92 3.24-3-1.2-.96-2.88-.84-3.24.12-6 2.16-2.76 1.92-4.68 5.04-1.92 3-3 6.48t-1.08 6.48v27.6q0 5.88 3.24 7.92 3.24 1.92 9 1.92V579q-2.76-.12-7.92-.24-5.04-.24-10.68-.24-4.32 0-8.64.24-4.32.12-6.6.24v-2.52q4.68 0 6.6-1.8 2.04-1.8 2.04-6.84v-37.68q0-5.4-1.8-7.92-1.8-2.64-6.84-2.64v-2.52q3.84.36 7.44.36 4.08 0 7.56-.36 3.6-.48 6.6-1.32v13.8q1.44-3.48 3.84-6.72t5.76-5.28q3.36-2.16 7.44-2.16m43.268 0q10.56 0 16.56 6.36t6 20.16h-41.4l-.24-2.28h28.92q.12-5.88-.96-10.8-1.08-5.04-3.36-8.04t-6-3q-5.16 0-9 5.52-3.72 5.4-4.56 17.4l.36.6q-.12 1.68-.24 3.72-.12 1.92-.12 3.84 0 8.28 2.52 13.92t6.6 8.52q4.08 2.76 8.28 2.76 3.24 0 6.24-.96 3.12-1.08 5.88-3.48 2.76-2.52 4.92-6.84l2.4.96q-1.44 4.08-4.44 8.04t-7.68 6.48q-4.68 2.4-10.92 2.4-8.4 0-14.64-3.72-6.24-3.84-9.6-10.92t-3.36-16.8q0-10.68 3.48-18.24t9.72-11.52q6.36-4.08 14.64-4.08m47.746 64.44q-5.04 0-8.64-1.92t-5.4-5.28-1.8-7.68q0-5.28 2.4-8.52 2.4-3.36 6.12-5.4 3.84-2.04 8.04-3.36 4.32-1.44 8.04-2.64 3.84-1.32 6.24-3 2.52-1.68 2.52-4.44v-8.16q0-4.32-1.44-6.84-1.32-2.64-3.72-3.72-2.28-1.08-5.52-1.08-2.76 0-5.88.84-3.12.72-4.92 3 2.64.72 4.32 2.88 1.8 2.04 1.8 5.16 0 3.36-2.28 5.28-2.16 1.92-5.52 1.92-3.72 0-5.52-2.28-1.8-2.4-1.8-5.52 0-3.24 1.56-5.28 1.68-2.04 4.32-3.84 2.88-1.92 7.32-3.24 4.56-1.32 10.08-1.32 5.16 0 8.88 1.2 3.84 1.08 6.36 3.6 3 2.76 3.96 6.96.96 4.08.96 9.96v33.12q0 3 .72 4.32.84 1.2 2.64 1.2 1.2 0 2.28-.6 1.2-.6 2.76-1.8l1.2 2.04q-2.52 2.04-5.16 3.24-2.52 1.2-6.48 1.2-3.84 0-6.24-1.2t-3.6-3.48q-1.08-2.28-1.08-5.64-3.12 5.04-7.44 7.68t-10.08 2.64m5.76-5.76q3.36 0 6.24-1.92 3-1.92 5.52-5.76v-23.88q-1.32 1.92-3.84 3.36-2.52 1.32-5.4 2.76t-5.52 3.36q-2.52 1.8-4.2 4.68t-1.68 7.32q0 4.68 2.4 7.44 2.4 2.64 6.48 2.64m94.066-89.16v81q0 5.4 1.8 8.04 1.92 2.52 6.84 2.52V579q-3.72-.36-7.44-.36-4.08 0-7.68.36-3.48.36-6.48 1.32v-81q0-5.4-1.92-7.92-1.8-2.64-6.72-2.64v-2.52q3.84.36 7.44.36 3.96 0 7.56-.36 3.6-.48 6.6-1.32m-27 30.48q5.28 0 9.6 2.28 4.44 2.28 6.24 7.68l-1.44 1.32q-1.68-4.32-4.92-6.24-3.24-2.04-7.32-2.04-6.84 0-11.16 7.32-4.32 7.2-4.2 22.32 0 9.96 1.68 16.32 1.68 6.24 4.92 9.24 3.36 3 8.04 3t8.4-3.96q3.84-3.96 4.56-11.4l1.08 2.52q-1.2 8.16-5.76 12.6-4.56 4.32-12.24 4.32-7.32 0-12.96-3.48-5.52-3.6-8.52-10.8-3-7.32-3-18.36 0-10.92 3.6-18.12 3.72-7.32 9.84-10.92t13.56-3.6m90.043-18.12v19.92h16.56v2.4h-16.56v47.16q0 4.92 1.8 6.96t5.16 2.04q3.12 0 5.52-2.52 2.52-2.52 4.32-8.52l2.28.84q-1.44 6.36-5.16 10.8-3.6 4.32-10.68 4.32-4.08 0-6.84-1.08-2.76-.96-4.8-2.88-2.64-2.76-3.6-6.6t-.96-10.2V519.6h-11.04v-2.4h11.04v-17.52q3.72-.12 6.96-.6 3.24-.6 6-1.8m42.065-12.24v43.68q3-7.44 8.4-10.32 5.52-3 11.64-3 4.8 0 7.8 1.32 3.12 1.2 5.16 3.36 2.16 2.28 3.12 5.88t.96 9.72v32.16q0 5.04 1.92 6.84 2.04 1.8 6.72 1.8V579q-2.16-.12-6.48-.24-4.32-.24-8.4-.24-4.2 0-8.28.24-3.96.12-5.88.24v-2.52q4.08 0 5.76-1.8t1.68-6.84v-35.52q0-3.48-.6-6.24-.6-2.88-2.64-4.56-1.92-1.8-5.76-1.8-4.32 0-7.8 2.52-3.36 2.4-5.4 6.72-1.92 4.32-1.92 9.84v29.04q0 5.04 1.68 6.84t5.76 1.8V579q-2.04-.12-6-.24-3.84-.24-7.92-.24-4.2 0-8.64.24-4.32.12-6.48.24v-2.52q4.68 0 6.6-1.8 2.04-1.8 2.04-6.84v-68.4q0-5.4-1.92-7.92-1.8-2.64-6.72-2.64v-2.52q3.84.36 7.44.36 3.96 0 7.56-.36 3.6-.48 6.6-1.32m65.007 1.8q3.72 0 6.24 2.4 2.52 2.28 2.52 5.76t-2.52 5.88q-2.52 2.28-6.24 2.28t-6.24-2.28q-2.52-2.4-2.52-5.88t2.52-5.76q2.52-2.4 6.24-2.4m7.2 28.92v52.08q0 5.04 1.92 6.84 2.04 1.8 6.72 1.8V579q-2.04-.12-6.36-.24-4.2-.24-8.64-.24-4.2 0-8.64.24-4.44.12-6.6.24v-2.52q4.68 0 6.6-1.8 2.04-1.8 2.04-6.84v-37.68q0-5.4-1.8-7.92-1.8-2.64-6.84-2.64v-2.52q3.84.36 7.44.36 4.08 0 7.56-.36 3.6-.48 6.6-1.32m36.697-.36q4.8 0 8.28 1.56 3.6 1.44 5.16 2.64 3.96 3.12 4.92-4.08h2.64q-.24 3.36-.36 8.16-.12 4.68-.12 12.48h-2.64q-.72-4.44-2.52-8.64-1.68-4.2-5.04-6.96-3.24-2.76-8.52-2.76-3.96 0-6.6 2.28-2.64 2.16-2.64 6.48 0 3.6 2.16 6.24t5.52 4.92q3.48 2.28 7.44 4.92 4.44 3 7.92 6 3.6 2.88 5.64 6.48 2.16 3.6 2.16 8.4 0 5.52-3 9.36-2.88 3.84-7.68 5.88-4.8 1.92-10.56 1.92-2.88 0-5.4-.6-2.52-.48-4.68-1.32l-2.64-1.44q-1.2-.84-2.4-1.56-1.2-.84-2.16.24t-1.44 3.84h-2.64q.24-3.84.36-9.36t.12-14.64h2.64q.84 6.6 2.52 11.64t4.92 7.92q3.36 2.76 9.12 2.76 2.28 0 4.56-.96 2.28-1.08 3.72-3.36 1.56-2.28 1.56-6.12 0-5.28-3.72-8.64-3.6-3.48-9.36-7.32-4.08-2.88-7.8-5.64-3.6-2.88-5.88-6.36-2.28-3.6-2.28-8.52 0-5.4 2.52-8.88 2.64-3.48 6.96-5.16 4.32-1.8 9.24-1.8M465.963 617.16q3.84 0 6.96.48 3.24.48 5.76 1.32t4.32 2.04q2.04 1.2 3.24 3t1.2 4.08q0 3.6-2.521 6-2.519 2.28-6.359 2.28t-6.36-2.28q-2.52-2.4-2.52-5.88 0-2.4 1.32-4.32 1.44-2.04 3.96-3.12-1.44-.84-3.84-1.2-2.28-.48-4.68-.48-6 0-10.08 2.52-3.96 2.4-6.36 6.6-1.68 3-2.52 7.68-.72 4.56-.72 13.32h17.64q5.28 0 9-.12 3.84-.12 6.84-.36 3.12-.36 6-.96v52.08q0 5.04 2.04 6.84t6.84 1.8V711q-2.16-.12-6.48-.24-4.32-.24-8.76-.24-4.32 0-8.76.24-4.32.12-6.48.24v-2.52q4.68 0 6.6-1.8 2.04-1.8 2.04-6.84v-37.68q0-5.4-1.92-7.92-1.8-2.64-6.96-2.64h-17.64v48.24q0 5.16 2.64 6.96 2.76 1.68 7.439 1.68V711q-2.519-.12-7.079-.24-4.56-.24-9.36-.24-4.68 0-9 .24-4.32.12-6.48.24v-2.52q4.8 0 6.84-1.8t2.04-6.84V651.6h-9.36v-2.4h9.36q0-7.56 2.04-13.56 2.16-6.12 6.84-10.56 3.84-3.48 9.6-5.64 5.88-2.28 13.68-2.28m73.534 30.24q3.48 0 5.88 1.44 2.52 1.44 3.72 3.72 1.32 2.16 1.32 4.92 0 3.48-2.16 6-2.04 2.4-5.52 2.4-3 0-5.16-1.8-2.04-1.8-2.04-4.92 0-2.64 1.32-4.44 1.44-1.92 3.24-3-1.2-.96-2.88-.84-3.24.12-6 2.16-2.76 1.92-4.68 5.04-1.92 3-3 6.48t-1.08 6.48v27.6q0 5.88 3.24 7.92 3.24 1.92 9 1.92V711q-2.76-.12-7.92-.24-5.04-.24-10.68-.24-4.32 0-8.64.24-4.32.12-6.6.24v-2.52q4.68 0 6.6-1.8 2.04-1.8 2.04-6.84v-37.68q0-5.4-1.8-7.92-1.8-2.64-6.84-2.64v-2.52q3.84.36 7.44.36 4.08 0 7.56-.36 3.6-.48 6.6-1.32v13.8q1.44-3.48 3.84-6.72t5.76-5.28q3.36-2.16 7.44-2.16m37.938 0q4.8 0 8.28 1.56 3.6 1.44 5.16 2.64 3.96 3.12 4.92-4.08h2.64q-.24 3.36-.36 8.16-.12 4.68-.12 12.48h-2.64q-.72-4.44-2.52-8.64-1.68-4.2-5.04-6.96-3.24-2.76-8.52-2.76-3.96 0-6.6 2.28-2.64 2.16-2.64 6.48 0 3.6 2.16 6.24t5.52 4.92q3.48 2.28 7.44 4.92 4.44 3 7.92 6 3.6 2.88 5.64 6.48 2.16 3.6 2.16 8.4 0 5.52-3 9.36-2.88 3.84-7.68 5.88-4.8 1.92-10.56 1.92-2.88 0-5.4-.6-2.52-.48-4.68-1.32l-2.64-1.44q-1.2-.84-2.4-1.56-1.2-.84-2.16.24t-1.44 3.84h-2.64q.24-3.84.36-9.36t.12-14.64h2.64q.84 6.6 2.52 11.64t4.92 7.92q3.36 2.76 9.12 2.76 2.28 0 4.56-.96 2.28-1.08 3.72-3.36 1.56-2.28 1.56-6.12 0-5.28-3.72-8.64-3.6-3.48-9.36-7.32-4.08-2.88-7.8-5.64-3.6-2.88-5.88-6.36-2.28-3.6-2.28-8.52 0-5.4 2.52-8.88 2.64-3.48 6.96-5.16 4.32-1.8 9.24-1.8m52.938-18.12v19.92h16.56v2.4h-16.56v47.16q0 4.92 1.8 6.96t5.16 2.04q3.12 0 5.52-2.52 2.52-2.52 4.32-8.52l2.28.84q-1.44 6.36-5.16 10.8-3.6 4.32-10.68 4.32-4.08 0-6.84-1.08-2.76-.96-4.8-2.88-2.64-2.76-3.6-6.6t-.96-10.2V651.6h-11.04v-2.4h11.04v-17.52q3.72-.12 6.96-.6 3.24-.6 6-1.8M290.907 810v-28.896h-10.128v-4.032h25.392v4.032h-10.128V810zm20.307 0v-34.56h4.8v13.296q1.296-1.872 3.312-2.784 2.064-.96 4.224-.96 2.496 0 4.416.96t3.024 2.88q1.152 1.872 1.152 4.704V810h-4.8v-15.648q0-3.024-1.44-4.32-1.392-1.344-3.936-1.344a5.9 5.9 0 0 0-3.024.816 6.2 6.2 0 0 0-2.16 2.208q-.768 1.344-.768 3.12V810zm38.482.48q-3.264 0-5.76-1.392-2.448-1.44-3.84-4.176-1.392-2.784-1.392-6.672v-1.008q0-3.936 1.44-6.672 1.488-2.736 4.032-4.128 2.544-1.44 5.808-1.44h.528q2.976 0 5.28 1.248a8.64 8.64 0 0 1 3.552 3.552q1.296 2.304 1.296 5.472v3.072h-16.944q0 2.736.72 4.704.768 1.968 2.16 3.024 1.44 1.008 3.504 1.008 1.728 0 3.072-.672t2.16-2.064.816-3.456h4.512q0 2.928-1.392 5.088t-3.792 3.36q-2.352 1.152-5.328 1.152zm-5.952-15.024h12.192q0-3.6-1.584-5.328-1.536-1.728-4.32-1.728-2.544 0-4.368 1.776-1.776 1.776-1.92 5.28M367.23 810v-24.528h3.456l.672 3.6q1.344-2.016 3.456-3.024 2.16-1.056 4.656-1.056 2.544 0 4.464.96a7.03 7.03 0 0 1 3.072 2.88q1.104 1.872 1.103 4.704V810h-4.799v-15.648q0-3.024-1.392-4.32-1.392-1.344-3.936-1.344a5.9 5.9 0 0 0-3.024.816 6.2 6.2 0 0 0-2.16 2.208q-.768 1.344-.768 3.12V810zm41.725 8.928a9 9 0 0 1-1.92-.192 7.7 7.7 0 0 1-1.68-.48v-3.744q.528.192 1.344.384a7 7 0 0 0 1.584.192q1.248 0 2.064-.528.816-.48 1.488-1.68.72-1.2 1.44-3.264l-9.6-24.144h5.136l6.816 18.144h.24l6.672-18.144h4.752l-9.216 23.52a46 46 0 0 1-2.256 4.992q-1.152 2.256-2.784 3.6t-4.08 1.344m32.853-8.448q-3.168 0-5.712-1.488-2.496-1.488-3.936-4.272t-1.44-6.576v-.816q0-3.888 1.44-6.624 1.44-2.784 3.936-4.224 2.544-1.488 5.712-1.488h.624q3.216 0 5.712 1.488t3.936 4.272q1.44 2.736 1.44 6.576v.816q0 3.792-1.44 6.576t-3.984 4.272q-2.496 1.488-5.664 1.488zm.288-3.408q1.824 0 3.264-.864t2.304-2.592.864-4.272v-3.216q0-2.592-.864-4.272-.864-1.728-2.304-2.592t-3.264-.864q-1.776 0-3.216.864t-2.304 2.592q-.864 1.68-.864 4.272v3.216q0 2.544.864 4.272t2.304 2.592 3.216.864m26.01 3.408q-3.792 0-6.048-2.064-2.256-2.112-2.256-6.48v-16.464h4.8v15.312q0 3.216 1.296 4.608 1.296 1.344 3.792 1.344 1.68 0 3.072-.768a6.35 6.35 0 0 0 2.304-2.208q.864-1.392.864-3.12v-15.168h4.8v19.968q0 .864.384 1.248.432.384.96.384t1.104-.192a5.3 5.3 0 0 0 1.056-.48v3.072q-.624.48-1.536.72-.912.288-2.112.288-1.536 0-2.448-.576a3.53 3.53 0 0 1-1.344-1.488 8.7 8.7 0 0 1-.624-2.016q-1.2 1.92-3.408 3.024a10.66 10.66 0 0 1-4.656 1.056m37.856-.48-8.016-24.528h4.992l5.568 17.52h.192l5.664-17.52h5.04l5.616 17.52h.24l5.568-17.52h4.608L527.418 810h-4.848l-5.76-17.664h-.192L510.906 810zm34.808 0v-24.528h4.8V810zm-.144-30.528v-4.032h5.088v4.032zM553.792 810v-34.56h4.8V810zm12.563 0v-34.56h4.8V810zm23.437 0v-24.528h3.552l.672 3.6q.048-.096.432-.72t1.152-1.392q.816-.816 2.064-1.392 1.296-.576 3.168-.576 2.544 0 4.176 1.056a5.9 5.9 0 0 1 2.448 2.784q.816 1.776.816 4.032 0 .48-.048 1.008-.048.48-.048.768h-4.128v-.912q0-1.056-.432-2.208a3.92 3.92 0 0 0-1.392-1.968q-1.008-.816-2.832-.816-1.344 0-2.304.576a4.9 4.9 0 0 0-1.488 1.44 6.5 6.5 0 0 0-.768 1.824q-.24.96-.24 1.776V810zm33.466.48q-3.264 0-5.76-1.392-2.448-1.44-3.84-4.176-1.392-2.784-1.392-6.672v-1.008q0-3.936 1.44-6.672 1.488-2.736 4.032-4.128 2.544-1.44 5.808-1.44h.528q2.976 0 5.28 1.248a8.64 8.64 0 0 1 3.552 3.552q1.296 2.304 1.296 5.472v3.072h-16.944q0 2.736.72 4.704.768 1.968 2.16 3.024 1.44 1.008 3.504 1.008 1.728 0 3.072-.672t2.16-2.064.816-3.456h4.512q0 2.928-1.392 5.088t-3.792 3.36q-2.352 1.152-5.328 1.152zm-5.952-15.024h12.192q0-3.6-1.584-5.328-1.536-1.728-4.32-1.728-2.544 0-4.368 1.776-1.776 1.776-1.92 5.28m29.774 15.024q-1.968 0-3.792-.624a6.25 6.25 0 0 1-2.928-2.112q-1.104-1.536-1.104-4.128 0-2.64 1.152-4.224 1.2-1.632 3.36-2.496 2.208-.864 5.232-1.152a72 72 0 0 1 6.72-.288v-2.496q0-2.592-1.296-3.6-1.248-1.056-3.984-1.056-2.304 0-3.984 1.008-1.68.96-1.68 3.072v.576h-4.656a2.4 2.4 0 0 1-.048-.48v-.576q0-2.112 1.296-3.648 1.344-1.584 3.6-2.4 2.304-.864 5.232-.864h.672q4.848 0 7.2 1.92 2.4 1.92 2.4 5.52v13.008q0 .864.384 1.248t.912.384 1.104-.192a5 5 0 0 0 1.104-.48v3.072q-.624.48-1.536.72-.912.288-2.16.288-1.536 0-2.496-.576a3.7 3.7 0 0 1-1.344-1.632q-.432-1.008-.528-2.256a9.3 9.3 0 0 1-3.648 3.312q-2.208 1.152-5.184 1.152m1.92-3.408a7.5 7.5 0 0 0 3.216-.72q1.536-.768 2.496-2.304 1.008-1.536 1.008-3.84v-1.824q-3.6 0-6.192.384-2.592.336-3.984 1.344-1.344 1.008-1.344 3.12 0 2.016 1.2 2.928t3.6.912m29.504 3.408q-2.784 0-5.088-1.296-2.256-1.344-3.648-4.176-1.344-2.832-1.344-7.248v-.528q0-4.032 1.296-6.72 1.344-2.736 3.504-4.128 2.208-1.392 4.896-1.392 2.592 0 4.464 1.008 1.872.96 2.88 2.592V775.44h4.8V810h-3.648l-.672-3.408a8.8 8.8 0 0 1-3.072 2.88q-1.824 1.008-4.368 1.008m.864-3.408q1.68 0 3.024-.768 1.392-.816 2.208-2.592.864-1.824.864-4.848v-2.688q0-2.64-.816-4.32-.816-1.728-2.208-2.544a5.7 5.7 0 0 0-3.072-.864q-2.496 0-4.224 1.968-1.728 1.92-1.728 5.856v2.64q0 2.976.768 4.8.816 1.776 2.16 2.592a6.16 6.16 0 0 0 3.024.768m36.498 3.408q-1.776 0-3.216-.576a4.75 4.75 0 0 1-2.208-1.824q-.768-1.296-.768-3.408v-15.456h-2.688v-3.744h2.832l1.68-7.824h2.976v7.824h5.712v3.744h-5.712v14.592q0 2.112.864 2.688a3.3 3.3 0 0 0 1.872.576q.528 0 1.44-.24.96-.24 1.536-.48v3.216a5.5 5.5 0 0 1-1.296.48q-.72.24-1.536.336-.768.096-1.488.096m10.614-.48v-34.56h4.8v13.296q1.296-1.872 3.312-2.784 2.064-.96 4.224-.96 2.496 0 4.416.96t3.024 2.88q1.152 1.872 1.152 4.704V810h-4.8v-15.648q0-3.024-1.44-4.32-1.392-1.344-3.936-1.344a5.9 5.9 0 0 0-3.024.816 6.2 6.2 0 0 0-2.16 2.208q-.768 1.344-.768 3.12V810zm28.977 0v-24.528h4.8V810zm-.144-30.528v-4.032h5.088v4.032zm21.428 31.008q-2.544 0-4.416-.624t-3.12-1.632q-1.248-1.056-1.872-2.304-.624-1.296-.624-2.544v-.48q0-.24.048-.576h4.224a.9.9 0 0 0-.048.288v.24q0 1.392.864 2.352.912.912 2.4 1.392 1.536.48 3.456.48 1.632 0 2.976-.432 1.392-.432 2.16-1.248.816-.864.816-2.016 0-1.344-.864-2.064-.864-.768-2.304-1.152a26 26 0 0 0-3.168-.72q-1.68-.336-3.456-.72a15.4 15.4 0 0 1-3.168-1.152q-1.44-.72-2.304-1.968-.864-1.296-.864-3.408 0-1.632.72-2.976t2.064-2.256q1.344-.96 3.168-1.44 1.872-.528 4.08-.528h.624q2.112 0 3.84.576 1.728.528 2.976 1.488 1.248.912 1.872 2.112.672 1.152.672 2.448 0 .24-.048.528v.336h-4.224v-.528q0-.48-.24-1.056-.192-.624-.864-1.152-.624-.576-1.776-.96-1.104-.384-2.88-.384-1.68 0-2.784.336t-1.728.864q-.576.528-.816 1.104t-.24 1.056q0 1.152.864 1.872.864.672 2.304 1.056t3.168.672q1.776.288 3.504.72 1.728.384 3.168 1.152a5.87 5.87 0 0 1 2.304 2.016q.864 1.296.864 3.36 0 2.16-.816 3.696a6.5 6.5 0 0 1-2.256 2.4q-1.44.912-3.312 1.344a17.7 17.7 0 0 1-3.984.432z"/></svg>