<svg xmlns="http://www.w3.org/2000/svg" width="1080" height="1350" fill="none"><path fill="#000" d="M305.048 447h-3.4l-2.8-7.32h-11.96l-2.8 7.32h-3.36l10.28-26.4h3.8zm-17-10.32h9.64l-4.84-13zM309.814 447v-20h2.8l.28 4.48-.52-.44q.64-1.6 1.72-2.56a6.44 6.44 0 0 1 2.48-1.44q1.44-.44 2.96-.44 2.16 0 3.92.84 1.76.8 2.8 2.48 1.08 1.68 1.08 4.28V447h-3.2v-11.68q0-3.32-1.44-4.6-1.401-1.32-3.48-1.32-1.44 0-2.88.68t-2.4 2.2q-.92 1.52-.92 4.08V447zm32.565.4q-2.48 0-4.56-1.24t-3.32-3.56q-1.24-2.36-1.24-5.6 0-3.32 1.32-5.64t3.48-3.52a9.16 9.16 0 0 1 4.64-1.24q2.48 0 4.28 1.28 1.84 1.28 2.44 3.4l-.4.28V417.8h3.2V447h-2.8l-.28-4.84.44-.24q-.28 1.76-1.36 3-1.04 1.2-2.6 1.84a8.3 8.3 0 0 1-3.24.64m.32-2.8q1.92 0 3.32-.96 1.44-.96 2.2-2.72.8-1.8.8-4.2 0-2.28-.8-3.92-.759-1.64-2.16-2.52-1.36-.88-3.2-.88-3.04 0-4.72 2.08t-1.68 5.52 1.64 5.52 4.6 2.08m46.016-17.6-9.4 23.36q-.76 1.96-1.68 3.08-.88 1.16-2 1.64-1.08.52-2.52.52a7.7 7.7 0 0 1-2.52-.4 7 7 0 0 1-2-1l.88-2.8q.8.72 1.68 1.04.92.36 1.8.36 1.04 0 1.96-.64t1.68-2.6l1.04-2.6-2-4.76-6.36-15.2h3.64l5 13.04 1.24 3.56 1.44-3.96 4.68-12.64zm12.465-.4q2.84 0 5 1.24 2.2 1.24 3.44 3.6 1.24 2.32 1.24 5.56t-1.24 5.6q-1.24 2.32-3.44 3.56-2.16 1.24-5 1.24-2.8 0-5-1.24t-3.44-3.56q-1.24-2.36-1.24-5.6t1.24-5.56q1.24-2.36 3.44-3.6t5-1.24m0 2.76q-2.04 0-3.48.92t-2.24 2.64q-.76 1.68-.76 4.08 0 2.36.76 4.08.8 1.72 2.24 2.64t3.48.92 3.48-.92 2.2-2.64q.8-1.72.8-4.08 0-2.4-.8-4.08-.76-1.72-2.2-2.64t-3.48-.92m22.944 18.04q-1.92 0-3.64-.72-1.68-.72-2.76-2.32-1.04-1.64-1.04-4.24V427h3.2v12.28q0 3.04 1.32 4.2 1.32 1.12 3.72 1.12 1.12 0 2.2-.36a5.6 5.6 0 0 0 1.92-1.2q.88-.84 1.36-2.12.52-1.28.52-3.04V427h3.2v20h-2.8l-.2-3.04q-1.04 1.8-2.84 2.64-1.76.8-4.16.8m55.262-20.4h3.56l-6.96 20h-3.2l-5.64-15.92-5.32 15.92h-3.2l-6.96-20h3.56l5.04 16.28 5.44-16.28h3.2l5.44 16.28zm9.957-3.84q-1.08 0-1.76-.64-.64-.68-.64-1.76t.64-1.72q.68-.68 1.76-.68t1.72.68q.68.64.68 1.72t-.68 1.76q-.64.64-1.72.64m1.6 3.84v20h-3.2v-20zm10.465-9.2v24.12q0 1.52.56 2.12.561.56 1.8.56.801 0 1.32-.12.52-.12 1.4-.44l-.52 2.8q-.64.28-1.4.4a7.5 7.5 0 0 1-1.56.16q-2.44 0-3.64-1.32-1.16-1.32-1.16-4.04V417.8zm12.227 0v24.12q0 1.52.56 2.12.56.56 1.8.56.8 0 1.32-.12t1.4-.44l-.52 2.8a5.7 5.7 0 0 1-1.4.4 7.5 7.5 0 0 1-1.56.16q-2.44 0-3.64-1.32-1.16-1.32-1.16-4.04V417.8zm21.413 29.2v-20h2.6l.44 3.28q.84-1.84 2.44-2.76 1.64-.92 3.96-.92.52 0 1.12.08.64.08 1.08.32l-.56 2.92a5 5 0 0 0-.96-.24q-.52-.08-1.48-.08-1.24 0-2.52.72-1.24.72-2.08 2.2-.84 1.44-.84 3.68V447zm24.063.4q-2.84 0-5.08-1.24-2.2-1.24-3.44-3.56-1.24-2.36-1.24-5.6t1.24-5.56q1.24-2.36 3.4-3.6t4.92-1.24q2.8 0 4.76 1.2a7.83 7.83 0 0 1 3.04 3.28q1.04 2.04 1.04 4.6 0 .68-.04 1.24a9 9 0 0 1-.12 1h-16.16v-2.84h14.76l-1.64.32q0-2.88-1.6-4.44-1.56-1.56-4.12-1.56-1.96 0-3.4.92-1.4.88-2.2 2.6-.76 1.68-.76 4.08 0 2.36.8 4.08t2.24 2.64q1.48.88 3.52.88 2.2 0 3.56-.84a6.3 6.3 0 0 0 2.24-2.28l2.52 1.48a8.3 8.3 0 0 1-1.96 2.36q-1.16 1-2.76 1.56-1.56.52-3.52.52m26.406-13.32q0-2.24-1.2-3.44-1.2-1.24-3.4-1.24-2.08 0-3.52.92-1.44.88-2.12 2.88l-2.6-1.6q.8-2.24 2.96-3.6 2.16-1.4 5.36-1.4 2.16 0 3.92.76 1.761.72 2.76 2.24 1.04 1.48 1.04 3.84v9.68q0 1.44 1.52 1.44.76 0 1.48-.2l-.16 2.52q-.8.4-2.08.4-1.16 0-2.08-.44a3.3 3.3 0 0 1-1.44-1.32q-.52-.92-.52-2.28v-.4l.8.12q-.48 1.56-1.64 2.56a8 8 0 0 1-2.6 1.44q-1.44.44-2.84.44-1.76 0-3.28-.6t-2.44-1.8q-.88-1.24-.88-3.04 0-2.24 1.48-3.68 1.521-1.48 4.2-2l7.92-1.56v2.64l-6.44 1.32q-1.96.4-2.92 1.12t-.96 2q0 1.24.96 2.04 1 .76 2.8.76a8.4 8.4 0 0 0 2.2-.28q1.08-.32 1.92-.92.84-.64 1.32-1.56.48-.96.48-2.24zm18.776 13.32q-2.48 0-4.56-1.24t-3.32-3.56q-1.24-2.36-1.24-5.6 0-3.32 1.32-5.64t3.48-3.52a9.16 9.16 0 0 1 4.64-1.24q2.48 0 4.28 1.28 1.84 1.28 2.44 3.4l-.4.28V417.8h3.2V447h-2.8l-.28-4.84.44-.24q-.28 1.76-1.36 3-1.04 1.2-2.6 1.84a8.3 8.3 0 0 1-3.24.64m.32-2.8q1.92 0 3.32-.96 1.44-.96 2.2-2.72.8-1.8.8-4.2 0-2.28-.8-3.92-.759-1.64-2.16-2.52-1.36-.88-3.2-.88-3.04 0-4.72 2.08t-1.68 5.52 1.64 5.52 4.6 2.08m34.53-23.28v20.16q0 1.48.84 2.2t2.16.72q1.16 0 2-.4a5.5 5.5 0 0 0 1.52-1.08l1.12 2.68q-.92.84-2.2 1.32-1.24.48-2.88.48a7.7 7.7 0 0 1-2.84-.52 4.8 4.8 0 0 1-2.12-1.72q-.76-1.2-.8-3.12V422.2zm7.28 5.68v2.76h-14.48V427zm4.758 20v-29.2h3.2V430q1.04-1.8 2.76-2.6t3.76-.8q2.16 0 3.92.84a6.3 6.3 0 0 1 2.8 2.48q1.08 1.68 1.08 4.28V447h-3.2v-11.68q0-3.32-1.44-4.6-1.4-1.32-3.48-1.32-1.44 0-2.88.68t-2.4 2.24q-.92 1.52-.92 4.08V447zm26.366-23.84q-1.08 0-1.76-.64-.64-.68-.64-1.76t.64-1.72q.68-.68 1.76-.68t1.72.68q.68.64.68 1.72t-.68 1.76q-.64.64-1.72.64m1.6 3.84v20h-3.2v-20zm14.625 20.4q-2.92 0-5.4-1.24-2.44-1.24-3.76-3.52l2.72-1.96q.88 1.84 2.56 2.88 1.72 1.04 4.12 1.04 2.12 0 3.32-.8 1.2-.84 1.2-2.16 0-.84-.56-1.52-.52-.72-2.04-1.04l-4.8-1q-2.92-.6-4.2-2-1.24-1.4-1.24-3.48 0-1.64.92-3 .96-1.36 2.68-2.16 1.76-.84 4.12-.84 2.96 0 5 1.16a7.24 7.24 0 0 1 3.04 3.28l-2.68 1.76q-.68-1.76-2.2-2.56-1.52-.84-3.16-.84-1.44 0-2.48.4-1 .4-1.56 1.12-.52.68-.52 1.56t.6 1.64q.6.72 2.24 1.04l5 1.04q2.8.56 3.92 1.84t1.12 3.12q0 1.88-1 3.32-1 1.4-2.8 2.16t-4.16.76m30.566-29.6v24.12q0 1.52.56 2.12.56.56 1.8.56.8 0 1.32-.12t1.4-.44l-.52 2.8a5.7 5.7 0 0 1-1.4.4 7.5 7.5 0 0 1-1.56.16q-2.44 0-3.64-1.32-1.16-1.32-1.16-4.04V417.8zm20.867 16.28q0-2.24-1.2-3.44-1.2-1.24-3.4-1.24-2.08 0-3.52.92-1.44.88-2.12 2.88l-2.6-1.6q.8-2.24 2.96-3.6 2.16-1.4 5.36-1.4 2.16 0 3.92.76 1.76.72 2.76 2.24 1.04 1.48 1.04 3.84v9.68q0 1.44 1.52 1.44.76 0 1.48-.2l-.16 2.52q-.8.4-2.08.4-1.16 0-2.08-.44a3.27 3.27 0 0 1-1.44-1.32q-.52-.92-.52-2.28v-.4l.8.12q-.48 1.56-1.64 2.56a8 8 0 0 1-2.6 1.44q-1.44.44-2.84.44-1.76 0-3.28-.6t-2.44-1.8q-.88-1.24-.88-3.04 0-2.24 1.48-3.68 1.52-1.48 4.2-2l7.92-1.56v2.64l-6.44 1.32q-1.96.4-2.92 1.12t-.96 2q0 1.24.96 2.04 1 .76 2.8.76a8.4 8.4 0 0 0 2.2-.28q1.08-.32 1.92-.92.84-.64 1.32-1.56.48-.96.48-2.24zm18.176 13.32q-2.92 0-5.4-1.24-2.44-1.24-3.76-3.52l2.72-1.96q.88 1.84 2.56 2.88 1.72 1.04 4.12 1.04 2.12 0 3.32-.8 1.2-.84 1.2-2.16 0-.84-.56-1.52-.52-.72-2.04-1.04l-4.8-1q-2.92-.6-4.2-2-1.24-1.4-1.24-3.48 0-1.64.92-3 .96-1.36 2.68-2.16 1.76-.84 4.12-.84 2.96 0 5 1.16a7.24 7.24 0 0 1 3.04 3.28l-2.68 1.76q-.68-1.76-2.2-2.56-1.52-.84-3.16-.84-1.44 0-2.48.4-1 .4-1.56 1.12-.52.68-.52 1.56t.6 1.64q.6.72 2.24 1.04l5 1.04q2.8.56 3.92 1.84t1.12 3.12q0 1.88-1 3.32-1 1.4-2.8 2.16t-4.16.76m18.614-26.08v20.16q0 1.48.84 2.2t2.16.72q1.16 0 2-.4a5.5 5.5 0 0 0 1.52-1.08l1.12 2.68q-.92.84-2.2 1.32-1.24.48-2.88.48a7.7 7.7 0 0 1-2.84-.52 4.8 4.8 0 0 1-2.12-1.72q-.76-1.2-.8-3.12V422.2zm7.28 5.68v2.76h-14.48V427zM145.68 550.5l-26.58-50.7h12.36l19.38 38.76 19.32-38.76h12.36L156 550.5V579h-10.32zm61.877 29.94q-7.62 0-13.56-3.42-5.88-3.42-9.24-9.24-3.36-5.88-3.36-13.26t3.36-13.32 9.24-9.42q5.94-3.48 13.56-3.48 7.56 0 13.38 3.48 5.88 3.48 9.18 9.42t3.3 13.32-3.3 13.26q-3.3 5.82-9.18 9.24-5.82 3.42-13.38 3.42m0-8.94q4.8 0 8.34-2.22 3.6-2.22 5.58-6.06 1.98-3.9 1.98-8.76t-1.98-8.76-5.58-6.18q-3.54-2.28-8.34-2.28-4.86 0-8.46 2.28t-5.64 6.18q-1.98 3.9-1.98 8.76t1.98 8.76q2.04 3.84 5.64 6.06t8.46 2.22m47.214-16.92q0 7.74 3.3 12.36 3.36 4.56 10.26 4.56 6.96 0 10.26-4.56 3.3-4.62 3.3-12.36v-24.84h10.32v26.28q0 7.2-2.82 12.72-2.76 5.52-8.1 8.64-5.28 3.06-12.96 3.06-7.62 0-12.96-3.06-5.28-3.12-8.1-8.64-2.76-5.52-2.76-12.72v-26.28h10.26zM368.74 542.1 356.2 579h-10.8l-13.38-49.26h11.1l8.94 37.86 12.36-36.9h8.64l12.24 36.9 9-37.86h11.16L392.08 579h-10.8zm48.134 36.9v-49.26h10.44V579zm5.34-66.12q-2.82 0-4.86-1.98-1.98-2.04-1.98-4.86t1.98-4.86q2.04-2.04 4.86-2.04 1.86 0 3.42.96 1.62.96 2.58 2.52.96 1.5.96 3.42 0 2.82-2.04 4.86-2.04 1.98-4.92 1.98M454.133 579h-10.5v-82.56h10.5zm25.898 0h-10.5v-82.56h10.5zm55.181 0h-10.38v-49.26h10.38v8.52h-.3q.3-1.56 2.22-3.9t5.28-4.2 8.04-1.86q3.42 0 6 .96 2.64.9 3.72 1.8l-4.26 8.64q-.84-.84-2.94-1.68-2.1-.9-5.22-.9-3.96 0-6.78 2.46a16.4 16.4 0 0 0-4.32 5.94q-1.44 3.42-1.44 6.36zm37.179-22.5q.06 4.44 1.92 8.1t5.52 5.82q3.72 2.16 9.12 2.16 4.56 0 7.74-1.32 3.24-1.38 5.28-3.24 2.04-1.92 2.94-3.42l5.1 6.3a21.5 21.5 0 0 1-4.86 5.04q-2.82 2.16-6.9 3.3-4.08 1.2-9.96 1.2-7.92 0-13.74-3.36-5.76-3.42-8.88-9.42-3.12-6.06-3.12-13.86 0-7.2 2.94-12.96 2.94-5.82 8.52-9.18 5.64-3.36 13.56-3.36 7.26 0 12.6 3.06 5.4 3 8.34 8.52 3 5.52 3 13.2 0 .48-.06 1.74-.06 1.2-.12 1.68zm29.16-7.86q-.06-2.46-1.44-5.4-1.32-2.94-4.32-5.04t-8.1-2.1q-5.28 0-8.52 2.04-3.18 2.04-4.68 4.98-1.5 2.88-1.74 5.52zM662.638 579v-9.6q-.48 1.5-2.82 4.14-2.28 2.64-6.3 4.8-3.96 2.1-9.36 2.1-6.84 0-12.42-3.24-5.52-3.24-8.82-9.06-3.24-5.88-3.24-13.74t3.24-13.68q3.3-5.88 8.82-9.12 5.58-3.3 12.42-3.3 5.34 0 9.24 1.92 3.96 1.92 6.3 4.44 2.4 2.52 2.82 4.32v-9.24h10.32V579zm-32.64-24.6q0 5.34 2.34 9.24t6.06 6.06q3.78 2.1 8.04 2.1 4.56 0 8.16-2.16t5.7-6.06q2.1-3.96 2.1-9.18t-2.1-9.12q-2.1-3.96-5.7-6.12-3.6-2.22-8.16-2.22-4.26 0-8.04 2.16-3.72 2.16-6.06 6.06t-2.34 9.24m78.51 26.04q-6.78 0-12.18-3.24-5.34-3.24-8.46-9.06-3.06-5.88-3.06-13.74t3.06-13.68q3.12-5.88 8.46-9.12 5.4-3.3 12.18-3.3 5.46 0 9.6 1.92 4.14 1.86 6.6 4.38t2.82 4.38v-42.54h10.5V579h-10.32v-9.6q-.66 2.04-3.3 4.62-2.58 2.58-6.66 4.5t-9.24 1.92m2.4-8.64q4.56 0 8.34-2.16t6-6.06q2.28-3.96 2.28-9.18t-2.28-9.12q-2.22-3.96-6-6.12-3.78-2.22-8.34-2.22-4.2 0-7.8 2.16t-5.82 6.06q-2.16 3.9-2.16 9.24t2.16 9.24q2.22 3.9 5.82 6.06 3.6 2.1 7.8 2.1m64.493-42.06h9.66v-20.22h10.38v20.22h12.66v8.94h-12.66v24.36q0 4.32 1.5 6.36 1.56 2.04 4.14 2.04 2.28 0 3.54-.84t1.5-1.14l4.14 7.68q-.36.3-1.92 1.14t-4.02 1.5-5.76.66q-5.76 0-9.66-3.48-3.84-3.54-3.84-11.16v-27.12h-9.66zm71.826-1.44q4.86 0 9.42 2.04 4.62 2.04 7.56 6.48 3 4.38 3 11.46V579h-10.56v-28.68q0-7.32-3.36-10.62-3.3-3.36-8.7-3.36-3.6 0-6.9 2.04-3.3 1.98-5.46 5.52-2.1 3.48-2.1 7.92V579h-10.56v-82.56h10.56v42.06q.54-2.04 2.88-4.44 2.4-2.4 6.12-4.08t8.1-1.68M882.46 579v-49.26h10.44V579zm5.34-66.12q-2.82 0-4.86-1.98-1.98-2.04-1.98-4.86t1.98-4.86q2.04-2.04 4.86-2.04 1.86 0 3.42.96 1.62.96 2.58 2.52.96 1.5.96 3.42 0 2.82-2.04 4.86-2.04 1.98-4.92 1.98m39.539 15.42q3.84 0 7.14.78 3.36.78 5.76 1.86 2.46 1.08 3.48 1.92l-4.14 6.6q-1.2-1.08-4.32-2.4-3.12-1.38-6.96-1.38-4.2 0-7.14 1.68-2.94 1.62-2.94 4.74t3 4.98q3.06 1.8 8.16 3 4.08.96 7.62 2.58 3.6 1.62 5.82 4.5 2.22 2.82 2.22 7.56 0 4.32-1.8 7.38-1.8 3-4.86 4.86-3.06 1.8-6.84 2.64t-7.68.84q-4.56 0-8.22-.96-3.66-.9-6.18-2.16-2.46-1.32-3.6-2.28l4.14-7.44q1.56 1.5 5.1 3.18 3.6 1.68 8.16 1.68 5.04 0 8.16-2.1 3.12-2.16 3.12-5.58 0-2.58-1.5-4.14t-4.02-2.52-5.52-1.68a40 40 0 0 1-5.64-1.74q-2.7-1.08-4.98-2.76a13.2 13.2 0 0 1-3.54-4.2q-1.32-2.52-1.32-5.88 0-4.26 2.7-7.26 2.7-3.06 7.08-4.68t9.54-1.62M439.121 661.74h10.08v-13.98q0-7.5 2.58-12.06 2.64-4.56 6.66-6.6 4.08-2.1 8.34-2.1 5.16 0 7.92 1.44 2.82 1.44 3.36 1.92l-4.2 7.98q-.3-.36-1.86-1.32t-4.26-.96q-1.98 0-3.84.96t-3.12 3.72-1.26 8.22v12.78h14.04v8.94h-14.04V711h-10.32v-40.32h-10.08zm45 49.26v-49.26h10.44V711zm5.34-66.12q-2.82 0-4.86-1.98-1.98-2.04-1.98-4.86t1.98-4.86q2.04-2.04 4.86-2.04 1.86 0 3.42.96 1.62.96 2.58 2.52.96 1.5.96 3.42 0 2.82-2.04 4.86-2.04 1.98-4.92 1.98M520.798 711h-10.38v-49.26h10.38v8.52h-.3q.3-1.56 2.22-3.9t5.28-4.2 8.04-1.86q3.42 0 6 .96 2.64.9 3.72 1.8l-4.26 8.64q-.84-.84-2.94-1.68-2.1-.9-5.22-.9-3.96 0-6.78 2.46a16.4 16.4 0 0 0-4.32 5.94q-1.44 3.42-1.44 6.36zm49.353-50.7q3.84 0 7.14.78 3.36.78 5.76 1.86 2.46 1.08 3.48 1.92l-4.14 6.6q-1.2-1.08-4.32-2.4-3.12-1.38-6.96-1.38-4.2 0-7.14 1.68-2.94 1.62-2.94 4.74t3 4.98q3.06 1.8 8.16 3 4.08.96 7.62 2.58 3.6 1.62 5.82 4.5 2.22 2.82 2.22 7.56 0 4.32-1.8 7.38-1.8 3-4.86 4.86-3.06 1.8-6.84 2.64t-7.68.84q-4.56 0-8.22-.96-3.66-.9-6.18-2.16-2.46-1.32-3.6-2.28l4.14-7.44q1.56 1.5 5.1 3.18 3.6 1.68 8.16 1.68 5.04 0 8.16-2.1 3.12-2.16 3.12-5.58 0-2.58-1.5-4.14t-4.02-2.52-5.52-1.68a40 40 0 0 1-5.64-1.74q-2.7-1.08-4.98-2.76a13.2 13.2 0 0 1-3.54-4.2q-1.32-2.52-1.32-5.88 0-4.26 2.7-7.26 2.7-3.06 7.08-4.68t9.54-1.62m24.781 1.44h9.66v-20.22h10.38v20.22h12.66v8.94h-12.66v24.36q0 4.32 1.5 6.36 1.56 2.04 4.14 2.04 2.28 0 3.54-.84t1.5-1.14l4.14 7.68q-.36.3-1.92 1.14t-4.02 1.5-5.76.66q-5.76 0-9.66-3.48-3.84-3.54-3.84-11.16v-27.12h-9.66zM296.065 778.32v3.6h-11.04V810h-3.84v-28.08h-11.04v-3.6zm5.04 31.68v-35.04h3.84v14.64q1.248-2.16 3.312-3.12t4.512-.96q2.592 0 4.704 1.008 2.112.96 3.36 2.976 1.296 2.016 1.296 5.136V810h-3.84v-14.016q0-3.984-1.728-5.52-1.68-1.584-4.176-1.584-1.728 0-3.456.816t-2.88 2.688q-1.104 1.824-1.104 4.896V810zm39.75.48q-3.408 0-6.096-1.488-2.64-1.488-4.128-4.272-1.488-2.832-1.488-6.72t1.488-6.672q1.488-2.832 4.08-4.32t5.904-1.488q3.36 0 5.712 1.44a9.4 9.4 0 0 1 3.648 3.936q1.248 2.448 1.248 5.52 0 .816-.048 1.488t-.144 1.2h-19.392v-3.408h17.712l-1.968.384q0-3.456-1.92-5.328-1.872-1.872-4.944-1.872-2.352 0-4.08 1.104-1.68 1.056-2.64 3.12-.912 2.016-.912 4.896 0 2.832.96 4.896t2.688 3.168q1.776 1.056 4.224 1.056 2.64 0 4.272-1.008a7.6 7.6 0 0 0 2.688-2.736l3.024 1.776a10 10 0 0 1-2.352 2.832q-1.392 1.2-3.312 1.872-1.872.624-4.224.624m17.672-.48v-24h3.36l.336 5.376-.624-.528q.768-1.92 2.064-3.072a7.75 7.75 0 0 1 2.976-1.728 12 12 0 0 1 3.552-.528q2.592 0 4.704 1.008 2.112.96 3.36 2.976 1.296 2.016 1.296 5.136V810h-3.84v-14.016q0-3.984-1.728-5.52-1.68-1.584-4.176-1.584-1.728 0-3.456.816t-2.88 2.64q-1.104 1.824-1.104 4.896V810zm64.587-24-11.28 28.032q-.912 2.352-2.016 3.696-1.056 1.392-2.4 1.968-1.296.624-3.024.624-1.632 0-3.024-.48a8.4 8.4 0 0 1-2.4-1.2l1.056-3.36q.96.864 2.016 1.248a5.9 5.9 0 0 0 2.16.432q1.248 0 2.352-.768t2.016-3.12l1.248-3.12-2.4-5.712-7.632-18.24h4.368l6 15.648 1.488 4.272 1.728-4.752L418.986 786zm14.958-.48q3.408 0 6 1.488 2.64 1.488 4.128 4.32 1.488 2.784 1.488 6.672t-1.488 6.72q-1.488 2.784-4.128 4.272-2.592 1.488-6 1.488-3.36 0-6-1.488t-4.128-4.272q-1.488-2.832-1.488-6.72t1.488-6.672q1.488-2.832 4.128-4.32t6-1.488m0 3.312q-2.448 0-4.176 1.104t-2.688 3.168q-.912 2.016-.912 4.896 0 2.832.912 4.896.96 2.064 2.688 3.168t4.176 1.104 4.176-1.104 2.64-3.168q.96-2.064.96-4.896 0-2.88-.96-4.896-.912-2.064-2.64-3.168t-4.176-1.104m27.533 21.648q-2.304 0-4.368-.864-2.016-.864-3.312-2.784-1.248-1.968-1.248-5.088V786h3.84v14.736q0 3.648 1.584 5.04 1.584 1.344 4.464 1.344 1.344 0 2.64-.432 1.296-.48 2.304-1.44 1.056-1.008 1.632-2.544.624-1.536.624-3.648V786h3.84v24h-3.36l-.24-3.648q-1.248 2.16-3.408 3.168-2.112.96-4.992.96M531.919 786h4.272l-8.352 24h-3.84l-6.768-19.104L510.847 810h-3.84l-8.352-24h4.272l6.048 19.536L515.503 786h3.84l6.528 19.536zm11.949-4.608q-1.296 0-2.112-.768-.768-.816-.768-2.112t.768-2.064q.816-.816 2.112-.816t2.064.816q.816.768.816 2.064t-.816 2.112q-.768.768-2.064.768m1.92 4.608v24h-3.84v-24zm12.558-11.04v28.944q0 1.824.672 2.544.672.672 2.16.672.96 0 1.584-.144t1.68-.528l-.624 3.36a6.8 6.8 0 0 1-1.68.48 9 9 0 0 1-1.872.192q-2.928 0-4.368-1.584-1.392-1.584-1.392-4.848V774.96zm14.672 0v28.944q0 1.824.672 2.544.672.672 2.16.672.96 0 1.584-.144t1.68-.528l-.624 3.36a6.8 6.8 0 0 1-1.68.48 9 9 0 0 1-1.872.192q-2.928 0-4.368-1.584-1.392-1.584-1.392-4.848V774.96zM598.714 810v-24h3.12l.528 3.936q1.008-2.208 2.928-3.312 1.968-1.104 4.752-1.104.624 0 1.344.096.768.096 1.296.384l-.672 3.504a6 6 0 0 0-1.152-.288q-.624-.096-1.776-.096-1.488 0-3.024.864-1.488.864-2.496 2.64-1.008 1.728-1.008 4.416V810zm28.876.48q-3.408 0-6.096-1.488-2.64-1.488-4.128-4.272-1.488-2.832-1.488-6.72t1.488-6.672q1.488-2.832 4.08-4.32t5.904-1.488q3.36 0 5.712 1.44a9.4 9.4 0 0 1 3.648 3.936q1.248 2.448 1.248 5.52 0 .816-.048 1.488t-.144 1.2h-19.392v-3.408h17.712l-1.968.384q0-3.456-1.92-5.328-1.872-1.872-4.944-1.872-2.352 0-4.08 1.104-1.68 1.056-2.64 3.12-.912 2.016-.912 4.896 0 2.832.96 4.896t2.688 3.168q1.776 1.056 4.224 1.056 2.64 0 4.272-1.008a7.6 7.6 0 0 0 2.688-2.736l3.024 1.776a10 10 0 0 1-2.352 2.832q-1.392 1.2-3.312 1.872-1.872.624-4.224.624m31.687-15.984q0-2.688-1.44-4.128-1.44-1.488-4.08-1.488-2.496 0-4.224 1.104-1.728 1.056-2.544 3.456l-3.12-1.92q.96-2.688 3.552-4.32 2.592-1.68 6.432-1.68 2.592 0 4.704.912 2.112.864 3.312 2.688 1.248 1.776 1.248 4.608v11.616q0 1.728 1.824 1.728.912 0 1.776-.24l-.192 3.024q-.96.48-2.496.48-1.392 0-2.496-.528a3.94 3.94 0 0 1-1.728-1.584q-.624-1.104-.624-2.736v-.48l.96.144q-.576 1.872-1.968 3.072a9.6 9.6 0 0 1-3.12 1.728 11.6 11.6 0 0 1-3.408.528q-2.112 0-3.936-.72t-2.928-2.16q-1.056-1.488-1.056-3.648 0-2.688 1.776-4.416 1.824-1.776 5.04-2.4l9.504-1.872v3.168l-7.728 1.584q-2.352.48-3.504 1.344t-1.152 2.4q0 1.488 1.152 2.448 1.2.912 3.36.912 1.392 0 2.64-.336a7.7 7.7 0 0 0 2.304-1.104 5.6 5.6 0 0 0 1.584-1.872q.576-1.152.576-2.688zm22.531 15.984q-2.976 0-5.472-1.488t-3.984-4.272q-1.488-2.832-1.488-6.72 0-3.984 1.584-6.768t4.176-4.224a11 11 0 0 1 5.568-1.488q2.976 0 5.136 1.536 2.208 1.536 2.928 4.08l-.48.336V774.96h3.84V810h-3.36l-.336-5.808.528-.288q-.336 2.112-1.632 3.6-1.248 1.44-3.12 2.208a9.9 9.9 0 0 1-3.888.768m.384-3.36q2.304 0 3.984-1.152 1.728-1.152 2.64-3.264.96-2.16.96-5.04 0-2.736-.96-4.704-.912-1.968-2.592-3.024-1.632-1.056-3.84-1.056-3.648 0-5.664 2.496T674.704 798t1.968 6.624 5.52 2.496m41.436-27.936v24.192q0 1.776 1.008 2.64t2.592.864q1.392 0 2.4-.48a6.6 6.6 0 0 0 1.824-1.296l1.344 3.216q-1.104 1.008-2.64 1.584-1.488.576-3.456.576a9.2 9.2 0 0 1-3.408-.624 5.75 5.75 0 0 1-2.544-2.064q-.912-1.44-.96-3.744V780.24zm8.736 6.816v3.312h-17.376V786zm5.709 24v-35.04h3.84v14.64q1.248-2.16 3.312-3.12t4.512-.96q2.592 0 4.704 1.008 2.112.96 3.36 2.976 1.296 2.016 1.296 5.136V810h-3.84v-14.016q0-3.984-1.728-5.52-1.68-1.584-4.176-1.584-1.728 0-3.456.816t-2.88 2.688q-1.104 1.824-1.104 4.896V810zm31.639-28.608q-1.296 0-2.112-.768-.768-.816-.768-2.112t.768-2.064q.816-.816 2.112-.816t2.064.816q.816.768.816 2.064t-.816 2.112q-.768.768-2.064.768m1.92 4.608v24h-3.84v-24zm17.55 24.48q-3.504 0-6.48-1.488-2.928-1.488-4.512-4.224l3.264-2.352q1.056 2.208 3.072 3.456 2.064 1.248 4.944 1.248 2.544 0 3.984-.96 1.44-1.008 1.44-2.592 0-1.008-.672-1.824-.624-.864-2.448-1.248l-5.76-1.2q-3.504-.72-5.04-2.4-1.488-1.68-1.488-4.176 0-1.968 1.104-3.6 1.152-1.632 3.216-2.592 2.112-1.008 4.944-1.008 3.552 0 6 1.392a8.7 8.7 0 0 1 3.648 3.936l-3.216 2.112q-.816-2.112-2.64-3.072-1.824-1.008-3.792-1.008-1.728 0-2.976.48-1.2.48-1.872 1.344a3 3 0 0 0-.624 1.872q0 1.056.72 1.968.72.864 2.688 1.248l6 1.248q3.36.672 4.704 2.208t1.344 3.744q0 2.256-1.2 3.984-1.2 1.68-3.36 2.592t-4.992.912"/></svg>