<svg xmlns="http://www.w3.org/2000/svg" width="1080" height="1350" fill="none"><path fill="#000" d="m349.51 451 6.88-32.4h4.36l6.92 32.4h-4.28l-1.48-8.16h-6.6l-1.56 8.16zm6.4-11.4h5.4l-2.72-14.6zm14.688 11.4v-23.12h4.28v2.28a12.5 12.5 0 0 1 2.56-1.84q1.4-.76 3.08-.76 1.4 0 2.12.72.76.72 1.04 1.8.32 1.08.32 2.2V451h-4.28v-17.48q0-1.24-.36-1.92-.361-.68-1.48-.68-.72 0-1.52.44-.76.4-1.48 1V451zm22.938.32q-2.92 0-4.36-2.12-1.44-2.16-1.44-7.28v-4.48q0-2.64.44-4.88.44-2.28 1.64-3.64 1.239-1.36 3.6-1.36 1.16 0 2.12.52t1.72 1.28V418.6h4.28V451h-4.28v-1.48a7.2 7.2 0 0 1-1.68 1.32q-.88.48-2.04.48m1.08-3.36q.6 0 1.28-.2a6.5 6.5 0 0 0 1.36-.68v-15.16a6.2 6.2 0 0 0-1.24-.68 3.44 3.44 0 0 0-1.48-.32q-1.48 0-2 1.44-.52 1.4-.52 3.4v6.52q0 1.6.16 2.92.2 1.28.76 2.04.56.72 1.68.72m20.036 8.84v-3.28q1.56 0 2.48-.16.92-.12 1.32-.52.4-.36.4-1.04 0-.36-.28-1.6l-.6-2.64-4.64-19.68h4.32l3.12 17.28 3-17.28h4.32l-5.52 24.4q-.36 1.68-1.32 2.64-.96 1-2.48 1.44-1.48.44-3.6.44zm22.384-5.48q-2.56 0-4.04-1.04t-2.12-2.96q-.6-1.92-.6-4.52v-6.72q0-2.6.6-4.52.64-1.92 2.12-2.96t4.04-1.04 4 1.04q1.48 1.04 2.08 2.96.64 1.92.64 4.52v6.72q0 2.6-.64 4.52-.6 1.92-2.08 2.96-1.44 1.04-4 1.04m0-3.16q1.24 0 1.72-.72.519-.72.6-1.88.12-1.2.12-2.48v-7.24q0-1.32-.12-2.48-.081-1.16-.6-1.88-.48-.76-1.72-.76t-1.76.76q-.52.72-.64 1.88-.08 1.16-.08 2.48v7.24q0 1.28.08 2.48.12 1.16.64 1.88t1.76.72m13.952 3.16q-1.36 0-2.12-.72t-1.08-1.8a8.7 8.7 0 0 1-.28-2.2v-18.72h4.28v17.44q0 1.24.36 1.96.36.68 1.48.68.72 0 1.48-.4a9.6 9.6 0 0 0 1.52-1.04v-18.64h4.28V451h-4.28v-2.28a11.2 11.2 0 0 1-2.56 1.84q-1.4.76-3.08.76m26.118-.32-3.72-23.12h3.52l2.4 17.04 3.08-17.04h3.28l3.08 16.96 2.4-16.96h3.52l-3.84 23.12h-3.6l-3.16-16.32-3.12 16.32zm21.115 0v-23.12h4.28V451zm0-26.56v-4.48h4.28v4.48zm9.261 26.56v-32.4h4.28V451zm9.141 0v-32.4h4.28V451zm18.001 0v-23.12h4.28v3.28q1.28-2.12 2.56-2.84t2.56-.72h.28q.16 0 .4.04v4.72a5.7 5.7 0 0 0-1.12-.32q-.6-.16-1.24-.16-1 0-1.84.48-.8.44-1.6 1.76V451zm19.014.32q-2.72 0-4.2-1.04-1.48-1.08-2.08-3.12-.56-2.08-.56-5.08v-5.28q0-3.08.6-5.12t2.08-3.08q1.52-1.04 4.16-1.04 2.92 0 4.28 1.2 1.4 1.2 1.84 3.48.44 2.24.44 5.4v1.88h-9.12v4.64q0 1.4.24 2.28.28.88.84 1.32.6.4 1.52.4.96 0 1.44-.44.52-.48.68-1.32.2-.88.2-2.04v-1.4h4.16v.88q0 3.48-1.48 5.48t-5.04 2m-2.56-14.12h4.92v-2.08q0-1.44-.16-2.4-.16-1-.68-1.48-.48-.52-1.56-.52-1.04 0-1.6.48-.52.48-.72 1.64-.2 1.12-.2 3.12zm16.476 14.12q-1.36 0-2.4-.76a5.7 5.7 0 0 1-1.64-2q-.6-1.24-.6-2.6 0-2.16.72-3.64a7.2 7.2 0 0 1 1.96-2.48 13.8 13.8 0 0 1 2.92-1.8q1.68-.76 3.52-1.48v-1.64q0-1.4-.16-2.32t-.68-1.36q-.48-.48-1.48-.48-.88 0-1.44.4-.52.4-.76 1.16-.24.72-.24 1.72v1.16l-4.24-.16q.08-3.84 1.76-5.64 1.68-1.84 5.2-1.84 3.44 0 4.88 1.88t1.44 5.44v10.56q0 1.08.04 2.08.08 1 .16 1.88.12.84.2 1.6h-3.92q-.12-.64-.32-1.6a31 31 0 0 1-.24-1.8q-.4 1.36-1.56 2.56-1.12 1.16-3.12 1.16m1.68-3.68q.64 0 1.2-.36t1-.8q.44-.48.6-.76v-6.56q-1 .56-1.88 1.12t-1.56 1.2a4.9 4.9 0 0 0-1.04 1.4q-.36.76-.36 1.76 0 1.4.52 2.2t1.52.8m16.567 3.68q-2.92 0-4.36-2.12-1.44-2.16-1.44-7.28v-4.48q0-2.64.44-4.88.44-2.28 1.64-3.64 1.24-1.36 3.6-1.36 1.16 0 2.12.52t1.72 1.28V418.6h4.28V451h-4.28v-1.48a7.2 7.2 0 0 1-1.68 1.32q-.879.48-2.04.48m1.08-3.36q.6 0 1.28-.2.68-.24 1.36-.68v-15.16a6 6 0 0 0-1.24-.68 3.4 3.4 0 0 0-1.48-.32q-1.48 0-2 1.44-.52 1.4-.52 3.4v6.52q0 1.6.16 2.92.2 1.28.76 2.04.561.72 1.68.72m26.556 3.36q-1.8 0-2.92-.68-1.08-.68-1.6-1.92-.48-1.24-.48-2.92v-15.08h-2.44v-2.84h2.44v-6.76h4.28v6.76h3.72v2.84h-3.72v14.8q0 1.36.44 1.96.441.56 1.68.56.321 0 .72-.04.441-.04.84-.08v3.16a17 17 0 0 1-1.48.16q-.68.08-1.48.08m6.265-.32v-32.4h4.28v11.68a12.4 12.4 0 0 1 2.6-1.92q1.44-.8 3.2-.8 1.36 0 2.08.72.76.72 1.04 1.8.32 1.08.32 2.2V451h-4.28v-17.48q0-1.24-.36-1.92t-1.48-.68q-.76 0-1.6.44a8.3 8.3 0 0 0-1.52 1.08V451zm17.972 0v-23.12h4.28V451zm0-26.56v-4.48h4.28v4.48zm14.221 26.88q-2.84 0-4.56-1.76-1.72-1.8-1.96-4.72l3.56-1.08q.32 2.2 1.08 3.32.76 1.08 2.24 1.08 1.16 0 1.76-.64.6-.68.6-1.8 0-1-.44-1.8t-1.44-1.64l-3.96-3.4a11.2 11.2 0 0 1-2.04-2.32q-.8-1.28-.8-3.32 0-1.84.72-3.08a4.83 4.83 0 0 1 2.08-1.92q1.36-.68 3.16-.68 2.88 0 4.4 1.8 1.52 1.76 1.76 4.28l-3.04 1.08q-.16-1.2-.48-2.08-.32-.92-.92-1.4-.6-.52-1.56-.52-1.04 0-1.68.72-.6.68-.6 1.64 0 .6.24 1.2.28.56.92 1.12l4.08 3.76a15 15 0 0 1 1.56 1.64q.76.88 1.24 2t.48 2.6q0 1.96-.8 3.28a5.1 5.1 0 0 1-2.24 2q-1.44.64-3.36.64m19.142-.32v-32.4h4.28V451zm12.22.32q-1.359 0-2.4-.76a5.7 5.7 0 0 1-1.64-2q-.6-1.24-.6-2.6 0-2.16.72-3.64a7.2 7.2 0 0 1 1.96-2.48 13.9 13.9 0 0 1 2.92-1.8q1.68-.76 3.52-1.48v-1.64q0-1.4-.16-2.32t-.68-1.36q-.48-.48-1.48-.48-.879 0-1.44.4-.52.4-.76 1.16-.24.72-.24 1.72v1.16l-4.24-.16q.08-3.84 1.76-5.64 1.68-1.84 5.2-1.84 3.44 0 4.88 1.88t1.44 5.44v10.56q0 1.08.04 2.08.08 1 .16 1.88.12.84.2 1.6h-3.92q-.12-.64-.32-1.6a32 32 0 0 1-.24-1.8q-.399 1.36-1.56 2.56-1.119 1.16-3.12 1.16m1.68-3.68q.64 0 1.2-.36t1-.8q.441-.48.6-.76v-6.56q-1 .56-1.88 1.12t-1.56 1.2q-.64.6-1.04 1.4-.36.76-.36 1.76 0 1.4.52 2.2t1.52.8m16.567 3.68q-2.84 0-4.56-1.76-1.72-1.8-1.96-4.72l3.56-1.08q.321 2.2 1.08 3.32.76 1.08 2.24 1.08 1.16 0 1.76-.64.6-.68.6-1.8 0-1-.44-1.8t-1.44-1.64l-3.96-3.4a11.2 11.2 0 0 1-2.04-2.32q-.8-1.28-.8-3.32 0-1.84.72-3.08a4.83 4.83 0 0 1 2.08-1.92q1.36-.68 3.16-.68 2.88 0 4.4 1.8 1.52 1.76 1.76 4.28l-3.04 1.08q-.159-1.2-.48-2.08-.32-.92-.92-1.4-.6-.52-1.56-.52-1.04 0-1.68.72-.6.68-.6 1.64 0 .6.24 1.2.28.56.92 1.12l4.08 3.76a15 15 0 0 1 1.56 1.64q.76.88 1.24 2t.48 2.6q0 1.96-.8 3.28a5.1 5.1 0 0 1-2.24 2q-1.44.64-3.36.64m15.761 0q-1.8 0-2.92-.68-1.08-.68-1.6-1.92-.48-1.24-.48-2.92v-15.08h-2.44v-2.84h2.44v-6.76h4.28v6.76h3.72v2.84h-3.72v14.8q0 1.36.44 1.96.441.56 1.68.56.321 0 .72-.04.441-.04.84-.08v3.16a17 17 0 0 1-1.48.16q-.68.08-1.48.08M161.271 581.2l5.52-24.12q0-8.52-.48-17.4-.36-9-.96-17.88-.48-8.88-.96-14.28l-.36-5.4 19.56-7.44v14.64q0 6.96-.12 12.6v9.72q1.56-4.08 3.72-10.08 2.28-6 4.2-11.64 1.2-3.36 2.28-6.72 1.2-3.48 2.4-7.2l18.6 4.2q-5.16 10.2-10.08 20.52-2.88 6.36-6.36 13.44-3.36 6.96-6.36 13.08-2.88 6-4.56 9.6-.6 3.12-1.56 6.84-.84 3.72-1.68 7.08-.48 1.92-1.08 3.96-.6 1.92-1.2 3.96zm58.535 2.28q-7.92 0-12.96-6.12t-5.04-18.48q0-6.84 1.68-14.4t4.68-14.88 6.96-13.56q6.36-10.08 14.64-16.44t17.4-6.36q7.2 0 11.04 3.72 3.96 3.6 5.52 9.36 1.56 5.64 1.56 11.76 0 14.28-4.44 26.64-4.32 12.24-11.28 20.76-6.96 8.76-14.88 13.44-7.8 4.56-14.88 4.56m6.48-19.8q5.4 0 9.48-3.6 4.2-3.6 7.08-9.12 2.88-5.64 4.32-11.76t1.44-11.04q0-1.92-.36-4.08-.36-2.28-1.56-3.96t-3.72-1.68q-5.52 0-9.96 4.08-4.44 3.96-7.44 10.08-3 6.24-4.44 12.24t-1.44 10.92q0 2.52 1.8 5.28 1.8 2.64 4.8 2.64m50.78 21.48q-3.6 0-7.32-1.56t-6.24-4.8-2.52-8.28v-.96q0-.6.12-.96.36-3.12.96-8.16.72-5.04 1.68-10.92.96-6 1.92-11.88 1.08-5.88 1.92-10.68 1.8-9.6 2.88-15.48t1.68-9q.72-3.24 1.08-4.8 1.32-.12 2.76-.24 1.56-.24 3.24-.36 1.68-.24 3.24-.36 1.68-.12 3.24-.24l7.32-.72q-1.56 7.32-3 13.92l-2.52 12.36-5.52 26.52q-.72 3-1.08 5.04-.48 1.92-1.08 4.92-.48 2.88-.48 5.28 0 1.92.96 3.24.96 1.2 2.4 1.2 2.04 0 3.36-1.56t2.16-3.84 1.32-4.56q.48-2.4.84-3.84 1.2-5.52 2.16-10.68 1.08-5.28 2.16-11.16 1.2-5.88 2.64-13.56.96-5.28 1.92-10.68 1.08-5.52 2.04-11.16l18.24-1.2-1.08 5.76q-1.08 5.76-3.12 17.4-.84 4.44-1.92 9.96-.96 5.52-2.16 11.16t-2.28 10.68q-.96 5.04-1.8 8.64-2.4 9.84-7.44 15.48-5.04 5.52-11.16 7.8-6 2.28-11.52 2.28m58.831-1.68 9.12-85.2q2.76-.12 5.4-.36 2.76-.36 5.28-.84 2.4-.48 4.92-.72 2.52-.36 4.92-.48l-.36 2.4q-.12 1.2-.48 2.76-.24 1.44-.48 3.36-.6 4.2-1.44 9.6t-1.92 12q-.72 4.08-1.68 9.84-.84 5.76-2.04 13.08h1.8q1.56-5.52 2.88-10.08t2.28-8.04 1.8-6.24q.96-2.88 1.56-5.16 2.52-8.88 4.08-14.52t2.04-7.32h1.08q3.12 0 6.48-.48 3.48-.48 6.24-1.08-.12.48-.48 3.96t-.84 8.52-.96 10.44q-.84 10.2-1.56 17.76-.6 7.56-1.08 12.24h2.16l11.4-51.6 8.04-1.08q1.68-.24 3.48-.48t3.72-.48q3.48-.48 6.6-1.08-3.6 10.08-7.2 23.76t-7.2 27.72q-1.92 7.68-3.84 15.6-1.8 7.8-3.6 15.96l-27.12 4.56 5.28-46.32h-1.44l-11.88 43.56zm67.75-.6q1.68-6.96 3.36-15.72a1612 1612 0 0 0 6.48-36.6q1.32-7.68 2.52-15.6 1.32-7.92 2.52-15.96l18.72-3-5.4 31.56q-1.8 11.16-3.24 20.04-1.32 8.88-2.64 16.8-1.2 7.92-2.52 16.2-2.28 0-5.52.36-3.24.24-6.48.72-3.24.36-5.52.72-2.16.36-2.28.48m25.098.36q1.32-9.48 2.76-19.08 1.56-9.6 3.12-18.48 1.68-9 3.12-16.2 1.56-7.8 3.12-15.84t3.24-16.2l21-2.76-6.24 27.12q-1.68 7.08-3.48 15.24-1.68 8.04-3.12 15.6t-2.28 13.44q3-.24 6.36-.24 3.48-.12 6.12-.12.12 2.76.48 5.88.36 3 .72 5.28.48 2.16.48 2.4h-.96q-.36 0-.84-.12h-1.92q-4.68 0-10.44.48-5.64.36-11.28 1.32-5.52.84-9.96 2.28m36.211 0q1.32-9.48 2.76-19.08 1.56-9.6 3.12-18.48 1.68-9 3.12-16.2 1.56-7.8 3.12-15.84t3.24-16.2l21-2.76-6.24 27.12q-1.68 7.08-3.48 15.24-1.68 8.04-3.12 15.6t-2.28 13.44q3-.24 6.36-.24 3.48-.12 6.12-.12.12 2.76.48 5.88.36 3 .72 5.28.48 2.16.48 2.4h-.96q-.36 0-.84-.12h-1.92q-4.68 0-10.44.48-5.64.36-11.28 1.32-5.52.84-9.96 2.28m58.688-.12 6.24-31.2q1.44-8.64 3.12-17.76a854 854 0 0 0 3.12-18q1.56-8.88 2.4-16.68 6.84-2.16 14.76-3.12 7.92-1.08 15.72-1.08 9.12 0 12.36 3.96 3.36 3.96 3.36 10.68 0 6.12-2.88 12.36-2.88 6.12-7.56 11.16-4.56 4.92-10.08 7.8 2.16 4.8 4.56 10.56 2.52 5.64 4.68 10.8l2.4 6q1.32 3 2.52 6l-18.6 6.48-4.32-14.4q-1.8-6-3.36-11.52-1.44-5.64-1.68-7.92l-1.56.48q-.36 1.92-.84 4.2-.36 2.16-.84 4.8t-.96 5.16l-.96 4.8-2.16 11.4zm28.2-52.08q2.16-.24 5.28-1.8 3.24-1.68 6.36-4.08 3.24-2.4 5.4-4.92t2.16-4.44q0-2.4-2.88-3.12-2.76-.84-7.32-.84h-2.64q-.72.12-1.32.12h-1.2zm25.6 52.08 15.72-85.32 37.92-3.24q-.84 2.64-1.44 5.4-.6 2.28-1.2 4.8-.48 2.4-.84 4.32-1.56.12-4.44.24-2.88 0-5.88.12h-7.44l-4.2 21.48 6.96-.36q1.32-.12 2.64-.12h5.16q1.08 0 1.68-.12l-.48 3.36q-.12 1.56-.36 3.24l-1.08 6.6q-.6.12-1.56.12h-2.28q-1.32.12-2.76.12t-2.76.12q-1.56.12-3.24.12t-3.6.12l-4.08 22.08 17.52-2.76-1.2 13.68zm71.019-.36q.24-2.04.48-3.96l.48-3.84.72-6.72q.12-1.68.24-3.12t.24-2.64h-10.44l-4.8 17.28q-2.64.36-6.24.84-3.6.36-6.72.72l-3.84.48q-1.8.24-3.72.48l9.48-31.44q1.68-5.64 3.84-12.84t4.32-14.76a1510 1510 0 0 0 4.2-14.16q2.04-6.72 3.24-11.28 8.16-.6 16.56-1.44 8.52-.84 16.56-2.28-.6 6.72-1.2 15.24-.48 8.4-.96 17.4-.36 9-.84 17.76-.24 8.28-.6 17.16-.36 8.76-.72 18l-3.6.48-3.6.48q-3 .48-6.6 1.08zm-5.4-32.28q.72 0 2.64-.12 2.04-.12 3.84-.24t2.16-.12q0-1.56.48-6.36t.96-10.08q.24-3.12.48-6.36.36-3.36.72-6.84l.72-10.44-1.8.12-2.76 10.32zm33.434 33.12q-1.68 0-3.36-.24-1.68-.12-3.36-.36l6.36-32.28q1.2-6.6 2.52-13.92 1.44-7.44 2.76-14.64 1.32-7.32 2.28-13.56 1.08-6.24 1.68-10.56 5.16-.96 10.44-1.8t10.8-.84q8.88 0 14.04 3.72 5.16 3.6 7.44 9.6 2.28 5.88 2.28 12.96 0 6.36-1.8 13.44-1.8 6.96-5.16 13.92a76.3 76.3 0 0 1-7.8 12.96q-7.08 9.48-17.28 15.6-10.08 6-21.84 6m14.28-15.12q4.2-2.76 7.92-8.4 3.84-5.64 7.2-13.56 3-7.32 4.68-13.8 1.68-6.6 1.68-10.92 0-4.44-2.52-6.96-2.4-2.52-7.68-2.52-1.92 10.32-3.96 19.08-1.92 8.76-3.84 17.64-1.8 8.88-3.48 19.44m65.726 14.64q1.32-6.6 2.64-13.08 1.44-6.6 2.64-12.96 4.56-22.8 7.44-43.68-1.32-.24-2.76-.24-1.44-.12-2.76 0-2.88.24-5.64-.72.12-.96.12-2.04v-4.92q0-1.32.12-2.52.12-1.32.12-2.76 0-1.56.12-3.12a163 163 0 0 0 12.48.48q8.88 0 16.92-.6 8.16-.6 15-1.44l-1.32 6.48-1.08 5.64q-.6 3.12-1.08 4.92-1.32.36-2.64.6t-2.64.36-2.76.36l-2.64.48q-1.8 8.88-3 15.36-1.08 6.48-2.04 12.48-.84 5.88-2.04 12.96-2.04 12.12-3.6 24.6zm33.637.12a1811 1811 0 0 0 6.48-32.76q1.68-9.72 3.36-19.68 1.8-9.96 3.24-19.08t2.16-16.32q3.24.12 5.28.36 2.16.12 3.96.24 1.92.12 4.2.24h6l-4.08 17.04q-1.92 8.52-3.6 17.16l11.88-1.32q.84-4.2 1.56-8.28.84-4.2 1.44-8.28.6-3.96 1.44-8.04.96-4.2 2.04-8.4 4.32-.72 8.76-1.08 4.44-.48 7.44-.6l3-.24q-1.56 4.8-3.12 11.28t-3 13.68-2.76 14.4q-1.32 7.08-2.4 13.2-1.32 7.68-2.52 15.48-1.2 7.68-2.4 15.72l-18.72 2.16q.84-3.6 1.44-7.08.72-3.6 1.32-6.96 1.2-5.76 2.4-12 1.32-6.24 2.04-10.68l-11.64 1.08q-.48 2.28-.96 4.92-.36 2.64-.96 5.64t-1.2 5.88l-.96 5.52q-.6 3.24-1.32 6.48t-1.32 6.48zm52.608-.36q1.68-6.96 3.36-15.72a1612 1612 0 0 0 6.48-36.6q1.32-7.68 2.52-15.6 1.32-7.92 2.52-15.96l18.72-3-5.4 31.56q-1.8 11.16-3.24 20.04-1.32 8.88-2.64 16.8-1.2 7.92-2.52 16.2-2.28 0-5.52.36-3.24.24-6.48.72-3.24.36-5.52.72-2.16.36-2.28.48m44.178.36q-4.8 0-9.6-2.52-4.8-2.64-9.24-8.28l8.88-17.4q1.32 2.28 3.84 4.32 2.64 2.04 5.52 3.24t4.92 1.2q3.12 0 5.88-1.92 2.88-1.92 2.88-5.16 0-4.2-3.84-7.68t-8.64-6.84q-4.68-3.36-8.64-7.56-3.84-4.32-3.84-9.84 0-6.24 3.6-11.52 3.6-5.4 9.36-9.36 5.76-4.08 12.24-6.24 6.6-2.28 12.48-2.28 4.2 0 7.8 1.44 3.6 1.32 5.76 4.44t2.16 8.4q0 .84-.12 1.68 0 .84-.12 1.68t-.36 1.8q-.12.84-.24 1.8l-17.4 5.04q.24-.96.36-1.92.24-.96.24-1.92 0-3.6-1.32-5.16-1.2-1.68-3.24-1.68-1.08 0-3.12 1.2-2.04 1.08-3.72 3.12-1.56 1.92-1.56 4.32 0 3.96 3.24 6.6 3.36 2.52 7.68 5.16 2.04 1.2 4.56 3.84 2.52 2.52 4.32 6.96 1.92 4.32 1.92 11.16 0 8.88-4.44 15.6-4.32 6.72-11.76 10.56-7.44 3.72-16.44 3.72M428.722 715.12q1.68-5.76 3.24-13.08 1.56-7.44 2.88-15.12 1.44-7.68 2.64-14.28t1.92-10.92q1.32-8.04 2.52-16.2 1.32-8.28 2.52-16.8l40.2-2.04-3.48 14.76h-18.84l-3.72 21.36q1.92-.12 3.6-.12h11.64q1.08 0 1.92-.12-.12 1.68-.36 3.36-.24 1.56-.48 3.24l-1.08 6.48q-2.52 0-7.32-.12-4.68-.24-9.96-.36l-5.52 35.4-4.08.72q-1.92.36-3.96.84-3.36.6-7.32 1.44t-6.96 1.56m41.019-.24q1.68-6.96 3.36-15.72a1612 1612 0 0 0 6.48-36.6q1.32-7.68 2.52-15.6 1.32-7.92 2.52-15.96l18.72-3-5.4 31.56q-1.8 11.16-3.24 20.04-1.32 8.88-2.64 16.8-1.2 7.92-2.52 16.2-2.28 0-5.52.36-3.24.24-6.48.72-3.24.36-5.52.72-2.16.36-2.28.48m24.137.24 6.24-31.2q1.44-8.64 3.12-17.76a854 854 0 0 0 3.12-18q1.56-8.88 2.4-16.68 6.84-2.16 14.76-3.12 7.92-1.08 15.72-1.08 9.12 0 12.36 3.96 3.36 3.96 3.36 10.68 0 6.12-2.88 12.36-2.88 6.12-7.56 11.16-4.56 4.92-10.08 7.8 2.16 4.8 4.56 10.56 2.52 5.64 4.68 10.8l2.4 6q1.32 3 2.52 6l-18.6 6.48-4.32-14.4q-1.8-6-3.36-11.52-1.44-5.64-1.68-7.92l-1.56.48q-.36 1.92-.84 4.2-.36 2.16-.84 4.8t-.96 5.16l-.96 4.8-2.16 11.4zm28.2-52.08q2.16-.24 5.28-1.8 3.24-1.68 6.36-4.08 3.24-2.4 5.4-4.92t2.16-4.44q0-2.4-2.88-3.12-2.76-.84-7.32-.84h-2.64q-.72.12-1.32.12h-1.2zm45.161 52.2q-4.8 0-9.6-2.52-4.8-2.64-9.24-8.28l8.88-17.4q1.32 2.28 3.84 4.32 2.64 2.04 5.52 3.24t4.92 1.2q3.12 0 5.88-1.92 2.88-1.92 2.88-5.16 0-4.2-3.84-7.68t-8.64-6.84q-4.68-3.36-8.64-7.56-3.84-4.32-3.84-9.84 0-6.24 3.6-11.52 3.6-5.4 9.36-9.36 5.76-4.08 12.24-6.24 6.6-2.28 12.48-2.28 4.2 0 7.8 1.44 3.6 1.32 5.76 4.44t2.16 8.4q0 .84-.12 1.68 0 .84-.12 1.68t-.36 1.8q-.12.84-.24 1.8l-17.4 5.04q.24-.96.36-1.92.24-.96.24-1.92 0-3.6-1.32-5.16-1.2-1.68-3.24-1.68-1.08 0-3.12 1.2-2.04 1.08-3.72 3.12-1.56 1.92-1.56 4.32 0 3.96 3.24 6.6 3.36 2.52 7.68 5.16 2.04 1.2 4.56 3.84 2.52 2.52 4.32 6.96 1.92 4.32 1.92 11.16 0 8.88-4.44 15.6-4.32 6.72-11.76 10.56-7.44 3.72-16.44 3.72m41.842-.12q1.32-6.6 2.64-13.08 1.44-6.6 2.64-12.96 4.56-22.8 7.44-43.68-1.32-.24-2.76-.24-1.44-.12-2.76 0-2.88.24-5.64-.72.12-.96.12-2.04v-4.92q0-1.32.12-2.52.12-1.32.12-2.76 0-1.56.12-3.12a163 163 0 0 0 12.48.48q8.88 0 16.92-.6 8.16-.6 15-1.44l-1.32 6.48-1.08 5.64q-.6 3.12-1.08 4.92-1.32.36-2.64.6t-2.64.36-2.76.36l-2.64.48q-1.8 8.88-3 15.36-1.08 6.48-2.04 12.48-.84 5.88-2.04 12.96-2.04 12.12-3.6 24.6zM347.671 814v-34.848h-6.576v-4.032h18.384v4.032h-6.384V814zm15.268 0v-38.88h5.136v14.016a14.9 14.9 0 0 1 3.12-2.304q1.728-.96 3.84-.96 1.632 0 2.496.864.912.864 1.248 2.16.384 1.296.384 2.64V814h-5.136v-20.976q0-1.488-.432-2.304t-1.776-.816q-.912 0-1.92.528a10 10 0 0 0-1.824 1.296V814zm28.911.384q-3.264 0-5.04-1.248-1.776-1.296-2.496-3.744-.672-2.496-.672-6.096v-6.336q0-3.696.72-6.144t2.496-3.696q1.824-1.248 4.992-1.248 3.504 0 5.136 1.44 1.68 1.44 2.208 4.176.528 2.688.528 6.48v2.256h-10.944v5.568q0 1.68.288 2.736.336 1.056 1.008 1.584.72.48 1.824.48 1.152 0 1.728-.528.624-.576.816-1.584.24-1.056.24-2.448v-1.68h4.992v1.056q0 4.176-1.776 6.576t-6.048 2.4m-3.072-16.944h5.904v-2.496q0-1.728-.192-2.88-.192-1.2-.816-1.776-.576-.624-1.872-.624-1.248 0-1.92.576-.624.576-.864 1.968-.24 1.344-.24 3.744zM404.373 814v-27.744h5.136v2.736q1.392-1.296 3.072-2.208t3.696-.912q1.68 0 2.544.864.912.864 1.248 2.16.384 1.296.384 2.64V814h-5.136v-20.976q0-1.488-.432-2.304t-1.776-.816q-.864 0-1.824.528-.912.48-1.776 1.2V814zm31.631 6.96v-3.936q1.872 0 2.976-.192 1.104-.144 1.584-.624.48-.432.48-1.248 0-.432-.336-1.92t-.72-3.168l-5.568-23.616h5.184l3.744 20.736 3.6-20.736h5.184l-6.624 29.28q-.432 2.016-1.584 3.168-1.152 1.2-2.976 1.728-1.776.528-4.32.528zm26.861-6.576q-3.072 0-4.848-1.248t-2.544-3.552q-.72-2.304-.72-5.424v-8.064q0-3.12.72-5.424.768-2.304 2.544-3.552t4.848-1.248 4.8 1.248q1.776 1.248 2.496 3.552.768 2.304.768 5.424v8.064q0 3.12-.768 5.424-.72 2.304-2.496 3.552-1.728 1.248-4.8 1.248m0-3.792q1.488 0 2.064-.864.624-.864.72-2.256.144-1.44.144-2.976v-8.688q0-1.584-.144-2.976-.096-1.392-.72-2.256-.576-.912-2.064-.912t-2.112.912q-.624.864-.768 2.256a43 43 0 0 0-.096 2.976v8.688q0 1.536.096 2.976.144 1.392.768 2.256t2.112.864m16.742 3.792q-1.632 0-2.544-.864t-1.296-2.16a10.5 10.5 0 0 1-.336-2.64v-22.464h5.136v20.928q0 1.488.432 2.352.432.816 1.776.816.864 0 1.776-.48a11.5 11.5 0 0 0 1.824-1.248v-22.368h5.136V814h-5.136v-2.736q-1.344 1.296-3.072 2.208-1.68.912-3.696.912m31.342-.384-4.464-27.744h4.224l2.88 20.448 3.696-20.448h3.936l3.696 20.352 2.88-20.352h4.224L527.413 814h-4.32l-3.792-19.584L515.557 814zm25.338 0v-27.744h5.136V814zm0-31.872v-5.376h5.136v5.376zM547.4 814v-38.88h5.136V814zm10.969 0v-38.88h5.136V814zm21.601 0v-27.744h5.136v3.936q1.536-2.544 3.072-3.408t3.072-.864h.336q.192 0 .48.048v5.664a6.7 6.7 0 0 0-1.344-.384 5.8 5.8 0 0 0-1.488-.192q-1.2 0-2.208.576-.96.528-1.92 2.112V814zm22.818.384q-3.264 0-5.04-1.248-1.776-1.296-2.496-3.744-.672-2.496-.672-6.096v-6.336q0-3.696.72-6.144t2.496-3.696q1.824-1.248 4.992-1.248 3.504 0 5.136 1.44 1.68 1.44 2.208 4.176.528 2.688.528 6.48v2.256h-10.944v5.568q0 1.68.288 2.736.336 1.056 1.008 1.584.72.48 1.824.48 1.152 0 1.728-.528.624-.576.816-1.584.24-1.056.24-2.448v-1.68h4.992v1.056q0 4.176-1.776 6.576t-6.048 2.4m-3.072-16.944h5.904v-2.496q0-1.728-.192-2.88-.192-1.2-.816-1.776-.576-.624-1.872-.624-1.248 0-1.92.576-.624.576-.864 1.968-.24 1.344-.24 3.744zm19.771 16.944q-1.632 0-2.88-.912a6.85 6.85 0 0 1-1.968-2.4 7.1 7.1 0 0 1-.72-3.12q0-2.592.864-4.368a8.6 8.6 0 0 1 2.352-2.976 16.6 16.6 0 0 1 3.504-2.16 89 89 0 0 1 4.224-1.776v-1.968q0-1.68-.192-2.784t-.816-1.632q-.576-.576-1.776-.576-1.056 0-1.728.48-.624.48-.912 1.392-.288.864-.288 2.064v1.392l-5.088-.192q.096-4.608 2.112-6.768 2.016-2.208 6.24-2.208 4.128 0 5.856 2.256t1.728 6.528v12.672q0 1.296.048 2.496.096 1.2.192 2.256.144 1.008.24 1.92h-4.704q-.144-.768-.384-1.92a37 37 0 0 1-.288-2.16q-.48 1.632-1.872 3.072-1.344 1.392-3.744 1.392m2.016-4.416q.768 0 1.44-.432a7.2 7.2 0 0 0 1.2-.96q.528-.576.72-.912v-7.872q-1.2.672-2.256 1.344t-1.872 1.44a5.9 5.9 0 0 0-1.248 1.68q-.432.912-.432 2.112 0 1.68.624 2.64t1.824.96m19.88 4.416q-3.504 0-5.232-2.544-1.728-2.592-1.728-8.736v-5.376q0-3.168.528-5.856.528-2.736 1.968-4.368 1.488-1.632 4.32-1.632 1.392 0 2.544.624a8.9 8.9 0 0 1 2.064 1.536V775.12h5.136V814h-5.136v-1.776a8.6 8.6 0 0 1-2.016 1.584q-1.056.576-2.448.576m1.296-4.032q.72 0 1.536-.24a7.8 7.8 0 0 0 1.632-.816v-18.192a7.4 7.4 0 0 0-1.488-.816 4.1 4.1 0 0 0-1.776-.384q-1.776 0-2.4 1.728-.624 1.68-.624 4.08v7.824q0 1.92.192 3.504.24 1.536.912 2.448.672.864 2.016.864m31.868 4.032q-2.16 0-3.504-.816-1.296-.816-1.92-2.304-.576-1.488-.576-3.504v-18.096h-2.928v-3.408h2.928v-8.112h5.136v8.112h4.464v3.408h-4.464v17.76q0 1.632.528 2.352.528.672 2.016.672.384 0 .864-.048.528-.048 1.008-.096v3.792q-.96.144-1.776.192-.816.096-1.776.096m7.517-.384v-38.88h5.136v14.016a14.9 14.9 0 0 1 3.12-2.304q1.728-.96 3.84-.96 1.632 0 2.496.864.912.864 1.248 2.16.384 1.296.384 2.64V814h-5.136v-20.976q0-1.488-.432-2.304t-1.776-.816q-.912 0-1.92.528a10 10 0 0 0-1.824 1.296V814zm21.567 0v-27.744h5.136V814zm0-31.872v-5.376h5.136v5.376zm17.065 32.256q-3.408 0-5.472-2.112-2.064-2.16-2.352-5.664l4.272-1.296q.384 2.64 1.296 3.984.912 1.296 2.688 1.296 1.392 0 2.112-.768.72-.816.72-2.16 0-1.2-.528-2.16t-1.728-1.968l-4.752-4.08a13.4 13.4 0 0 1-2.448-2.784q-.96-1.536-.96-3.984 0-2.208.864-3.696a5.8 5.8 0 0 1 2.496-2.304q1.632-.816 3.792-.816 3.456 0 5.28 2.16 1.824 2.112 2.112 5.136l-3.648 1.296q-.192-1.44-.576-2.496-.384-1.104-1.104-1.68-.72-.624-1.872-.624-1.248 0-2.016.864-.72.816-.72 1.968 0 .72.288 1.44.336.672 1.104 1.344l4.896 4.512a18 18 0 0 1 1.872 1.968 9.2 9.2 0 0 1 1.488 2.4q.576 1.344.576 3.12 0 2.352-.96 3.936t-2.688 2.4q-1.728.768-4.032.768"/></svg>