<svg xmlns="http://www.w3.org/2000/svg" width="1080" height="1350" fill="none"><g clip-path="url(#a)"><g fill="#000" clip-path="url(#b)"><path d="M307.958 448.28q-.64 0-1.04-.28a1.33 1.33 0 0 1-.44-.8q-.04-.52.24-1.16l11-25.04q.36-.8.84-1.12.52-.36 1.12-.36t1.08.36q.52.32.84 1.12l11.04 25.04q.32.64.24 1.16-.04.52-.4.8t-1 .28q-.72 0-1.16-.36-.44-.4-.72-1.12l-2.96-6.84 1.6.84h-17.2l1.64-.84-2.92 6.84q-.36.76-.76 1.12t-1.04.36m11.68-24.64-6.44 15.16-.96-.76h14.8l-.88.76-6.44-15.16zm19.26 24.64q-.801 0-1.2-.44-.4-.44-.4-1.24v-16.68q0-.8.4-1.2.4-.44 1.16-.44t1.16.44q.44.4.44 1.2v3.44l-.44-.48q.84-2.32 2.72-3.48 1.92-1.2 4.4-1.2 2.319 0 3.84.84 1.56.84 2.32 2.56.76 1.68.76 4.28v10.72q0 .8-.44 1.24-.4.44-1.16.44-.8 0-1.24-.44-.4-.44-.4-1.24v-10.52q0-2.72-1.08-3.96-1.041-1.28-3.36-1.28-2.68 0-4.28 1.68-1.56 1.64-1.56 4.4v9.68q0 1.68-1.64 1.68m28.534.08q-2.6 0-4.56-1.24-1.92-1.24-3-3.48-1.04-2.28-1.04-5.36 0-3.12 1.04-5.36 1.08-2.28 3-3.48 1.96-1.24 4.56-1.24 2.64 0 4.52 1.32 1.881 1.32 2.52 3.56h-.44v-11.92q0-.8.4-1.2.44-.44 1.24-.44.76 0 1.16.44.44.4.44 1.2v25.44q0 .8-.4 1.24-.399.44-1.2.44-.759 0-1.2-.44-.4-.44-.4-1.24v-3.8l.44.56q-.64 2.28-2.56 3.64-1.88 1.36-4.52 1.36m.68-2.6q1.8 0 3.16-.88t2.08-2.56q.76-1.68.76-4.04 0-3.64-1.64-5.56-1.6-1.92-4.36-1.92-1.84 0-3.2.88-1.32.84-2.08 2.52-.72 1.64-.72 4.08 0 3.6 1.64 5.56 1.64 1.92 4.36 1.92m29.873 9.72q-.6 0-.96-.32t-.44-.88q-.04-.52.2-1.08l2.76-6.2v1.4l-7.68-17.84q-.24-.6-.16-1.12t.48-.84 1.12-.32q.64 0 1 .28t.64 1l6.56 16.08h-1.08l6.64-16.08q.32-.72.68-1t1.04-.28q.64 0 .96.32a1.2 1.2 0 0 1 .4.84q.08.48-.16 1.08l-10.24 23.68q-.32.72-.72 1-.36.28-1.04.28m24.033-7.12q-2.84 0-4.92-1.24t-3.24-3.48q-1.12-2.28-1.12-5.36 0-2.32.64-4.16.64-1.88 1.88-3.2a8.2 8.2 0 0 1 2.92-2q1.72-.72 3.84-.72 2.841 0 4.92 1.24 2.08 1.24 3.2 3.52 1.16 2.24 1.16 5.32 0 2.32-.64 4.16a9.1 9.1 0 0 1-1.88 3.2 8.5 8.5 0 0 1-2.96 2.04q-1.68.68-3.8.68m0-2.6q1.8 0 3.16-.88t2.08-2.56q.76-1.68.76-4.04 0-3.64-1.64-5.56-1.6-1.92-4.36-1.92-1.84 0-3.2.88-1.32.84-2.08 2.52-.72 1.64-.72 4.08 0 3.6 1.64 5.56 1.64 1.92 4.36 1.92m21.027 2.6q-2.36 0-3.92-.84-1.52-.88-2.32-2.6-.76-1.72-.76-4.28v-10.72q0-.84.4-1.24.44-.4 1.2-.4.8 0 1.2.4.44.4.44 1.24v10.68q0 2.56 1.04 3.84 1.08 1.24 3.36 1.24 2.48 0 4.04-1.68t1.56-4.4v-9.68q0-.84.4-1.24.44-.4 1.24-.4.76 0 1.16.4.44.4.44 1.24v16.68q0 1.68-1.56 1.68-.76 0-1.2-.44-.4-.44-.4-1.24v-3.64l.52.56q-.8 2.36-2.64 3.6-1.8 1.24-4.2 1.24m32.574-.08q-.68 0-1.2-.36t-.84-1.16l-5.96-16.2q-.24-.68-.16-1.2.12-.52.52-.8t1-.28.96.28q.4.28.64 1.04l5.6 16h-.96l5.76-16q.28-.72.68-1 .44-.32 1.12-.32.64 0 1.08.32t.68 1l5.64 16h-.92l5.68-16.08q.28-.72.68-.96.4-.28.96-.28.64 0 .96.32.36.32.4.84t-.2 1.12l-5.96 16.2q-.279.76-.84 1.16-.519.36-1.2.36t-1.2-.36q-.52-.4-.8-1.16l-5.92-16.24h1.72l-5.88 16.24q-.28.76-.8 1.16-.52.36-1.24.36m28.513-.08q-.8 0-1.2-.44-.4-.48-.4-1.32v-16.36q0-.84.4-1.28t1.2-.44q.76 0 1.2.44t.44 1.28v16.36q0 .84-.44 1.32-.399.44-1.2.44m0-24.32q-.999 0-1.56-.52-.56-.56-.56-1.48 0-.96.56-1.44.561-.52 1.56-.52 1.041 0 1.56.52.56.48.56 1.44 0 .92-.56 1.48-.519.52-1.56.52m13.617 24.48q-2.88 0-4.4-1.76t-1.52-5.04v-20.4q0-.8.4-1.2.4-.44 1.2-.44.76 0 1.2.44.44.4.44 1.2v20.16q0 2.16.84 3.24.88 1.04 2.56 1.04.36 0 .64-.04t.56-.04q.44-.04.6.2.2.24.2.96t-.32 1.08-1.04.48q-.32.04-.68.08t-.68.04m11.836 0q-2.88 0-4.4-1.76t-1.52-5.04v-20.4q0-.8.4-1.2.4-.44 1.2-.44.76 0 1.2.44.44.4.44 1.2v20.16q0 2.16.84 3.24.88 1.04 2.56 1.04.36 0 .64-.04t.56-.04q.44-.04.6.2.2.24.2.96t-.32 1.08-1.04.48q-.32.04-.68.08t-.68.04m17.868-.08q-.8 0-1.24-.44-.4-.44-.4-1.24v-16.68q0-.8.4-1.2.4-.44 1.16-.44t1.16.44q.44.4.44 1.2v3.24h-.4q.64-2.36 2.44-3.64t4.44-1.36q.6-.04.96.28.36.28.4 1 .04.68-.32 1.08t-1.12.48l-.64.08q-2.72.24-4.2 1.76-1.44 1.48-1.44 4.08v9.68q0 .8-.44 1.24-.399.44-1.2.44m21.222.08q-3.08 0-5.32-1.2a8.8 8.8 0 0 1-3.44-3.48q-1.2-2.24-1.2-5.36 0-3.04 1.2-5.28 1.2-2.28 3.28-3.56 2.12-1.28 4.88-1.28 1.96 0 3.52.68a6.94 6.94 0 0 1 2.64 1.88q1.12 1.24 1.68 3 .6 1.76.6 3.96 0 .64-.36.96-.36.28-1.04.28h-13.92v-2.12h13.16l-.64.52q0-2.16-.64-3.64-.64-1.52-1.88-2.32-1.2-.8-3.04-.8-2.04 0-3.48.96-1.4.92-2.12 2.6-.72 1.64-.72 3.84v.24q0 3.68 1.76 5.6 1.8 1.92 5.08 1.92 1.36 0 2.68-.36a9 9 0 0 0 2.64-1.2q.56-.36 1-.32.48 0 .76.28.28.24.36.64.12.36-.08.8-.16.44-.68.76-1.32.96-3.12 1.48t-3.56.52m18.649 0q-2 0-3.6-.76-1.56-.8-2.48-2.16a5.3 5.3 0 0 1-.92-3.04q0-2.16 1.08-3.4 1.12-1.24 3.64-1.76 2.56-.52 6.96-.52h1.8v2.12h-1.76q-3.24 0-5.12.32-1.84.28-2.6 1-.72.72-.72 2.04 0 1.64 1.12 2.68 1.16 1.04 3.12 1.04 1.6 0 2.8-.76a5.16 5.16 0 0 0 1.92-2.08q.72-1.32.72-3.04v-4.56q0-2.48-1-3.56-1-1.12-3.28-1.12-1.4 0-2.8.36t-2.96 1.16q-.56.28-.96.2a1.2 1.2 0 0 1-.64-.44 1.4 1.4 0 0 1-.28-.72 1.54 1.54 0 0 1 .16-.84q.24-.4.72-.64a15.8 15.8 0 0 1 3.48-1.28 14.5 14.5 0 0 1 3.28-.4q2.52 0 4.16.84 1.64.8 2.44 2.48.8 1.64.8 4.24v10.84q0 .8-.4 1.24-.36.44-1.08.44-.76 0-1.16-.44t-.4-1.24v-3.12h.36q-.32 1.52-1.24 2.6a6 6 0 0 1-2.2 1.68q-1.32.6-2.96.6m22.491 0q-2.6 0-4.56-1.24-1.92-1.24-3-3.48-1.04-2.28-1.04-5.36 0-3.12 1.04-5.36 1.08-2.28 3-3.48 1.96-1.24 4.56-1.24 2.64 0 4.52 1.32t2.52 3.56h-.44v-11.92q0-.8.4-1.2.44-.44 1.24-.44.76 0 1.16.44.44.4.44 1.2v25.44q0 .8-.4 1.24t-1.2.44q-.76 0-1.2-.44-.4-.44-.4-1.24v-3.8l.44.56q-.64 2.28-2.56 3.64-1.88 1.36-4.52 1.36m.68-2.6q1.8 0 3.16-.88t2.08-2.56q.76-1.68.76-4.04 0-3.64-1.64-5.56-1.6-1.92-4.36-1.92-1.84 0-3.2.88-1.32.84-2.08 2.52-.72 1.64-.72 4.08 0 3.6 1.64 5.56 1.64 1.92 4.36 1.92m33.353 2.6q-2.28 0-3.84-.8a5.36 5.36 0 0 1-2.28-2.4q-.76-1.6-.76-3.88v-10.2h-2.68q-.68 0-1.04-.32-.36-.36-.36-.96t.36-.92 1.04-.32h2.68v-4.6q0-.8.44-1.2.44-.44 1.2-.44t1.16.44q.44.4.44 1.2v4.6h5.04q.68 0 1.04.32t.36.92-.36.96q-.36.32-1.04.32h-5.04v9.88q0 2.28.96 3.48.96 1.16 3.12 1.16.76 0 1.28-.16.56-.16.92-.16.36-.04.6.24t.24.96q0 .48-.2.88-.16.4-.6.56-.48.16-1.28.28-.76.16-1.4.16m8.019-.08q-.801 0-1.2-.44-.4-.44-.4-1.24v-25.44q0-.8.4-1.2.399-.44 1.2-.44.759 0 1.2.44.44.4.44 1.2v11.72h-.52q.84-2.32 2.72-3.48 1.92-1.2 4.4-1.2 2.319 0 3.84.84 1.56.84 2.32 2.56.76 1.68.76 4.28v10.72q0 .8-.44 1.24-.4.44-1.16.44-.8 0-1.24-.44-.4-.44-.4-1.24v-10.52q0-2.72-1.08-3.96-1.041-1.28-3.36-1.28-2.68 0-4.28 1.68-1.56 1.64-1.56 4.4v9.68q0 1.68-1.64 1.68m22.734-.08q-.8 0-1.2-.44-.4-.48-.4-1.32v-16.36q0-.84.4-1.28t1.2-.44q.76 0 1.2.44t.44 1.28v16.36q0 .84-.44 1.32-.4.44-1.2.44m0-24.32q-1 0-1.56-.52-.56-.56-.56-1.48 0-.96.56-1.44.56-.52 1.56-.52 1.04 0 1.56.52.56.48.56 1.44 0 .92-.56 1.48-.52.52-1.56.52m14.257 24.48q-1.8 0-3.64-.44-1.8-.44-3.36-1.52-.4-.28-.56-.64a1.56 1.56 0 0 1-.12-.76q.08-.4.32-.68.28-.28.64-.32.4-.08.88.16 1.56.96 3 1.36 1.48.36 2.92.36 2.28 0 3.44-.84t1.16-2.28q0-1.12-.76-1.76-.76-.68-2.4-1.04l-3.64-.8q-2.52-.52-3.76-1.8-1.2-1.28-1.2-3.32 0-1.8.92-3.08.96-1.32 2.68-2.04t4-.72q1.76 0 3.32.48a8.1 8.1 0 0 1 2.88 1.44q.4.28.52.68.16.36.04.76a1.3 1.3 0 0 1-.36.64q-.28.24-.68.28t-.84-.24a8.9 8.9 0 0 0-2.44-1.16 7.9 7.9 0 0 0-2.44-.4q-2.24 0-3.4.88t-1.16 2.32q0 1.12.72 1.84t2.24 1.04l3.64.76q2.6.56 3.88 1.8 1.32 1.2 1.32 3.28 0 2.64-2.12 4.2t-5.64 1.56m28.93 0q-2.88 0-4.4-1.76t-1.52-5.04v-20.4q0-.8.4-1.2.4-.44 1.2-.44.76 0 1.2.44.44.4.44 1.2v20.16q0 2.16.84 3.24.88 1.04 2.56 1.04.36 0 .64-.04t.56-.04q.44-.04.6.2.2.24.2.96t-.32 1.08-1.04.48q-.32.04-.68.08t-.68.04m12.036 0q-2 0-3.6-.76-1.56-.8-2.48-2.16a5.3 5.3 0 0 1-.92-3.04q0-2.16 1.08-3.4 1.12-1.24 3.64-1.76 2.56-.52 6.96-.52h1.8v2.12h-1.76q-3.24 0-5.12.32-1.84.28-2.6 1-.72.72-.72 2.04 0 1.64 1.12 2.68 1.16 1.04 3.12 1.04 1.6 0 2.8-.76a5.16 5.16 0 0 0 1.92-2.08q.72-1.32.72-3.04v-4.56q0-2.48-1-3.56-1-1.12-3.28-1.12-1.4 0-2.8.36t-2.96 1.16q-.56.28-.96.2a1.2 1.2 0 0 1-.64-.44 1.4 1.4 0 0 1-.28-.72 1.54 1.54 0 0 1 .16-.84q.24-.4.72-.64a15.8 15.8 0 0 1 3.48-1.28 14.5 14.5 0 0 1 3.28-.4q2.52 0 4.16.84 1.64.8 2.44 2.48.8 1.64.8 4.24v10.84q0 .8-.4 1.24-.36.44-1.08.44-.76 0-1.16-.44t-.4-1.24v-3.12h.36q-.32 1.52-1.24 2.6a6 6 0 0 1-2.2 1.68q-1.32.6-2.96.6m21.651 0q-1.8 0-3.64-.44-1.8-.44-3.36-1.52-.4-.28-.56-.64a1.56 1.56 0 0 1-.12-.76q.08-.4.32-.68.28-.28.64-.32.4-.08.88.16 1.56.96 3 1.36 1.48.36 2.92.36 2.28 0 3.44-.84t1.16-2.28q0-1.12-.76-1.76-.76-.68-2.4-1.04l-3.64-.8q-2.52-.52-3.76-1.8-1.2-1.28-1.2-3.32 0-1.8.92-3.08.96-1.32 2.68-2.04t4-.72q1.76 0 3.32.48a8.1 8.1 0 0 1 2.88 1.44q.4.28.52.68.16.36.04.76-.08.36-.36.64-.28.24-.68.28t-.84-.24a8.9 8.9 0 0 0-2.44-1.16 7.9 7.9 0 0 0-2.44-.4q-2.24 0-3.4.88t-1.16 2.32q0 1.12.72 1.84t2.24 1.04l3.64.76q2.6.56 3.88 1.8 1.32 1.2 1.32 3.28 0 2.64-2.12 4.2t-5.64 1.56m20.303 0q-2.28 0-3.84-.8a5.36 5.36 0 0 1-2.28-2.4q-.76-1.6-.76-3.88v-10.2h-2.68q-.68 0-1.04-.32-.36-.36-.361-.96 0-.6.361-.92.36-.32 1.04-.32h2.68v-4.6q0-.8.44-1.2.44-.44 1.2-.44t1.16.44q.44.4.44 1.2v4.6h5.04q.68 0 1.04.32t.36.92-.36.96q-.36.32-1.04.32h-5.04v9.88q0 2.28.96 3.48.96 1.16 3.12 1.16.76 0 1.28-.16.56-.16.92-.16.36-.04.6.24t.24.96q0 .48-.2.88-.16.4-.6.56-.48.16-1.28.28-.76.16-1.4.16M307.579 810.329q-.892 0-1.41-.517-.517-.564-.517-1.504v-28.106h-10.575q-.846 0-1.316-.47t-.47-1.222q0-.8.47-1.222.47-.423 1.316-.423h25.051q.846 0 1.316.423t.47 1.222-.47 1.269q-.47.423-1.316.423h-10.575v28.106q0 .94-.517 1.504-.47.517-1.457.517m21.242 0q-.94 0-1.41-.517t-.47-1.457v-29.892q0-.94.47-1.41.47-.517 1.41-.517.893 0 1.41.517.517.47.517 1.41v13.771h-.611q.987-2.725 3.196-4.089 2.256-1.41 5.17-1.41 2.726 0 4.512.987 1.833.987 2.726 3.008.893 1.974.893 5.029v12.596q0 .94-.517 1.457-.47.517-1.363.517-.94 0-1.457-.517-.47-.517-.47-1.457v-12.361q0-3.197-1.269-4.653-1.222-1.504-3.948-1.504-3.149 0-5.029 1.974-1.833 1.927-1.833 5.17v11.374q0 1.974-1.927 1.974m35.596.094q-3.62 0-6.251-1.41-2.586-1.456-4.042-4.089-1.41-2.632-1.41-6.298 0-3.572 1.41-6.204 1.41-2.679 3.854-4.183 2.49-1.504 5.734-1.504 2.303 0 4.136.799a8.16 8.16 0 0 1 3.102 2.209q1.315 1.457 1.974 3.525.705 2.069.705 4.653 0 .752-.423 1.128-.423.329-1.222.329h-16.356v-2.491h15.463l-.752.611q0-2.538-.752-4.277-.753-1.786-2.209-2.726-1.41-.94-3.572-.94-2.397 0-4.089 1.128-1.645 1.081-2.491 3.055-.846 1.928-.846 4.512v.282q0 4.324 2.068 6.58 2.115 2.256 5.969 2.256 1.598 0 3.149-.423a10.6 10.6 0 0 0 3.102-1.41q.657-.423 1.175-.376.563 0 .893.329.329.282.423.752.14.423-.094.94-.189.517-.799.893-1.551 1.128-3.666 1.739-2.116.61-4.183.611m17.071-.094q-.939 0-1.41-.517-.47-.517-.47-1.457v-19.599q0-.94.47-1.41.47-.517 1.363-.517.894 0 1.363.517.517.47.517 1.41v4.042l-.517-.564q.987-2.725 3.196-4.089 2.257-1.41 5.17-1.41 2.727 0 4.512.987 1.833.987 2.726 3.008.894 1.974.893 5.029v12.596q0 .94-.517 1.457-.47.517-1.363.517-.94 0-1.457-.517-.47-.517-.47-1.457v-12.361q0-3.197-1.269-4.653-1.221-1.504-3.948-1.504-3.148 0-5.029 1.974-1.833 1.927-1.833 5.17v11.374q0 1.974-1.927 1.974m42.966 8.46q-.705 0-1.128-.376t-.517-1.034q-.047-.61.235-1.269l3.243-7.285v1.645l-9.024-20.962q-.281-.705-.188-1.316.094-.61.564-.987.47-.376 1.316-.376.752 0 1.175.329t.752 1.175l7.708 18.894h-1.269l7.802-18.894q.376-.846.799-1.175t1.222-.329q.753 0 1.128.376.423.377.47.987.094.564-.188 1.269l-12.032 27.824q-.375.846-.846 1.175-.423.329-1.222.329m28.71-8.366q-3.337 0-5.781-1.457-2.445-1.456-3.807-4.089-1.316-2.679-1.316-6.298 0-2.726.752-4.888.751-2.21 2.209-3.76a9.6 9.6 0 0 1 3.431-2.35q2.02-.846 4.512-.846 3.336 0 5.781 1.457 2.443 1.457 3.76 4.136 1.363 2.632 1.363 6.251 0 2.726-.752 4.888-.753 2.162-2.209 3.76a10 10 0 0 1-3.478 2.397q-1.975.8-4.465.799m0-3.055q2.115 0 3.713-1.034t2.444-3.008q.893-1.974.893-4.747 0-4.277-1.927-6.533-1.88-2.256-5.123-2.256-2.163 0-3.76 1.034-1.551.987-2.444 2.961-.846 1.928-.846 4.794 0 4.23 1.927 6.533 1.926 2.256 5.123 2.256m25.176 3.055q-2.773 0-4.606-.987-1.786-1.034-2.726-3.055-.893-2.021-.893-5.029v-12.596q0-.987.47-1.457.517-.47 1.41-.47.94 0 1.41.47.517.47.517 1.457v12.549q0 3.008 1.222 4.512 1.269 1.457 3.948 1.457 2.914 0 4.747-1.974t1.833-5.17v-11.374q0-.987.47-1.457.517-.47 1.457-.47.893 0 1.363.47.517.47.517 1.457v19.599q0 1.974-1.833 1.974-.892 0-1.41-.517-.47-.517-.47-1.457v-4.277l.611.658q-.94 2.774-3.102 4.23-2.115 1.457-4.935 1.457m39.215-.094a2.4 2.4 0 0 1-1.41-.423q-.61-.423-.987-1.363l-7.003-19.035q-.282-.8-.188-1.41.141-.611.611-.94t1.175-.329 1.128.329q.47.329.752 1.222l6.58 18.8h-1.128l6.768-18.8q.329-.846.799-1.175.517-.376 1.316-.376.751 0 1.269.376t.799 1.175l6.627 18.8h-1.081l6.674-18.894q.329-.846.799-1.128.47-.329 1.128-.329.751 0 1.128.376.423.377.47.987t-.235 1.316l-7.003 19.035q-.329.893-.987 1.363a2.4 2.4 0 0 1-1.41.423 2.4 2.4 0 0 1-1.41-.423q-.611-.47-.94-1.363l-6.956-19.082h2.021l-6.909 19.082q-.329.893-.94 1.363-.61.423-1.457.423m33.972-.094q-.939 0-1.41-.517-.47-.564-.47-1.551v-19.223q0-.987.47-1.504.471-.517 1.41-.517.894 0 1.41.517.517.517.517 1.504v19.223q0 .987-.517 1.551-.47.517-1.41.517m0-28.576q-1.175 0-1.833-.611-.658-.658-.658-1.739 0-1.128.658-1.692.659-.61 1.833-.611 1.223 0 1.833.611.658.564.658 1.692 0 1.081-.658 1.739-.61.61-1.833.611m16.47 28.764q-3.384 0-5.17-2.068t-1.786-5.922v-23.97q0-.94.47-1.41.471-.517 1.41-.517.894 0 1.41.517.517.47.517 1.41v23.688q0 2.538.987 3.807 1.034 1.222 3.008 1.222.423 0 .752-.047.33-.047.658-.047.518-.047.705.235.235.282.235 1.128t-.376 1.269-1.222.564q-.376.047-.799.094a7 7 0 0 1-.799.047m14.377 0q-3.384 0-5.17-2.068t-1.786-5.922v-23.97q0-.94.47-1.41.471-.517 1.41-.517.894 0 1.41.517.517.47.517 1.41v23.688q0 2.538.987 3.807 1.034 1.222 3.008 1.222.423 0 .752-.047.33-.047.658-.047.518-.047.705.235.235.282.235 1.128t-.376 1.269-1.222.564q-.376.047-.799.094a7 7 0 0 1-.799.047m21.936-.094q-.94 0-1.457-.517-.47-.517-.47-1.457v-19.599q0-.94.47-1.41.47-.517 1.363-.517t1.363.517q.517.47.517 1.41v3.807h-.47q.752-2.773 2.867-4.277t5.217-1.598q.705-.047 1.128.329.423.329.47 1.175.047.8-.376 1.269-.423.47-1.316.564l-.752.094q-3.197.282-4.935 2.068-1.692 1.739-1.692 4.794v11.374q0 .94-.517 1.457-.47.517-1.41.517m25.405.094q-3.618 0-6.251-1.41-2.584-1.456-4.042-4.089-1.41-2.632-1.41-6.298 0-3.572 1.41-6.204 1.41-2.679 3.854-4.183 2.491-1.504 5.734-1.504 2.303 0 4.136.799a8.16 8.16 0 0 1 3.102 2.209q1.317 1.457 1.974 3.525.705 2.069.705 4.653 0 .752-.423 1.128-.423.329-1.222.329h-16.356v-2.491h15.463l-.752.611q0-2.538-.752-4.277-.751-1.786-2.209-2.726-1.41-.94-3.572-.94-2.397 0-4.089 1.128-1.644 1.081-2.491 3.055-.846 1.928-.846 4.512v.282q0 4.324 2.068 6.58 2.115 2.256 5.969 2.256 1.599 0 3.149-.423 1.599-.423 3.102-1.41.659-.423 1.175-.376.564 0 .893.329.33.282.423.752.141.423-.094.94-.187.517-.799.893-1.551 1.128-3.666 1.739-2.115.61-4.183.611m22.383 0q-2.35 0-4.23-.893-1.833-.94-2.914-2.538t-1.081-3.572q0-2.538 1.269-3.995 1.316-1.457 4.277-2.068 3.008-.61 8.178-.611h2.115v2.491h-2.068q-3.807 0-6.016.376-2.162.329-3.055 1.175-.846.846-.846 2.397 0 1.927 1.316 3.149 1.364 1.222 3.666 1.222 1.88 0 3.29-.893a6.07 6.07 0 0 0 2.256-2.444q.846-1.551.846-3.572v-5.358q0-2.914-1.175-4.183-1.175-1.316-3.854-1.316-1.645 0-3.29.423t-3.478 1.363q-.659.329-1.128.235a1.42 1.42 0 0 1-.752-.517 1.66 1.66 0 0 1-.329-.846 1.8 1.8 0 0 1 .188-.987q.282-.47.846-.752 2.068-1.034 4.089-1.504 2.02-.47 3.854-.47 2.96 0 4.888.987 1.927.94 2.867 2.914.94 1.927.94 4.982v12.737q0 .94-.47 1.457-.423.517-1.269.517-.893 0-1.363-.517t-.47-1.457v-3.666h.423q-.376 1.786-1.457 3.055a7 7 0 0 1-2.585 1.974q-1.55.705-3.478.705m26.897 0q-3.056 0-5.358-1.457-2.256-1.456-3.525-4.089-1.222-2.679-1.222-6.298 0-3.666 1.222-6.298 1.269-2.679 3.525-4.089 2.303-1.457 5.358-1.457 3.102 0 5.311 1.551t2.961 4.183h-.517v-14.006q0-.94.47-1.41.516-.517 1.457-.517.892 0 1.363.517.517.47.517 1.41v29.892q0 .94-.47 1.457-.471.517-1.41.517-.894 0-1.41-.517-.47-.517-.47-1.457v-4.465l.517.658q-.752 2.68-3.008 4.277-2.21 1.598-5.311 1.598m.799-3.055q2.115 0 3.713-1.034t2.444-3.008q.893-1.974.893-4.747 0-4.277-1.927-6.533-1.88-2.256-5.123-2.256-2.163 0-3.76 1.034-1.551.987-2.444 2.961-.846 1.928-.846 4.794 0 4.23 1.927 6.533 1.926 2.256 5.123 2.256m40.129 3.055q-2.679 0-4.512-.94a6.3 6.3 0 0 1-2.679-2.82q-.893-1.88-.893-4.559v-11.985h-3.149q-.799 0-1.222-.376-.423-.423-.423-1.128t.423-1.081 1.222-.376h3.149v-5.405q0-.94.517-1.41.517-.517 1.41-.517.894 0 1.363.517.517.47.517 1.41v5.405h5.922q.8 0 1.222.376.423.376.423 1.081t-.423 1.128q-.423.376-1.222.376h-5.922v11.609q0 2.679 1.128 4.089 1.128 1.363 3.666 1.363.894 0 1.504-.188.658-.188 1.081-.188a.77.77 0 0 1 .705.282q.282.329.282 1.128 0 .564-.235 1.034-.187.47-.705.658-.564.188-1.504.329a8 8 0 0 1-1.645.188m9.892-.094q-.939 0-1.41-.517-.47-.517-.47-1.457v-29.892q0-.94.47-1.41.471-.517 1.41-.517.894 0 1.41.517.517.47.517 1.41v13.771h-.611q.988-2.725 3.196-4.089 2.256-1.41 5.17-1.41 2.727 0 4.512.987 1.833.987 2.726 3.008.893 1.974.893 5.029v12.596q0 .94-.517 1.457-.47.517-1.363.517-.94 0-1.457-.517-.47-.517-.47-1.457v-12.361q0-3.197-1.269-4.653-1.221-1.504-3.948-1.504-3.148 0-5.029 1.974-1.833 1.927-1.833 5.17v11.374q0 1.974-1.927 1.974m27.183-.094q-.939 0-1.41-.517-.47-.564-.47-1.551v-19.223q0-.987.47-1.504.471-.517 1.41-.517.894 0 1.41.517.517.517.517 1.504v19.223q0 .987-.517 1.551-.47.517-1.41.517m0-28.576q-1.175 0-1.833-.611-.658-.658-.658-1.739 0-1.128.658-1.692.658-.61 1.833-.611 1.223 0 1.833.611.658.564.658 1.692 0 1.081-.658 1.739-.61.61-1.833.611m17.222 28.764q-2.115 0-4.277-.517a11.8 11.8 0 0 1-3.948-1.786q-.47-.329-.658-.752a1.85 1.85 0 0 1-.141-.893q.094-.47.376-.799.329-.329.752-.376.47-.094 1.034.188 1.833 1.128 3.525 1.598 1.739.423 3.431.423 2.679 0 4.042-.987t1.363-2.679q0-1.316-.893-2.068-.892-.8-2.82-1.222l-4.277-.94q-2.961-.61-4.418-2.115-1.41-1.504-1.41-3.901 0-2.115 1.081-3.619 1.128-1.551 3.149-2.397t4.7-.846q2.068 0 3.901.564a9.6 9.6 0 0 1 3.384 1.692q.47.329.611.799.188.423.047.893a1.5 1.5 0 0 1-.423.752 1.4 1.4 0 0 1-.799.329q-.47.046-.987-.282-1.41-.94-2.867-1.363a9.3 9.3 0 0 0-2.867-.47q-2.632 0-3.995 1.034t-1.363 2.726q0 1.316.846 2.162t2.632 1.222l4.277.893q3.055.659 4.559 2.115 1.551 1.41 1.551 3.854 0 3.102-2.491 4.935t-6.627 1.833M217.283 492.6q5.28 0 8.64 3.48 3.36 3.36 3.36 8.64 0 .72-.24 2.64-.96 5.76-4.56 8.52-3.48 2.76-8.16 2.76-3.12 0-5.28-.96t-4.08-3.24l-19.8 25.8-5.52 18.6q-.24.72-.24 1.92 0 1.68.84 2.88.84 1.08 2.4 2.4 1.32 1.2 1.92 2.04t.24 1.92q-.48 1.68-2.4 2.4-1.8.6-5.04.6h-30.24q-3.12 0-4.68-1.08-1.44-1.2-.96-3.24.24-1.08.84-1.68.72-.72 2.16-1.68 1.8-1.08 3-2.4 1.2-1.44 2.04-4.08l5.52-18.72-11.04-31.44q-1.2-3.48-2.88-5.28-1.56-1.92-3.72-3.72-1.32-.96-1.92-1.68t-.6-1.68q0-1.44 1.2-2.28 1.32-.96 3.72-.96h32.04q4.2 0 5.76.72t1.68 2.52q0 1.08-.48 1.92-.48.72-1.44 1.8-1.08 1.44-1.68 2.4-.48.84-.48 2.16 0 .36.24 1.56l5.52 21.12 15.24-21.72q4.92-6.96 9.24-9.96 4.44-3 9.84-3m45.368 16.92q16.32 0 24 6.6 7.8 6.6 7.8 17.28 0 3.6-.96 8.04-2.28 9.84-8.52 17.28-6.24 7.32-15.36 11.4-9 3.96-19.56 3.96-16.68 0-24.72-6.6-7.92-6.72-7.92-17.76 0-3.72.96-8.28 2.28-9.36 8.64-16.56 6.48-7.32 15.72-11.28 9.36-4.08 19.92-4.08m-.36 10.68q-2.52 0-5.4 4.56-2.76 4.44-6.6 16.92t-3.84 17.52q0 2.64.84 3.6.84.84 2.28.84 2.52.24 5.16-4.32 2.76-4.56 6.84-17.76 3.72-11.64 3.72-16.92 0-2.52-.84-3.48-.72-.96-2.16-.96m103.95 36.24q-.24.96-.24 1.44 0 .84.36 1.32.48.48 1.2.48 1.44 0 2.4-1.2 1.08-1.32 1.44-1.32.6 0 .96.84.48.72.48 1.8.12 3.36-2.4 6.72-2.52 3.24-7.08 5.4t-10.2 2.16q-7.08 0-11.28-2.88t-5.4-7.56q-4.32 4.8-9.6 7.32-5.16 2.4-10.56 2.4-8.4 0-14.16-4.08-5.64-4.2-5.64-11.64 0-3.36 1.2-6.96l7.68-25.08q.36-1.08.36-1.8 0-1.32-.6-2.04-.6-.84-1.8-1.68-1.2-.96-1.68-1.68t-.12-1.92q.72-2.76 7.56-4.8 6.84-2.16 14.28-2.16 6.96 0 10.2 2.64t3.24 7.2q0 2.76-.84 5.28l-7.56 24.96q-.48 1.32-.48 2.52 0 1.68.96 2.52t2.52.84q2.28 0 3.72-1.32t2.88-4.44l7.32-24.12q.36-1.08.36-1.8 0-1.32-.6-2.04-.6-.84-1.68-1.68-1.2-.96-1.68-1.68t-.12-1.92q.6-2.76 7.44-4.8 6.84-2.16 14.28-2.16 6.96 0 10.2 2.64 3.36 2.64 3.36 7.08 0 2.28-.96 5.4zm147.689-29.88q0 10.68-7.44 21.84t-18.84 18.48q-11.28 7.2-22.2 7.2-8.64 0-14.64-3t-7.8-8.64q-4.44 5.4-9.84 8.16t-11.28 2.76q-8.16 0-13.32-3.96-5.04-4.08-5.04-11.88 0-4.08 1.32-8.4l6.72-23.52q.24-.96.24-1.44 0-1.2-.6-2.04t-1.68-1.8q-1.8-1.56-1.8-2.76-.12-1.68 2.04-3.6t6-3.12q3.96-1.32 8.88-1.32 8.04 0 12.48 3.96 4.56 3.84 4.56 10.08 0 2.76-.96 6l-6.12 20.4q-.48 1.68-.48 2.28 0 1.56.84 2.4.96.84 2.52.84 2.16 0 3.6-1.44 1.56-1.56 3-4.92l6.84-23.52q.24-.96.24-1.44 0-1.2-.6-2.04t-1.68-1.8q-1.8-1.56-1.8-2.76-.12-1.68 2.04-3.6t6-3.12q3.96-1.32 8.88-1.32 8.16 0 12.6 3.84t4.44 10.2q0 2.52-.96 6l-7.8 25.68q-.24.6-.24 1.8 0 1.56 1.08 2.4t3 .84q2.64 0 6.12-2.28 3.6-2.4 6.96-6.72 3.48-4.44 5.64-10.44-4.8-4.2-6.84-8.28-1.92-4.08-1.92-8.4 0-6.12 3.36-10.32 3.36-4.32 9.72-4.32t10.56 4.56 4.2 12.48m30.091-17.04q6.96 0 10.2 2.64t3.24 7.2q0 2.76-.84 5.28l-11.04 35.88q-.36 1.44-.36 2.52 0 1.56.6 2.52.6.84 1.68 1.68.84.84 1.2 1.44.36.48.12 1.32-.6 1.56-2.4 2.28t-5.52.72h-27.36q-3.12 0-4.56-.96-1.44-1.08-.96-2.76.48-1.44 2.52-2.52 1.8-.96 3-2.28t2.04-4.2l10.44-34.68q.36-1.08.36-1.8 0-1.32-.6-2.04-.6-.84-1.8-1.68-1.2-.96-1.68-1.68t-.12-1.92q.72-2.76 7.56-4.8 6.84-2.16 14.28-2.16m8.04-26.52q4.68 0 7.8 3.12 3.12 3 3.12 7.44 0 3.12-1.68 6.12-1.56 3-4.56 4.92-2.88 1.8-6.48 1.8-4.56 0-7.68-3-3-3.12-3.12-7.68 0-3 1.56-5.88 1.56-3 4.44-4.92t6.6-1.92m42.625 1.32q6.96 0 10.2 2.64 3.36 2.64 3.36 7.2 0 2.64-.84 5.16l-18.84 61.2q-.36 1.44-.36 2.52 0 1.56.6 2.52.6.84 1.68 1.68.84.84 1.2 1.44.36.48.12 1.32-.6 1.56-2.4 2.28t-5.52.72h-27.36q-3.12 0-4.56-.96-1.44-1.08-.96-2.76.48-1.44 2.52-2.52 1.8-.96 3-2.28t2.04-4.2l18.24-59.88q.36-1.08.36-1.8 0-1.32-.72-2.16-.6-.84-1.68-1.68-1.2-.96-1.8-1.68-.48-.72-.12-1.92.72-2.76 7.56-4.8t14.28-2.04m43.946 0q6.96 0 10.2 2.64 3.36 2.64 3.36 7.2 0 2.64-.84 5.16l-18.84 61.2q-.36 1.44-.36 2.52 0 1.56.6 2.52.6.84 1.68 1.68.84.84 1.2 1.44.36.48.12 1.32-.6 1.56-2.4 2.28t-5.52.72h-27.36q-3.12 0-4.56-.96-1.44-1.08-.96-2.76.48-1.44 2.52-2.52 1.8-.96 3-2.28t2.04-4.2l18.24-59.88q.36-1.08.36-1.8 0-1.32-.72-2.16-.6-.84-1.68-1.68-1.2-.96-1.8-1.68-.48-.72-.12-1.92.72-2.76 7.56-4.8t14.28-2.04m88.608 25.2q6.72 0 10.68 4.08 4.08 4.08 4.08 10.08 0 2.28-.48 4.2-1.2 4.92-4.56 7.56t-8.04 2.64q-4.56 0-6.96-2.16-2.28-2.16-4.08-5.76-.96-2.04-1.8-3t-1.92-.96q-1.2 0-2.16.96-.84.96-1.56 3.36l-9.24 30q-.24.6-.24 1.8 0 1.56.84 2.64.96.96 2.52 1.92 1.44.96 1.92 1.56t.36 1.56q-.24 1.56-1.8 2.28-1.44.72-5.04.72h-30.72q-3.12 0-4.44-.96-1.44-1.08-1.08-2.76.48-1.44 2.52-2.52 1.8-.96 3-2.28t2.04-4.2l10.68-34.68q.24-.6.24-1.68 0-1.32-.6-2.04-.48-.72-1.68-1.8-1.2-.96-1.68-1.68t-.12-1.92q.72-2.76 7.56-4.8 6.84-2.16 14.28-2.16 4.92 0 8.16 2.28 3.24 2.16 4.2 6.24 5.76-8.52 15.12-8.52m51.253-.6q15.24 0 22.08 4.92 6.84 4.8 6.84 12.36 0 2.28-.48 4.2-1.8 7.92-10.08 11.4-8.16 3.36-19.32 3.36-5.64 0-10.56-.72-.12 6.24 3.36 8.76t9.72 2.52q2.88 0 5.52-.6 2.64-.72 6.72-2.04 3.36-1.2 4.56-1.2 1.32 0 1.32 1.56.12 4.2-3.12 8.88-3.24 4.56-9.6 7.8t-15.36 3.24q-13.32 0-21.84-6.72t-8.52-19.56q0-3.6.96-8.4 3-14.76 13.08-22.2 10.2-7.56 24.72-7.56m-10.681 28.32q.481.12 1.321.12 5.04 0 7.68-4.68t2.52-10.44q-.12-3.36-1.92-3.36-1.32 0-3.12 2.16-1.8 2.04-3.6 6.24-1.68 4.2-2.881 9.96m79.989-27.72q13.8 0 22.08 5.16 8.28 5.04 8.28 15.48 0 3.96-1.44 9l-4.92 16.56q-.12.48-.12 1.2 0 1.92 1.56 1.92 1.44 0 2.4-1.2 1.08-1.32 1.44-1.32.6 0 .96.84.48.84.48 1.92.12 3.24-2.52 6.6-2.52 3.36-6.84 5.52t-9.48 2.16q-6.24 0-10.68-2.28t-6.12-6.72q-3.6 4.32-8.52 6.72-4.92 2.28-10.56 2.28-6.36 0-10.68-2.4-4.32-2.52-6.48-6.36-2.04-3.96-2.04-8.28 0-1.92.36-3.72 1.92-8.28 8.28-12.48 6.48-4.2 15.36-4.2 9.96 0 19.56 3.12l3-7.92q1.56-5.04 1.56-7.8-.12-2.88-1.92-4.32t-5.52-1.44q.72 1.92.72 3.96 0 4.44-3.36 7.68t-9.6 3.24q-5.88 0-9.24-2.52-3.24-2.64-3.24-6.48 0-6 6.72-9.96t20.52-3.96m-6.72 36.36q-3.36 0-5.52 2.64-2.04 2.52-2.04 5.52 0 1.92.84 3.12.96 1.2 2.64 1.2 1.56 0 3.36-1.2 1.92-1.32 2.76-3.84l2.52-7.08q-2.04-.36-4.56-.36m105.843 9.84q-.24.96-.24 1.32 0 .84.48 1.32t1.2.48q1.44 0 2.4-1.2 1.08-1.32 1.44-1.32.6 0 .96.84t.36 1.92q.12 3.24-2.52 6.6-2.52 3.36-6.84 5.52t-9.36 2.16q-6 0-10.44-2.28t-6.12-6q-3.24 4.2-7.44 6.24t-8.88 2.04q-5.52 0-10.32-2.76-4.68-2.76-7.56-7.8-2.76-5.16-2.76-11.64 0-10.92 4.08-20.52 4.2-9.72 11.64-15.6 7.44-6 16.92-6 5.16 0 8.76 1.2 3.72 1.2 6.72 3.6l4.08-13.44q.36-1.08.36-1.8 0-1.32-.72-2.16-.6-.84-1.68-1.68-1.2-.96-1.8-1.68-.48-.72-.12-1.92.72-2.76 7.56-4.8t14.28-2.04q6.96 0 10.2 2.64 3.36 2.64 3.36 7.2 0 2.64-.84 5.16zM926.884 522q-1.92-1.68-4.2-1.68-3.48 0-6.84 5.16t-5.4 12.48-1.92 13.2q0 6.6 4.32 6.6 1.56 0 2.64-1.2 1.08-1.32 2.04-4.2zM315.085 643.08q2.28 0 3.48.96 1.32.96 1.32 2.64 0 .48-.24 1.68-1.56 5.28-7.2 5.28h-6.96l-9 29.64q-.6 1.8-.6 3.72 0 2.16 1.2 3t3.36.84q1.92 0 4.8-.48 1.44-.36 2.52-.36.84 0 1.2.6.48.48.48 1.32.12 2.4-3.6 5.88-3.6 3.36-9.84 5.88-6.24 2.4-13.8 2.4-8.16 0-13.08-3.72t-4.92-10.2q0-3 .96-5.76l7.68-23.76q.6-2.04.6-3.24 0-2.4-1.2-4.08-1.08-1.68-3.12-3.48-1.8-1.68-2.52-2.76-.72-1.2-.36-2.76.48-1.56 2.04-2.4t4.92-.84h6.72l7.56-7.56q3.96-3.96 7.2-5.52 3.36-1.56 8.64-1.56 7.56 0 7.56 5.76 0 1.8-.48 3.36l-1.68 5.52zm71.483 45.36q-.24.48-.24 1.44 0 .84.36 1.32.48.48 1.2.48 1.44 0 2.4-1.2 1.08-1.32 1.44-1.32.6 0 .96.84.36.72.36 1.8.12 3.48-2.28 6.84-2.4 3.24-7.08 5.4-4.56 2.04-11.04 2.04-7.92 0-12.6-3.6-4.68-3.72-4.8-9.84 0-4.44 2.16-9.96l6.6-17.28q.6-1.56.6-2.52 0-1.56-1.08-2.4-.96-.96-2.4-.96-2.28 0-4.68 2.16-2.28 2.04-3.72 6.72v-.24l-7.56 24.36q-.36 1.44-.36 2.52 0 1.56.6 2.52.6.84 1.68 1.68.84.84 1.2 1.44.36.48.12 1.32-.6 1.56-2.4 2.28t-5.52.72h-27.36q-3.12 0-4.56-.96-1.44-1.08-.96-2.76.48-1.44 2.52-2.52 1.8-.96 3-2.28t2.04-4.2l18.24-59.88q.36-1.08.36-1.8 0-1.32-.72-2.16-.6-.84-1.68-1.68-1.2-.96-1.8-1.68-.48-.72-.12-1.92.72-2.76 7.56-4.8t14.28-2.04q6.96 0 10.2 2.64 3.36 2.64 3.36 7.2 0 2.64-.84 5.16l-6.48 21.12q4.68-6.12 9.84-8.52 5.28-2.4 11.4-2.4 7.32 0 11.76 4.44 4.56 4.44 4.56 11.52 0 3.72-1.2 7.32zm43.195-46.92q6.96 0 10.2 2.64t3.24 7.2q0 2.76-.84 5.28l-11.04 35.88q-.36 1.44-.36 2.52 0 1.56.6 2.52.6.84 1.68 1.68.84.84 1.2 1.44.36.48.12 1.32-.6 1.56-2.4 2.28t-5.52.72h-27.36q-3.12 0-4.56-.96-1.44-1.08-.96-2.76.48-1.44 2.52-2.52 1.8-.96 3-2.28t2.04-4.2l10.44-34.68q.36-1.08.36-1.8 0-1.32-.6-2.04-.6-.84-1.8-1.68-1.2-.96-1.68-1.68t-.12-1.92q.72-2.76 7.56-4.8 6.84-2.16 14.28-2.16m8.04-26.52q4.68 0 7.8 3.12 3.12 3 3.12 7.44 0 3.12-1.68 6.12-1.56 3-4.56 4.92-2.88 1.8-6.48 1.8-4.56 0-7.68-3-3-3.12-3.12-7.68 0-3 1.56-5.88 1.56-3 4.44-4.92t6.6-1.92m43.825 25.44q9.96 0 17.16 1.8 7.32 1.8 11.16 5.04 3.96 3.24 3.96 7.32 0 4.2-3.36 6.84-3.24 2.64-9.12 2.64-6 0-10.2-3-4.08-3-4.08-7.56 0-1.56.48-3-2.16-.6-3.84-.6-3 0-5.04 1.44-1.92 1.44-1.8 4.08 0 3.12 3.12 5.28t10.08 5.4q6 2.64 9.84 4.92 3.96 2.16 6.6 5.52 2.76 3.36 2.76 7.92 0 .96-.48 3.6-1.92 8.04-10.68 12.72t-23.04 4.68q-16.08 0-25.56-4.32-9.36-4.32-9.36-11.88 0-5.16 3.12-7.8t8.28-2.64q6 0 10.2 3.72 4.32 3.72 4.32 9.48 0 1.56-.36 3.24 2.88.72 5.52.72 3.12 0 5.16-1.68t2.04-4.68q-.12-2.76-2.76-4.68-2.64-2.04-8.4-4.8-5.4-2.52-8.88-4.68-3.48-2.28-6-5.64-2.4-3.36-2.4-7.92 0-9.84 8.16-15.6 8.28-5.88 23.4-5.88m108.117-13.56q-6.6 0-8.64 6.84-.48 1.44-.48 3.24 0 2.64 1.08 4.44 1.08 1.68 3.12 1.68h25.92q15.84 0 15.84 10.08 0 2.52-.84 5.04l-10.56 34.32q-.36 1.44-.36 2.52 0 1.56.6 2.52.6.84 1.68 1.68.84.84 1.2 1.44.36.48.12 1.32-.6 1.56-2.4 2.28t-5.52.72h-27.36q-3.12 0-4.56-.96-1.44-1.08-.96-2.76.48-1.44 2.52-2.52 1.8-.96 3-2.28t2.04-4.2l11.64-38.64h-15.48l-11.88 38.88q-.36 1.44-.36 2.52 0 1.56.6 2.52.6.84 1.68 1.68.84.84 1.2 1.44.36.48.12 1.32-.6 1.56-2.4 2.28t-5.52.72h-27.36q-3.12 0-4.56-.96-1.44-1.08-.96-2.76.48-1.44 2.52-2.52 1.8-.96 3-2.28t2.04-4.2l9.36-30.72q.6-1.8.6-3.72 0-2.4-1.08-3.72-.96-1.44-3-3.12-1.32-1.08-2.04-1.8-.6-.84-.6-1.92-.12-2.28 1.56-3.24 1.8-.96 6.72-.96h3.12q-.6-2.28-.6-5.52 0-3.6.96-6.72 4.8-14.52 28.44-14.52 7.2 0 13.92 2.16 6.72 2.04 14.28 6.48 1.56-4.8 5.16-7.56t7.92-2.76q5.4 0 8.4 3.36 3 3.24 3 7.8 0 1.8-.6 3.84-1.44 4.56-5.04 7.08-3.48 2.52-8.4 2.52-3.24 0-6.6-1.44-3.36-1.56-8.76-4.56-5.4-3.12-9.12-4.68-3.72-1.68-7.32-1.68m95.542 14.64q6.72 0 10.68 4.08 4.08 4.08 4.08 10.08 0 2.28-.48 4.2-1.2 4.92-4.56 7.56t-8.04 2.64q-4.56 0-6.96-2.16-2.28-2.16-4.08-5.76-.96-2.04-1.8-3t-1.92-.96q-1.2 0-2.16.96-.84.96-1.56 3.36l-9.24 30q-.24.6-.24 1.8 0 1.56.84 2.64.96.96 2.52 1.92 1.44.96 1.92 1.56t.36 1.56q-.24 1.56-1.8 2.28-1.44.72-5.04.72h-30.72q-3.12 0-4.44-.96-1.44-1.08-1.08-2.76.48-1.44 2.52-2.52 1.8-.96 3-2.28t2.04-4.2l10.68-34.68q.24-.6.24-1.68 0-1.32-.6-2.04-.48-.72-1.68-1.8-1.2-.96-1.68-1.68t-.12-1.92q.72-2.76 7.56-4.8 6.84-2.16 14.28-2.16 4.92 0 8.16 2.28 3.24 2.16 4.2 6.24 5.76-8.52 15.12-8.52m50.052-1.08q9.96 0 17.16 1.8 7.32 1.8 11.16 5.04 3.96 3.24 3.96 7.32 0 4.2-3.36 6.84-3.24 2.64-9.12 2.64-6 0-10.2-3-4.08-3-4.08-7.56 0-1.56.48-3-2.16-.6-3.84-.6-3 0-5.04 1.44-1.92 1.44-1.8 4.08 0 3.12 3.12 5.28t10.08 5.4q6 2.64 9.84 4.92 3.96 2.16 6.6 5.52 2.76 3.36 2.76 7.92 0 .96-.48 3.6-1.92 8.04-10.68 12.72t-23.04 4.68q-16.08 0-25.56-4.32-9.36-4.32-9.36-11.88 0-5.16 3.12-7.8t8.28-2.64q6 0 10.2 3.72 4.32 3.72 4.32 9.48 0 1.56-.36 3.24 2.88.72 5.52.72 3.12 0 5.16-1.68t2.04-4.68q-.12-2.76-2.76-4.68-2.64-2.04-8.4-4.8-5.4-2.52-8.88-4.68-3.48-2.28-6-5.64-2.4-3.36-2.4-7.92 0-9.84 8.16-15.6 8.28-5.88 23.4-5.88m85.293 2.64q2.28 0 3.48.96 1.32.96 1.32 2.64 0 .48-.24 1.68-1.56 5.28-7.2 5.28h-6.96l-9 29.64q-.6 1.8-.6 3.72 0 2.16 1.2 3t3.36.84q1.92 0 4.8-.48 1.44-.36 2.52-.36.84 0 1.2.6.48.48.48 1.32.12 2.4-3.6 5.88-3.6 3.36-9.84 5.88-6.24 2.4-13.8 2.4-8.16 0-13.08-3.72t-4.92-10.2q0-3 .96-5.76l7.68-23.76q.6-2.04.6-3.24 0-2.4-1.2-4.08-1.08-1.68-3.12-3.48-1.8-1.68-2.52-2.76-.72-1.2-.36-2.76.48-1.56 2.04-2.4t4.92-.84h6.72l7.56-7.56q3.96-3.96 7.2-5.52 3.36-1.56 8.64-1.56 7.56 0 7.56 5.76 0 1.8-.48 3.36l-1.68 5.52z"/></g></g><defs><clipPath id="a"><path fill="#fff" d="M0 0h1080v1350H0z"/></clipPath><clipPath id="b"><path fill="#fff" d="M0 0h1080v1350H0z"/></clipPath></defs></svg>