<svg xmlns="http://www.w3.org/2000/svg" width="1080" height="1350" fill="none"><path fill="#000" d="M291.766 435.84h-10.68a94 94 0 0 0-1.16 2.92q-.48 1.24-.8 2.16a15 15 0 0 0-.4 1.56q-.12.64-.12 1.04 0 1.12.72 1.56.72.4 2.4.4V447h-9.72v-1.52a9.4 9.4 0 0 0 1.56-.32 3.6 3.6 0 0 0 1.16-.56q.52-.36.88-.92.4-.6.76-1.44l10.4-26.04h1.72l9.08 22.56q.92 2.24 1.6 3.6.68 1.32 1.32 2t1.36.88q.76.2 1.8.2V447h-13.04v-1.56q2.12 0 2.92-.4t.8-1.32q0-.4-.04-.72a4.4 4.4 0 0 0-.16-.76 4.7 4.7 0 0 0-.28-.88 14 14 0 0 0-.44-1.2zm-9.88-2h9.12l-4.44-11.8zm29.899 6.88q0 1.64.08 2.6.08.92.4 1.44.36.48 1 .64.68.16 1.84.24V447h-10.48v-1.36q1.12-.08 1.76-.24.68-.16 1.04-.64t.44-1.36q.12-.88.12-2.4v-5.32q0-4.76-.24-5.8a2.8 2.8 0 0 0-.32-.84 1 1 0 0 0-.52-.52q-.36-.2-.92-.24-.561-.08-1.44-.08v-1.28l6.4-1.52.48 3.96h.16q1.52-1.88 3.56-2.92t4.44-1.04q1.839 0 3.36.6t2.32 1.64q.68.92.96 2.4.28 1.44.28 4v6.68q0 1.64.08 2.6.12.92.44 1.44.32.48.96.64.68.16 1.76.24V447h-10.36v-1.36q1.12-.04 1.76-.2.68-.2 1-.68.36-.48.44-1.36.12-.92.12-2.4v-5.28q0-2.28-.24-3.84t-.8-2.52q-.52-.96-1.4-1.36-.88-.44-2.12-.44-1.8 0-3.32.96-1.48.92-2.32 2.56-.201.4-.36.76-.12.36-.2.84t-.12 1.12q-.04.6-.04 1.56zm38.298 2.92h-.16q-1.44 2.04-3.08 2.92-1.6.84-3.8.84-2.28 0-4.2-.8a10.5 10.5 0 0 1-3.28-2.28q-1.36-1.48-2.16-3.52-.76-2.04-.76-4.44 0-2.36.76-4.36.8-2.04 2.16-3.48a9.6 9.6 0 0 1 3.32-2.28q1.92-.84 4.16-.84 1.92 0 3.4.64 1.52.64 2.92 2.04V424q0-2.28-.08-3.8-.04-1.52-.16-2.08-.2-.88-1.12-1.24t-3-.36v-1.2l8.2-1.52v23.08q0 2.76.04 4.56.039 1.76.24 2.52.12.48.28.8.2.32.52.52.36.16.92.24.6.08 1.52.08v1.36l-6.64.44zm-.8-8.84q0-2.08-.24-3.16a4.2 4.2 0 0 0-.84-1.88q-.92-1.2-2.36-1.8-1.4-.64-2.8-.64-2.88 0-4.4 2.4-1.48 2.36-1.48 6.44 0 2.12.36 3.84.4 1.72 1.12 2.96.76 1.2 1.84 1.88 1.12.64 2.56.64a6.6 6.6 0 0 0 1.44-.16 6.6 6.6 0 0 0 1.44-.48q.72-.36 1.32-.8.6-.48 1-1.08.56-.88.8-2.12t.24-3.4zm29.945 18.48q-1.84 4.12-5.72 4.12-2.52 0-2.52-1.88 0-1 .68-1.48.72-.44 2.6-.76a6.3 6.3 0 0 0 1.44-.36q.6-.2 1.08-.56.48-.32.84-.84.4-.52.76-1.28l1.4-2.8-7.68-16.68q-.52-1.12-.92-1.76-.36-.68-.8-1.04a1.88 1.88 0 0 0-.92-.52 7 7 0 0 0-1.32-.24v-1.4h10.6v1.4q-2.68 0-2.68 1.32 0 .52.32 1.64a21 21 0 0 0 .8 2.28l4.4 10.64h.2l3.64-9q.52-1.32.84-2.16.36-.84.52-1.36.201-.56.24-.92.08-.36.08-.68 0-1.04-.6-1.4-.56-.36-2.2-.36v-1.4h8.8v1.4q-.76 0-1.28.2-.519.2-1.08.92-.519.68-1.2 2-.64 1.32-1.6 3.56zm26.448-27.88q2.28 0 4.32.84 2.04.8 3.56 2.24a10.2 10.2 0 0 1 2.44 3.44q.92 1.96.92 4.32 0 2.44-.92 4.48a10.6 10.6 0 0 1-2.44 3.52q-1.52 1.48-3.56 2.32t-4.32.84q-2.24 0-4.28-.8a11.2 11.2 0 0 1-3.52-2.32 10.8 10.8 0 0 1-2.4-3.52q-.88-2.08-.88-4.52 0-2.36.88-4.36a10.5 10.5 0 0 1 2.4-3.44 11 11 0 0 1 3.52-2.24q2.04-.8 4.28-.8m0 1.92q-1.48 0-2.72.64-1.2.64-2.08 1.84-.84 1.16-1.32 2.84-.44 1.64-.44 3.64 0 2.08.44 3.76.48 1.68 1.32 2.88a6.35 6.35 0 0 0 2.08 1.8q1.2.64 2.72.64t2.76-.64a6.1 6.1 0 0 0 2.12-1.84q.88-1.2 1.36-2.88t.48-3.72q0-2-.48-3.64t-1.36-2.8a6.1 6.1 0 0 0-2.12-1.84q-1.24-.68-2.76-.68m31.692 4.88q0-1.64-.08-2.56-.08-.96-.44-1.44-.32-.52-1-.68-.64-.2-1.8-.32v-1.4h7.24v12.28q0 2.28.04 3.72.08 1.44.2 2.16.08.52.24.84.2.28.56.48.36.16.92.24.6.04 1.52.04v1.4l-6.6.48-.44-4.8h-.16q-1.52 2.48-3.52 3.64-1.96 1.12-4.12 1.12a8.8 8.8 0 0 1-3.28-.64q-1.56-.64-2.36-1.72-.68-.88-1-2.44-.28-1.56-.28-4.04v-6.36q0-1.64-.08-2.56-.08-.96-.44-1.44-.32-.52-1-.68-.64-.2-1.8-.32v-1.4h7.24v10.92q0 4.36 1 6.32 1.04 1.96 3.28 1.96 3.52 0 5.48-4.6a9 9 0 0 0 .32-.88q.12-.4.2-.88t.12-1.08.04-1.44zm29.748 15.2h-1.48l-5.2-16.64q-.36-1.12-.68-1.8t-.76-1.08a2.13 2.13 0 0 0-1.04-.52q-.6-.16-1.48-.16v-1.4h10.6v1.4q-1.56 0-2.2.36t-.64 1.24q0 .4.12.96.12.52.32 1.32l2.72 9.56h.16l5.88-14.84h1.24l5.32 14.84h.16l2.4-6.48.8-2.2q.32-.92.48-1.52.2-.64.28-1.04t.08-.76q0-.88-.52-1.16t-2.16-.28v-1.4h8v1.4a2.5 2.5 0 0 0-1.04.2q-.4.16-.84.68-.4.52-.84 1.48t-1.08 2.52l-6.2 15.32h-1.48l-4.88-14.76h-.16zm32.063-6.76q0 1.56.12 2.52.16.92.56 1.48.4.52 1.12.72t1.92.24v1.4h-11.48v-1.4q1.2-.04 1.96-.24.76-.24 1.16-.72.44-.52.56-1.4.16-.92.16-2.32v-5.12a74 74 0 0 0-.08-3.8q-.04-1.52-.2-2.08-.2-.92-.92-1.24-.72-.36-2.72-.36v-1.4l7.84-1.52zm-4.6-23.36q0-1.04.72-1.76t1.76-.72 1.76.72.72 1.76-.72 1.76-1.76.72-1.76-.72a2.4 2.4 0 0 1-.72-1.76m17.472 23.48q0 1.52.12 2.44t.48 1.44q.4.52 1.08.72.72.2 1.88.24v1.4h-11.04v-1.4q1.2-.04 1.92-.24.72-.24 1.12-.72.44-.48.56-1.32.16-.88.16-2.28V423.8q0-2.16-.08-3.6-.04-1.48-.16-2-.2-.92-.96-1.24-.72-.32-2.64-.32v-1.36l7.56-1.48zm13.008 0q0 1.52.12 2.44t.48 1.44q.4.52 1.08.72.72.2 1.88.24v1.4h-11.04v-1.4q1.2-.04 1.92-.24.72-.24 1.12-.72.44-.48.56-1.32.16-.88.16-2.28V423.8q0-2.16-.08-3.6-.04-1.48-.16-2-.2-.92-.96-1.24-.72-.32-2.64-.32v-1.36l7.56-1.48zm25.012-.12q0 1.64.08 2.6t.4 1.48q.36.48 1 .64t1.8.24v1.4h-10.64v-1.4q1.16-.04 1.84-.2.68-.2 1.04-.68t.44-1.36q.12-.92.12-2.44v-4.68q0-2.72-.08-4.24-.04-1.52-.4-2.24-.32-.72-1.04-.84-.72-.16-2-.16v-1.4l7-1.52.56 4.96h.16q.52-1.2 1.28-2.2a9.3 9.3 0 0 1 1.72-1.68 7.9 7.9 0 0 1 1.92-1.12 5.45 5.45 0 0 1 2.04-.4q1.28 0 2 .64.76.6.76 1.64 0 .96-.6 1.52-.6.52-1.72.52-.639 0-1.08-.16-.44-.16-.8-.32a8 8 0 0 0-.64-.36q-.28-.16-.64-.16-1.08 0-2.16 1.4-1.08 1.36-1.68 3.48a20 20 0 0 0-.52 2.64q-.16 1.44-.16 3.04zm30.633 2.64q-3.4 4.12-8.44 4.12-2.36 0-4.28-.76a10.2 10.2 0 0 1-3.32-2.2q-1.36-1.44-2.12-3.4-.76-2-.76-4.4 0-2.44.8-4.52t2.24-3.56a10.8 10.8 0 0 1 3.48-2.32q2.04-.84 4.44-.84 3.88 0 6 2.12 2.12 2.08 2.12 6 0 .56-.24.68-.2.12-1 .12h-13.16q-.08.32-.12.8-.04.44-.04 1 0 2.08.48 3.8.52 1.68 1.44 2.88.96 1.2 2.24 1.88 1.32.64 2.92.64 1.68 0 3.12-.72 1.44-.76 2.96-2.44zm-6.6-10.8q.8 0 1.28-.04t.72-.16a.62.62 0 0 0 .32-.32q.08-.24.08-.6 0-1.84-1.2-2.92-1.16-1.12-3.2-1.12-4.32 0-5.36 5.16zm22.61 2.68q-2.28.88-3.88 1.72-1.56.84-2.52 1.68t-1.4 1.68q-.4.84-.4 1.72 0 1.32.88 2.16t2.32.84q1.04 0 1.92-.52a5.3 5.3 0 0 0 1.6-1.4 7.6 7.6 0 0 0 1.08-2.12q.4-1.24.4-2.6zm0-1.72v-1.64q0-4.88-4.16-4.88-.68 0-1.16.12t-.8.4-.6.8q-.24.52-.48 1.28-.44 1.16-.88 1.56-.4.36-1.2.36-2 0-2-2 0-1.92 2.04-2.96 2.04-1.08 5.8-1.08 4 0 5.68 1.44 1.68 1.4 1.68 4.8v8.96q0 4.56 1.8 4.56.56 0 1.08-.12.52-.16.88-.76l.56.96q-.48.92-1.76 1.56-1.28.6-2.68.6-1.76 0-2.64-1.12-.84-1.12-.84-3.16h-.2a8.1 8.1 0 0 1-2.88 3.12q-1.84 1.12-4.08 1.12-2.52 0-3.96-1.28t-1.44-3.44q0-.96.32-1.84.36-.88 1.12-1.68t2-1.56q1.24-.8 3.04-1.6zm27.548 10.2h-.16q-1.44 2.04-3.08 2.92-1.6.84-3.8.84-2.28 0-4.2-.8a10.5 10.5 0 0 1-3.28-2.28q-1.359-1.48-2.16-3.52-.76-2.04-.76-4.44 0-2.36.76-4.36.801-2.04 2.16-3.48a9.6 9.6 0 0 1 3.32-2.28q1.92-.84 4.16-.84 1.92 0 3.4.64 1.52.64 2.92 2.04V424q0-2.28-.08-3.8-.04-1.52-.16-2.08-.2-.88-1.12-1.24t-3-.36v-1.2l8.2-1.52v23.08q0 2.76.04 4.56.04 1.76.24 2.52.12.48.28.8.2.32.52.52.36.16.92.24.6.08 1.52.08v1.36l-6.64.44zm-.8-8.84q0-2.08-.24-3.16a4.16 4.16 0 0 0-.84-1.88q-.92-1.2-2.36-1.8-1.4-.64-2.8-.64-2.88 0-4.4 2.4-1.48 2.36-1.48 6.44 0 2.12.36 3.84.4 1.72 1.12 2.96.76 1.2 1.84 1.88 1.12.64 2.56.64a6.6 6.6 0 0 0 1.44-.16 6.6 6.6 0 0 0 1.44-.48q.72-.36 1.32-.8.6-.48 1-1.08.56-.88.8-2.12t.24-3.4zm21.517-6.48v-1.48q2.12-1.24 3.32-2.48t1.84-2.96h1.16v5.04h5.36v1.88h-5.36v12.16q0 1.4.12 2.36.16.96.48 1.56.32.56.84.8t1.32.24q1 0 1.68-.4.72-.44 1.4-1.44l1 .76q-.56 1.48-1.96 2.28-1.36.76-3.4.76-2.64 0-4.04-1.24-1.36-1.28-1.36-3.64v-14.2zm21.837 12.32q0 1.64.08 2.6t.4 1.48q.36.48 1 .64t1.8.24v1.4h-10.64v-1.4q1.16-.08 1.84-.24t1.04-.64.44-1.36q.12-.92.12-2.44v-16.76q0-2.36-.08-3.76-.04-1.4-.2-2.12-.08-.48-.28-.76a1.02 1.02 0 0 0-.52-.48q-.36-.2-.96-.28t-1.48-.08v-1.36l7.36-1.52v15.24h.16q.6-.8 1.48-1.44a11 11 0 0 1 1.96-1.16q1.04-.48 2.16-.76a9.5 9.5 0 0 1 2.24-.28q1.84 0 3.36.64 1.56.64 2.4 1.72.68.92 1 2.44.32 1.48.32 4.04v6.4q0 1.64.08 2.6.08.92.4 1.44.36.52 1 .68t1.8.24v1.4h-10.6v-1.4q1.12-.04 1.8-.2.68-.2 1-.68.36-.48.44-1.36.12-.92.12-2.44v-5.04q0-4.48-1.04-6.36-1.04-1.92-3.48-1.92-1.88 0-3.44.96-1.52.96-2.4 2.64-.2.44-.36.84-.12.36-.2.84t-.12 1.12v6.64m28.339 0q0 1.56.12 2.52.16.92.56 1.48.4.52 1.12.72t1.92.24v1.4h-11.48v-1.4q1.2-.04 1.96-.24.76-.24 1.16-.72.44-.52.56-1.4.16-.92.16-2.32v-5.12a74 74 0 0 0-.08-3.8q-.04-1.52-.2-2.08-.2-.92-.92-1.24-.72-.36-2.72-.36v-1.4l7.84-1.52zm-4.6-23.36q0-1.04.72-1.76t1.76-.72 1.76.72.72 1.76-.72 1.76-1.76.72-1.76-.72a2.4 2.4 0 0 1-.72-1.76M703.108 447h-.88v-6.88h1q1.56 5.64 5.68 5.64 1.6 0 2.52-.76.96-.8.96-2.4 0-.6-.2-1-.16-.44-.68-.88-.48-.48-1.4-1.08-.88-.6-2.36-1.52a41 41 0 0 1-2.36-1.56q-1-.72-1.68-1.44a5.9 5.9 0 0 1-1.04-1.6q-.32-.84-.32-1.96 0-1.36.44-2.48.48-1.16 1.28-1.96a5.6 5.6 0 0 1 1.88-1.24q1.08-.48 2.36-.48 1.08 0 2.24.36a7.5 7.5 0 0 1 2.04.88l.8-.84h.76v5.76h-1.04q-.88-2.44-1.92-3.48t-2.56-1.04q-1.36 0-2.2.72-.8.72-.8 2 0 .68.2 1.2.24.48.72.96t1.2 1q.76.48 1.8 1.12 1.72 1.08 2.92 1.92 1.24.84 2 1.68.76.8 1.12 1.68t.36 2q0 2.84-1.84 4.48-1.84 1.6-4.84 1.6-3.12 0-5.36-1.8zm34.568-6.24q0 1.52.12 2.44t.48 1.44q.4.52 1.08.72.72.2 1.88.24v1.4h-11.04v-1.4q1.2-.04 1.92-.24.72-.24 1.12-.72.44-.48.56-1.32.16-.88.16-2.28V423.8q0-2.16-.08-3.6-.04-1.48-.16-2-.2-.92-.96-1.24-.72-.32-2.64-.32v-1.36l7.56-1.48zm18.608-5.6q-2.28.88-3.88 1.72-1.56.84-2.52 1.68t-1.4 1.68q-.4.84-.4 1.72 0 1.32.88 2.16t2.32.84a3.7 3.7 0 0 0 1.92-.52 5.3 5.3 0 0 0 1.6-1.4 7.5 7.5 0 0 0 1.08-2.12q.4-1.24.4-2.6zm0-1.72v-1.64q0-4.88-4.16-4.88-.68 0-1.16.12t-.8.4-.6.8q-.24.52-.48 1.28-.44 1.16-.88 1.56-.399.36-1.2.36-2 0-2-2 0-1.92 2.04-2.96 2.04-1.08 5.8-1.08 4 0 5.68 1.44 1.68 1.4 1.68 4.8v8.96q0 4.56 1.8 4.56.561 0 1.08-.12.52-.16.88-.76l.56.96q-.48.92-1.76 1.56-1.28.6-2.68.6-1.76 0-2.64-1.12-.84-1.12-.84-3.16h-.2a8.1 8.1 0 0 1-2.88 3.12q-1.839 1.12-4.08 1.12-2.52 0-3.96-1.28t-1.44-3.44q0-.96.32-1.84.36-.88 1.12-1.68t2-1.56q1.24-.8 3.04-1.6zM767.913 447h-.88v-6.88h1q1.56 5.64 5.68 5.64 1.599 0 2.52-.76.96-.8.96-2.4 0-.6-.2-1-.16-.44-.68-.88-.48-.48-1.4-1.08-.88-.6-2.36-1.52a40 40 0 0 1-2.36-1.56q-1-.72-1.68-1.44a5.9 5.9 0 0 1-1.04-1.6q-.32-.84-.32-1.96 0-1.36.44-2.48.48-1.16 1.28-1.96a5.6 5.6 0 0 1 1.88-1.24q1.08-.48 2.36-.48 1.08 0 2.24.36a7.5 7.5 0 0 1 2.04.88l.8-.84h.76v5.76h-1.04q-.88-2.44-1.92-3.48t-2.56-1.04q-1.36 0-2.2.72-.8.72-.8 2 0 .68.2 1.2.24.48.72.96t1.2 1q.759.48 1.8 1.12a72 72 0 0 1 2.92 1.92q1.24.84 2 1.68.76.8 1.12 1.68t.36 2q0 2.84-1.84 4.48-1.84 1.6-4.84 1.6-3.12 0-5.36-1.8zm16.324-18.68v-1.48q2.12-1.24 3.32-2.48t1.84-2.96h1.16v5.04h5.36v1.88h-5.36v12.16q0 1.4.12 2.36.159.96.48 1.56.32.56.84.8.519.24 1.32.24.999 0 1.68-.4.72-.44 1.4-1.44l1 .76q-.56 1.48-1.96 2.28-1.36.76-3.4.76-2.64 0-4.04-1.24-1.36-1.28-1.36-3.64v-14.2zM83.828 563.59q0 5.566 4.219 5.566 7.734 0 20.098-19.394a302 302 0 0 0 7.382-12.129l7.149-13.125q15.352-29.707 17.695-33.867 1.172-2.11 3.34-2.11t3.633.645q1.464.585 2.519 1.582 2.461 2.344 1.231 4.687-4.103 7.617-7.617 17.051l-14.649 40.84a264 264 0 0 1-4.863 12.012 135 135 0 0 1-5.684 11.425 120 120 0 0 1-6.679 10.84 99 99 0 0 1-7.5 9.551q-3.926 4.454-8.028 7.734-8.73 6.915-16.699 6.914-1.524 0-2.988-.703-1.466-.702-1.758-1.992-.293-1.289.41-1.758.703-.468 1.875-.937 16.172-6.036 30.527-32.227a186 186 0 0 0 7.793-16.113q4.103-10.84 5.274-14.18l-5.918 9.024q-18.457 26.66-31.348 26.66-8.73 0-11.66-7.617-.879-2.403-.879-4.102v-2.226q0-7.09 8.262-26.953l12.187-28.36q3.516-8.495 3.516-10.43 0-1.992-.703-2.988t-1.582-1.582l-1.582-1.172q-.703-.468-.703-1.406t.937-1.875 2.461-1.641q3.046-1.347 5.977-1.347 2.988 0 4.57.644 1.64.587 2.695 1.524 2.05 1.933 2.051 4.687 0 2.695-1.055 6.387-.996 3.691-2.695 8.086a173 173 0 0 1-3.809 9.199l-8.906 19.57q-8.496 18.692-8.496 24.727zm64.219 11.426q-2.461-2.345-3.867-5.918-1.407-3.633-1.465-8.555t1.172-9.961a51 51 0 0 1 3.574-9.727 51.4 51.4 0 0 1 5.566-8.789q3.282-4.101 7.207-7.148 8.555-6.563 17.754-6.563 12.07 0 16.348 10.606 3.046 7.676.352 18.574-2.462 10.02-9.024 18.399-6.504 8.379-15.352 11.894-4.452 1.758-8.789 1.758-4.277 0-7.675-1.113-3.34-1.114-5.801-3.457m11.191-28.418a59 59 0 0 0-2.812 8.906q-.996 4.57-.938 8.672.059 4.043 1.231 6.386 1.23 2.286 3.926 2.286 2.694 0 5.273-1.817 2.637-1.875 5.098-4.922t4.629-7.031a67 67 0 0 0 3.808-8.32q3.574-9.433 3.457-16.758 0-6.445-2.637-8.203-1.054-.703-2.988-.703-1.875 0-4.336 1.758-2.46 1.698-4.922 4.628-2.46 2.93-4.746 6.856a65 65 0 0 0-4.043 8.262m99.785 20.859q1.348 0 1.348 1.348 0 5.098-5.039 8.554-3.399 2.227-7.969 2.227-3.75 0-5.742-1.758-3.574-3.164-3.574-7.734 0-5.8 4.863-17.754-9.023 12.187-12.656 16.23-3.633 3.985-6.328 6.211-5.86 4.805-10.606 4.805-7.265 0-9.668-6.27-.702-1.934-.703-4.394 0-2.52.821-5.567a63 63 0 0 1 2.226-6.445 190 190 0 0 1 2.93-6.855l3.164-7.032q6.093-13.535 4.512-16.054-.704-1.113-2.637-2.227-.703-.41-.703-1.406 0-1.054.82-1.992.879-.937 2.227-1.641 2.871-1.347 5.742-1.348 2.87 0 4.336.645 1.523.586 2.461 1.523 1.933 1.933 1.933 4.278 0 2.343-.761 5.273-.762 2.871-1.993 6.27a209 209 0 0 1-2.695 7.031q-4.043 9.492-5.449 12.539l-2.168 4.512q-1.817 4.043-1.817 5.683t.528 2.344q.526.645 1.875.645 1.405 0 3.222-1.289 1.816-1.29 3.985-3.457 2.168-2.169 4.512-4.981a141 141 0 0 0 4.57-5.918q4.395-5.976 6.445-9.609 12.422-21.973 13.242-22.969 1.875-2.52 3.809-2.52 1.992 0 3.457.469 1.465.41 2.519 1.231 2.461 1.817 1.583 3.633-14.297 29.823-15.411 37.5-.293 2.636-.293 3.632 0 4.453 2.696 4.453 2.519 0 4.16-.878 1.641-.938 2.226-.938m68.086 4.863q-7.968 7.032-12.539 7.032-4.511 0-6.269-4.688-.645-1.64-.645-3.047 0-3.808 1.172-7.383 1.23-3.574 2.402-6.679l5.157-13.301q2.988-8.145 3.633-11.367.644-3.223-.176-4.336a8.5 8.5 0 0 0-1.934-1.992 21 21 0 0 0-2.051-1.524q-.937-.703-.937-1.699 0-1.054.82-1.992.88-.937 2.285-1.641 2.813-1.347 5.801-1.348 3.047 0 4.746.645 1.758.586 2.871 1.523 2.168 1.934 2.168 4.688 0 2.695-.937 6.094-.88 3.398-2.285 7.207a162 162 0 0 1-3.047 7.91l-3.223 8.086q-3.808 9.785-4.629 14.648 5.508-1.875 14.59-13.476 9.902-12.715 17.52-29.004.879-2.05 2.168-2.637 2.109-.996 5.332-.879 5.097.176 5.273 3.164.117 1.817-.996 4.043a793 793 0 0 0-1.758 3.633l-2.285 4.688q-6.856 13.886-6.856 22.558 0 6.035 3.282 8.262.938.703 2.871.703t4.57-1.348q2.637-1.406 5.039-3.808 2.403-2.402 4.453-5.567a42.4 42.4 0 0 0 3.633-6.855q3.223-7.676 3.223-13.594 0-10.137-3.809-14.941-1.288-1.524.762-3.575 2.168-2.168 6.797-2.168 5.684 0 7.734 6.387.82 2.403.82 7.207t-1.699 10.723a58 58 0 0 1-4.629 11.308 62.6 62.6 0 0 1-6.679 10.079q-3.75 4.687-7.91 8.144-8.907 7.383-16.524 7.383-13.066 0-13.066-16.875 0-3.867.703-7.559-6.914 10.079-14.942 17.168m102.364-67.675q-1.29 1.347-2.93 2.226a10.8 10.8 0 0 1-3.457 1.055 6.57 6.57 0 0 1-3.457-.586 8.2 8.2 0 0 1-2.754-2.168q-2.52-2.93-2.52-5.918t.938-4.453a8.2 8.2 0 0 1 2.461-2.461q2.813-1.817 5.273-1.817 2.52 0 3.868.352a7.7 7.7 0 0 1 2.578 1.172q2.871 1.933 2.871 4.746 0 2.754-.821 4.629a11 11 0 0 1-2.05 3.223m-12.012 63.398q1.524 0 1.523 1.992 0 2.637-2.402 5.449-3.515 4.102-9.434 4.102-6.796 0-9.316-5.508-.937-1.933-.937-4.687t.937-6.094a95 95 0 0 1 2.402-7.09q1.466-3.75 3.164-7.559l3.106-7.382q3.399-8.262 3.398-10.899t-.586-3.457q-.527-.879-1.171-1.348l-1.172-.82q-.586-.41-.586-1.406 0-1.054.761-1.992.82-.937 2.11-1.641 2.636-1.347 6.152-1.348 8.613 0 8.613 4.512 0 5.274-2.753 12.071-2.754 6.738-4.688 10.898l-3.516 8.086q-3.867 8.906-3.867 12.832 0 2.578 2.578 2.578 2.52 0 3.809-.644 1.288-.645 1.875-.645m17.578 8.613q-1.465-1.523-2.402-3.867-.879-2.401-.879-5.508 0-3.164 1.406-8.437 1.465-5.274 3.691-12.012l4.922-14.59q10.489-30.468 12.129-47.109.527-4.922 4.805-4.922 2.695 0 4.453 1.289 3.399 2.578 3.281 5.742t-1.113 7.735q-.996 4.51-2.578 9.902a284 284 0 0 1-3.633 11.309l-8.086 23.789q-6.973 20.273-6.973 26.191 0 3.164 2.579 3.164 2.46 0 4.453-1.055 2.05-1.054 2.636-1.054 1.231 0 1.231 1.23 0 5.215-5.332 8.731-3.574 2.402-6.563 2.402-2.93 0-4.746-.703t-3.281-2.227m33.516 0q-1.466-1.523-2.403-3.867-.879-2.401-.879-5.508 0-3.164 1.407-8.437 1.464-5.274 3.691-12.012l4.922-14.59q10.488-30.468 12.129-47.109.527-4.922 4.805-4.922 2.695 0 4.453 1.289 3.398 2.578 3.281 5.742t-1.113 7.735q-.996 4.51-2.578 9.902a284 284 0 0 1-3.633 11.309l-8.086 23.789q-6.973 20.273-6.973 26.191 0 3.164 2.578 3.164 2.461 0 4.453-1.055 2.051-1.054 2.637-1.054 1.23 0 1.231 1.23 0 5.215-5.332 8.731-3.575 2.402-6.563 2.402-2.93 0-4.746-.703t-3.281-2.227m67.793.938q-1.173-.88-1.875-1.934-.704-1.113-.762-1.875-.058-.82.293-1.933.41-1.173 1.055-2.813 11.952-29.414 11.953-39.492-.176-2.812-1.934-3.985l-1.172-.82q-.527-.41-.586-1.406 0-1.054.762-1.992t1.992-1.641q2.52-1.347 5.156-1.348 2.696 0 4.161.586 1.523.586 2.578 1.582 2.226 2.11 2.226 4.454a18 18 0 0 1-.527 4.746 50 50 0 0 1-1.289 4.746 188 188 0 0 1-1.524 4.394q-.76 2.05-.996 3.047-.468 2.051-.351 2.578 1.406-1.23 1.699-2.402l2.285-4.336q7.617-13.711 14.883-18.164 2.11-1.23 5.039-1.231 2.988 0 4.805 2.11 1.817 2.05 1.875 4.57.117 2.52-.352 4.219a11.3 11.3 0 0 1-1.289 3.105q-1.933 3.282-4.687 3.282-.762 0-1.407-.528L577.07 534q-1.933-1.7-3.75-1.699-1.758 0-4.336 2.344-2.519 2.343-5.273 6.035-9.258 12.245-15.117 27.422l-2.578 6.796q-.996 2.52-1.758 3.633-.762 1.055-2.285 1.055-1.465 0-2.989-.586a10 10 0 0 1-2.636-1.406m49.336-19.102q.234-5.097 1.699-9.726a46 46 0 0 1 3.926-9.024 52 52 0 0 1 5.742-8.262q3.34-3.926 7.207-6.855 8.379-6.27 16.933-6.27 10.02 0 13.36 8.262 1.172 2.813 1.113 6.68-.058 3.808-1.465 7.09-1.406 3.222-3.926 5.918-2.46 2.636-5.918 4.746-3.398 2.109-7.441 3.574-8.32 2.93-17.812 3.047-.235.82-.293 2.461-.059 1.64.351 3.691.41 1.992 1.406 3.574 2.11 3.516 6.094 3.516 6.797 0 13.242-3.984 2.286-1.348 3.692-2.754 1.464-1.465 2.519-1.465T627.93 564q.82 1.23.82 2.812 0 3.106-1.758 5.391-7.383 7.383-21.972 7.383-8.614 0-13.829-5.156-5.86-5.86-5.507-15.938m34.218-32.344q-6.152 0-11.836 8.438-4.804 7.266-7.734 17.226 9.785-.996 16.992-7.734 6.621-6.328 6.621-12.129t-4.043-5.801m67.032 37.266q0 5.391 3.808 5.391 2.637 0 4.336-.821 1.758-.82 2.344-.82 1.23 0 1.23 1.289 0 5.039-5.273 8.672-5.567 3.808-11.367 1.875-3.808-1.347-5.625-5.801-.879-2.285-.879-4.16 0-3.047.586-6.445-5.45 11.133-13.535 15.351a14.9 14.9 0 0 1-6.856 1.641q-3.633 0-6.328-1.465-2.637-1.524-4.512-4.16-3.808-5.508-3.457-13.828.352-10.43 6.153-20.449 5.331-9.375 13.476-15.293 8.145-6.036 15.235-6.036t11.425 6.504q4.043-6.504 7.149-6.504 3.34 0 5.039 1.231 3.222 2.343 2.285 4.102-14.708 30.117-15.117 37.5a20 20 0 0 0-.117 2.226m-32.52.234q0 7.032 4.512 7.032 3.456 0 8.496-5.86 7.383-8.613 13.066-23.203a84 84 0 0 0 3.047-9.14q-.234-3.985-3.34-5.86-1.054-.644-3.164-.644-2.05 0-4.863 1.523-2.754 1.524-5.391 4.16-2.577 2.637-4.863 6.27-2.226 3.574-3.926 7.793-3.574 9.023-3.574 17.929m110.859 3.516q1.231 0 1.231 1.289 0 5.039-5.215 8.672-3.457 2.461-6.562 2.461-3.048 0-4.864-.703t-3.281-2.227q-3.28-3.516-3.281-9.668 0-1.23.469-3.926-4.747 7.325-8.145 10.313-6.855 6.211-13.418 6.211-10.37 0-13.594-9.375-1.172-3.457-1.172-8.672t1.582-10.547a49.4 49.4 0 0 1 4.278-10.137 55.6 55.6 0 0 1 6.328-8.906q3.633-4.16 7.617-7.207 8.554-6.387 15.469-6.387t11.074 5.625q10.195-34.921 15.352-41.191 2.167-2.578 4.57-2.578 3.984 0 6.035 2.285.645.762.645 1.524 0 .761-.938 2.812t-2.754 6.621q-5.215 13.77-7.324 20.156-5.391 16.348-7.266 22.5l-3.222 10.84q-4.16 14.473-4.16 18.399 0 3.925 2.871 3.925 2.636 0 4.218-.703l2.227-1.054q.645-.352 1.23-.352m-40.253 3.633q6.034 0 13.828-11.777 8.143-12.188 11.367-26.543-.235-3.985-3.34-5.86-1.054-.644-3.223-.644-2.109 0-4.98 1.582-2.812 1.523-5.508 4.16-2.637 2.637-4.98 6.211a49 49 0 0 0-3.985 7.5q-3.691 8.672-3.691 17.051 0 8.32 4.512 8.32m119.648-7.149q1.7 0 1.699 2.286 0 1.933-1.172 3.75-1.582 3.398-6.328 6.445-5.39 3.457-10.84 3.457-9.433 0-11.953-8.438-2.988-10.019 8.965-42.48-6.738-.586-7.324-2.344a3.5 3.5 0 0 1-.176-1.113q0-.645.527-1.465a9.2 9.2 0 0 1 1.465-1.582q2.05-1.7 4.16-1.699h4.629q6.328-14.824 9.024-16.875a4.77 4.77 0 0 1 2.871-.938q1.582 0 2.637.41a5.9 5.9 0 0 1 1.875 1.172q1.875 1.758 1.875 3.926 0 1.172-.704 2.695l-4.336 9.434h1.407q3.633 0 5.859-.059l3.34-.058q1.113-.059 2.754-.059 1.7 0 1.699 1.231 0 7.734-18.281 7.734h-.469l-3.984 10.313q-6.739 18.28-6.739 25.605 0 2.051.938 3.223.938 1.113 3.516 1.113 2.577 0 4.687-.879t3.691-1.933a62 62 0 0 0 2.696-1.993q1.172-.879 1.992-.879m51.328-34.218q-3.222 0-11.543 9.843l-4.863 5.977-9.375 12.246q-3.399 6.445-5.332 10.723l-3.164 6.797q-1.231 2.519-2.168 3.574-.879.996-2.461.996a8 8 0 0 1-2.988-.586 8.4 8.4 0 0 1-2.461-1.406q-2.227-1.875-2.227-4.102 0-.879 1.231-3.457l2.343-4.746q10.957-22.558 19.864-57.187 3.28-12.774 4.746-22.969.644-4.922 4.804-4.922 2.696 0 4.453 1.289 3.399 2.52 3.282 5.391t-.821 6.445a126 126 0 0 1-1.816 7.793 273 273 0 0 1-2.52 8.789q-3.867 11.778-5.742 16.992-5.742 15.762-7.09 18.457.879-1.054 2.286-2.871 10.664-14.004 13.183-16.699 2.52-2.754 4.278-4.219 3.69-3.222 9.375-3.223 4.628 0 7.441 3.106 2.637 2.988 2.637 6.562 0 3.516-.821 6.387a46 46 0 0 1-1.992 5.742 154 154 0 0 1-2.695 6.036l-2.93 6.152q-4.101 9.316-4.101 13.828 0 3.164 2.578 3.164 2.46 0 4.453-1.055 2.05-1.054 2.637-1.054 1.23 0 1.23 1.23 0 5.215-5.273 8.731-3.633 2.402-6.622 2.402t-4.98-.586a9.46 9.46 0 0 1-3.457-2.051q-3.457-3.164-3.457-9.316 0-6.621 4.336-16.641l6.328-13.476q1.816-3.75 1.816-5.918t-2.402-2.168m56.016-24.785q-1.29 1.347-2.93 2.226a10.8 10.8 0 0 1-3.457 1.055 6.57 6.57 0 0 1-3.457-.586 8.2 8.2 0 0 1-2.754-2.168q-2.52-2.93-2.519-5.918t.937-4.453a8.2 8.2 0 0 1 2.461-2.461q2.813-1.817 5.273-1.817 2.52 0 3.868.352a7.7 7.7 0 0 1 2.578 1.172q2.871 1.933 2.871 4.746 0 2.754-.821 4.629a11 11 0 0 1-2.05 3.223M940 568.043q1.523 0 1.523 1.992 0 2.637-2.402 5.449-3.516 4.102-9.433 4.102-6.798 0-9.317-5.508-.937-1.933-.937-4.687t.937-6.094a95 95 0 0 1 2.402-7.09q1.465-3.75 3.165-7.559l3.105-7.382q3.398-8.262 3.398-10.899t-.586-3.457q-.527-.879-1.171-1.348l-1.172-.82q-.586-.41-.586-1.406 0-1.054.762-1.992.82-.937 2.109-1.641 2.636-1.347 6.152-1.348 8.613 0 8.613 4.512 0 5.274-2.753 12.071-2.754 6.738-4.688 10.898l-3.516 8.086q-3.867 8.906-3.867 12.832 0 2.578 2.578 2.578 2.52 0 3.809-.644 1.289-.645 1.875-.645m11.895.645q0-1.817.761-3.34.82-1.582 1.992-2.637 2.462-2.285 5.157-2.285 2.343 0 2.343 2.402 0 6.094 4.043 8.496 1.466.879 3.047.879t2.696-.351a6.2 6.2 0 0 0 2.05-1.114q2.11-1.699 2.11-4.043 0-2.343-1.055-4.277-1.054-1.992-2.637-4.16l-3.34-4.688q-7.03-9.375-7.031-17.285 0-6.563 5.567-11.894 6.328-6.036 16.23-6.036 8.672 0 13.535 4.278 3.986 3.457 3.987 7.91.002 4.629-3.518 7.383-3.164 2.46-6.328 1.816-1.406-.293-2.168-1.406-.762-1.171-.293-2.637a10 10 0 0 0 .469-3.047 7.3 7.3 0 0 0-.586-2.929 6.8 6.8 0 0 0-1.582-2.285q-2.051-1.934-4.336-1.934-2.227 0-3.692.527a7.5 7.5 0 0 0-2.578 1.407q-2.285 2.109-2.285 5.214 0 3.047 1.055 5.274a32.6 32.6 0 0 0 2.578 4.453 106 106 0 0 0 3.398 4.512 46 46 0 0 1 3.34 4.804q3.692 5.918 3.692 10.43 0 4.454-1.875 7.5-1.875 2.988-4.864 5.156-6.386 4.746-14.297 4.746-7.558 0-11.953-3.632-3.632-3.048-3.632-7.207M420.332 723.891q0-1.231 1.875-4.922 1.816-3.633 3.984-9.317a208 208 0 0 0 4.219-11.836 471 471 0 0 0 4.043-13.183l4.57-15.469-6.093 1.641q-2.286 0-3.75-2.403-.352-.644-.352-1.523 0-.88 1.406-2.051 1.407-1.23 3.457-2.285a40.4 40.4 0 0 1 8.438-3.223l.527-1.64a211 211 0 0 0 2.989-10.196 301 301 0 0 1 3.046-10.371 92 92 0 0 1 3.692-9.551q2.05-4.57 4.805-7.968 6.094-7.383 15.292-7.383 6.797 0 10.782 3.633 3.984 3.633 3.984 9.844 0 6.445-3.691 11.191-3.106 3.926-6.914 3.926-4.746 0-6.446-4.336-.468-1.113-.468-1.875 0-1.29 1.757-2.344 3.224-2.461 4.512-6.562.41-1.29.41-2.52 0-4.805-3.75-4.805-5.156 0-9.492 11.66-1.289 3.574-2.578 7.852l-5.508 18.691q5.332-.82 7.734-.82 2.461 0 4.336.586 1.875.528 3.399 1.523 3.457 2.286 3.457 5.625t-3.281 3.34l-7.442-.293q-6.093 0-11.25.528l-4.804 16.992q-4.747 17.284-7.735 25.137-2.93 7.851-5.742 13.3-2.637 4.981-8.027 4.981-5.391 0-5.391-3.574m85.488-87.246a11.6 11.6 0 0 1-2.929 2.226 10.8 10.8 0 0 1-3.457 1.055 6.56 6.56 0 0 1-3.457-.586 8.2 8.2 0 0 1-2.754-2.168q-2.52-2.93-2.52-5.918t.938-4.453a8.2 8.2 0 0 1 2.461-2.461q2.812-1.817 5.273-1.817 2.52 0 3.867.352a7.7 7.7 0 0 1 2.578 1.172q2.871 1.933 2.871 4.746 0 2.754-.82 4.629a11 11 0 0 1-2.051 3.223m-12.011 63.398q1.523 0 1.523 1.992 0 2.637-2.402 5.449-3.516 4.102-9.434 4.102-6.797 0-9.316-5.508-.938-1.933-.938-4.687t.938-6.094a95 95 0 0 1 2.402-7.09q1.465-3.75 3.164-7.559l3.106-7.382q3.398-8.262 3.398-10.899t-.586-3.457q-.527-.879-1.172-1.348l-1.172-.82q-.585-.41-.586-1.406 0-1.054.762-1.992.82-.937 2.109-1.641 2.637-1.347 6.153-1.348 8.613 0 8.613 4.512 0 5.274-2.754 12.071-2.754 6.738-4.687 10.898l-3.516 8.086q-3.867 8.906-3.867 12.832 0 2.578 2.578 2.578 2.52 0 3.809-.644 1.288-.645 1.875-.645m14.941 9.551q-1.172-.88-1.875-1.934-.704-1.113-.762-1.875-.058-.82.293-1.933a82 82 0 0 1 1.055-2.813q11.953-29.414 11.953-39.492-.176-2.812-1.934-3.985l-1.171-.82q-.528-.41-.586-1.406 0-1.054.761-1.992.762-.937 1.993-1.641 2.519-1.347 5.156-1.348 2.695 0 4.16.586 1.524.586 2.578 1.582 2.226 2.11 2.227 4.454a18 18 0 0 1-.528 4.746 50 50 0 0 1-1.289 4.746 188 188 0 0 1-1.523 4.394q-.762 2.05-.996 3.047-.47 2.051-.352 2.578 1.407-1.23 1.699-2.402l2.286-4.336q7.617-13.711 14.882-18.164 2.11-1.23 5.039-1.231 2.989 0 4.805 2.11 1.817 2.05 1.875 4.57.117 2.52-.351 4.219a11.4 11.4 0 0 1-1.29 3.105q-1.933 3.282-4.687 3.282-.762 0-1.406-.528L549.473 666q-1.933-1.7-3.75-1.699-1.759 0-4.336 2.344-2.52 2.343-5.274 6.035-9.258 12.245-15.117 27.422l-2.578 6.796q-.996 2.52-1.758 3.633-.762 1.055-2.285 1.055-1.466 0-2.988-.586a10 10 0 0 1-2.637-1.406m45.938-8.906q0-1.817.761-3.34.82-1.582 1.992-2.637 2.462-2.285 5.157-2.285 2.343 0 2.343 2.402 0 6.094 4.043 8.496 1.466.879 3.047.879t2.696-.351a6.2 6.2 0 0 0 2.05-1.114q2.11-1.699 2.11-4.043 0-2.343-1.055-4.277-1.054-1.992-2.637-4.16l-3.34-4.688q-7.03-9.375-7.031-17.285 0-6.563 5.567-11.894 6.328-6.036 16.23-6.036 8.672 0 13.535 4.278 3.984 3.457 3.985 7.91 0 4.629-3.516 7.383-3.164 2.46-6.328 1.816-1.406-.293-2.168-1.406-.762-1.171-.293-2.637a10 10 0 0 0 .469-3.047 7.3 7.3 0 0 0-.586-2.929 6.8 6.8 0 0 0-1.582-2.285q-2.051-1.934-4.336-1.934-2.227 0-3.692.527a7.5 7.5 0 0 0-2.578 1.407q-2.285 2.109-2.285 5.214 0 3.047 1.055 5.274a32.6 32.6 0 0 0 2.578 4.453 106 106 0 0 0 3.398 4.512 46 46 0 0 1 3.34 4.804q3.692 5.918 3.692 10.43 0 4.454-1.875 7.5-1.875 2.988-4.864 5.156-6.387 4.746-14.297 4.746-7.558 0-11.953-3.632-3.633-3.048-3.632-7.207m87.773-5.04q1.7 0 1.699 2.286 0 1.933-1.172 3.75-1.582 3.398-6.328 6.445-5.39 3.457-10.84 3.457-9.433 0-11.953-8.438-2.988-10.019 8.965-42.48-6.739-.586-7.324-2.344a3.5 3.5 0 0 1-.176-1.113q0-.645.527-1.465a9.2 9.2 0 0 1 1.465-1.582q2.05-1.7 4.16-1.699h4.629q6.328-14.825 9.024-16.875a4.77 4.77 0 0 1 2.871-.938q1.581 0 2.637.41a5.9 5.9 0 0 1 1.875 1.172q1.875 1.758 1.875 3.926 0 1.172-.704 2.695l-4.336 9.434h1.407q3.633 0 5.859-.059l3.34-.058q1.113-.059 2.754-.059 1.7 0 1.699 1.231 0 7.734-18.281 7.734h-.469l-3.984 10.313q-6.738 18.28-6.739 25.605 0 2.051.938 3.223.938 1.113 3.516 1.113 2.577 0 4.687-.879t3.691-1.933a62 62 0 0 0 2.696-1.993q1.171-.879 1.992-.879m-351.897 86.56h-1.968q-.144-2.064-.672-3.456t-1.536-2.16q-.96-.816-2.448-1.152t-3.552-.336q-1.776 0-2.88.096-1.056.048-1.632.24t-.768.48q-.144.24-.144.672v25.68q0 1.536.192 2.64.24 1.104.864 1.824.672.672 1.872 1.056 1.248.336 3.264.384V810h-18.144v-1.824q2.016-.048 3.264-.384 1.248-.384 1.872-1.056.672-.72.864-1.824.24-1.104.24-2.64v-25.68q0-.432-.192-.672-.144-.288-.672-.48-.48-.192-1.392-.24-.912-.096-2.448-.096-1.872 0-3.504.144-1.584.144-2.784.864-1.152.672-1.872 2.112t-.768 3.984h-1.776v-9.168h36.24zm10.787 20.16q0 1.968.096 3.12t.48 1.776q.432.576 1.2.768t2.16.288V810h-12.768v-1.68q1.392-.096 2.208-.288t1.248-.768.528-1.632q.144-1.104.144-2.928v-20.112q0-2.832-.096-4.512-.048-1.68-.24-2.544-.096-.576-.336-.912a1.22 1.22 0 0 0-.624-.576q-.432-.24-1.152-.336a14 14 0 0 0-1.776-.096v-1.632l8.832-1.824v18.288h.192a8.3 8.3 0 0 1 1.776-1.728 13.4 13.4 0 0 1 2.352-1.392 14.7 14.7 0 0 1 2.592-.912 11.5 11.5 0 0 1 2.688-.336q2.208 0 4.032.768 1.872.768 2.88 2.064.816 1.104 1.2 2.928.384 1.776.384 4.848v7.68q0 1.968.096 3.12.096 1.104.48 1.728.432.624 1.2.816t2.16.288V810h-12.72v-1.68q1.344-.048 2.16-.24.816-.24 1.2-.816.432-.576.528-1.632.144-1.104.144-2.928v-6.048q0-5.376-1.248-7.632-1.248-2.304-4.176-2.304-2.256 0-4.128 1.152-1.824 1.152-2.88 3.168-.24.528-.432 1.008a7 7 0 0 0-.24 1.008q-.096.576-.144 1.344v7.968m48.119 3.168q-4.08 4.944-10.128 4.944-2.832 0-5.136-.912-2.304-.96-3.984-2.64-1.632-1.728-2.544-4.08-.912-2.4-.912-5.28 0-2.928.96-5.424t2.688-4.272a12.9 12.9 0 0 1 4.176-2.784q2.448-1.008 5.328-1.008 4.656 0 7.2 2.544 2.544 2.496 2.544 7.2 0 .672-.288.816-.24.144-1.2.144h-15.792a6 6 0 0 0-.144.96q-.048.528-.048 1.2 0 2.496.576 4.56.624 2.016 1.728 3.456a8.6 8.6 0 0 0 2.688 2.256q1.584.768 3.504.768a8.26 8.26 0 0 0 3.744-.864q1.728-.912 3.552-2.928zm-7.92-12.96q.96 0 1.536-.048t.864-.192.384-.384q.096-.288.096-.72 0-2.208-1.44-3.504-1.392-1.344-3.84-1.344-5.184 0-6.432 6.192zm20.748 9.888q0 1.968.096 3.12.096 1.104.48 1.728.432.576 1.2.768.816.192 2.208.288V810h-12.576v-1.632q1.344-.096 2.112-.288.816-.192 1.248-.768t.528-1.632q.144-1.056.144-2.88v-6.384q0-5.712-.288-6.96-.144-.624-.384-1.008a1.2 1.2 0 0 0-.624-.624q-.432-.24-1.104-.288a13 13 0 0 0-1.728-.096v-1.536l7.68-1.824.576 4.752h.192q1.824-2.256 4.272-3.504t5.328-1.248q2.208 0 4.032.72t2.784 1.968q.816 1.104 1.152 2.88.336 1.728.336 4.8v8.016q0 1.968.096 3.12.144 1.104.528 1.728.384.576 1.152.768.816.192 2.112.288V810h-12.432v-1.632q1.344-.048 2.112-.24.816-.24 1.2-.816.432-.576.528-1.632.144-1.104.144-2.88v-6.336q0-2.736-.288-4.608t-.96-3.024q-.624-1.152-1.68-1.632-1.056-.528-2.544-.528-2.16 0-3.984 1.152-1.776 1.104-2.784 3.072-.24.48-.432.912a7 7 0 0 0-.24 1.008q-.096.576-.144 1.344-.048.72-.048 1.872zm48.542 15.072q-2.208 4.944-6.864 4.944-3.024 0-3.024-2.256 0-1.2.816-1.776.864-.528 3.12-.912 1.008-.144 1.728-.432a4.5 4.5 0 0 0 1.296-.672q.576-.384 1.008-1.008.48-.624.912-1.536l1.68-3.36-9.216-20.016q-.624-1.344-1.104-2.112-.432-.816-.96-1.248a2.26 2.26 0 0 0-1.104-.624q-.624-.192-1.584-.288v-1.68h12.72v1.68q-3.216 0-3.216 1.584 0 .624.384 1.968t.96 2.736l5.28 12.768h.24l4.368-10.8q.624-1.584 1.008-2.592.432-1.008.624-1.632.24-.672.288-1.104.096-.432.096-.816 0-1.248-.72-1.68-.672-.432-2.64-.432v-1.68h10.56v1.68q-.912 0-1.536.24t-1.296 1.104q-.624.816-1.44 2.4a106 106 0 0 0-1.92 4.272zm31.737-33.456q2.736 0 5.184 1.008 2.448.96 4.272 2.688a12.3 12.3 0 0 1 2.928 4.128q1.104 2.352 1.104 5.184 0 2.928-1.104 5.376a12.7 12.7 0 0 1-2.928 4.224 13.3 13.3 0 0 1-4.272 2.784 13.5 13.5 0 0 1-5.184 1.008q-2.688 0-5.136-.96-2.4-1.008-4.224-2.784t-2.88-4.224q-1.056-2.496-1.056-5.424 0-2.832 1.056-5.232t2.88-4.128a13.2 13.2 0 0 1 4.224-2.688q2.448-.96 5.136-.96m0 2.304q-1.776 0-3.264.768-1.44.768-2.496 2.208-1.008 1.392-1.584 3.408-.528 1.968-.528 4.368 0 2.496.528 4.512.576 2.016 1.584 3.456 1.056 1.392 2.496 2.16t3.264.768 3.312-.768 2.544-2.208 1.632-3.456.576-4.464q0-2.4-.576-4.368t-1.632-3.36q-1.056-1.44-2.544-2.208-1.488-.816-3.312-.816m38.03 5.856q0-1.968-.096-3.072-.096-1.152-.528-1.728-.384-.624-1.2-.816-.768-.24-2.16-.384v-1.68h8.688v14.736q0 2.736.048 4.464.096 1.728.24 2.592.096.624.288 1.008a2 2 0 0 0 .672.576q.432.192 1.104.288.72.048 1.824.048v1.68l-7.92.576-.528-5.76h-.192q-1.824 2.976-4.224 4.368-2.352 1.344-4.944 1.344a10.5 10.5 0 0 1-3.936-.768q-1.872-.768-2.832-2.064-.816-1.056-1.2-2.928-.336-1.872-.336-4.848v-7.632q0-1.968-.096-3.072-.096-1.152-.528-1.728-.384-.624-1.2-.816-.768-.24-2.16-.384v-1.68h8.688v13.104q0 5.232 1.2 7.584 1.248 2.352 3.936 2.352 4.224 0 6.576-5.52.24-.576.384-1.056t.24-1.056.144-1.296.048-1.728zm35.698 18.24h-1.776l-6.24-19.968q-.432-1.344-.816-2.16t-.912-1.296a2.57 2.57 0 0 0-1.248-.624q-.72-.192-1.776-.192v-1.68h12.72v1.68q-1.872 0-2.64.432t-.768 1.488q0 .48.144 1.152.144.624.384 1.584l3.264 11.472h.192l7.056-17.808h1.488l6.384 17.808h.192l2.88-7.776.96-2.64q.384-1.104.576-1.824.24-.768.336-1.248t.096-.912q0-1.056-.624-1.392t-2.592-.336v-1.68h9.6v1.68q-.72 0-1.248.24-.48.192-1.008.816-.48.624-1.008 1.776a85 85 0 0 0-1.296 3.024l-7.44 18.384h-1.776l-5.856-17.712h-.192zm38.475-8.112q0 1.872.144 3.024.192 1.104.672 1.776.48.624 1.344.864t2.304.288V810h-13.776v-1.68q1.44-.048 2.352-.288.912-.288 1.392-.864.528-.624.672-1.68.192-1.104.192-2.784v-6.144q0-2.784-.096-4.56-.048-1.824-.24-2.496-.24-1.104-1.104-1.488-.864-.432-3.264-.432v-1.68l9.408-1.824zm-5.52-28.032q0-1.248.864-2.112t2.112-.864 2.112.864.864 2.112-.864 2.112-2.112.864-2.112-.864-.864-2.112m20.967 28.176q0 1.824.144 2.928t.576 1.728q.48.624 1.296.864.864.24 2.256.288V810h-13.248v-1.68q1.44-.048 2.304-.288.864-.288 1.344-.864.528-.576.672-1.584.192-1.056.192-2.736V782.16q0-2.592-.096-4.32-.048-1.776-.192-2.4-.24-1.104-1.152-1.488-.864-.384-3.168-.384v-1.632l9.072-1.776zm15.61 0q0 1.824.144 2.928t.576 1.728q.48.624 1.296.864.864.24 2.256.288V810h-13.248v-1.68q1.44-.048 2.304-.288.864-.288 1.344-.864.528-.576.672-1.584.192-1.056.192-2.736V782.16q0-2.592-.096-4.32-.048-1.776-.192-2.4-.24-1.104-1.152-1.488-.864-.384-3.168-.384v-1.632l9.072-1.776zm30.014-.144q0 1.968.096 3.12t.48 1.776q.432.576 1.2.768t2.16.288V810h-12.768v-1.68q1.392-.048 2.208-.24.816-.24 1.248-.816t.528-1.632q.144-1.104.144-2.928v-5.616q0-3.264-.096-5.088-.048-1.824-.48-2.688-.384-.864-1.248-1.008-.864-.192-2.4-.192v-1.68l8.4-1.824.672 5.952h.192q.624-1.44 1.536-2.64.96-1.2 2.064-2.016a9.4 9.4 0 0 1 2.304-1.344q1.2-.48 2.448-.48 1.536 0 2.4.768.912.72.912 1.968 0 1.152-.72 1.824-.72.624-2.064.624-.768 0-1.296-.192a15 15 0 0 1-.96-.384 9 9 0 0 0-.768-.432 1.5 1.5 0 0 0-.768-.192q-1.296 0-2.592 1.68-1.296 1.632-2.016 4.176a24 24 0 0 0-.624 3.168 33 33 0 0 0-.192 3.648zm36.76 3.168q-4.08 4.944-10.128 4.944-2.832 0-5.136-.912-2.304-.96-3.984-2.64-1.632-1.728-2.544-4.08-.912-2.4-.912-5.28 0-2.928.96-5.424t2.688-4.272a12.9 12.9 0 0 1 4.176-2.784q2.448-1.008 5.328-1.008 4.656 0 7.2 2.544 2.544 2.496 2.544 7.2 0 .672-.288.816-.24.144-1.2.144h-15.792a6 6 0 0 0-.144.96q-.048.528-.048 1.2 0 2.496.576 4.56.624 2.016 1.728 3.456a8.6 8.6 0 0 0 2.688 2.256q1.584.768 3.504.768a8.26 8.26 0 0 0 3.744-.864q1.728-.912 3.552-2.928zm-7.92-12.96q.96 0 1.536-.048t.864-.192.384-.384q.096-.288.096-.72 0-2.208-1.44-3.504-1.392-1.344-3.84-1.344-5.184 0-6.432 6.192zm27.131 3.216q-2.736 1.056-4.656 2.064-1.872 1.008-3.024 2.016t-1.68 2.016q-.48 1.008-.48 2.064 0 1.584 1.056 2.592t2.784 1.008q1.248 0 2.304-.624a6.4 6.4 0 0 0 1.92-1.68 9 9 0 0 0 1.296-2.544 10.1 10.1 0 0 0 .48-3.12zm0-2.064v-1.968q0-5.856-4.992-5.856-.816 0-1.392.144a2.27 2.27 0 0 0-.96.48q-.384.336-.72.96-.288.624-.576 1.536-.528 1.392-1.056 1.872-.48.432-1.44.432-2.4 0-2.4-2.4 0-2.304 2.448-3.552 2.448-1.296 6.96-1.296 4.8 0 6.816 1.728 2.016 1.68 2.016 5.76v10.752q0 5.472 2.16 5.472.672 0 1.296-.144.624-.192 1.056-.912l.672 1.152q-.576 1.104-2.112 1.872a7.5 7.5 0 0 1-3.216.72q-2.112 0-3.168-1.344-1.008-1.344-1.008-3.792h-.24a9.74 9.74 0 0 1-3.456 3.744q-2.208 1.344-4.896 1.344-3.024 0-4.752-1.536t-1.728-4.128q0-1.152.384-2.208.432-1.056 1.344-2.016t2.4-1.872q1.488-.96 3.648-1.92zm33.058 12.24h-.192q-1.728 2.448-3.696 3.504-1.92 1.008-4.56 1.008-2.736 0-5.04-.96a12.6 12.6 0 0 1-3.936-2.736q-1.632-1.776-2.592-4.224-.912-2.448-.912-5.328 0-2.832.912-5.232.96-2.448 2.592-4.176a11.5 11.5 0 0 1 3.984-2.736q2.304-1.008 4.992-1.008 2.304 0 4.08.768 1.824.768 3.504 2.448V782.4q0-2.736-.096-4.56-.048-1.824-.192-2.496-.24-1.056-1.344-1.488t-3.6-.432v-1.44l9.84-1.824v27.696q0 3.312.048 5.472.048 2.112.288 3.024.144.576.336.96.24.384.624.624.432.192 1.104.288.72.096 1.824.096v1.632l-7.968.528zm-.96-10.608q0-2.496-.288-3.792-.24-1.296-1.008-2.256a6.8 6.8 0 0 0-2.832-2.16q-1.68-.768-3.36-.768-3.456 0-5.28 2.88-1.776 2.832-1.776 7.728 0 2.544.432 4.608.48 2.064 1.344 3.552.912 1.44 2.208 2.256 1.344.768 3.072.768.864 0 1.728-.192a7.8 7.8 0 0 0 1.728-.576 11 11 0 0 0 1.584-.96q.72-.576 1.2-1.296.672-1.056.96-2.544t.288-4.08zm25.82-7.776v-1.776q2.544-1.488 3.984-2.976t2.208-3.552h1.392v6.048h6.432v2.256h-6.432v14.592q0 1.68.144 2.832.192 1.152.576 1.872.384.672 1.008.96t1.584.288q1.2 0 2.016-.48.864-.528 1.68-1.728l1.2.912q-.672 1.776-2.352 2.736-1.632.912-4.08.912-3.168 0-4.848-1.488-1.632-1.536-1.632-4.368v-17.04zm26.205 14.784q0 1.968.096 3.12t.48 1.776q.432.576 1.2.768t2.16.288V810h-12.768v-1.68q1.392-.096 2.208-.288t1.248-.768.528-1.632q.144-1.104.144-2.928v-20.112q0-2.832-.096-4.512-.048-1.68-.24-2.544-.096-.576-.336-.912a1.22 1.22 0 0 0-.624-.576q-.432-.24-1.152-.336a14 14 0 0 0-1.776-.096v-1.632l8.832-1.824v18.288h.192a8.3 8.3 0 0 1 1.776-1.728 13.4 13.4 0 0 1 2.352-1.392 14.7 14.7 0 0 1 2.592-.912 11.5 11.5 0 0 1 2.688-.336q2.208 0 4.032.768 1.872.768 2.88 2.064.816 1.104 1.2 2.928.384 1.776.384 4.848v7.68q0 1.968.096 3.12.096 1.104.48 1.728.432.624 1.2.816t2.16.288V810h-12.72v-1.68q1.344-.048 2.16-.24.816-.24 1.2-.816.432-.576.528-1.632.144-1.104.144-2.928v-6.048q0-5.376-1.248-7.632-1.248-2.304-4.176-2.304-2.256 0-4.128 1.152-1.824 1.152-2.88 3.168-.24.528-.432 1.008a7 7 0 0 0-.24 1.008q-.096.576-.144 1.344v7.968m34.007 0q0 1.872.144 3.024.192 1.104.672 1.776.48.624 1.344.864t2.304.288V810H780.64v-1.68q1.44-.048 2.352-.288.912-.288 1.392-.864.528-.624.672-1.68.192-1.104.192-2.784v-6.144q0-2.784-.096-4.56-.048-1.824-.24-2.496-.24-1.104-1.104-1.488-.864-.432-3.264-.432v-1.68l9.408-1.824zm-5.52-28.032q0-1.248.864-2.112t2.112-.864 2.112.864.864 2.112-.864 2.112-2.112.864-2.112-.864-.864-2.112M799.495 810h-1.056v-8.256h1.2q1.872 6.768 6.816 6.768 1.92 0 3.024-.912 1.152-.96 1.152-2.88 0-.72-.24-1.2-.192-.528-.816-1.056-.576-.576-1.68-1.296a83 83 0 0 0-2.832-1.824 49 49 0 0 1-2.832-1.872q-1.2-.864-2.016-1.728a7 7 0 0 1-1.248-1.92q-.384-1.008-.384-2.352 0-1.632.528-2.976.576-1.392 1.536-2.352a6.8 6.8 0 0 1 2.256-1.488q1.296-.576 2.832-.576 1.296 0 2.688.432 1.392.384 2.448 1.056l.96-1.008h.912v6.912h-1.248q-1.056-2.928-2.304-4.176t-3.072-1.248q-1.632 0-2.64.864-.96.864-.96 2.4 0 .816.24 1.44.288.576.864 1.152t1.44 1.2q.912.576 2.16 1.344a86 86 0 0 1 3.504 2.304q1.488 1.008 2.4 2.016.912.96 1.344 2.016t.432 2.4q0 3.408-2.208 5.376-2.208 1.92-5.808 1.92-3.744 0-6.432-2.16z"/></svg>