<svg xmlns="http://www.w3.org/2000/svg" width="1080" height="1350" fill="none"><path fill="#000" d="M296.401 448v-1.32q1.2 0 1.84-.64t1.04-1.76q.44-1.12 1-2.6l8.24-22.44h.96l8.92 22.76q.32.84.72 2.16t.32 2.24l1.36-.08 1.36-.08V448h-9.16v-1.32q1.52-.04 2-.68t.36-1.52a7 7 0 0 0-.4-1.6l-1.4-3.76-10.4.24-1.4 4.28q-.28.96-.52 1.52-.201.56-.48 1.24l1.56-.08 1.56-.08V448zm7.36-10.36h9.24l-2.84-7.64a67 67 0 0 0-.92-2.44l-.88-2.48h-.08a78 78 0 0 1-.84 2.24 128 128 0 0 1-.84 2.28zM323.44 448v-1.2q1.24 0 1.72-.6.48-.64.56-1.72.08-1.12.08-2.56l.04-9.12v-1.28q.04-.64.16-1.32l-1.44.08q-.68.04-1.4.08v-1.68q1.76 0 2.64-.16.92-.16 1.36-.4t.72-.52h1.16q.04.28.04.64.04.36.08.8t.04 1a12.4 12.4 0 0 1 1.92-1.36q1.08-.6 2.24-.96 1.2-.36 2.36-.36 3.48 0 5.08 2.2 1.6 2.16 1.6 6.76v7.44q0 .8-.04 1.44 0 .6-.12 1.28.64-.04 1.24-.04l1.28-.08V448h-8.16v-1.2q1.24 0 1.72-.6.48-.64.56-1.72.08-1.12.08-2.56v-5.6q-.04-3.44-1.16-5.2-1.08-1.76-3.44-1.72-1.44.04-2.84.76a7.4 7.4 0 0 0-2.28 1.84q.04.32.04.72v.84l-.04 10.2q0 .8-.04 1.44 0 .6-.12 1.28.64-.04 1.24-.04l1.28-.08V448zm32.857.64q-2.44 0-4.4-1.2-1.96-1.24-3.12-3.52-1.12-2.28-1.12-5.36 0-3.28 1.32-5.8t3.64-3.96q2.36-1.44 5.32-1.44 1.32 0 2.6.36 1.32.32 2.08.76v-6.68q.039-.6.12-1.4l-1.44.08q-.68.04-1.4.08v-1.68q1.76 0 2.72-.16t1.44-.4q.52-.24.8-.52h1.16v25.96q0 .64-.04 1.28a41 41 0 0 1-.12 1.44q.72-.04 1.4-.08l1.44-.08V448h-5.72q-.12-.6-.2-1.08l-.08-1q-1.12 1.24-2.76 2-1.64.72-3.64.72m1.44-1.96q1.32 0 2.64-.76 1.36-.76 2.24-1.88a12 12 0 0 1-.04-1v-1.2l.04-11.52a6.3 6.3 0 0 0-2.12-1.04 7.5 7.5 0 0 0-2.32-.36q-2.001 0-3.48 1.16t-2.24 3.24-.68 4.88q.08 2.44.76 4.36.72 1.92 2 3.04 1.32 1.08 3.2 1.08m27.494 12.16q-1.24 0-2.12-.6t-.88-1.84q0-.72.48-1.32t1.24-.6q.96-.04 1.28.6.36.64.36 1.12v.24q0 .16-.04.32.12.08.44.08.48 0 1.04-.4t1-1.16q.519-.88 1.2-2.64.72-1.76 1.6-4.2l-6.24-13.36q-1.04-2.24-1.52-3.56-.441-1.32-.6-1.96l-1.92.08V428h8.28v1.2h-.16q-1.68.12-1.84 1.28-.16 1.12.92 3.44l4.68 10.04a295 295 0 0 0 1.76-5.04q.84-2.52 1.68-5 .32-.88.64-1.8.36-.96.68-1.68.36-.76.64-.96l-2.76.16V428h6.28v1.2q-1.48.56-2.24 1.88-.72 1.28-1.48 3.32l-5 13.96q-1.2 3.36-2.2 5.68-1 2.36-2.2 3.56-1.2 1.24-3 1.24m27.582-10.2q-2.8 0-5.08-1.28a10 10 0 0 1-3.64-3.6q-1.32-2.32-1.32-5.28 0-3.16 1.32-5.68t3.6-3.96q2.28-1.48 5.12-1.48 2.8 0 5.08 1.36 2.28 1.32 3.64 3.6t1.36 5.2q0 3.08-1.36 5.64-1.32 2.52-3.6 4t-5.12 1.48m.32-1.6q2.12 0 3.36-1.2t1.76-3.12q.56-1.92.56-4.04 0-1.8-.36-3.52-.32-1.76-1.04-3.16-.72-1.44-1.88-2.28-1.12-.84-2.72-.84-2.08 0-3.4 1.2t-1.96 3.12q-.6 1.92-.6 4.12 0 2.48.68 4.72.68 2.2 2.08 3.6t3.52 1.4m21.598 1.6q-2.16 0-3.64-.8-1.44-.8-2.2-2.72-.72-1.92-.72-5.2v-8.4q.04-.64.16-1.32-.68.04-1.4.08-.68 0-1.36.04v-1.64h1.24q1.72 0 2.48-.32.8-.36 1.24-.76h1.16v12.2q0 3.44.96 5.16 1 1.68 3.36 1.64 1.521-.04 2.88-.92 1.4-.92 2.24-2.16v-10.28q0-.96.04-1.64.04-.72.16-1.4l-1.44.08q-.72 0-1.44.04v-1.64h1.24q1.72 0 2.48-.32.8-.36 1.24-.76h1.16l-.04 15.12q0 .64-.04 1.8a30 30 0 0 1-.12 1.96l1.44-.08 1.44-.08V448h-5.72q-.12-.68-.2-1.28-.04-.6-.08-1.12-1.239 1.24-3 2.16-1.76.88-3.52.88m32.815-.52-5.24-15.36q-.28-.84-.52-1.44-.2-.6-.32-1.04t-.2-.76l-2.12.12V428h8.48v1.2q-1.8.04-2 1.24-.159 1.16.48 3.08l1.84 5.6q.32.96.64 1.96l.64 1.92.72-2.16q.4-1.12.76-2.24l3.56-10.6h1.64l4.04 11.64q.32.88.64 1.8l.64 1.84q.321-.88.6-1.72.321-.88.6-1.76l2.64-7.6q.28-.8.56-1.52t.64-1.16l-2.32.12V428h6.96v1.2q-1.04.04-1.72.28-.639.24-1.08.64a3.3 3.3 0 0 0-.72.96q-.28.56-.52 1.28l-5.76 15.76h-1.6l-3.8-10.92q-.24-.72-.48-1.4-.24-.72-.48-1.4-.24-.72-.48-1.4-.24.68-.48 1.4-.24.68-.48 1.4-.24.68-.48 1.4l-3.76 10.92zm25.152-1.32q1.24 0 1.72-.6.48-.64.56-1.72.08-1.12.08-2.56v-9.12q0-.64.04-1.2.039-.6.12-1.4l-1.44.08q-.68.04-1.4.08v-1.68q1.76 0 2.72-.16t1.44-.4q.52-.24.8-.52h1.16v16.16q0 .8-.04 1.44 0 .6-.12 1.28.64-.04 1.24-.04l1.28-.08V448h-8.16zm3.84-23.16q-.84 0-1.48-.68t-.64-1.68.64-1.68q.68-.72 1.52-.72.92 0 1.52.72.64.68.64 1.68t-.68 1.68q-.64.68-1.52.68m7.01 23.16q1.24 0 1.72-.6.48-.64.56-1.72.08-1.12.08-2.56V421.8q.039-.6.12-1.4l-1.44.08q-.68.04-1.4.08v-1.68q1.76 0 2.72-.16 1-.16 1.48-.4.52-.24.8-.52h1.16l.04 25.96q0 .8-.04 1.44-.04.6-.16 1.28.64-.04 1.24-.04l1.28-.08V448h-8.16zm10.898 0q1.24 0 1.72-.6.48-.64.56-1.72.08-1.12.08-2.56V421.8q.04-.6.12-1.4l-1.44.08q-.68.04-1.4.08v-1.68q1.76 0 2.72-.16 1-.16 1.48-.4.52-.24.8-.52h1.16l.04 25.96q0 .8-.04 1.44-.04.6-.16 1.28.64-.04 1.24-.04l1.28-.08V448h-8.16zm21.806 0q1.24 0 1.72-.6.48-.64.56-1.72.08-1.12.08-2.56v-10.4q.04-.64.16-1.32l-1.44.08q-.68 0-1.4.04v-1.64h1.24q1.72 0 2.36-.32.68-.36 1.12-.76h1.16q.081.64.12 1.6.04.92.08 2.36.6-1 1.64-1.96a10 10 0 0 1 2.32-1.6q1.32-.64 2.76-.64 1.12 0 1.96.6t.84 1.92q0 .32-.2.8-.2.44-.64.8-.44.32-1.16.32-.88-.04-1.4-.68-.52-.68-.4-1.56-1-.04-2.08.52-1.04.56-1.96 1.56-.92.96-1.64 2.28l.04 9.84q0 .8-.04 1.44 0 .6-.12 1.28.64-.04 1.24-.04l1.28-.08V448h-8.2zm26.711 1.84q-2.76 0-5-1.28-2.199-1.32-3.48-3.68-1.28-2.4-1.28-5.64 0-2.8 1.24-5.24a10.3 10.3 0 0 1 3.56-3.92q2.28-1.52 5.28-1.52 1.68 0 3.12.56a6.8 6.8 0 0 1 2.6 1.64q1.12 1.08 1.76 2.76.64 1.64.64 3.88l-14.08.24q0 3.04.64 5.36.681 2.28 2.16 3.56 1.48 1.24 3.8 1.24 1.24 0 2.52-.44a9.9 9.9 0 0 0 2.44-1.2q1.12-.76 1.8-1.68l.96.8q-1.08 1.68-2.6 2.68t-3.12 1.44-2.96.44m-5.52-13.88h10.2q0-1.44-.44-2.76-.4-1.36-1.36-2.2-.96-.88-2.52-.88-2.32 0-3.88 1.4-1.52 1.36-2 4.44M587.045 448q-.12-.68-.16-1.2a17 17 0 0 0-.12-1.08 11.4 11.4 0 0 1-2.96 2.16 7.5 7.5 0 0 1-3.32.76q-3.04 0-4.52-1.36-1.48-1.4-1.48-3.4 0-1.84 1.12-3.16 1.16-1.36 2.96-2.2a16 16 0 0 1 3.96-1.28 19 19 0 0 1 4.16-.4v-2.48q0-1.4-.24-2.64t-1.04-2.04-2.56-.84q-1.16-.04-2.4.44-1.2.48-1.76 1.64.32.32.4.76.12.4.12.76 0 .48-.4 1.12-.4.6-1.4.56-.84 0-1.28-.56-.44-.6-.44-1.4 0-1.36 1-2.44 1.04-1.08 2.84-1.72t4.08-.64q3.36 0 4.96 1.8 1.6 1.76 1.56 5.6v3q0 1.48-.04 3v3q0 .64-.04 1.28a41 41 0 0 1-.12 1.44q.72-.04 1.4-.08l1.44-.08V448zm-.36-9.8q-1.36.04-2.88.36-1.48.28-2.76.88-1.24.6-2.04 1.6-.76.96-.72 2.36.08 1.48.96 2.24.92.72 2.16.72 1.64 0 2.84-.6 1.24-.64 2.44-1.76-.04-.44-.04-.96v-2.36q.04-1.08.04-2.48m17.385 10.44q-2.44 0-4.4-1.2-1.96-1.24-3.12-3.52-1.12-2.28-1.12-5.36 0-3.28 1.32-5.8t3.64-3.96q2.36-1.44 5.32-1.44 1.32 0 2.6.36 1.32.32 2.08.76v-6.68q.04-.6.12-1.4l-1.44.08q-.68.04-1.4.08v-1.68q1.76 0 2.72-.16t1.44-.4q.52-.24.8-.52h1.16v25.96q0 .64-.04 1.28a41 41 0 0 1-.12 1.44q.72-.04 1.4-.08l1.44-.08V448h-5.72q-.12-.6-.2-1.08-.04-.52-.08-1-1.12 1.24-2.76 2-1.64.72-3.64.72m1.44-1.96q1.32 0 2.64-.76 1.36-.76 2.24-1.88a12 12 0 0 1-.04-1v-1.2l.04-11.52a6.3 6.3 0 0 0-2.12-1.04 7.5 7.5 0 0 0-2.32-.36q-2 0-3.48 1.16t-2.24 3.24-.68 4.88q.08 2.44.76 4.36.72 1.92 2 3.04 1.32 1.08 3.2 1.08m31.934 1.96q-.92 0-1.88-.28-.96-.24-1.8-1-.8-.76-1.28-2.2-.48-1.48-.48-3.88l.08-11.6-3.08.04V428q1.04-.04 2.12-.76 1.08-.76 1.92-2.04a7.7 7.7 0 0 0 1.2-2.8h1.36v5.6h6.72v1.56l-6.72.08-.08 11.12q0 1.8.28 3.08.32 1.24 1 1.88t1.76.64q1.12 0 2.08-.64 1-.64 1.76-1.76l1.08.88q-.88 1.32-1.76 2.08-.84.76-1.64 1.12-.8.4-1.48.48-.68.12-1.16.12m20.789-1.84q1.24 0 1.72-.6.48-.64.56-1.72.08-1.12.08-2.56v-5.6q0-3.44-1.12-5.16-1.08-1.72-3.44-1.68-1.48.04-2.92.72-1.401.68-2.28 1.76v11.8q0 .8-.04 1.44-.04.6-.16 1.28.64-.04 1.24-.04l1.28-.08V448h-8.16v-1.2q1.24 0 1.72-.6.48-.64.56-1.72.12-1.12.12-2.56V421.8q.039-.6.12-1.4l-1.44.08q-.68.04-1.4.08v-1.68q1.76 0 2.72-.16 1-.16 1.48-.4.52-.24.8-.52h1.16V430a10 10 0 0 1 1.96-1.32q1.119-.6 2.28-.96 1.2-.36 2.32-.36 3.48 0 5 2.2 1.56 2.16 1.6 6.76l.04 7.44q0 .8-.04 1.44 0 .6-.12 1.28.64-.04 1.24-.04l1.28-.08V448h-8.16zm11.105 0q1.24 0 1.72-.6.48-.64.56-1.72.08-1.12.08-2.56v-9.12q0-.64.04-1.2.04-.6.12-1.4l-1.44.08q-.68.04-1.4.08v-1.68q1.76 0 2.72-.16t1.44-.4q.52-.24.8-.52h1.16v16.16q0 .8-.04 1.44 0 .6-.12 1.28.64-.04 1.24-.04l1.28-.08V448h-8.16zm3.84-23.16q-.84 0-1.48-.68t-.64-1.68.64-1.68q.68-.72 1.52-.72.92 0 1.52.72.64.68.64 1.68t-.68 1.68q-.64.68-1.52.68m15.61 25q-2 0-3.56-.56-1.56-.52-2.56-1.2l.16 1.4h-1.68l-.24-6.88h1.24q.08 1.64.92 2.96.84 1.28 2.16 2t2.84.72q1.04 0 2.04-.32a4.5 4.5 0 0 0 1.68-1.04q.68-.72.68-1.8 0-1.12-.68-1.84-.64-.76-1.72-1.32t-2.32-1.04q-1.2-.48-2.4-1t-2.24-1.24a5.6 5.6 0 0 1-1.6-1.76q-.6-1.04-.6-2.56 0-.84.32-1.84a5.4 5.4 0 0 1 1.08-1.88q.76-.92 2.08-1.48 1.32-.6 3.36-.6 1.08 0 2.4.36t2.56 1.36l-.08-1.52h1.68v7h-1.28a7.7 7.7 0 0 0-.64-2.68q-.56-1.32-1.64-2.16-1.08-.88-2.8-.88-1.84 0-2.88.92t-1.04 2.12q0 1.24.76 2.08.8.8 2.04 1.4t2.64 1.16q1.52.64 2.96 1.4t2.36 1.92q.92 1.12.92 2.92 0 2-1.04 3.32a5.7 5.7 0 0 1-2.6 1.92 8.6 8.6 0 0 1-3.28.64m20.424-1.84q1.24 0 1.72-.6.48-.64.56-1.72.08-1.12.08-2.56V421.8q.039-.6.12-1.4l-1.44.08q-.68.04-1.4.08v-1.68q1.76 0 2.72-.16 1-.16 1.48-.4.52-.24.8-.52h1.16l.04 25.96q0 .8-.04 1.44-.04.6-.16 1.28.64-.04 1.24-.04l1.28-.08V448h-8.16zm23.458 1.2q-.12-.68-.16-1.2a17 17 0 0 0-.12-1.08 11.4 11.4 0 0 1-2.96 2.16 7.5 7.5 0 0 1-3.32.76q-3.04 0-4.52-1.36-1.48-1.4-1.48-3.4 0-1.84 1.12-3.16 1.16-1.36 2.96-2.2a16 16 0 0 1 3.96-1.28 19 19 0 0 1 4.16-.4v-2.48q0-1.4-.24-2.64t-1.04-2.04-2.56-.84q-1.16-.04-2.4.44-1.2.48-1.76 1.64.32.32.4.76.12.4.12.76 0 .48-.4 1.12-.4.6-1.4.56-.84 0-1.28-.56-.44-.6-.44-1.4 0-1.36 1-2.44 1.04-1.08 2.84-1.72t4.08-.64q3.36 0 4.96 1.8 1.6 1.76 1.56 5.6v3q0 1.48-.04 3v3q0 .64-.04 1.28a41 41 0 0 1-.12 1.44q.72-.04 1.4-.08l1.44-.08V448zm-.36-9.8q-1.36.04-2.88.36-1.48.28-2.76.88-1.24.6-2.04 1.6-.76.96-.72 2.36.08 1.48.96 2.24.92.72 2.16.72 1.64 0 2.84-.6 1.24-.64 2.44-1.76-.04-.44-.04-.96v-2.36q.04-1.08.04-2.48m17.025 10.44q-2 0-3.56-.56-1.56-.52-2.56-1.2l.16 1.4h-1.68l-.24-6.88h1.24q.08 1.64.92 2.96.84 1.28 2.16 2t2.84.72q1.04 0 2.04-.32a4.5 4.5 0 0 0 1.68-1.04q.68-.72.68-1.8 0-1.12-.68-1.84-.64-.76-1.72-1.32t-2.32-1.04q-1.2-.48-2.4-1t-2.24-1.24a5.6 5.6 0 0 1-1.6-1.76q-.6-1.04-.6-2.56 0-.84.32-1.84a5.4 5.4 0 0 1 1.08-1.88q.76-.92 2.08-1.48 1.32-.6 3.36-.6 1.08 0 2.4.36t2.56 1.36l-.08-1.52h1.68v7h-1.28a7.7 7.7 0 0 0-.64-2.68q-.56-1.32-1.64-2.16-1.08-.88-2.8-.88-1.84 0-2.88.92t-1.04 2.12q0 1.24.76 2.08.8.8 2.04 1.4t2.64 1.16q1.52.64 2.96 1.4t2.36 1.92q.92 1.12.92 2.92 0 2-1.04 3.32a5.7 5.7 0 0 1-2.6 1.92 8.6 8.6 0 0 1-3.28.64m17.836 0a6.7 6.7 0 0 1-1.88-.28q-.96-.24-1.8-1-.8-.76-1.28-2.2-.48-1.48-.48-3.88l.08-11.6-3.08.04V428q1.04-.04 2.12-.76 1.08-.76 1.92-2.04a7.7 7.7 0 0 0 1.2-2.8h1.36v5.6h6.72v1.56l-6.72.08-.08 11.12q0 1.8.28 3.08.32 1.24 1 1.88t1.76.64q1.12 0 2.08-.64 1-.64 1.76-1.76l1.08.88q-.88 1.32-1.76 2.08-.84.76-1.64 1.12-.8.4-1.48.48-.68.12-1.16.12m-589.93 95.96-25.68-44.76-6.84-1.56v-7.44h35.28v7.44l-8.52 1.56 15 29.4 3.36 8.28 3.48-8.28 13.8-29.4-9.36-1.56v-7.44h29.28v7.44l-7.44 1.44-23.88 44.76v27.12l13.08 1.2v7.2h-44.28v-7.2l12.72-1.2zm52.964 2.16q0-11.28 4.44-19.2 4.56-7.92 12.12-11.88 7.56-4.08 16.44-4.08 15.12 0 23.28 9.36 8.28 9.24 8.28 25.2 0 11.4-4.56 19.44-4.44 7.92-12 11.88-7.44 3.84-16.44 3.84-15 0-23.28-9.24-8.28-9.36-8.28-25.32m32.52 26.76q13.56 0 13.56-26.16 0-13.68-3.24-20.76-3.24-7.2-10.56-7.2-13.92 0-13.92 26.16 0 13.68 3.36 20.88 3.48 7.08 10.8 7.08m97.068 7.68q-3.96 0-5.76-1.68t-1.8-5.04v-3.24q-3.24 3.96-9.12 7.08-5.88 3-11.76 3-11.52 0-16.44-5.88-4.92-6-4.92-19.68v-33.84l-6-1.68v-6.84l20.4-1.56h.12l2.4 1.68v42.24q0 8.76 2.16 12.24t8.04 3.48q7.08 0 13.2-5.52v-44.04l-8.04-1.8v-6.72l21.72-1.56h.24l2.88 1.68v59.04h6.72l-.12 6.84q-.48.12-4.44.96t-9.48.84m43.918-67.8h30.96v6.84l-8.4 1.44 8.88 31.92 2.88 13.08 2.64-13.2 10.8-40.08h14.52l11.88 40.08 2.88 13.2 2.88-13.08 8.4-31.8-8.76-1.56v-6.84h25.68v6.84l-6.12 1.32-18.24 59.4h-13.8l-12.12-38.88-2.76-14.28-2.16 14.28-11.16 38.88h-13.92l-19.2-59.4-5.76-1.32zm122.141-11.04q-4.32 0-6.84-2.52t-2.52-6.48q0-4.56 2.88-7.56t7.68-3 7.32 2.64q2.52 2.52 2.52 6.36 0 4.8-2.88 7.68t-8.04 2.88zm-6.36 22.32-8.52-2.28v-8.04l21.96-2.64h.24l3.36 2.4v57.72l8.04.96v7.2h-33.48v-7.2l8.4-1.08zm40.641-32.4-8.88-1.56v-6.48l22.2-2.64h.24l3.24 2.28v87.96l8.76.96v7.2h-33.96v-7.2l8.4-1.08zm40.782 0-8.88-1.56v-6.48l22.2-2.64h.24l3.24 2.28v87.96l8.76.96v7.2h-33.96v-7.2l8.4-1.08zm62.298 80.64 7.92-.96v-47.28l-7.68-2.16v-8.28l18.6-2.52h.36l3 2.4v2.64l-.36 9.72h.36q.84-2.4 3.96-5.88 3.12-3.6 7.8-6.24 4.8-2.76 10.32-2.76 2.64 0 4.56.72v18q-3.6-2.52-8.76-2.52-8.76 0-15.24 4.68v39.36l13.92 1.08V580h-38.76zm86.724 8.4q-15.84 0-23.64-9.24-7.68-9.36-7.68-25.44 0-10.8 3.96-18.72 4.08-7.92 11.4-12.12t16.92-4.2q12 0 18.48 6.36 6.48 6.24 6.72 17.88 0 7.92-.96 11.76h-39q.48 10.92 5.16 17.04 4.68 6 13.32 6 4.68 0 9.6-1.56 5.04-1.56 7.92-3.72l3 6.6q-3.24 3.48-10.56 6.48-7.2 2.88-14.64 2.88m9.36-40.92q.24-3.36.24-5.16 0-15.96-10.68-15.96-5.88 0-9.12 4.68t-3.6 16.44zm25.056 20.88q0-10.92 10.92-16.44 11.04-5.52 28.44-5.64v-2.76q0-4.92-1.08-7.68-.96-2.76-3.72-4.08-2.64-1.44-7.8-1.44-5.88 0-10.56 1.56-4.68 1.44-9.72 3.84l-3.72-7.68q1.8-1.56 6-3.72 4.32-2.16 10.2-3.72a44 44 0 0 1 12.12-1.68q9.24 0 14.4 2.4 5.28 2.4 7.56 7.68t2.28 14.16v36.72h6.48v6.72q-2.4.6-6.84 1.2t-7.8.6q-4.08 0-5.52-1.2-1.32-1.2-1.32-4.92v-3.24q-3.24 3.6-8.4 6.48t-11.64 2.88q-5.52 0-10.2-2.28-4.56-2.4-7.32-6.84-2.76-4.56-2.76-10.92m27.96 10.08q2.52 0 5.76-1.44 3.24-1.56 5.64-3.72v-19.68q-10.8 0-16.2 3.72-5.28 3.6-5.28 9.36t2.64 8.76q2.76 3 7.44 3m66.409 9.96q-7.44 0-13.32-3.48-5.88-3.6-9.36-11.04t-3.48-18.6q0-10.08 4.08-18.36 4.2-8.4 12.24-13.32t19.32-4.92q4.56 0 8.64.96v-20.28l-11.76-1.68V484l24.72-2.4h.36l3.36 2.52v88.56h6.48v6.84q-8.64 1.8-14.28 1.8-3.84 0-5.52-1.32-1.56-1.2-1.56-4.92v-3.36q-3.12 4.2-8.52 6.96-5.4 2.64-11.4 2.64m6.24-9.96q3.96 0 6.96-1.56 3.12-1.68 4.92-3.96v-43.68q-.84-1.2-3.6-2.04-2.64-.84-5.76-.84-7.68 0-12.36 6.72-4.56 6.6-4.56 21.24 0 12.24 3.96 18.24 3.96 5.88 10.44 5.88M300.58 713.08q-7.56 0-11.16-3.48t-3.6-11.04v-44.04h-7.8v-6.24q.96-.36 3.48-1.2 2.52-.96 3.84-1.56 2.04-1.56 3.48-5.4 1.08-2.52 3.96-12.48h9.6l.48 17.64h18.36v9.24h-18.24v33.72q0 6.72.36 9.48t1.56 3.6q1.2.72 4.2.72t6.24-.6q3.24-.72 5.4-1.68l2.28 6.72q-3.36 2.52-9.84 4.56t-12.6 2.04m34.464-88.8-9.12-1.56v-6.48l22.32-2.64h.36l3.12 2.28.12 26.76-.84 10.44q3.72-3.36 10.08-6.24a33 33 0 0 1 13.56-2.88q7.56 0 11.76 2.88 4.2 2.76 5.88 8.52t1.68 15.36v33l7.68 1.08v7.2h-31.56v-7.2l6.96-1.08v-33q0-6.24-.84-9.72t-3.12-5.16q-2.16-1.68-6.48-1.68-3.72 0-7.68 1.8-3.84 1.68-6.84 4.08v43.68l7.32 1.08v7.2h-31.08v-7.2l6.72-.96zm89.031 10.08q-4.32 0-6.84-2.52t-2.52-6.48q0-4.56 2.88-7.56t7.68-3 7.32 2.64q2.52 2.52 2.52 6.36 0 4.8-2.88 7.68t-8.04 2.88zm-6.36 22.32-8.52-2.28v-8.04l21.96-2.64h.24l3.36 2.4v57.72l8.04.96v7.2h-33.48v-7.2l8.4-1.08zm47.001 45.48q.96 1.44 4.32 2.76 3.48 1.2 6.96 1.2 5.64 0 8.4-2.28 2.88-2.4 2.88-6.24 0-3.96-3.48-6.36-3.48-2.52-11.76-6.12l-3.36-1.44q-8.28-3.48-12.36-8.4t-4.08-12.72q0-5.4 3.24-9.6 3.24-4.32 9.12-6.72t13.56-2.4q5.64 0 9.6.72 4.08.72 8.52 1.92 2.4.84 3.6.96v15.72h-9.48l-2.76-9.12q-.72-1.2-3.24-2.16t-5.76-.96q-4.92 0-7.92 2.16-2.88 2.04-2.88 5.76 0 3.36 2.04 5.64 2.04 2.16 4.44 3.36t8.88 3.96 10.68 5.28q4.32 2.52 7.08 6.6 2.88 3.96 2.88 9.72 0 8.88-6.96 14.4t-20.04 5.52q-6.12 0-11.04-1.08-4.8-1.08-11.16-2.88l-2.64-.84v-15.84h9.96zm85.663-47.52h-10.08v-6.72l10.08-2.4v-5.28q0-7.8 4.08-14.28 4.2-6.48 11.16-10.2 6.96-3.84 14.76-3.84 4.08 0 7.68 1.2v15.36q-1.2-1.2-4.8-2.4-3.48-1.2-7.32-1.2-4.68 0-6.72 2.4-1.92 2.28-1.92 7.92v10.2h15.24v9.24h-15.24v49.2l12.6.96v7.2h-39v-7.2l9.48-1.08zm54.96-20.28q-4.32 0-6.84-2.52t-2.52-6.48q0-4.56 2.88-7.56t7.68-3 7.32 2.64q2.52 2.52 2.52 6.36 0 4.8-2.88 7.68t-8.04 2.88zm-6.36 22.32-8.52-2.28v-8.04l21.96-2.64h.24l3.36 2.4v57.72l8.04.96v7.2h-33.48v-7.2l8.4-1.08zm33.706 48.24 7.92-.96v-47.28l-7.68-2.16v-8.28l18.6-2.52h.36l3 2.4v2.64l-.36 9.72h.36q.84-2.4 3.96-5.88 3.12-3.6 7.8-6.24 4.8-2.76 10.32-2.76 2.64 0 4.56.72v18q-3.6-2.52-8.76-2.52-8.76 0-15.24 4.68v39.36l13.92 1.08V712h-38.76zm69.805-2.76q.96 1.44 4.32 2.76 3.48 1.2 6.96 1.2 5.64 0 8.4-2.28 2.88-2.4 2.88-6.24 0-3.96-3.48-6.36-3.48-2.52-11.76-6.12l-3.36-1.44q-8.28-3.48-12.36-8.4t-4.08-12.72q0-5.4 3.24-9.6 3.24-4.32 9.12-6.72t13.56-2.4q5.64 0 9.6.72 4.08.72 8.52 1.92 2.4.84 3.6.96v15.72h-9.48l-2.76-9.12q-.72-1.2-3.24-2.16t-5.76-.96q-4.92 0-7.92 2.16-2.88 2.04-2.88 5.76 0 3.36 2.04 5.64 2.04 2.16 4.44 3.36t8.88 3.96 10.68 5.28q4.32 2.52 7.08 6.6 2.88 3.96 2.88 9.72 0 8.88-6.96 14.4t-20.04 5.52q-6.12 0-11.04-1.08-4.8-1.08-11.16-2.88l-2.64-.84v-15.84h9.96zm69.066 10.92q-7.56 0-11.16-3.48t-3.6-11.04v-44.04h-7.8v-6.24q.96-.36 3.48-1.2 2.52-.96 3.84-1.56 2.04-1.56 3.48-5.4 1.08-2.52 3.96-12.48h9.6l.48 17.64h18.36v9.24h-18.24v33.72q0 6.72.36 9.48t1.56 3.6q1.2.72 4.2.72t6.24-.6q3.24-.72 5.4-1.68l2.28 6.72q-3.36 2.52-9.84 4.56t-12.6 2.04m-462.545 74.448q-.048-2.832-.576-4.704t-1.872-2.784q-1.296-.96-3.792-.912h-4.08l-.048 26.16q0 1.296-.048 2.256 0 .912-.096 1.536l1.968-.096 2.016-.096V811h-11.28v-1.584q1.824-.096 2.448-.864.672-.768.72-2.064a42 42 0 0 0 .096-2.976l.048-24.336-4.944.048q-3.024 0-4.272 2.016t-1.248 6.288h-1.776l.288-10.128h27.984l.288 10.128zm20.431 22.032q1.488 0 2.064-.72.576-.768.672-2.064a44 44 0 0 0 .096-3.072v-6.72q0-4.128-1.344-6.192-1.296-2.064-4.128-2.016-1.776.048-3.504.864-1.68.816-2.736 2.112v14.16q0 .96-.048 1.728-.048.72-.192 1.536a24 24 0 0 1 1.488-.048l1.536-.096V811h-9.792v-1.44q1.488 0 2.064-.72.576-.768.672-2.064.144-1.344.144-3.072V779.56q.048-.72.144-1.68l-1.728.096-1.68.096v-2.016q2.112 0 3.264-.192 1.2-.192 1.776-.48.624-.288.96-.624h1.392v14.64a12 12 0 0 1 2.352-1.584q1.344-.72 2.736-1.152a9.7 9.7 0 0 1 2.784-.432q4.176 0 6 2.64 1.872 2.592 1.92 8.112l.048 8.928q0 .96-.048 1.728 0 .72-.144 1.536a24 24 0 0 1 1.488-.048l1.536-.096V811h-9.792zm24.942 2.208q-3.312 0-6-1.536-2.64-1.584-4.176-4.416-1.536-2.88-1.536-6.768 0-3.36 1.488-6.288a12.35 12.35 0 0 1 4.272-4.704q2.736-1.824 6.336-1.824 2.016 0 3.744.672a8.2 8.2 0 0 1 3.12 1.968q1.344 1.296 2.112 3.312.768 1.968.768 4.656l-16.896.288q0 3.648.768 6.432.816 2.736 2.592 4.272 1.776 1.488 4.56 1.488 1.488 0 3.024-.528a11.9 11.9 0 0 0 2.928-1.44q1.344-.912 2.16-2.016l1.152.96q-1.296 2.016-3.12 3.216t-3.744 1.728-3.552.528m-6.624-16.656H360q0-1.728-.528-3.312-.48-1.632-1.632-2.64-1.152-1.056-3.024-1.056-2.784 0-4.656 1.68-1.824 1.632-2.4 5.328M368.784 811v-1.44q1.488 0 2.064-.72.576-.768.672-2.064a44 44 0 0 0 .096-3.072l.048-10.944v-1.536q.048-.768.192-1.584l-1.728.096-1.68.096v-2.016q2.112 0 3.168-.192 1.104-.192 1.632-.48t.864-.624h1.392q.048.336.048.768.048.432.096.96t.048 1.2a15 15 0 0 1 2.304-1.632q1.296-.72 2.688-1.152a9.8 9.8 0 0 1 2.832-.432q4.176 0 6.096 2.64 1.92 2.592 1.92 8.112v8.928q0 .96-.048 1.728 0 .72-.144 1.536a24 24 0 0 1 1.488-.048l1.536-.096V811h-9.792v-1.44q1.488 0 2.064-.72.576-.768.672-2.064a44 44 0 0 0 .096-3.072v-6.72q-.048-4.128-1.392-6.24-1.296-2.112-4.128-2.064-1.728.048-3.408.912a8.9 8.9 0 0 0-2.736 2.208q.048.384.048.864v1.008l-.048 12.24q0 .96-.048 1.728 0 .72-.144 1.536a24 24 0 0 1 1.488-.048l1.536-.096V811zm45.462 13.008q-1.488 0-2.544-.72t-1.056-2.208q0-.864.576-1.584t1.488-.72q1.152-.048 1.536.72.432.768.432 1.344v.288q0 .192-.048.384.143.096.528.096.576 0 1.248-.48t1.2-1.392q.624-1.056 1.44-3.168a130 130 0 0 0 1.92-5.04l-7.488-16.032q-1.248-2.688-1.824-4.272-.528-1.584-.72-2.352l-2.304.096V787h9.936v1.44h-.192q-2.016.144-2.208 1.536-.192 1.344 1.104 4.128l5.616 12.048q1.104-3.072 2.112-6.048 1.008-3.024 2.016-6 .384-1.056.768-2.16.432-1.152.816-2.016.432-.912.768-1.152l-3.312.192V787h7.536v1.44q-1.776.672-2.688 2.256-.864 1.536-1.776 3.984l-6 16.752q-1.44 4.032-2.64 6.816-1.2 2.832-2.64 4.272-1.44 1.488-3.6 1.488m33.098-12.24q-3.36 0-6.096-1.536a12 12 0 0 1-4.368-4.32q-1.584-2.784-1.584-6.336 0-3.792 1.584-6.816t4.32-4.752q2.736-1.776 6.144-1.776 3.36 0 6.096 1.632a12 12 0 0 1 4.368 4.32q1.632 2.736 1.632 6.24 0 3.696-1.632 6.768-1.584 3.024-4.32 4.8t-6.144 1.776m.384-1.92q2.544 0 4.032-1.44t2.112-3.744q.672-2.304.672-4.848 0-2.16-.432-4.224-.384-2.112-1.248-3.792-.864-1.728-2.256-2.736-1.344-1.008-3.264-1.008-2.496 0-4.08 1.44t-2.352 3.744q-.72 2.304-.72 4.944 0 2.976.816 5.664.816 2.64 2.496 4.32t4.224 1.68m25.918 1.92q-2.592 0-4.368-.96-1.728-.96-2.64-3.264-.864-2.304-.864-6.24v-10.08q.048-.768.192-1.584l-1.68.096q-.816 0-1.632.048v-1.968h1.488q2.064 0 2.976-.384.96-.432 1.488-.912h1.392v14.64q0 4.128 1.152 6.192 1.2 2.016 4.032 1.968 1.824-.048 3.456-1.104 1.68-1.104 2.688-2.592v-12.336q0-1.152.048-1.968a14 14 0 0 1 .192-1.68l-1.728.096q-.864 0-1.728.048v-1.968h1.488q2.064 0 2.976-.384.96-.432 1.488-.912h1.392l-.048 18.144q0 .768-.048 2.16t-.144 2.352l1.728-.096 1.728-.096V811h-6.864a37 37 0 0 1-.24-1.536q-.048-.72-.096-1.344-1.488 1.488-3.6 2.592-2.112 1.056-4.224 1.056m39.378-.624-6.288-18.432a32 32 0 0 0-.624-1.728q-.24-.72-.384-1.248a45 45 0 0 1-.24-.912l-2.544.144V787h10.176v1.44q-2.16.048-2.4 1.488-.192 1.392.576 3.696l2.208 6.72q.384 1.152.768 2.352l.768 2.304.864-2.592q.48-1.344.912-2.688l4.272-12.72h1.968l4.848 13.968q.384 1.056.768 2.16l.768 2.208q.384-1.056.72-2.064a55 55 0 0 0 .72-2.112l3.168-9.12a57 57 0 0 1 .672-1.824q.336-.864.768-1.392l-2.784.144V787h8.352v1.44q-1.248.048-2.064.336a4 4 0 0 0-1.296.768 3.9 3.9 0 0 0-.864 1.152q-.336.672-.624 1.536l-6.912 18.912h-1.92l-4.56-13.104q-.288-.864-.576-1.68-.288-.864-.576-1.68-.288-.864-.576-1.68-.288.816-.576 1.68-.288.816-.576 1.68-.288.816-.576 1.68l-4.512 13.104zm30.182-1.584q1.488 0 2.064-.72.576-.768.672-2.064a44 44 0 0 0 .096-3.072V792.76q0-.768.048-1.44.048-.72.144-1.68l-1.728.096-1.68.096v-2.016q2.112 0 3.264-.192t1.728-.48q.624-.288.96-.624h1.392v19.392q0 .96-.048 1.728 0 .72-.144 1.536a24 24 0 0 1 1.488-.048l1.536-.096V811h-9.792zm4.608-27.792q-1.008 0-1.776-.816t-.768-2.016.768-2.016q.816-.864 1.824-.864 1.104 0 1.824.864.768.816.768 2.016t-.816 2.016q-.768.816-1.824.816m8.412 27.792q1.488 0 2.064-.72.576-.768.672-2.064a44 44 0 0 0 .096-3.072V779.56q.048-.72.144-1.68l-1.728.096-1.68.096v-2.016q2.112 0 3.264-.192 1.2-.192 1.776-.48.624-.288.96-.624h1.392l.048 31.152q0 .96-.048 1.728-.048.72-.192 1.536a24 24 0 0 1 1.488-.048l1.536-.096V811h-9.792zm13.078 0q1.488 0 2.064-.72.576-.768.672-2.064a44 44 0 0 0 .096-3.072V779.56q.048-.72.144-1.68l-1.728.096-1.68.096v-2.016q2.112 0 3.264-.192 1.2-.192 1.776-.48.624-.288.96-.624h1.392l.048 31.152q0 .96-.048 1.728-.048.72-.192 1.536a24 24 0 0 1 1.488-.048l1.536-.096V811h-9.792zm26.167 0q1.488 0 2.064-.72.576-.768.672-2.064a44 44 0 0 0 .096-3.072v-12.48q.048-.768.192-1.584l-1.728.096q-.816 0-1.68.048v-1.968h1.488q2.064 0 2.832-.384.816-.432 1.344-.912h1.392q.096.768.144 1.92.048 1.104.096 2.832.72-1.2 1.968-2.352a12 12 0 0 1 2.784-1.92 7.5 7.5 0 0 1 3.312-.768q1.344 0 2.352.72t1.008 2.304q0 .384-.24.96-.24.528-.768.96-.528.384-1.392.384-1.056-.048-1.68-.816-.624-.816-.48-1.872-1.2-.048-2.496.624-1.248.672-2.352 1.872-1.104 1.152-1.968 2.736l.048 11.808q0 .96-.048 1.728 0 .72-.144 1.536a24 24 0 0 1 1.488-.048l1.536-.096V811h-9.84zm32.054 2.208q-3.312 0-6-1.536-2.64-1.584-4.176-4.416-1.536-2.88-1.536-6.768 0-3.36 1.488-6.288a12.35 12.35 0 0 1 4.272-4.704q2.736-1.824 6.336-1.824 2.016 0 3.744.672a8.2 8.2 0 0 1 3.12 1.968q1.344 1.296 2.112 3.312.768 1.968.768 4.656l-16.896.288q0 3.648.768 6.432.816 2.736 2.592 4.272 1.776 1.488 4.56 1.488 1.488 0 3.024-.528a11.9 11.9 0 0 0 2.928-1.44q1.344-.912 2.16-2.016l1.152.96q-1.296 2.016-3.12 3.216t-3.744 1.728-3.552.528m-6.624-16.656h12.24q0-1.728-.528-3.312-.48-1.632-1.632-2.64-1.152-1.056-3.024-1.056-2.784 0-4.656 1.68-1.824 1.632-2.4 5.328M656.423 811a15 15 0 0 1-.192-1.44q-.048-.624-.144-1.296-1.632 1.632-3.552 2.592a9 9 0 0 1-3.984.912q-3.648 0-5.424-1.632-1.776-1.68-1.776-4.08 0-2.208 1.344-3.792 1.392-1.632 3.552-2.64a19.2 19.2 0 0 1 4.752-1.536q2.592-.528 4.992-.48v-2.976q0-1.68-.288-3.168t-1.248-2.448-3.072-1.008q-1.392-.048-2.88.528a3.86 3.86 0 0 0-2.112 1.968q.384.384.48.912.144.48.144.912 0 .576-.48 1.344-.48.72-1.68.672-1.008 0-1.536-.672-.528-.72-.528-1.68 0-1.632 1.2-2.928 1.248-1.296 3.408-2.064t4.896-.768q4.032 0 5.952 2.16 1.92 2.112 1.872 6.72v3.6q0 1.776-.048 3.6v3.6q0 .768-.048 1.536t-.144 1.728l1.68-.096 1.728-.096V811zm-.432-11.76q-1.632.048-3.456.432a13.8 13.8 0 0 0-3.312 1.056q-1.488.72-2.448 1.92-.912 1.152-.864 2.832.096 1.776 1.152 2.688 1.104.864 2.592.864 1.968 0 3.408-.72 1.488-.768 2.928-2.112a13 13 0 0 1-.048-1.152v-2.832q.048-1.296.048-2.976m20.862 12.528q-2.928 0-5.28-1.44-2.352-1.488-3.744-4.224-1.344-2.736-1.344-6.432 0-3.936 1.584-6.96t4.368-4.752q2.832-1.728 6.384-1.728 1.584 0 3.12.432 1.584.384 2.496.912v-8.016q.048-.72.144-1.68l-1.728.096-1.68.096v-2.016q2.112 0 3.264-.192t1.728-.48q.624-.288.96-.624h1.392v31.152q0 .768-.048 1.536t-.144 1.728l1.68-.096 1.728-.096V811h-6.864q-.144-.72-.24-1.296-.048-.624-.096-1.2-1.344 1.488-3.312 2.4-1.968.864-4.368.864m1.728-2.352q1.584 0 3.168-.912 1.632-.912 2.688-2.256a15 15 0 0 1-.048-1.2v-1.44l.048-13.824a7.6 7.6 0 0 0-2.544-1.248 9 9 0 0 0-2.784-.432q-2.4 0-4.176 1.392t-2.688 3.888-.816 5.856q.096 2.928.912 5.232.864 2.304 2.4 3.648 1.584 1.296 3.84 1.296m38.321 2.352a8 8 0 0 1-2.256-.336q-1.152-.288-2.16-1.2-.96-.912-1.536-2.64-.576-1.776-.576-4.656l.096-13.92-3.696.048V787q1.248-.048 2.544-.912 1.296-.912 2.304-2.448a9.2 9.2 0 0 0 1.44-3.36h1.632V787h8.064v1.872l-8.064.096-.096 13.344q0 2.16.336 3.696.384 1.488 1.2 2.256t2.112.768q1.344 0 2.496-.768 1.2-.768 2.112-2.112l1.296 1.056q-1.056 1.584-2.112 2.496-1.008.912-1.968 1.344-.96.48-1.776.576a8 8 0 0 1-1.392.144m24.946-2.208q1.488 0 2.064-.72.576-.768.672-2.064a44 44 0 0 0 .096-3.072v-6.72q0-4.128-1.344-6.192-1.296-2.064-4.128-2.016-1.776.048-3.504.864-1.68.816-2.736 2.112v14.16q0 .96-.048 1.728-.048.72-.192 1.536a24 24 0 0 1 1.488-.048l1.536-.096V811h-9.792v-1.44q1.488 0 2.064-.72.576-.768.672-2.064.144-1.344.144-3.072V779.56q.048-.72.144-1.68l-1.728.096-1.68.096v-2.016q2.112 0 3.264-.192 1.2-.192 1.776-.48.624-.288.96-.624h1.392v14.64a12 12 0 0 1 2.352-1.584q1.344-.72 2.736-1.152a9.7 9.7 0 0 1 2.784-.432q4.176 0 6 2.64 1.872 2.592 1.92 8.112l.048 8.928q0 .96-.048 1.728 0 .72-.144 1.536a24 24 0 0 1 1.488-.048l1.536-.096V811h-9.792zm13.327 0q1.488 0 2.064-.72.576-.768.672-2.064a44 44 0 0 0 .096-3.072V792.76q0-.768.048-1.44.048-.72.144-1.68l-1.728.096-1.68.096v-2.016q2.112 0 3.264-.192t1.728-.48q.624-.288.96-.624h1.392v19.392q0 .96-.048 1.728 0 .72-.144 1.536a24 24 0 0 1 1.488-.048l1.536-.096V811h-9.792zm4.608-27.792q-1.008 0-1.776-.816t-.768-2.016.768-2.016q.816-.864 1.824-.864 1.104 0 1.824.864.768.816.768 2.016t-.816 2.016q-.768.816-1.824.816m18.732 30q-2.4 0-4.272-.672-1.872-.624-3.072-1.44l.192 1.68h-2.016l-.288-8.256h1.488q.096 1.968 1.104 3.552a7.17 7.17 0 0 0 2.592 2.4 7 7 0 0 0 3.408.864q1.248 0 2.448-.384 1.2-.432 2.016-1.248.816-.864.816-2.16 0-1.344-.816-2.208-.768-.912-2.064-1.584a28 28 0 0 0-2.784-1.248q-1.44-.576-2.88-1.2a15.6 15.6 0 0 1-2.688-1.488 6.7 6.7 0 0 1-1.92-2.112q-.72-1.248-.72-3.072 0-1.008.384-2.208t1.296-2.256q.912-1.104 2.496-1.776 1.584-.72 4.032-.72 1.296 0 2.88.432t3.072 1.632l-.096-1.824h2.016v8.4h-1.536a9.3 9.3 0 0 0-.768-3.216q-.672-1.584-1.968-2.592-1.296-1.056-3.36-1.056-2.208 0-3.456 1.104t-1.248 2.544q0 1.488.912 2.496.96.96 2.448 1.68t3.168 1.392q1.824.768 3.552 1.68t2.832 2.304q1.104 1.344 1.104 3.504 0 2.4-1.248 3.984-1.2 1.584-3.12 2.304a10.3 10.3 0 0 1-3.936.768"/></svg>