<svg xmlns="http://www.w3.org/2000/svg" width="1080" height="1350" fill="none"><path fill="#000" d="m308.211 446.4-3.12-8h-12.96l-3.12 7.92-3.24-1.32 10.96-27h4.16l10.8 27zm-14.88-11.2h10.52l-5.24-13.44zM315.29 446v-20.8h3.48v3.48a9.8 9.8 0 0 1 2.84-2.8q1.76-1.16 4.16-1.16 3.52 0 5.24 2.12 1.76 2.12 1.76 5.6V446h-3.6v-13.16q0-2.24-1.08-3.6-1.04-1.36-2.92-1.36-1.84 0-3.48 1.32a12.7 12.7 0 0 0-2.8 3.04V446zm31.552.48q-2.56 0-4.68-1.32-2.121-1.32-3.36-3.72-1.24-2.44-1.24-5.72 0-3.16 1.24-5.64 1.28-2.48 3.36-3.92 2.12-1.44 4.64-1.44 2.08 0 3.56.84 1.52.84 2.36 1.72V416.4h3.6v24.56q0 1.52.72 2 .76.44 1.64.44l-.76 2.8q-3.8 0-4.64-3.04-.88 1.24-2.48 2.28-1.56 1.04-3.96 1.04m.8-3.2q1.48 0 2.8-.68a7.4 7.4 0 0 0 2.28-1.84v-10.32q-.76-.96-2.12-1.76a5.6 5.6 0 0 0-3-.84q-1.92 0-3.36 1.04t-2.24 2.8q-.76 1.72-.76 3.92t.84 3.96q.84 1.72 2.28 2.72 1.48 1 3.28 1m28.363 12q-1.2 0-2.12-.24-.88-.24-1.4-.56l.8-3q.48.28 1.2.48t1.6.2q1.68 0 3-1.08t2.52-4.24l.92-2.4h-1.92l-8.12-18.28 3.2-1.44 7.76 17.32 6.04-17.16 3.32 1.28-7.64 20.88q-1.16 3.2-2.52 5t-3 2.52-3.64.72m28.396-8.8q-2.96 0-5.32-1.36-2.36-1.4-3.72-3.84-1.32-2.48-1.32-5.68 0-3.36 1.36-5.8t3.72-3.76q2.361-1.32 5.28-1.32t5.24 1.32q2.361 1.32 3.72 3.76 1.4 2.4 1.4 5.72t-1.36 5.8q-1.359 2.44-3.72 3.8-2.319 1.36-5.28 1.36m0-3.2q3.16 0 4.92-2.12 1.76-2.16 1.76-5.56 0-2.08-.88-3.8-.879-1.76-2.4-2.8-1.48-1.08-3.4-1.08-3.159 0-4.92 2.08-1.76 2.08-1.76 5.52 0 2.08.88 3.88.88 1.76 2.36 2.84 1.52 1.04 3.44 1.04m21.947 3.2q-1.8 0-3.4-.76t-2.6-2.44q-1-1.72-1-4.56V425.2h3.6v13.04q0 2.44 1.04 3.76 1.04 1.28 3.04 1.28a8.1 8.1 0 0 0 3.16-.64 9.7 9.7 0 0 0 2.76-1.8V425.2h3.6v15.4q0 1.72.72 2.28.76.52 1.64.52l-.76 2.8q-3.72 0-4.6-2.96a11.9 11.9 0 0 1-3.24 2.36 9.06 9.06 0 0 1-3.96.88m33.692-.48-6.56-19.84 3.32-1.16 5.36 16.92 4.88-15.24h3.88l4.76 15.24L481 425l3.2 1.16-6.6 19.84h-3.96l-4.8-15.48L464 446zm28.375 0v-20.8h3.6V446zm1.8-24.36q-1.04 0-1.8-.76-.72-.76-.72-1.76 0-1.16.68-1.84t1.84-.68q1.04 0 1.76.76.76.72.76 1.76 0 1.12-.68 1.84-.68.68-1.84.68m14.52 24.84q-1.84 0-3.32-.68-1.48-.72-2.36-2.28-.84-1.56-.84-4.04V416.4h3.6v22.72q0 2.16.88 3.2.92 1.04 2.52 1.04.76 0 1.48-.16a8 8 0 0 0 1.28-.44l.88 2.92q-.72.32-1.8.56-1.04.24-2.32.24m13.437 0q-1.84 0-3.32-.68-1.48-.72-2.36-2.28-.84-1.56-.84-4.04V416.4h3.6v22.72q0 2.16.88 3.2.921 1.04 2.52 1.04.76 0 1.48-.16.76-.2 1.28-.44l.88 2.92q-.72.32-1.8.56-1.04.24-2.32.24m19.501-.48v-20.8h3.48v4.52a9.6 9.6 0 0 1 1.4-2.44 6.4 6.4 0 0 1 2.2-1.84q1.32-.72 3.08-.72.6 0 1.2.08.6.04 1 .16l-1.08 3.72q-.76-.32-1.8-.32-1.48 0-2.84.84-1.32.84-2.2 2.6-.84 1.76-.84 4.48V446zm23.085.48q-4.48 0-7.12-2.84-2.6-2.88-2.6-8.04 0-3.12 1.16-5.56 1.2-2.48 3.32-3.88 2.121-1.44 4.92-1.44 3 0 4.96 1.32 2.001 1.28 3 3.48t1 4.84q0 1.4-.12 2.72h-14.56q.36 2.92 2.04 4.56t4.44 1.64q1.8 0 3.24-.36 1.44-.4 2.76-1l.84 3.08q-1.44.64-3.24 1.04-1.8.44-4.04.44m-6.08-12.32h11.4q0-3.04-1.52-4.68t-4.2-1.64q-2.319 0-3.84 1.64-1.52 1.6-1.84 4.68m27.478 12.32q-2.6 0-4.72-1.32t-3.4-3.72q-1.24-2.44-1.24-5.72 0-3.12 1.24-5.6 1.28-2.48 3.48-3.92 2.24-1.48 5.12-1.48 1.8 0 3.24.64 1.48.6 2.56 1.52v-1.68h3.28v15.76q0 1.52.72 2 .76.44 1.64.44l-.76 2.8q-3.84 0-4.64-3.12-.92 1.28-2.52 2.36-1.56 1.04-4 1.04m.8-3.2a6.1 6.1 0 0 0 2.88-.72 7.9 7.9 0 0 0 2.28-1.88v-11.16a9.2 9.2 0 0 0-2.4-1.2 7.7 7.7 0 0 0-2.72-.48q-1.92 0-3.4 1-1.44.96-2.28 2.72-.84 1.72-.84 4.04 0 2.24.84 4 .84 1.72 2.32 2.72 1.48.96 3.32.96m23.417 3.2q-2.56 0-4.68-1.32t-3.36-3.72q-1.24-2.44-1.24-5.72 0-3.16 1.24-5.64 1.28-2.48 3.36-3.92 2.12-1.44 4.64-1.44 2.08 0 3.56.84 1.52.84 2.36 1.72V416.4h3.6v24.56q0 1.52.72 2 .76.44 1.64.44l-.76 2.8q-3.8 0-4.64-3.04-.88 1.24-2.48 2.28-1.56 1.04-3.96 1.04m.8-3.2q1.48 0 2.8-.68a7.4 7.4 0 0 0 2.28-1.84v-10.32q-.76-.96-2.12-1.76a5.6 5.6 0 0 0-3-.84q-1.92 0-3.36 1.04t-2.24 2.8q-.76 1.72-.76 3.92t.84 3.96q.84 1.72 2.28 2.72 1.48 1 3.28 1m35.123 3.2q-3 0-4.76-1.96-1.72-2-1.72-5.68v-9.76h-3.6v-3.12h3.68l.76-6.56h2.76v6.56h5.76v3.12h-5.76v10.04q0 2.32.96 3.24 1 .92 2.36.92 1 0 1.88-.32a9.7 9.7 0 0 0 1.68-.76l1 2.88q-.8.48-2.16.92-1.36.48-2.84.48m8.619-.48v-29.6h3.6v12.12a9.5 9.5 0 0 1 2.84-2.72q1.72-1.08 4.04-1.08 3.52 0 5.24 2.12 1.76 2.12 1.76 5.6V446h-3.6v-13.16q0-2.24-1.04-3.6t-2.92-1.36q-1.84 0-3.52 1.32a12.7 12.7 0 0 0-2.8 3.04V446zm23.672 0v-20.8h3.6V446zm1.8-24.36q-1.041 0-1.8-.76-.72-.76-.72-1.76 0-1.16.68-1.84t1.84-.68q1.04 0 1.76.76.76.72.76 1.76 0 1.12-.68 1.84-.68.68-1.84.68m13.8 24.84q-2.36 0-4.28-.6-1.881-.6-3.12-1.56l1.52-3q1.04.88 2.6 1.48 1.6.56 3.4.56 2.24 0 3.36-.72 1.16-.76 1.16-1.92 0-.84-.44-1.48-.4-.64-1.52-1.24-1.12-.64-3.24-1.36-2.92-1-4.4-2.36-1.44-1.4-1.44-3.84 0-2.4 2.08-4.04 2.12-1.68 5.84-1.68 2 0 3.56.44 1.56.4 2.8 1.04l-1 2.96q-1.08-.64-2.48-1.04-1.36-.4-3.04-.4-2.08 0-3.16.84t-1.08 1.84q0 .96.84 1.64t3.28 1.48q3.96 1.32 5.52 2.92t1.56 4q0 2.8-2.28 4.44-2.24 1.6-6.04 1.6m31.423 0q-1.84 0-3.32-.68-1.48-.72-2.36-2.28-.84-1.56-.84-4.04V416.4h3.6v22.72q0 2.16.88 3.2.92 1.04 2.52 1.04.76 0 1.48-.16a8 8 0 0 0 1.28-.44l.88 2.92q-.72.32-1.8.56-1.04.24-2.32.24m14.882 0q-2.6 0-4.72-1.32t-3.4-3.72q-1.24-2.44-1.24-5.72 0-3.12 1.24-5.6 1.28-2.48 3.48-3.92 2.24-1.48 5.12-1.48 1.8 0 3.24.64 1.48.6 2.56 1.52v-1.68h3.28v15.76q0 1.52.72 2 .76.44 1.64.44l-.76 2.8q-3.84 0-4.64-3.12-.92 1.28-2.52 2.36-1.56 1.04-4 1.04m.8-3.2a6.1 6.1 0 0 0 2.88-.72 7.9 7.9 0 0 0 2.28-1.88v-11.16a9.2 9.2 0 0 0-2.4-1.2 7.7 7.7 0 0 0-2.72-.48q-1.92 0-3.4 1-1.44.96-2.28 2.72-.84 1.72-.84 4.04 0 2.24.84 4 .84 1.72 2.32 2.72 1.48.96 3.32.96m21.528 3.2q-2.36 0-4.28-.6-1.881-.6-3.12-1.56l1.52-3q1.04.88 2.6 1.48 1.6.56 3.4.56 2.24 0 3.36-.72 1.16-.76 1.16-1.92 0-.84-.44-1.48-.4-.64-1.52-1.24-1.12-.64-3.24-1.36-2.92-1-4.4-2.36-1.44-1.4-1.44-3.84 0-2.4 2.08-4.04 2.12-1.68 5.84-1.68 2 0 3.56.44 1.56.4 2.8 1.04l-1 2.96q-1.08-.64-2.48-1.04-1.36-.4-3.04-.4-2.08 0-3.16.84t-1.08 1.84q0 .96.84 1.64t3.28 1.48q3.96 1.32 5.52 2.92t1.56 4q0 2.8-2.28 4.44-2.24 1.6-6.04 1.6m20.39 0q-3 0-4.76-1.96-1.72-2-1.72-5.68v-9.76h-3.6v-3.12h3.68l.76-6.56h2.76v6.56h5.76v3.12h-5.76v10.04q0 2.32.96 3.24 1 .92 2.36.92 1 0 1.88-.32a9.7 9.7 0 0 0 1.68-.76l1 2.88q-.8.48-2.16.92-1.36.48-2.84.48M147.461 581.867q-10.313-1.406-12.539-10.898l.117-1.289 1.055-3.164q.585-1.993 1.289-3.868.703-1.992 2.344-3.515.351-1.055 1.289-3.164 1.055-2.227 3.398-6.563a373 373 0 0 0 2.93-5.39q1.172-1.992 1.875-3.047-1.172-2.11-3.281-4.102a105 105 0 0 1-3.282-6.679q-1.288-3.282-1.992-5.86-.118-2.812-.937-5.742l-.704-3.047a14 14 0 0 1-.351-3.164q-.47-.82-.82-2.109l.234-1.407q.587-.937.234-2.461a24.5 24.5 0 0 0-.703-3.281q-.352-1.523-.703-3.164a16.7 16.7 0 0 1-.117-3.398 9 9 0 0 1 .82-3.164q.82-1.524 2.695-2.579l1.172-.82 1.172.703q1.29.82 2.461 1.407l2.344 1.171q1.406.703 2.812 1.524a62 62 0 0 1 3.047 1.641l1.172.82-.117 1.289q0 .234.117.586.117.35.352.586l1.289.351.117 1.641v1.406q0 1.055.117 1.524.118.35.469.82l.586 1.523q0 2.11.351 3.75.352 1.641.821 3.282.585 1.64.937 3.398.353 1.641.117 3.633.703-.352 1.407-1.055l.468-.469.704-.468 8.203-11.133-.235-1.406 2.93-2.813a57 57 0 0 0 2.227-1.875 10.2 10.2 0 0 0 1.757-2.344l.703-1.054q5.274-7.031 13.594-8.672l1.992-.469.586 1.875q.586 1.64 2.227 2.93a80 80 0 0 0 3.75 2.344l1.289.82q.703 1.406.703 2.109t-.117 1.172l.586 1.523q-1.29 3.4-2.813 4.922a52 52 0 0 1-3.164 2.696 32 32 0 0 0-2.343 2.109 8 8 0 0 0-1.641 2.344l-.938 1.172q-2.93 1.523-3.75 4.453l-.468 1.64h-1.758q-.118 0-.586.586-.469.47-1.406 2.461-1.055 1.407-1.524 1.875l-.586.586q-.234.586-.468 1.055-.118.468-.352 1.172l-.703.937q-1.055.937-1.524 1.875a41 41 0 0 0-1.054 1.993 55 55 0 0 1-1.055 2.226q-.586 1.054-1.641 2.109l.235 1.289-.938.821q-.938.82-1.64 2.109a69 69 0 0 0-1.407 2.461 49 49 0 0 1-1.523 2.813 11 11 0 0 1-2.109 2.578q-.82 2.11-1.524 3.281-.586 1.172-2.109 2.813-1.406 5.625-6.68 12.07-.117 1.289-.82 2.578a21 21 0 0 1-1.289 2.226q-.234.47-.586 1.055l-.352.703-.351 1.289q-.703 1.29-1.524 2.11a27 27 0 0 1-1.406 1.523 4.7 4.7 0 0 0-.703.586q-.234.351-.469.586zm106.406-39.023q-.117 1.406.235 2.695.35 1.289.82 2.578.585 1.172 1.055 2.461.468 1.29.703 2.578.234 1.641 0 3.633a21.5 21.5 0 0 1-.821 3.75 15.7 15.7 0 0 1-1.523 3.281q-.937 1.407-2.227 2.11a11.5 11.5 0 0 1-3.984 3.281 23 23 0 0 0-4.336 2.812q-1.289.82-2.93 1.172-1.523.352-3.164.703a55 55 0 0 1-3.047 1.524q-1.757.703-3.632 1.406-1.875.586-3.75.938-1.875.234-3.282.117-3.515 1.289-6.914 1.64-3.28.47-7.734-.468-4.22.585-7.852-.352-3.515-.937-6.328-2.93a26 26 0 0 1-4.804-4.921 33 33 0 0 1-3.282-6.094q-.937-6.68.469-12.07 1.407-5.508 3.984-10.079a52.8 52.8 0 0 1 6.094-8.554q3.399-3.985 6.563-7.735.702.236 1.054 0a4 4 0 0 0 .821-.82q.35-.586.703-1.055a2.05 2.05 0 0 1 1.054-.586q.821-1.757 2.344-2.578a6.8 6.8 0 0 0 2.578-2.578q1.055-.234 1.758-.703a8.3 8.3 0 0 0 1.289-1.055q.703-.585 1.407-1.054a4.1 4.1 0 0 1 1.64-.821v-1.289q2.11-.937 3.047-2.109 1.054-1.29 2.461-3.047 1.055-.117 1.641-.117.702 0 1.992-.235.938-1.64 1.64-2.461.821-.82 2.344-1.757a9.9 9.9 0 0 0 3.047.937q1.758.234 3.047 1.524.117 1.171.703 1.875.586.585 1.289 1.171.704.47 1.289 1.055.703.587.938 1.641.468.117.586-.117.234-.235.703-.118.35 1.64.82 2.227.47.469.937 1.992-.585 1.172-.937 2.461-.234 1.171-1.406 1.758-.117.82.469.937.585 0 .703.586.117 1.055-.352 1.524a76 76 0 0 1 5.039 9.726 80 80 0 0 0 5.039 9.61m-14.648 11.133q.468-1.29 1.172-2.11.82-.82.937-2.461-.585-.938-.703-1.406-.117-.586-.117-1.758a47.3 47.3 0 0 1-4.453-7.734 57.7 57.7 0 0 0-4.219-7.852q-.235.469-.82.938-.587.468-1.289-.235-.235.938-.821 1.407a2.46 2.46 0 0 1-1.289.351 14 14 0 0 1-1.523-.351 7.2 7.2 0 0 1-1.289-.821 404 404 0 0 1-6.797 5.274 34 34 0 0 0-6.094 5.976q-.469.235-.586.235-.117-.117-.703.117a19.3 19.3 0 0 1-2.344 4.101 147 147 0 0 0-2.578 3.633 25 25 0 0 0-2.226 3.985q-.938 2.108-1.055 4.922 1.992 1.64 4.687 1.992 2.696.351 5.508.117a62 62 0 0 0 5.625-.703q2.813-.586 5.156-.586 4.922-1.172 8.438-3.047a211 211 0 0 1 7.383-3.984m88.593-42.657q.235 2.578.821 4.453.585 1.875 1.289 3.633.585 1.641 1.055 3.282.586 1.522.82 3.75-.938 3.047-1.406 5.624a185 185 0 0 1-.821 5.391q-1.875 4.102-3.632 7.266t-2.813 5.508q-.586.585-1.055 1.406a31 31 0 0 1-.82 1.523q-.235.352-.586 1.055t-.586.937l-2.344-.82-.468 2.93-1.641.469-1.172 1.406q-2.226 3.867-4.687 6.562-2.462 2.579-5.625 4.688-3.047 1.992-7.032 3.75A442 442 0 0 1 288.32 578q-1.992-.234-3.515-.234-1.406-.118-2.696-.235-2.226 0-5.507-.351-.352-.938-1.055-1.289-.704-.352-1.289-.352-1.992-.937-3.047-2.695a97 97 0 0 1-1.875-3.985 33 33 0 0 0-1.172-2.343 35 35 0 0 0-1.289-2.344l1.992-.586-2.578-2.813a2.1 2.1 0 0 0-.586-.585 4.7 4.7 0 0 1-.586-.704l-.117-1.875q-.351-8.085-.352-14.765.118-6.798 1.875-12.071v-1.289q.352-2.578.704-4.218.351-1.758.585-3.282a29 29 0 0 1 1.055-4.804q1.64-.352 2.461-1.289a58 58 0 0 0 1.406-1.875q1.64-.117 2.227.468.586.587 1.172 1.875.585 1.055 1.406 2.344.937 1.29 2.695 1.992.235.937.586 1.993.469.937.938 2.109a34 34 0 0 1 1.64 4.219q.82 2.109.938 4.101-1.172 2.227-1.875 5.156a50 50 0 0 0-.82 5.977 47 47 0 0 0 .117 5.742q.351 2.695 1.054 4.57l.704 1.524 1.992-.234q3.516-.938 6.328-1.993a34.7 34.7 0 0 0 5.391-2.695 33.3 33.3 0 0 0 4.687-3.516 93 93 0 0 0 4.688-4.804 28.2 28.2 0 0 0 4.218-6.094 42 42 0 0 0 3.047-7.266q1.29-3.75 1.875-7.382.703-3.75.938-7.032 1.992-.702 1.992-2.812l-.234-1.289q-.47-.704 0-1.641.702-2.226 3.281-3.398a18.4 18.4 0 0 1 3.281 2.578 48 48 0 0 1 2.812 2.812m111.446 68.203q-4.102-1.875-6.563-5.507-2.344-3.634-4.687-8.086l-.703-1.407a20 20 0 0 0-.703-1.289l-1.641-3.046-.938-1.876-1.406 1.29-2.109 1.875-1.172 1.171a447 447 0 0 1-6.211 5.625 51 51 0 0 1-6.563 4.922 39 39 0 0 1-7.265 3.516q-3.75 1.289-8.203 1.406l-2.578-1.289a65 65 0 0 1-3.75-2.109q-1.524-.938-3.516-2.93a52 52 0 0 1-1.055-1.992 19 19 0 0 0-.82-1.875q-1.29-2.344-2.109-4.219a60 60 0 0 1-1.641-4.219q.351-1.64 1.055-5.507a385 385 0 0 1 1.64-8.672l2.11-9.375q1.171-4.805 2.343-8.321a240 240 0 0 1 2.344-6.445 66 66 0 0 1 2.93-6.211q1.64-2.93 3.515-4.922 1.875-2.109 3.985-2.461.586.82 1.289 1.172t1.289.586q1.64 2.344 3.164 3.984a40 40 0 0 0 3.75 3.282q-.586 2.93-1.758 6.562a152 152 0 0 1-2.343 7.149 747 747 0 0 1-2.344 6.914 116 116 0 0 0-1.875 5.859q-.704 1.992-1.172 4.453-1.055 4.336-1.992 11.836 1.406-.351 3.047-1.523a50 50 0 0 0 3.164-2.461 43 43 0 0 0 3.515-3.164q2.228-2.227 3.75-4.102a44 44 0 0 0 2.813-3.867 70 70 0 0 0 2.812-4.336 257 257 0 0 1 3.399-5.742 294 294 0 0 0 3.633-5.977 313 313 0 0 1 3.867-6.211 94 94 0 0 1 3.867-5.507q1.875-2.461 3.398-3.868.938 1.173 2.344 2.227a13.6 13.6 0 0 0 3.164 1.641q.704 1.054 1.289 1.992.704.82 1.289 1.523.704 1.054 1.289 1.992.704.938 1.289 1.875-.117.82-.351 2.11a62 62 0 0 1-.586 2.812 55 55 0 0 1-.586 3.164 164 164 0 0 1-.703 2.93l-1.406 6.68a139 139 0 0 0-.704 3.515 68 68 0 0 1-.234 2.227v2.344a7.9 7.9 0 0 0 .117 2.343q.118 1.056.469 2.227t.938 2.109l4.687-3.632q1.992-1.524 3.75-4.102 1.875-2.695 3.516-6.094a101 101 0 0 0 3.398-7.617 902 902 0 0 0 3.281-8.32 648 648 0 0 1 4.922-12.071q2.579-5.86 4.922-9.023 2.578 1.641 4.453 3.398a18.6 18.6 0 0 1 3.399 3.633q1.406 1.992 2.226 4.57.938 2.578 1.289 6.094a212 212 0 0 0-4.101 8.438 407 407 0 0 0-3.633 8.672q-2.344 5.625-4.922 11.25a100 100 0 0 1-5.508 10.781 68.4 68.4 0 0 1-6.797 9.375 36.5 36.5 0 0 1-8.672 7.148q-1.288-.351-2.226-.351-1.875 0-3.164 1.054m57.89-9.726q.587 3.516-.468 5.508-.938 1.992-2.813 2.929-1.758 1.056-4.101 1.172-2.344.117-4.454-.234-1.171-1.64-2.109-4.102a95 95 0 0 1-1.758-5.039 188 188 0 0 1-1.523-5.273 611 611 0 0 0-1.055-4.57q.586-1.407.703-3.165.235-1.875.235-3.75.117-1.875.117-3.75a51 51 0 0 1 .351-3.75 59 59 0 0 1 2.344-9.375 60 60 0 0 0 2.578-9.257 2.9 2.9 0 0 0-.234-1.993q-.351-.937-.117-1.757.117-.47.703-.586.586-.235.703-.821.351-1.288.117-2.109-.117-.82.469-1.992.586-.938 1.406-2.695.938-1.875.703-3.868a13 13 0 0 0 1.993-1.64 18 18 0 0 1 1.874-1.641 13.3 13.3 0 0 1 2.227-1.406q1.289-.586 3.047-.586a5.53 5.53 0 0 1 1.172 2.578q.351 1.406.586 2.813.351 1.405.937 2.695.587 1.171 1.992 1.875v2.344q0 1.406.118 2.812.117 1.289.468 2.461.47 1.055 1.407 1.406a384 384 0 0 0-3.985 11.133 111 111 0 0 0-2.929 11.133 76 76 0 0 0-1.524 11.133 51 51 0 0 0 .82 11.367m44.532 6.914a168 168 0 0 1-7.149 2.109 29.3 29.3 0 0 1-7.734 1.055q-5.859 0-9.258-2.93-.586-1.289-1.055-1.757l-.703-.938q-.234-.586-.351-1.523a12.9 12.9 0 0 1-2.227-3.75 23.5 23.5 0 0 1-1.172-4.454 31.4 31.4 0 0 1-.117-4.687 26.5 26.5 0 0 1 .82-4.453q.235-.469.235-.938.117-.468.234-1.054.469-1.875.938-3.633.585-1.758 1.523-3.047-.468-1.054 0-2.344.469-1.288 1.055-2.344a415 415 0 0 0 2.695-7.5 540 540 0 0 1 2.344-6.211 340 340 0 0 0 3.75-10.429q1.758-5.157 3.164-11.133a19 19 0 0 1 1.406-.82q.704-.235 1.172-.352 2.11 1.054 4.922 2.11 2.812.937 4.687.937.938.586 1.172.937l.469.469a21 21 0 0 1 2.227 3.164q.938 1.524.585 4.102-.702 1.055-1.054 1.055-.586 2.343-1.289 3.984a58 58 0 0 1-1.289 3.281 68 68 0 0 0-1.524 3.516q-.702 1.758-1.172 4.336-.468.586-.703 1.054a8 8 0 0 1-.351 1.055q-.235.586-.586 1.289-.234.586-.821 1.055-.351 3.047-1.171 4.922-.703 1.875-1.524 3.75a121 121 0 0 0-2.578 6.797q-1.055 3.397-1.289 7.734.586-.234 1.055-.234h1.054q1.055 0 2.461.351 3.516-1.875 7.617-2.226a152 152 0 0 1 8.321-.469h3.281q1.64 0 3.047-.235 1.055.587 1.289.704h.937a7.3 7.3 0 0 1 1.407.117q1.406 1.288 2.695 1.875 1.289.585 2.695 1.054 1.29.47 2.461 1.055a8.7 8.7 0 0 1 2.461 1.406l.82 5.039q.82 1.055.704 1.407 0 .937-.469 1.406l.234 1.289q-1.758.351-2.461.82-.585.469-1.172 1.055-.937.117-1.406.117h-.703q-1.641 0-3.984.586a20.6 20.6 0 0 0-6.563-1.054q-1.289 0-2.695.117l-2.813.234q-1.406.234-2.929.352-1.407.117-2.93.117zm63.984 0q-3.28 1.054-7.148 2.109a29.3 29.3 0 0 1-7.735 1.055q-5.859 0-9.258-2.93-.585-1.289-1.054-1.757l-.703-.938q-.235-.586-.352-1.523a12.9 12.9 0 0 1-2.226-3.75 23.4 23.4 0 0 1-1.172-4.454 31 31 0 0 1-.118-4.687 26.5 26.5 0 0 1 .821-4.453q.234-.469.234-.938.117-.468.235-1.054.468-1.875.937-3.633.586-1.758 1.523-3.047-.468-1.054 0-2.344.469-1.288 1.055-2.344a408 408 0 0 0 2.695-7.5 560 560 0 0 1 2.344-6.211 340 340 0 0 0 3.75-10.429q1.758-5.157 3.164-11.133a19 19 0 0 1 1.406-.82q.704-.235 1.172-.352 2.11 1.054 4.922 2.11 2.813.937 4.688.937.937.586 1.172.937l.468.469a21 21 0 0 1 2.227 3.164q.937 1.524.586 4.102-.703 1.055-1.055 1.055-.585 2.343-1.289 3.984a57 57 0 0 1-1.289 3.281 68 68 0 0 0-1.523 3.516q-.704 1.758-1.172 4.336-.47.586-.703 1.054a8 8 0 0 1-.352 1.055q-.234.586-.586 1.289-.234.586-.82 1.055-.352 3.047-1.172 4.922-.703 1.875-1.524 3.75a121 121 0 0 0-2.578 6.797q-1.054 3.397-1.289 7.734.587-.234 1.055-.234h1.055q1.054 0 2.461.351 3.514-1.875 7.617-2.226 4.218-.352 8.32-.469h3.281q1.641 0 3.047-.235 1.055.587 1.289.704h.938a7.3 7.3 0 0 1 1.406.117q1.407 1.288 2.695 1.875 1.29.585 2.696 1.054 1.288.47 2.461 1.055a8.7 8.7 0 0 1 2.461 1.406l.82 5.039q.82 1.055.703 1.407 0 .937-.469 1.406l.235 1.289q-1.759.351-2.461.82-.587.469-1.172 1.055-.938.117-1.406.117h-.704q-1.64 0-3.984.586a20.6 20.6 0 0 0-6.562-1.054q-1.29 0-2.696.117l-2.812.234q-1.406.234-2.93.352-1.406.117-2.93.117zm96.328-10.899q-1.288 4.688-2.344 7.149-.937 2.343-2.929 4.922-1.524-.234-2.11.351a8.3 8.3 0 0 1-1.289 1.055q-1.055.234-1.523 0a3.1 3.1 0 0 1-.82-.586 26 26 0 0 0-.938-.586q-.468-.234-1.523-.234a12 12 0 0 0-.586-1.758q-.235-.82-1.524-.586.235-.938.117-1.523-.117-.704-.351-1.172a23 23 0 0 0-.234-1.055q-.118-.586.117-1.406-.586 0-.938-.821a16 16 0 0 0-.82-1.64q.352-2.109.703-3.984.352-1.875.82-3.516.586-1.641.938-3.281.351-1.641-.352-3.399.47.352.703-.117.235-.586.352-1.406a14 14 0 0 0 .117-1.758q0-.938-.117-1.523a44 44 0 0 0 1.875-6.211 106 106 0 0 0 1.406-6.446q.704-3.163 1.406-6.211.703-3.047 1.875-5.625 1.29-.234 2.813.352 1.641.468 1.992 1.289 3.046-2.345 5.391-5.625a142 142 0 0 1 4.804-6.563 37 37 0 0 1 5.391-5.625q3.047-2.46 7.617-2.929a114 114 0 0 0 5.157 3.633 14.5 14.5 0 0 1 4.804 4.687q.938.469 1.524 1.055.702.469 1.64 1.054v1.407a9.6 9.6 0 0 1 2.227 3.047 22 22 0 0 1 1.64 3.632q.703 1.875 1.407 3.868a30 30 0 0 0 1.64 3.632q-.234.587-.234 1.055 0 .351.117.82.235.469.352.938t0 1.289q-.352 5.156-3.399 8.32-2.93 3.164-7.148 5.274a61.6 61.6 0 0 1-9.024 3.398q-4.804 1.406-8.672 3.047 0 .469.352.469.47 0 .352.586a444 444 0 0 1 4.453 2.812 33 33 0 0 0 3.047 1.758q1.523.703 3.164 1.289 1.758.469 4.804 1.172 3.048.703 4.688 1.172a69 69 0 0 1 3.164.703l2.812.469q1.524.117 4.219.351 1.054 1.055 1.758 2.578a8.3 8.3 0 0 1 1.055 2.93q.234 1.407.117 2.813-.117 1.288-.82 2.109.117.351.468.351a1.9 1.9 0 0 1 .938 0q-.704.47-1.172 1.172l-.938 1.407a5.1 5.1 0 0 1-1.054 1.171q-.586.587-1.641.704-3.633 1.405-9.14.117-5.508-1.172-13.946-4.453-4.218-1.641-6.914-2.813a76 76 0 0 1-4.57-2.461 42 42 0 0 1-3.516-2.695 327 327 0 0 0-3.75-3.399m16.758-40.195a20.4 20.4 0 0 1-2.93 3.399 119 119 0 0 0-3.047 3.164q-1.405 1.523-2.578 3.515-1.172 1.875-1.64 4.453 4.102-.468 8.554-2.226 4.454-1.875 8.438-3.516-.47-3.633-2.578-5.859-1.992-2.227-4.219-2.93m94.688-13.594q.117.82 0 1.289 0 .352-.118.704v.82q0 .351.235 1.172-2.461 3.984-5.743 5.508-3.164 1.405-6.914 2.109-3.75.586-7.734 1.289-3.867.703-7.734 3.047-1.523-.587-2.813 0-1.172.587-3.515.351-.703.704-1.758 1.055-1.054.234-2.11.586.47 1.054.352 2.227 0 1.054.352 1.758 4.101.351 9.023-.118 5.039-.468 9.844-.586.117.586-.117.821-.235.117-.118.586.82.585 1.641 1.523l1.641 1.641a13 13 0 0 0 1.64 1.406q.937.469 2.11.351.468.939.586 2.11.234 1.054-.235 2.226-1.875 1.29-3.75 2.696a33.5 33.5 0 0 1-3.984 2.344 24 24 0 0 1-4.336 1.757q-2.227.586-5.039.469h-.938q-.234 0-.703-.352-.937.586-2.695.352-1.64-.234-2.578.352-1.29-.586-3.164-.469-1.758 0-3.164-.469a40.6 40.6 0 0 0-3.399 5.274 46 46 0 0 0-2.695 5.976q3.985.586 6.562.469a89 89 0 0 0 5.039-.352 91 91 0 0 1 4.805-.586q2.461-.351 6.211-.234 2.344-1.288 5.508-1.641 3.28-.468 5.976-1.406.938.351 1.641 1.289.703.82 1.289 1.641.704.703 1.406 1.289.703.586 1.758.469.47.468.586 1.172.234.585.352 1.171t.351 1.055q.352.352 1.055.234-1.758 3.868-4.102 5.977-2.226 1.992-5.156 3.047t-6.562 1.64q-3.516.587-7.852 1.407-1.054.234-1.758-.117-.703-.235-1.64-.235-2.696.586-6.446 1.055t-7.617.351q-3.867-.117-7.383-1.054-3.515-.82-5.742-3.047-.938-.82-1.289-1.875-.234-1.171-1.523-1.758a32 32 0 0 0-.469-3.398q-.352-1.875-.703-3.868a85 85 0 0 1-.586-4.101q-.117-1.992.234-3.633a7.7 7.7 0 0 1 1.406-3.164q1.173-1.406.821-3.047.586-.117.703-.586.117-.585.937-.469a47 47 0 0 1 1.524-3.984q.82-1.875 1.64-3.633a74 74 0 0 0 1.758-3.515 41 41 0 0 0 1.758-4.102q-1.64-1.524-2.461-3.281a23.5 23.5 0 0 1-1.055-3.633q-.35-1.875-.586-3.75a24 24 0 0 0-.82-3.984q1.172-1.758 2.813-2.813a16.8 16.8 0 0 1 3.75-1.875 32 32 0 0 1 4.336-1.172q2.344-.469 4.921-1.054 4.688-1.524 8.321-2.344 3.75-.82 7.265-1.289a193 193 0 0 1 7.5-1.055q3.867-.468 8.789-1.406 1.056 1.055 1.993 1.055.469-1.056 1.054-.586.703.351.586-.704a12.3 12.3 0 0 0 2.93 3.399 23 23 0 0 0 4.102 2.226m59.179 56.133q-.704 1.993-2.109 4.102a17.4 17.4 0 0 1-3.164 3.633 17.5 17.5 0 0 1-3.985 2.578 12.2 12.2 0 0 1-4.687 1.172q-1.524-.352-2.11-.821a13 13 0 0 0-1.054-.703 3 3 0 0 0-.703-.351 1.8 1.8 0 0 0-.469-.352l-1.406-.586.468-1.523q.236-.937-.117-1.407-.351-.585-1.406-1.523l-.703-.703a4.7 4.7 0 0 1-.586-.703l-1.992-2.227 3.164-.82q2.93-.82 3.867-2.11 1.055-1.288.82-4.335-2.343-.47-3.984-.118-1.524.352-3.164.821-2.11.585-4.336 1.054-2.11.352-4.688.352h-1.757q-.82-.117-1.758-.234l-1.172-.235q-.235-1.289-.469-1.406l-.469-.469q-.585-.585-1.289-1.523-.585-1.055-.234-2.578-.586-1.055-.703-2.11-.703 1.406-1.055 2.93l-.469 1.172-1.171.234q-.235.117-.352.586-.117.352-.117.586l-.586 1.992-.469.469a1.8 1.8 0 0 0-.469.352 21 21 0 0 1-.586 2.109 55 55 0 0 1-.703 1.992 47 47 0 0 0-1.054 3.047 8.6 8.6 0 0 0-.235 2.812l-.468 1.29a6 6 0 0 1-1.29 1.171l-1.406.704q-.234.234-.703.468-.351.117-.586.235l-.351 1.289-1.407.234q-1.289.235-1.875.352-.468.117-1.172.117l-1.171-.117q-1.29-1.054-1.993-1.641a9.2 9.2 0 0 0-1.64-1.289q-1.055-1.406-1.172-2.109a41 41 0 0 0-.234-1.289q-.235-.704-.235-1.172-.117-.47-.351-.703l-1.524-1.407 1.289-1.054.117-1.993a196 196 0 0 1 4.922-11.484l5.508-11.25a81 81 0 0 0 1.758-3.75l1.875-3.75a2.6 2.6 0 0 1-.117-.82q0-.469.234-1.055 1.29-1.992 2.109-3.516l1.641-3.281q.938-1.992 1.875-3.867a33 33 0 0 1 2.578-3.867l1.875-.82q.352-.118.82-.235a2.3 2.3 0 0 1 1.055-.234l1.758.234a17.9 17.9 0 0 0 5.742-4.219q2.462-2.812 5.039-6.679l1.172-1.641 1.524.938q.585.35 1.64.703 1.055.234 2.227.586a49 49 0 0 1 3.984 1.054q1.875.587 3.047 1.758.703 1.875.82 2.813.117.937.352 1.875.351 1.992.586 3.984.35 1.992.469 4.453.586 1.992.937 3.984.47 1.875.82 3.868.587 2.813 1.172 5.508a33 33 0 0 0 1.524 4.921q.937 0 1.172.118a6.6 6.6 0 0 1 1.171-.352 67 67 0 0 1 1.524-.234l1.289-.118.469 1.172q.116.587 1.172 1.172 1.522.118 2.226.703.704.469 1.289 1.055.469.47.938.703l1.758.703-.938 1.758q-1.172 2.109-3.398 4.102a20.5 20.5 0 0 1-4.805 3.164q.117.702.117 1.406.117.586.352 1.289.35 1.992.586 4.102a20 20 0 0 1 0 4.336zm-33.867-20.273q3.516-.235 6.328-.469a84 84 0 0 0 6.445-1.055 467 467 0 0 0-1.757-7.265 215 215 0 0 0-1.993-7.617l-.703 1.171a55 55 0 0 0-4.57 5.508q-2.109 3.048-3.633 5.742l-1.406 2.11a30 30 0 0 0-1.289 2.109 8 8 0 0 1 1.289-.117q.703 0 1.289-.117m99.375-1.524q-.117.587-.234 1.055l-.235.703q-.117.352-.117.938v1.289q-3.515 6.21-8.906 10.429-5.274 4.22-11.719 7.5a158 158 0 0 1-13.242 5.86 188 188 0 0 0-13.477 5.625q-2.812-.703-4.336-2.344a12.9 12.9 0 0 1-2.226-3.75 29 29 0 0 1-1.055-4.805q-.234-2.695-.469-5.507.352-1.29.938-2.11.703-.937.703-2.578a560 560 0 0 1 1.875-5.976 26 26 0 0 0 1.172-5.977 2.1 2.1 0 0 1 1.289-1.289q.587-5.625 0-11.367-.47-5.86-1.875-10.899.117-1.172.234-1.64.236-.586 0-.821-.117-.937.586-.937h1.641q0-1.758-.703-3.516a65 65 0 0 1-1.172-3.984q.82-1.758 1.055-3.399.234-1.757 1.054-3.047a86.5 86.5 0 0 1 12.071 4.805q5.859 2.812 11.484 4.102a415 415 0 0 0 8.672 6.093 51 51 0 0 1 8.086 6.563 32.8 32.8 0 0 1 6.093 8.086q2.462 4.57 2.813 10.898m-27.773 6.446a88 88 0 0 0 4.804-1.993 30 30 0 0 0 4.453-2.343 21 21 0 0 0 3.75-3.164q1.641-1.758 2.696-4.219a8.2 8.2 0 0 0-1.875-2.461 29 29 0 0 0-2.344-2.109l-2.344-2.11q-1.054-1.054-1.758-2.578-1.523-.234-2.695-.82a34 34 0 0 0-2.344-1.289 16.5 16.5 0 0 0-2.343-1.289q-1.173-.586-2.813-.703-2.578-1.29-4.687-1.875-1.993-.587-3.047-1.524-.82 0-1.289.352 1.172 4.452 1.757 8.437.586 3.867.586 7.852a55 55 0 0 1-.351 7.969 164 164 0 0 1-1.289 8.906 8.4 8.4 0 0 0 2.109-.469 50 50 0 0 0 1.992-.937 24 24 0 0 1 2.11-.821q1.171-.468 2.695-.586.352-.703.937-1.172a8.5 8.5 0 0 0 1.29-1.054M333.145 653.633q-2.93 0-6.329.469a172 172 0 0 0-6.679.82q-2.344.351-4.571.586a89 89 0 0 1-3.867.351 60 60 0 0 1-1.64 4.571 58 58 0 0 1-1.758 3.867 65 65 0 0 0-1.758 4.101 95 95 0 0 0-1.406 4.336 42 42 0 0 0-1.992 3.516q-.704 1.524-1.172 3.516a12.8 12.8 0 0 0-2.11 3.75q-.703 1.874-1.054 3.281l-.469 1.406q-.703.703-.82 1.172-.118.352-.586.703-.118 1.29-.821 2.578a6.7 6.7 0 0 0-.351 1.172q-.117.47-.117.703 0 1.172-.586 1.524.117.585 0 1.289l-.235 1.172q-.351 1.405-.234 2.226.351.47.586.82.35.352.469.938.702.469 1.054.586.469.351 1.406.82l1.055 1.172q.586 3.399-1.055 5.391-1.757 2.226-5.976 2.226h-1.406q-.586-.586-.703-.937a86 86 0 0 1-1.524-.586q-.586-.234-1.055-.938a88 88 0 0 1-2.461-1.172l-1.054-.585v-1.407a8.5 8.5 0 0 1-1.289-2.343 30 30 0 0 1-.586-2.579 15 15 0 0 0-.586-1.992 5.2 5.2 0 0 0-.703-1.64q-.235-6.798 1.289-11.485a200 200 0 0 1 3.164-9.023l1.875-4.688a54 54 0 0 0 1.64-5.039l1.055-1.172q.82-1.874 1.289-3.047l1.172-2.578q.351-.82.586-1.523.351-.82.586-1.406-.703 0-1.289.117-.586 0-1.172.117-.703.117-1.289.234h-1.172q-.82 0-1.172-.117-1.289.586-2.812.586h-1.875a1.05 1.05 0 0 0-.469-.117q-1.171 0-1.875.352h-3.867a2 2 0 0 0-.586.117h-.586a14 14 0 0 1-1.758-.117q-.937-.235-1.992-.821-1.407-1.875-1.875-1.992l-1.055-1.406a6.2 6.2 0 0 0-.351-1.289 35 35 0 0 1-.469-1.524 82 82 0 0 1-.938-2.461q-.351-1.406-.351-3.281.117-.938.469-1.406.35-.47.586-.82l.351-1.758 1.524.117h3.281q3.75 0 7.617-.234 3.867-.352 7.969-.704l4.687-.468q2.462-.235 5.039-.469a49 49 0 0 1 .938-1.992l1.172-.586q2.109-.117 2.929.586.937.585 1.524 1.172l5.156-.469a129 129 0 0 0 5.391-.82q3.984-.587 7.968-1.055a69 69 0 0 1 7.852-.469q1.64 0 3.164.117t2.813.352l1.171.82q.352.704.938 1.289l1.406 1.172q1.406 1.29 2.813 3.047 1.406 1.758 1.054 5.156-.937 1.407-1.406 1.641l-1.055 1.406-1.171-.117q-.703 0-1.29.234-.586.117-1.171.352l-.938.469q-.468.117-1.055.234h-1.757a6.6 6.6 0 0 0-1.289-.117m50.859 45q.234 3.047-.703 5.039a10.1 10.1 0 0 1-2.578 3.398 12.9 12.9 0 0 1-3.75 2.227 137 137 0 0 1-4.102 1.523l-1.875-1.172q-.82-.703-1.992-1.054-1.524-2.813-2.93-4.922-1.406-2.226-1.289-5.039 0-.117.117-1.289.235-1.173.469-2.578.351-1.407.469-2.578.234-1.29.234-1.407-2.696.235-5.625 1.172a51 51 0 0 0-5.742 2.227 156 156 0 0 0-5.156 2.578 93 93 0 0 0-3.867 2.226q0 .352-.469 1.758-.469 1.29-1.172 2.813a20.5 20.5 0 0 1-1.523 2.578q-.82 1.172-1.641 1.172.117.35.351.703.236.351 0 .937-1.64.469-2.929 1.172-1.29.82-2.696 1.289-1.406.586-3.046.586t-3.868-1.172q0-.702-.586-1.172-.585-.586-1.289-.937a6 6 0 0 0-1.054-.703q-.47-.352-.469-.586-.586.117-.469-.82.117-.938.938-.469-1.29-1.64-1.641-2.813-.234-1.289-1.289-3.164.235-.234.469-.82.117-.586.234-1.055t.352-.703.586.117q-.235-1.055 0-1.757.234-.704.468-1.29a6.6 6.6 0 0 0 .352-1.171q.117-.587-.352-1.289 1.875-2.578 2.461-5.508.586-3.048.703-5.508.82-.82 1.407-2.344.703-1.523 1.054-3.047.352-1.64.235-3.047 0-1.523-.352-2.461.117-.585 1.289-.351.704-3.867.938-8.672.351-4.921 1.054-9.258.703-4.454 2.344-7.734 1.641-3.399 5.274-4.453.702 2.46 1.757 4.336a59 59 0 0 0 2.461 3.632 57 57 0 0 1 2.696 3.399 25 25 0 0 1 2.578 3.984 79 79 0 0 1-.469 5.156 86 86 0 0 1-.937 5.977 113 113 0 0 1-1.055 5.859q-.469 2.813-.938 4.805.118.586.586.703.586.117.235 1.055 2.813-.704 5.859-1.289 3.047-.586 6.094-1.289a107 107 0 0 0 5.859-1.524 34 34 0 0 0 5.391-2.226q.585-4.57 1.523-9.141t.235-9.375q.585-.468.937-1.172.352-.702 1.172-.937-.586-2.227-.469-4.688a18.4 18.4 0 0 1 .821-4.687q.82-2.228 2.226-3.75 1.524-1.64 3.633-2.11a23 23 0 0 1 2.227 4.102q.938 2.11 1.875 4.336a199 199 0 0 0 2.109 4.101 13 13 0 0 0 2.93 3.282q.351 3.398.468 7.031.235 3.633.352 7.383a141 141 0 0 1-2.109 8.672q-1.055 4.101-1.524 8.789a7.3 7.3 0 0 0-1.289 2.109 83 83 0 0 0-.937 2.461 31 31 0 0 1-1.055 2.344 8.5 8.5 0 0 1-1.406 1.875q.468 1.406.117 2.695-.234 1.172.703 2.93m34.687 3.164q.587 3.516-.468 5.508-.938 1.992-2.813 2.929-1.758 1.056-4.101 1.172-2.344.117-4.454-.234-1.172-1.64-2.109-4.102a95 95 0 0 1-1.758-5.039 188 188 0 0 1-1.523-5.273 611 611 0 0 0-1.055-4.57q.586-1.407.703-3.165.235-1.875.235-3.75.117-1.875.117-3.75a51 51 0 0 1 .351-3.75 59 59 0 0 1 2.344-9.375 60 60 0 0 0 2.578-9.257 2.9 2.9 0 0 0-.234-1.993q-.352-.937-.117-1.757.117-.47.703-.586.586-.235.703-.821.351-1.288.117-2.109-.117-.82.469-1.992.586-.938 1.406-2.695.938-1.875.703-3.868a13 13 0 0 0 1.992-1.64 18 18 0 0 1 1.875-1.641 13.3 13.3 0 0 1 2.227-1.406q1.289-.586 3.047-.586a5.53 5.53 0 0 1 1.172 2.578q.35 1.406.586 2.813.351 1.405.937 2.695.587 1.171 1.992 1.875v2.344q0 1.406.118 2.812.117 1.289.468 2.461.47 1.055 1.407 1.406a384 384 0 0 0-3.985 11.133 111 111 0 0 0-2.929 11.133 76 76 0 0 0-1.524 11.133 51 51 0 0 0 .82 11.367m15.469-44.531q.82-2.461 2.578-4.219a20 20 0 0 1 3.985-2.93 26.8 26.8 0 0 1 4.57-2.109 71 71 0 0 1 4.453-1.406 132 132 0 0 1 9.961-3.75 135 135 0 0 1 10.898-3.282 63 63 0 0 1 11.485-1.758q5.86-.468 12.305 1.407a8.3 8.3 0 0 0 1.054 2.226l1.406 2.11a16.5 16.5 0 0 1 1.407 2.109q.586.938.703 1.992A8.9 8.9 0 0 1 500.84 650q.704 1.172.234 3.164a45 45 0 0 1-2.344 1.758q-1.054.703-2.343 1.289a27.7 27.7 0 0 0-8.789-.703q-4.453.351-7.969.586-1.055-1.055-2.578-1.055-1.406 0-3.047.469-1.524.468-3.164.937-1.524.47-2.93.235-1.172.937-2.93 1.289-1.64.234-3.632.469-.117.586.234.82.351.117.117.703a3.9 3.9 0 0 0 1.758 1.172l2.344.703q1.288.351 2.226.937.938.47 1.289 1.641 1.758 0 3.047.82a7.4 7.4 0 0 1 2.11 1.993q.82 1.171 1.172 2.578.468 1.288.468 2.343.352.938.821.821t1.054.469q.353 1.523 1.758 3.164a12.2 12.2 0 0 1 2.227 3.398q.234 2.93.351 5.273.117 2.227-.82 4.571a25.1 25.1 0 0 1-4.922 7.734q-3.047 3.399-7.031 6.094a49.8 49.8 0 0 1-8.321 4.453 91 91 0 0 1-8.671 3.164 1.9 1.9 0 0 0-.938 0q-.469.117-.234-.586a4.5 4.5 0 0 1-2.11 1.055q-1.055.234-2.343.117-1.29 0-2.696-.117a8.6 8.6 0 0 0-2.461.117 29 29 0 0 1-1.523-1.641q-.586-.702-.938-1.875-.586 0-.586-.586.118-.585-.351-.585.703-1.172.586-1.29 0-.234-.352-.351l-.468-.235q-.235-.234-.118-.585.47-.938.352-2.11l-.234-2.578a8.5 8.5 0 0 1 .117-2.461q.351-1.171 1.758-1.875 3.984.47 7.5-.234 3.632-.82 6.796-2.227a61 61 0 0 0 5.977-3.047 80 80 0 0 1 5.742-2.929q.352-1.055.938-1.758a21 21 0 0 1 1.406-1.289q.703-.587 1.289-1.289.586-.703.82-1.758.117-.82-.468-.938-.47-.234-.469-.937l-1.289-.352q-2.227-1.288-5.039-2.109-2.813-.937-4.805-1.992-1.289.703-2.461.351-1.055-.35-2.812-.703a81 81 0 0 1-7.735-.82 28 28 0 0 1-7.031-2.11 4.6 4.6 0 0 0-.586-1.054q-.351-.47-1.289-.235a35 35 0 0 0-1.406-1.757 17 17 0 0 1-1.289-1.993q.234-1.405.351-2.343.117-1.055-.703-1.992.47-1.524.703-2.461.234-.938 0-2.461m114.61 48.75q-.703 3.984-3.985 5.507-1.523.118-2.344-.117a20 20 0 0 1-1.523-.586q-1.055-.468-1.875-.586l-1.289-.937a8 8 0 0 0-.586-1.172 11 11 0 0 0-.82-1.172q-.937-1.172-1.875-2.93-.703-3.397-.235-5.625a44 44 0 0 1 1.172-4.57l.469-1.406q.234-.82.469-1.524-3.048-1.64-4.571-4.687-1.523-3.046-1.757-5.859.351-2.228 1.289-3.516.938-1.407 2.109-2.227a13.3 13.3 0 0 1 2.578-1.289 51 51 0 0 1 2.695-.82l1.524.586q1.054 1.054 2.109 1.641.82-.352 1.055-1.055.351-.82.586-1.758l.703-2.109q.468-1.055 1.055-2.11-.117-1.523.468-2.812a3.8 3.8 0 0 0-1.757-.703q-.235 0-1.172-.235-1.407-1.055-1.992-1.757a26 26 0 0 0-.938-1.524q-.703-1.524-1.758-2.461l-1.172-.82.586-1.172a.8.8 0 0 0 .235-.586q0-.351-.469-1.055-.234-1.288 0-1.758l.234-1.171q.938-1.29.938-1.407l1.054-1.054a79 79 0 0 0 4.571-1.289l4.687-1.641 4.453-1.406a53 53 0 0 1 4.688-1.406 3.8 3.8 0 0 1 1.758-.704 18 18 0 0 1 1.758-.351 8 8 0 0 1 1.289-.117q.585-.118.82-.469 1.406-.469 3.281-1.055 2.93-.82 7.735-1.758 4.804-1.055 10.781-1.64l1.992-.117q.586.117 1.172.117.585-.117 1.172-.117 5.273 0 6.679 3.164 1.056.585 1.875 1.289.82.702 1.524 1.406.351.468.703.82.468.352.703.469 1.992 3.046 1.289 5.391-1.054 1.523-2.695 1.757l-1.289.704a23 23 0 0 0-1.992-.118h-1.289q-2.93 0-6.797.352-3.867.351-7.969 1.055-3.984.585-7.734 1.523t-6.563 1.992l-2.109 1.055q-.82 1.288-.938 2.109l-.234 1.407-.235.937q0 .469-.117 1.055-1.992 2.46-1.992 5.859-.82 1.407-1.055 2.109-.234.587 0 1.524 2.227.937 4.219.703a69 69 0 0 0 3.984-.586 117 117 0 0 1 5.508-.82 50 50 0 0 1 5.977-.352h3.75l-.938.938.586 1.64.938.469q.352.117.703.352l.586 1.054q.469.235.82.821.47.585.586 1.757l-4.805 6.797-1.64.469q-1.992-.117-3.516.469l-1.64.469a12.5 12.5 0 0 1-1.758.117 75 75 0 0 1-3.985.703q-1.523.234-3.164.469-2.109.234-4.101.703a19 19 0 0 0-3.75 1.054h-1.641q-.937 0-1.992.352-.937.235-1.758.469-.586.468-.82 1.055-.234.469-.469 1.054-.468 1.64-1.289 2.696v1.757q-.938 1.173-1.172 1.875a6.7 6.7 0 0 1-.351 1.172 3 3 0 0 0-.352.703 1.3 1.3 0 0 0-.117.586q.937 1.758.469 3.985m63.046-4.219q.587 3.516-.468 5.508-.938 1.992-2.813 2.929-1.758 1.056-4.101 1.172-2.344.117-4.454-.234-1.172-1.64-2.109-4.102a95 95 0 0 1-1.758-5.039 188 188 0 0 1-1.523-5.273 611 611 0 0 0-1.055-4.57q.586-1.407.703-3.165.235-1.875.235-3.75.117-1.875.117-3.75a51 51 0 0 1 .351-3.75 59 59 0 0 1 2.344-9.375 60 60 0 0 0 2.578-9.257 2.9 2.9 0 0 0-.234-1.993q-.352-.937-.117-1.757.117-.47.703-.586.585-.235.703-.821.351-1.288.117-2.109-.117-.82.469-1.992.586-.938 1.406-2.695.938-1.875.703-3.868a13 13 0 0 0 1.992-1.64 18 18 0 0 1 1.875-1.641 13.3 13.3 0 0 1 2.227-1.406q1.289-.586 3.047-.586a5.53 5.53 0 0 1 1.172 2.578q.35 1.406.586 2.813.351 1.405.937 2.695.587 1.171 1.992 1.875v2.344q0 1.406.118 2.812.117 1.289.468 2.461.47 1.055 1.407 1.406a384 384 0 0 0-3.985 11.133 111 111 0 0 0-2.929 11.133 76 76 0 0 0-1.524 11.133 51 51 0 0 0 .82 11.367m32.461-3.985q-1.289 4.688-2.343 7.149-.938 2.343-2.93 4.922-1.524-.234-2.109.351a8.4 8.4 0 0 1-1.29 1.055q-1.054.234-1.523 0a3.1 3.1 0 0 1-.82-.586 26 26 0 0 0-.938-.586q-.468-.234-1.523-.234a11.6 11.6 0 0 0-.586-1.758q-.234-.82-1.524-.586.235-.938.118-1.523-.118-.704-.352-1.172a23 23 0 0 0-.234-1.055q-.117-.586.117-1.406-.586 0-.938-.821a16 16 0 0 0-.82-1.64q.352-2.109.703-3.984a39 39 0 0 1 .82-3.516q.587-1.641.938-3.281t-.352-3.399q.469.352.704-.117.234-.586.351-1.406a14 14 0 0 0 .117-1.758q0-.938-.117-1.523a44 44 0 0 0 1.875-6.211 106 106 0 0 0 1.406-6.446q.703-3.163 1.407-6.211.702-3.047 1.875-5.625 1.288-.234 2.812.352 1.641.468 1.992 1.289 3.047-2.345 5.391-5.625a142 142 0 0 1 4.805-6.563 37 37 0 0 1 5.39-5.625q3.047-2.46 7.617-2.929a114 114 0 0 0 5.157 3.633 14.5 14.5 0 0 1 4.804 4.687q.938.469 1.524 1.055.703.469 1.64 1.054v1.407a9.6 9.6 0 0 1 2.227 3.047 22 22 0 0 1 1.641 3.632q.702 1.875 1.406 3.868a30 30 0 0 0 1.64 3.632q-.234.587-.234 1.055 0 .351.117.82.235.469.352.938t0 1.289q-.352 5.156-3.399 8.32-2.93 3.164-7.148 5.274a61.6 61.6 0 0 1-9.023 3.398q-4.805 1.406-8.672 3.047 0 .469.351.469.47 0 .352.586a444 444 0 0 1 4.453 2.812 33 33 0 0 0 3.047 1.758q1.523.703 3.164 1.289 1.758.469 4.805 1.172t4.687 1.172q1.758.352 3.164.703l2.813.469q1.523.117 4.218.351 1.054 1.055 1.758 2.578a8.3 8.3 0 0 1 1.055 2.93q.234 1.407.117 2.813-.117 1.288-.82 2.109.117.351.468.351a1.9 1.9 0 0 1 .938 0 4.2 4.2 0 0 0-1.172 1.172l-.937 1.407a5.1 5.1 0 0 1-1.055 1.171q-.587.587-1.641.704-3.632 1.405-9.14.117-5.508-1.172-13.946-4.453-4.218-1.641-6.914-2.813a77 77 0 0 1-4.57-2.461 42 42 0 0 1-3.516-2.695 327 327 0 0 0-3.75-3.399m16.758-40.195a20.4 20.4 0 0 1-2.93 3.399 117 117 0 0 0-3.046 3.164q-1.407 1.523-2.579 3.515-1.172 1.875-1.64 4.453 4.101-.468 8.555-2.226a1160 1160 0 0 1 8.437-3.516q-.468-3.633-2.578-5.859-1.992-2.227-4.219-2.93m31.172-.351q.82-2.461 2.578-4.219a20 20 0 0 1 3.985-2.93 26.8 26.8 0 0 1 4.57-2.109 71 71 0 0 1 4.453-1.406 132 132 0 0 1 9.961-3.75 135 135 0 0 1 10.898-3.282 63 63 0 0 1 11.485-1.758q5.86-.468 12.304 1.407a8.3 8.3 0 0 0 1.055 2.226l1.406 2.11a16.5 16.5 0 0 1 1.407 2.109q.585.938.703 1.992a8.9 8.9 0 0 1 1.875 2.344q.703 1.172.234 3.164a45 45 0 0 1-2.344 1.758q-1.055.703-2.343 1.289a27.7 27.7 0 0 0-8.789-.703q-4.453.351-7.969.586-1.055-1.055-2.578-1.055-1.406 0-3.047.469-1.524.468-3.164.937-1.524.47-2.93.235-1.172.937-2.93 1.289-1.64.234-3.632.469-.118.586.234.82.351.117.117.703a3.9 3.9 0 0 0 1.758 1.172l2.344.703q1.288.351 2.226.937.938.47 1.289 1.641 1.758 0 3.047.82a7.4 7.4 0 0 1 2.11 1.993q.82 1.171 1.171 2.578.47 1.288.469 2.343.352.938.82.821.47-.117 1.055.469.352 1.523 1.758 3.164A12.2 12.2 0 0 1 740.02 680q.234 2.93.351 5.273.117 2.227-.82 4.571a25.1 25.1 0 0 1-4.922 7.734q-3.047 3.399-7.031 6.094a49.8 49.8 0 0 1-8.321 4.453 90 90 0 0 1-8.672 3.164 1.9 1.9 0 0 0-.937 0q-.47.117-.234-.586a4.5 4.5 0 0 1-2.11 1.055q-1.054.234-2.344.117-1.288 0-2.695-.117a8.6 8.6 0 0 0-2.461.117 29 29 0 0 1-1.523-1.641q-.586-.702-.938-1.875-.585 0-.586-.586.117-.585-.351-.585.703-1.172.586-1.29 0-.234-.352-.351l-.469-.235q-.234-.234-.117-.585.47-.938.352-2.11l-.235-2.578a8.5 8.5 0 0 1 .118-2.461q.351-1.171 1.757-1.875 3.986.47 7.5-.234 3.633-.82 6.797-2.227a61 61 0 0 0 5.977-3.047 80 80 0 0 1 5.742-2.929q.351-1.055.938-1.758a21 21 0 0 1 1.406-1.289q.703-.587 1.289-1.289.586-.703.82-1.758.117-.82-.469-.938-.468-.234-.468-.937l-1.289-.352q-2.227-1.288-5.039-2.109-2.813-.937-4.805-1.992-1.29.703-2.461.351-1.055-.35-2.813-.703a81 81 0 0 1-7.734-.82 28 28 0 0 1-7.031-2.11 4.6 4.6 0 0 0-.586-1.054q-.352-.47-1.289-.235a35 35 0 0 0-1.406-1.757 17 17 0 0 1-1.29-1.993q.235-1.405.352-2.343.117-1.055-.703-1.992.469-1.524.703-2.461.234-.938 0-2.461m120.469-3.633q-2.93 0-6.328.469-3.4.35-6.68.82-2.344.351-4.57.586a89 89 0 0 1-3.868.351 59 59 0 0 1-1.64 4.571 58 58 0 0 1-1.758 3.867 65 65 0 0 0-1.758 4.101 96 96 0 0 0-1.406 4.336 43 43 0 0 0-1.992 3.516q-.704 1.524-1.172 3.516a12.8 12.8 0 0 0-2.109 3.75q-.704 1.874-1.055 3.281l-.469 1.406q-.703.703-.82 1.172-.117.352-.586.703-.118 1.29-.82 2.578a6.6 6.6 0 0 0-.352 1.172q-.117.47-.117.703 0 1.172-.586 1.524.117.585 0 1.289l-.235 1.172q-.351 1.405-.234 2.226.351.47.586.82.352.352.469.938.703.469 1.054.586.47.351 1.407.82l1.054 1.172q.586 3.399-1.054 5.391-1.758 2.226-5.977 2.226h-1.406q-.586-.586-.703-.937a86 86 0 0 1-1.524-.586q-.585-.234-1.054-.938a87 87 0 0 1-2.461-1.172l-1.055-.585v-1.407a8.5 8.5 0 0 1-1.289-2.343q-.352-1.29-.586-2.579a15 15 0 0 0-.586-1.992 5.2 5.2 0 0 0-.703-1.64q-.234-6.798 1.289-11.485a201 201 0 0 1 3.164-9.023l1.875-4.688a54 54 0 0 0 1.641-5.039l1.054-1.172q.82-1.874 1.289-3.047l1.172-2.578q.352-.82.586-1.523.352-.82.586-1.406-.703 0-1.289.117-.585 0-1.172.117a42 42 0 0 0-1.289.234h-1.172q-.82 0-1.172-.117-1.288.586-2.812.586h-1.875a1.04 1.04 0 0 0-.469-.117q-1.172 0-1.875.352h-3.867a2 2 0 0 0-.586.117h-.586a14 14 0 0 1-1.758-.117q-.937-.235-1.992-.821-1.405-1.875-1.875-1.992l-1.055-1.406a6.2 6.2 0 0 0-.351-1.289 37 37 0 0 1-.469-1.524 82 82 0 0 1-.937-2.461q-.352-1.406-.352-3.281.117-.938.469-1.406.351-.47.586-.82l.351-1.758 1.524.117h3.281q3.75 0 7.617-.234 3.867-.352 7.969-.704l4.687-.468q2.462-.235 5.04-.469.469-1.054.937-1.992l1.172-.586q2.11-.117 2.93.586.937.585 1.523 1.172l5.156-.469a129 129 0 0 0 5.391-.82q3.984-.587 7.969-1.055a69 69 0 0 1 7.851-.469q1.641 0 3.164.117t2.813.352l1.172.82q.352.704.937 1.289l1.406 1.172q1.407 1.29 2.813 3.047t1.055 5.156q-.938 1.407-1.407 1.641l-1.054 1.406-1.172-.117q-.704 0-1.289.234a6.7 6.7 0 0 0-1.172.352l-.938.469q-.469.117-1.054.234h-1.758a6.6 6.6 0 0 0-1.289-.117M287.378 809v-29.568h-10.32V775.4h25.2v4.032h-10.32V809zm19.196 0v-35.52h4.32v14.544a11.45 11.45 0 0 1 3.408-3.264q2.064-1.296 4.848-1.296 4.224 0 6.288 2.544 2.112 2.544 2.112 6.72V809h-4.32v-15.792q0-2.688-1.248-4.32t-3.504-1.632q-2.208 0-4.224 1.584a15.2 15.2 0 0 0-3.36 3.648V809zm38.391.576q-5.376 0-8.544-3.408-3.12-3.456-3.12-9.648 0-3.744 1.392-6.672 1.44-2.976 3.984-4.656 2.544-1.728 5.904-1.728 3.6 0 5.952 1.584 2.4 1.536 3.6 4.176t1.2 5.808q0 1.68-.144 3.264h-17.472q.432 3.504 2.448 5.472t5.328 1.968q2.16 0 3.888-.432a22.6 22.6 0 0 0 3.312-1.2l1.008 3.696q-1.728.768-3.888 1.248-2.16.528-4.848.528m-7.296-14.784h13.68q0-3.648-1.824-5.616t-5.04-1.968q-2.784 0-4.608 1.968-1.824 1.92-2.208 5.616M361.09 809v-24.96h4.176v4.176a11.8 11.8 0 0 1 3.408-3.36q2.112-1.392 4.992-1.392 4.224 0 6.288 2.544 2.112 2.544 2.112 6.72V809h-4.32v-15.792q0-2.688-1.296-4.32-1.248-1.632-3.504-1.632-2.208 0-4.176 1.584a15.2 15.2 0 0 0-3.36 3.648V809zm43.421 11.136q-1.44 0-2.544-.288-1.056-.288-1.68-.672l.96-3.6q.576.336 1.44.576t1.92.24q2.016 0 3.6-1.296t3.024-5.088l1.104-2.88h-2.304l-9.744-21.936 3.84-1.728 9.312 20.784 7.248-20.592 3.984 1.536-9.168 25.056q-1.392 3.84-3.024 6t-3.6 3.024-4.368.864m34.075-10.56q-3.552 0-6.384-1.632-2.832-1.68-4.464-4.608-1.584-2.976-1.584-6.816 0-4.032 1.632-6.96t4.464-4.512 6.336-1.584 6.288 1.584q2.832 1.584 4.464 4.512 1.68 2.88 1.68 6.864t-1.632 6.96q-1.632 2.928-4.464 4.56-2.784 1.632-6.336 1.632m0-3.84q3.792 0 5.904-2.544 2.112-2.592 2.112-6.672 0-2.496-1.056-4.56-1.056-2.112-2.88-3.36-1.776-1.296-4.08-1.296-3.792 0-5.904 2.496t-2.112 6.624q0 2.496 1.056 4.656 1.056 2.112 2.832 3.408 1.824 1.248 4.128 1.248m26.336 3.84a9.4 9.4 0 0 1-4.08-.912q-1.92-.912-3.12-2.928-1.2-2.064-1.2-5.472V784.04h4.32v15.648q0 2.928 1.248 4.512 1.248 1.536 3.648 1.536a9.7 9.7 0 0 0 3.792-.768 11.6 11.6 0 0 0 3.312-2.16V784.04h4.32v18.48q0 2.064.864 2.736a3.4 3.4 0 0 0 1.968.624l-.912 3.36q-4.464 0-5.52-3.552a14.3 14.3 0 0 1-3.888 2.832q-2.208 1.056-4.752 1.056m40.431-.576-7.872-23.808 3.984-1.392 6.432 20.304 5.856-18.288h4.656l5.712 18.288 6.384-20.304 3.84 1.392-7.92 23.808h-4.752l-5.76-18.576L510.105 809zm34.05 0v-24.96h4.32V809zm2.159-29.232q-1.247 0-2.159-.912-.864-.912-.864-2.112 0-1.392.816-2.208t2.207-.816q1.25 0 2.113.912.912.864.912 2.112 0 1.344-.816 2.208-.816.816-2.209.816m17.425 29.808q-2.208 0-3.984-.816-1.776-.864-2.832-2.736-1.008-1.872-1.008-4.848V773.48h4.32v27.264q0 2.592 1.056 3.84 1.104 1.248 3.023 1.248.913 0 1.777-.192a9.5 9.5 0 0 0 1.536-.528l1.056 3.504q-.864.384-2.16.672-1.248.288-2.784.288m16.125 0q-2.208 0-3.984-.816-1.776-.864-2.832-2.736-1.008-1.872-1.008-4.848V773.48h4.32v27.264q0 2.592 1.056 3.84 1.104 1.248 3.024 1.248.912 0 1.776-.192a9.5 9.5 0 0 0 1.536-.528l1.056 3.504q-.864.384-2.16.672-1.248.288-2.784.288m23.4-.576v-24.96h4.176v5.424a11.6 11.6 0 0 1 1.68-2.928 7.7 7.7 0 0 1 2.64-2.208q1.584-.864 3.696-.864.72 0 1.44.096.72.048 1.2.192l-1.296 4.464q-.912-.384-2.16-.384-1.776 0-3.408 1.008-1.584 1.008-2.64 3.12-1.008 2.112-1.008 5.376V809zm27.703.576q-5.376 0-8.544-3.408-3.12-3.456-3.12-9.648 0-3.744 1.392-6.672 1.44-2.976 3.984-4.656 2.544-1.728 5.904-1.728 3.6 0 5.952 1.584 2.4 1.536 3.6 4.176t1.2 5.808q0 1.68-.144 3.264h-17.472q.432 3.504 2.448 5.472t5.328 1.968q2.16 0 3.888-.432a22.6 22.6 0 0 0 3.312-1.2l1.008 3.696q-1.728.768-3.888 1.248-2.16.528-4.848.528m-7.296-14.784h13.68q0-3.648-1.824-5.616t-5.04-1.968q-2.784 0-4.608 1.968-1.824 1.92-2.208 5.616m32.973 14.784q-3.12 0-5.664-1.584t-4.08-4.464q-1.488-2.928-1.488-6.864 0-3.744 1.488-6.72 1.536-2.976 4.176-4.704 2.688-1.776 6.144-1.776 2.16 0 3.888.768 1.776.72 3.072 1.824v-2.016h3.936v18.912q0 1.824.864 2.4a3.86 3.86 0 0 0 1.968.528l-.912 3.36q-4.608 0-5.568-3.744-1.104 1.536-3.024 2.832-1.872 1.248-4.8 1.248m.96-3.84a7.3 7.3 0 0 0 3.456-.864q1.632-.912 2.736-2.256v-13.392a11 11 0 0 0-2.88-1.44 9.2 9.2 0 0 0-3.264-.576q-2.304 0-4.08 1.2-1.728 1.152-2.736 3.264-1.008 2.064-1.008 4.848 0 2.688 1.008 4.8 1.008 2.064 2.784 3.264 1.776 1.152 3.984 1.152m28.1 3.84q-3.072 0-5.616-1.584t-4.032-4.464q-1.488-2.928-1.488-6.864 0-3.792 1.488-6.768 1.536-2.976 4.032-4.704 2.544-1.728 5.568-1.728 2.496 0 4.272 1.008 1.824 1.008 2.832 2.064V773.48h4.32v29.472q0 1.824.864 2.4a3.86 3.86 0 0 0 1.968.528l-.912 3.36q-4.56 0-5.568-3.648-1.056 1.488-2.976 2.736-1.872 1.248-4.752 1.248m.96-3.84a7.24 7.24 0 0 0 3.36-.816 8.9 8.9 0 0 0 2.736-2.208v-12.384q-.912-1.152-2.544-2.112a6.7 6.7 0 0 0-3.6-1.008q-2.304 0-4.032 1.248t-2.688 3.36q-.912 2.064-.912 4.704t1.008 4.752q1.008 2.064 2.736 3.264 1.776 1.2 3.936 1.2m42.148 3.84q-3.6 0-5.712-2.352-2.064-2.4-2.064-6.816v-11.712h-4.32v-3.744h4.416l.912-7.872h3.312v7.872h6.912v3.744h-6.912v12.048q0 2.784 1.152 3.888a4.05 4.05 0 0 0 2.832 1.104q1.2 0 2.256-.384 1.104-.384 2.016-.912l1.2 3.456q-.96.576-2.592 1.104a10.2 10.2 0 0 1-3.408.576m10.343-.576v-35.52h4.32v14.544a11.45 11.45 0 0 1 3.408-3.264q2.064-1.296 4.848-1.296 4.224 0 6.288 2.544 2.112 2.544 2.112 6.72V809h-4.32v-15.792q0-2.688-1.248-4.32t-3.504-1.632q-2.208 0-4.224 1.584a15.2 15.2 0 0 0-3.36 3.648V809zm28.406 0v-24.96h4.32V809zm2.16-29.232q-1.248 0-2.16-.912-.864-.912-.864-2.112 0-1.392.816-2.208t2.208-.816q1.248 0 2.112.912.912.864.912 2.112 0 1.344-.816 2.208-.816.816-2.208.816m16.56 29.808q-2.832 0-5.136-.72-2.256-.72-3.744-1.872l1.824-3.6q1.248 1.056 3.12 1.776 1.92.672 4.08.672 2.688 0 4.032-.864 1.392-.912 1.392-2.304 0-1.008-.528-1.776-.48-.768-1.824-1.488-1.344-.768-3.888-1.632-3.504-1.2-5.28-2.832-1.728-1.68-1.728-4.608 0-2.88 2.496-4.848 2.544-2.016 7.008-2.016 2.4 0 4.272.528 1.872.48 3.36 1.248l-1.2 3.552q-1.296-.768-2.976-1.248-1.632-.48-3.648-.48-2.496 0-3.792 1.008t-1.296 2.208q0 1.152 1.008 1.968t3.936 1.776q4.752 1.584 6.624 3.504t1.872 4.8q0 3.36-2.736 5.328-2.688 1.92-7.248 1.92"/></svg>