<svg xmlns="http://www.w3.org/2000/svg" width="1080" height="1350" fill="none"><path fill="#000" d="M301.572 440.8h-12.16l-2.24 6.2h-3.84l10.08-27.72h4.2l10.04 27.72h-3.84zm-1.04-2.96-5.04-14.08-5.04 14.08zm22.193-13.16q4 0 6.48 2.44 2.48 2.4 2.48 6.96V447h-3.6v-12.4q0-3.28-1.64-5-1.64-1.76-4.48-1.76-2.88 0-4.6 1.8-1.68 1.8-1.68 5.24V447h-3.64v-21.92h3.64v3.12a7.25 7.25 0 0 1 2.92-2.6q1.88-.92 4.12-.92m13.546 11.28q0-3.36 1.36-5.88 1.359-2.56 3.72-3.96 2.4-1.4 5.36-1.4 2.56 0 4.76 1.2 2.199 1.16 3.36 3.08v-11.6h3.68V447h-3.68v-4.12q-1.08 1.96-3.2 3.24-2.12 1.24-4.96 1.24-2.92 0-5.32-1.44-2.361-1.44-3.72-4.04-1.36-2.6-1.36-5.92m18.56.04q0-2.48-1-4.32t-2.72-2.8q-1.68-1-3.72-1t-3.72.96-2.68 2.8-1 4.32q0 2.52 1 4.4 1 1.84 2.68 2.84 1.68.96 3.72.96t3.72-.96q1.72-1 2.72-2.84 1-1.88 1-4.36m39.375-10.92-13.2 32.24h-3.76l4.32-10.56-8.84-21.68h4.04l6.88 17.76 6.8-17.76zm13.219 22.28q-3.08 0-5.6-1.4-2.48-1.4-3.92-3.96-1.4-2.6-1.4-6 0-3.36 1.44-5.92 1.48-2.6 4-3.96 2.52-1.4 5.64-1.4t5.64 1.4q2.52 1.36 3.96 3.92 1.48 2.56 1.48 5.96t-1.52 6q-1.48 2.56-4.04 3.96t-5.68 1.4m0-3.2a7.7 7.7 0 0 0 3.68-.92q1.72-.92 2.76-2.76 1.08-1.84 1.08-4.48t-1.04-4.48-2.72-2.72a7.46 7.46 0 0 0-3.64-.92q-2 0-3.68.92-1.64.88-2.64 2.72t-1 4.48q0 2.68.96 4.52 1 1.84 2.64 2.76 1.64.88 3.6.88m35.466-19.08V447h-3.64v-3.24q-1.04 1.68-2.92 2.64-1.84.92-4.08.92-2.56 0-4.6-1.04-2.04-1.08-3.24-3.2-1.16-2.12-1.16-5.16v-12.84h3.6v12.36q0 3.24 1.64 5 1.64 1.72 4.48 1.72 2.92 0 4.6-1.8t1.68-5.24v-12.04zm46.01 0-6.84 21.92h-3.76l-5.28-17.4-5.28 17.4h-3.76l-6.88-21.92h3.72l5.04 18.4 5.44-18.4h3.72l5.32 18.44 4.96-18.44zm5.493-3.56q-1.04 0-1.76-.72a2.4 2.4 0 0 1-.72-1.76q0-1.04.72-1.76t1.76-.72q.999 0 1.68.72.72.72.72 1.76t-.72 1.76a2.22 2.22 0 0 1-1.68.72m1.76 3.56V447h-3.64v-21.92zm9.843-7.68V447h-3.64v-29.6zm9.844 0V447h-3.64v-29.6zm20.508 11.24q.96-1.88 2.72-2.92 1.8-1.04 4.36-1.04v3.76h-.96q-6.12 0-6.12 6.64V447h-3.64v-21.92h3.64zm31.282 6.56q0 1.04-.12 2.2h-17.52q.2 3.24 2.2 5.08 2.04 1.8 4.92 1.8 2.36 0 3.92-1.08a5.9 5.9 0 0 0 2.24-2.96h3.92q-.88 3.16-3.52 5.16-2.64 1.96-6.56 1.96-3.12 0-5.6-1.4-2.44-1.4-3.84-3.96-1.4-2.6-1.4-6t1.36-5.96 3.8-3.92q2.48-1.4 5.68-1.4 3.12 0 5.52 1.36t3.68 3.76q1.32 2.36 1.32 5.36m-3.76-.76q0-2.08-.92-3.56a5.8 5.8 0 0 0-2.52-2.28q-1.56-.8-3.48-.8-2.76 0-4.72 1.76-1.92 1.76-2.2 4.88zm7.204 1.52q0-3.36 1.36-5.88 1.36-2.56 3.72-3.96 2.4-1.4 5.32-1.4 2.88 0 5 1.24t3.16 3.12v-4h3.68V447h-3.68v-4.08q-1.08 1.92-3.24 3.2-2.12 1.24-4.96 1.24-2.919 0-5.28-1.44-2.36-1.44-3.72-4.04t-1.36-5.92m18.56.04q0-2.48-1-4.32t-2.72-2.8q-1.68-1-3.72-1t-3.72.96-2.68 2.8-1 4.32q0 2.52 1 4.4 1 1.84 2.68 2.84 1.68.96 3.72.96t3.72-.96q1.72-1 2.72-2.84 1-1.88 1-4.36m8.472-.04q0-3.36 1.36-5.88 1.359-2.56 3.72-3.96 2.4-1.4 5.36-1.4 2.56 0 4.76 1.2 2.199 1.16 3.36 3.08v-11.6h3.68V447h-3.68v-4.12q-1.08 1.96-3.2 3.24-2.12 1.24-4.96 1.24-2.92 0-5.32-1.44-2.361-1.44-3.72-4.04-1.36-2.6-1.36-5.92m18.56.04q0-2.48-1-4.32t-2.72-2.8q-1.68-1-3.72-1t-3.72.96-2.68 2.8-1 4.32q0 2.52 1 4.4 1 1.84 2.68 2.84 1.68.96 3.72.96t3.72-.96q1.72-1 2.72-2.84 1-1.88 1-4.36m24.935-7.92V441q0 1.6.68 2.28.68.64 2.36.64h2.68V447h-3.28q-3.04 0-4.56-1.4t-1.52-4.6v-12.92h-2.84v-3h2.84v-5.52h3.64v5.52h5.72v3zm21.01-3.4q2.48 0 4.48 1.08 2.001 1.04 3.12 3.16 1.16 2.12 1.16 5.16V447h-3.6v-12.4q0-3.28-1.64-5-1.64-1.76-4.48-1.76-2.88 0-4.6 1.8-1.68 1.8-1.68 5.24V447h-3.64v-29.6h3.64v10.8q1.08-1.68 2.96-2.6 1.92-.92 4.28-.92m16.586-3.16q-1.04 0-1.76-.72a2.4 2.4 0 0 1-.72-1.76q0-1.04.72-1.76t1.76-.72q1 0 1.68.72.72.72.72 1.76t-.72 1.76q-.68.72-1.68.72m1.76 3.56V447h-3.64v-21.92zm13.964 22.28q-2.52 0-4.52-.84-2-.88-3.16-2.4-1.16-1.56-1.28-3.56h3.76q.16 1.64 1.52 2.68 1.4 1.04 3.64 1.04 2.08 0 3.28-.92t1.2-2.32q0-1.44-1.28-2.12-1.28-.72-3.96-1.4-2.44-.64-4-1.28a7.6 7.6 0 0 1-2.64-1.96q-1.08-1.32-1.08-3.44a5.18 5.18 0 0 1 1-3.08q1-1.4 2.84-2.2 1.84-.84 4.2-.84 3.64 0 5.88 1.84t2.4 5.04h-3.64q-.12-1.72-1.4-2.76-1.24-1.04-3.36-1.04-1.96 0-3.12.84t-1.16 2.2q0 1.08.68 1.8.72.68 1.76 1.12 1.08.4 2.96.92 2.36.64 3.84 1.28a6.36 6.36 0 0 1 2.52 1.84q1.08 1.24 1.12 3.24 0 1.8-1 3.24t-2.84 2.28q-1.8.8-4.16.8m27.443-29.96V447h-3.64v-29.6zm4.843 18.56q0-3.36 1.36-5.88 1.36-2.56 3.72-3.96 2.4-1.4 5.32-1.4 2.88 0 5 1.24t3.16 3.12v-4h3.68V447h-3.68v-4.08q-1.08 1.92-3.24 3.2-2.12 1.24-4.96 1.24-2.919 0-5.28-1.44-2.36-1.44-3.72-4.04t-1.36-5.92m18.56.04q0-2.48-1-4.32t-2.72-2.8q-1.68-1-3.72-1t-3.72.96-2.68 2.8-1 4.32q0 2.52 1 4.4 1 1.84 2.68 2.84 1.68.96 3.72.96t3.72-.96q1.72-1 2.72-2.84 1-1.88 1-4.36m17.592 11.36q-2.52 0-4.52-.84-2-.88-3.16-2.4-1.16-1.56-1.28-3.56h3.76q.16 1.64 1.52 2.68 1.4 1.04 3.64 1.04 2.08 0 3.28-.92t1.2-2.32q0-1.44-1.28-2.12-1.281-.72-3.96-1.4-2.44-.64-4-1.28a7.6 7.6 0 0 1-2.64-1.96q-1.08-1.32-1.08-3.44a5.18 5.18 0 0 1 1-3.08q1-1.4 2.84-2.2 1.839-.84 4.2-.84 3.639 0 5.88 1.84t2.4 5.04h-3.64q-.12-1.72-1.4-2.76-1.24-1.04-3.36-1.04-1.96 0-3.12.84t-1.16 2.2q0 1.08.68 1.8.72.68 1.76 1.12 1.08.4 2.96.92 2.36.64 3.84 1.28a6.4 6.4 0 0 1 2.52 1.84q1.08 1.24 1.12 3.24 0 1.8-1 3.24t-2.84 2.28q-1.8.8-4.16.8m17.578-19.28V441q0 1.6.68 2.28.68.64 2.36.64h2.68V447h-3.28q-3.04 0-4.56-1.4t-1.52-4.6v-12.92h-2.84v-3h2.84v-5.52h3.64v5.52h5.72v3zM216.074 574.371h10.254v-24.668l-25.254-49.16h-8.965v-4.57h62.579v4.57h-9.961l19.043 40.605 16.992-36.972q.176-.411.176-.996 0-.762-.821-1.231-.762-.527-2.168-.82t-3.398-.41a48 48 0 0 0-4.278-.176v-4.57h26.719v4.57q-2.578 0-4.336.176-1.758.117-2.929.527-1.114.411-1.817 1.113-.644.704-1.172 1.817l-19.98 42.832v27.363h10.254V579h-60.938zm85.254-27.949q0-7.559 2.754-13.945t8.262-11.016q5.508-4.687 13.828-7.266 8.32-2.636 19.453-2.636t19.395 2.636q8.32 2.578 13.828 7.266 5.507 4.629 8.261 11.016 2.754 6.386 2.754 13.945 0 7.558-2.754 13.945-2.753 6.329-8.261 11.016-5.508 4.63-13.828 7.265-8.262 2.579-19.395 2.579t-19.453-2.579q-8.32-2.636-13.828-7.265-5.508-4.687-8.262-11.016-2.754-6.387-2.754-13.945m44.297 31.172q2.226 0 3.809-1.465 1.582-1.465 2.578-5.039.996-3.575 1.406-9.551.469-6.034.469-15.117 0-9.141-.469-15.117-.41-6.036-1.406-9.61t-2.578-5.039q-1.583-1.464-3.809-1.465-2.285 0-3.867 1.465t-2.578 5.039q-.997 3.574-1.465 9.61-.41 5.976-.41 15.117 0 9.082.41 15.117.469 5.976 1.465 9.551.996 3.574 2.578 5.039t3.867 1.465m61.699-59.59H397.07v-4.219h45.118v37.91q0 6.036.351 9.903.351 3.808 1.231 6.035.878 2.168 2.343 3.047 1.465.82 3.692.82 2.226 0 3.925-.938 1.7-.936 2.813-2.636 1.172-1.7 1.699-4.043.586-2.344.586-5.098v-40.781h-8.613v-4.219h43.476v60.996h10.196V579h-45.059v-7.5q-1.875 2.285-4.57 4.102-2.637 1.816-5.86 3.105-3.163 1.23-6.855 1.875-3.633.645-7.5.645-8.028 0-13.242-2.11-5.157-2.05-8.145-5.859-2.988-3.867-4.16-9.317-1.172-5.448-1.172-12.246zm153.692 0H550.82v-4.219h52.383v4.219h-5.098l10.723 37.383 8.438-30-2.578-7.383h-7.442v-4.219h49.688v4.219h-5.098l10.723 37.383q.938-3.282 1.992-6.914 1.055-3.692 2.109-7.325 1.054-3.69 1.992-7.031.938-3.398 1.7-6.094.761-2.694 1.23-4.394.47-1.758.586-2.109.117-.47.117-.762 0-.762-.82-1.289-.762-.528-2.168-.821-1.406-.351-3.399-.468a47 47 0 0 0-4.277-.176v-4.219h27.305v4.219q-2.578 0-4.453.234-1.875.175-3.164.645-1.231.41-2.051 1.113a4.7 4.7 0 0 0-1.172 1.699q-.41.996-1.289 3.516a505 505 0 0 0-1.934 6.094q-1.113 3.515-2.461 7.851-1.289 4.337-2.636 8.906a2793 2793 0 0 0-2.696 9.2 755 755 0 0 0-2.519 8.73 882 882 0 0 0-2.11 7.5 167 167 0 0 0-1.464 5.508H635.84l-15.586-45-13.008 45h-25.137zm158.847-10.137a33 33 0 0 1-6.562-.644q-3.164-.704-5.567-2.168a12.2 12.2 0 0 1-3.867-3.867q-1.465-2.344-1.465-5.743 0-3.397 1.465-5.742a11.45 11.45 0 0 1 3.867-3.867q2.403-1.524 5.567-2.168a30 30 0 0 1 6.562-.703q3.34 0 6.504.703 3.165.644 5.567 2.168a11.6 11.6 0 0 1 3.867 3.809q1.465 2.343 1.465 5.742t-1.465 5.801a12.2 12.2 0 0 1-3.867 3.867q-2.402 1.464-5.567 2.168a32.6 32.6 0 0 1-6.504.644m-27.07 66.914h10.254v-56.777h-10.254v-4.219h45.117v60.996h10.254V579h-55.371zm63.164 0h10.254v-80.156h-10.254v-4.219h45.117v84.375h10.254V579h-55.371zm63.164 0h10.254v-80.156h-10.254v-4.219h45.117v84.375h10.254V579h-55.371zm-673.183 132h10.253v-56.777h-10.253v-4.219h45.117v7.5a21 21 0 0 1 4.453-4.043 27.3 27.3 0 0 1 5.683-3.047 33.6 33.6 0 0 1 6.739-1.933 39.4 39.4 0 0 1 7.5-.703q4.043 0 7.265.996 3.224.996 5.508 2.754 2.286 1.699 3.457 4.101 1.23 2.344 1.231 5.098 0 2.637-1.348 4.98-1.288 2.344-3.633 4.102-2.285 1.758-5.39 2.812-3.106.996-6.622.996t-6.621-.996q-3.105-1.054-5.449-2.812-2.285-1.758-3.633-4.102-1.347-2.343-1.347-4.98 0-1.349.351-2.637.41-1.347 1.055-2.519-1.23.585-2.871 1.816-1.582 1.172-2.988 2.93-1.407 1.758-2.403 4.101-.937 2.286-.937 4.981v41.601h11.367V711h-56.484zm93.339-29.004q0-7.852 3.223-14.179 3.222-6.328 8.906-10.782 5.742-4.453 13.535-6.855 7.852-2.402 16.993-2.402 7.03 0 12.714 1.406 5.743 1.405 10.137 3.867 4.454 2.403 7.617 5.742 3.224 3.34 5.274 7.207a32.2 32.2 0 0 1 3.105 8.145 36.9 36.9 0 0 1 .996 8.496h-46.992q0 8.964.762 14.59.82 5.625 2.519 8.847 1.758 3.165 4.454 4.336 2.752 1.173 6.621 1.172 4.922 0 9.257-1.23 4.336-1.231 7.735-3.457 3.458-2.286 5.742-5.45 2.285-3.222 3.105-7.207h5.508q-.585 5.45-3.34 9.786-2.754 4.277-7.324 7.265-4.512 2.988-10.664 4.571-6.093 1.582-13.359 1.582-11.426 0-20.156-2.344-8.672-2.402-14.532-6.914-5.859-4.57-8.847-11.133-2.99-6.621-2.989-15.059m51.973-5.273q-.176-7.324-.703-12.188-.527-4.862-1.524-7.793-.996-2.93-2.461-4.101-1.464-1.23-3.515-1.231-2.051 0-3.574 1.231-1.465 1.171-2.461 4.101t-1.524 7.793-.644 12.188zm43.535 23.144q0-4.511 1.699-7.734 1.7-3.28 4.805-5.508 3.106-2.284 7.441-3.633 4.336-1.406 9.61-2.168 5.332-.76 11.426-.996 6.093-.293 12.656-.293v-3.281q0-7.5-1.055-12.012-.996-4.51-3.105-6.914-2.051-2.401-5.098-3.105-3.046-.762-7.09-.762-2.167 0-4.629.352a44 44 0 0 0-4.277.82q2.695.293 4.98 1.348t3.926 2.636 2.52 3.516q.937 1.934.937 3.926 0 2.46-1.23 4.629t-3.399 3.808q-2.168 1.582-5.039 2.52t-6.152.937-6.152-.937q-2.813-.937-4.981-2.52-2.109-1.64-3.34-3.808a9.24 9.24 0 0 1-1.23-4.629q0-3.281 1.758-5.918 1.816-2.637 4.863-4.629 3.105-2.05 7.266-3.516 4.218-1.464 9.023-2.402a89 89 0 0 1 9.961-1.348q5.214-.468 10.371-.468 9.141 0 15.879 1.289 6.796 1.23 11.25 4.453 4.512 3.163 6.738 8.73 2.227 5.508 2.227 14.004v24.551q0 4.394.879 6.797.937 2.344 3.398 2.344 1.23 0 1.992-.762.82-.82 1.231-2.11.468-1.289.644-2.988a34 34 0 0 0 .176-3.457v-5.801h5.215v5.801q0 4.688-1.231 7.91-1.172 3.223-4.16 5.215-2.93 1.992-7.91 2.813-4.922.879-12.422.879-3.809 0-7.148-.411-3.281-.41-6.035-1.406-2.696-.996-4.688-2.637-1.992-1.64-3.164-4.101-1.758 2.696-4.687 4.394a28.3 28.3 0 0 1-6.329 2.579 37.7 37.7 0 0 1-6.855 1.23q-3.457.352-6.328.352-6.855 0-11.66-1.465-4.805-1.407-7.793-3.809t-4.336-5.566a17.3 17.3 0 0 1-1.348-6.739m33.809-.644q0 4.336 1.582 7.031 1.581 2.637 5.215 2.637 3.047 0 5.039-2.168 1.992-2.226 1.992-5.918v-15.879q-4.219 0-6.914.762-2.696.762-4.278 2.461-1.523 1.64-2.109 4.394-.527 2.754-.527 6.68m71.66-16.582q0-6.973 2.226-13.301 2.286-6.328 6.856-11.074 4.629-4.804 11.602-7.617 6.972-2.871 16.406-2.871 6.445 0 10.898 1.64 4.454 1.583 7.383 4.043v-22.617H485.43v-4.219h45.117v84.375h10.254V711h-45.176v-4.688q-2.403 3.223-6.738 5.04-4.337 1.875-11.543 1.875-9.434 0-16.406-2.813-6.973-2.812-11.602-7.617a31.6 31.6 0 0 1-6.856-11.074q-2.226-6.329-2.226-13.301m45.996 28.066q2.168 0 3.984-.879 1.816-.937 3.106-2.929 1.347-2.052 2.109-5.215.762-3.165.762-7.735v-25.546q0-2.285-.645-4.805a15.8 15.8 0 0 0-1.992-4.629 11.5 11.5 0 0 0-3.398-3.457q-1.992-1.407-4.688-1.406-2.46 0-4.218 1.523-1.758 1.465-2.872 4.863t-1.64 8.848q-.528 5.39-.528 13.301 0 7.969.469 13.359.528 5.391 1.699 8.672 1.173 3.224 3.106 4.629 1.933 1.407 4.746 1.406m113.438-56.484h-10.254v-4.219h10.254q5.918 0 10.605-1.992 4.746-2.05 8.027-5.273 3.34-3.282 5.098-7.325 1.758-4.042 1.758-8.086h9.375v22.676h18.867v4.219h-18.867v36.094q0 6.269.644 10.254.704 3.926 1.934 6.152 1.288 2.226 2.988 3.047 1.758.762 3.867.761a9.5 9.5 0 0 0 3.985-.878q1.934-.938 3.398-2.93 1.465-2.05 2.344-5.274.879-3.28.879-8.027 0-1.113-.059-2.285-.058-1.23-.176-2.52h4.922q.177 2.93.176 5.332 0 7.325-2.051 11.954-1.992 4.57-5.742 7.148-3.75 2.579-9.14 3.516-5.332.937-12.012.937-7.5 0-13.242-1.465-5.742-1.464-9.668-4.629-3.927-3.222-5.918-8.261-1.992-5.04-1.992-12.246zm65.624 56.777h10.254v-80.156h-10.254v-4.219h45.118v30.879q1.875-2.285 4.511-4.101a29 29 0 0 1 5.918-3.047 34.8 34.8 0 0 1 6.856-1.934 44 44 0 0 1 7.558-.644q7.97 0 13.125 2.109 5.215 2.05 8.204 5.918 2.988 3.808 4.16 9.316 1.172 5.45 1.172 12.188v33.691h10.254V711h-50.977v-4.219h5.859V673.09q0-6.036-.351-9.844-.352-3.867-1.231-6.035-.879-2.226-2.343-3.047-1.465-.879-3.692-.879-2.226 0-3.926.938-1.698.938-2.871 2.636-1.113 1.7-1.699 4.043-.527 2.344-.527 5.098v40.781h5.8V711h-50.918zm140.626-66.914q-3.4 0-6.563-.644-3.164-.704-5.566-2.168a12.2 12.2 0 0 1-3.868-3.867q-1.464-2.344-1.464-5.743 0-3.397 1.464-5.742a11.45 11.45 0 0 1 3.868-3.867q2.402-1.524 5.566-2.168a30 30 0 0 1 6.563-.703q3.34 0 6.503.703 3.165.644 5.567 2.168a11.6 11.6 0 0 1 3.867 3.809q1.465 2.343 1.465 5.742t-1.465 5.801a12.2 12.2 0 0 1-3.867 3.867q-2.402 1.464-5.567 2.168a32.6 32.6 0 0 1-6.503.644m-27.071 66.914h10.254v-56.777h-10.254v-4.219h45.117v60.996h10.254V711h-55.371zm65.684-21.328h4.336q2.52 4.453 6.972 8.555 4.454 4.042 10.02 7.207a60.3 60.3 0 0 0 11.894 4.98q6.27 1.875 12.481 1.875a51 51 0 0 0 4.98-.234q2.403-.293 4.219-.996 1.817-.762 2.871-1.992 1.113-1.231 1.114-3.164 0-1.993-1.817-3.282-1.758-1.347-4.805-2.226t-7.031-1.465a688 688 0 0 0-8.203-1.172q-7.734-.996-14.473-2.637-6.738-1.64-11.718-4.511-4.981-2.871-7.852-7.266-2.812-4.395-2.812-10.898 0-5.977 2.636-10.547 2.696-4.629 7.442-7.735 4.746-3.163 11.25-4.746 6.504-1.64 14.179-1.64 3.633 0 7.325.703a52.4 52.4 0 0 1 7.207 1.875 48 48 0 0 1 6.621 2.636q3.164 1.465 5.683 2.989l7.852-7.5h4.863v23.086h-4.16q-2.403-4.044-6.094-7.5-3.633-3.457-8.261-5.977-4.629-2.52-10.02-3.926-5.391-1.465-11.25-1.465-2.871 0-5.273.293-2.403.294-4.161.938-1.756.645-2.754 1.699-.937 1.055-.937 2.52 0 1.992 1.465 3.281t4.336 2.285q2.93.938 7.207 1.699t9.961 1.641q7.206 1.172 13.418 2.871 6.21 1.7 10.722 4.629 4.57 2.93 7.149 7.441 2.637 4.512 2.637 11.368 0 5.566-2.168 10.078-2.11 4.452-6.329 7.558-4.16 3.106-10.312 4.746-6.153 1.7-14.121 1.7-3.75 0-8.086-.762a61 61 0 0 1-8.613-2.051 59 59 0 0 1-8.028-3.34q-3.808-1.992-6.445-4.453l-10.254 9.727h-4.863zM344.688 838.781H355V787.57h-10.312v-4.218H355v-4.629q0-13.887 7.852-20.215 7.85-6.328 23.203-6.328 2.226 0 5.156.293t5.977.996a42 42 0 0 1 6.093 1.875q3.047 1.172 5.391 2.929a14.1 14.1 0 0 1 3.808 4.102q1.465 2.344 1.465 5.391a9.36 9.36 0 0 1-1.054 4.336q-1.055 1.992-2.989 3.515-1.875 1.465-4.453 2.344t-5.566.879q-3.046 0-5.625-.879-2.578-.879-4.453-2.344-1.875-1.523-2.93-3.515a9.36 9.36 0 0 1-1.055-4.336q0-1.992.821-3.75a10.3 10.3 0 0 1 2.285-3.223q1.464-1.465 3.515-2.461t4.512-1.406a23 23 0 0 0-5.566-.703q-2.286 0-4.336.644a8.8 8.8 0 0 0-3.516 1.992q-1.464 1.349-2.344 3.633-.879 2.227-.879 5.508 0 2.168.704 4.277a27 27 0 0 0 1.757 4.102 47 47 0 0 0 2.403 3.75 96 96 0 0 0 2.461 3.223h13.711v4.218h-11.485v51.211h10.196V843h-55.371zm96.562-66.914q-3.399 0-6.562-.644-3.164-.704-5.567-2.168-2.402-1.524-3.867-3.867t-1.465-5.743q0-3.398 1.465-5.742a11.45 11.45 0 0 1 3.867-3.867q2.402-1.524 5.567-2.168a30 30 0 0 1 6.562-.703q3.34 0 6.504.703 3.164.644 5.566 2.168a11.6 11.6 0 0 1 3.868 3.809q1.464 2.343 1.464 5.742t-1.464 5.801a12.2 12.2 0 0 1-3.868 3.867q-2.402 1.464-5.566 2.168a32.6 32.6 0 0 1-6.504.644m-27.07 66.914h10.254v-56.777H414.18v-4.219h45.117v60.996h10.254V843H414.18zm63.164 0h10.254v-56.777h-10.254v-4.219h45.117v7.5a21 21 0 0 1 4.453-4.043 27.3 27.3 0 0 1 5.684-3.047 33.6 33.6 0 0 1 6.738-1.933 39.4 39.4 0 0 1 7.5-.703q4.043 0 7.266.996t5.507 2.754q2.286 1.699 3.457 4.101 1.231 2.344 1.231 5.098 0 2.637-1.348 4.98-1.288 2.344-3.633 4.102-2.285 1.758-5.39 2.812-3.106.996-6.621.996t-6.621-.996q-3.106-1.054-5.45-2.812-2.285-1.758-3.632-4.102-1.348-2.343-1.348-4.98 0-1.349.351-2.637.41-1.347 1.055-2.519-1.23.585-2.871 1.816-1.582 1.172-2.988 2.93-1.407 1.758-2.403 4.101-.937 2.286-.937 4.981v41.601h11.367V843h-56.484zm95.332-21.328h4.336q2.52 4.453 6.972 8.555 4.454 4.042 10.02 7.207a60.3 60.3 0 0 0 11.894 4.98q6.27 1.875 12.481 1.875a51 51 0 0 0 4.98-.234q2.403-.293 4.219-.996 1.816-.762 2.871-1.992 1.113-1.231 1.113-3.164 0-1.993-1.816-3.282-1.758-1.347-4.805-2.226t-7.031-1.465a688 688 0 0 0-8.203-1.172q-7.734-.996-14.473-2.637-6.738-1.64-11.718-4.511-4.981-2.871-7.852-7.266-2.812-4.395-2.812-10.898 0-5.977 2.636-10.547 2.696-4.629 7.442-7.735 4.746-3.164 11.25-4.746 6.504-1.64 14.179-1.64 3.633 0 7.325.703a52.4 52.4 0 0 1 7.207 1.875 48 48 0 0 1 6.621 2.636q3.164 1.465 5.683 2.989l7.852-7.5h4.863v23.086h-4.16q-2.403-4.044-6.094-7.5-3.633-3.457-8.261-5.977-4.629-2.52-10.02-3.926-5.391-1.465-11.25-1.465-2.871 0-5.273.293-2.403.294-4.161.938-1.757.645-2.753 1.699-.938 1.055-.938 2.52 0 1.992 1.465 3.281t4.336 2.285q2.93.938 7.207 1.699t9.961 1.641q7.206 1.171 13.418 2.871 6.21 1.7 10.722 4.629 4.57 2.93 7.149 7.441 2.637 4.512 2.637 11.368 0 5.566-2.168 10.078-2.11 4.452-6.329 7.558-4.16 3.106-10.312 4.746-6.153 1.7-14.121 1.7-3.75 0-8.086-.762a61 61 0 0 1-8.613-2.051 59 59 0 0 1-8.028-3.34q-3.808-1.992-6.445-4.453l-10.254 9.727h-4.863zm95.801-35.449h-10.254v-4.219h10.254q5.918 0 10.605-1.992 4.746-2.05 8.027-5.273 3.34-3.282 5.098-7.325 1.758-4.042 1.758-8.086h9.375v22.676h18.867v4.219H703.34v36.094q0 6.269.644 10.254.704 3.926 1.934 6.152 1.288 2.226 2.988 3.047 1.758.762 3.867.761a9.5 9.5 0 0 0 3.985-.878q1.934-.938 3.398-2.93 1.465-2.05 2.344-5.274.879-3.28.879-8.027 0-1.113-.059-2.285a59 59 0 0 0-.175-2.52h4.921q.177 2.93.176 5.332 0 7.325-2.051 11.954-1.992 4.57-5.742 7.148-3.75 2.579-9.14 3.516-5.332.937-12.012.937-7.5 0-13.242-1.465-5.742-1.464-9.668-4.629-3.926-3.222-5.918-8.261-1.992-5.04-1.992-12.246zm-373.798 126.54v3.552h-9.12V942h-4.368v-29.904h-9.168v-3.552zm18.432 6.672q2.976 0 5.376 1.296 2.4 1.248 3.744 3.792 1.392 2.544 1.392 6.192V942h-4.32v-14.88q0-3.936-1.968-6-1.968-2.112-5.376-2.112-3.456 0-5.52 2.16-2.016 2.16-2.016 6.288V942h-4.368v-35.52h4.368v12.96q1.296-2.016 3.552-3.12 2.304-1.104 5.136-1.104m41.648 12.624q0 1.248-.144 2.64h-21.024q.24 3.888 2.64 6.096 2.448 2.16 5.904 2.16 2.832 0 4.704-1.296a7.07 7.07 0 0 0 2.688-3.552h4.704q-1.056 3.792-4.224 6.192-3.168 2.352-7.872 2.352-3.744 0-6.72-1.68-2.928-1.68-4.608-4.752-1.68-3.12-1.68-7.2t1.632-7.152 4.56-4.704q2.976-1.68 6.816-1.68 3.744 0 6.624 1.632t4.416 4.512q1.584 2.832 1.584 6.432m-4.512-.912q0-2.496-1.104-4.272a6.95 6.95 0 0 0-3.024-2.736q-1.872-.96-4.176-.96-3.312 0-5.664 2.112-2.304 2.112-2.64 5.856zm23.093-11.712q4.8 0 7.776 2.928 2.976 2.88 2.976 8.352V942h-4.32v-14.88q0-3.936-1.968-6-1.968-2.112-5.376-2.112-3.456 0-5.52 2.16-2.016 2.16-2.016 6.288V942h-4.368v-26.304h4.368v3.744q1.296-2.016 3.504-3.12 2.256-1.104 4.944-1.104m53.34.48-15.84 38.688h-4.512l5.184-12.672-10.608-26.016h4.848l8.256 21.312 8.16-21.312zm15.863 26.736q-3.696 0-6.72-1.68-2.976-1.68-4.704-4.752-1.68-3.12-1.68-7.2 0-4.032 1.728-7.104 1.776-3.12 4.8-4.752 3.024-1.68 6.768-1.68t6.768 1.68q3.024 1.632 4.752 4.704 1.776 3.072 1.776 7.152t-1.824 7.2q-1.776 3.072-4.848 4.752t-6.816 1.68m0-3.84q2.352 0 4.416-1.104t3.312-3.312q1.296-2.208 1.296-5.376t-1.248-5.376-3.264-3.264a8.95 8.95 0 0 0-4.368-1.104q-2.4 0-4.416 1.104-1.968 1.056-3.168 3.264t-1.2 5.376q0 3.216 1.152 5.424 1.2 2.208 3.168 3.312 1.968 1.056 4.32 1.056m42.559-22.896V942h-4.368v-3.888q-1.248 2.016-3.504 3.168-2.208 1.104-4.896 1.104-3.072 0-5.52-1.248-2.448-1.296-3.888-3.84-1.392-2.544-1.392-6.192v-15.408h4.32v14.832q0 3.888 1.968 6 1.968 2.064 5.376 2.064 3.504 0 5.52-2.16t2.016-6.288v-14.448zm55.212 0L532.106 942h-4.512l-6.336-20.88-6.336 20.88h-4.512l-8.256-26.304h4.464l6.048 22.08 6.528-22.08h4.464l6.384 22.128 5.952-22.128zm6.591-4.272q-1.248 0-2.112-.864t-.864-2.112.864-2.112 2.112-.864q1.2 0 2.016.864.864.864.864 2.112t-.864 2.112a2.66 2.66 0 0 1-2.016.864m2.112 4.272V942h-4.368v-26.304zm11.813-9.216V942h-4.368v-35.52zm11.812 0V942h-4.368v-35.52zm24.61 13.488q1.152-2.256 3.264-3.504 2.16-1.248 5.232-1.248v4.512h-1.152q-7.344 0-7.344 7.968V942h-4.368v-26.304h4.368zm37.538 7.872q0 1.248-.144 2.64h-21.024q.24 3.888 2.64 6.096 2.448 2.16 5.904 2.16 2.832 0 4.704-1.296a7.07 7.07 0 0 0 2.688-3.552h4.704q-1.056 3.792-4.224 6.192-3.168 2.352-7.872 2.352-3.744 0-6.72-1.68-2.928-1.68-4.608-4.752-1.68-3.12-1.68-7.2t1.632-7.152 4.56-4.704q2.976-1.68 6.816-1.68 3.744 0 6.624 1.632t4.416 4.512q1.584 2.832 1.584 6.432m-4.512-.912q0-2.496-1.104-4.272a6.95 6.95 0 0 0-3.024-2.736q-1.872-.96-4.176-.96-3.312 0-5.664 2.112-2.304 2.112-2.64 5.856zm8.645 1.824q0-4.032 1.632-7.056 1.632-3.072 4.464-4.752 2.88-1.68 6.384-1.68 3.456 0 6 1.488t3.792 3.744v-4.8h4.416V942h-4.416v-4.896q-1.296 2.304-3.888 3.84-2.544 1.488-5.952 1.488-3.504 0-6.336-1.728t-4.464-4.848-1.632-7.104m22.272.048q0-2.976-1.2-5.184t-3.264-3.36q-2.016-1.2-4.464-1.2t-4.464 1.152-3.216 3.36-1.2 5.184q0 3.024 1.2 5.28 1.2 2.208 3.216 3.408 2.016 1.152 4.464 1.152t4.464-1.152q2.064-1.2 3.264-3.408 1.2-2.256 1.2-5.232m10.166-.048q0-4.032 1.632-7.056 1.632-3.072 4.464-4.752 2.88-1.68 6.432-1.68 3.072 0 5.712 1.44 2.64 1.392 4.032 3.696v-13.92h4.416V942h-4.416v-4.944q-1.296 2.352-3.84 3.888-2.544 1.488-5.952 1.488-3.504 0-6.384-1.728-2.832-1.728-4.464-4.848t-1.632-7.104m22.272.048q0-2.976-1.2-5.184t-3.264-3.36q-2.016-1.2-4.464-1.2t-4.464 1.152-3.216 3.36-1.2 5.184q0 3.024 1.2 5.28 1.2 2.208 3.216 3.408 2.016 1.152 4.464 1.152t4.464-1.152q2.064-1.2 3.264-3.408 1.2-2.256 1.2-5.232m29.922-9.504V934.8q0 1.92.816 2.736.816.768 2.832.768h3.216V942h-3.936q-3.648 0-5.472-1.68t-1.824-5.52v-15.504h-3.408v-3.6h3.408v-6.624h4.368v6.624h6.864v3.6zm25.213-4.08q2.976 0 5.376 1.296 2.4 1.248 3.744 3.792 1.392 2.544 1.392 6.192V942h-4.32v-14.88q0-3.936-1.968-6-1.968-2.112-5.376-2.112-3.456 0-5.52 2.16-2.016 2.16-2.016 6.288V942h-4.368v-35.52h4.368v12.96q1.296-2.016 3.552-3.12 2.304-1.104 5.136-1.104m19.903-3.792q-1.248 0-2.112-.864t-.864-2.112.864-2.112 2.112-.864q1.2 0 2.016.864.864.864.864 2.112t-.864 2.112a2.66 2.66 0 0 1-2.016.864m2.112 4.272V942h-4.368v-26.304zm16.756 26.736q-3.024 0-5.424-1.008-2.4-1.056-3.792-2.88-1.392-1.872-1.536-4.272h4.512q.192 1.968 1.824 3.216 1.68 1.248 4.368 1.248 2.496 0 3.936-1.104t1.44-2.784q0-1.728-1.536-2.544-1.536-.864-4.752-1.68-2.928-.768-4.8-1.536a9.1 9.1 0 0 1-3.168-2.352q-1.296-1.584-1.296-4.128 0-2.016 1.2-3.696t3.408-2.64q2.208-1.008 5.04-1.008 4.368 0 7.056 2.208t2.88 6.048h-4.368q-.144-2.064-1.68-3.312-1.488-1.248-4.032-1.248-2.352 0-3.744 1.008t-1.392 2.64q0 1.296.816 2.16.864.816 2.112 1.344 1.296.48 3.552 1.104 2.832.768 4.608 1.536a7.64 7.64 0 0 1 3.024 2.208q1.296 1.488 1.344 3.888 0 2.16-1.2 3.888t-3.408 2.736q-2.16.96-4.992.96"/></svg>