<svg xmlns="http://www.w3.org/2000/svg" width="1080" height="1350" fill="none"><path fill="#000" d="M353.516 440.477h-8.868L342.812 447h-2.617l8.203-28.008h1.329L357.969 447h-2.598zm-8.184-2.403h7.52l-3.692-12.91-.078-1.035-.078 1.035zM371.719 447v-14.648q0-.723-.274-1.348a3.5 3.5 0 0 0-.742-1.113 3.5 3.5 0 0 0-1.113-.743 3.3 3.3 0 0 0-1.348-.273h-1.601q-.723 0-1.368.273-.625.274-1.093.743-.47.468-.742 1.113a3.3 3.3 0 0 0-.274 1.348V447h-2.402v-20h.8l1.309 2.031a5.95 5.95 0 0 1 2.051-1.758 5.7 5.7 0 0 1 2.715-.664h.605a5.7 5.7 0 0 1 2.285.469 5.8 5.8 0 0 1 1.875 1.25 5.8 5.8 0 0 1 1.25 1.875q.47 1.074.469 2.285V447zm19.765 0-1.328-2.031a6.1 6.1 0 0 1-2.051 1.777q-1.23.645-2.695.645h-.605a5.85 5.85 0 0 1-2.285-.45 6 6 0 0 1-1.875-1.269 6 6 0 0 1-1.27-1.875 5.9 5.9 0 0 1-.449-2.285v-9.024q0-1.21.449-2.285a6 6 0 0 1 1.27-1.875 5.8 5.8 0 0 1 1.875-1.25 5.7 5.7 0 0 1 2.285-.469h.605a5.76 5.76 0 0 1 4.473 2.071v-9.688h2.402V447zm-1.601-14.648q0-.723-.274-1.348a3.5 3.5 0 0 0-.742-1.113 3.5 3.5 0 0 0-1.113-.743 3.3 3.3 0 0 0-1.348-.273h-1.601q-.723 0-1.367.273-.626.274-1.094.743-.47.468-.742 1.113a3.3 3.3 0 0 0-.274 1.348v9.296q0 .723.274 1.368a3.52 3.52 0 0 0 1.836 1.836q.644.273 1.367.273h1.601q.723 0 1.348-.273a3.47 3.47 0 0 0 1.855-1.836q.274-.645.274-1.368zm19.668 22.656h-2.324l3.554-9.727L404.297 427h2.402l5.215 15.156.078 1.035.078-1.035L417.266 427h2.402zm25.898-13.496q0 1.21-.469 2.285a5.8 5.8 0 0 1-1.25 1.875 6 6 0 0 1-1.875 1.269 5.85 5.85 0 0 1-2.285.45h-1.601a5.85 5.85 0 0 1-2.285-.45 6 6 0 0 1-1.875-1.269 6 6 0 0 1-1.27-1.875 5.9 5.9 0 0 1-.449-2.285v-9.024q0-1.21.449-2.285a6 6 0 0 1 1.27-1.875 5.8 5.8 0 0 1 1.875-1.25 5.7 5.7 0 0 1 2.285-.469h1.601q1.212 0 2.285.469a5.76 5.76 0 0 1 3.125 3.125q.47 1.074.469 2.285zm-2.402-9.16q0-.723-.274-1.348a3.5 3.5 0 0 0-.742-1.113 3.5 3.5 0 0 0-1.113-.743 3.3 3.3 0 0 0-1.348-.273h-1.601q-.723 0-1.367.273-.626.274-1.094.743-.47.468-.742 1.113a3.3 3.3 0 0 0-.274 1.348v9.296q0 .723.274 1.368a3.52 3.52 0 0 0 1.836 1.836q.644.273 1.367.273h1.601q.723 0 1.348-.273a3.47 3.47 0 0 0 1.855-1.836q.274-.645.274-1.368zM452.812 447l-1.328-2.031a6.1 6.1 0 0 1-2.05 1.777 5.7 5.7 0 0 1-2.696.645h-.605q-1.21 0-2.285-.45a6 6 0 0 1-1.875-1.269 6 6 0 0 1-1.27-1.875 5.9 5.9 0 0 1-.449-2.285V427h2.402v14.648q0 .723.274 1.368a3.52 3.52 0 0 0 1.836 1.836q.644.273 1.367.273h1.601q.723 0 1.348-.273a3.47 3.47 0 0 0 1.856-1.836q.273-.645.273-1.368V427h2.402v20zm31.661 0h-1.309l-4.687-15.078-.079-1.035-.078 1.035L473.633 447h-1.328l-6.68-20h2.441l4.766 15.117.078 1.035.078-1.035L477.676 427h1.445l4.668 15.117.078 1.035.078-1.035L488.711 427h2.441zm10.097-24.805v-3.203h2.793v3.203zm.196 24.805v-20h2.402v20zm8.828 0v-28.008h2.402V447zm8.828 0v-28.008h2.402V447zm23.125-17.715a3.45 3.45 0 0 0-2.461 1.016q-.47.468-.742 1.113a3.3 3.3 0 0 0-.274 1.348V447h-2.402v-20h.801l1.308 2.031a5.95 5.95 0 0 1 2.051-1.758 5.7 5.7 0 0 1 2.715-.664h1.406v2.676zm18.965 12.227a5.7 5.7 0 0 1-.469 2.285 5.8 5.8 0 0 1-1.25 1.875 6 6 0 0 1-1.875 1.269q-1.074.45-2.285.45h-1.602q-1.21 0-2.285-.45a6 6 0 0 1-1.875-1.269 6 6 0 0 1-1.269-1.875 5.9 5.9 0 0 1-.45-2.285v-9.024q0-1.21.45-2.285a6 6 0 0 1 1.269-1.875 5.8 5.8 0 0 1 1.875-1.25 5.7 5.7 0 0 1 2.285-.469h1.602a5.7 5.7 0 0 1 2.285.469 5.8 5.8 0 0 1 1.875 1.25 5.8 5.8 0 0 1 1.25 1.875 5.7 5.7 0 0 1 .469 2.285v4.707h-10.957v4.453q0 .723.273 1.368a3.54 3.54 0 0 0 1.836 1.836q.644.273 1.367.273h1.602q.723 0 1.347-.273.645-.274 1.114-.743.468-.469.742-1.093.273-.645.273-1.368v-1.328l2.403.391zm-2.403-9.16q0-.723-.273-1.348a3.5 3.5 0 0 0-.742-1.113 3.5 3.5 0 0 0-1.114-.743 3.3 3.3 0 0 0-1.347-.273h-1.602q-.723 0-1.367.273-.625.274-1.094.743-.468.468-.742 1.113a3.3 3.3 0 0 0-.273 1.348v2.968h8.554zM571.875 447l-1.328-1.992a6.3 6.3 0 0 1-2.051 1.738q-1.23.645-2.695.645h-.606q-1.21 0-2.285-.45a6 6 0 0 1-1.875-1.269 6 6 0 0 1-1.269-1.875 5.9 5.9 0 0 1-.45-2.285v-.196q0-1.21.45-2.285a6 6 0 0 1 1.269-1.875 5.8 5.8 0 0 1 1.875-1.25 5.7 5.7 0 0 1 2.285-.468h5.078v-3.086q0-.723-.273-1.348a3.5 3.5 0 0 0-.742-1.113 3.5 3.5 0 0 0-1.113-.743 3.3 3.3 0 0 0-1.348-.273h-1.406q-.723 0-1.368.273-.625.274-1.093.743-.47.468-.742 1.113a3.3 3.3 0 0 0-.274 1.348v.722l-2.402-.39v-.196q0-1.21.449-2.285a6 6 0 0 1 1.269-1.875 5.8 5.8 0 0 1 1.875-1.25 5.7 5.7 0 0 1 2.286-.469h1.406a5.7 5.7 0 0 1 2.285.469 5.8 5.8 0 0 1 1.875 1.25 5.8 5.8 0 0 1 1.25 1.875q.47 1.074.469 2.285V447zm-1.602-9.688h-5.078q-.722 0-1.367.274a3.4 3.4 0 0 0-1.094.762q-.468.468-.742 1.113a3.3 3.3 0 0 0-.273 1.348v.839q0 .723.273 1.368a3.54 3.54 0 0 0 1.836 1.836q.645.273 1.367.273h1.602q.723 0 1.348-.273.643-.274 1.113-.743.468-.469.742-1.093.273-.645.273-1.368zM590.039 447l-1.328-2.031a6.14 6.14 0 0 1-2.051 1.777q-1.23.645-2.695.645h-.606q-1.21 0-2.285-.45a6 6 0 0 1-1.875-1.269 6 6 0 0 1-1.269-1.875 5.9 5.9 0 0 1-.45-2.285v-9.024q0-1.21.45-2.285a6 6 0 0 1 1.269-1.875 5.8 5.8 0 0 1 1.875-1.25 5.7 5.7 0 0 1 2.285-.469h.606a5.77 5.77 0 0 1 4.473 2.071v-9.688h2.402V447zm-1.601-14.648q0-.723-.274-1.348a3.5 3.5 0 0 0-.742-1.113 3.5 3.5 0 0 0-1.113-.743 3.3 3.3 0 0 0-1.348-.273h-1.602q-.722 0-1.367.273-.624.274-1.094.743a3.5 3.5 0 0 0-.742 1.113 3.3 3.3 0 0 0-.273 1.348v9.296q0 .723.273 1.368.274.624.742 1.093.47.469 1.094.743.645.273 1.367.273h1.602q.723 0 1.348-.273.643-.274 1.113-.743.468-.469.742-1.093.274-.645.274-1.368zM612.148 447a5.3 5.3 0 0 1-2.07-.41 5.3 5.3 0 0 1-1.68-1.133 5.8 5.8 0 0 1-1.132-1.68 5.1 5.1 0 0 1-.411-2.05v-12.442h-3.593V427h3.593v-4.805l2.403-.39V427h5.078v2.285h-5.078v12.559q0 .605.215 1.133.234.507.625.898.39.39.918.625.527.215 1.132.215h2.188V447zm17.579 0v-14.648q0-.723-.274-1.348a3.5 3.5 0 0 0-.742-1.113 3.5 3.5 0 0 0-1.113-.743 3.3 3.3 0 0 0-1.348-.273h-1.602q-.722 0-1.367.273-.625.274-1.093.743a3.5 3.5 0 0 0-.743 1.113 3.3 3.3 0 0 0-.273 1.348V447h-2.402v-28.008h2.402v9.688a5.762 5.762 0 0 1 4.473-2.071h.605a5.7 5.7 0 0 1 2.285.469 5.8 5.8 0 0 1 1.875 1.25 5.8 5.8 0 0 1 1.25 1.875q.47 1.074.469 2.285V447zm7.812-24.805v-3.203h2.793v3.203zm.195 24.805v-20h2.403v20zm21.778-5.078q0 1.21-.489 2.226a5.35 5.35 0 0 1-1.328 1.719q-.84.723-1.953 1.133a6.8 6.8 0 0 1-2.304.391h-1.602q-1.21 0-2.324-.45a6.5 6.5 0 0 1-1.934-1.269 6.5 6.5 0 0 1-1.328-1.875 5.45 5.45 0 0 1-.488-2.285v-.801l2.402-.391v1.328q0 .723.293 1.368.313.624.82 1.093.509.469 1.172.743.664.273 1.387.273h1.602a4.5 4.5 0 0 0 1.386-.215 3.8 3.8 0 0 0 1.172-.605q.528-.41.82-.977.313-.566.313-1.289 0-1.074-.469-1.758a3.8 3.8 0 0 0-1.25-1.133 7.3 7.3 0 0 0-1.758-.761 62 62 0 0 0-2.011-.606 26 26 0 0 1-2.032-.703 6.9 6.9 0 0 1-1.757-1.016 4.9 4.9 0 0 1-1.231-1.601q-.469-.957-.469-2.383 0-1.21.469-2.207a5.3 5.3 0 0 1 1.27-1.738 5.7 5.7 0 0 1 1.855-1.113 6.3 6.3 0 0 1 2.285-.411h1.407a5.7 5.7 0 0 1 2.285.469 5.8 5.8 0 0 1 1.875 1.25 5.8 5.8 0 0 1 1.25 1.875q.468 1.074.468 2.285v.078l-2.402.391v-.605q0-.723-.273-1.348a3.5 3.5 0 0 0-.743-1.113 3.5 3.5 0 0 0-1.113-.743 3.3 3.3 0 0 0-1.347-.273h-1.407q-.723 0-1.367.215a3.2 3.2 0 0 0-1.094.625q-.468.39-.742.957a2.9 2.9 0 0 0-.273 1.289q0 1.035.468 1.699.47.644 1.231 1.094a9 9 0 0 0 1.758.762q.996.292 2.011.625 1.036.312 2.012.722.996.41 1.758 1.055.781.645 1.25 1.621.468.957.469 2.383M674.141 447v-28.008h2.402V447zm20.586 0-1.329-1.992a6.3 6.3 0 0 1-2.05 1.738 5.7 5.7 0 0 1-2.696.645h-.605q-1.21 0-2.285-.45a6 6 0 0 1-1.875-1.269 6 6 0 0 1-1.27-1.875 5.9 5.9 0 0 1-.449-2.285v-.196q0-1.21.449-2.285a6 6 0 0 1 1.27-1.875 5.8 5.8 0 0 1 1.875-1.25 5.7 5.7 0 0 1 2.285-.468h5.078v-3.086q0-.723-.273-1.348a3.5 3.5 0 0 0-.743-1.113 3.5 3.5 0 0 0-1.113-.743 3.3 3.3 0 0 0-1.348-.273h-1.406q-.723 0-1.367.273-.625.274-1.094.743-.468.468-.742 1.113a3.3 3.3 0 0 0-.273 1.348v.722l-2.403-.39v-.196q0-1.21.449-2.285a6 6 0 0 1 1.27-1.875 5.8 5.8 0 0 1 1.875-1.25 5.7 5.7 0 0 1 2.285-.469h1.406q1.211 0 2.286.469a5.8 5.8 0 0 1 1.875 1.25q.8.801 1.25 1.875.468 1.074.468 2.285V447zm-1.602-9.688h-5.078q-.723 0-1.367.274a3.4 3.4 0 0 0-1.094.762q-.47.468-.742 1.113a3.3 3.3 0 0 0-.274 1.348v.839q0 .723.274 1.368a3.52 3.52 0 0 0 1.836 1.836q.644.273 1.367.273h1.601q.723 0 1.348-.273a3.47 3.47 0 0 0 1.856-1.836q.273-.645.273-1.368zm20.957 4.61q0 1.21-.488 2.226a5.4 5.4 0 0 1-1.328 1.719q-.84.723-1.954 1.133a6.8 6.8 0 0 1-2.304.391h-1.602q-1.21 0-2.324-.45a6.5 6.5 0 0 1-1.934-1.269 6.5 6.5 0 0 1-1.328-1.875 5.5 5.5 0 0 1-.488-2.285v-.801l2.402-.391v1.328q0 .723.293 1.368.313.624.821 1.093.507.469 1.172.743.663.273 1.386.273h1.602q.723 0 1.387-.215a3.8 3.8 0 0 0 1.171-.605q.527-.41.821-.977.312-.566.312-1.289 0-1.074-.469-1.758a3.8 3.8 0 0 0-1.25-1.133 7.2 7.2 0 0 0-1.757-.761 62 62 0 0 0-2.012-.606 26 26 0 0 1-2.031-.703 6.9 6.9 0 0 1-1.758-1.016 4.9 4.9 0 0 1-1.231-1.601q-.468-.957-.468-2.383 0-1.21.468-2.207a5.3 5.3 0 0 1 1.27-1.738 5.7 5.7 0 0 1 1.855-1.113 6.4 6.4 0 0 1 2.286-.411h1.406a5.7 5.7 0 0 1 2.285.469 5.8 5.8 0 0 1 1.875 1.25 5.8 5.8 0 0 1 1.25 1.875 5.7 5.7 0 0 1 .469 2.285v.078l-2.403.391v-.605q0-.723-.273-1.348a3.5 3.5 0 0 0-.742-1.113 3.5 3.5 0 0 0-1.114-.743 3.3 3.3 0 0 0-1.347-.273h-1.406q-.723 0-1.368.215a3.2 3.2 0 0 0-1.093.625q-.469.39-.743.957a2.9 2.9 0 0 0-.273 1.289q0 1.035.469 1.699.468.644 1.23 1.094a9 9 0 0 0 1.758.762q.996.292 2.012.625 1.035.312 2.011.722.997.41 1.758 1.055.782.645 1.25 1.621.47.957.469 2.383M725.977 447a5.3 5.3 0 0 1-2.071-.41 5.3 5.3 0 0 1-1.679-1.133 5.8 5.8 0 0 1-1.133-1.68 5.1 5.1 0 0 1-.41-2.05v-12.442h-3.594V427h3.594v-4.805l2.402-.39V427h5.078v2.285h-5.078v12.559q0 .605.215 1.133.234.507.625.898.39.39.918.625.527.215 1.133.215h2.187V447zM102.754 581.109q-1.875 0-3.985-1.171-4.102-2.461-3.28-4.336 1.406-2.461 3.632-9.844l3.164-10.547a224 224 0 0 0 3.281-11.133l-31.289-31.875q-.82-1.054-.82-1.875 0-.82.938-1.289 1.523-.703 3.632-.703 2.228 0 4.454.703 2.343.703 5.742 3.516 6.68 5.625 21.914 23.789 6.913-20.157 9.961-25.899 3.046-5.859 4.804-7.5 1.875-1.758 3.282-1.875 1.523-.117 2.578.118t1.523 1.64q-3.632 7.734-7.031 17.578l-6.797 20.156q-9.258 27.657-15.703 40.547m37.617-24.375q0-13.827 11.953-22.265 9.493-6.68 22.852-8.086h3.281q2.578 0 6.914 1.523 9.609 3.282 13.125 11.602 1.406 3.28 1.406 5.625 0 2.226-.117 3.164 0 14.648-11.133 23.086-10.312 7.734-25.781 7.734-11.133 0-16.875-5.156-5.625-5.157-5.625-17.227m8.086 2.813q0 7.266 3.867 9.844 2.93 1.875 9.844 1.875t12.187-1.055q5.274-1.054 9.375-3.633 8.79-5.625 8.79-17.461 0-7.03-3.75-11.484-4.102-4.805-10.782-4.805a477 477 0 0 0-9.258 1.758q-4.57.938-8.671 3.633-8.907 5.742-11.602 21.328m55.898 3.867q0-1.875-.351-5.156a737 737 0 0 1-.469-7.383 138 138 0 0 1-.234-8.086q0-4.101.703-7.5 1.524-7.617 6.328-7.617 3.282.937 4.336 2.344 1.172 1.406 1.172 3.515 0 1.992-1.055 5.039-3.867 10.195-3.867 18.399 0 2.696.352 5.742 1.874 7.851 12.89 7.851 5.742 0 10.899-1.992 9.843-3.633 13.359-8.554 1.055-5.391 1.055-9.375 0-4.103-.352-7.266a139 139 0 0 0-.703-6.914 131 131 0 0 1-.469-8.438q1.523-.702 2.93-.703 1.523 0 3.047 1.524 1.64 1.523 2.695 5.742 1.171 4.218 1.524 9.961.351 5.625.351 11.719.117 6.093.117 11.836 0 5.625.469 9.726-1.406 1.29-2.695 1.289-4.688 0-6.914-9.375-1.524 1.29-5.157 3.164-7.734 4.22-18.281 5.625-1.992.235-4.453.235t-6.211-.938q-3.632-.937-6.914-4.336t-4.102-10.078m154.102-16.758q-2.578 8.555-4.336 15.821-1.64 7.265-3.281 12.07-2.578 6.914-5.86 6.914-1.757 0-3.984-1.641-5.391-5.742-15.234-25.429-9.61-19.22-9.61-24.024 0-2.109 1.289-2.578 1.29-.586 2.93-.117 3.984 1.171 5.625 3.633.82 1.172 1.992 4.101l2.93 7.266q4.921 12.304 9.727 22.5 2.577-3.984 4.921-10.313l3.633-10.078q4.688-13.242 8.438-13.476 2.93-1.875 17.578 20.742 6.21 9.609 7.734 11.484 1.055 0 2.461-7.031 1.524-7.032 2.578-11.836 1.173-4.921 2.813-9.141 3.867-9.843 8.906-9.843 1.64 0 2.227 1.172.703 1.055.703 1.757v1.055q-1.406 3.984-2.93 9.141a507 507 0 0 1-3.281 10.429 549 549 0 0 1-3.399 10.547q-1.64 5.157-3.281 9.375-3.867 9.14-6.445 9.844-1.992.938-6.446-4.57-1.992-2.578-4.218-6.094a536 536 0 0 0-4.688-7.266q-5.976-9.375-9.492-14.414m63.047-22.734q1.524 21.914 2.578 50.742-.704 3.633-5.625 3.633-1.289 0-2.695-.469-1.29-.585-1.641-1.523v-52.383zm-10.899-15.938q0-4.101 4.805-4.101 3.164 0 5.156 1.406.352 1.289.352 2.578 0 1.172-.938 2.344t-2.812 1.172-3.75-.821q-1.875-.937-2.813-2.578m20.625 25.547q-.234-6.329-.468-11.25-.235-5.039-.352-7.383 0-2.46-1.875-11.836 1.054-1.405 1.992-2.695 1.055-1.289 2.93-1.289 4.101 0 6.328 34.57a687 687 0 0 1 1.172 40.079q0 5.39-7.5 5.39l-.937-.117q0-6.094-.352-15.586-.351-9.492-.586-16.523a652 652 0 0 0-.352-13.36m18.868 0a1106 1106 0 0 0-.469-11.25q-.235-5.039-.352-7.383 0-2.46-1.875-11.836 1.055-1.405 1.993-2.695 1.054-1.289 2.929-1.289 4.102 0 6.328 34.57a686 686 0 0 1 1.172 40.079q0 5.39-7.5 5.39l-.937-.117q0-6.094-.352-15.586-.351-9.492-.586-16.523a659 659 0 0 0-.351-13.36m122.343 2.696q-4.922-3.516-12.656-3.516-7.266 0-13.476 2.695-11.719 4.923-16.055 12.656a15.7 15.7 0 0 0-1.875 7.5v3.985q0 3.164 1.172 8.672a51.7 51.7 0 0 1 1.172 11.015q-2.461.118-3.985.586-1.523.47-2.578.469-1.054 0-1.875-.937-.703-.937-1.64-3.633-.118-.703-.469-3.985a470 470 0 0 0-.938-7.968 375 375 0 0 0-1.172-10.196q-.585-5.625-1.171-11.015-1.29-11.72-1.993-17.227 0-2.812 4.102-2.812 2.462 0 3.867 2.109 1.407 1.992 2.227 4.687a24.2 24.2 0 0 1 1.054 5.157q.352 2.578.586 3.633 15.469-13.829 38.438-13.829 2.578 0 5.39.118.703-.118 1.758-.118 1.054 0 2.11 1.407 1.289 1.64 1.289 3.984 0 5.86-3.282 6.563m32.579 34.57q10.312 0 31.054-9.375 1.29 0 2.11.937.82.82.82 1.993-4.688 7.968-17.93 12.421t-24.726 1.524q-13.008-3.399-15.821-14.649-.234-2.226-.234-5.976t1.875-9.844q1.992-6.21 6.68-11.719 4.688-5.507 11.015-8.671 6.328-3.165 13.477-3.165 6.796 0 15.234 4.688 3.984 2.226 6.328 5.039t2.344 5.742q0 .82-.117 1.641-.234 7.148-6.914 9.023-2.93.82-6.797.821l-16.875-.704q-8.438 0-12.891 3.633-2.577 1.993-3.632 5.977 2.93 10.664 15 10.664m20.859-36.211q-2.578-1.875-5.391-2.695-2.812-.82-4.687-.821-1.875 0-6.094 1.289-4.218 1.173-7.5 2.696-8.086 3.75-8.086 7.851 9.375.82 14.063.821 13.007 0 17.578-2.227 2.812-1.172 2.812-2.93 0-2.109-2.695-3.984m66.211 24.961q-8.79 13.829-23.438 17.109-3.398.703-6.211.703h-4.57q-1.758-.117-3.984-.586a14.3 14.3 0 0 1-4.102-1.523q-4.336-2.461-4.336-6.914-.469-2.11-.469-4.688 0-2.694 1.172-7.031 1.173-4.335 4.219-9.375 3.164-5.039 7.617-9.258 9.258-8.905 20.039-11.484 3.165-.703 5.743-.703 2.695 0 4.804.351 6.796 0 9.141 9.258 1.523 5.86 1.758 16.406.35 10.43.586 16.172.351 5.625 1.523 10.313h-6.914a109 109 0 0 1-.703-5.625 293 293 0 0 0-.469-4.57q-.586-4.923-1.406-8.555m-.469-18.164q0-6.797-6.68-6.797a11.6 11.6 0 0 0-1.64-.117q-8.555 0-18.047 8.203-4.454 3.75-7.617 8.437-4.688 6.68-4.688 11.953 0 6.915 7.969 8.204 10.547-.235 20.156-9.61 4.102-4.101 6.797-8.906 3.75-6.446 3.75-11.367m70.899-56.485q0 11.25-.704 22.032-.585 10.664-1.171 20.976-.47 10.196-.469 21.797 0 11.484 1.64 24.375 0 2.696-1.054 3.867-.937 1.173-3.282 1.172-5.507 0-5.507-9.14v-3.868q-16.641 12.423-28.125 12.422-4.57 0-9.375-2.226-4.687-2.228-8.907-9.024a28 28 0 0 1-.586-5.742q0-2.93 1.055-7.031 1.172-4.219 4.57-8.672 3.516-4.453 8.438-7.852 10.781-7.265 23.32-7.265 5.391 0 10.313 1.64 0-2.11.234-7.382.352-5.274.703-11.133.704-15.234.938-17.93.234-2.812.586-4.687.468-1.993 1.289-3.399 1.758-2.93 6.094-2.93m-48.985 75.704q0 9.257 6.68 9.257 1.054 0 2.344-.234 4.804 0 11.836-2.813 13.359-5.273 16.289-9.14v-15.586q0-4.101-6.68-4.102-.82-.117-2.227-.117-1.288 0-4.101.586-2.813.587-6.328 2.109a46 46 0 0 0-6.914 3.75q-7.149 4.806-9.844 11.25a12.7 12.7 0 0 0-1.055 5.04m120.82 7.148.235-18.75q0-4.454-.82-7.617h-18.165l-.234-8.086h17.578v-30.235q.352-1.054 1.406-2.109 1.641-1.641 2.696-1.641 1.172 0 1.992.235t1.758 1.641q1.875 7.734 1.875 23.32 0 3.867.351 7.617 3.75-.47 7.5-.469h6.094q2.226 0 4.102-.234l-.352 8.437-17.109-.468.586 40.429q-2.11.938-3.633.938-5.86 0-5.86-13.008m85.899 9.609q-1.054 1.993-5.508 1.993-4.336 0-4.336-3.164 0-13.828-.586-18.985-1.054-11.367-4.453-12.187-8.437-1.641-13.828-1.641-5.274 0-8.789 3.281-3.399 3.164-5.274 10.664-1.757 7.383-2.578 20.86h-9.023q.234-6.68.234-12.422t-.234-13.594q-.234-7.968-.586-17.344-.586-10.78-.586-18.164 0-7.5.938-13.711 1.172-2.226 3.398-2.226 2.695 0 4.219 1.992 1.523 1.875 1.64 3.398l-.586 19.336q0 10.9 1.055 16.289 10.547-7.03 21.797-7.031 3.633 0 7.734.586 8.79 4.57 11.485 9.727a18 18 0 0 1 1.64 5.742q.352 3.047.469 6.914.703 13.36 1.758 19.687m14.883-53.437q1.523 21.914 2.578 50.742-.704 3.633-5.625 3.633-1.29 0-2.695-.469-1.29-.585-1.641-1.523v-52.383zm-10.899-15.938q0-4.101 4.805-4.101 3.164 0 5.156 1.406.352 1.289.352 2.578 0 1.172-.938 2.344t-2.812 1.172-3.75-.821q-1.875-.937-2.813-2.578m58.594 40.782q12.891 0 12.891 6.562 0 4.922-7.149 11.484-10.663 9.727-28.711 15.586-.82 0-1.875-1.64-.938-1.64-1.523-2.461-.47-.938-.703-1.172 13.476-4.454 22.148-10.781 5.86-4.219 5.86-6.914 0-2.696-6.915-2.696-6.914 0-20.273 3.282-6.093-.235-10.547-4.336-3.867-3.633-3.867-7.266 0-3.75 2.109-6.797 2.11-3.163 5.625-5.859t8.203-4.922q11.485-5.508 23.79-5.508 3.632 0 7.031.703 2.813 0 3.281 2.461.47 2.461.469 8.086-6.915-3.164-15.586-3.164-10.782 0-17.813 4.336-7.264 4.218-7.5 11.016 0 3.28 4.805 3.281l8.555-.938q11.015-2.343 17.695-2.343m-509.59 123.093q.586 0 .586 3.164t.234 4.336l-40.195 4.922 2.11 26.016-9.493-.469q0-10.547-2.343-24.14l-15.235 5.859q-1.523 0-2.578-1.758-1.875-3.046-1.875-5.508l17.813-6.328q-2.344-20.156-2.344-32.695 0-12.657 2.109-19.688t6.094-9.375q4.101-2.46 8.672-2.461 4.57 0 9.258 1.993a47.5 47.5 0 0 1 9.14 5.039q4.337 3.047 7.383 6.914 3.047 3.75 3.047 7.382 0 2.814-.586 3.985-4.687-6.562-11.367-11.719-7.97-6.094-15-6.094-6.68 0-8.906 9.493-1.055 4.921-1.055 13.945 0 8.906.469 16.406.469 7.383 2.812 14.883 7.266 0 16.289-1.289 17.344-2.695 24.961-2.813m14.531-15.937q1.524 21.914 2.579 50.742-.704 3.633-5.625 3.633-1.29 0-2.696-.469-1.289-.585-1.64-1.523v-52.383zm-10.898-15.938q0-4.101 4.805-4.101 3.164 0 5.156 1.406.351 1.289.352 2.578 0 1.172-.938 2.344t-2.812 1.172-3.75-.821q-1.875-.937-2.813-2.578m76.055 28.243q-4.922-3.516-12.657-3.516-7.264 0-13.476 2.695-11.719 4.923-16.055 12.656a15.7 15.7 0 0 0-1.875 7.5v3.985q0 3.164 1.172 8.672a51.7 51.7 0 0 1 1.172 11.015q-2.462.118-3.984.586-1.524.47-2.579.469-1.055 0-1.875-.937-.702-.937-1.64-3.633-.118-.703-.469-3.985a469 469 0 0 0-.937-7.968 383 383 0 0 0-1.172-10.196q-.587-5.625-1.172-11.015-1.29-11.72-1.992-17.227 0-2.812 4.101-2.812 2.462 0 3.867 2.109 1.407 1.992 2.227 4.687a24.2 24.2 0 0 1 1.055 5.157q.35 2.578.586 3.633 15.469-13.829 38.437-13.829 2.579 0 5.391.118.702-.118 1.757-.118 1.056 0 2.11 1.407 1.289 1.64 1.289 3.984 0 5.86-3.281 6.563m48.75 12.539q12.89 0 12.89 6.562 0 4.922-7.148 11.484-10.665 9.727-28.711 15.586-.82 0-1.875-1.64-.937-1.64-1.524-2.461-.468-.938-.703-1.172 13.478-4.454 22.149-10.781 5.859-4.219 5.859-6.914 0-2.696-6.914-2.696t-20.273 3.282q-6.094-.235-10.547-4.336-3.867-3.633-3.867-7.266 0-3.75 2.109-6.797 2.109-3.163 5.625-5.859t8.203-4.922q11.484-5.508 23.789-5.508 3.633 0 7.031.703 2.812 0 3.282 2.461.468 2.461.468 8.086-6.913-3.164-15.585-3.164-10.782 0-17.813 4.336-7.266 4.218-7.5 11.016 0 3.28 4.805 3.281l8.554-.938q11.016-2.343 17.696-2.343m37.851 18.984.235-18.75q0-4.454-.821-7.617h-18.164l-.234-8.086h17.578v-30.235q.351-1.054 1.406-2.109 1.64-1.641 2.696-1.641 1.172 0 1.992.235t1.758 1.641q1.875 7.734 1.875 23.32 0 3.867.351 7.617 3.75-.47 7.5-.469h6.094a33 33 0 0 0 4.101-.234l-.351 8.437-17.109-.468.585 40.429q-2.11.938-3.632.938-5.86 0-5.86-13.008m-295.945 79.523V810h-3.024v-30.727h-8.015v-2.882h19.055v2.882zM368.617 810v-17.578q0-.867-.328-1.617a4.2 4.2 0 0 0-.891-1.336 4.2 4.2 0 0 0-1.336-.891 4 4 0 0 0-1.617-.328h-1.922q-.867 0-1.64.328-.75.328-1.313.891t-.89 1.336a4 4 0 0 0-.328 1.617V810h-2.883v-33.609h2.883v11.625a6.901 6.901 0 0 1 5.367-2.485h.726q1.453 0 2.743.563a6.9 6.9 0 0 1 2.25 1.5q.96.96 1.5 2.25.562 1.289.562 2.742V810zm24.68-6.586q0 1.454-.563 2.742a6.9 6.9 0 0 1-1.5 2.25 7.2 7.2 0 0 1-2.25 1.524 7 7 0 0 1-2.742.539h-1.922q-1.452 0-2.742-.539a7.3 7.3 0 0 1-2.25-1.524 7.2 7.2 0 0 1-1.523-2.25 7 7 0 0 1-.539-2.742v-10.828q0-1.454.539-2.742.563-1.29 1.523-2.25a6.9 6.9 0 0 1 2.25-1.5 6.8 6.8 0 0 1 2.742-.563h1.922q1.454 0 2.742.563a6.9 6.9 0 0 1 3.75 3.75q.563 1.289.563 2.742v5.648h-13.149v5.344q0 .867.329 1.641a4.22 4.22 0 0 0 2.203 2.203 4.15 4.15 0 0 0 1.64.328h1.922q.867 0 1.617-.328a4.2 4.2 0 0 0 1.336-.891q.563-.562.891-1.312a4.2 4.2 0 0 0 .328-1.641v-1.594l2.883.469zm-2.883-10.992q0-.867-.328-1.617a4.2 4.2 0 0 0-.891-1.336 4.2 4.2 0 0 0-1.336-.891 4 4 0 0 0-1.617-.328h-1.922q-.867 0-1.64.328-.75.328-1.313.891t-.89 1.336a4 4 0 0 0-.329 1.617v3.562h10.266zM412.211 810v-17.578q0-.867-.328-1.617a4.2 4.2 0 0 0-.891-1.336 4.2 4.2 0 0 0-1.336-.891 4 4 0 0 0-1.617-.328h-1.922q-.867 0-1.64.328-.75.328-1.313.891a4.2 4.2 0 0 0-.891 1.336 4 4 0 0 0-.328 1.617V810h-2.883v-24h.961l1.571 2.438a7.1 7.1 0 0 1 2.461-2.11 6.84 6.84 0 0 1 3.257-.797h.727q1.453 0 2.742.563a6.9 6.9 0 0 1 3.75 3.75q.563 1.289.563 2.742V810zm23.601 9.609h-2.789l4.266-11.671L429.508 786h2.883l6.257 18.188.094 1.242.094-1.242L445.07 786h2.883zm31.079-16.195q0 1.454-.563 2.742a6.9 6.9 0 0 1-1.5 2.25 7.2 7.2 0 0 1-2.25 1.524 7 7 0 0 1-2.742.539h-1.922q-1.453 0-2.742-.539a7.2 7.2 0 0 1-2.25-1.524 7.2 7.2 0 0 1-1.524-2.25 7 7 0 0 1-.539-2.742v-10.828q0-1.454.539-2.742.563-1.29 1.524-2.25a6.9 6.9 0 0 1 2.25-1.5 6.8 6.8 0 0 1 2.742-.563h1.922q1.453 0 2.742.563a6.9 6.9 0 0 1 3.75 3.75q.563 1.289.563 2.742zm-2.883-10.992q0-.867-.328-1.617a4.2 4.2 0 0 0-.891-1.336 4.2 4.2 0 0 0-1.336-.891 4 4 0 0 0-1.617-.328h-1.922q-.867 0-1.641.328-.75.328-1.312.891a4.2 4.2 0 0 0-.891 1.336 4 4 0 0 0-.328 1.617v11.156q0 .867.328 1.641.329.75.891 1.312t1.312.891a4.2 4.2 0 0 0 1.641.328h1.922q.867 0 1.617-.328a4.2 4.2 0 0 0 1.336-.891q.563-.562.891-1.312a4.2 4.2 0 0 0 .328-1.641zM487.727 810l-1.594-2.438a7.35 7.35 0 0 1-2.461 2.133q-1.477.774-3.234.774h-.727q-1.453 0-2.742-.539a7.2 7.2 0 0 1-2.25-1.524 7.2 7.2 0 0 1-1.524-2.25 7 7 0 0 1-.539-2.742V786h2.883v17.578q0 .867.328 1.641.329.75.891 1.312t1.312.891a4.2 4.2 0 0 0 1.641.328h1.922q.867 0 1.617-.328a4.2 4.2 0 0 0 1.336-.891q.563-.562.891-1.312a4.2 4.2 0 0 0 .328-1.641V786h2.883v24zm37.992 0h-1.571l-5.625-18.094-.093-1.242-.094 1.242L512.711 810h-1.594l-8.015-24h2.929l5.719 18.141.094 1.242.094-1.242L517.562 786h1.735l5.601 18.141.094 1.242.094-1.242L530.805 786h2.929zm12.117-29.766v-3.843h3.352v3.843zM538.07 810v-24h2.883v24zm10.594 0v-33.609h2.883V810zm10.594 0v-33.609h2.883V810zm27.75-21.258q-.867 0-1.641.328-.75.328-1.312.891a4.2 4.2 0 0 0-.891 1.336 4 4 0 0 0-.328 1.617V810h-2.883v-24h.961l1.57 2.438a7.1 7.1 0 0 1 2.461-2.11 6.84 6.84 0 0 1 3.258-.797h1.688v3.211zm22.758 14.672q0 1.454-.563 2.742a6.9 6.9 0 0 1-1.5 2.25 7.3 7.3 0 0 1-2.25 1.524 7 7 0 0 1-2.742.539h-1.922q-1.454 0-2.742-.539a7.3 7.3 0 0 1-2.25-1.524 7.2 7.2 0 0 1-1.524-2.25 7 7 0 0 1-.539-2.742v-10.828q0-1.454.539-2.742.563-1.29 1.524-2.25a6.9 6.9 0 0 1 2.25-1.5 6.8 6.8 0 0 1 2.742-.563h1.922q1.454 0 2.742.563a6.9 6.9 0 0 1 3.75 3.75q.563 1.289.563 2.742v5.648h-13.149v5.344q0 .867.328 1.641.328.75.891 1.312t1.312.891a4.2 4.2 0 0 0 1.641.328h1.922q.867 0 1.617-.328a4.2 4.2 0 0 0 1.336-.891q.563-.562.891-1.312a4.2 4.2 0 0 0 .328-1.641v-1.594l2.883.469zm-2.883-10.992q0-.867-.328-1.617a4.2 4.2 0 0 0-.891-1.336 4.2 4.2 0 0 0-1.336-.891 4 4 0 0 0-1.617-.328h-1.922q-.867 0-1.641.328-.75.328-1.312.891a4.2 4.2 0 0 0-.891 1.336 4 4 0 0 0-.328 1.617v3.562h10.266zM630.602 810l-1.594-2.391a7.6 7.6 0 0 1-2.461 2.086q-1.477.774-3.235.774h-.726q-1.454 0-2.742-.539a7.2 7.2 0 0 1-2.25-1.524 7.2 7.2 0 0 1-1.524-2.25 7 7 0 0 1-.539-2.742v-.234q0-1.454.539-2.742.563-1.29 1.524-2.25a6.9 6.9 0 0 1 2.25-1.5 6.8 6.8 0 0 1 2.742-.563h6.094v-3.703q0-.867-.328-1.617a4.2 4.2 0 0 0-.891-1.336 4.2 4.2 0 0 0-1.336-.891 4 4 0 0 0-1.617-.328h-1.688q-.867 0-1.64.328-.75.328-1.313.891t-.89 1.336a4 4 0 0 0-.329 1.617v.867l-2.882-.469v-.234q0-1.454.539-2.742.563-1.29 1.523-2.25a6.9 6.9 0 0 1 2.25-1.5 6.8 6.8 0 0 1 2.742-.563h1.688q1.454 0 2.742.563a6.9 6.9 0 0 1 3.75 3.75q.562 1.289.562 2.742V810zm-1.922-11.625h-6.094q-.867 0-1.641.328-.75.329-1.312.914a4.2 4.2 0 0 0-.891 1.336 4 4 0 0 0-.328 1.617v1.008q0 .867.328 1.641.329.75.891 1.312t1.312.891a4.2 4.2 0 0 0 1.641.328h1.922q.867 0 1.617-.328a4.2 4.2 0 0 0 1.336-.891q.563-.562.891-1.312a4.2 4.2 0 0 0 .328-1.641zM652.398 810l-1.593-2.438a7.4 7.4 0 0 1-2.461 2.133q-1.477.774-3.235.774h-.726q-1.454 0-2.742-.539a7.2 7.2 0 0 1-2.25-1.524 7.2 7.2 0 0 1-1.524-2.25 7 7 0 0 1-.539-2.742v-10.828q0-1.454.539-2.742.563-1.29 1.524-2.25a6.9 6.9 0 0 1 2.25-1.5 6.8 6.8 0 0 1 2.742-.563h.726q1.618 0 3 .657a6.9 6.9 0 0 1 2.368 1.828v-11.625h2.882V810zm-1.921-17.578q0-.867-.329-1.617a4.2 4.2 0 0 0-.89-1.336 4.2 4.2 0 0 0-1.336-.891 4 4 0 0 0-1.617-.328h-1.922q-.867 0-1.641.328-.75.328-1.312.891a4.2 4.2 0 0 0-.891 1.336 4 4 0 0 0-.328 1.617v11.156q0 .867.328 1.641.329.75.891 1.312t1.312.891a4.2 4.2 0 0 0 1.641.328h1.922q.867 0 1.617-.328a4.2 4.2 0 0 0 1.336-.891q.563-.562.89-1.312a4.2 4.2 0 0 0 .329-1.641zM678.93 810a6.4 6.4 0 0 1-2.485-.492 6.4 6.4 0 0 1-2.015-1.36 7 7 0 0 1-1.36-2.015 6.2 6.2 0 0 1-.492-2.461v-14.93h-4.312V786h4.312v-5.766l2.883-.468V786h6.094v2.742h-6.094v15.07q0 .727.258 1.36.28.61.75 1.078.468.468 1.101.75.633.258 1.36.258h2.625V810zm21.093 0v-17.578q0-.867-.328-1.617a4.2 4.2 0 0 0-.89-1.336 4.2 4.2 0 0 0-1.336-.891 4 4 0 0 0-1.617-.328h-1.922q-.867 0-1.641.328-.75.328-1.312.891a4.2 4.2 0 0 0-.891 1.336 4 4 0 0 0-.328 1.617V810h-2.883v-33.609h2.883v11.625a6.901 6.901 0 0 1 5.367-2.485h.727q1.452 0 2.742.563a6.9 6.9 0 0 1 2.25 1.5q.96.96 1.5 2.25.562 1.289.562 2.742V810zm9.375-29.766v-3.843h3.352v3.843zm.235 29.766v-24h2.883v24zm26.133-6.094q0 1.454-.586 2.672a6.4 6.4 0 0 1-1.594 2.063 7.6 7.6 0 0 1-2.344 1.359 8.2 8.2 0 0 1-2.765.469h-1.922q-1.454 0-2.789-.539a7.8 7.8 0 0 1-2.321-1.524 7.7 7.7 0 0 1-1.593-2.25 6.5 6.5 0 0 1-.586-2.742v-.961l2.882-.469v1.594q0 .867.352 1.641.375.75.984 1.312a4.7 4.7 0 0 0 1.407.891 4.3 4.3 0 0 0 1.664.328h1.922q.866 0 1.664-.258t1.406-.726a3.5 3.5 0 0 0 .984-1.172q.375-.68.375-1.547 0-1.29-.562-2.109-.562-.82-1.5-1.36a8.7 8.7 0 0 0-2.11-.914 73 73 0 0 0-2.414-.726 32 32 0 0 1-2.437-.844 8.3 8.3 0 0 1-2.11-1.219 5.9 5.9 0 0 1-1.476-1.922q-.563-1.148-.563-2.859 0-1.454.563-2.649a6.4 6.4 0 0 1 1.523-2.086 6.8 6.8 0 0 1 2.227-1.336 7.6 7.6 0 0 1 2.742-.492h1.688q1.452 0 2.742.563a6.9 6.9 0 0 1 2.25 1.5q.96.96 1.5 2.25.562 1.289.562 2.742v.094l-2.883.468v-.726q0-.867-.328-1.617a4.2 4.2 0 0 0-.89-1.336 4.2 4.2 0 0 0-1.336-.891 4 4 0 0 0-1.617-.328h-1.688q-.867 0-1.641.258-.75.258-1.312.75a3.4 3.4 0 0 0-.891 1.148q-.327.68-.328 1.547 0 1.242.563 2.039.563.774 1.476 1.313a11 11 0 0 0 2.11.914q1.194.351 2.414.75 1.241.375 2.414.867 1.196.492 2.109 1.266a5.65 5.65 0 0 1 1.5 1.945q.563 1.148.563 2.859"/></svg>