<svg xmlns="http://www.w3.org/2000/svg" width="1080" height="1350" fill="none"><path fill="#000" d="m330.032 437.36-4.5-11.66a25 25 0 0 1-.42-1.2q-.219-.7-.42-1.48-.42 1.62-.86 2.7l-4.5 11.64zm8.08 10.64h-3q-.519 0-.84-.26a1.6 1.6 0 0 1-.48-.66l-2.68-6.92h-12.86l-2.68 6.92q-.12.36-.46.64-.339.28-.84.28h-3l11.46-28.66h3.92zm6.213-17.32q.66-.74 1.4-1.34t1.56-1.02a7.6 7.6 0 0 1 1.76-.66 8.1 8.1 0 0 1 2.02-.24q1.66 0 2.92.56 1.28.54 2.12 1.56.86 1 1.3 2.42t.44 3.14V448h-3.58v-12.9q0-2.3-1.06-3.56-1.041-1.28-3.18-1.28-1.58 0-2.96.76-1.36.76-2.52 2.06V448h-3.58v-20.26h2.14q.76 0 .94.74zm32.144 1.88q-.999-1.34-2.16-1.86-1.16-.54-2.6-.54-2.82 0-4.34 2.02t-1.52 5.76q0 1.98.34 3.4.34 1.4 1 2.32.66.9 1.62 1.32t2.18.42q1.761 0 3.06-.8 1.32-.8 2.42-2.26zm3.56-14.02V448h-2.12q-.759 0-.96-.74l-.32-2.46a11 11 0 0 1-2.96 2.52q-1.659.96-3.84.96-1.74 0-3.16-.66a6.65 6.65 0 0 1-2.42-1.98q-1-1.3-1.54-3.24t-.54-4.46q0-2.24.6-4.16.6-1.94 1.72-3.36a7.9 7.9 0 0 1 2.74-2.22q1.64-.82 3.68-.82 1.86 0 3.18.64a7.5 7.5 0 0 1 2.38 1.74v-11.22zm32.322 9.2-11.3 26.24q-.18.4-.46.64-.26.24-.82.24h-2.64l3.7-8.04-8.36-19.08h3.08q.459 0 .72.24.28.22.38.5l5.42 12.76q.32.84.54 1.76.279-.94.6-1.78l5.26-12.74q.12-.32.4-.52.3-.22.66-.22zm11.138-.32q2.22 0 4 .74a8.6 8.6 0 0 1 3.04 2.1q1.26 1.36 1.92 3.3.68 1.92.68 4.3 0 2.4-.68 4.32-.66 1.92-1.92 3.28a8.6 8.6 0 0 1-3.04 2.1q-1.78.72-4 .72-2.24 0-4.04-.72a8.6 8.6 0 0 1-3.04-2.1q-1.26-1.36-1.94-3.28-.66-1.92-.66-4.32 0-2.38.66-4.3.68-1.94 1.94-3.3a8.6 8.6 0 0 1 3.04-2.1q1.8-.74 4.04-.74m0 18.08q3 0 4.48-2 1.48-2.02 1.48-5.62 0-3.62-1.48-5.64t-4.48-2.02q-1.52 0-2.66.52a5 5 0 0 0-1.88 1.5q-.74.98-1.12 2.42-.36 1.42-.36 3.22 0 3.6 1.48 5.62 1.5 2 4.54 2m30.815-17.76V448h-2.12q-.759 0-.96-.74l-.28-2.18q-1.32 1.46-2.96 2.36-1.64.88-3.76.88-1.659 0-2.94-.54a5.9 5.9 0 0 1-2.12-1.56q-.86-1-1.3-2.42-.42-1.42-.42-3.14v-12.92h3.56v12.92q0 2.3 1.04 3.56 1.06 1.26 3.22 1.26a6.05 6.05 0 0 0 2.94-.74q1.38-.76 2.54-2.08v-14.92zm42.999 0-6.56 20.26h-2.82q-.52 0-.72-.68l-4.48-13.74a8 8 0 0 1-.26-.92q-.1-.48-.2-.94-.1.46-.2.94a9 9 0 0 1-.26.94l-4.56 13.72q-.18.68-.8.68h-2.68l-6.56-20.26h2.8q.42 0 .7.22.3.22.4.52l3.88 13.04q.34 1.44.54 2.72.18-.66.36-1.34.2-.68.42-1.38l4.28-13.12q.1-.3.34-.5.26-.2.62-.2h1.56q.4 0 .66.2t.36.5l4.18 13.12q.22.7.4 1.38t.34 1.34q.1-.66.24-1.32.16-.68.34-1.4l3.96-13.04a1 1 0 0 1 .38-.52q.28-.22.66-.22zm7.226 0V448h-3.56v-20.26zm.76-6.36q0 .52-.22.98-.2.44-.56.8-.34.34-.82.54-.46.2-.98.2a2.4 2.4 0 0 1-.98-.2 2.6 2.6 0 0 1-.78-.54 3 3 0 0 1-.54-.8 2.4 2.4 0 0 1-.2-.98q0-.52.2-.98.201-.48.54-.82.34-.36.78-.56.46-.2.98-.2t.98.2q.48.2.82.56.36.34.56.82.22.46.22.98m8.77-2.84V448h-3.56v-29.46zm9.453 0V448h-3.56v-29.46zm19.387 13.26q.96-2.08 2.36-3.24 1.401-1.18 3.42-1.18.64 0 1.22.14.6.14 1.06.44l-.26 2.66q-.12.5-.6.5-.28 0-.82-.12t-1.22-.12q-.96 0-1.72.28-.74.28-1.34.84-.58.54-1.06 1.36a12 12 0 0 0-.84 1.84V448h-3.58v-20.26h2.04q.58 0 .8.22t.3.76zm23.93 3.86q0-1.24-.36-2.26a4.8 4.8 0 0 0-1.02-1.78 4.3 4.3 0 0 0-1.62-1.16q-.96-.42-2.18-.42-2.56 0-4.06 1.5-1.48 1.48-1.84 4.12zm2.88 9.5q-.66.8-1.58 1.4-.92.58-1.98.96a11.7 11.7 0 0 1-2.16.56q-1.119.2-2.22.2-2.1 0-3.88-.7a8.8 8.8 0 0 1-3.06-2.08q-1.28-1.38-2-3.4t-.72-4.64q0-2.12.64-3.96.66-1.84 1.88-3.18a8.45 8.45 0 0 1 2.98-2.12q1.761-.78 3.96-.78 1.821 0 3.36.62a7.3 7.3 0 0 1 2.68 1.76q1.14 1.14 1.78 2.84.64 1.68.64 3.84 0 .84-.18 1.12t-.68.28h-13.54q.06 1.92.52 3.34.48 1.42 1.32 2.38.84.94 2 1.42 1.16.46 2.6.46 1.34 0 2.3-.3.981-.32 1.68-.68.7-.36 1.16-.66.48-.32.82-.32.44 0 .68.34zm15.673-6.28q-2.46.08-4.2.4-1.72.3-2.82.8-1.08.5-1.58 1.18-.48.68-.48 1.52 0 .8.26 1.38t.7.96q.46.36 1.06.54.62.16 1.32.16.94 0 1.72-.18a6.6 6.6 0 0 0 1.46-.56q.7-.36 1.32-.86.64-.5 1.24-1.14zm-11.5-8.28q1.68-1.62 3.62-2.42t4.3-.8q1.7 0 3.02.56t2.22 1.56 1.36 2.42.46 3.12V448h-1.58q-.52 0-.8-.16-.28-.18-.44-.68l-.4-1.92q-.8.74-1.56 1.32a10 10 0 0 1-1.6.96q-.84.38-1.8.58a9.2 9.2 0 0 1-2.1.22 7.5 7.5 0 0 1-2.22-.32 5.4 5.4 0 0 1-1.82-1 4.8 4.8 0 0 1-1.22-1.66q-.44-1.02-.44-2.4 0-1.2.66-2.3.66-1.12 2.14-1.98t3.86-1.4q2.38-.56 5.84-.64v-1.58q0-2.36-1.02-3.56-1.02-1.22-2.98-1.22-1.32 0-2.22.34a8 8 0 0 0-1.54.74q-.64.4-1.12.74-.46.32-.92.32-.36 0-.62-.18a1.9 1.9 0 0 1-.44-.48zm33.603 1.96q-1-1.34-2.16-1.86-1.16-.54-2.6-.54-2.82 0-4.34 2.02t-1.52 5.76q0 1.98.34 3.4.34 1.4 1 2.32.66.9 1.62 1.32t2.18.42q1.76 0 3.06-.8 1.32-.8 2.42-2.26zm3.56-14.02V448h-2.12q-.76 0-.96-.74l-.32-2.46a11 11 0 0 1-2.96 2.52q-1.66.96-3.84.96-1.74 0-3.16-.66a6.64 6.64 0 0 1-2.42-1.98q-1-1.3-1.54-3.24t-.54-4.46q0-2.24.6-4.16.6-1.94 1.72-3.36a7.9 7.9 0 0 1 2.74-2.22q1.64-.82 3.68-.82 1.86 0 3.18.64a7.55 7.55 0 0 1 2.38 1.74v-11.22zm22.077 29.78q-2.4 0-3.7-1.34-1.28-1.34-1.28-3.86v-12.4h-2.44a.83.83 0 0 1-.54-.18q-.22-.2-.22-.6v-1.42l3.32-.42.82-6.26a.85.85 0 0 1 .26-.48.8.8 0 0 1 .56-.2h1.8v6.98h5.86v2.58h-5.86v12.16q0 1.28.62 1.9t1.6.62q.56 0 .96-.14.42-.16.72-.34t.5-.32q.22-.16.38-.16.28 0 .5.34l1.04 1.7q-.92.86-2.22 1.36a7.7 7.7 0 0 1-2.68.48m11.696-17.88a10.8 10.8 0 0 1 2.88-2.2q1.58-.82 3.64-.82 1.66 0 2.92.56 1.28.54 2.12 1.56.86 1 1.3 2.42t.44 3.14V448h-3.58v-12.9q0-2.3-1.06-3.56-1.04-1.28-3.18-1.28-1.58 0-2.96.76-1.36.76-2.52 2.06V448h-3.58v-29.46h3.58zm22.485-2.7V448h-3.56v-20.26zm.76-6.36q0 .52-.22.98-.2.44-.56.8-.34.34-.82.54a2.4 2.4 0 0 1-.98.2q-.52 0-.98-.2a2.6 2.6 0 0 1-.78-.54 2.9 2.9 0 0 1-.54-.8 2.4 2.4 0 0 1-.2-.98q0-.52.2-.98.2-.48.54-.82.339-.36.78-.56.46-.2.98-.2t.98.2q.48.2.82.56.36.34.56.82.22.46.22.98m16.889 9.7a.79.79 0 0 1-.74.44q-.3 0-.68-.22a12 12 0 0 0-.94-.48 7 7 0 0 0-1.3-.5q-.76-.24-1.8-.24-.9 0-1.62.24-.72.22-1.24.62-.5.4-.78.94a2.5 2.5 0 0 0-.26 1.14q0 .78.44 1.3.46.52 1.2.9t1.68.68q.94.28 1.92.62 1 .32 1.94.72t1.68 1 1.18 1.48q.46.86.46 2.08a6.7 6.7 0 0 1-.5 2.6 5.8 5.8 0 0 1-1.48 2.06q-.98.86-2.4 1.36t-3.28.5q-2.12 0-3.84-.68-1.72-.7-2.92-1.78l.84-1.36a1.2 1.2 0 0 1 .38-.4q.22-.14.56-.14.36 0 .76.28t.96.62q.58.34 1.4.62t2.04.28q1.04 0 1.82-.26.78-.28 1.3-.74t.76-1.06q.26-.6.26-1.28 0-.84-.46-1.38-.44-.56-1.18-.94a8.7 8.7 0 0 0-1.7-.68l-1.94-.62q-.98-.32-1.94-.72a7.1 7.1 0 0 1-1.68-1.04 4.8 4.8 0 0 1-1.2-1.52q-.44-.92-.44-2.22 0-1.16.48-2.22.48-1.08 1.4-1.88.92-.82 2.26-1.3t3.06-.48q2 0 3.58.64a8.3 8.3 0 0 1 2.76 1.72zm19.419-12.54V448h-3.56v-29.46zm16.753 20.34q-2.46.08-4.2.4-1.719.3-2.82.8-1.08.5-1.58 1.18-.48.68-.48 1.52 0 .8.26 1.38t.7.96q.46.36 1.06.54.621.16 1.32.16.94 0 1.72-.18a6.6 6.6 0 0 0 1.46-.56q.7-.36 1.32-.86.64-.5 1.24-1.14zm-11.5-8.28q1.68-1.62 3.62-2.42t4.3-.8q1.7 0 3.02.56t2.22 1.56 1.36 2.42.46 3.12V448h-1.58q-.52 0-.8-.16-.28-.18-.44-.68l-.4-1.92q-.8.74-1.56 1.32a10 10 0 0 1-1.6.96q-.84.38-1.8.58a9.2 9.2 0 0 1-2.1.22 7.5 7.5 0 0 1-2.22-.32 5.4 5.4 0 0 1-1.82-1 4.85 4.85 0 0 1-1.22-1.66q-.44-1.02-.44-2.4 0-1.2.66-2.3.66-1.12 2.14-1.98t3.86-1.4q2.38-.56 5.84-.64v-1.58q0-2.36-1.02-3.56-1.02-1.22-2.98-1.22-1.32 0-2.22.34-.88.32-1.54.74-.64.4-1.12.74-.46.32-.92.32-.36 0-.62-.18a1.9 1.9 0 0 1-.44-.48zm32.203.48a.79.79 0 0 1-.74.44q-.3 0-.68-.22a12 12 0 0 0-.94-.48 7 7 0 0 0-1.3-.5q-.76-.24-1.8-.24-.9 0-1.62.24-.72.22-1.24.62-.5.4-.78.94a2.5 2.5 0 0 0-.26 1.14q0 .78.44 1.3.46.52 1.2.9t1.68.68q.94.28 1.92.62 1 .32 1.94.72t1.68 1 1.18 1.48q.46.86.46 2.08a6.7 6.7 0 0 1-.5 2.6 5.8 5.8 0 0 1-1.48 2.06q-.98.86-2.4 1.36t-3.28.5q-2.12 0-3.84-.68-1.72-.7-2.92-1.78l.84-1.36a1.2 1.2 0 0 1 .38-.4q.22-.14.56-.14.36 0 .76.28t.96.62q.58.34 1.4.62t2.04.28q1.04 0 1.82-.26.78-.28 1.3-.74t.76-1.06q.26-.6.26-1.28 0-.84-.46-1.38-.44-.56-1.18-.94a8.7 8.7 0 0 0-1.7-.68l-1.94-.62q-.98-.32-1.94-.72a7.1 7.1 0 0 1-1.68-1.04 4.8 4.8 0 0 1-1.2-1.52q-.44-.92-.44-2.22 0-1.16.48-2.22.48-1.08 1.4-1.88.92-.82 2.26-1.3t3.06-.48q2 0 3.58.64a8.3 8.3 0 0 1 2.76 1.72zm11.725 17.24q-2.4 0-3.7-1.34-1.28-1.34-1.28-3.86v-12.4h-2.44a.82.82 0 0 1-.54-.18q-.22-.2-.22-.6v-1.42l3.32-.42.82-6.26q.06-.3.26-.48a.8.8 0 0 1 .56-.2h1.8v6.98h5.86v2.58h-5.86v12.16q0 1.28.62 1.9t1.6.62q.56 0 .96-.14.42-.16.72-.34t.5-.32q.22-.16.38-.16.28 0 .5.34l1.04 1.7q-.921.86-2.22 1.36a7.7 7.7 0 0 1-2.68.48m-555.254 75.64 20.28-30.36h21.6l-36.96 53.16-5.88 33.24h-21.72l5.88-33.24-18.24-53.16h22.92l9.36 30.36zm61.394-3.36q12.96 0 19.56 5.64 5.16 4.44 5.16 12.36 0 2.64-.6 5.76l-2.52 14.04q-2.28 12.72-10.68 18-8.28 5.28-22.2 5.28t-20.4-5.28q-4.8-3.96-4.8-11.88 0-2.76.6-6.12l2.52-14.04q4.2-23.76 33.36-23.76m3.24 26.16q.24-1.2.24-3 0-1.92-1.56-4.2t-5.52-2.28q-3.84 0-6.48 2.64-2.64 2.52-3.36 6.84l-1.56 9q-.24 1.2-.24 3.12 0 1.8 1.56 3.96t5.4 2.16q3.96 0 6.6-2.64 2.64-2.76 3.36-6.6zm86.454 14.76q0 3.12 3.12 3.12 3.24 0 5.4-1.2l-.6 13.56q-5.76 4.68-12.96 4.68-13.56 0-14.76-10.44-7.2 10.44-19.44 10.44-12.12 0-15.72-5.52-2.4-3.48-2.4-7.92t.72-8.16l6.72-37.8h20.4l-5.64 31.92q-.36 2.16-.36 4.32 0 5.76 6.48 5.76 5.4 0 8.64-3.72l6.84-38.28h20.4l-6.72 37.8q-.12.72-.12 1.44m142.857-39.24q1.68 5.04 1.68 13.44 0 8.28-2.04 15.96t-6.24 14.64q-4.08 6.84-11.52 11.16-7.32 4.2-16.92 4.2-14.4 0-19.2-8.04-8.64 8.04-19.32 8.04-14.4 0-19.8-6.12-3.6-4.08-3.6-12.12 0-4.2.96-9.36l5.64-31.8h20.4l-5.64 31.92q-.36 1.8-.36 3.24 0 6.84 7.08 6.84 4.92 0 7.44-4.2 2.52-4.32 4.32-15l4.08-22.8h20.4l-5.64 31.92q-.36 1.8-.36 3.24 0 6.84 7.08 6.84 12.48 0 12.48-26.16 0-6.12-.96-13.56l-.36-2.28zm33.803 42.36q2.76 0 4.92-1.2l-.6 13.56q-5.64 4.68-12.84 4.68-10.92 0-14.16-5.04-2.16-3.36-2.16-7.08 0-3.84.48-6.72l7.2-40.56h20.4l-6.72 37.8q-.12.72-.12 1.32 0 3.24 3.6 3.24m-14.76-61.92q0-7.68 3.36-11.16 3.48-3.6 10.68-3.6 10.08 0 10.08 8.88 0 7.56-3.48 11.04-3.36 3.48-10.68 3.48-9.96 0-9.96-8.64m49.377 58.8q0 3.12 3.12 3.12 3.24 0 5.4-1.2l-.6 13.56q-5.76 4.68-12.96 4.68-10.92 0-14.16-5.04a13.03 13.03 0 0 1-2.04-7.08q0-3.84.48-6.72l13.08-73.92h20.4l-12.6 71.16q-.12.72-.12 1.44m38.32 0q0 3.12 3.12 3.12 3.24 0 5.4-1.2l-.6 13.56q-5.76 4.68-12.96 4.68-10.92 0-14.16-5.04a13.03 13.03 0 0 1-2.04-7.08q0-3.84.48-6.72l13.08-73.92h20.4l-12.6 71.16q-.12.72-.12 1.44m103.029-27q0 4.08-1.44 7.92-1.32 3.84-2.64 5.64l-1.32 1.68h-18.12q3-2.76 3-6.84 0-2.16-1.44-3.48-1.32-1.44-3.72-1.44-4.08 0-7.08 4.08l-6.72 37.92h-20.4l10.2-57.72h18.96l-1.44 8.04q6.84-9.72 16.56-9.72 7.8 0 11.64 3.72 3.96 3.72 3.96 10.2m27.681 47.16q-24.96 0-24.96-17.28 0-2.4.48-5.16l2.52-14.88q2.04-11.52 10.56-17.64 8.64-6.24 22.8-6.24 24.12 0 24.12 18.24 0 2.64-.48 5.76l-1.44 8.52h-36.6l-.48 2.76q-.24 1.44-.24 2.64 0 6.6 7.8 6.6 2.88 0 4.92-1.8t2.4-4.2l19.92.24q-3.96 22.44-31.32 22.44m14.4-36q.48-2.04.48-3.72 0-1.8-1.56-3.6t-5.04-1.8q-3.36 0-6.24 2.28-2.76 2.28-3.84 6.84zm83.85 15.84q0 3.12 3.12 3.12 3.24 0 5.4-1.2l-.6 13.56q-5.76 4.68-12.96 4.68-13.2 0-14.64-9.6-6 9.6-17.64 9.6-19.68 0-19.68-16.92 0-2.88.6-6.36l2.52-14.04q1.92-10.8 8.76-17.16 6.96-6.48 18-6.48 11.16 0 15.12 5.16l.6-3.6h18.24l-6.72 37.8q-.12.72-.12 1.44m-35.52-5.76q-.24 1.08-.24 3t1.8 3.84q1.8 1.8 6 1.8 4.32 0 7.44-3.36l3.6-20.16q-1.32-3-6.24-3-9.24 0-10.8 8.88zm107.708 5.76q0 3.12 3.12 3.12 3.24 0 5.4-1.2l-.6 13.56q-5.76 4.68-12.96 4.68-13.2 0-14.64-9.6-6 9.6-17.64 9.6-19.68 0-19.68-16.92 0-2.88.6-6.36l2.52-14.04q1.92-10.8 8.76-17.16 6.96-6.48 19.2-6.48 7.56 0 12 3.24l6.12-35.04h20.52l-12.6 71.16q-.12.72-.12 1.44m-35.52-5.76q-.24 1.08-.24 3t1.8 3.84q1.8 1.8 6 1.8 4.32 0 7.44-3.36l3.6-20.16q-1.32-3-6.24-3-9.24 0-10.8 8.88zM280.488 713.68q-13.92 0-20.04-6.24-4.56-4.56-4.56-12.24 0-2.52.48-5.4l8.16-46.44 21.96-9.12-3.48 20.04h33.12l-3 16.92h-33.12l-2.4 13.56q-.48 2.28-.48 4.08 0 7.56 7.2 7.56 3.84 0 6.36-3.24 2.64-3.24 3.6-8.64h19.92q-5.04 29.16-33.72 29.16m102.459-17.04q2.76 0 4.92-1.2l-.6 13.56q-5.64 4.68-12.84 4.68-16.32 0-16.32-13.68 0-2.4.48-5.16l2.64-14.76q.36-2.16.36-4.32 0-5.76-6.12-5.76-6 0-9.36 4.08l-6.72 37.92h-20.4l16.08-91.08h20.4l-6.84 38.76q6.6-7.08 16.56-7.08 12.12 0 15.72 5.4 2.52 3.6 2.52 8.04t-.72 8.16l-3.24 17.88q-.12.72-.12 1.32 0 3.24 3.6 3.24m37.337 0q2.76 0 4.92-1.2l-.6 13.56q-5.64 4.68-12.84 4.68-10.92 0-14.16-5.04-2.16-3.36-2.16-7.08 0-3.84.48-6.72l7.2-40.56h20.4l-6.72 37.8q-.12.72-.12 1.32 0 3.24 3.6 3.24m-14.76-61.92q0-7.68 3.36-11.16 3.48-3.6 10.68-3.6 10.08 0 10.08 8.88 0 7.56-3.48 11.04-3.36 3.48-10.68 3.48-9.96 0-9.96-8.64m87.057 32.04q0 3.96-2.4 7.32h-19.68q.96-.72.96-2.4t-1.92-2.64q-1.92-1.08-4.92-1.08-9 0-9 5.52 0 2.16 3.36 3.12t8.16 1.56 9.6 1.8q4.8 1.08 8.16 4.44t3.36 9q0 9.96-8.04 15.12-7.92 5.16-23.16 5.16t-21.36-4.92q-4.8-3.84-4.8-10.56 0-1.92.36-3.96l20.04-.24q-.24 1.68 1.92 3 2.28 1.2 6.6 1.2t6.24-.84q1.92-.96 1.92-3.48 0-1.68-3.36-2.28-3.36-.72-8.28-1.2-4.8-.48-9.72-1.56-4.8-1.08-8.16-4.56t-3.36-9.12q0-10.92 8.4-16.8 8.52-5.88 24.48-5.88 24.6 0 24.6 14.28m86.888 47.4q0 17.52-9 28.68-8.88 11.28-24.24 11.28-15.24 0-20.28-7.56-3.12-4.8-3.12-11.76 0-6.84 1.2-13.68l15.36-86.88h20.4l-3.6 20.04h29.88l-3 16.92h-23.52q8.52 6.84 14.16 17.76 5.76 10.92 5.76 25.2m-30.12 22.8q3.72 0 6.36-6t2.64-15.84q0-9.72-2.04-19.68-1.92-9.96-4.68-15.6l-7.2 41.16q-.72 4.2-.72 7.32 0 8.64 5.64 8.64m65.466-40.32q2.76 0 4.92-1.2l-.6 13.56q-5.64 4.68-12.84 4.68-10.92 0-14.16-5.04-2.16-3.36-2.16-7.08 0-3.84.48-6.72l7.2-40.56h20.4l-6.72 37.8q-.12.72-.12 1.32 0 3.24 3.6 3.24m-14.76-61.92q0-7.68 3.36-11.16 3.48-3.6 10.68-3.6 10.08 0 10.08 8.88 0 7.56-3.48 11.04-3.36 3.48-10.68 3.48-9.96 0-9.96-8.64m85.258 31.8q0 4.08-1.44 7.92-1.32 3.84-2.64 5.64l-1.32 1.68h-18.12q3-2.76 3-6.84 0-2.16-1.44-3.48-1.32-1.44-3.72-1.44-4.08 0-7.08 4.08l-6.72 37.92h-20.4l10.2-57.72h18.96l-1.44 8.04q6.84-9.72 16.56-9.72 7.8 0 11.64 3.72 3.96 3.72 3.96 10.2m63.44.24q0 3.96-2.4 7.32h-19.68q.96-.72.96-2.4t-1.92-2.64q-1.92-1.08-4.92-1.08-9 0-9 5.52 0 2.16 3.36 3.12t8.16 1.56 9.6 1.8q4.8 1.08 8.16 4.44t3.36 9q0 9.96-8.04 15.12-7.92 5.16-23.16 5.16t-21.36-4.92q-4.8-3.84-4.8-10.56 0-1.92.36-3.96l20.04-.24q-.24 1.68 1.92 3 2.28 1.2 6.6 1.2t6.24-.84q1.92-.96 1.92-3.48 0-1.68-3.36-2.28-3.36-.72-8.28-1.2-4.8-.48-9.72-1.56-4.8-1.08-8.16-4.56t-3.36-9.12q0-10.92 8.4-16.8 8.52-5.88 24.48-5.88 24.6 0 24.6 14.28m31.54 46.92q-13.92 0-20.04-6.24-4.56-4.56-4.56-12.24 0-2.52.48-5.4l8.16-46.44 21.96-9.12-3.48 20.04h33.12l-3 16.92h-33.12l-2.4 13.56q-.48 2.28-.48 4.08 0 7.56 7.2 7.56 3.84 0 6.36-3.24 2.64-3.24 3.6-8.64h19.92q-5.04 29.16-33.72 29.16m-453.942 66.84h-11.136V811h-4.632v-30.48h-11.16v-3.912h26.928zm7.97 9.408a12.9 12.9 0 0 1 3.456-2.64q1.896-.984 4.368-.984 1.992 0 3.504.672a6.5 6.5 0 0 1 2.544 1.872q1.032 1.2 1.56 2.904t.528 3.768V811h-4.296v-15.48q0-2.76-1.272-4.272-1.248-1.536-3.816-1.536a7.25 7.25 0 0 0-3.552.912q-1.632.912-3.024 2.472V811h-4.296v-35.352h4.296zm38.741 6.264q0-1.488-.432-2.712-.408-1.248-1.224-2.136a5.2 5.2 0 0 0-1.944-1.392q-1.152-.504-2.616-.504-3.072 0-4.872 1.8-1.776 1.776-2.208 4.944zm3.456 11.4q-.792.96-1.896 1.68-1.104.696-2.376 1.152-1.248.456-2.592.672-1.344.24-2.664.24-2.52 0-4.656-.84a10.5 10.5 0 0 1-3.672-2.496q-1.536-1.656-2.4-4.08t-.864-5.568q0-2.544.768-4.752.792-2.208 2.256-3.816 1.464-1.632 3.576-2.544 2.112-.936 4.752-.936 2.184 0 4.032.744a8.8 8.8 0 0 1 3.216 2.112q1.368 1.368 2.136 3.408.768 2.016.768 4.608 0 1.008-.216 1.344t-.816.336h-16.248q.072 2.304.624 4.008.576 1.704 1.584 2.856a6.5 6.5 0 0 0 2.4 1.704q1.392.552 3.12.552 1.608 0 2.76-.36a14 14 0 0 0 2.016-.816q.84-.432 1.392-.792.576-.384.984-.384.528 0 .816.408zm9.664-17.376a14.4 14.4 0 0 1 1.68-1.608q.888-.72 1.872-1.224a9 9 0 0 1 2.112-.792 9.8 9.8 0 0 1 2.424-.288q1.992 0 3.504.672a6.5 6.5 0 0 1 2.544 1.872q1.032 1.2 1.56 2.904t.528 3.768V811h-4.296v-15.48q0-2.76-1.272-4.272-1.248-1.536-3.816-1.536a7.25 7.25 0 0 0-3.552.912q-1.632.912-3.024 2.472V811h-4.296v-24.312h2.568q.912 0 1.128.888zm54.772-3.528-13.56 31.488q-.216.48-.552.768-.312.288-.984.288h-3.168l4.44-9.648-10.032-22.896h3.696q.552 0 .864.288.336.264.456.6l6.504 15.312q.384 1.008.648 2.112.336-1.128.72-2.136l6.312-15.288q.144-.384.48-.624a1.3 1.3 0 0 1 .792-.264zm13.366-.384q2.664 0 4.8.888a10.3 10.3 0 0 1 3.648 2.52q1.512 1.632 2.304 3.96.816 2.304.816 5.16 0 2.88-.816 5.184-.792 2.304-2.304 3.936a10.3 10.3 0 0 1-3.648 2.52q-2.136.864-4.8.864-2.688 0-4.848-.864a10.3 10.3 0 0 1-3.648-2.52q-1.512-1.632-2.328-3.936-.792-2.304-.792-5.184 0-2.856.792-5.16.816-2.328 2.328-3.96a10.3 10.3 0 0 1 3.648-2.52q2.16-.888 4.848-.888m0 21.696q3.6 0 5.376-2.4 1.776-2.424 1.776-6.744 0-4.344-1.776-6.768t-5.376-2.424q-1.824 0-3.192.624a6 6 0 0 0-2.256 1.8q-.888 1.176-1.344 2.904-.432 1.704-.432 3.864 0 4.32 1.776 6.744 1.8 2.4 5.448 2.4m36.978-21.312V811h-2.544q-.912 0-1.152-.888l-.336-2.616a13.6 13.6 0 0 1-3.552 2.832q-1.968 1.056-4.512 1.056-1.992 0-3.528-.648a7.1 7.1 0 0 1-2.544-1.872q-1.032-1.2-1.56-2.904-.504-1.704-.504-3.768v-15.504h4.272v15.504q0 2.76 1.248 4.272 1.272 1.512 3.864 1.512 1.896 0 3.528-.888 1.656-.912 3.048-2.496v-17.904zm51.598 0L535.024 811h-3.384q-.624 0-.864-.816l-5.376-16.488a10 10 0 0 1-.312-1.104q-.12-.576-.24-1.128-.12.552-.24 1.128-.12.552-.312 1.128l-5.472 16.464q-.216.816-.96.816h-3.216l-7.872-24.312h3.36q.504 0 .84.264.36.264.48.624l4.656 15.648a43 43 0 0 1 .648 3.264q.216-.792.432-1.608.24-.816.504-1.656l5.136-15.744q.12-.36.408-.6.312-.24.744-.24h1.872q.48 0 .792.24t.432.6l5.016 15.744q.264.84.48 1.656t.408 1.608q.12-.792.288-1.584.192-.816.408-1.68l4.752-15.648q.12-.384.456-.624.336-.264.792-.264zm8.672 0V811h-4.272v-24.312zm.912-7.632q0 .624-.264 1.176a3.3 3.3 0 0 1-.672.96 3 3 0 0 1-.984.648q-.552.24-1.176.24t-1.176-.24a3.2 3.2 0 0 1-.936-.648 3.5 3.5 0 0 1-.648-.96q-.24-.552-.24-1.176t.24-1.176a3 3 0 0 1 .648-.984q.408-.432.936-.672.552-.24 1.176-.24t1.176.24q.576.24.984.672.432.408.672.984.264.552.264 1.176m10.523-3.408V811h-4.272v-35.352zm11.344 0V811h-4.272v-35.352zm23.265 15.912q1.152-2.496 2.832-3.888 1.68-1.416 4.104-1.416.768 0 1.464.168.72.168 1.272.528l-.312 3.192q-.144.6-.72.6-.336 0-.984-.144a6.8 6.8 0 0 0-1.464-.144q-1.152 0-2.064.336a4.9 4.9 0 0 0-1.608 1.008q-.696.648-1.272 1.632-.552.96-1.008 2.208V811h-4.296v-24.312h2.448q.696 0 .96.264t.36.912zm28.716 4.632q0-1.488-.432-2.712-.408-1.248-1.224-2.136a5.2 5.2 0 0 0-1.944-1.392q-1.152-.504-2.616-.504-3.072 0-4.872 1.8-1.776 1.776-2.208 4.944zm3.456 11.4q-.792.96-1.896 1.68-1.104.696-2.376 1.152-1.248.456-2.592.672-1.344.24-2.664.24-2.52 0-4.656-.84a10.5 10.5 0 0 1-3.672-2.496q-1.536-1.656-2.4-4.08t-.864-5.568q0-2.544.768-4.752.792-2.208 2.256-3.816 1.464-1.632 3.576-2.544 2.112-.936 4.752-.936 2.184 0 4.032.744a8.8 8.8 0 0 1 3.216 2.112q1.368 1.368 2.136 3.408.768 2.016.768 4.608 0 1.008-.216 1.344t-.816.336h-16.248q.072 2.304.624 4.008.576 1.704 1.584 2.856a6.5 6.5 0 0 0 2.4 1.704q1.392.552 3.12.552 1.608 0 2.76-.36a14 14 0 0 0 2.016-.816q.84-.432 1.392-.792.576-.384.984-.384.528 0 .816.408zm18.807-7.536q-2.952.096-5.04.48-2.064.36-3.384.96-1.296.6-1.896 1.416a3.1 3.1 0 0 0-.576 1.824q0 .96.312 1.656t.84 1.152q.552.432 1.272.648a6.3 6.3 0 0 0 1.584.192q1.128 0 2.064-.216a8 8 0 0 0 1.752-.672 9.3 9.3 0 0 0 1.584-1.032q.768-.6 1.488-1.368zm-13.8-9.936q2.016-1.944 4.344-2.904t5.16-.96q2.04 0 3.624.672t2.664 1.872 1.632 2.904.552 3.744V811h-1.896q-.624 0-.96-.192-.336-.216-.528-.816l-.48-2.304q-.96.888-1.872 1.584-.912.672-1.92 1.152-1.008.456-2.16.696-1.128.264-2.52.264a9 9 0 0 1-2.664-.384 6.4 6.4 0 0 1-2.184-1.2q-.912-.792-1.464-1.992-.528-1.224-.528-2.88 0-1.44.792-2.76.792-1.344 2.568-2.376t4.632-1.68q2.856-.672 7.008-.768v-1.896q0-2.832-1.224-4.272-1.224-1.464-3.576-1.464-1.584 0-2.664.408a9.5 9.5 0 0 0-1.848.888q-.768.48-1.344.888-.552.384-1.104.384-.432 0-.744-.216a2.3 2.3 0 0 1-.528-.576zm40.324 2.352q-1.2-1.608-2.592-2.232-1.392-.648-3.12-.648-3.384 0-5.208 2.424t-1.824 6.912q0 2.376.408 4.08.408 1.68 1.2 2.784.792 1.08 1.944 1.584t2.616.504q2.112 0 3.672-.96 1.584-.96 2.904-2.712zm4.272-16.824V811h-2.544q-.912 0-1.152-.888l-.384-2.952q-1.56 1.872-3.552 3.024t-4.608 1.152q-2.088 0-3.792-.792a8 8 0 0 1-2.904-2.376q-1.2-1.56-1.848-3.888t-.648-5.352q0-2.688.72-4.992.72-2.328 2.064-4.032a9.5 9.5 0 0 1 3.288-2.664q1.968-.984 4.416-.984 2.232 0 3.816.768a9.1 9.1 0 0 1 2.856 2.088v-13.464zm26.492 35.736q-2.88 0-4.44-1.608-1.536-1.608-1.536-4.632v-14.88h-2.928a1 1 0 0 1-.648-.216q-.264-.24-.264-.72v-1.704l3.984-.504.984-7.512q.072-.36.312-.576a.96.96 0 0 1 .672-.24h2.16v8.376h7.032v3.096h-7.032v14.592q0 1.536.744 2.28t1.92.744q.672 0 1.152-.168.504-.192.864-.408t.6-.384q.264-.192.456-.192.336 0 .6.408l1.248 2.04q-1.104 1.032-2.664 1.632a9.2 9.2 0 0 1-3.216.576m14.035-21.456a12.9 12.9 0 0 1 3.456-2.64q1.896-.984 4.368-.984 1.992 0 3.504.672a6.5 6.5 0 0 1 2.544 1.872q1.032 1.2 1.56 2.904t.528 3.768V811h-4.296v-15.48q0-2.76-1.272-4.272-1.248-1.536-3.816-1.536a7.25 7.25 0 0 0-3.552.912q-1.632.912-3.024 2.472V811h-4.296v-35.352h4.296zm26.982-3.24V811h-4.272v-24.312zm.912-7.632q0 .624-.264 1.176a3.3 3.3 0 0 1-.672.96 3 3 0 0 1-.984.648q-.552.24-1.176.24t-1.176-.24a3.2 3.2 0 0 1-.936-.648 3.5 3.5 0 0 1-.648-.96q-.24-.552-.24-1.176t.24-1.176a3 3 0 0 1 .648-.984q.408-.432.936-.672.552-.24 1.176-.24t1.176.24q.576.24.984.672.432.408.672.984.264.552.264 1.176m20.267 11.64a.95.95 0 0 1-.888.528q-.36 0-.816-.264a14 14 0 0 0-1.128-.576 8.6 8.6 0 0 0-1.56-.6q-.912-.288-2.16-.288-1.08 0-1.944.288a4.6 4.6 0 0 0-1.488.744q-.6.48-.936 1.128a3 3 0 0 0-.312 1.368q0 .936.528 1.56.552.624 1.44 1.08t2.016.816q1.128.336 2.304.744 1.2.384 2.328.864t2.016 1.2a5.3 5.3 0 0 1 1.416 1.776q.552 1.032.552 2.496 0 1.68-.6 3.12a6.9 6.9 0 0 1-1.776 2.472q-1.176 1.032-2.88 1.632t-3.936.6q-2.544 0-4.608-.816-2.064-.84-3.504-2.136l1.008-1.632q.192-.312.456-.48t.672-.168q.432 0 .912.336t1.152.744q.696.408 1.68.744t2.448.336q1.248 0 2.184-.312.936-.336 1.56-.888t.912-1.272q.312-.72.312-1.536 0-1.008-.552-1.656-.528-.672-1.416-1.128a10.4 10.4 0 0 0-2.04-.816l-2.328-.744a31 31 0 0 1-2.328-.864 8.6 8.6 0 0 1-2.016-1.248 5.8 5.8 0 0 1-1.44-1.824q-.528-1.104-.528-2.664 0-1.392.576-2.664a6.4 6.4 0 0 1 1.68-2.256q1.104-.984 2.712-1.56t3.672-.576q2.4 0 4.296.768 1.92.744 3.312 2.064z"/></svg>