<svg xmlns="http://www.w3.org/2000/svg" width="1080" height="1350" fill="none"><path fill="#000" d="M293.956 418.04h3.92l11.16 27.96h-4.16l-2.8-6.96h-12.36l-2.72 6.96h-4.2zm7 17.6-5.04-13.08-5.04 13.08zm12.484-8.84h3.92v2.76q1.36-1.72 3.32-2.52 2-.84 4.16-.84 3.84 0 5.72 2.04t1.88 5.48V446h-4.04v-11.88q0-4.68-4.48-4.68-1.92 0-3.6.92-1.64.88-2.84 2.72V446h-4.04zm33.264 19.8q-2.88 0-5.2-1.24a9.4 9.4 0 0 1-3.6-3.56q-1.28-2.32-1.28-5.36 0-3 1.28-5.32 1.32-2.32 3.6-3.6 2.32-1.32 5.2-1.32 5.2 0 7.88 3.16v-12.92h4.04V446h-3.92v-2.8q-1.6 1.76-3.52 2.6-1.88.8-4.48.8m.92-3.2q2.481 0 4.32-1.28 1.881-1.32 2.64-3.52v-4.32q-.68-2.2-2.6-3.52-1.88-1.32-4.36-1.32-1.96 0-3.56.88a6.5 6.5 0 0 0-2.48 2.48q-.88 1.6-.88 3.64t.88 3.64a6.5 6.5 0 0 0 2.48 2.48q1.6.84 3.56.84m35.091 10.52q-2.16 0-3.6-.44v-3.16q1.04.4 2.56.4 1.4 0 2.2-.72.8-.68 1.44-2.24l.92-2.24-8.4-18.72h4.16l6.4 14.76 5.96-14.76h4.16l-8.64 21.36q-1.2 3-2.88 4.36-1.64 1.4-4.28 1.4m26.9-7.32q-3.24 0-5.72-1.2-2.44-1.24-3.84-3.52-1.36-2.32-1.36-5.44 0-3.08 1.36-5.4 1.359-2.32 3.84-3.56 2.48-1.28 5.72-1.28t5.72 1.28q2.48 1.24 3.84 3.56 1.4 2.32 1.4 5.4 0 3.12-1.4 5.44-1.36 2.28-3.84 3.52-2.48 1.2-5.72 1.2m0-3.2q3.12 0 4.96-1.92t1.84-5.04q0-3.24-1.84-5.12t-4.96-1.88-4.96 1.88-1.84 5.12q0 3.12 1.84 5.04t4.96 1.92m22.988 3.2q-3.879 0-5.88-2.08-1.96-2.08-1.96-5.56V426.8h4.04v12q0 4.6 4.6 4.6 4.04 0 6.32-3.64V426.8h4.04V446h-3.92v-2.72q-1.359 1.72-3.24 2.52-1.84.8-4 .8m30.349-19.8h4.12l4.32 14.24 4.28-14.24h3.64l4.28 14.24 4.32-14.24h4.16l-6.24 19.2h-3.88l-4.44-14.32-4.44 14.32h-3.92zm35.895-3.76q-1 0-1.68-.68t-.68-1.68.68-1.68 1.68-.68q1.04 0 1.72.68.72.68.72 1.68t-.72 1.68q-.68.68-1.72.68m-2.04 3.76h4.12V446h-4.12zm9.68-10.36h4.04V446h-4.04zm9.258 0h4.04V446h-4.04zm24.062 10.36h3.92v3.44q1.2-1.76 3.36-2.6 2.2-.84 5.08-.84v3.16q-3.08 0-5.28 1t-3.04 3.16V446h-4.04zm25.326 19.8q-5.32 0-8.36-2.64-3-2.68-3-7.52 0-4.72 2.68-7.48 2.72-2.76 7.72-2.76 3.32 0 5.64 1.28 2.319 1.24 3.48 3.48 1.2 2.2 1.2 5.04v2h-16.88q.2 2.72 2.28 4.08 2.12 1.32 5.72 1.32 1.839 0 3.72-.32 1.88-.36 3.32-.92v3.24q-1.28.52-3.4.84-2.08.36-4.12.36m5.56-11.44q-.081-2.72-1.8-4.2-1.68-1.52-4.8-1.52-3.04 0-4.72 1.56t-1.76 4.16zm15.096 11.44q-3.48 0-5.6-1.76-2.08-1.8-2.08-4.84 0-3.2 2-4.92 2.04-1.76 5.76-1.76 3.96 0 6.72 1.6v-1q0-2.28-1.4-3.36-1.36-1.12-4.32-1.12-1.76 0-3.44.36-1.64.32-2.96.92v-3.28q1.2-.56 3.12-.88 1.92-.36 3.72-.36 4.76 0 7.04 2.12 2.32 2.08 2.32 5.8V446h-3.8v-2.16a8.3 8.3 0 0 1-2.96 2.08q-1.68.68-4.12.68m1-3.08q1.92 0 3.48-.76t2.32-2.12v-2.6q-2.6-1.68-5.8-1.68-2.32 0-3.48.92-1.12.88-1.12 2.72 0 3.52 4.6 3.52m24.173 3.08q-2.88 0-5.2-1.24a9.4 9.4 0 0 1-3.6-3.56q-1.28-2.32-1.28-5.36 0-3 1.28-5.32 1.32-2.32 3.6-3.6 2.32-1.32 5.2-1.32 5.2 0 7.88 3.16v-12.92h4.04V446h-3.92v-2.8q-1.6 1.76-3.52 2.6-1.88.8-4.48.8m.92-3.2q2.48 0 4.32-1.28 1.88-1.32 2.64-3.52v-4.32q-.68-2.2-2.6-3.52-1.88-1.32-4.36-1.32-1.96 0-3.56.88a6.5 6.5 0 0 0-2.48 2.48q-.88 1.6-.88 3.64t.88 3.64a6.5 6.5 0 0 0 2.48 2.48q1.6.84 3.56.84m38.411 3.2q-2.92 0-4.52-1.68-1.56-1.68-1.56-4.76v-10.24h-2.92v-3.12h2.92v-5.76h4.08v5.76h4.72v3.12h-4.72v9.96q0 1.92.72 2.72.76.8 2.72.8 1.16 0 2.32-.52v3.2q-1.52.52-3.76.52m7.561-30.16h4.04v13q2.76-3.24 7.36-3.24 3.84 0 5.72 2.04t1.88 5.48V446h-4.04v-11.88q0-4.68-4.48-4.68-1.92 0-3.6.92-1.64.88-2.84 2.72V446h-4.04zm26.344 6.6q-.999 0-1.68-.68t-.68-1.68.68-1.68q.681-.68 1.68-.68 1.04 0 1.72.68.72.68.72 1.68t-.72 1.68q-.68.68-1.72.68m-2.04 3.76h4.12V446h-4.12zm16.76 19.8q-2 0-4.24-.52-2.24-.48-3.52-1.32v-3.44q1.56.92 3.6 1.52 2.04.56 3.96.56 2.16 0 3.16-.52t1-1.68q0-.88-.48-1.4-.44-.56-1.56-1-1.08-.44-3.28-1.04-2.36-.68-3.76-1.36-1.36-.72-2.08-1.8-.68-1.08-.68-2.8 0-2.76 2.16-4.16 2.2-1.44 5.88-1.44 1.92 0 3.76.36t2.96 1v3.36q-1.16-.68-2.88-1.08-1.68-.4-3.44-.4-2.12 0-3.24.52t-1.12 1.84q0 .84.48 1.36t1.52.92q1.08.36 3.4.96 3.64 1 5.04 2.36 1.44 1.36 1.44 3.76 0 2.48-2.04 3.96t-6.04 1.48m27.295-30.16h4.04V446h-4.04zm16.138 30.16q-3.48 0-5.6-1.76-2.08-1.8-2.08-4.84 0-3.2 2-4.92 2.04-1.76 5.76-1.76 3.96 0 6.72 1.6v-1q0-2.28-1.4-3.36-1.36-1.12-4.32-1.12-1.76 0-3.44.36-1.64.32-2.96.92v-3.28q1.2-.56 3.12-.88 1.92-.36 3.72-.36 4.76 0 7.04 2.12 2.32 2.08 2.32 5.8V446h-3.8v-2.16a8.3 8.3 0 0 1-2.96 2.08q-1.68.68-4.12.68m1-3.08q1.92 0 3.48-.76t2.32-2.12v-2.6q-2.6-1.68-5.8-1.68-2.32 0-3.48.92-1.12.88-1.12 2.72 0 3.52 4.6 3.52m21.388 3.08q-2 0-4.24-.52-2.24-.48-3.52-1.32v-3.44q1.56.92 3.6 1.52 2.04.56 3.96.56 2.16 0 3.16-.52t1-1.68q0-.88-.48-1.4-.441-.56-1.56-1-1.08-.44-3.28-1.04-2.36-.68-3.76-1.36-1.36-.72-2.08-1.8-.68-1.08-.68-2.8 0-2.76 2.16-4.16 2.199-1.44 5.88-1.44 1.92 0 3.76.36t2.96 1v3.36q-1.161-.68-2.88-1.08-1.68-.4-3.44-.4-2.121 0-3.24.52t-1.12 1.84q0 .84.48 1.36t1.52.92q1.08.36 3.4.96 3.639 1 5.04 2.36 1.44 1.36 1.44 3.76 0 2.48-2.04 3.96t-6.04 1.48m19.304 0q-2.92 0-4.52-1.68-1.56-1.68-1.56-4.76v-10.24h-2.92v-3.12h2.92v-5.76h4.08v5.76h4.72v3.12h-4.72v9.96q0 1.92.72 2.72.76.8 2.72.8 1.16 0 2.32-.52v3.2q-1.52.52-3.76.52m-626.9 47.4h22.8q1.8 0 1.8 1.8t-1.8 1.8h-7.2q-.96 0-1.32.6-.36.48.12 1.2l21.72 37.92q.84 1.2 1.68 0l21.84-37.92q.48-.72.12-1.2-.36-.6-1.32-.6h-7.2q-1.8 0-1.8-1.8t1.8-1.8h22.8q1.8 0 1.8 1.8t-1.8 1.8h-7.2q-1.92 0-3 1.8l-24.96 43.32v29.88q0 1.8 1.8 1.8h8.4q1.8 0 1.8 1.8t-1.8 1.8h-24q-1.8 0-1.8-1.8t1.8-1.8h8.4q1.8 0 1.8-1.8v-29.64l-25.08-43.56q-1.08-1.8-3-1.8h-7.2q-1.8 0-1.8-1.8t1.8-1.8m79.188 76.56q-8.16-8.64-8.16-22.56t8.16-22.56 21.24-8.64 21.24 8.64 8.16 22.56-8.16 22.56-21.24 8.64-21.24-8.64m21.24-50.16q-11.64 0-18.72 7.56t-7.08 20.16q0 12.48 6.96 20.04 7.08 7.44 18.84 7.44t18.72-7.44q7.08-7.56 7.08-20.04 0-12.6-7.08-20.16t-18.72-7.56m38.147-2.4h12q1.8 0 1.8 1.8v35.4q0 10.2 5.28 15.36 5.28 5.04 14.4 5.04t17.16-8.04q3.6-3.72 6.36-8.16v-36q0-1.8-1.8-1.8h-8.4q-1.8 0-1.8-1.8t1.8-1.8h12q1.8 0 1.8 1.8v52.8q0 1.8 1.8 1.8h8.4q1.8 0 1.8 1.8t-1.8 1.8h-12q-1.8 0-1.8-1.8v-6.72q0-1.2-.48-1.68t-1.44.48q-9.72 10.92-21.12 10.92t-17.64-6.12q-6.12-6.24-6.12-17.88v-31.8q0-1.8-1.8-1.8h-8.4q-1.8 0-1.8-1.8t1.8-1.8m110.239 0h22.8q1.8 0 1.8 1.8t-1.8 1.8h-7.2q-2.16 0-1.2 1.8l16.2 45.96q.24.72.72.72t.72-.72l15.72-49.56q.48-1.8 2.4-1.8t2.4 1.8l15.72 49.56q.24.72.72.72t.72-.72l16.2-45.96q.96-1.8-1.2-1.8h-7.2q-1.8 0-1.8-1.8t1.8-1.8h22.8q1.8 0 1.8 1.8t-1.8 1.8h-7.8q-1.8 0-2.4 1.8l-19.08 54q-.48 1.8-2.04 1.8t-2.04-1.8l-15.6-49.2q-.24-.96-1.2-.96t-1.2.96l-15.6 49.2q-.48 1.8-2.04 1.8t-2.04-1.8l-19.08-54q-.6-1.8-2.4-1.8h-7.8q-1.8 0-1.8-1.8t1.8-1.8m108.271 60q-1.8 0-1.8-1.8t1.8-1.8h8.4q1.8 0 1.8-1.8v-49.2q0-1.8-1.8-1.8h-8.4q-1.8 0-1.8-1.8t1.8-1.8h12q1.8 0 1.8 1.8v52.8q0 1.8 1.8 1.8h8.4q1.8 0 1.8 1.8t-1.8 1.8zm7.92-70.92q-1.32-1.44-1.32-3.48t1.32-3.36q1.44-1.44 3.48-1.44t3.36 1.44q1.44 1.32 1.44 3.36t-1.44 3.48q-1.32 1.32-3.36 1.32t-3.48-1.32M546.404 578q-1.8 0-1.8-1.8t1.8-1.8h8.4q1.8 0 1.8-1.8v-73.2q0-1.8-1.8-1.8h-8.4q-1.8 0-1.8-1.8t1.8-1.8h12q1.8 0 1.8 1.8v76.8q0 1.8 1.8 1.8h8.4q1.8 0 1.8 1.8t-1.8 1.8zm32.11 0q-1.8 0-1.8-1.8t1.8-1.8h8.4q1.8 0 1.8-1.8v-73.2q0-1.8-1.8-1.8h-8.4q-1.8 0-1.8-1.8t1.8-1.8h12q1.8 0 1.8 1.8v76.8q0 1.8 1.8 1.8h8.4q1.8 0 1.8 1.8t-1.8 1.8zm111.582-57.6q-15.12 0-25.2 11.88-2.88 3.36-4.8 6.72v33.6q0 1.8 1.8 1.8h9.6q1.8 0 1.8 1.8t-1.8 1.8h-25.2q-1.8 0-1.8-1.8t1.8-1.8h8.4q1.8 0 1.8-1.8v-49.2q0-1.8-1.8-1.8h-8.4q-1.8 0-1.8-1.8t1.8-1.8h12q1.8 0 1.8 1.8v9.48q0 3 2.52.12 4.44-5.04 11.52-8.76 7.2-3.84 15.96-3.84h5.88q1.8 0 1.8 1.8v15q0 1.8-1.8 1.8t-1.8-1.8v-11.4q0-1.8-1.8-1.8zm64.18 49.2q1.92-1.44 2.88-2.4 1.08-.96 1.68-.6.6.24 1.44 1.32.96.96-.48 2.16-4.32 3.72-9.96 6.48-5.64 2.64-14.4 2.64-12.72 0-20.52-8.76-7.68-8.76-7.68-22.44t7.68-22.44q7.8-8.76 20.28-8.76 12.6 0 20.52 7.92t7.92 19.08v1.8q0 3.6-3.6 3.6h-47.28q-2.04 0-1.8 1.8.72 10.44 7.08 17.52 6.48 7.08 17.64 7.08 11.28 0 18.6-6m-43.2-25.44q0 1.44 1.68 1.44h45.48q1.8 0 1.8-1.8 0-9.6-7.08-16.44-6.96-6.96-17.76-6.96-10.68 0-17.4 7.56t-6.72 16.2m108.526 4.44q0-1.8-1.8-1.8h-19.8q-10.44 0-15.48 4.08-4.92 4.08-4.92 10.44 0 6.24 4.56 10.32 4.68 3.96 14.04 3.96 11.64 0 20.52-11.76 1.56-2.04 2.88-4.44zm-18.72-31.8q10.08 0 16.2 5.76 6.12 5.64 6.12 14.04v36q0 1.8 1.8 1.8h8.4q1.8 0 1.8 1.8t-1.8 1.8h-12q-1.8 0-1.8-1.8v-6.72q0-1.2-.48-1.68t-1.44.48q-3.24 4.08-9 7.56-5.76 3.36-12 3.36-11.16 0-16.92-4.92-5.76-5.04-5.76-12.96t6.6-12.96q6.6-5.16 17.4-5.16h19.8q1.8 0 1.8-1.8v-4.8q0-6.96-5.28-11.52-5.28-4.68-12.96-4.68t-12.6 2.16q-4.92 2.04-6.96 3.6-1.92 1.56-3 .12-.96-1.44.36-2.4 8.64-7.08 21.72-7.08m93.272-17.4q0-1.8-1.8-1.8h-9.6q-1.8 0-1.8-1.8t1.8-1.8h13.2q1.8 0 1.8 1.8v76.8q0 1.8 1.8 1.8h8.4q1.8 0 1.8 1.8t-1.8 1.8h-12q-1.8 0-1.8-1.8v-6.72q0-1.2-.48-1.68t-1.44.48q-3 3.96-8.88 7.44-5.76 3.48-12.48 3.48-12.72 0-19.92-8.28-7.2-8.4-7.2-22.8t8.52-22.2q8.64-7.92 23.88-7.92h16.2q1.8 0 1.8-1.8zm0 24q0-1.8-1.8-1.8h-16.2q-13.68 0-21.24 6.72t-7.56 19.8q0 12.96 6.24 20.28 6.36 7.2 16.32 7.2 10.08 0 18.12-8.04 3.36-3.36 6.12-8.16zM319.668 701.6q1.2-1.2 2.16-.24t.96 1.56q.12.6-.84 1.56-2.88 2.88-5.76 4.32-7.44 2.52-8.52 2.4h-1.2q-8.4 0-13.2-5.4t-4.8-15.6v-34.8q0-1.8-1.8-1.8h-8.4q-1.8 0-1.8-1.8t1.8-1.8h8.4q1.8 0 1.8-1.8v-20.4q0-1.8 1.8-1.8t1.8 1.8v20.4q0 1.8 1.8 1.8h20.4q1.8 0 1.8 1.8t-1.8 1.8h-20.4q-1.8 0-1.8 1.8v34.8q0 8.64 3.84 13.08 3.84 4.32 10.56 4.32 6.84 0 13.2-6m7.478 4.8h8.4q1.8 0 1.8-1.8v-73.2q0-1.8-1.8-1.8h-8.4q-1.8 0-1.8-1.8t1.8-1.8h12q1.8 0 1.8 1.8v30.72q0 1.2.48 1.68t1.44-.48q9.72-10.92 21.12-10.92t17.52 6.24q6.24 6.12 6.24 17.76v31.8q0 1.8 1.8 1.8h8.4q1.8 0 1.8 1.8t-1.8 1.8h-22.8q-1.8 0-1.8-1.8t1.8-1.8h7.2q1.8 0 1.8-1.8v-31.8q0-10.2-5.28-15.24-5.28-5.16-14.4-5.16t-17.28 8.16q-3.48 3.6-6.24 8.04v36q0 1.8 1.8 1.8h7.2q1.8 0 1.8 1.8t-1.8 1.8h-22.8q-1.8 0-1.8-1.8t1.8-1.8m80.324 3.6q-1.8 0-1.8-1.8t1.8-1.8h8.4q1.8 0 1.8-1.8v-49.2q0-1.8-1.8-1.8h-8.4q-1.8 0-1.8-1.8t1.8-1.8h12q1.8 0 1.8 1.8v52.8q0 1.8 1.8 1.8h8.4q1.8 0 1.8 1.8t-1.8 1.8zm7.92-70.92q-1.32-1.44-1.32-3.48t1.32-3.36q1.44-1.44 3.48-1.44t3.36 1.44q1.44 1.32 1.44 3.36t-1.44 3.48q-1.32 1.32-3.36 1.32t-3.48-1.32m54.976 68.52q10.44 0 15.96-3.6 5.64-3.72 5.64-9.6 0-7.92-11.4-10.56-5.28-1.2-12.72-2.28-7.32-1.08-10.68-2.04-7.2-1.92-10.8-5.28-3.6-3.48-3.6-9.72 0-6.36 6.36-11.04 6.48-4.68 18-4.68t20.52 9q1.08 1.2 1.44.48.48-.72.48-1.68v-4.8q0-1.8 1.8-1.8t1.8 1.8V671q0 1.8-1.8 1.8t-1.8-1.8v-6q-5.16-6.84-13.2-10.68-4.2-1.92-9.48-1.92-9.84 0-15.24 3.6-5.28 3.48-5.28 8.88t4.56 8.4q4.68 2.88 14.16 4.32 4.08.72 8.28 1.32t7.56 1.32q6.96 1.56 10.8 4.8t3.84 9.96q0 6.6-6.36 11.4-6.24 4.8-18.84 4.8-9.84 0-18.24-5.76-2.4-1.68-3.72-3-1.32-1.44-1.68-.72t-.36 1.68v4.8q0 1.8-1.8 1.8t-1.8-1.8V689q0-1.8 1.8-1.8t1.8 1.8v6q4.92 6.96 13.44 10.68 4.44 1.92 10.56 1.92m100.799-82.8q5.04 0 8.76 1.92t5.64 3.84 1.92 2.64-.96 1.56q-.96.96-2.64-.6-1.56-1.68-4.92-3.72-3.24-2.04-7.8-2.04-7.56 0-11.64 4.8-3.96 4.68-3.96 13.8v1.2q0 1.8 1.8 1.8h19.2q1.8 0 1.8 1.8t-1.8 1.8h-19.2q-1.8 0-1.8 1.8v49.2q0 1.8 1.8 1.8h9.6q1.8 0 1.8 1.8t-1.8 1.8h-25.2q-1.8 0-1.8-1.8t1.8-1.8h8.4q1.8 0 1.8-1.8v-49.2q0-1.8-1.8-1.8h-8.4q-1.8 0-1.8-1.8t1.8-1.8h8.4q1.8 0 1.8-1.8V647q0-10.8 4.92-16.44 4.92-5.76 14.28-5.76m20.407 85.2q-1.8 0-1.8-1.8t1.8-1.8h8.4q1.8 0 1.8-1.8v-49.2q0-1.8-1.8-1.8h-8.4q-1.8 0-1.8-1.8t1.8-1.8h12q1.8 0 1.8 1.8v52.8q0 1.8 1.8 1.8h8.4q1.8 0 1.8 1.8t-1.8 1.8zm7.92-70.92q-1.32-1.44-1.32-3.48t1.32-3.36q1.44-1.44 3.48-1.44t3.36 1.44q1.44 1.32 1.44 3.36t-1.44 3.48q-1.32 1.32-3.36 1.32t-3.48-1.32m70.096 13.32q-15.12 0-25.2 11.88-2.88 3.36-4.8 6.72v33.6q0 1.8 1.8 1.8h9.6q1.8 0 1.8 1.8t-1.8 1.8h-25.2q-1.8 0-1.8-1.8t1.8-1.8h8.4q1.8 0 1.8-1.8v-49.2q0-1.8-1.8-1.8h-8.4q-1.8 0-1.8-1.8t1.8-1.8h12q1.8 0 1.8 1.8v9.48q0 3 2.52.12 4.44-5.04 11.52-8.76 7.2-3.84 15.96-3.84h5.88q1.8 0 1.8 1.8v15q0 1.8-1.8 1.8t-1.8-1.8v-11.4q0-1.8-1.8-1.8zm45.7 55.2q10.44 0 15.96-3.6 5.64-3.72 5.64-9.6 0-7.92-11.4-10.56-5.28-1.2-12.72-2.28-7.32-1.08-10.68-2.04-7.2-1.92-10.8-5.28-3.6-3.48-3.6-9.72 0-6.36 6.36-11.04 6.48-4.68 18-4.68t20.52 9q1.08 1.2 1.44.48.48-.72.48-1.68v-4.8q0-1.8 1.8-1.8t1.8 1.8V671q0 1.8-1.8 1.8t-1.8-1.8v-6q-5.16-6.84-13.2-10.68-4.2-1.92-9.48-1.92-9.84 0-15.24 3.6-5.28 3.48-5.28 8.88t4.56 8.4q4.68 2.88 14.16 4.32 4.08.72 8.28 1.32t7.56 1.32q6.96 1.56 10.8 4.8t3.84 9.96q0 6.6-6.36 11.4-6.24 4.8-18.84 4.8-9.84 0-18.24-5.76-2.4-1.68-3.72-3-1.32-1.44-1.68-.72t-.36 1.68v4.8q0 1.8-1.8 1.8t-1.8-1.8V689q0-1.8 1.8-1.8t1.8 1.8v6q4.92 6.96 13.44 10.68 4.44 1.92 10.56 1.92m76.646-6q1.2-1.2 2.16-.24t.96 1.56q.12.6-.84 1.56-2.88 2.88-5.76 4.32-7.44 2.52-8.52 2.4h-1.2q-8.4 0-13.2-5.4t-4.8-15.6v-34.8q0-1.8-1.8-1.8h-8.4q-1.8 0-1.8-1.8t1.8-1.8h8.4q1.8 0 1.8-1.8v-20.4q0-1.8 1.8-1.8t1.8 1.8v20.4q0 1.8 1.8 1.8h20.4q1.8 0 1.8 1.8t-1.8 1.8h-20.4q-1.8 0-1.8 1.8v34.8q0 8.64 3.84 13.08 3.84 4.32 10.56 4.32 6.84 0 13.2-6M280.6 779.576h-10.416v-4.128h25.776v4.128h-10.416V809H280.6zm19.676-6.048h4.848v15.6q3.312-3.888 8.832-3.888 4.608 0 6.864 2.448t2.256 6.576V809h-4.848v-14.256q0-5.616-5.376-5.616a8.86 8.86 0 0 0-4.32 1.104q-1.968 1.056-3.408 3.264V809h-4.848zm41.454 36.192q-6.384 0-10.032-3.168-3.6-3.216-3.6-9.024 0-5.664 3.216-8.976 3.264-3.312 9.264-3.312 3.984 0 6.768 1.536 2.784 1.488 4.176 4.176 1.44 2.64 1.44 6.048v2.4h-20.256q.24 3.264 2.736 4.896 2.544 1.584 6.864 1.584 2.208 0 4.464-.384 2.256-.432 3.984-1.104v3.888q-1.536.624-4.08 1.008a29 29 0 0 1-4.944.432m6.672-13.728q-.096-3.264-2.16-5.04-2.016-1.824-5.76-1.824-3.648 0-5.664 1.872t-2.112 4.992zm9.859-10.032h4.704v3.312q1.632-2.064 3.984-3.024a12.8 12.8 0 0 1 4.992-1.008q4.608 0 6.864 2.448t2.256 6.576V809h-4.848v-14.256q0-5.616-5.376-5.616a8.86 8.86 0 0 0-4.32 1.104q-1.968 1.056-3.408 3.264V809h-4.848zm51.443 32.544q-2.592 0-4.32-.528v-3.792q1.248.48 3.072.48 1.68 0 2.64-.864.96-.816 1.728-2.688l1.104-2.688-10.08-22.464h4.992l7.68 17.712 7.152-17.712h4.992l-10.368 25.632q-1.44 3.6-3.456 5.232-1.968 1.68-5.136 1.68m32.279-8.784q-3.888 0-6.864-1.44-2.928-1.488-4.608-4.224-1.632-2.784-1.632-6.528 0-3.696 1.632-6.48t4.608-4.272q2.976-1.536 6.864-1.536t6.864 1.536q2.976 1.488 4.608 4.272 1.68 2.784 1.68 6.48 0 3.744-1.68 6.528-1.632 2.736-4.608 4.224-2.976 1.44-6.864 1.44m0-3.84q3.744 0 5.952-2.304t2.208-6.048q0-3.888-2.208-6.144t-5.952-2.256-5.952 2.256-2.208 6.144q0 3.744 2.208 6.048t5.952 2.304m27.586 3.84q-4.656 0-7.056-2.496-2.352-2.496-2.352-6.672V785.96h4.848v14.4q0 5.52 5.52 5.52 4.848 0 7.584-4.368V785.96h4.848V809h-4.704v-3.264q-1.632 2.064-3.888 3.024-2.208.96-4.8.96m36.419-23.76h4.944l5.184 17.088 5.136-17.088h4.368l5.136 17.088 5.184-17.088h4.992L533.444 809h-4.656l-5.328-17.184L518.132 809h-4.704zm43.073-4.512q-1.2 0-2.016-.816t-.816-2.016.816-2.016 2.016-.816q1.248 0 2.064.816.864.816.864 2.016t-.864 2.016q-.816.816-2.064.816m-2.448 4.512h4.944V809h-4.944zm11.616-12.432h4.848V809h-4.848zm11.11 0h4.848V809h-4.848zm28.875 12.432h4.704v4.128q1.44-2.112 4.032-3.12 2.64-1.008 6.096-1.008v3.792q-3.696 0-6.336 1.2t-3.648 3.792V809h-4.848zm30.391 23.76q-6.384 0-10.032-3.168-3.6-3.216-3.6-9.024 0-5.664 3.216-8.976 3.264-3.312 9.264-3.312 3.984 0 6.768 1.536 2.784 1.488 4.176 4.176 1.44 2.64 1.44 6.048v2.4h-20.256q.24 3.264 2.736 4.896 2.544 1.584 6.864 1.584 2.208 0 4.464-.384 2.256-.432 3.984-1.104v3.888q-1.536.624-4.08 1.008a29 29 0 0 1-4.944.432m6.672-13.728q-.096-3.264-2.16-5.04-2.016-1.824-5.76-1.824-3.648 0-5.664 1.872t-2.112 4.992zm18.115 13.728q-4.176 0-6.72-2.112-2.496-2.16-2.496-5.808 0-3.84 2.4-5.904 2.448-2.112 6.912-2.112 4.752 0 8.064 1.92v-1.2q0-2.736-1.68-4.032-1.632-1.344-5.184-1.344-2.112 0-4.128.432-1.968.384-3.552 1.104v-3.936q1.44-.672 3.744-1.056a24 24 0 0 1 4.464-.432q5.712 0 8.448 2.544 2.784 2.496 2.784 6.96V809h-4.56v-2.592a9.9 9.9 0 0 1-3.552 2.496q-2.016.816-4.944.816m1.2-3.696q2.304 0 4.176-.912t2.784-2.544v-3.12q-3.12-2.016-6.96-2.016-2.784 0-4.176 1.104-1.344 1.056-1.344 3.264 0 4.224 5.52 4.224m29.008 3.696q-3.456 0-6.24-1.488a11.3 11.3 0 0 1-4.32-4.272q-1.536-2.784-1.536-6.432 0-3.6 1.536-6.384 1.584-2.784 4.32-4.32 2.784-1.584 6.24-1.584 6.24 0 9.456 3.792v-15.504h4.848V809H693.2v-3.36q-1.92 2.112-4.224 3.12-2.256.96-5.376.96m1.104-3.84q2.976 0 5.184-1.536 2.256-1.584 3.168-4.224v-5.184q-.816-2.64-3.12-4.224-2.256-1.584-5.232-1.584-2.352 0-4.272 1.056-1.872 1.056-2.976 2.976-1.056 1.92-1.056 4.368t1.056 4.368q1.104 1.92 2.976 2.976 1.92 1.008 4.272 1.008m46.093 3.84q-3.504 0-5.424-2.016-1.872-2.016-1.872-5.712v-12.288h-3.504v-3.744h3.504v-6.912h4.896v6.912h5.664v3.744h-5.664v11.952q0 2.304.864 3.264.912.96 3.264.96 1.392 0 2.784-.624v3.84q-1.824.624-4.512.624m9.073-36.192h4.848v15.6q3.312-3.888 8.832-3.888 4.608 0 6.864 2.448t2.256 6.576V809h-4.848v-14.256q0-5.616-5.376-5.616a8.86 8.86 0 0 0-4.32 1.104q-1.968 1.056-3.408 3.264V809h-4.848zm31.613 7.92q-1.2 0-2.016-.816t-.816-2.016.816-2.016 2.016-.816q1.248 0 2.064.816.864.816.864 2.016t-.864 2.016q-.816.816-2.064.816m-2.448 4.512h4.944V809h-4.944zm20.112 23.76q-2.4 0-5.088-.624-2.688-.576-4.224-1.584v-4.128q1.872 1.104 4.32 1.824 2.448.672 4.752.672 2.592 0 3.792-.624t1.2-2.016q0-1.056-.576-1.68-.528-.672-1.872-1.2-1.296-.528-3.936-1.248-2.832-.816-4.512-1.632-1.632-.864-2.496-2.16-.816-1.296-.816-3.36 0-3.312 2.592-4.992 2.64-1.728 7.056-1.728 2.304 0 4.512.432t3.552 1.2v4.032q-1.392-.816-3.456-1.296a17.8 17.8 0 0 0-4.128-.48q-2.544 0-3.888.624t-1.344 2.208q0 1.008.576 1.632t1.824 1.104q1.296.432 4.08 1.152 4.368 1.2 6.048 2.832 1.728 1.632 1.728 4.512 0 2.976-2.448 4.752t-7.248 1.776"/></svg>