<svg xmlns="http://www.w3.org/2000/svg" width="1080" height="1350" fill="none"><path fill="#000" d="m309.013 443 9.92-28h3.24l9.92 28h-3.56l-2.4-6.84h-11.12l-2.36 6.84zm7.04-9.92h9l-3.6-10.36q-.14-.4-.32-.92-.16-.54-.32-1.04a12 12 0 0 1-.24-.88q-.1.36-.26.88-.14.5-.32 1.04-.16.52-.3.92zm21.388 9.92v-20.44h3.48v2.08q.94-1.3 2.26-1.92 1.32-.64 3.02-.64 3.72 0 5.52 2.26 1.8 2.24 1.8 6.9V443h-3.48v-12.36q0-2.58-1.16-3.96-1.14-1.4-3.24-1.4-2.34 0-3.54 1.34-1.18 1.32-1.18 3.94V443zm30.365.48q-3.9 0-6.18-2.88-2.26-2.9-2.26-7.84 0-3.28 1.02-5.68 1.04-2.4 2.92-3.7 1.9-1.3 4.5-1.3 3 0 5.16 1.92v-8.24l3.48-1.64V443h-3.48v-1.6q-2.02 2.08-5.16 2.08m.48-3.24q1.44 0 2.66-.72 1.24-.72 2.02-2.04v-9.6a5.75 5.75 0 0 0-2.02-1.9 5.3 5.3 0 0 0-2.66-.7q-2.58 0-4 1.94-1.4 1.94-1.4 5.54 0 2.22.68 3.9t1.9 2.64q1.22.94 2.82.94m26.575 10.52 3.12-8.28-7.56-19.92h3.48l5.08 13.92q.22.54.36.98t.28.98q.16-.54.3-.98t.34-.98l5.16-13.92h3.56l-10.6 28.2zm26.397-7.28q-4.2 0-6.62-2.86-2.42-2.88-2.42-7.82 0-3.3 1.1-5.7t3.12-3.7q2.04-1.32 4.82-1.32 2.8 0 4.82 1.3 2.04 1.28 3.12 3.68 1.1 2.4 1.1 5.7t-1.1 5.72q-1.1 2.4-3.14 3.7-2.02 1.3-4.8 1.3m0-3.24q2.58 0 4.04-1.98 1.48-2 1.48-5.5 0-3.52-1.48-5.5-1.46-1.98-4.04-1.98-2.6 0-4.06 1.98-1.46 1.96-1.46 5.54 0 3.5 1.46 5.48 1.46 1.96 4.06 1.96m21.704 3.24q-3.78 0-5.62-2.24-1.82-2.24-1.82-6.88v-11.8h3.48v12.32q0 2.6 1.14 3.98t3.26 1.38q2.34 0 3.52-1.34 1.2-1.34 1.2-3.94v-12.4h3.48V443h-3.48v-1.96q-.98 1.26-2.22 1.86-1.22.58-2.94.58m28.133-.48-5.24-20.44h3.44l3.12 13.72q.141.56.24 1.12.12.54.2 1.04.1-.52.24-1.06.14-.56.28-1.1l3.84-13.72h2.88l3.84 13.72q.16.6.3 1.16.14.54.26 1.08.1-.52.2-1.08t.24-1.16l3.08-13.72h3.44l-5.24 20.44h-3.12l-3.72-12.12-.4-1.34-.36-1.34q-.14.6-.34 1.34t-.38 1.34l-3.68 12.12zm25.214 0v-20.44h3.48V443zm1.72-24.16q-.9 0-1.54-.62a2.14 2.14 0 0 1-.62-1.54q0-.94.62-1.58.64-.66 1.54-.66.94 0 1.56.66.64.64.64 1.58 0 .9-.64 1.54-.62.62-1.56.62m8.596 24.16v-27.24l3.48-1.64V443zm10.469 0v-27.24l3.48-1.64V443zm19.683 0v-20.44h3.48v2.68q.7-1.56 1.92-2.36 1.24-.8 2.92-.8 1.86 0 3.16 1.04l-.52 3.28q-.66-.46-1.38-.66a5.1 5.1 0 0 0-1.54-.22q-1.38 0-2.4.74t-1.6 2.08q-.56 1.34-.56 3.14V443zm22.411.48q-2.8 0-4.84-1.38t-3.14-3.8-1.1-5.54q0-3.38 1.14-5.76 1.14-2.4 3.18-3.66t4.76-1.26q2.3 0 4.22 1.04 1.92 1.02 3.06 3.18 1.16 2.14 1.16 5.5 0 .48-.04 1.12a22 22 0 0 1-.08 1.28h-13.84q.2 1.86.92 3.26t1.9 2.2q1.18.78 2.78.78a6.15 6.15 0 0 0 2.4-.46q1.12-.46 2.08-1.42l2.04 2.28q-1.14 1.14-2.84 1.9-1.68.74-3.76.74m-5.56-12.32h10.48q0-1.74-.58-3.1-.56-1.38-1.66-2.16t-2.68-.78q-2.22 0-3.82 1.44-1.58 1.44-1.74 4.6m24.928 12.32q-3.32 0-5.22-1.84t-1.9-5.04q0-2.06.94-3.58t2.66-2.34q1.72-.84 4.04-.84 1.5 0 2.8.34 1.32.32 2.48.98v-1.44q0-2.38-1.08-3.48-1.08-1.12-3.36-1.12-1.46 0-3.04.54-1.56.54-2.92 1.5l-1-2.92q1.54-1.02 3.5-1.58 1.98-.58 3.9-.58 3.64 0 5.46 1.86 1.82 1.84 1.82 5.5V443h-3.28v-1.88q-1.2 1.14-2.7 1.76-1.5.6-3.1.6m.52-3.04q1.42 0 2.8-.7 1.4-.7 2.48-1.98v-3.52a8.7 8.7 0 0 0-2.32-1 9.3 9.3 0 0 0-2.48-.36q-2.24 0-3.54 1.02-1.3 1-1.3 2.74 0 1.76 1.16 2.78t3.2 1.02m22.441 3.04q-3.9 0-6.18-2.88-2.26-2.9-2.26-7.84 0-3.28 1.02-5.68 1.04-2.4 2.92-3.7 1.9-1.3 4.5-1.3 3 0 5.16 1.92v-8.24l3.48-1.64V443h-3.48v-1.6q-2.02 2.08-5.16 2.08m.48-3.24q1.44 0 2.66-.72 1.24-.72 2.02-2.04v-9.6a5.75 5.75 0 0 0-2.02-1.9 5.3 5.3 0 0 0-2.66-.7q-2.58 0-4 1.94-1.4 1.94-1.4 5.54 0 2.22.68 3.9t1.9 2.64q1.22.94 2.82.94m29.835 3.24q-2.1 0-3.22-1.26-1.1-1.26-1.1-3.62v-13h-3.32v-3.04h3.32v-6.76l3.48-1.68v8.44h5.04v3.04h-5.04v11.84q0 1.46.5 2.14.52.66 1.62.66 1.4 0 3.04-1.08l-.4 3.4a7.5 7.5 0 0 1-1.88.7q-.96.22-2.04.22m8.656-.48v-27.28l3.48-1.6v10.56q.94-1.3 2.26-1.94 1.34-.66 3.02-.66 2.66 0 4.26 1.1 1.62 1.1 2.34 3.16.72 2.04.72 4.9V443h-3.48v-12.36q0-2.4-1.08-3.88-1.06-1.48-3.32-1.48-2.34 0-3.54 1.34-1.18 1.32-1.18 3.94V443zm22.579 0v-20.44h3.48V443zm1.72-24.16q-.9 0-1.54-.62a2.14 2.14 0 0 1-.62-1.54q0-.94.62-1.58.64-.66 1.54-.66.94 0 1.56.66.64.64.64 1.58 0 .9-.64 1.54-.62.62-1.56.62m14.436 24.64a9.85 9.85 0 0 1-4.16-.92q-1.98-.94-3.24-2.52l2.48-2.12a8.1 8.1 0 0 0 2.4 1.8q1.32.64 2.6.64 1.8 0 2.8-.68 1-.7 1-1.92 0-.8-.46-1.44-.44-.64-1.48-1.22-1.02-.58-2.74-1.22-3.38-1.26-4.86-2.74-1.46-1.48-1.46-3.66 0-2.4 1.9-3.9 1.92-1.5 4.98-1.5 2.1 0 3.86.8a8.3 8.3 0 0 1 3.02 2.28l-2.4 2q-1.84-1.96-4.52-1.96-1.58 0-2.5.62-.9.6-.9 1.66 0 1.02 1.02 1.8 1.04.76 3.74 1.76 2.2.8 3.56 1.74 1.38.94 2 2.14.64 1.2.64 2.76 0 2.7-1.94 4.26-1.94 1.54-5.34 1.54m22.324-.48v-27.24l3.48-1.64V443zm16.189.48q-3.32 0-5.22-1.84t-1.9-5.04q0-2.06.94-3.58t2.66-2.34q1.72-.84 4.04-.84 1.5 0 2.8.34 1.32.32 2.48.98v-1.44q0-2.38-1.08-3.48-1.08-1.12-3.36-1.12-1.46 0-3.04.54-1.56.54-2.92 1.5l-1-2.92q1.54-1.02 3.5-1.58 1.98-.58 3.9-.58 3.64 0 5.46 1.86 1.82 1.84 1.82 5.5V443h-3.28v-1.88q-1.2 1.14-2.7 1.76-1.5.6-3.1.6m.52-3.04q1.42 0 2.8-.7a7.8 7.8 0 0 0 2.48-1.98v-3.52a8.7 8.7 0 0 0-2.32-1 9.3 9.3 0 0 0-2.48-.36q-2.24 0-3.54 1.02-1.3 1-1.3 2.74 0 1.76 1.16 2.78t3.2 1.02m20.655 3.04a9.85 9.85 0 0 1-4.16-.92q-1.98-.94-3.24-2.52l2.48-2.12a8.1 8.1 0 0 0 2.4 1.8q1.32.64 2.6.64 1.8 0 2.8-.68 1-.7 1-1.92 0-.8-.46-1.44-.44-.64-1.48-1.22-1.02-.58-2.74-1.22-3.381-1.26-4.86-2.74-1.46-1.48-1.46-3.66 0-2.4 1.9-3.9 1.92-1.5 4.98-1.5 2.1 0 3.86.8a8.3 8.3 0 0 1 3.02 2.28l-2.4 2q-1.84-1.96-4.52-1.96-1.58 0-2.5.62-.9.6-.9 1.66 0 1.02 1.02 1.8 1.04.76 3.74 1.76 2.2.8 3.56 1.74 1.38.94 2 2.14.64 1.2.64 2.76 0 2.7-1.94 4.26-1.941 1.54-5.34 1.54m17.999 0q-2.1 0-3.22-1.26-1.1-1.26-1.1-3.62v-13h-3.32v-3.04h3.32v-6.76l3.48-1.68v8.44h5.04v3.04h-5.04v11.84q0 1.46.5 2.14.52.66 1.62.66 1.4 0 3.04-1.08l-.4 3.4a7.5 7.5 0 0 1-1.88.7q-.96.22-2.04.22m-619.324 95.28V575h-19.92v-34.92l-21.12-44.28h20.88l13.2 31.92 12-31.92h16.68zm45.269-27.36q14.4 0 21.6 8.52 7.32 8.52 7.32 23.64 0 15.6-7.32 24.84t-21.6 9.24q-14.16 0-21.6-8.88t-7.44-24q0-15.36 7.32-24.36 7.44-9 21.72-9m0 59.04q6.24 0 8.04-7.32t1.8-18.96q0-11.04-1.92-18.24-1.92-7.32-7.92-7.32t-7.92 7.32-1.92 18.24q0 11.64 1.8 18.96t8.04 7.32m93.356-7.44q0 3.36.84 5.88t2.88 4.44q-1.44 1.68-4.08 2.52-2.52.96-5.16.96-4.32 0-7.32-1.8-3-1.92-4.08-5.4-2.4 4.08-6.72 6-4.2 2.04-9.48 2.04-8.76 0-13.44-3.72-4.56-3.72-6.12-10.32t-1.56-16.92V513.8h18.6v32.28q0 7.56.36 12.24.48 4.56 2.28 7.68 1.92 3 5.88 3 4.56 0 6.6-3.84 2.16-3.84 2.16-9.6V513.8h18.36zm119.18-49.2-17.16 61.2h-21.24l-8.04-35.52-7.44 35.52h-21.36l-15-61.2h19.2l9.6 52.44 9.72-52.44h16.2l9.72 52.44 9.6-52.44zm15.714-27.12q4.92 0 7.8 2.28 3 2.28 3 6.36 0 4.2-3.12 6.48-3.12 2.16-8.04 2.16-4.8 0-7.92-2.16-3-2.28-3-6.24 0-4.2 3.12-6.48 3.24-2.4 8.16-2.4m8.64 76.32q0 3.36.84 5.88t2.88 4.44q-1.32 1.68-4.08 2.52-2.64.96-5.28.96-6.24 0-9.48-3.12-3.24-3.24-3.24-9.48v-50.4h18.36zm32.584-73.92V563q0 3.36.84 5.88t2.88 4.44q-1.32 1.68-4.08 2.52-2.64.96-5.28.96-6.24 0-9.48-3.12-3.24-3.24-3.24-9.48V491zm32.93 0V563q0 3.36.84 5.88t2.88 4.44q-1.32 1.68-4.08 2.52-2.64.96-5.28.96-6.24 0-9.48-3.12-3.24-3.24-3.24-9.48V491zm60.506 32.16q-4.32 0-5.52 5.4-1.2 5.28-1.2 13.68V575h-18.36v-61.2l15-1.44.84 10.8q1.92-5.52 6.24-8.64t10.2-3.12q6.84 0 10.8 3.96 4.08 3.84 4.08 10.56 0 5.64-3 8.64t-8.52 3q-1.32 0-3.12-.36t-2.64-.96q.84-2.64.84-6.24 0-8.76-5.64-8.76m73.006 35.04q3.12 1.44 3.12 5.88 0 4.92-3.24 8.4t-8.4 5.28a30.8 30.8 0 0 1-10.44 1.8q-14.4 0-21.84-8.76-7.32-8.76-7.32-24 0-15.72 7.92-24.6 8.04-8.88 23.16-8.88 9.72 0 16.08 4.44t6.36 13.08q0 10.68-7.56 14.76t-20.64 4.08q-4.08 0-6.36-.36.36 8.52 3.24 13.44 3 4.92 9.96 4.92 5.16 0 9.36-2.4 4.32-2.52 6.6-7.08m-18.84-37.8q-5.76 0-8.04 7.08-2.16 6.96-2.28 16.32h2.4q7.56.12 11.4-2.76 3.96-2.88 3.96-9.84 0-4.56-1.92-7.68-1.8-3.12-5.52-3.12m68.165 51.12q-2.16 4.2-6.48 6.12t-9.72 1.92q-9.24 0-15.6-4.8t-6.36-13.32q0-11.28 10.44-15.36t26.28-4.08v-10.44q0-5.64-1.56-8.64t-6.12-3q-4.32 0-6.72 2.64-2.4 2.52-2.4 6.96 0 1.92.72 5.76-.84.6-2.52.96-1.68.24-3.12.24-4.92 0-8.16-2.28-3.24-2.4-3.24-6.84 0-6.84 7.68-10.44 7.8-3.6 18.6-3.6 12.96 0 19.08 5.16t6.12 17.4V563q0 3.36.84 5.88t2.88 4.44q-1.32 1.68-3.96 2.52-2.52.96-5.16.96-4.44 0-7.44-1.8-3-1.92-4.08-5.4m-10.56-.24q4.68 0 6.84-3.84 2.28-3.84 2.28-9.36v-10.08q-17.76 0-17.76 12.96 0 4.56 2.16 7.44 2.28 2.88 6.48 2.88m94.085-6.36q0 3.36.84 5.88t2.88 4.44q-1.32 1.68-3.96 2.52-2.52.96-5.16.96-4.44 0-7.44-1.8-3-1.92-4.08-5.4-2.28 4.08-6.6 6-4.2 2.04-9.48 2.04-12.36 0-17.88-9.24-5.52-9.36-5.52-24.24 0-15.48 7.44-24.12t22.32-8.64q4.92 0 8.28.96V491l18.36-1.92zm-18.36-41.52q-4.08-2.88-8.64-2.88-6.36 0-8.28 6.96-1.92 6.84-1.92 18 0 10.92 1.92 18.24 2.04 7.2 8.16 7.2 4.44 0 6.6-3.84t2.16-9.36zm47.671-2.28v-3.72q5.76-2.16 11.64-6t9.72-8.16h5.16v12.48h11.04v5.4h-11.16v42.72q0 3.72 1.32 5.76 1.44 1.92 4.56 2.52-1.2 3.12-4.44 4.8-3.24 1.8-7.2 1.8-6.24 0-9.48-3.36-3.12-3.36-3.12-9.72V519.2zm62.466-16.2q0 12.24-1.2 17.4 2.76-4.56 7.2-6.72 4.56-2.28 10.2-2.28 10.44 0 14.88 5.64 4.44 5.52 4.44 16.92V563q0 3.36.84 5.88t2.88 4.44q-1.32 1.68-4.08 2.52-2.64.96-5.28.96-6.24 0-9.48-3.12-3.24-3.24-3.24-9.48v-29.28q0-6.96-1.44-10.68-1.32-3.72-6.12-3.72-5.88 0-7.8 5.4-1.8 5.4-1.8 14.28V575h-18.36v-84l18.36-1.92zm58.488-16.32q4.92 0 7.8 2.28 3 2.28 3 6.36 0 4.2-3.12 6.48-3.12 2.16-8.04 2.16-4.8 0-7.92-2.16-3-2.28-3-6.24 0-4.2 3.12-6.48 3.24-2.4 8.16-2.4m8.64 76.32q0 3.36.84 5.88t2.88 4.44q-1.32 1.68-4.08 2.52-2.64.96-5.28.96-6.24 0-9.48-3.12-3.24-3.24-3.24-9.48v-50.4h18.36zm36.304-45q-3.12 0-5.04 1.8-1.8 1.8-1.8 4.8 0 4.56 3.36 7.56t10.2 6.6q5.4 3 8.64 5.28 3.24 2.16 5.52 5.64 2.28 3.36 2.28 8.16 0 9.96-7.2 14.88t-18.6 4.92q-9.36 0-16.08-3t-6.72-10.08q0-4.56 3.12-6.84 3.24-2.28 8.28-2.28 3.96 0 5.64 1.2-.72 2.64-.72 5.64 0 4.08 1.92 6.48 1.92 2.28 5.64 2.28 3.84 0 5.88-2.16 2.04-2.28 2.04-6.24 0-4.56-3.36-7.56t-10.08-6.6q-5.4-2.88-8.76-5.16-3.24-2.28-5.52-5.76t-2.28-8.28q0-9 7.2-13.44t17.76-4.44q8.76 0 15.24 2.88t6.48 9.48q0 4.32-3.36 6.72-3.24 2.28-8.16 2.28-1.44 0-3.12-.24-1.56-.24-2.4-.84.72-3.12.72-5.76 0-3.6-1.8-5.76-1.68-2.16-4.92-2.16M471.962 632.96q0-3.48-2.28-5.16-2.16-1.68-5.88-1.68-5.64 0-8.04 3.36-2.28 3.24-2.28 9.6v6.72h36.48V695q0 3.36.84 5.88t2.88 4.44q-1.32 1.68-4.08 2.52-2.64.96-5.28.96-6.24 0-9.48-3.12-3.24-3.24-3.24-9.48v-45h-18V707l-18.36 1.68V651.2h-8.28v-5.4h8.28l.36-5.52q1.08-19.68 28.92-19.68 10.2 0 18.48 2.28 8.4 2.28 8.4 8.52 0 4.32-3.72 6.48t-8.88 2.16q-4.56 0-7.68-1.56.84-2.4.84-5.52m57.221 20.28q-4.32 0-5.52 5.4-1.2 5.28-1.2 13.68V707h-18.36v-61.2l15-1.44.84 10.8q1.92-5.52 6.24-8.64t10.2-3.12q6.84 0 10.8 3.96 4.08 3.84 4.08 10.56 0 5.64-3 8.64t-8.52 3q-1.32 0-3.12-.36t-2.64-.96q.84-2.64.84-6.24 0-8.76-5.64-8.76m50.206-3.24q-3.12 0-5.04 1.8-1.8 1.8-1.8 4.8 0 4.56 3.36 7.56t10.2 6.6q5.4 3 8.64 5.28 3.24 2.16 5.52 5.64 2.28 3.36 2.28 8.16 0 9.96-7.2 14.88t-18.6 4.92q-9.36 0-16.08-3t-6.72-10.08q0-4.56 3.12-6.84 3.24-2.28 8.28-2.28 3.96 0 5.64 1.2-.72 2.64-.72 5.64 0 4.08 1.92 6.48 1.92 2.28 5.64 2.28 3.84 0 5.88-2.16 2.04-2.28 2.04-6.24 0-4.56-3.36-7.56t-10.08-6.6q-5.4-2.88-8.76-5.16-3.24-2.28-5.52-5.76t-2.28-8.28q0-9 7.2-13.44t17.76-4.44q8.76 0 15.24 2.88t6.48 9.48q0 4.32-3.36 6.72-3.24 2.28-8.16 2.28-1.44 0-3.12-.24-1.56-.24-2.4-.84.72-3.12.72-5.76 0-3.6-1.8-5.76-1.68-2.16-4.92-2.16m27.344 1.2v-3.72q5.76-2.16 11.64-6t9.72-8.16h5.16v12.48h11.04v5.4h-11.16v42.72q0 3.72 1.32 5.76 1.44 1.92 4.56 2.52-1.2 3.12-4.44 4.8-3.24 1.8-7.2 1.8-6.24 0-9.48-3.36-3.12-3.36-3.12-9.72V651.2zM307.021 806v-29.616h-9.36V772.4h22.896v3.984h-9.36V806zm20.065 0v-32.736l4.176-1.92v12.672q1.128-1.56 2.712-2.328 1.608-.792 3.624-.792 3.192 0 5.112 1.32 1.944 1.32 2.808 3.792.864 2.448.864 5.88V806h-4.176v-14.832q0-2.88-1.296-4.656-1.272-1.776-3.984-1.776-2.808 0-4.248 1.608-1.416 1.584-1.416 4.728V806zm37.206.576q-3.36 0-5.808-1.656t-3.768-4.56-1.32-6.648q0-4.056 1.368-6.912 1.368-2.88 3.816-4.392t5.712-1.512q2.76 0 5.064 1.248 2.304 1.224 3.672 3.816 1.392 2.568 1.392 6.6 0 .576-.048 1.344a26 26 0 0 1-.096 1.536h-16.608q.24 2.232 1.104 3.912t2.28 2.64q1.416.936 3.336.936 1.56 0 2.88-.552 1.344-.552 2.496-1.704l2.448 2.736q-1.368 1.368-3.408 2.28-2.016.888-4.512.888m-6.672-14.784h12.576q0-2.088-.696-3.72-.672-1.656-1.992-2.592t-3.216-.936q-2.664 0-4.584 1.728-1.896 1.728-2.088 5.52M381.132 806v-24.528h4.176v2.496q1.128-1.56 2.712-2.304 1.584-.768 3.624-.768 4.464 0 6.624 2.712 2.16 2.688 2.16 8.28V806h-4.176v-14.832q0-3.096-1.392-4.752-1.368-1.68-3.888-1.68-2.808 0-4.248 1.608-1.416 1.584-1.416 4.728V806zm41.248 9.312 3.744-9.936-9.072-23.904h4.176l6.096 16.704q.264.648.432 1.176t.336 1.176q.192-.648.36-1.176t.408-1.176l6.192-16.704h4.272l-12.72 33.84zm31.676-8.736q-5.04 0-7.944-3.432-2.904-3.456-2.904-9.384 0-3.96 1.32-6.84t3.744-4.44q2.448-1.584 5.784-1.584 3.36 0 5.784 1.56 2.448 1.536 3.744 4.416 1.32 2.88 1.32 6.84t-1.32 6.864q-1.32 2.88-3.768 4.44-2.424 1.56-5.76 1.56m0-3.888q3.096 0 4.848-2.376 1.776-2.4 1.776-6.6 0-4.224-1.776-6.6-1.752-2.376-4.848-2.376-3.12 0-4.872 2.376-1.752 2.352-1.752 6.648 0 4.2 1.752 6.576 1.752 2.352 4.872 2.352m26.046 3.888q-4.536 0-6.744-2.688-2.184-2.688-2.184-8.256v-14.16h4.176v14.784q0 3.12 1.368 4.776t3.912 1.656q2.808 0 4.224-1.608 1.44-1.608 1.44-4.728v-14.88h4.176V806h-4.176v-2.352q-1.176 1.512-2.664 2.232-1.464.696-3.528.696m33.759-.576-6.288-24.528h4.128l3.744 16.464q.168.672.288 1.344.144.648.24 1.248.12-.624.288-1.272.168-.672.336-1.32l4.608-16.464h3.456l4.608 16.464a92 92 0 0 1 .672 2.688q.12-.624.24-1.296t.288-1.392l3.696-16.464h4.128L532.005 806h-3.744l-4.464-14.544-.48-1.608-.432-1.608q-.168.72-.408 1.608t-.456 1.608L517.605 806zm30.257 0v-24.528h4.176V806zm2.064-28.992a2.56 2.56 0 0 1-1.848-.744 2.56 2.56 0 0 1-.744-1.848q0-1.128.744-1.896.768-.792 1.848-.792 1.128 0 1.872.792.768.768.768 1.896a2.52 2.52 0 0 1-.768 1.848q-.744.744-1.872.744M556.497 806v-32.688l4.176-1.968V806zm12.563 0v-32.688l4.176-1.968V806zm23.619 0v-24.528h4.176v3.216q.84-1.872 2.304-2.832 1.488-.96 3.504-.96 2.232 0 3.792 1.248l-.624 3.936a5.4 5.4 0 0 0-1.656-.792 6.1 6.1 0 0 0-1.848-.264q-1.656 0-2.88.888t-1.92 2.496q-.672 1.608-.672 3.768V806zm26.894.576q-3.36 0-5.808-1.656t-3.768-4.56-1.32-6.648q0-4.056 1.368-6.912 1.368-2.88 3.816-4.392t5.712-1.512q2.76 0 5.064 1.248 2.304 1.224 3.672 3.816 1.392 2.568 1.392 6.6 0 .576-.048 1.344a26 26 0 0 1-.096 1.536h-16.608q.24 2.232 1.104 3.912t2.28 2.64q1.416.936 3.336.936 1.56 0 2.88-.552 1.344-.552 2.496-1.704l2.448 2.736q-1.368 1.368-3.408 2.28-2.016.888-4.512.888m-6.672-14.784h12.576q0-2.088-.696-3.72-.672-1.656-1.992-2.592t-3.216-.936q-2.664 0-4.584 1.728-1.896 1.728-2.088 5.52m29.914 14.784q-3.984 0-6.264-2.208t-2.28-6.048q0-2.472 1.128-4.296t3.192-2.808q2.064-1.008 4.848-1.008 1.8 0 3.36.408 1.584.384 2.976 1.176v-1.728q0-2.856-1.296-4.176-1.296-1.344-4.032-1.344-1.752 0-3.648.648a14 14 0 0 0-3.504 1.8l-1.2-3.504q1.848-1.224 4.2-1.896a16.6 16.6 0 0 1 4.68-.696q4.368 0 6.552 2.232 2.184 2.208 2.184 6.6V806h-3.936v-2.256q-1.44 1.368-3.24 2.112-1.8.72-3.72.72m.624-3.648q1.704 0 3.36-.84 1.68-.84 2.976-2.376v-4.224q-1.224-.768-2.784-1.2t-2.976-.432q-2.688 0-4.248 1.224-1.56 1.2-1.56 3.288 0 2.112 1.392 3.336t3.84 1.224m26.928 3.648q-4.68 0-7.416-3.456-2.712-3.48-2.712-9.408 0-3.936 1.224-6.816 1.248-2.88 3.504-4.44 2.28-1.56 5.4-1.56 3.6 0 6.192 2.304v-9.888l4.176-1.968V806h-4.176v-1.92q-2.424 2.496-6.192 2.496m.576-3.888a6.17 6.17 0 0 0 3.192-.864q1.488-.864 2.424-2.448v-11.52a6.9 6.9 0 0 0-2.424-2.28 6.4 6.4 0 0 0-3.192-.84q-3.096 0-4.8 2.328-1.68 2.328-1.68 6.648 0 2.664.816 4.68t2.28 3.168q1.464 1.128 3.384 1.128m35.802 3.888q-2.52 0-3.864-1.512-1.32-1.512-1.32-4.344v-15.6h-3.984v-3.648h3.984v-8.112l4.176-2.016v10.128h6.048v3.648h-6.048v14.208q0 1.752.6 2.568.624.792 1.944.792 1.68 0 3.648-1.296l-.48 4.08a9 9 0 0 1-2.256.84q-1.152.264-2.448.264m10.387-.576v-32.736l4.176-1.92v12.672q1.128-1.56 2.712-2.328 1.608-.792 3.624-.792 3.192 0 5.112 1.32 1.944 1.32 2.808 3.792.864 2.448.864 5.88V806h-4.176v-14.832q0-2.88-1.296-4.656-1.272-1.776-3.984-1.776-2.808 0-4.248 1.608-1.416 1.584-1.416 4.728V806zm27.095 0v-24.528h4.176V806zm2.064-28.992a2.56 2.56 0 0 1-1.848-.744 2.56 2.56 0 0 1-.744-1.848q0-1.128.744-1.896.768-.792 1.848-.792 1.128 0 1.872.792.768.768.768 1.896a2.52 2.52 0 0 1-.768 1.848q-.744.744-1.872.744m17.324 29.568q-2.592 0-4.992-1.104-2.376-1.128-3.888-3.024l2.976-2.544q1.296 1.392 2.88 2.16t3.12.768q2.16 0 3.36-.816 1.2-.84 1.2-2.304a2.9 2.9 0 0 0-.552-1.728q-.528-.768-1.776-1.464-1.224-.696-3.288-1.464-4.056-1.512-5.832-3.288-1.752-1.776-1.752-4.392 0-2.88 2.28-4.68 2.304-1.8 5.976-1.8 2.52 0 4.632.96a9.94 9.94 0 0 1 3.624 2.736l-2.88 2.4q-2.208-2.352-5.424-2.352-1.896 0-3 .744-1.08.72-1.08 1.992 0 1.224 1.224 2.16 1.248.912 4.488 2.112 2.64.96 4.272 2.088 1.656 1.128 2.4 2.568.768 1.44.768 3.312 0 3.24-2.328 5.112-2.328 1.848-6.408 1.848"/></svg>