<svg xmlns="http://www.w3.org/2000/svg" width="1080" height="1350" fill="none"><path fill="#000" d="m331.323 432.32-1.24 4h7.88l-1.24-4q-.72-2.2-1.36-4.36-.64-2.2-1.28-4.48h-.16q-.6 2.28-1.24 4.48-.64 2.16-1.36 4.36m-8 14.68 8.88-26.24h3.76l8.88 26.24h-3.56l-2.48-8h-9.56l-2.52 8zm24.918 0v-19.44h2.72l.28 2.8h.12a15 15 0 0 1 2.96-2.32q1.56-.96 3.56-.96 3.08 0 4.48 1.96 1.44 1.92 1.44 5.64V447h-3.28v-11.88q0-2.72-.88-3.96t-2.8-1.24q-1.48 0-2.68.76-1.16.76-2.64 2.24V447zm28.515.48q-3.64 0-5.84-2.64-2.2-2.68-2.2-7.52 0-3.16 1.16-5.44 1.2-2.32 3.12-3.56 1.96-1.24 4.16-1.24 1.68 0 2.92.6t2.52 1.64l-.16-3.32v-7.48h3.32V447h-2.72l-.28-2.28h-.12q-1.12 1.12-2.64 1.96a6.86 6.86 0 0 1-3.24.8m.72-2.76q2.56 0 4.96-2.68v-10.16q-1.24-1.12-2.4-1.56a5.8 5.8 0 0 0-2.32-.48q-1.56 0-2.84.96-1.24.92-2 2.6-.76 1.64-.76 3.88 0 3.48 1.4 5.48 1.4 1.96 3.96 1.96m23.155 10.64q-.64 0-1.24-.12a10 10 0 0 1-1.04-.28l.64-2.6q.321.08.72.16.4.12.76.12 1.64 0 2.72-1.2 1.08-1.16 1.68-2.96l.44-1.44-7.8-19.48h3.4l3.96 10.76q.44 1.24.92 2.68.52 1.44.96 2.8h.16q.441-1.32.84-2.76.4-1.44.8-2.72l3.48-10.76h3.2l-7.32 21.04q-.68 1.92-1.64 3.44-.92 1.52-2.32 2.4-1.36.92-3.32.92m25.756-7.88q-2.36 0-4.44-1.2-2.04-1.2-3.32-3.48-1.24-2.28-1.24-5.48 0-3.28 1.24-5.56 1.28-2.28 3.32-3.48a8.74 8.74 0 0 1 4.44-1.2q2.4 0 4.44 1.2t3.28 3.48q1.28 2.28 1.28 5.56 0 3.2-1.28 5.48-1.24 2.28-3.28 3.48t-4.44 1.2m0-2.72q2.52 0 4.04-2.04 1.56-2.08 1.56-5.4 0-3.36-1.56-5.44-1.52-2.08-4.04-2.08-2.48 0-4.04 2.08t-1.56 5.44q0 3.32 1.56 5.4 1.56 2.04 4.04 2.04m19.8 2.72q-3.08 0-4.52-1.92-1.44-1.96-1.44-5.68v-12.32h3.32v11.88q0 2.72.84 3.96.88 1.24 2.8 1.24 1.52 0 2.68-.76 1.2-.8 2.56-2.52v-13.8h3.28V447h-2.72l-.28-3.04h-.12q-1.36 1.6-2.88 2.56t-3.52.96m27.165-.48-5.4-19.44h3.36l2.88 11.24q.321 1.36.6 2.72.28 1.32.56 2.68h.16q.32-1.36.64-2.68.32-1.36.68-2.72l3-11.24h3.2l3.04 11.24q.36 1.36.68 2.72.36 1.32.68 2.68h.16q.321-1.36.6-2.68.321-1.36.6-2.72l2.84-11.24h3.12l-5.2 19.44h-4l-2.8-10.44a142 142 0 0 1-.68-2.76q-.28-1.36-.64-2.84h-.16q-.32 1.48-.64 2.88a59 59 0 0 1-.72 2.76l-2.72 10.4zm25.631 0v-19.44h3.28V447zm1.68-23.44q-.96 0-1.6-.56-.6-.6-.6-1.6 0-.96.6-1.56.64-.6 1.6-.6t1.56.6q.64.6.64 1.56 0 1-.64 1.6-.6.56-1.56.56m11.644 23.92q-1.84 0-2.68-1.12-.8-1.16-.8-3.28v-24.56h3.28v24.8q0 .76.28 1.12.28.32.64.32h.28a5 5 0 0 1 .44-.08l.44 2.48a2.8 2.8 0 0 1-.76.24q-.44.08-1.12.08m10.195 0q-1.84 0-2.68-1.12-.8-1.16-.8-3.28v-24.56h3.28v24.8q0 .76.28 1.12.28.32.64.32h.28a5 5 0 0 1 .44-.08l.44 2.48a2.8 2.8 0 0 1-.76.24q-.44.08-1.12.08m14.723-.48v-19.44h2.72l.28 3.52h.12q1-1.84 2.44-2.92t3.08-1.08q1.16 0 2.08.4l-.64 2.88a7 7 0 0 0-.88-.24q-.4-.08-1-.08-1.24 0-2.6 1-1.32 1-2.32 3.48V447zm21.357.48q-2.6 0-4.72-1.2-2.12-1.24-3.36-3.52t-1.24-5.44q0-3.2 1.24-5.48 1.28-2.28 3.28-3.52t4.2-1.24q3.72 0 5.72 2.48 2.04 2.48 2.04 6.64 0 .52-.04 1.04 0 .48-.08.84h-13.12q.2 3.08 1.92 4.92 1.76 1.84 4.56 1.84 1.4 0 2.56-.4 1.2-.44 2.28-1.12l1.16 2.16q-1.24.8-2.84 1.4-1.56.6-3.56.6m-6.12-11.76h10.4q0-2.96-1.28-4.48-1.24-1.56-3.52-1.56-2.04 0-3.68 1.6-1.6 1.56-1.92 4.44m22.017 11.76q-2.44 0-4.08-1.44-1.6-1.48-1.6-4.08 0-3.2 2.84-4.88 2.88-1.72 9.08-2.4 0-1.24-.36-2.36-.321-1.12-1.2-1.8-.84-.72-2.44-.72-1.68 0-3.16.64t-2.64 1.44l-1.28-2.28q1.36-.88 3.32-1.68 2-.84 4.32-.84 3.56 0 5.16 2.2 1.6 2.16 1.6 5.8V447h-2.72l-.28-2.32h-.12a16.6 16.6 0 0 1-3 1.96 7.3 7.3 0 0 1-3.44.84m.96-2.64q1.4 0 2.64-.68 1.239-.68 2.64-1.92v-5.4q-4.84.6-6.8 1.8-1.92 1.2-1.92 3.08 0 1.64 1 2.4 1 .72 2.44.72m21.356 2.64q-3.64 0-5.84-2.64-2.2-2.68-2.2-7.52 0-3.16 1.16-5.44 1.2-2.32 3.12-3.56 1.96-1.24 4.16-1.24 1.68 0 2.92.6t2.52 1.64l-.16-3.32v-7.48h3.32V447h-2.72l-.28-2.28h-.12q-1.12 1.12-2.64 1.96a6.86 6.86 0 0 1-3.24.8m.72-2.76q2.56 0 4.96-2.68v-10.16q-1.24-1.12-2.4-1.56a5.8 5.8 0 0 0-2.32-.48q-1.56 0-2.84.96-1.24.92-2 2.6-.76 1.64-.76 3.88 0 3.48 1.4 5.48 1.4 1.96 3.96 1.96m28.955 2.76q-3.12 0-4.36-1.8-1.2-1.8-1.2-4.68v-10.76h-2.88v-2.48l3.04-.2.4-5.44h2.76v5.44h5.24v2.68h-5.24v10.8q0 1.8.64 2.8.68.96 2.36.96.52 0 1.12-.16l1.08-.36.64 2.48a14 14 0 0 1-1.76.48q-.92.24-1.84.24m7.396-.48v-28.48h3.28v7.76l-.12 4a17.4 17.4 0 0 1 2.92-2.24q1.56-.96 3.56-.96 3.08 0 4.48 1.96 1.44 1.92 1.44 5.64V447h-3.28v-11.88q0-2.72-.88-3.96t-2.8-1.24q-1.48 0-2.68.76-1.16.76-2.64 2.24V447zm21.758 0v-19.44h3.28V447zm1.68-23.44q-.96 0-1.6-.56-.6-.6-.6-1.6 0-.96.6-1.56.64-.6 1.6-.6t1.56.6q.64.6.64 1.56 0 1-.64 1.6-.6.56-1.56.56m13.244 23.92q-2.08 0-3.96-.76-1.88-.8-3.28-1.92l1.64-2.2a15.6 15.6 0 0 0 2.64 1.68q1.36.64 3.08.64 1.92 0 2.88-.88.96-.92.96-2.16 0-1-.68-1.68-.64-.68-1.68-1.12-1-.48-2.08-.88a34 34 0 0 1-2.68-1.16q-1.32-.68-2.16-1.72-.84-1.08-.84-2.72 0-2.36 1.76-3.92 1.8-1.6 4.96-1.6 1.8 0 3.36.64t2.68 1.56l-1.6 2.08q-1-.76-2.08-1.24a5.75 5.75 0 0 0-2.36-.48q-1.84 0-2.72.84-.84.84-.84 1.96 0 .92.6 1.52.6.56 1.56 1 .96.4 2.04.84 1.4.52 2.76 1.2a6.1 6.1 0 0 1 2.24 1.76q.92 1.08.92 2.92 0 1.56-.84 2.88-.801 1.32-2.4 2.12-1.56.8-3.88.8m23.165 0q-1.84 0-2.68-1.12-.8-1.16-.8-3.28v-24.56h3.28v24.8q0 .76.28 1.12.28.32.64.32h.28a5 5 0 0 1 .44-.08l.44 2.48a2.8 2.8 0 0 1-.76.24q-.44.08-1.12.08m11.195 0q-2.439 0-4.08-1.44-1.6-1.48-1.6-4.08 0-3.2 2.84-4.88 2.88-1.72 9.08-2.4 0-1.24-.36-2.36-.32-1.12-1.2-1.8-.84-.72-2.44-.72a7.9 7.9 0 0 0-3.16.64q-1.479.64-2.64 1.44l-1.28-2.28q1.36-.88 3.32-1.68 2.001-.84 4.32-.84 3.561 0 5.16 2.2 1.6 2.16 1.6 5.8V447h-2.72l-.28-2.32h-.12a16.6 16.6 0 0 1-3 1.96 7.3 7.3 0 0 1-3.44.84m.96-2.64q1.401 0 2.64-.68t2.64-1.92v-5.4q-4.84.6-6.8 1.8-1.92 1.2-1.92 3.08 0 1.64 1 2.4 1 .72 2.44.72m19.797 2.64q-2.08 0-3.96-.76-1.88-.8-3.28-1.92l1.64-2.2a15.6 15.6 0 0 0 2.64 1.68q1.36.64 3.08.64 1.92 0 2.88-.88.96-.92.96-2.16 0-1-.68-1.68-.64-.68-1.68-1.12-1-.48-2.08-.88a34 34 0 0 1-2.68-1.16q-1.32-.68-2.16-1.72-.84-1.08-.84-2.72 0-2.36 1.76-3.92 1.8-1.6 4.96-1.6 1.8 0 3.36.64t2.68 1.56l-1.6 2.08q-1-.76-2.08-1.24a5.75 5.75 0 0 0-2.36-.48q-1.84 0-2.72.84-.84.84-.84 1.96 0 .92.6 1.52.6.56 1.56 1 .96.4 2.04.84 1.4.52 2.76 1.2a6.1 6.1 0 0 1 2.24 1.76q.92 1.08.92 2.92 0 1.56-.84 2.88-.801 1.32-2.4 2.12-1.56.8-3.88.8m17.016 0q-3.12 0-4.36-1.8-1.2-1.8-1.2-4.68v-10.76h-2.88v-2.48l3.04-.2.4-5.44h2.76v5.44h5.24v2.68h-5.24v10.8q0 1.8.64 2.8.68.96 2.36.96.52 0 1.12-.16l1.08-.36.64 2.48a14 14 0 0 1-1.76.48q-.92.24-1.84.24m-606.186 54.24q-1.8-3.12-3.36-5.16-1.44-2.04-3-3.12-1.56-1.2-3.36-1.56-1.8-.48-4.08-.48v-4.8h40.32v4.8q-5.04 0-7.08.96t-2.04 2.88q0 1.2.72 2.88t2.28 4.56l17.16 32.76h.48l15.12-25.2q3.96-6.72 5.52-9.96 1.56-3.36 1.56-5.28 0-2.04-1.92-2.76-1.8-.84-6.84-.84v-4.8h30.12v4.8q-2.64 0-4.8.84t-4.56 3.36q-2.28 2.4-5.28 6.84-2.88 4.32-6.96 11.4l-17.52 30v12.24q0 6 .48 9.6.6 3.6 1.92 5.52 1.44 1.8 3.84 2.4t6.24.6v4.8h-42.72v-4.8q3.72 0 6.12-.6 2.52-.6 3.96-2.4t1.92-5.16q.6-3.48.6-9.12v-11.04zm106.928 12.48q7.2 0 13.56 2.52 6.48 2.4 11.28 6.72 4.92 4.32 7.68 10.32 2.88 5.88 2.88 12.96 0 7.32-2.88 13.44-2.76 6.12-7.68 10.56-4.8 4.44-11.28 6.96-6.36 2.52-13.56 2.52-7.08 0-13.44-2.4-6.36-2.52-11.16-6.96t-7.56-10.56q-2.76-6.24-2.76-13.56 0-7.08 2.76-13.08t7.56-10.32 11.16-6.72 13.44-2.4m0 6.96q-3.6 0-6.6 1.92-3 1.8-5.16 5.16-2.04 3.36-3.24 8.16-1.08 4.68-1.08 10.44 0 6 1.08 10.8 1.2 4.8 3.24 8.16 2.16 3.36 5.04 5.28 3 1.8 6.72 1.8t6.72-1.8q3.12-1.92 5.28-5.28 2.16-3.48 3.36-8.28t1.2-10.68q0-5.76-1.2-10.44t-3.36-8.04q-2.16-3.48-5.28-5.28-3-1.92-6.72-1.92m95.658 13.92q0-4.8-.24-7.56-.24-2.88-1.32-4.32-1.08-1.56-3.24-2.04-2.04-.6-5.64-.96v-4.8h27.12v36.36q0 7.32.12 11.52.24 4.08.72 6.12.36 1.56.84 2.52.48.84 1.56 1.44 1.08.48 2.88.72 1.92.12 4.92.12v4.68l-23.88 1.44-1.32-10.68h-.48q-3.12 5.04-8.76 7.8t-12.6 2.76q-12.84 0-19.56-9.12-5.16-6.96-5.16-19.8v-16.2q0-4.92-.24-7.68-.24-2.88-1.32-4.32-.96-1.44-3-1.92-2.04-.6-5.64-.96v-4.8h26.88v33.96q0 12.12 3 17.64 3 5.4 9.6 5.4 7.08 0 10.92-6.48 3.84-6.24 3.84-18.36zm95.198 45.12h-9l-16.44-49.32q-1.92-5.76-4.44-8.04-2.52-2.4-6.72-2.64v-4.8h34.32v4.8q-4.32.12-6 1.32-1.68 1.08-1.68 3.84 0 1.32.36 2.88t.96 3.6l7.56 28.08h.48l16.8-44.52h9.84l12.6 44.52h.6l9.6-24.84q1.2-3 1.68-5.16.48-2.28.48-3.96 0-3.12-2.04-4.44t-5.52-1.32v-4.8h25.8v4.8q-2.16 0-3.6.48t-2.88 2.28-3.12 5.52-4.2 10.2l-16.56 41.52h-9.48l-12.72-42.6h-.48zm100.155-20.88q0 4.8.36 7.68t1.44 4.44 3.12 2.16q2.04.48 5.52.6v4.8h-37.8v-4.8q3.36-.12 5.4-.72 2.16-.72 3.24-2.16 1.2-1.56 1.56-4.2.48-2.76.48-6.96V545.4q0-6.96-.24-11.4-.24-4.56-.6-6.24-.6-3-2.76-3.96-2.04-.96-7.56-.96v-4.08l27.84-4.56zm-17.64-70.56q0-3.96 2.64-6.6 2.76-2.76 6.6-2.76 3.96 0 6.6 2.76 2.76 2.64 2.76 6.6 0 3.84-2.76 6.6-2.64 2.64-6.6 2.64-3.84 0-6.6-2.64-2.64-2.76-2.64-6.6m59.799 70.56q0 4.8.36 7.68t1.44 4.44 3.12 2.16q2.04.48 5.52.6v4.8h-37.8v-4.8q3.36-.12 5.4-.72 2.16-.72 3.24-2.16 1.2-1.56 1.56-4.2.48-2.76.48-6.96V510.6q0-6.96-.24-11.4-.24-4.56-.6-6.24-.6-3-2.76-3.96-2.04-.96-7.56-.96v-4.08l27.84-4.56zm42.656 0q0 4.8.36 7.68t1.44 4.44 3.12 2.16q2.04.48 5.52.6v4.8h-37.8v-4.8q3.36-.12 5.4-.72 2.16-.72 3.24-2.16 1.2-1.56 1.56-4.2.48-2.76.48-6.96V510.6q0-6.96-.24-11.4-.24-4.56-.6-6.24-.6-3-2.76-3.96-2.04-.96-7.56-.96v-4.08l27.84-4.56zm75.852 1.08q0 4.68.36 7.44.48 2.64 1.8 4.08t3.84 1.92q2.52.36 6.72.36v4.8h-40.08v-4.8q3.6-.24 5.76-.72t3.24-1.92 1.32-4.08q.36-2.76.36-7.32v-14.64q0-7.44-.36-11.88t-1.56-6.84-3.48-3.12q-2.16-.84-5.76-.84v-4.2l24-4.44 1.92 13.8h.48q3.24-6.36 8.52-10.08t11.16-3.72q4.56 0 7.44 2.28t2.88 5.76q0 3.84-2.28 6.48-2.16 2.64-6 2.64-1.8 0-3.24-.72t-2.64-1.56a15 15 0 0 0-2.28-1.68q-1.08-.84-2.28-.84-2.28 0-4.32 3t-3.36 8.04q-.96 3.6-1.56 8.16-.6 4.44-.6 8.88zm92.902 7.44q-10.92 12.36-27.24 12.36-7.44 0-13.56-2.28-6-2.4-10.32-6.6-4.32-4.32-6.72-10.2t-2.4-13.08q0-7.44 2.52-13.56 2.52-6.24 7.08-10.68 4.68-4.56 10.92-7.08 6.36-2.52 13.92-2.52 12.72 0 19.8 6.84t7.08 19.2q0 1.92-.6 2.4-.6.36-3.36.36h-38.64q-.48 1.08-.48 3.96 0 11.76 5.04 18.6 5.16 6.84 13.92 6.84 5.04 0 9.96-2.28 5.04-2.28 9.72-6.48zm-23.28-31.56q4.8 0 6.12-.48 1.44-.6 1.44-2.64 0-5.28-3-8.64t-7.56-3.36q-5.16 0-9.24 4.32-3.96 4.2-5.16 10.8zm69.955 8.52q-10.08 4.56-15.24 8.52-5.04 3.84-5.04 8.04 0 3.48 1.92 5.52t4.8 2.04 5.4-.96q2.52-1.08 4.32-2.76t2.76-3.96q1.08-2.4 1.08-5.04zm0-6.36v-5.04q0-6.96-2.52-10.08-2.4-3.24-7.56-3.24-3.48 0-5.28 1.92-1.8 1.8-3.36 6.12-1.08 3-3.12 4.68-1.92 1.68-5.4 1.68-3.36 0-5.16-2.04t-1.8-5.76q0-5.76 6.24-9.12 6.36-3.36 19.08-3.36 13.44 0 19.2 4.92 5.76 4.8 5.76 16.2v26.28q0 10.2 4.08 10.2 2.28 0 4.2-1.56l1.8 3.48q-1.68 3-5.28 4.8-3.48 1.68-7.92 1.68-5.52 0-8.4-3.36t-2.88-9.48h-.6q-3.48 6.24-9 9.48t-12.6 3.24q-7.56 0-12.12-4.2-4.56-4.32-4.56-11.16 0-5.28 4.68-9.84 4.68-4.68 15.6-9.12zm85.347 32.88h-.48q-8.28 8.88-21.48 8.88-6.84 0-12.6-2.4-5.64-2.4-9.84-6.72-4.08-4.32-6.36-10.2-2.28-6-2.28-13.2t2.28-13.32q2.4-6.12 6.36-10.56a28.8 28.8 0 0 1 9.6-7.08q5.64-2.52 12.12-2.52 6 0 10.56 1.8 4.68 1.8 8.16 6.12h.48v-10.2q0-7.08-.24-12.12-.12-5.16-.48-6.72-.6-2.52-3.72-3.6-3-1.2-9.36-1.2v-4.08l30.36-4.8v68.64q0 9 .12 13.92.24 4.8.72 7.32.24 1.56.72 2.52t1.44 1.56q.96.48 2.52.72 1.68.12 4.2.12v4.68l-22.8 1.32zm-3.72-26.76q0-4.56-.96-8.4-.96-3.96-2.88-6.96-2.16-3.48-5.52-5.28t-7.2-1.8q-7.08 0-10.8 6.48t-3.72 18.84q0 12.48 3.72 19.2t10.68 6.72q3.96 0 7.56-2.04t5.88-5.52q1.68-2.64 2.4-6.48.84-3.96.84-10.08zM284.406 654v-5.4q7.2-2.04 12-6.12 4.92-4.2 7.32-9.6h6.12v14.52h13.8v6.6h-13.8v36.84q0 7.44 1.56 10.56 1.68 3.12 5.52 3.12 4.68 0 7.08-4.32l2.52 3.48q-3.36 8.52-15.84 8.52-8.28 0-12.96-3.84-4.56-3.84-4.56-10.8V654zm72.101 37.32q0 4.92.24 7.8.36 2.76 1.32 4.32 1.08 1.56 3.12 2.04 2.16.48 5.76.72v4.8h-37.8v-4.8q3.6-.24 5.76-.72t3.24-1.92 1.32-4.08q.36-2.76.36-7.32v-49.32q0-7.2-.24-11.28-.12-4.2-.6-6.36-.36-1.56-.84-2.4-.48-.96-1.56-1.44-.96-.6-2.76-.72-1.68-.24-4.32-.24v-4.44l26.76-4.56v44.28h.48q3.72-4.92 8.28-7.2 4.68-2.28 11.16-2.28 11.76 0 18.24 7.2 3.12 3.6 4.92 8.76 1.8 5.04 1.8 10.56v18.6q0 5.04.24 7.92.24 2.76 1.2 4.32 1.08 1.44 3.12 1.92t5.64.72v4.8h-37.56v-4.8q3.6-.12 5.64-.6 2.16-.6 3.24-2.04 1.2-1.44 1.44-4.08.36-2.76.36-7.32V677.4q0-12.72-2.76-18t-9.48-5.28q-7.2 0-11.4 5.28-2.04 2.76-3.24 6.84-1.08 4.08-1.08 9.12zm87.224 0q0 4.8.36 7.68t1.44 4.44 3.12 2.16q2.04.48 5.52.6v4.8h-37.8v-4.8q3.36-.12 5.4-.72 2.16-.72 3.24-2.16 1.2-1.56 1.56-4.2.48-2.76.48-6.96V677.4q0-6.96-.24-11.4-.24-4.56-.6-6.24-.6-3-2.76-3.96-2.04-.96-7.56-.96v-4.08l27.84-4.56zm-17.64-70.56q0-3.96 2.64-6.6 2.76-2.76 6.6-2.76 3.96 0 6.6 2.76 2.76 2.64 2.76 6.6 0 3.84-2.76 6.6-2.64 2.64-6.6 2.64-3.84 0-6.6-2.64-2.64-2.76-2.64-6.6M466.45 711h-3.72v-21.84h5.04q2.04 8.64 5.88 12.6t9.96 3.96q4.44 0 6.84-1.8 2.52-1.92 2.52-5.16 0-3.36-3-6.48-3-3.24-9.72-6.84-9.12-4.92-13.08-9.72-3.96-4.92-3.96-11.04 0-3.96 1.44-7.32 1.56-3.48 4.08-6 2.64-2.52 6.24-3.84 3.6-1.44 7.8-1.44 3.72 0 7.32 1.08 3.72 1.08 6.48 3l2.16-2.88h3.12v18.12h-4.68q-2.76-6.84-5.76-9.84-2.88-3-7.08-3-3.36 0-5.4 1.8-1.92 1.8-1.92 4.8 0 3.36 2.88 6.36 3 3 9.84 6.6 4.8 2.64 8.28 5.16t5.64 5.16q2.16 2.52 3.12 5.4 1.08 2.76 1.08 6 0 4.2-1.56 7.56a16.4 16.4 0 0 1-4.44 5.76q-2.88 2.4-6.96 3.72-3.96 1.32-8.88 1.32-5.16 0-9.6-1.32-4.44-1.44-7.32-4.08zm148.133-19.8q0 4.8.36 7.68t1.44 4.44 3.12 2.16 5.52.72v4.8h-35.4v-4.8q2.64-.12 4.2-.72 1.68-.6 2.52-2.16.96-1.56 1.2-4.2.36-2.64.36-6.96V678.6q0-6.48-.24-11.04-.24-4.68-.6-6.48-.6-2.88-3-3.84-2.28-1.08-8.4-1.08h-10.92v35.16q0 4.44.36 7.32.48 2.88 1.44 4.68 1.08 1.68 2.88 2.4 1.8.6 4.56.72V711h-34.32v-4.56q2.76-.12 4.32-.72 1.68-.6 2.52-2.04.96-1.44 1.2-4.08.36-2.76.36-7.32v-36.12h-11.88v-6.84h11.88v-8.64q0-14.04 8.64-21.6 8.64-7.68 24.36-7.68 9.48 0 15.36 3.12 6 3 6 8.04 0 2.64-1.68 4.32-1.56 1.56-4.2 1.56-4.2 0-8.28-3.96-3.48-3.48-6.12-4.8t-5.76-1.32q-6.6 0-9.24 6.12-2.4 5.16-2.4 15.48v9.36h15.24l24.6-3.12zm43.486 1.2q0 4.68.36 7.44.48 2.64 1.8 4.08t3.84 1.92q2.52.36 6.72.36v4.8h-40.08v-4.8q3.6-.24 5.76-.72t3.24-1.92 1.32-4.08q.36-2.76.36-7.32v-14.64q0-7.44-.36-11.88t-1.56-6.84-3.48-3.12q-2.16-.84-5.76-.84v-4.2l24-4.44 1.92 13.8h.48q3.24-6.36 8.52-10.08t11.16-3.72q4.56 0 7.44 2.28t2.88 5.76q0 3.84-2.28 6.48-2.16 2.64-6 2.64-1.8 0-3.24-.72t-2.64-1.56a15 15 0 0 0-2.28-1.68q-1.08-.84-2.28-.84-2.28 0-4.32 3t-3.36 8.04q-.96 3.6-1.56 8.16-.6 4.44-.6 8.88zm39.006 18.6h-3.72v-21.84h5.04q2.04 8.64 5.88 12.6t9.96 3.96q4.44 0 6.84-1.8 2.52-1.92 2.52-5.16 0-3.36-3-6.48-3-3.24-9.72-6.84-9.12-4.92-13.08-9.72-3.96-4.92-3.96-11.04 0-3.96 1.44-7.32 1.56-3.48 4.08-6 2.64-2.52 6.24-3.84 3.6-1.44 7.8-1.44 3.72 0 7.32 1.08 3.72 1.08 6.48 3l2.16-2.88h3.12v18.12h-4.68q-2.76-6.84-5.76-9.84-2.88-3-7.08-3-3.36 0-5.4 1.8-1.92 1.8-1.92 4.8 0 3.36 2.88 6.36 3 3 9.84 6.6 4.8 2.64 8.28 5.16t5.64 5.16q2.16 2.52 3.12 5.4 1.08 2.76 1.08 6 0 4.2-1.56 7.56a16.4 16.4 0 0 1-4.44 5.76q-2.88 2.4-6.96 3.72-3.96 1.32-8.88 1.32-5.16 0-9.6-1.32-4.44-1.44-7.32-4.08zm48.698-57v-5.4q7.2-2.04 12-6.12 4.92-4.2 7.32-9.6h6.12v14.52h13.8v6.6h-13.8v36.84q0 7.44 1.56 10.56 1.68 3.12 5.52 3.12 4.68 0 7.08-4.32l2.52 3.48q-3.36 8.52-15.84 8.52-8.28 0-12.96-3.84-4.56-3.84-4.56-10.8V654zM320.942 810v-28.128h-9.504v-3.36h23.04v3.36h-9.504V810zm18.822 0v-34.176h3.936v9.312l-.144 4.8a21 21 0 0 1 3.504-2.688q1.872-1.152 4.272-1.152 3.696 0 5.376 2.352 1.728 2.304 1.728 6.768V810H354.5v-14.256q0-3.264-1.056-4.752t-3.36-1.488q-1.776 0-3.216.912-1.392.912-3.168 2.688V810zm35.566.576q-3.12 0-5.664-1.44-2.544-1.488-4.032-4.224t-1.488-6.528q0-3.84 1.488-6.576 1.536-2.736 3.936-4.224t5.039-1.488q4.465 0 6.865 2.976 2.448 2.976 2.448 7.968 0 .624-.048 1.248 0 .576-.096 1.008h-15.744q.24 3.696 2.304 5.904 2.112 2.208 5.472 2.208 1.68 0 3.072-.48 1.44-.528 2.736-1.344l1.392 2.592q-1.488.96-3.408 1.68-1.872.72-4.272.72m-7.344-14.112h12.48q0-3.552-1.536-5.376-1.488-1.872-4.224-1.872-2.448 0-4.416 1.92-1.92 1.872-2.304 5.328m21.7 13.536v-23.328h3.264l.336 3.36h.144q1.68-1.68 3.552-2.784 1.872-1.152 4.272-1.152 3.696 0 5.376 2.352 1.728 2.304 1.728 6.768V810h-3.936v-14.256q0-3.264-1.056-4.752t-3.36-1.488q-1.776 0-3.216.912-1.392.912-3.168 2.688V810zm36.243 10.032a7.6 7.6 0 0 1-1.488-.144 12 12 0 0 1-1.248-.336l.768-3.12q.384.096.864.192.48.144.912.144 1.968 0 3.264-1.44 1.296-1.392 2.016-3.552l.528-1.728-9.36-23.376h4.08l4.752 12.912q.528 1.488 1.104 3.216.624 1.728 1.152 3.36h.192q.528-1.584 1.008-3.312t.96-3.264l4.176-12.912h3.84l-8.784 25.248q-.816 2.304-1.968 4.128-1.104 1.824-2.784 2.88-1.632 1.104-3.984 1.104m30.907-9.456a10.5 10.5 0 0 1-5.328-1.44q-2.448-1.44-3.984-4.176-1.488-2.736-1.488-6.576 0-3.936 1.488-6.672 1.536-2.736 3.984-4.176a10.5 10.5 0 0 1 5.328-1.44q2.88 0 5.328 1.44t3.936 4.176q1.536 2.736 1.536 6.672 0 3.84-1.536 6.576-1.488 2.736-3.936 4.176a10.3 10.3 0 0 1-5.328 1.44m0-3.264q3.024 0 4.848-2.448 1.872-2.496 1.872-6.48 0-4.032-1.872-6.528-1.824-2.496-4.848-2.496-2.976 0-4.848 2.496t-1.872 6.528q0 3.984 1.872 6.48 1.872 2.448 4.848 2.448m23.76 3.264q-3.696 0-5.424-2.304-1.728-2.352-1.728-6.816v-14.784h3.984v14.256q0 3.264 1.008 4.752 1.056 1.488 3.36 1.488 1.824 0 3.216-.912 1.44-.96 3.072-3.024v-16.56h3.936V810h-3.264l-.336-3.648h-.144q-1.632 1.92-3.456 3.072t-4.224 1.152m32.599-.576-6.48-23.328h4.032l3.456 13.488q.384 1.632.72 3.264a550 550 0 0 1 .672 3.216h.192q.384-1.632.768-3.216.384-1.632.816-3.264l3.6-13.488h3.84l3.648 13.488q.432 1.632.816 3.264.432 1.584.816 3.216h.192q.384-1.632.72-3.216.384-1.632.72-3.264l3.408-13.488h3.744L532.635 810h-4.8l-3.36-12.528q-.432-1.68-.816-3.312a98 98 0 0 0-.768-3.408h-.192a301 301 0 0 1-.768 3.456 73 73 0 0 1-.864 3.312L517.803 810zm30.757 0v-23.328h3.936V810zm2.016-28.128q-1.152 0-1.92-.672-.72-.72-.72-1.92 0-1.152.72-1.872.768-.72 1.92-.72t1.872.72q.768.72.768 1.872 0 1.2-.768 1.92-.72.672-1.872.672m13.972 28.704q-2.208 0-3.216-1.344-.96-1.392-.96-3.936v-29.472h3.936v29.76q0 .912.336 1.344.336.384.768.384h.336q.192-.048.528-.096l.528 2.976q-.384.192-.912.288t-1.344.096m12.235 0q-2.208 0-3.216-1.344-.96-1.392-.96-3.936v-29.472h3.936v29.76q0 .912.336 1.344.336.384.768.384h.336q.192-.048.528-.096l.528 2.976q-.384.192-.912.288t-1.344.096m17.667-.576v-23.328h3.264l.336 4.224h.144q1.2-2.208 2.928-3.504t3.696-1.296q1.392 0 2.496.48l-.768 3.456a9 9 0 0 0-1.056-.288 6.3 6.3 0 0 0-1.2-.096q-1.488 0-3.12 1.2-1.584 1.2-2.784 4.176V810zm25.628.576q-3.12 0-5.664-1.44-2.544-1.488-4.032-4.224t-1.488-6.528q0-3.84 1.488-6.576 1.536-2.736 3.936-4.224t5.04-1.488q4.464 0 6.864 2.976 2.448 2.976 2.448 7.968 0 .624-.048 1.248 0 .576-.096 1.008h-15.744q.24 3.696 2.304 5.904 2.112 2.208 5.472 2.208 1.68 0 3.072-.48 1.44-.528 2.736-1.344l1.392 2.592q-1.488.96-3.408 1.68-1.872.72-4.272.72m-7.344-14.112h12.48q0-3.552-1.536-5.376-1.488-1.872-4.224-1.872-2.448 0-4.416 1.92-1.92 1.872-2.304 5.328m26.42 14.112q-2.928 0-4.896-1.728-1.92-1.776-1.92-4.896 0-3.84 3.408-5.856 3.456-2.064 10.896-2.88 0-1.488-.432-2.832-.384-1.344-1.44-2.16-1.008-.864-2.928-.864a9.45 9.45 0 0 0-3.792.768 18.5 18.5 0 0 0-3.168 1.728l-1.536-2.736q1.632-1.056 3.984-2.016 2.4-1.008 5.184-1.008 4.272 0 6.192 2.64 1.92 2.592 1.92 6.96V810h-3.264l-.336-2.784h-.144a20 20 0 0 1-3.6 2.352 8.75 8.75 0 0 1-4.128 1.008m1.152-3.168a6.5 6.5 0 0 0 3.168-.816q1.488-.816 3.168-2.304v-6.48q-5.808.72-8.16 2.16-2.304 1.44-2.304 3.696 0 1.968 1.2 2.88 1.2.864 2.928.864m25.628 3.168q-4.368 0-7.008-3.168-2.64-3.216-2.64-9.024 0-3.792 1.392-6.528 1.44-2.784 3.744-4.272 2.352-1.488 4.992-1.488 2.016 0 3.504.72t3.024 1.968l-.192-3.984v-8.976h3.984V810h-3.264l-.336-2.736h-.144q-1.344 1.344-3.168 2.352a8.2 8.2 0 0 1-3.888.96m.864-3.312q3.072 0 5.952-3.216v-12.192q-1.488-1.344-2.88-1.872a7 7 0 0 0-2.784-.576q-1.872 0-3.408 1.152-1.488 1.104-2.4 3.12-.912 1.968-.912 4.656 0 4.176 1.68 6.576 1.68 2.352 4.752 2.352m34.746 3.312q-3.744 0-5.232-2.16-1.44-2.16-1.44-5.616v-12.912h-3.456v-2.976l3.648-.24.48-6.528h3.312v6.528h6.288v3.216h-6.288v12.96q0 2.16.768 3.36.816 1.152 2.832 1.152.624 0 1.344-.192l1.296-.432.768 2.976q-.96.336-2.112.576a8.7 8.7 0 0 1-2.208.288m8.875-.576v-34.176h3.936v9.312l-.144 4.8a21 21 0 0 1 3.504-2.688q1.872-1.152 4.272-1.152 3.696 0 5.376 2.352 1.728 2.304 1.728 6.768V810h-3.936v-14.256q0-3.264-1.056-4.752t-3.36-1.488q-1.776 0-3.216.912-1.392.912-3.168 2.688V810zm26.109 0v-23.328h3.936V810zm2.016-28.128q-1.152 0-1.92-.672-.72-.72-.72-1.92 0-1.152.72-1.872.768-.72 1.92-.72t1.872.72q.768.72.768 1.872 0 1.2-.768 1.92-.72.672-1.872.672m15.893 28.704a12.6 12.6 0 0 1-4.752-.912q-2.256-.96-3.936-2.304l1.968-2.64q1.536 1.2 3.168 2.016 1.632.768 3.696.768 2.304 0 3.456-1.056 1.152-1.104 1.152-2.592 0-1.2-.816-2.016-.768-.816-2.016-1.344-1.2-.576-2.496-1.056a41 41 0 0 1-3.216-1.392q-1.584-.816-2.592-2.064-1.008-1.296-1.008-3.264 0-2.832 2.112-4.704 2.16-1.92 5.952-1.92 2.16 0 4.032.768t3.216 1.872l-1.92 2.496a12.5 12.5 0 0 0-2.496-1.488q-1.296-.576-2.832-.576-2.208 0-3.264 1.008-1.008 1.008-1.008 2.352 0 1.104.72 1.824.72.672 1.872 1.2 1.152.48 2.448 1.008a33 33 0 0 1 3.312 1.44q1.632.768 2.688 2.112 1.104 1.296 1.104 3.504 0 1.872-1.008 3.456-.96 1.584-2.88 2.544-1.872.96-4.656.96"/></svg>