<svg xmlns="http://www.w3.org/2000/svg" width="1080" height="1350" fill="none"><path fill="#000" d="M301.572 440.8h-12.16l-2.24 6.2h-3.84l10.08-27.72h4.2l10.04 27.72h-3.84zm-1.04-2.96-5.04-14.08-5.04 14.08zm22.193-13.16q4 0 6.48 2.44 2.48 2.4 2.48 6.96V447h-3.6v-12.4q0-3.28-1.64-5-1.64-1.76-4.48-1.76-2.88 0-4.6 1.8-1.68 1.8-1.68 5.24V447h-3.64v-21.92h3.64v3.12a7.25 7.25 0 0 1 2.92-2.6q1.88-.92 4.12-.92m13.546 11.28q0-3.36 1.36-5.88 1.359-2.56 3.72-3.96 2.4-1.4 5.36-1.4 2.56 0 4.76 1.2 2.199 1.16 3.36 3.08v-11.6h3.68V447h-3.68v-4.12q-1.08 1.96-3.2 3.24-2.12 1.24-4.96 1.24-2.92 0-5.32-1.44-2.361-1.44-3.72-4.04-1.36-2.6-1.36-5.92m18.56.04q0-2.48-1-4.32t-2.72-2.8q-1.68-1-3.72-1t-3.72.96-2.68 2.8-1 4.32q0 2.52 1 4.4 1 1.84 2.68 2.84 1.68.96 3.72.96t3.72-.96q1.72-1 2.72-2.84 1-1.88 1-4.36m39.375-10.92-13.2 32.24h-3.76l4.32-10.56-8.84-21.68h4.04l6.88 17.76 6.8-17.76zm13.219 22.28q-3.08 0-5.6-1.4-2.48-1.4-3.92-3.96-1.4-2.6-1.4-6 0-3.36 1.44-5.92 1.48-2.6 4-3.96 2.52-1.4 5.64-1.4t5.64 1.4q2.52 1.36 3.96 3.92 1.48 2.56 1.48 5.96t-1.52 6q-1.48 2.56-4.04 3.96t-5.68 1.4m0-3.2a7.7 7.7 0 0 0 3.68-.92q1.72-.92 2.76-2.76 1.08-1.84 1.08-4.48t-1.04-4.48-2.72-2.72a7.46 7.46 0 0 0-3.64-.92q-2 0-3.68.92-1.64.88-2.64 2.72t-1 4.48q0 2.68.96 4.52 1 1.84 2.64 2.76 1.64.88 3.6.88m35.466-19.08V447h-3.64v-3.24q-1.04 1.68-2.92 2.64-1.84.92-4.08.92-2.56 0-4.6-1.04-2.04-1.08-3.24-3.2-1.16-2.12-1.16-5.16v-12.84h3.6v12.36q0 3.24 1.64 5 1.64 1.72 4.48 1.72 2.92 0 4.6-1.8t1.68-5.24v-12.04zm46.01 0-6.84 21.92h-3.76l-5.28-17.4-5.28 17.4h-3.76l-6.88-21.92h3.72l5.04 18.4 5.44-18.4h3.72l5.32 18.44 4.96-18.44zm5.493-3.56q-1.04 0-1.76-.72a2.4 2.4 0 0 1-.72-1.76q0-1.04.72-1.76t1.76-.72q.999 0 1.68.72.72.72.72 1.76t-.72 1.76a2.22 2.22 0 0 1-1.68.72m1.76 3.56V447h-3.64v-21.92zm9.843-7.68V447h-3.64v-29.6zm9.844 0V447h-3.64v-29.6zm20.508 11.24q.96-1.88 2.72-2.92 1.8-1.04 4.36-1.04v3.76h-.96q-6.12 0-6.12 6.64V447h-3.64v-21.92h3.64zm31.282 6.56q0 1.04-.12 2.2h-17.52q.2 3.24 2.2 5.08 2.04 1.8 4.92 1.8 2.36 0 3.92-1.08a5.9 5.9 0 0 0 2.24-2.96h3.92q-.88 3.16-3.52 5.16-2.64 1.96-6.56 1.96-3.12 0-5.6-1.4-2.44-1.4-3.84-3.96-1.4-2.6-1.4-6t1.36-5.96 3.8-3.92q2.48-1.4 5.68-1.4 3.12 0 5.52 1.36t3.68 3.76q1.32 2.36 1.32 5.36m-3.76-.76q0-2.08-.92-3.56a5.8 5.8 0 0 0-2.52-2.28q-1.56-.8-3.48-.8-2.76 0-4.72 1.76-1.92 1.76-2.2 4.88zm7.204 1.52q0-3.36 1.36-5.88 1.36-2.56 3.72-3.96 2.4-1.4 5.32-1.4 2.88 0 5 1.24t3.16 3.12v-4h3.68V447h-3.68v-4.08q-1.08 1.92-3.24 3.2-2.12 1.24-4.96 1.24-2.919 0-5.28-1.44-2.36-1.44-3.72-4.04t-1.36-5.92m18.56.04q0-2.48-1-4.32t-2.72-2.8q-1.68-1-3.72-1t-3.72.96-2.68 2.8-1 4.32q0 2.52 1 4.4 1 1.84 2.68 2.84 1.68.96 3.72.96t3.72-.96q1.72-1 2.72-2.84 1-1.88 1-4.36m8.472-.04q0-3.36 1.36-5.88 1.359-2.56 3.72-3.96 2.4-1.4 5.36-1.4 2.56 0 4.76 1.2 2.199 1.16 3.36 3.08v-11.6h3.68V447h-3.68v-4.12q-1.08 1.96-3.2 3.24-2.12 1.24-4.96 1.24-2.92 0-5.32-1.44-2.361-1.44-3.72-4.04-1.36-2.6-1.36-5.92m18.56.04q0-2.48-1-4.32t-2.72-2.8q-1.68-1-3.72-1t-3.72.96-2.68 2.8-1 4.32q0 2.52 1 4.4 1 1.84 2.68 2.84 1.68.96 3.72.96t3.72-.96q1.72-1 2.72-2.84 1-1.88 1-4.36m24.935-7.92V441q0 1.6.68 2.28.68.64 2.36.64h2.68V447h-3.28q-3.04 0-4.56-1.4t-1.52-4.6v-12.92h-2.84v-3h2.84v-5.52h3.64v5.52h5.72v3zm21.01-3.4q2.48 0 4.48 1.08 2.001 1.04 3.12 3.16 1.16 2.12 1.16 5.16V447h-3.6v-12.4q0-3.28-1.64-5-1.64-1.76-4.48-1.76-2.88 0-4.6 1.8-1.68 1.8-1.68 5.24V447h-3.64v-29.6h3.64v10.8q1.08-1.68 2.96-2.6 1.92-.92 4.28-.92m16.586-3.16q-1.04 0-1.76-.72a2.4 2.4 0 0 1-.72-1.76q0-1.04.72-1.76t1.76-.72q1 0 1.68.72.72.72.72 1.76t-.72 1.76q-.68.72-1.68.72m1.76 3.56V447h-3.64v-21.92zm13.964 22.28q-2.52 0-4.52-.84-2-.88-3.16-2.4-1.16-1.56-1.28-3.56h3.76q.16 1.64 1.52 2.68 1.4 1.04 3.64 1.04 2.08 0 3.28-.92t1.2-2.32q0-1.44-1.28-2.12-1.28-.72-3.96-1.4-2.44-.64-4-1.28a7.6 7.6 0 0 1-2.64-1.96q-1.08-1.32-1.08-3.44a5.18 5.18 0 0 1 1-3.08q1-1.4 2.84-2.2 1.84-.84 4.2-.84 3.64 0 5.88 1.84t2.4 5.04h-3.64q-.12-1.72-1.4-2.76-1.24-1.04-3.36-1.04-1.96 0-3.12.84t-1.16 2.2q0 1.08.68 1.8.72.68 1.76 1.12 1.08.4 2.96.92 2.36.64 3.84 1.28a6.36 6.36 0 0 1 2.52 1.84q1.08 1.24 1.12 3.24 0 1.8-1 3.24t-2.84 2.28q-1.8.8-4.16.8m27.443-29.96V447h-3.64v-29.6zm4.843 18.56q0-3.36 1.36-5.88 1.36-2.56 3.72-3.96 2.4-1.4 5.32-1.4 2.88 0 5 1.24t3.16 3.12v-4h3.68V447h-3.68v-4.08q-1.08 1.92-3.24 3.2-2.12 1.24-4.96 1.24-2.919 0-5.28-1.44-2.36-1.44-3.72-4.04t-1.36-5.92m18.56.04q0-2.48-1-4.32t-2.72-2.8q-1.68-1-3.72-1t-3.72.96-2.68 2.8-1 4.32q0 2.52 1 4.4 1 1.84 2.68 2.84 1.68.96 3.72.96t3.72-.96q1.72-1 2.72-2.84 1-1.88 1-4.36m17.592 11.36q-2.52 0-4.52-.84-2-.88-3.16-2.4-1.16-1.56-1.28-3.56h3.76q.16 1.64 1.52 2.68 1.4 1.04 3.64 1.04 2.08 0 3.28-.92t1.2-2.32q0-1.44-1.28-2.12-1.281-.72-3.96-1.4-2.44-.64-4-1.28a7.6 7.6 0 0 1-2.64-1.96q-1.08-1.32-1.08-3.44a5.18 5.18 0 0 1 1-3.08q1-1.4 2.84-2.2 1.839-.84 4.2-.84 3.639 0 5.88 1.84t2.4 5.04h-3.64q-.12-1.72-1.4-2.76-1.24-1.04-3.36-1.04-1.96 0-3.12.84t-1.16 2.2q0 1.08.68 1.8.72.68 1.76 1.12 1.08.4 2.96.92 2.36.64 3.84 1.28a6.4 6.4 0 0 1 2.52 1.84q1.08 1.24 1.12 3.24 0 1.8-1 3.24t-2.84 2.28q-1.8.8-4.16.8m17.578-19.28V441q0 1.6.68 2.28.68.64 2.36.64h2.68V447h-3.28q-3.04 0-4.56-1.4t-1.52-4.6v-12.92h-2.84v-3h2.84v-5.52h3.64v5.52h5.72v3zm-557.126 106.4 17.04-37.56h-12.12V495h23.64v1.92h-7.92L226.332 537v39.72h7.32V579h-38.04v-2.28h7.32v-37.44l-20.4-42.36h-5.64V495h38.4v1.92h-7.8zm57.828 20.88v-10.2q0-11.64-1.32-16.92-1.2-5.4-5.76-5.4-2.64 0-4.32 1.56-1.56 1.44-2.28 4.92-1.08 5.4-1.08 16.44v9.36q0 13.08.72 15.72.84 2.64 1.68 4.32 1.32 2.88 5.16 2.88 4.68 0 6.12-5.4 1.08-3.84 1.08-17.28m-7.44 24.84q-15 0-22.68-7.68t-7.68-21.96q0-14.4 8.16-22.08 8.28-7.8 23.16-7.8t22.2 7.2q7.32 7.08 7.32 21.72 0 30.6-30.48 30.6m104.036-1.2h-27.36l-1.32-8.76q-1.92 4.8-5.76 7.44-3.72 2.52-11.16 2.52-18.6 0-18.6-20.04v-36.12h-6.72v-2.16h29.04v41.16q0 7.2.96 9.48 1.08 2.28 4.08 2.28 3.12 0 5.52-3.72t2.4-10.32v-36.72h-5.52v-2.16h27.84v54.96h6.6zm65.059-54.96v-2.16h30.96v2.16h-4.92l10.8 40.44 10.68-40.44h-8.28v-2.16h16.2v2.16h-5.04l-14.4 54.96h-16.44l-10.44-36.84-11.28 36.84h-16.08l-17.76-54.96h-5.4v-2.16h36.36v2.16h-7.2l11.04 40.8 8.64-28.08-3-12.72zm76.678-10.44q-6.36 0-9.12-3.24-2.64-3.24-2.64-8.04t2.88-7.92q3-3.12 9-3.12t9.12 2.88q3.12 2.76 3.12 8.04 0 5.16-3 8.28t-9.36 3.12m-18.12 8.28h29.4v54.96h6.72V579h-35.64v-2.16h6.6v-52.8h-7.08zM539.939 489h29.4v87.84h6.72V579h-35.64v-2.16h6.6v-85.68h-7.08zm37.969 0h29.4v87.84h6.72V579h-35.64v-2.16h6.6v-85.68h-7.08zm100.091 36.24q-4.44 0-7.8 5.76t-3.36 13.68v32.16h8.52V579h-37.44v-2.16h6.6v-52.8h-6.6v-2.16h28.92v11.52q1.56-6.12 6-9.36 4.44-3.36 10.08-3.36t9.12 3.24q3.6 3.12 3.6 9 0 5.76-2.64 8.88t-8.16 3.12q-5.4 0-8.04-3.6-2.52-3.6-.6-9.96h4.32q3-6.12-2.52-6.12m50.308 54.96q-15.48 0-23.28-7.92-7.68-8.04-7.68-22.2 0-14.28 8.64-21.84 8.76-7.56 22.2-7.56 27.24 0 26.16 27.36h-33.84v4.68q0 11.76 3 17.76t10.44 6q13.92 0 18.24-14.88l2.16.36q-2.28 8.64-8.28 13.44-5.88 4.8-17.76 4.8m-7.68-34.56h12.36v-5.88q0-9.72-1.2-13.2-1.08-3.6-4.56-3.6-3.36 0-5.04 3.84-1.56 3.72-1.56 12.96zm66.795 5.16h3.48v-9.24q0-11.4-1.32-15.24-1.2-3.96-4.8-3.96-2.16 0-3.96 1.2-1.68 1.08-1.68 3.12 0 1.92.72 3.96h3q.96 2.52.96 6.12 0 3.48-3 6.12-3 2.52-7.56 2.52-10.32 0-10.32-9.96 0-14.76 25.08-14.76 14.28 0 19.68 4.92 5.52 4.8 5.52 17.76v24.36q0 6.24 3.48 6.24 4.08 0 4.8-12.36l1.8.12q-.48 10.56-3.96 14.52t-11.4 3.96q-14.4 0-16.56-8.88-1.56 4.56-4.68 6.72t-9.12 2.16q-17.76 0-17.76-14.52 0-8.52 6.72-11.64 6.84-3.24 20.88-3.24m-4.8 14.76q0 6.24.6 8.04.72 1.8 2.52 1.8 1.92 0 3.48-3 1.68-3.12 1.68-8.52v-11.16h-.84q-7.44 0-7.44 10.92zm66.219-11.4q0 12.6 1.32 16.8 1.32 4.08 4.8 4.08 3.6 0 6.12-3.12 2.64-3.12 2.64-9.24v-26.16q0-5.16-2.04-8.76t-6-3.6-5.4 5.28-1.44 18.48zm16.44 24.84-1.32-8.4q-4.08 9.6-16.56 9.6-10.32 0-16.08-7.44-5.64-7.44-5.64-22.2 0-29.88 23.76-29.88 10.56 0 13.92 5.88v-35.4h-7.32V489h30v87.84h5.88V579zM308.938 693.84v-37.8h-6.6v-2.16h6.6V638.4l22.32-5.52v21h15.6v2.16h-15.6v40.44q0 5.64 1.08 8.28 1.2 2.64 4.8 2.64t6.24-3.6q2.76-3.6 3.6-9.84l2.04.24q-.96 8.28-5.28 13.2-4.32 4.8-14.28 4.8t-15.24-3.96-5.28-14.4M350.165 621h28.92v43.92q1.92-5.52 5.88-8.88t12-3.36q18.6 0 18.6 20.04v36.12h6.72V711h-33.96v-2.16h4.92v-39q0-7.2-.96-9.24-.96-2.16-3.48-2.16-3.84 0-6.84 5.04-2.88 5.04-2.88 12.24v33.12h5.16V711h-34.08v-2.16h6.6v-85.68h-6.6zm91.585 24.6q-6.36 0-9.12-3.24-2.64-3.24-2.64-8.04t2.88-7.92q3-3.12 9-3.12t9.12 2.88q3.12 2.76 3.12 8.04 0 5.16-3 8.28t-9.36 3.12m-18.12 8.28h29.4v54.96h6.72V711h-35.64v-2.16h6.6v-52.8h-7.08zm41.326 58.32v-21.48h1.44q3.12 10.44 8.4 14.64t13.2 4.2q12.24 0 12.24-7.8 0-3.36-3-5.04-4.68-2.64-12-4.08-8.16-2.16-13.68-5.76-6.6-4.32-6.6-13.68t5.76-14.88q5.76-5.64 15.36-5.64 5.88 0 12.12 2.76 2.28.96 3.48.96t2.04-.84 2.04-3.12h1.32v18.36h-1.44q-6.12-15.6-18.96-15.6-5.64 0-8.4 2.04-2.76 1.92-2.76 4.92 0 1.8.84 2.88.84.96 1.32 1.44t1.56 1.08q1.08.48 1.8.84l2.16.72q1.56.48 2.28.6 8.16 2.04 11.76 3.6 3.6 1.44 6.84 3.6 6.6 4.56 6.6 14.76 0 10.08-6 15.36-6 5.16-16.44 5.16-7.44 0-14.4-3.48-1.44-.96-2.28-.96-2.64 0-5.16 4.44zm113.314-91.92q-13.56 0-13.56 14.4v19.2h39.48v54.96h6.72V711h-34.44v-2.16h5.4v-52.8h-17.16v52.8h7.68V711h-36.6v-2.16h6.6v-52.8h-6.96v-2.16h6.96v-.24q0-16.8 9.36-26.04 9.36-9.36 27.72-9.36 10.08 0 15.84 4.32 5.88 4.2 5.88 9.84t-2.88 8.28-7.44 2.64-7.2-2.28q-2.64-2.4-2.64-5.4 0-3.12.72-6l4.92-1.32q1.56-4.08-1.08-6-2.64-2.04-7.32-2.04m75.178 36.96q-4.44 0-7.8 5.76t-3.36 13.68v32.16h8.52V711h-37.44v-2.16h6.6v-52.8h-6.6v-2.16h28.92v11.52q1.56-6.12 6-9.36 4.44-3.36 10.08-3.36t9.12 3.24q3.6 3.12 3.6 9 0 5.76-2.64 8.88t-8.16 3.12q-5.4 0-8.04-3.6-2.52-3.6-.6-9.96h4.32q3-6.12-2.52-6.12m20.688 54.96v-21.48h1.44q3.12 10.44 8.4 14.64t13.2 4.2q12.24 0 12.24-7.8 0-3.36-3-5.04-4.68-2.64-12-4.08-8.16-2.16-13.68-5.76-6.6-4.32-6.6-13.68t5.76-14.88q5.76-5.64 15.36-5.64 5.88 0 12.12 2.76 2.28.96 3.48.96t2.04-.84 2.04-3.12h1.32v18.36h-1.44q-6.12-15.6-18.96-15.6-5.64 0-8.4 2.04-2.76 1.92-2.76 4.92 0 1.8.84 2.88.84.96 1.32 1.44t1.56 1.08q1.08.48 1.8.84l2.16.72q1.56.48 2.28.6 8.16 2.04 11.76 3.6 3.6 1.44 6.84 3.6 6.6 4.56 6.6 14.76 0 10.08-6 15.36-6 5.16-16.44 5.16-7.44 0-14.4-3.48-1.44-.96-2.28-.96-2.64 0-5.16 4.44zm54.099-18.36v-37.8h-6.6v-2.16h6.6V638.4l22.32-5.52v21h15.6v2.16h-15.6v40.44q0 5.64 1.08 8.28 1.2 2.64 4.8 2.64t6.24-3.6q2.76-3.6 3.6-9.84l2.04.24q-.96 8.28-5.28 13.2-4.32 4.8-14.28 4.8t-15.24-3.96-5.28-14.4m-433.556 82.704v3.552h-9.12V810h-4.368v-29.904h-9.168v-3.552zm18.432 6.672q2.976 0 5.376 1.296 2.4 1.248 3.744 3.792 1.392 2.544 1.392 6.192V810h-4.32v-14.88q0-3.936-1.968-6-1.968-2.112-5.376-2.112-3.456 0-5.52 2.16-2.016 2.16-2.016 6.288V810h-4.368v-35.52h4.368v12.96q1.296-2.016 3.552-3.12 2.304-1.104 5.136-1.104m41.648 12.624q0 1.248-.144 2.64h-21.024q.24 3.888 2.64 6.096 2.448 2.16 5.904 2.16 2.832 0 4.704-1.296a7.07 7.07 0 0 0 2.688-3.552h4.704q-1.056 3.792-4.224 6.192-3.168 2.352-7.872 2.352-3.744 0-6.72-1.68-2.928-1.68-4.608-4.752-1.68-3.12-1.68-7.2t1.632-7.152 4.56-4.704q2.976-1.68 6.816-1.68 3.744 0 6.624 1.632t4.416 4.512q1.584 2.832 1.584 6.432m-4.512-.912q0-2.496-1.104-4.272a6.95 6.95 0 0 0-3.024-2.736q-1.872-.96-4.176-.96-3.312 0-5.664 2.112-2.304 2.112-2.64 5.856zm23.093-11.712q4.8 0 7.776 2.928 2.976 2.88 2.976 8.352V810h-4.32v-14.88q0-3.936-1.968-6-1.968-2.112-5.376-2.112-3.456 0-5.52 2.16-2.016 2.16-2.016 6.288V810h-4.368v-26.304h4.368v3.744q1.296-2.016 3.504-3.12 2.256-1.104 4.944-1.104m53.34.48-15.84 38.688h-4.512l5.184-12.672-10.608-26.016h4.848l8.256 21.312 8.16-21.312zm15.863 26.736q-3.696 0-6.72-1.68-2.976-1.68-4.704-4.752-1.68-3.12-1.68-7.2 0-4.032 1.728-7.104 1.776-3.12 4.8-4.752 3.024-1.68 6.768-1.68t6.768 1.68q3.024 1.632 4.752 4.704 1.776 3.072 1.776 7.152t-1.824 7.2q-1.776 3.072-4.848 4.752t-6.816 1.68m0-3.84q2.352 0 4.416-1.104t3.312-3.312q1.296-2.208 1.296-5.376t-1.248-5.376-3.264-3.264a8.95 8.95 0 0 0-4.368-1.104q-2.4 0-4.416 1.104-1.968 1.056-3.168 3.264t-1.2 5.376q0 3.216 1.152 5.424 1.2 2.208 3.168 3.312 1.968 1.056 4.32 1.056m42.559-22.896V810h-4.368v-3.888q-1.248 2.016-3.504 3.168-2.208 1.104-4.896 1.104-3.072 0-5.52-1.248-2.448-1.296-3.888-3.84-1.392-2.544-1.392-6.192v-15.408h4.32v14.832q0 3.888 1.968 6 1.968 2.064 5.376 2.064 3.504 0 5.52-2.16t2.016-6.288v-14.448zm55.212 0L532.106 810h-4.512l-6.336-20.88-6.336 20.88h-4.512l-8.256-26.304h4.464l6.048 22.08 6.528-22.08h4.464l6.384 22.128 5.952-22.128zm6.591-4.272q-1.248 0-2.112-.864t-.864-2.112.864-2.112 2.112-.864q1.2 0 2.016.864.864.864.864 2.112t-.864 2.112a2.66 2.66 0 0 1-2.016.864m2.112 4.272V810h-4.368v-26.304zm11.813-9.216V810h-4.368v-35.52zm11.812 0V810h-4.368v-35.52zm24.61 13.488q1.152-2.256 3.264-3.504 2.16-1.248 5.232-1.248v4.512h-1.152q-7.344 0-7.344 7.968V810h-4.368v-26.304h4.368zm37.538 7.872q0 1.248-.144 2.64h-21.024q.24 3.888 2.64 6.096 2.448 2.16 5.904 2.16 2.832 0 4.704-1.296a7.07 7.07 0 0 0 2.688-3.552h4.704q-1.056 3.792-4.224 6.192-3.168 2.352-7.872 2.352-3.744 0-6.72-1.68-2.928-1.68-4.608-4.752-1.68-3.12-1.68-7.2t1.632-7.152 4.56-4.704q2.976-1.68 6.816-1.68 3.744 0 6.624 1.632t4.416 4.512q1.584 2.832 1.584 6.432m-4.512-.912q0-2.496-1.104-4.272a6.95 6.95 0 0 0-3.024-2.736q-1.872-.96-4.176-.96-3.312 0-5.664 2.112-2.304 2.112-2.64 5.856zm8.645 1.824q0-4.032 1.632-7.056 1.632-3.072 4.464-4.752 2.88-1.68 6.384-1.68 3.456 0 6 1.488t3.792 3.744v-4.8h4.416V810h-4.416v-4.896q-1.296 2.304-3.888 3.84-2.544 1.488-5.952 1.488-3.504 0-6.336-1.728t-4.464-4.848-1.632-7.104m22.272.048q0-2.976-1.2-5.184t-3.264-3.36q-2.016-1.2-4.464-1.2t-4.464 1.152-3.216 3.36-1.2 5.184q0 3.024 1.2 5.28 1.2 2.208 3.216 3.408 2.016 1.152 4.464 1.152t4.464-1.152q2.064-1.2 3.264-3.408 1.2-2.256 1.2-5.232m10.166-.048q0-4.032 1.632-7.056 1.632-3.072 4.464-4.752 2.88-1.68 6.432-1.68 3.072 0 5.712 1.44 2.64 1.392 4.032 3.696v-13.92h4.416V810h-4.416v-4.944q-1.296 2.352-3.84 3.888-2.544 1.488-5.952 1.488-3.504 0-6.384-1.728-2.832-1.728-4.464-4.848t-1.632-7.104m22.272.048q0-2.976-1.2-5.184t-3.264-3.36q-2.016-1.2-4.464-1.2t-4.464 1.152-3.216 3.36-1.2 5.184q0 3.024 1.2 5.28 1.2 2.208 3.216 3.408 2.016 1.152 4.464 1.152t4.464-1.152q2.064-1.2 3.264-3.408 1.2-2.256 1.2-5.232m29.922-9.504V802.8q0 1.92.816 2.736.816.768 2.832.768h3.216V810h-3.936q-3.648 0-5.472-1.68t-1.824-5.52v-15.504h-3.408v-3.6h3.408v-6.624h4.368v6.624h6.864v3.6zm25.213-4.08q2.976 0 5.376 1.296 2.4 1.248 3.744 3.792 1.392 2.544 1.392 6.192V810h-4.32v-14.88q0-3.936-1.968-6-1.968-2.112-5.376-2.112-3.456 0-5.52 2.16-2.016 2.16-2.016 6.288V810h-4.368v-35.52h4.368v12.96q1.296-2.016 3.552-3.12 2.304-1.104 5.136-1.104m19.903-3.792q-1.248 0-2.112-.864t-.864-2.112.864-2.112 2.112-.864q1.2 0 2.016.864.864.864.864 2.112t-.864 2.112a2.66 2.66 0 0 1-2.016.864m2.112 4.272V810h-4.368v-26.304zm16.756 26.736q-3.024 0-5.424-1.008-2.4-1.056-3.792-2.88-1.392-1.872-1.536-4.272h4.512q.192 1.968 1.824 3.216 1.68 1.248 4.368 1.248 2.496 0 3.936-1.104t1.44-2.784q0-1.728-1.536-2.544-1.536-.864-4.752-1.68-2.928-.768-4.8-1.536a9.1 9.1 0 0 1-3.168-2.352q-1.296-1.584-1.296-4.128 0-2.016 1.2-3.696t3.408-2.64q2.208-1.008 5.04-1.008 4.368 0 7.056 2.208t2.88 6.048h-4.368q-.144-2.064-1.68-3.312-1.488-1.248-4.032-1.248-2.352 0-3.744 1.008t-1.392 2.64q0 1.296.816 2.16.864.816 2.112 1.344 1.296.48 3.552 1.104 2.832.768 4.608 1.536a7.64 7.64 0 0 1 3.024 2.208q1.296 1.488 1.344 3.888 0 2.16-1.2 3.888t-3.408 2.736q-2.16.96-4.992.96"/></svg>