<svg xmlns="http://www.w3.org/2000/svg" width="1080" height="1350" fill="none"><path fill="#000" d="m329.141 446 9.218-28.594h5L352.676 446h-3.555l-2.52-7.637h-11.64L332.559 446zm6.601-10.176h10.059l-5-16.172zM355.723 446v-19.98h3.32v3.027q1.015-1.7 2.676-2.578 1.66-.879 3.984-.879 2.344 0 3.711.82 1.386.82 2.051 2.149.682 1.328.879 2.89.195 1.563.195 3.067V446h-3.32v-11.758q0-3.027-.84-4.668-.84-1.64-3.262-1.64-1.66 0-2.812.625a4.93 4.93 0 0 0-1.836 1.679q-.704 1.055-1.035 2.422a14.6 14.6 0 0 0-.391 2.891V446zM385.059 446.469q-2.637 0-4.493-1.27t-2.832-3.613q-.957-2.344-.957-5.547 0-3.458 1.035-5.781 1.056-2.325 2.93-3.496 1.875-1.172 4.356-1.172 1.914 0 3.339.801a6.77 6.77 0 0 1 2.383 2.207v-11.426h3.321v28.789h-2.579l-.156-3.203a6.9 6.9 0 0 1-2.422 2.695q-1.542 1.016-3.925 1.016m.546-2.364q1.855 0 3.028-.957 1.191-.957 1.758-2.793.585-1.855.585-4.531 0-2.89-.761-4.609-.743-1.738-2.031-2.5-1.29-.762-2.872-.762-2.577 0-3.886 2.031-1.29 2.013-1.289 5.899 0 4.14 1.328 6.191 1.327 2.031 4.14 2.031M408.867 452.23q-.587 0-1.152-.078a8 8 0 0 1-1.153-.214l.372-2.696q.43.059.8.098.372.039.703.039 1.134 0 1.914-.352.802-.332 1.387-1.23.606-.898 1.153-2.578l.351-1.016-7.285-18.183h3.418l5.547 14.746 5.527-14.746h3.281l-7.129 18.32q-1.035 2.676-2.031 4.414-.996 1.758-2.344 2.617-1.328.86-3.359.859M435.039 446.469q-4.004 0-6.406-2.637-2.383-2.656-2.383-7.812 0-5.137 2.383-7.774 2.402-2.656 6.406-2.656t6.387 2.656q2.382 2.637 2.383 7.774 0 5.156-2.383 7.812-2.384 2.637-6.387 2.637m0-2.364q2.188 0 3.34-1.191 1.172-1.191 1.601-3.047.45-1.875.45-3.847 0-1.974-.45-3.829-.43-1.855-1.601-3.046-1.153-1.212-3.34-1.211-2.168 0-3.34 1.211-1.171 1.19-1.621 3.046a17 17 0 0 0-.43 3.829q0 1.972.43 3.847.45 1.856 1.621 3.047t3.34 1.191M455 446.469q-2.442 0-3.848-.84-1.406-.86-2.09-2.246a9.6 9.6 0 0 1-.859-2.988 29 29 0 0 1-.176-3.145v-11.23h3.321v11.679q0 2.09.371 3.535.37 1.426 1.308 2.149.938.722 2.637.722 2.245 0 3.516-1.152 1.288-1.152 1.816-3.047.547-1.914.547-4.121v-9.765h3.32V446h-3.32v-3.008q-.976 1.68-2.598 2.578-1.601.899-3.945.899M482.715 446l-6.465-19.98h3.437l4.629 15.781 5.41-15.781h1.875l5.157 15.781 4.843-15.781h3.262L498.027 446h-2.871l-4.629-14.414L485.586 446zM507.851 446v-19.98h3.321V446zm-.214-24.062v-4.395h3.398v4.395zM516.172 446v-28.789h3.32V446zM524.883 446v-28.789h3.32V446zM542.051 446v-19.98h3.3v3.476q1.016-1.894 2.52-2.754 1.504-.879 3.457-.879v2.93q-2.129 0-3.437.957a5.53 5.53 0 0 0-1.915 2.5 10 10 0 0 0-.625 3.32l.02 10.43zM563.086 446.469q-3.105 0-5.078-1.446-1.953-1.445-2.891-3.828-.918-2.382-.918-5.195 0-3.125 1.016-5.469 1.015-2.343 2.969-3.633 1.953-1.308 4.726-1.308 2.793 0 4.551 1.25 1.777 1.23 2.617 3.359.86 2.11.859 4.785 0 .079-.019.391 0 .293-.02.625 0 .312-.019.488h-13.36q.02 1.992.567 3.731.566 1.719 1.777 2.793t3.164 1.074q2.032 0 3.262-1.055a5.85 5.85 0 0 0 1.738-2.597l2.481.566q-.45 1.738-1.563 2.969a7.3 7.3 0 0 1-2.617 1.855 8.7 8.7 0 0 1-3.242.645m-5.567-12.168h10.313q-.02-3.007-1.172-4.668-1.133-1.68-3.809-1.68-1.347 0-2.324.547a4.9 4.9 0 0 0-1.621 1.465 7.6 7.6 0 0 0-.976 2.051 10.4 10.4 0 0 0-.411 2.285M580.098 446.488q-1.64 0-2.989-.547-1.347-.546-2.148-1.66-.801-1.132-.801-2.871 0-1.875.684-3.027.702-1.171 2.011-1.836 1.329-.684 3.184-1.074a76 76 0 0 1 4.16-.743l2.207-.332v-.996q0-2.07-.351-3.242-.333-1.191-1.231-1.699-.88-.508-2.558-.508-1.837 0-3.34.527-1.485.528-2.871 1.543l-.215-.293a53 53 0 0 0-.449-.703q-.255-.39-.469-.683l-.196-.293a12.6 12.6 0 0 1 3.418-1.836q1.816-.625 4.278-.625 3.554 0 5.429 1.758 1.875 1.738 1.875 5.449V446h-2.851l-.293-2.5a6.8 6.8 0 0 1-2.695 2.227q-1.641.76-3.789.761m.527-2.343q1.777 0 3.184-.743 1.425-.742 2.597-2.148v-4.746l-2.539.43q-2.715.448-4.16.937-1.426.489-1.953 1.23-.508.742-.508 1.954 0 1.562.762 2.324t2.617.762M602.129 446.469q-2.637 0-4.492-1.27-1.856-1.27-2.832-3.613-.957-2.344-.957-5.547 0-3.458 1.035-5.781 1.054-2.325 2.929-3.496 1.875-1.172 4.356-1.172 1.914 0 3.34.801a6.8 6.8 0 0 1 2.383 2.207v-11.426h3.32v28.789h-2.578l-.157-3.203a6.9 6.9 0 0 1-2.421 2.695q-1.544 1.016-3.926 1.016m.547-2.364q1.856 0 3.027-.957 1.191-.957 1.758-2.793.585-1.855.586-4.531 0-2.89-.762-4.609-.742-1.738-2.031-2.5t-2.871-.762q-2.579 0-3.887 2.031-1.289 2.013-1.289 5.899 0 4.14 1.328 6.191 1.328 2.031 4.141 2.031M631.445 446.312q-1.66 0-2.871-.624-1.21-.625-1.875-2.032-.644-1.425-.644-3.789v-11.582h-2.911v-2.265h2.911l.136-6.309 3.184-.859v7.168h4.375v2.265h-4.375v12.149q0 1.894.664 2.656.664.743 1.836.762.626 0 1.269-.157a10 10 0 0 0 1.309-.449l.547 2.168a7.5 7.5 0 0 1-1.641.625 7 7 0 0 1-1.914.273M637.91 446v-28.789h3.34v11.875q1.015-1.68 2.656-2.578 1.66-.899 3.985-.899 2.363 0 3.73.821 1.387.8 2.051 2.129.684 1.309.879 2.89.195 1.563.195 3.067V446h-3.32v-11.777q0-3.009-.86-4.629-.84-1.641-3.261-1.641-2.227 0-3.536 1.035-1.288 1.016-1.875 2.735-.566 1.699-.644 3.769V446zM659.766 446v-19.98h3.32V446zm-.215-24.062v-4.395h3.398v4.395zM674.277 446.469q-1.601 0-3.144-.449a6.6 6.6 0 0 1-2.696-1.504q-1.152-1.075-1.66-2.93l2.442-.996q.488 1.27 1.113 2.051a3.6 3.6 0 0 0 1.621 1.113q1.015.351 2.598.351 2.05 0 3.34-.683 1.289-.684 1.289-2.637 0-1.016-.215-1.601-.195-.606-.801-.957-.586-.353-1.738-.645a85 85 0 0 0-3.008-.703q-2.031-.47-3.379-1.035-1.327-.567-1.992-1.641-.645-1.093-.645-3.066 0-2.696 2.051-4.121 2.05-1.426 5.352-1.426 2.617 0 4.297.859 1.679.86 2.734 3.067l-.313.175q-.312.176-.742.411-.41.215-.722.41l-.313.176q-.723-1.505-1.816-2.129-1.075-.625-2.989-.625-2.48 0-3.457.8-.976.802-.976 2.461 0 1.075.39 1.66.41.567 1.426.918 1.016.333 2.871.723 2.48.508 3.985 1.172 1.503.664 2.187 1.777.703 1.114.703 3.008 0 2.93-1.836 4.473-1.816 1.543-5.957 1.543M694.687 446v-28.789h3.321V446zM708.457 446.488q-1.641 0-2.988-.547-1.348-.546-2.149-1.66-.801-1.132-.801-2.871 0-1.875.684-3.027.703-1.171 2.012-1.836 1.327-.684 3.183-1.074a76 76 0 0 1 4.161-.743l2.207-.332v-.996q0-2.07-.352-3.242-.332-1.191-1.23-1.699-.879-.508-2.559-.508-1.836 0-3.34.527-1.484.528-2.871 1.543l-.215-.293a53 53 0 0 0-.449-.703q-.254-.39-.469-.683l-.195-.293a12.6 12.6 0 0 1 3.418-1.836q1.817-.625 4.277-.625 3.555 0 5.43 1.758 1.875 1.738 1.875 5.449V446h-2.852l-.293-2.5a6.8 6.8 0 0 1-2.695 2.227q-1.641.76-3.789.761m.527-2.343q1.777 0 3.184-.743 1.425-.742 2.598-2.148v-4.746l-2.539.43q-2.715.448-4.161.937-1.425.489-1.953 1.23-.507.742-.508 1.954 0 1.562.762 2.324t2.617.762M729.16 446.469q-1.602 0-3.144-.449a6.6 6.6 0 0 1-2.696-1.504q-1.152-1.075-1.66-2.93l2.442-.996q.488 1.27 1.113 2.051.625.761 1.621 1.113 1.016.351 2.598.351 2.05 0 3.339-.683 1.29-.684 1.289-2.637 0-1.016-.214-1.601-.197-.606-.801-.957-.586-.353-1.738-.645a86 86 0 0 0-3.008-.703q-2.032-.47-3.379-1.035-1.329-.567-1.992-1.641-.645-1.093-.645-3.066 0-2.696 2.051-4.121 2.05-1.426 5.351-1.426 2.618 0 4.297.859 1.68.86 2.735 3.067l-.313.175q-.312.176-.742.411-.41.215-.723.41l-.312.176q-.722-1.505-1.817-2.129-1.074-.625-2.988-.625-2.48 0-3.457.8-.976.802-.976 2.461 0 1.075.39 1.66.41.567 1.426.918 1.016.333 2.871.723 2.481.508 3.984 1.172t2.188 1.777q.703 1.114.703 3.008 0 2.93-1.836 4.473-1.816 1.543-5.957 1.543M747.422 446.312q-1.66 0-2.871-.624-1.212-.625-1.875-2.032-.645-1.425-.645-3.789v-11.582h-2.91v-2.265h2.91l.137-6.309 3.184-.859v7.168h4.375v2.265h-4.375v12.149q0 1.894.664 2.656.663.743 1.836.762.624 0 1.269-.157a10 10 0 0 0 1.309-.449l.547 2.168a7.5 7.5 0 0 1-1.641.625 7 7 0 0 1-1.914.273M326.823 809v-30.545h-10.832v-3.053h25.267v3.053h-10.419V809zM344.849 809v-33.827h3.925v13.953q1.193-1.974 3.121-3.029 1.95-1.056 4.681-1.056 2.778 0 4.384.964 1.629.94 2.409 2.501.804 1.538 1.033 3.397.23 1.836.229 3.603V809h-3.901v-13.838q0-3.534-1.01-5.439-.987-1.928-3.832-1.928-2.616 0-4.154 1.216-1.515 1.194-2.203 3.213-.666 1.997-.757 4.429V809zM380.454 809.551q-3.648 0-5.966-1.698-2.295-1.699-3.397-4.499-1.078-2.8-1.078-6.104 0-3.672 1.193-6.426t3.488-4.268q2.295-1.538 5.554-1.538 3.282 0 5.347 1.469 2.088 1.445 3.075 3.947 1.01 2.478 1.01 5.623 0 .091-.023.459 0 .344-.023.734 0 .367-.023.574h-15.697q.023 2.34.665 4.383.666 2.019 2.089 3.282t3.718 1.262q2.386 0 3.832-1.239a6.9 6.9 0 0 0 2.043-3.053l2.914.666q-.528 2.043-1.836 3.488a8.6 8.6 0 0 1-3.075 2.18q-1.79.735-3.81.758m-6.54-14.298h12.117q-.022-3.534-1.377-5.484-1.33-1.974-4.475-1.974-1.584 0-2.731.643a5.7 5.7 0 0 0-1.905 1.721 9 9 0 0 0-1.147 2.409q-.39 1.308-.482 2.685M394.763 809v-23.477h3.901v3.557q1.194-1.997 3.144-3.029 1.951-1.033 4.682-1.033 2.754 0 4.36.964 1.63.964 2.41 2.524.803 1.561 1.033 3.397t.229 3.603V809h-3.901v-13.815q0-3.558-.987-5.485t-3.833-1.928q-1.95 0-3.304.734a5.8 5.8 0 0 0-2.157 1.974q-.827 1.24-1.217 2.846a17 17 0 0 0-.459 3.396V809zM432.628 816.321q-.688 0-1.354-.092a9.5 9.5 0 0 1-1.354-.252l.436-3.167q.505.068.941.114t.826.046q1.331 0 2.249-.413.942-.39 1.63-1.446.71-1.055 1.354-3.029l.413-1.193-8.56-21.366h4.016l6.517 17.327 6.495-17.327h3.856l-8.377 21.526q-1.216 3.144-2.387 5.187-1.17 2.066-2.754 3.075-1.56 1.01-3.947 1.01M463.85 809.551q-4.704 0-7.527-3.098-2.8-3.121-2.8-9.18 0-6.035 2.8-9.134 2.823-3.121 7.527-3.121t7.505 3.121q2.799 3.099 2.799 9.134 0 6.058-2.799 9.18-2.8 3.098-7.505 3.098m0-2.777q2.571 0 3.924-1.4 1.378-1.4 1.882-3.58.528-2.204.528-4.521a19 19 0 0 0-.528-4.498q-.504-2.18-1.882-3.58-1.353-1.423-3.924-1.423-2.547 0-3.924 1.423-1.377 1.4-1.905 3.58a20 20 0 0 0-.505 4.498q0 2.317.505 4.521.528 2.18 1.905 3.58t3.924 1.4M487.774 809.551q-2.868 0-4.521-.987-1.652-1.01-2.455-2.639a11.2 11.2 0 0 1-1.01-3.511 34 34 0 0 1-.207-3.695v-13.196h3.902v13.724q0 2.455.436 4.153.436 1.676 1.537 2.525 1.102.849 3.098.849 2.64 0 4.131-1.354 1.515-1.354 2.135-3.58.642-2.25.642-4.842v-11.475h3.902V809h-3.902v-3.534q-1.147 1.974-3.052 3.029-1.882 1.056-4.636 1.056M521.279 809l-7.596-23.477h4.039l5.439 18.543 6.357-18.543h2.203l6.059 18.543 5.691-18.543h3.833L539.271 809h-3.373l-5.439-16.937L524.653 809zM551.285 809v-23.477h3.901V809zm-.253-28.273v-5.164h3.994v5.164zM561.531 809v-33.827h3.902V809zM572.237 809v-33.827h3.901V809zM593.349 809v-23.477h3.878v4.085q1.194-2.226 2.961-3.236 1.767-1.033 4.062-1.033v3.443q-2.502 0-4.039 1.124a6.5 6.5 0 0 0-2.249 2.938q-.688 1.813-.735 3.901L597.25 809zM618.535 809.551q-3.648 0-5.967-1.698-2.295-1.699-3.396-4.499-1.079-2.8-1.079-6.104 0-3.672 1.194-6.426t3.488-4.268q2.295-1.538 5.554-1.538 3.281 0 5.347 1.469 2.088 1.445 3.075 3.947 1.01 2.478 1.01 5.623 0 .091-.023.459 0 .344-.023.734 0 .367-.023.574h-15.697q.023 2.34.665 4.383.666 2.019 2.089 3.282 1.422 1.262 3.717 1.262 2.388 0 3.833-1.239a6.87 6.87 0 0 0 2.042-3.053l2.915.666q-.528 2.043-1.836 3.488a8.6 8.6 0 0 1-3.075 2.18q-1.79.735-3.81.758m-6.54-14.298h12.117q-.023-3.534-1.377-5.484-1.33-1.974-4.475-1.974-1.584 0-2.731.643a5.7 5.7 0 0 0-1.905 1.721 9 9 0 0 0-1.147 2.409q-.39 1.308-.482 2.685M638.994 809.574q-1.928 0-3.511-.643-1.584-.642-2.525-1.951-.94-1.33-.941-3.373 0-2.204.804-3.557.825-1.377 2.363-2.157 1.562-.804 3.741-1.263a90 90 0 0 1 4.888-.872l2.594-.39v-1.17q0-2.433-.414-3.81-.39-1.4-1.445-1.996-1.033-.597-3.007-.597-2.157 0-3.924.62-1.744.62-3.374 1.813l-.252-.345a60 60 0 0 0-.528-.826 17 17 0 0 0-.551-.803l-.229-.344a14.8 14.8 0 0 1 4.016-2.158q2.134-.734 5.026-.734 4.176 0 6.38 2.065 2.203 2.043 2.203 6.403V809h-3.351l-.344-2.938a8 8 0 0 1-3.167 2.617q-1.928.894-4.452.895m.62-2.754q2.088 0 3.74-.872 1.676-.873 3.053-2.525v-5.576l-2.984.505q-3.19.527-4.888 1.101-1.675.574-2.295 1.446-.597.872-.597 2.295 0 1.836.895 2.731t3.076.895M665.351 809.551q-3.099 0-5.279-1.492t-3.327-4.246q-1.125-2.753-1.125-6.517 0-4.062 1.217-6.793 1.239-2.731 3.442-4.108t5.118-1.377q2.249 0 3.924.941a8 8 0 0 1 2.8 2.593v-13.425h3.901v33.827h-3.029l-.184-3.764a8.1 8.1 0 0 1-2.845 3.167q-1.814 1.194-4.613 1.194m.642-2.777q2.18 0 3.557-1.125 1.4-1.124 2.066-3.281.688-2.181.688-5.325 0-3.396-.895-5.416-.872-2.042-2.386-2.937t-3.374-.895q-3.029 0-4.567 2.387-1.514 2.363-1.514 6.93 0 4.866 1.56 7.275 1.56 2.387 4.865 2.387M700.737 809.367q-1.95 0-3.373-.734-1.423-.735-2.203-2.387-.757-1.675-.757-4.452v-13.609h-3.42v-2.662h3.42l.16-7.413 3.741-1.009v8.422h5.14v2.662h-5.14v14.274q0 2.227.78 3.122.78.871 2.157.895.735 0 1.492-.184.78-.207 1.538-.528l.642 2.548q-.803.435-1.927.734-1.125.321-2.25.321M708.804 809v-33.827h3.924v13.953q1.194-1.974 3.121-3.029 1.951-1.056 4.682-1.056 2.776 0 4.383.964 1.629.94 2.41 2.501.802 1.538 1.032 3.397.23 1.836.23 3.603V809h-3.901v-13.838q0-3.534-1.01-5.439-.987-1.928-3.833-1.928-2.616 0-4.154 1.216-1.514 1.194-2.203 3.213-.665 1.997-.757 4.429V809zM734.954 809v-23.477h3.901V809zm-.253-28.273v-5.164h3.994v5.164zM752.475 809.551q-1.881 0-3.695-.528a7.74 7.74 0 0 1-3.167-1.767q-1.354-1.262-1.95-3.443l2.868-1.17q.575 1.492 1.308 2.41.735.894 1.905 1.308 1.194.413 3.052.413 2.41 0 3.925-.803t1.514-3.098q0-1.194-.252-1.882-.23-.712-.941-1.125-.689-.413-2.042-.757a99 99 0 0 0-3.535-.826q-2.386-.55-3.97-1.217-1.56-.665-2.341-1.927-.757-1.286-.757-3.603 0-3.168 2.41-4.843 2.409-1.675 6.288-1.675 3.075 0 5.049 1.01 1.973 1.01 3.213 3.603l-.368.206q-.366.207-.872.482-.482.253-.849.482l-.367.207q-.85-1.767-2.134-2.502-1.263-.734-3.512-.734-2.914 0-4.062.941-1.147.94-1.147 2.891 0 1.263.459 1.951.482.665 1.675 1.079 1.193.39 3.374.849 2.914.597 4.681 1.377t2.571 2.088q.826 1.308.826 3.534 0 3.442-2.157 5.256-2.134 1.813-7 1.813M142.193 582v-42.96h15.84V582zm-42.48-90h17.88l36.72 46.08h-8.52l36.72-46.08h17.88l-45.24 56.76-10.08.12zM228.008 583.68q-12.36 0-21.72-4.44-9.24-4.56-14.52-12.6-5.16-8.04-5.16-18.6 0-10.68 5.16-18.6 5.28-8.04 14.52-12.48 9.36-4.56 21.72-4.56t21.6 4.56q9.36 4.44 14.52 12.48 5.28 7.92 5.28 18.6 0 10.56-5.28 18.6-5.16 8.04-14.52 12.6-9.24 4.44-21.6 4.44m0-12.24q7.92 0 13.56-2.88 5.76-2.88 8.88-8.04 3.12-5.28 3.12-12.48t-3.12-12.36q-3.12-5.28-8.88-8.16-5.64-2.88-13.56-2.88-7.8 0-13.56 2.88t-8.88 8.16q-3.12 5.16-3.12 12.36t3.12 12.48q3.12 5.16 8.88 8.04t13.56 2.88M310.529 583.68q-9.36 0-15.96-3.84-6.48-3.84-9.96-11.04t-3.48-17.16v-37.56h15.6v35.16q0 10.56 4.8 16.08 4.92 5.4 14.04 5.4 6.6 0 11.28-2.88 4.8-2.88 7.44-8.16 2.64-5.4 2.64-12.48l5.4 3q-.96 10.44-5.28 18-4.32 7.44-11.16 11.52-6.84 3.96-15.36 3.96m30.36-1.68-3.96-24.48v-43.44h15.6v45.84l3.96 22.08zM487.019 573.96h-5.52l23.4-59.88h15.6L493.139 582h-15.96l-24-60.84h6.12l-24.6 60.84h-15.96l-27.24-67.92h15.84l23.52 59.88h-5.88l23.52-59.88h15.6zM530.174 513.6l7.8 1.44 7.8-1.44V582h-15.6zm7.8-8.52q-4.44 0-7.32-2.4-2.88-2.52-2.88-6.48t2.88-6.36q2.88-2.52 7.32-2.52 4.56 0 7.32 2.52 2.88 2.4 2.88 6.36t-2.88 6.48q-2.76 2.4-7.32 2.4M562.284 489.6h15.6V582h-15.6zM594.393 489.6h15.6V582h-15.6zM655.02 514.08h15.6l4.08 24.72V582h-15.6v-46.2zm54.12-.48v13.68q-2.64-.72-5.76-1.08t-5.88-.36q-6.6 0-11.76 2.88t-8.16 8.64q-2.88 5.64-2.88 13.92l-3.6-4.44q.48-7.2 2.4-13.44 2.04-6.36 5.52-11.04 3.6-4.68 8.76-7.32t12-2.64q2.4 0 4.92.36 2.52.24 4.44.84M753.348 583.68q-11.88 0-21.12-4.44-9.24-4.56-14.52-12.6t-5.28-18.72q0-10.56 4.92-18.48 5.04-8.04 13.8-12.48 8.88-4.56 20.28-4.56t19.68 5.16q8.4 5.04 12.96 14.28t4.56 21.72h-63.96v-11.88h56.16l-7.8 4.44q-.36-6.72-3.24-11.52-2.76-4.8-7.56-7.32-4.68-2.64-11.16-2.64-6.84 0-12 2.76-5.04 2.76-7.92 7.8-2.88 4.92-2.88 11.76 0 7.56 3.36 13.08 3.48 5.52 9.72 8.52 6.36 2.88 15 2.88 7.8 0 15.96-2.4 8.16-2.52 14.4-6.96v11.28q-6.24 4.8-15.24 7.56a60.7 60.7 0 0 1-18.12 2.76M864.823 582l-2.639-25.2 3.12-8.76-3.12-8.64 2.639-25.32h16.081l-3.6 33.96 3.6 33.96zm4.801-33.96q-2.28 10.68-7.56 18.72t-13.08 12.48q-7.68 4.44-17.16 4.44-9.96 0-17.64-4.44-7.68-4.56-12-12.6t-4.32-18.6q0-10.68 4.32-18.6 4.32-8.04 12-12.48 7.68-4.56 17.64-4.56 9.48 0 17.16 4.44 7.8 4.44 13.08 12.48 5.4 7.92 7.56 18.72m-55.921 0q0 6.84 2.761 12.12 2.88 5.16 7.799 8.16 4.92 2.88 11.281 2.88 6.48 0 12-2.88 5.52-3 9.72-8.16 4.32-5.28 6.84-12.12-2.52-6.84-6.84-12-4.2-5.28-9.72-8.16-5.52-3-12-3-6.36 0-11.281 3-4.92 2.88-7.799 8.16-2.76 5.16-2.761 12M959.517 582l-2.64-25.8 3.48-8.04-3.36-9.24 5.04-49.32h16.08l-6.12 57.48 3.48 34.92zm4.56-33.96q-2.28 10.68-7.56 18.72t-13.08 12.48q-7.68 4.44-17.16 4.44-9.96 0-17.64-4.44-7.68-4.56-12-12.6t-4.32-18.6q0-10.68 4.32-18.6 4.32-8.04 12-12.48 7.68-4.56 17.64-4.56 9.48 0 17.16 4.44 7.8 4.44 13.08 12.48 5.4 7.92 7.56 18.72m-55.92 0q0 6.84 2.76 12.12 2.88 5.16 7.8 8.16 4.92 2.88 11.28 2.88 6.48 0 12-2.88 5.52-3 9.72-8.16 4.32-5.28 6.84-12.12-2.52-6.84-6.84-12-4.2-5.28-9.72-8.16-5.52-3-12-3-6.36 0-11.28 3-4.92 2.88-7.8 8.16-2.76 5.16-2.76 12M235.678 658.08V651l14.52-3.72 6.48-18.96h9.12v17.76h31.56v12h-31.56v29.4q0 8.52 3.6 12 3.72 3.36 12 3.36 5.28 0 9.36-1.08 4.08-1.2 7.8-3.36v12.84q-3.12 1.56-8.88 3-5.64 1.44-11.64 1.44-9.96 0-16.08-3.24-6.12-3.36-9-9.12-2.76-5.88-2.76-13.44v-31.8zM309.921 621.6h15.6V714h-15.6zm42.6 22.8q9.6 0 16.32 3.84t10.2 11.04q3.6 7.08 3.6 17.16V714h-15.6v-35.04q0-10.68-5.04-16.08-4.92-5.52-14.52-5.52-6.6 0-11.64 3-4.92 2.88-7.68 8.16-2.64 5.28-2.64 12.36l-5.52-3q1.08-10.56 5.52-18t11.4-11.4q6.96-4.08 15.6-4.08M398.28 645.6l7.8 1.44 7.8-1.44V714h-15.6zm7.8-8.52q-4.44 0-7.32-2.4-2.88-2.52-2.88-6.48t2.88-6.36q2.88-2.52 7.32-2.52 4.56 0 7.32 2.52 2.88 2.4 2.88 6.36t-2.88 6.48q-2.76 2.4-7.32 2.4M500.709 693.36q0 6.84-3.84 11.88t-11.64 7.8q-7.8 2.64-19.56 2.64-12.12 0-21-3-8.88-3.12-13.8-8.64-4.8-5.64-5.16-12.96h15.84q.72 3.84 3.84 6.84 3.24 2.88 8.4 4.44 5.28 1.56 12 1.56 9.72 0 14.64-2.28 4.92-2.4 4.92-7.2 0-3.24-3.36-4.92-3.24-1.68-12.36-2.52l-13.32-1.2q-10.8-.96-17.04-3.84-6.24-3-8.88-7.2-2.64-4.32-2.64-9.12 0-6.96 4.32-11.64t12-7.08q7.68-2.52 17.88-2.52 10.56 0 18.84 3 8.28 2.88 13.2 8.16 4.92 5.16 5.52 12h-15.84q-.48-2.76-2.88-5.28-2.28-2.64-7.08-4.32-4.68-1.8-12.6-1.8-8.4 0-13.2 2.16-4.68 2.16-4.68 6.36 0 2.64 2.88 4.56 2.88 1.8 10.68 2.52l17.16 1.56q10.32.96 16.08 3.72 5.88 2.64 8.28 6.84t2.4 9.48M586.996 632.04q-8.28 0-12.36 3.36-3.96 3.36-3.96 11.4V714h-15.6v-65.28q0-8.64 3.24-15.12t9.84-10.08q6.72-3.6 17.16-3.6 4.68 0 8.4.84t7.08 2.16v12.24a24.4 24.4 0 0 0-6.48-2.4q-3.36-.72-7.32-.72m-46.44 30.72v-12h59.88v12zm72.48-17.16 7.8 1.44 7.8-1.44V714h-15.6zm7.8-8.52q-4.44 0-7.32-2.4-2.88-2.52-2.88-6.48t2.88-6.36q2.88-2.52 7.32-2.52 4.56 0 7.32 2.52 2.88 2.4 2.88 6.36t-2.88 6.48q-2.76 2.4-7.32 2.4M641.954 646.08h15.6l4.08 24.72V714h-15.6v-46.2zm54.12-.48v13.68q-2.64-.72-5.76-1.08t-5.88-.36q-6.6 0-11.76 2.88t-8.16 8.64q-2.88 5.64-2.88 13.92l-3.6-4.44q.48-7.2 2.4-13.44 2.04-6.36 5.52-11.04 3.6-4.68 8.76-7.32t12-2.64q2.4 0 4.92.36 2.52.24 4.44.84M774.576 693.36q0 6.84-3.839 11.88t-11.641 7.8q-7.8 2.64-19.56 2.64-12.118 0-21-3-8.88-3.12-13.799-8.64-4.8-5.64-5.161-12.96h15.841q.72 3.84 3.839 6.84 3.24 2.88 8.4 4.44 5.28 1.56 12 1.56 9.72 0 14.641-2.28 4.92-2.4 4.919-7.2 0-3.24-3.359-4.92-3.24-1.68-12.361-2.52l-13.319-1.2q-10.8-.96-17.041-3.84-6.24-3-8.88-7.2-2.64-4.32-2.64-9.12 0-6.96 4.32-11.64t12-7.08q7.68-2.52 17.88-2.52 10.56 0 18.84 3 8.28 2.88 13.201 8.16 4.92 5.16 5.519 12h-15.84q-.48-2.76-2.88-5.28-2.28-2.64-7.08-4.32-4.68-1.8-12.599-1.8-8.4 0-13.201 2.16-4.68 2.16-4.68 6.36 0 2.64 2.881 4.56 2.88 1.8 10.679 2.52l17.16 1.56q10.32.96 16.08 3.72 5.88 2.64 8.281 6.84 2.4 4.2 2.399 9.48M778.959 658.08V651l14.52-3.72 6.48-18.96h9.12v17.76h31.56v12h-31.56v29.4q0 8.52 3.6 12 3.72 3.36 12 3.36 5.28 0 9.36-1.08 4.08-1.2 7.8-3.36v12.84q-3.12 1.56-8.88 3-5.64 1.44-11.64 1.44-9.96 0-16.08-3.24-6.12-3.36-9-9.12-2.76-5.88-2.76-13.44v-31.8z"/></svg>