<svg xmlns="http://www.w3.org/2000/svg" width="1080" height="1350" fill="none"><path fill="#000" d="M332.227 445.117q-.157-.156-.157-.586 0-.546.157-.547.468 0 1.211-.195.742-.195 1.015-.547.43-.546.859-1.445a21 21 0 0 0 .977-2.227l6.797-17.461q.234-.585.273-.82.079-.234.118-.391.078-.195.273-.625.274-.547.547-.859.274-.312.898-.312l.352.117 7.812 20.625q.352.899.625 1.601.313.704.508 1.211.157.391.664.703.547.274 1.094.469.586.156.898.156.157 0 .157.743a.6.6 0 0 1-.039.195.6.6 0 0 1-.039.195 768 768 0 0 0-3.047-.117 28 28 0 0 0-1.25-.078l-4.532.195q-.156-.156-.156-.625.039-.507.196-.508.468 0 1.171-.195t.821-.508q.039-.156.039-.312a1.3 1.3 0 0 0 .039-.313 7 7 0 0 0-.117-1.172q-.118-.703-.274-1.093l-1.758-4.844q-.117-.156-.234-.156a38 38 0 0 0-2.969-.118q-1.016 0-2.265.079-1.212.039-2.696.117l-.195.117-1.68 4.297q-.39.977-.547 1.64a6.4 6.4 0 0 0-.117 1.055q0 .547.313.781.351.274 1.133.469.78.156 1.132.156.118 0 .118.469.04.47-.04.664l-4.023-.195a12 12 0 0 0-2.148.039q-1.016.078-1.914.156m11.562-11.719q1.758 0 3.555-.117l.117-.195-3.164-8.633-3.359 8.711q0 .156.078.156 1.016.039 1.679.078zm15.508 11.719q-.156-.156-.156-.664 0-.469.156-.469.313 0 .859-.117a6 6 0 0 0 1.016-.312q.469-.196.508-.352.156-.546.195-1.25.078-.703.078-1.484v-7.383q0-1.485-.547-2.109a1.87 1.87 0 0 0-.937-.625 3.2 3.2 0 0 0-.938-.157q-.39-.039-.39-.117 0-.937.234-.976 2.07-.313 3.359-.547 1.29-.274 1.602-.352l.625-.156q.156-.039.195.312.039.352 0 .508-.078.547-.117.938a7 7 0 0 0-.039.625q0 .156.078.156.039 0 .117-.078.899-.938 2.422-1.758 1.562-.86 2.969-.859 2.734 0 3.828 1.953t1.094 6.328v3.555q0 1.132.078 1.992.078.859.234 1.484.079.156.547.352t1.016.312q.546.117.781.117.117 0 .156.469.039.47-.039.664l-4.179-.195-4.102.195q-.156-.156-.156-.664 0-.469.156-.469.313 0 .82-.117.508-.117.938-.312.43-.196.469-.352.156-.546.195-1.25.078-.703.078-1.484v-3.907q0-3.632-.938-4.96-.937-1.329-3.046-1.329-.82 0-1.641.469a5 5 0 0 0-1.367 1.016q-.547.585-.547 1.094v6.875q0 1.132.078 1.992.078.859.234 1.484.08.156.547.352.469.195 1.016.312t.781.117q.117 0 .156.469.039.47-.039.664l-4.179-.195zm33.555.117q-.235 0-.235-.664v-.468q0-.196-.156-.157-2.149 1.212-4.141 1.211-2.148 0-3.906-1.054a8.2 8.2 0 0 1-2.734-2.852 8.05 8.05 0 0 1-.977-3.906q0-1.875.703-3.594a10.9 10.9 0 0 1 1.953-3.047q1.25-1.366 2.813-2.109a7.16 7.16 0 0 1 3.242-.782q1.68 0 2.93.665.273 0 .273-.704v-4.218q0-1.329-.234-2.5-.156-.625-1.992-.625h-.352q-.234 0-.234-.43 0-.625.234-.625 2.187-.195 3.438-.586 1.289-.39 1.835-.781l.157-.117h.078q.156 0 .312.234.157.195.196.391-.43 1.289-.43 3.398v17.578q0 1.836.234 2.969.118.39.664.508.587.078 1.211.156l.352.039q.117.039.117.469 0 .585-.234.586-1.29.078-2.657.429-1.366.313-2.109.508zm-3.047-1.992q1.327 0 2.07-.586.742-.624.742-1.64v-9.297q0-.82-.898-1.524-.86-.742-2.813-.742-1.484 0-2.578.938t-1.68 2.5q-.585 1.523-.586 3.32 0 1.875.665 3.477.702 1.601 1.992 2.578 1.289.976 3.086.976m22.461 10.625q-.82 0-1.211-.508t-.391-1.015q0-.82.547-1.25 3.242 0 4.297-3.36l.469-1.406q.273-.82.429-1.328l-5.586-13.672a5.4 5.4 0 0 0-.39-.781 2.5 2.5 0 0 0-.391-.547q-.351-.351-1.094-.586-.702-.234-1.133-.234-.156 0-.156-.508 0-.47.156-.625a52 52 0 0 1 2.071.117q1.054.039 2.148.039 1.25 0 2.149-.039a49 49 0 0 1 1.64-.117q.078.313.078.586 0 .546-.156.547-.156 0-.586.117a5 5 0 0 0-.781.312q-.39.157-.469.391v.078q0 .664 4.18 10.195l2.969-8.554q.273-.782.273-1.211 0-.586-.625-.938-.586-.39-1.601-.39-.157 0-.157-.508 0-.47.157-.625l1.523.117q1.015.078 1.953.078.86 0 1.875-.078l1.524-.117q.078.313.078.586 0 .546-.157.547-.507 0-1.367.351-.859.352-1.172 1.133l-6.992 18.867q-.898 2.423-2.031 3.36-1.133.976-2.07.976m23.046-8.594q-2.343 0-4.296-1.171a8.9 8.9 0 0 1-3.125-3.164q-1.133-1.993-1.133-4.376 0-2.421 1.094-4.374a8.43 8.43 0 0 1 3.046-3.086q1.915-1.172 4.336-1.172 2.344 0 4.258 1.172a8.65 8.65 0 0 1 3.086 3.125q1.172 1.953 1.172 4.335 0 2.383-1.133 4.376a8.7 8.7 0 0 1-3.047 3.164q-1.875 1.171-4.258 1.171m.352-1.523q1.407 0 2.461-.898 1.054-.899 1.641-2.422.624-1.524.625-3.321 0-2.109-.782-3.828-.78-1.758-2.07-2.773-1.25-1.055-2.734-1.055-1.368 0-2.461.899-1.055.859-1.641 2.343-.586 1.446-.586 3.282 0 2.109.742 3.906.781 1.758 2.032 2.812 1.288 1.055 2.773 1.055m23.906 1.562q-.312 0-.312-.624v-1.993q0-.195-.078-.195-2.579 2.773-5.118 2.773-1.835 0-2.929-1.054-1.055-1.094-1.524-2.735a14 14 0 0 1-.429-3.476v-4.922q0-1.485-.547-2.109a1.87 1.87 0 0 0-.938-.625 3.2 3.2 0 0 0-.937-.157q-.391-.039-.391-.117 0-.937.235-.976 2.07-.313 3.32-.547 1.289-.274 1.484-.313l.782-.195q.156-.039.195.312.039.352 0 .508-.234 1.875-.235 2.891v5.273q0 3.008.899 4.453.898 1.407 2.93 1.407.78 0 1.523-.43.782-.43 1.25-1.016.508-.625.508-1.054v-7.305q0-1.485-.547-2.109a1.87 1.87 0 0 0-.938-.625 4.6 4.6 0 0 0-.937-.196q-.39-.039-.391-.078 0-.937.235-.976a87 87 0 0 0 3.086-.508 29 29 0 0 0 1.679-.352l.821-.195q.156-.039.195.312.039.352 0 .508-.234 1.875-.234 2.813v7.812q0 1.758.273 2.969.117.39.625.508.508.078 1.172.156l.508.039q.117.039.117.43 0 .117-.117.39-.078.235-.196.235-1.171.078-2.578.429-1.406.313-2.109.586zm24.727.118q-.43 0-.469-.157-.468-1.055-1.016-2.304l-1.093-2.774a189 189 0 0 0-2.266-5.273 57 57 0 0 0-2.461-4.883q-.507-.86-2.109-.859-.156 0-.156-.508 0-.47.156-.625a28 28 0 0 1 1.836.156q1.016.078 2.031.039l3.906-.195q.078.156.039.664 0 .468-.117.469-1.953 0-1.953.898 0 .273 1.289 2.93 1.289 2.618 3.359 7.304a2815 2815 0 0 0 2.149-6.093q.82-2.227.82-2.539 0-.196-.234-.664-.196-.469-.508-1.055a1.5 1.5 0 0 0-.859-.625 4.1 4.1 0 0 0-1.133-.156q-.156 0-.156-.508 0-.47.156-.625a56 56 0 0 1 1.797.117 26 26 0 0 0 1.992.078q1.25 0 2.187-.078a80 80 0 0 1 1.641-.117q.078.313.078.664 0 .39-.117.469-1.875 0-1.875 1.523 0 .782 4.297 9.609a125 125 0 0 1 1.523-4.453q.743-2.07 1.211-3.437.47-1.407.469-1.875 0-1.368-2.578-1.367h-.156q-.157 0-.157-.508 0-.47.157-.625.858.039 1.875.117 1.015.078 2.07.078.938 0 1.797-.078a46 46 0 0 1 1.679-.117q.08.313.079.586 0 .546-.196.547-.507 0-1.367.351-.859.313-1.133 1.055l-5.117 13.984q-.273.86-1.094.86-.429 0-.468-.157l-4.805-11.484-3.945 10.781q-.118.274-.43.547-.274.313-.625.313m20.156-.313q-.156-.156-.156-.664 0-.469.156-.469.313 0 .859-.117a6 6 0 0 0 1.016-.312q.47-.196.508-.352.156-.546.195-1.25.078-.703.078-1.484v-7.383q0-1.485-.547-2.109-.39-.508-.937-.625a3.5 3.5 0 0 0-.937-.157q-.391-.039-.391-.117 0-.937.234-.976 2.07-.313 3.164-.508 1.094-.235 1.953-.43l.469-.117q.156-.039.195.312.04.352 0 .508-.078.782-.156 1.485-.039.702-.039 1.328v8.047q0 1.132.078 1.992.078.859.235 1.484.078.156.547.352t1.015.312q.547.117.781.117.118 0 .157.469.039.47-.039.664l-4.18-.195zm3.867-21.328q-.781 0-1.367-.586t-.586-1.367q0-.82.586-1.367.586-.586 1.367-.586.82 0 1.368.586.585.546.585 1.367 0 .781-.585 1.367a1.8 1.8 0 0 1-1.368.586m6.485 21.328q-.157-.156-.157-.664 0-.469.157-.469.312 0 .859-.117a6 6 0 0 0 1.016-.312q.468-.196.508-.352.156-.546.195-1.25.078-.703.078-1.484v-16.914q0-1.329-.234-2.5-.157-.625-1.993-.625h-.351q-.235 0-.235-.43 0-.625.235-.625 2.343-.274 3.476-.625t1.563-.625l.39-.234h.079q.156 0 .312.234.156.195.195.391-.429 1.289-.429 3.398v17.813q0 1.132.078 1.992.078.859.234 1.484.078.156.547.352t1.016.312q.547.117.781.117.117 0 .156.469.039.47-.039.664l-4.18-.195zm9.804 0q-.156-.156-.156-.664 0-.469.156-.469.313 0 .86-.117a6 6 0 0 0 1.015-.312q.47-.196.508-.352a5.8 5.8 0 0 0 .196-1.25q.078-.703.078-1.484v-16.914q0-1.329-.235-2.5-.156-.625-1.992-.625h-.351q-.235 0-.235-.43 0-.625.235-.625 2.343-.274 3.476-.625 1.132-.351 1.563-.625l.39-.234h.078q.156 0 .313.234.156.195.195.391-.43 1.289-.43 3.398v17.813q0 1.132.079 1.992.078.859.234 1.484.078.156.547.352.468.195 1.015.312t.782.117q.117 0 .156.469.039.47-.039.664l-4.18-.195zm19.453 0q-.156-.156-.156-.664 0-.469.156-.469.313 0 .86-.117a6 6 0 0 0 1.016-.312q.468-.196.507-.352.156-.546.196-1.25.078-.703.078-1.484v-7.383q0-1.485-.547-2.109a1.87 1.87 0 0 0-.938-.625 3.2 3.2 0 0 0-.937-.157q-.391-.039-.391-.117 0-.937.235-.976 4.258-.665 4.921-.86l.665-.195q.156-.039.195.312.039.352 0 .508l-.234 1.953q.702-1.054 1.914-1.953 1.25-.937 2.46-.937 2.267 0 3.047 1.132 0 1.368-.429 1.993-.43.624-1.055.625-.703 0-1.289-.664t-1.602-.664q-.78 0-1.484.546a3.8 3.8 0 0 0-1.133 1.329q-.39.78-.39 1.64v5.86q0 1.132.078 1.992.078.859.234 1.484.078.156.547.352.468.195 1.016.312.585.117.82.117.117 0 .156.469.039.47-.039.664l-4.219-.195zm22.735.117a7.25 7.25 0 0 1-3.945-1.132 8.65 8.65 0 0 1-2.891-3.008q-1.055-1.915-1.055-4.258 0-2.734 1.016-4.727 1.015-1.991 2.773-3.047 1.758-1.093 3.946-1.093 1.796 0 3.164.703 1.366.664 2.109 1.719a8.1 8.1 0 0 1 1.016 2.226q.351 1.094.351 2.188 0 .781-.234.976-.234.156-.899.157h-9.843q-.313 0-.313.195a7.85 7.85 0 0 0 .664 3.164 6.24 6.24 0 0 0 1.953 2.461q1.29.976 3.164.976 1.641 0 2.735-.468 1.133-.508 1.64-.899l.274-.195q.234 0 .234.508 0 .273-.234.703-.781 1.093-2.305 1.992a6.64 6.64 0 0 1-3.32.859m-4.492-10.937h7.617q.195 0 .195-.391 0-.86-.469-1.875a4.8 4.8 0 0 0-1.328-1.836q-.899-.781-2.265-.781-1.25 0-2.149.859a5.5 5.5 0 0 0-1.367 1.915q-.468 1.055-.469 1.835 0 .274.235.274m17.617 10.976q-1.797 0-2.969-.937-1.172-.977-1.172-2.891 0-2.343 3.047-3.906a17 17 0 0 1 2.617-1.055q1.328-.39 2.657-.898.351-.117.351-.586v-2.93q0-1.25-.781-1.914-.781-.702-1.875-.703-1.171 0-1.953.82-.782.781-.782 2.071 0 1.367-1.601 1.367-1.133 0-1.523-.742 0-.82.664-1.68.702-.899 1.796-1.641a10.8 10.8 0 0 1 2.383-1.21 7.8 7.8 0 0 1 2.617-.469q2.149 0 3.086 1.054.938 1.016.938 3.321v9.023q0 .82.43 1.367t1.171.547q.509 0 1.368-.547.156 0 .156.313 0 .508-.195.82-1.602 1.368-2.735 1.367-.899 0-1.719-.742t-1.132-1.562q-.196.156-.508.429-.274.235-.469.391-.82.625-1.797 1.094a4.9 4.9 0 0 1-2.07.429m1.484-2.226q1.094 0 2.071-.625.976-.626.976-1.328v-4.024q-1.015.391-1.953.703-.899.313-1.445.508-.704.274-1.367.977-.626.703-.626 1.601 0 1.173.704 1.68a2.84 2.84 0 0 0 1.64.508m23.008 2.187q-.234 0-.234-.664v-.468q0-.196-.157-.157-2.148 1.212-4.14 1.211-2.149 0-3.906-1.054a8.2 8.2 0 0 1-2.735-2.852 8.05 8.05 0 0 1-.976-3.906q0-1.875.703-3.594a10.9 10.9 0 0 1 1.953-3.047q1.25-1.366 2.812-2.109a7.2 7.2 0 0 1 3.243-.782q1.679 0 2.929.665.274 0 .274-.704v-4.218q0-1.329-.235-2.5-.156-.625-1.992-.625h-.351q-.235 0-.235-.43 0-.625.235-.625 2.187-.195 3.437-.586 1.288-.39 1.836-.781l.156-.117h.078q.157 0 .313.234.156.195.195.391-.429 1.289-.429 3.398v17.578q0 1.836.234 2.969.117.39.664.508.586.078 1.211.156l.351.039q.118.039.118.469 0 .585-.235.586-1.289.078-2.656.429-1.367.313-2.109.508zm-3.047-1.992q1.329 0 2.071-.586.742-.624.742-1.64v-9.297q0-.82-.899-1.524-.86-.742-2.812-.742-1.485 0-2.578.938-1.094.937-1.68 2.5-.586 1.523-.586 3.32 0 1.875.664 3.477.704 1.601 1.992 2.578 1.29.976 3.086.976m25.469 2.031q-1.953 0-3.281-1.289-1.29-1.288-1.289-3.672v-9.921H620q-.195 0-.195-.821 0-.234.039-.273 1.171-.548 2.461-2.07.898-1.056 1.328-1.836.468-.782.469-.938 1.171 0 1.171.195v3.868l3.086.039h2.188q.312 0 .312.351 0 .743-.39 1.485h-5.196v9.57q0 1.563.782 2.5.82.937 2.109.937 1.211 0 2.422-.742.117-.078.352.352.234.39.195.43-.587.624-1.797 1.25a5.7 5.7 0 0 1-2.5.585m5.43-.156q-.157-.156-.157-.664 0-.469.157-.469.312 0 .859-.117a6 6 0 0 0 1.016-.312q.468-.196.507-.352.274-1.054.274-2.695v-16.953q0-1.329-.234-2.5-.157-.625-1.993-.625h-.351q-.234 0-.235-.43 0-.625.235-.625 1.992-.195 3.359-.625 1.368-.469 1.875-.742l.195-.117h.079q.156 0 .312.234.156.195.195.391-.429 1.289-.429 3.398v8.555q0 .156.078.156.039 0 .117-.078.586-.625 1.484-1.211a9.6 9.6 0 0 1 1.993-1.016q1.054-.429 1.992-.429 2.618 0 3.75 1.875t1.133 5.781v4.219q0 1.094.078 1.953t.234 1.484q.078.156.547.352.468.195 1.016.312.547.117.781.117.117 0 .156.469.039.47-.039.664l-4.18-.195-4.101.195q-.157-.156-.157-.664 0-.469.157-.469.312 0 .82-.117t.938-.312q.429-.196.468-.352.156-.546.196-1.25.078-.703.078-1.484v-4.141q0-2.421-.43-3.711-.43-1.327-1.328-1.836-.898-.507-2.305-.508-.781 0-1.601.469a5.3 5.3 0 0 0-1.328 1.016q-.547.586-.547 1.054v6.915q0 1.132.078 1.992.078.859.234 1.484.079.156.547.352t1.016.312q.547.117.781.117.117 0 .156.469.039.47-.039.664l-4.18-.195zm21.25 0q-.157-.156-.157-.664 0-.469.157-.469.312 0 .859-.117a6 6 0 0 0 1.016-.312q.468-.196.507-.352a5.7 5.7 0 0 0 .196-1.25q.078-.703.078-1.484v-7.383q0-1.485-.547-2.109-.39-.508-.937-.625a3.5 3.5 0 0 0-.938-.157q-.39-.039-.391-.117 0-.937.235-.976 2.07-.313 3.164-.508 1.094-.235 1.953-.43l.469-.117q.156-.039.195.312.039.352 0 .508-.078.782-.156 1.485-.039.702-.039 1.328v8.047q0 1.132.078 1.992.078.859.234 1.484.079.156.547.352t1.016.312q.547.117.781.117.117 0 .156.469.039.47-.039.664l-4.18-.195zm3.867-21.328q-.782 0-1.367-.586-.586-.586-.586-1.367 0-.82.586-1.367.585-.586 1.367-.586.82 0 1.367.586.586.546.586 1.367 0 .781-.586 1.367-.547.586-1.367.586m12.578 21.641q-1.211 0-2.188-.274-.976-.273-2.382-.468a9 9 0 0 1-.313-1.172 24 24 0 0 1-.273-1.563 15 15 0 0 1-.078-1.328q.312-.234.468-.234.586 0 .625.234.156.782.782 1.563.624.78 1.523 1.328.899.507 1.836.507 1.25 0 2.031-.664.82-.702.82-1.992 0-1.367-1.054-2.265-.82-.665-1.406-.938-.548-.312-1.094-.547a32 32 0 0 1-1.289-.742q-3.047-1.758-3.047-4.18 0-1.405.781-2.461a5.06 5.06 0 0 1 2.07-1.679 6.52 6.52 0 0 1 3.789-.547q.548.039 1.211.117.665.117 1.094.195t.703.118q.43 1.796.469 3.984 0 .195-.508.195-.546 0-.586-.273-.194-1.094-1.133-2.071-.898-.976-2.07-.976-2.812 0-2.812 2.305 0 .586.117 1.054.156.43.664.821a25 25 0 0 0 2.851 1.875q1.68.937 2.774 1.757 1.641 1.25 1.641 2.93 0 1.524-.821 2.773a5.8 5.8 0 0 1-2.187 1.915q-1.368.703-3.008.703m16.875-.313q-.156-.156-.156-.664 0-.469.156-.469.313 0 .859-.117a6 6 0 0 0 1.016-.312q.468-.196.508-.352.156-.546.195-1.25.078-.703.078-1.484v-16.914q0-1.329-.234-2.5-.156-.625-1.992-.625h-.352q-.234 0-.234-.43 0-.625.234-.625 2.344-.274 3.477-.625t1.562-.625l.391-.234h.078q.156 0 .312.234.157.195.196.391-.43 1.289-.43 3.398v17.813q0 1.132.078 1.992.078.859.234 1.484.08.156.547.352.469.195 1.016.312t.781.117q.117 0 .156.469.04.47-.039.664l-4.179-.195zm14.726.156q-1.796 0-2.968-.937-1.173-.977-1.172-2.891 0-2.343 3.047-3.906a16.7 16.7 0 0 1 2.617-1.055q1.328-.39 2.656-.898.352-.117.352-.586v-2.93q0-1.25-.782-1.914-.78-.702-1.874-.703-1.173 0-1.954.82-.78.781-.781 2.071 0 1.367-1.601 1.367-1.133 0-1.524-.742 0-.82.664-1.68.703-.899 1.797-1.641a10.8 10.8 0 0 1 2.383-1.21 7.8 7.8 0 0 1 2.617-.469q2.148 0 3.086 1.054.937 1.016.937 3.321v9.023q0 .82.43 1.367t1.172.547q.508 0 1.367-.547.156 0 .157.313 0 .508-.196.82-1.602 1.368-2.734 1.367-.899 0-1.719-.742t-1.133-1.562q-.195.156-.508.429-.273.235-.468.391-.82.625-1.797 1.094a4.9 4.9 0 0 1-2.071.429m1.485-2.226q1.094 0 2.07-.625.977-.626.977-1.328v-4.024q-1.015.391-1.953.703-.899.313-1.446.508-.702.274-1.367.977-.625.703-.625 1.601 0 1.173.703 1.68a2.84 2.84 0 0 0 1.641.508m16.211 2.383q-1.211 0-2.188-.274-.976-.273-2.382-.468a9 9 0 0 1-.313-1.172 24 24 0 0 1-.273-1.563 14 14 0 0 1-.079-1.328q.313-.234.469-.234.586 0 .625.234.157.782.781 1.563.625.78 1.524 1.328.899.507 1.836.507 1.25 0 2.031-.664.82-.702.82-1.992 0-1.367-1.054-2.265-.82-.665-1.407-.938a11 11 0 0 0-1.093-.547 31 31 0 0 1-1.289-.742q-3.048-1.758-3.047-4.18 0-1.405.781-2.461a5.06 5.06 0 0 1 2.07-1.679 6.52 6.52 0 0 1 3.789-.547q.548.039 1.211.117.665.117 1.094.195t.703.118q.43 1.796.469 3.984 0 .195-.508.195-.546 0-.586-.273-.195-1.094-1.133-2.071-.899-.976-2.07-.976-2.812 0-2.812 2.305 0 .586.117 1.054.156.43.664.821a25 25 0 0 0 2.851 1.875q1.68.937 2.774 1.757 1.64 1.25 1.64 2.93 0 1.524-.82 2.773a5.8 5.8 0 0 1-2.187 1.915q-1.367.703-3.008.703m14.883-.157q-1.953 0-3.282-1.289-1.289-1.288-1.289-3.672v-9.921h-2.265q-.196 0-.196-.821 0-.234.039-.273 1.173-.548 2.461-2.07.899-1.056 1.329-1.836.468-.782.468-.938 1.173 0 1.172.195v3.868l3.086.039h2.188q.312 0 .312.351 0 .743-.391 1.485h-5.195v9.57q0 1.563.781 2.5.82.937 2.11.937 1.21 0 2.422-.742.117-.078.351.352.234.39.196.43-.587.624-1.797 1.25a5.7 5.7 0 0 1-2.5.585M105.28 577v-27.96L85.48 499h8.88l15.12 40.2L124.6 499h8.88l-19.8 50.16V577zm82.224-15q0 7.8-5.04 12.36-4.92 4.44-15.24 4.44t-15.48-4.44q-5.04-4.56-5.04-12.36v-48q0-7.8 4.92-12.24 5.04-4.56 15.36-4.56t15.36 4.56q5.16 4.44 5.16 12.24zm-8.4-48q0-4.56-3-7.08t-9.12-2.52q-6 0-9 2.52-2.88 2.52-2.88 7.08v48q0 4.44 3 7.08 3 2.52 9.12 2.52 6 0 8.88-2.52 3-2.64 3-7.08zm29.372-15h8.4v63q0 4.08 1.8 6.84t7.32 2.76q3.84 0 7.08-1.92 3.24-2.04 5.16-4.8 2.04-2.88 2.04-5.28V499h8.4v78h-3.6l-3.12-7.68q-2.52 4.08-6.72 6.84-4.08 2.64-9.12 2.64-6.48 0-10.44-2.16-3.84-2.28-5.52-6.12t-1.68-8.52zm121.303 0h8.4v63q0 4.44 2.76 7.08 2.76 2.52 8.28 2.52 5.64 0 8.4-2.52 2.76-2.64 2.76-7.08v-63h8.4v63q0 7.8-5.04 12.36-4.92 4.44-14.52 4.44-5.52 0-9.24-1.92t-6-5.04q-2.16 3.24-6 5.16-3.84 1.8-9.24 1.8-9.6 0-14.64-4.44-4.92-4.56-4.92-12.36v-63h8.4v63q0 4.44 2.76 7.08 2.88 2.52 8.4 2.52 5.64 0 8.28-2.52 2.76-2.64 2.76-7.08zm61.772 78v-78h8.4v78zm32.344-78h8.4v70.8h21.96v7.2h-30.36zm44.765 0h8.4v70.8h21.96v7.2h-30.36zm72.422 78v-78h3.6l3.48 8.88q1.68-4.56 4.56-7.56 2.88-3.12 7.68-3.12 6.96 0 10.56 3.96 3.72 3.84 3.72 11.64v7.8h-8.04v-8.28q0-3.48-1.56-5.64-1.56-2.28-5.04-2.28-2.28 0-4.8 1.8-2.4 1.8-4.08 5.76-1.68 3.84-1.68 10.2V577zm77.447-21.6h8.4v6.6q0 7.8-4.8 12.36-4.8 4.44-14.88 4.44t-15-4.44q-4.92-4.56-4.92-12.36v-48q0-7.8 4.8-12.24 4.8-4.56 14.88-4.56t15 4.56q4.92 4.44 4.92 12.24v26.4h-31.2V562q0 4.44 2.76 7.08 2.88 2.52 8.76 2.52 5.76 0 8.52-2.52 2.76-2.64 2.76-7.08zm-22.8-22.2h22.8V514q0-4.56-2.88-7.08-2.76-2.52-8.64-2.52-5.76 0-8.52 2.52t-2.76 7.08zm87 43.8-3.12-7.68q-2.4 4.2-6.48 6.84t-9.12 2.64q-6.36 0-10.2-2.16-3.84-2.28-5.52-6.12-1.56-3.84-1.56-8.52v-12q0-4.8 1.56-8.52 1.68-3.84 5.52-6 3.84-2.28 10.2-2.28h13.92v-19.68q0-4.2-2.76-6.6-2.64-2.52-8.16-2.52-5.4 0-8.04 2.52-2.64 2.4-2.64 6.6v7.08h-8.4V514q0-7.92 4.68-12.36t14.4-4.44 14.52 4.44 4.8 12.36v63zm-4.8-36.6h-13.92q-5.4 0-7.2 2.76-1.68 2.76-1.68 6.84v12q0 4.08 1.68 6.84 1.8 2.76 7.2 2.76 3.6 0 6.6-1.92 3.12-1.92 5.16-4.56 2.04-2.76 2.16-5.16zm31.2 36.6v-78h19.32q9.6 0 14.28 4.56 4.8 4.44 4.8 12.24v44.4q0 7.8-4.68 12.36-4.68 4.44-14.4 4.44zm30-61.2q0-4.44-2.76-6.96-2.64-2.64-7.92-2.64h-10.92v63.6h10.92q5.4 0 8.04-2.52 2.64-2.64 2.64-7.08zm83.442-16.8v7.2h-18v57.48q0 3.24 1.68 5.64 1.68 2.28 5.04 2.28 3.24 0 4.8-2.28 1.68-2.4 1.68-5.64V549.4h8.4v13.8q0 7.8-4.2 11.76-4.08 3.84-10.68 3.84t-10.92-3.84q-4.2-3.96-4.2-11.76V499zm20.386 78v-78h8.4v34.8h23.64V499h8.4v78h-8.4v-36h-23.64v36zm64.453 0v-78h8.4v78zm64.384-31.32q3.6 3.84 4.8 7.44 1.32 3.6 1.32 8.88 0 7.8-4.8 12.36-4.8 4.44-15.48 4.44-10.56 0-15.48-4.44-4.8-4.56-4.8-12.36v-10.2h8.4v10.68q0 4.08 2.88 6.6 3 2.52 9 2.52t8.88-2.52q3-2.52 3-6.6 0-3.72-.84-6.24-.72-2.52-3.72-5.4l-21.12-20.64q-3.72-3.84-5.16-7.44-1.32-3.6-1.32-8.76 0-7.8 4.92-12.24 4.92-4.56 15.12-4.56 10.08 0 14.64 4.56 4.68 4.44 4.68 12.24v10.2h-8.4v-10.68q0-4.2-2.76-6.6-2.76-2.52-8.52-2.52t-8.52 2.52q-2.76 2.4-2.76 6.6 0 3.72.72 6.24.84 2.52 3.84 5.28zM429.227 709v-78h33v7.2h-24.6v27.6h19.8v7.2h-19.8v36zm49.8 0v-78h8.4v78zm32.348 0v-78h3.6l3.48 8.88q1.68-4.56 4.56-7.56 2.88-3.12 7.68-3.12 6.96 0 10.56 3.96 3.72 3.84 3.72 11.64v7.8h-8.04v-8.28q0-3.48-1.56-5.64-1.56-2.28-5.04-2.28-2.28 0-4.8 1.8-2.4 1.8-4.08 5.76-1.68 3.84-1.68 10.2V709zm80.087-31.32q3.6 3.84 4.8 7.44 1.32 3.6 1.32 8.88 0 7.8-4.8 12.36-4.8 4.44-15.48 4.44-10.56 0-15.48-4.44-4.8-4.56-4.8-12.36v-10.2h8.4v10.68q0 4.08 2.88 6.6 3 2.52 9 2.52t8.88-2.52q3-2.52 3-6.6 0-3.72-.84-6.24-.72-2.52-3.72-5.4l-21.12-20.64q-3.72-3.84-5.16-7.44-1.32-3.6-1.32-8.76 0-7.8 4.92-12.24 4.92-4.56 15.12-4.56 10.08 0 14.64 4.56 4.68 4.44 4.68 12.24v10.2h-8.4v-10.68q0-4.2-2.76-6.6-2.76-2.52-8.52-2.52t-8.52 2.52q-2.76 2.4-2.76 6.6 0 3.72.72 6.24.84 2.52 3.84 5.28zM644.388 631v7.2h-18v57.48q0 3.24 1.68 5.64 1.68 2.28 5.04 2.28 3.24 0 4.8-2.28 1.68-2.4 1.68-5.64V681.4h8.4v13.8q0 7.8-4.2 11.76-4.08 3.84-10.68 3.84t-10.92-3.84q-4.2-3.96-4.2-11.76V631zM327.156 808.141q-.187-.188-.187-.703 0-.657.187-.657.422 0 1.125-.093a8 8 0 0 0 1.313-.376q.609-.234.703-.468.188-.656.234-1.688.094-1.03.094-2.484v-16.969q0-4.078-.422-4.828-.328-.703-5.062-.703-1.782 0-2.766.328a2.46 2.46 0 0 0-1.5 1.172q-.516.89-.984 2.672-.094.234-.469.234-.797 0-1.125-.328l.891-6.703q1.03.234 1.828.375.797.14 1.406.14 3.375 0 5.953.094t4.313.094q3.609 0 6.187-.094 2.625-.094 4.125-.094.61 0 1.406-.14a39 39 0 0 0 1.828-.375l.891 6.703q-.328.328-1.125.328-.375 0-.469-.234-.421-1.781-.984-2.672a2.46 2.46 0 0 0-1.5-1.172q-.984-.328-2.766-.328-4.922 0-5.156.703-.422 1.453-.422 4.687v16.922q0 2.72.422 4.36.094.187.703.422a8 8 0 0 0 1.313.375q.703.14.984.14.187 0 .187.703 0 .282-.093.657-2.344-.095-3.703-.141-1.36-.094-1.735-.094zm22.219 0q-.187-.188-.187-.797 0-.563.187-.563.375 0 1.031-.14a7 7 0 0 0 1.219-.375q.563-.235.609-.422.328-1.266.328-3.235v-20.343a15.2 15.2 0 0 0-.281-3q-.188-.75-2.39-.75h-.422q-.281 0-.281-.516 0-.75.281-.75 2.39-.234 4.031-.75 1.641-.562 2.25-.891l.234-.14h.094q.188 0 .375.281.187.234.235.469-.516 1.546-.516 4.078v10.265q0 .188.094.188.047 0 .14-.094.704-.75 1.782-1.453 1.125-.75 2.39-1.219 1.266-.515 2.391-.515 3.14 0 4.5 2.25t1.359 6.937v5.063q0 1.313.094 2.343.093 1.032.281 1.782.094.187.656.422t1.219.375.938.14q.14 0 .187.563t-.047.797l-5.015-.235-4.922.235q-.188-.188-.188-.797 0-.563.188-.563.375 0 .984-.14a6 6 0 0 0 1.125-.375q.515-.235.563-.422.187-.657.234-1.5.094-.844.094-1.782v-4.968q0-2.907-.516-4.453-.516-1.594-1.594-2.203-1.077-.61-2.765-.61-.938 0-1.922.563a6.3 6.3 0 0 0-1.594 1.218q-.656.704-.656 1.266v8.297q0 1.36.094 2.39.093 1.032.281 1.782.093.187.656.422a7 7 0 0 0 1.219.375q.656.14.937.14.141 0 .188.563.046.562-.047.797l-5.016-.235zm35.016.14a8.7 8.7 0 0 1-4.735-1.359 10.4 10.4 0 0 1-3.468-3.61q-1.266-2.296-1.266-5.109 0-3.28 1.219-5.672 1.218-2.39 3.328-3.656 2.109-1.313 4.734-1.313 2.156 0 3.797.844 1.641.798 2.531 2.063a9.7 9.7 0 0 1 1.219 2.672q.422 1.312.422 2.625 0 .937-.281 1.172-.281.187-1.079.187H379q-.375 0-.375.234 0 1.97.797 3.797a7.46 7.46 0 0 0 2.344 2.953q1.546 1.173 3.796 1.172 1.97 0 3.282-.562 1.359-.61 1.968-1.078l.329-.235q.28 0 .281.61 0 .328-.281.843-.938 1.313-2.766 2.391a7.97 7.97 0 0 1-3.984 1.031M379 795.156h9.141q.234 0 .234-.468 0-1.032-.563-2.25a5.8 5.8 0 0 0-1.593-2.204q-1.078-.937-2.719-.937-1.5 0-2.578 1.031a6.6 6.6 0 0 0-1.641 2.297q-.562 1.266-.562 2.203 0 .328.281.328m15.891 12.985q-.188-.188-.188-.797 0-.563.188-.563.375 0 1.031-.14a7 7 0 0 0 1.219-.375q.562-.235.609-.422.188-.657.234-1.5.094-.844.094-1.782v-8.859q0-1.78-.656-2.531a2.25 2.25 0 0 0-1.125-.75 3.9 3.9 0 0 0-1.125-.188q-.47-.047-.469-.14 0-1.125.281-1.172 2.485-.375 4.032-.656a83 83 0 0 0 1.922-.422l.75-.188q.187-.046.234.375.047.422 0 .61-.094.655-.141 1.125a8 8 0 0 0-.047.75q0 .187.094.187.046 0 .141-.094 1.078-1.125 2.906-2.109 1.875-1.031 3.563-1.031 3.28 0 4.593 2.343t1.313 7.594v4.266q0 1.36.094 2.39.093 1.032.281 1.782.093.187.656.422a7 7 0 0 0 1.219.375q.656.14.937.14.141 0 .188.563.046.562-.047.797l-5.016-.235-4.922.235q-.187-.188-.187-.797 0-.563.187-.563.375 0 .985-.14a6 6 0 0 0 1.125-.375q.516-.235.562-.422a7 7 0 0 0 .235-1.5q.093-.844.093-1.782v-4.687q0-4.36-1.125-5.953-1.125-1.594-3.656-1.594-.984 0-1.969.563a6 6 0 0 0-1.64 1.218q-.656.704-.656 1.313v8.25q0 1.36.093 2.39.095 1.032.281 1.782.094.187.657.422a7 7 0 0 0 1.219.375q.656.14.937.14.14 0 .187.563.048.562-.046.797l-5.016-.235zm40.265 10.5q-.984 0-1.453-.61-.469-.609-.469-1.219 0-.984.657-1.5 3.89 0 5.156-4.031l.562-1.687a74 74 0 0 0 .516-1.594l-6.703-16.406a6.5 6.5 0 0 0-.469-.938 3 3 0 0 0-.469-.656q-.421-.422-1.312-.703-.844-.281-1.36-.281-.187 0-.187-.61 0-.562.187-.75a63 63 0 0 1 2.485.141 70 70 0 0 0 2.578.047q1.5 0 2.578-.047a59 59 0 0 1 1.969-.141q.094.375.094.703 0 .657-.188.657-.187 0-.703.14a6 6 0 0 0-.937.375q-.469.187-.563.469v.094q0 .797 5.016 12.234l3.562-10.266q.328-.937.328-1.453 0-.702-.75-1.125-.703-.468-1.922-.468-.187 0-.187-.61 0-.562.187-.75l1.829.141a31 31 0 0 0 2.343.094q1.032 0 2.25-.094l1.828-.141q.094.375.094.703 0 .657-.187.657-.61 0-1.641.422-1.03.421-1.406 1.359l-8.391 22.641q-1.078 2.906-2.437 4.031-1.36 1.172-2.485 1.172m27.656-10.313q-2.811 0-5.156-1.406a10.66 10.66 0 0 1-3.75-3.797q-1.359-2.391-1.359-5.25 0-2.906 1.312-5.25a10.13 10.13 0 0 1 3.657-3.703q2.296-1.406 5.203-1.406 2.812 0 5.109 1.406a10.4 10.4 0 0 1 3.703 3.75q1.407 2.344 1.407 5.203t-1.36 5.25a10.4 10.4 0 0 1-3.656 3.797q-2.25 1.406-5.11 1.406m.422-1.828q1.688 0 2.954-1.078 1.265-1.079 1.968-2.906.75-1.828.75-3.985 0-2.531-.937-4.593-.937-2.11-2.485-3.329-1.5-1.265-3.281-1.265-1.64 0-2.953 1.078-1.266 1.031-1.969 2.812-.703 1.735-.703 3.938 0 2.531.891 4.687.937 2.11 2.437 3.375 1.548 1.266 3.328 1.266m28.688 1.875q-.375 0-.375-.75v-2.391q0-.234-.094-.234-3.093 3.328-6.141 3.328-2.202 0-3.515-1.266-1.266-1.311-1.828-3.281a16.8 16.8 0 0 1-.516-4.172v-5.906q0-1.78-.656-2.531a2.25 2.25 0 0 0-1.125-.75 3.9 3.9 0 0 0-1.125-.188q-.47-.047-.469-.14 0-1.125.281-1.172 2.485-.375 3.985-.656 1.547-.329 1.781-.375l.937-.235q.189-.046.235.375.047.422 0 .61-.281 2.25-.281 3.468v6.329q0 3.609 1.078 5.343 1.077 1.688 3.515 1.688.938 0 1.829-.516.936-.516 1.5-1.219.609-.75.609-1.265v-8.766q0-1.78-.656-2.531a2.25 2.25 0 0 0-1.125-.75 5.6 5.6 0 0 0-1.125-.234q-.47-.048-.469-.094 0-1.125.281-1.172 2.485-.375 3.703-.61a35 35 0 0 0 2.016-.421l.984-.235q.187-.046.235.375.046.422 0 .61-.282 2.25-.282 3.375v9.375q0 2.109.329 3.562.14.47.75.609.609.095 1.406.188l.609.047q.141.047.141.515 0 .14-.141.469-.094.281-.234.281-1.407.095-3.094.516-1.688.375-2.531.703zm29.672.141q-.516 0-.563-.188a578 578 0 0 1-1.219-2.766l-1.312-3.328a226 226 0 0 0-2.719-6.328 69 69 0 0 0-2.953-5.859q-.61-1.031-2.531-1.031-.188 0-.188-.61 0-.562.188-.75a34 34 0 0 1 2.203.188q1.218.093 2.438.047l4.687-.235q.094.188.047.797 0 .563-.141.563-2.343 0-2.343 1.078 0 .327 1.546 3.515 1.547 3.141 4.032 8.766 1.64-4.64 2.578-7.313.984-2.671.984-3.046 0-.235-.281-.797a15 15 0 0 0-.609-1.266 1.8 1.8 0 0 0-1.032-.75 5 5 0 0 0-1.359-.187q-.188 0-.188-.61 0-.562.188-.75.984.047 2.156.141 1.219.094 2.391.094 1.5 0 2.625-.094a98 98 0 0 1 1.969-.141q.093.375.093.797 0 .469-.14.563-2.25 0-2.25 1.828 0 .937 5.156 11.531a148 148 0 0 1 1.828-5.344 318 318 0 0 0 1.453-4.125q.563-1.687.563-2.25 0-1.64-3.094-1.64h-.188q-.187 0-.187-.61 0-.562.187-.75a73 73 0 0 1 2.25.141q1.22.094 2.485.094 1.125 0 2.156-.094a56 56 0 0 1 2.016-.141q.093.375.093.703 0 .657-.234.657-.609 0-1.641.422-1.03.375-1.359 1.265l-6.141 16.781q-.327 1.032-1.312 1.032-.515 0-.563-.188l-5.765-13.781-4.735 12.937q-.14.329-.515.657-.329.375-.75.375m24.187-.375q-.187-.188-.187-.797 0-.563.187-.563.375 0 1.031-.14a7 7 0 0 0 1.219-.375q.562-.235.61-.422.187-.657.234-1.5.094-.844.094-1.782v-8.859q0-1.78-.657-2.531-.468-.609-1.124-.75-.657-.188-1.126-.188-.468-.047-.468-.14 0-1.125.281-1.172 2.484-.375 3.797-.61 1.312-.28 2.344-.515l.562-.141q.188-.046.234.375.048.422 0 .61-.093.937-.187 1.781a29 29 0 0 0-.047 1.594v9.656q0 1.36.094 2.39.093 1.032.281 1.782.094.187.656.422t1.219.375.938.14q.14 0 .187.563t-.047.797l-5.015-.235zm4.641-25.594q-.937 0-1.641-.703-.703-.703-.703-1.641 0-.984.703-1.641.703-.702 1.641-.703.984 0 1.64.703.704.657.704 1.641 0 .938-.704 1.641-.656.702-1.64.703m7.781 25.594q-.187-.188-.187-.797 0-.563.187-.563.375 0 1.031-.14a7 7 0 0 0 1.219-.375q.563-.235.609-.422a6.8 6.8 0 0 0 .235-1.5q.094-.844.094-1.782v-20.296q0-1.595-.282-3-.187-.75-2.39-.75h-.422q-.281 0-.281-.516 0-.75.281-.75 2.812-.329 4.172-.75t1.875-.75l.468-.281h.094q.188 0 .375.281.187.234.235.469-.516 1.546-.516 4.078v21.375q0 1.36.094 2.39.093 1.032.281 1.782.094.187.656.422a7 7 0 0 0 1.219.375q.656.14.938.14.14 0 .187.563t-.047.797l-5.016-.235zm11.766 0q-.188-.188-.188-.797 0-.563.188-.563.375 0 1.031-.14a7 7 0 0 0 1.219-.375q.563-.235.609-.422.188-.657.234-1.5.094-.844.094-1.782v-20.296q0-1.595-.281-3-.187-.75-2.391-.75h-.422q-.28 0-.281-.516 0-.75.281-.75 2.813-.329 4.172-.75 1.36-.421 1.875-.75l.469-.281h.094q.188 0 .375.281.188.234.234.469-.515 1.546-.515 4.078v21.375q0 1.36.093 2.39.095 1.032.282 1.782.093.187.656.422a7 7 0 0 0 1.219.375q.656.14.937.14.14 0 .188.563.046.562-.047.797l-5.016-.235zm23.343 0q-.187-.188-.187-.797 0-.563.187-.563.375 0 1.032-.14a7 7 0 0 0 1.218-.375q.564-.235.61-.422.188-.657.234-1.5.094-.844.094-1.782v-8.859q0-1.78-.656-2.531a2.25 2.25 0 0 0-1.125-.75 3.9 3.9 0 0 0-1.125-.188q-.47-.047-.469-.14 0-1.125.281-1.172 5.11-.797 5.906-1.031l.797-.235q.187-.046.235.375.046.422 0 .61l-.282 2.343q.845-1.265 2.297-2.343 1.5-1.125 2.953-1.125 2.72 0 3.657 1.359 0 1.641-.516 2.391t-1.265.75q-.845 0-1.547-.797-.704-.797-1.922-.797-.938 0-1.781.656a4.5 4.5 0 0 0-1.36 1.594 4.35 4.35 0 0 0-.469 1.969v7.031q0 1.36.094 2.39.094 1.032.281 1.782.095.187.657.422t1.218.375q.703.14.985.14.14 0 .187.563t-.047.797l-5.062-.235zm27.282.14a8.7 8.7 0 0 1-4.735-1.359 10.4 10.4 0 0 1-3.468-3.61q-1.266-2.296-1.266-5.109 0-3.28 1.219-5.672 1.219-2.39 3.328-3.656 2.109-1.313 4.734-1.313 2.156 0 3.797.844 1.641.798 2.531 2.063a9.7 9.7 0 0 1 1.219 2.672q.422 1.312.422 2.625 0 .937-.281 1.172-.282.187-1.078.187h-11.813q-.375 0-.375.234 0 1.97.797 3.797a7.5 7.5 0 0 0 2.344 2.953q1.547 1.173 3.797 1.172 1.968 0 3.281-.562 1.359-.61 1.969-1.078l.328-.235q.28 0 .281.61 0 .328-.281.843-.937 1.313-2.766 2.391a7.97 7.97 0 0 1-3.984 1.031m-5.391-13.125h9.141q.234 0 .234-.468 0-1.032-.562-2.25a5.8 5.8 0 0 0-1.594-2.204q-1.078-.937-2.719-.937-1.5 0-2.578 1.031a6.6 6.6 0 0 0-1.641 2.297q-.562 1.266-.562 2.203 0 .328.281.328m21.141 13.172q-2.156 0-3.563-1.125-1.406-1.171-1.406-3.469 0-2.812 3.656-4.687a20 20 0 0 1 3.141-1.266 42 42 0 0 0 3.187-1.078q.423-.14.422-.703v-3.516q0-1.5-.937-2.296-.937-.844-2.25-.844-1.407 0-2.344.984-.938.938-.938 2.484 0 1.641-1.921 1.641-1.36 0-1.829-.891 0-.984.797-2.015.845-1.078 2.157-1.969a13 13 0 0 1 2.859-1.453q1.594-.563 3.141-.563 2.577 0 3.703 1.266 1.125 1.22 1.125 3.984v10.829q0 .984.515 1.64.516.657 1.407.657.61 0 1.64-.657.188 0 .188.375 0 .61-.235.985-1.922 1.64-3.281 1.64-1.078 0-2.062-.89-.985-.891-1.36-1.875-.234.187-.609.515-.328.282-.563.469-.984.75-2.156 1.312-1.125.516-2.484.516m1.781-2.672q1.313 0 2.484-.75 1.173-.75 1.172-1.594v-4.828a54 54 0 0 1-2.343.844q-1.078.375-1.735.61-.843.327-1.641 1.171-.75.844-.75 1.922 0 1.407.844 2.016.89.609 1.969.609m27.609 2.625q-.28 0-.281-.797v-.562q0-.234-.187-.188-2.578 1.454-4.969 1.454-2.578 0-4.688-1.266a9.84 9.84 0 0 1-3.281-3.422q-1.172-2.156-1.172-4.688 0-2.25.844-4.312a13 13 0 0 1 2.344-3.656q1.5-1.641 3.375-2.532 1.875-.937 3.89-.937t3.516.797q.328 0 .328-.844v-5.062q0-1.595-.281-3-.187-.75-2.391-.75h-.422q-.28 0-.281-.516 0-.75.281-.75 2.625-.234 4.125-.703 1.548-.469 2.204-.938l.187-.14h.094q.188 0 .375.281.188.234.234.469-.516 1.546-.516 4.078v21.094q0 2.202.282 3.562.14.47.797.609.702.095 1.453.188l.422.047q.14.047.14.562 0 .703-.281.703a17 17 0 0 0-3.187.516q-1.641.375-2.532.61zm-3.656-2.39q1.594 0 2.484-.703.891-.75.891-1.969v-11.157q0-.984-1.078-1.828-1.031-.89-3.375-.89-1.782 0-3.094 1.125-1.313 1.125-2.015 3-.703 1.829-.703 3.984 0 2.25.796 4.172.845 1.922 2.391 3.094t3.703 1.172m30.563 2.437q-2.344 0-3.938-1.547-1.547-1.547-1.547-4.406v-11.906h-2.718q-.235 0-.235-.985 0-.28.047-.328 1.407-.656 2.953-2.484 1.078-1.266 1.594-2.203.562-.937.562-1.125 1.407 0 1.407.234v4.641l3.703.047h2.625q.375 0 .375.422 0 .89-.469 1.781h-6.234v11.484q0 1.875.937 3 .984 1.125 2.531 1.125 1.454 0 2.907-.89.14-.094.421.421.282.47.235.516-.704.75-2.156 1.5a6.8 6.8 0 0 1-3 .703m6.515-.187q-.187-.188-.187-.797 0-.563.187-.563.375 0 1.032-.14a7 7 0 0 0 1.218-.375q.562-.235.61-.422.327-1.266.328-3.235v-20.343q0-1.595-.282-3-.186-.75-2.39-.75h-.422q-.281 0-.281-.516 0-.75.281-.75 2.391-.234 4.031-.75 1.641-.562 2.25-.891l.235-.14h.093q.188 0 .375.281.188.234.235.469-.516 1.546-.516 4.078v10.265q0 .188.094.188.046 0 .141-.094.702-.75 1.781-1.453 1.125-.75 2.39-1.219 1.266-.515 2.391-.515 3.141 0 4.5 2.25t1.359 6.937v5.063q0 1.313.094 2.343.094 1.032.281 1.782.095.187.657.422t1.218.375.938.14q.14 0 .187.563.048.562-.046.797l-5.016-.235-4.922.235q-.188-.188-.188-.797 0-.563.188-.563.375 0 .984-.14a6 6 0 0 0 1.125-.375q.516-.235.563-.422.188-.657.234-1.5.094-.844.094-1.782v-4.968q0-2.907-.516-4.453-.515-1.594-1.593-2.203-1.079-.61-2.766-.61-.938 0-1.922.563a6.3 6.3 0 0 0-1.594 1.218q-.656.704-.656 1.266v8.297q0 1.36.094 2.39.093 1.032.281 1.782.094.187.656.422t1.219.375.938.14q.14 0 .187.563t-.047.797l-5.015-.235zm25.5 0q-.187-.188-.187-.797 0-.563.187-.563.375 0 1.032-.14a7 7 0 0 0 1.218-.375q.562-.235.61-.422.187-.657.234-1.5.094-.844.094-1.782v-8.859q0-1.78-.656-2.531-.47-.609-1.126-.75-.656-.188-1.124-.188-.47-.047-.469-.14 0-1.125.281-1.172 2.484-.375 3.797-.61 1.312-.28 2.344-.515l.562-.141q.187-.046.235.375.046.422 0 .61a194 194 0 0 1-.188 1.781 29 29 0 0 0-.047 1.594v9.656q0 1.36.094 2.39.093 1.032.281 1.782.094.187.656.422t1.219.375.938.14q.14 0 .187.563t-.047.797l-5.015-.235zm4.641-25.594q-.937 0-1.641-.703-.702-.703-.703-1.641 0-.984.703-1.641.703-.702 1.641-.703.984 0 1.641.703.702.657.703 1.641 0 .938-.703 1.641a2.15 2.15 0 0 1-1.641.703m15.094 25.969q-1.454 0-2.625-.328-1.173-.329-2.86-.563-.187-.516-.375-1.406a29 29 0 0 1-.328-1.875 18 18 0 0 1-.094-1.594q.375-.281.563-.281.704 0 .75.281.187.938.937 1.875a7 7 0 0 0 1.829 1.594q1.077.609 2.203.609 1.5 0 2.437-.797.984-.843.984-2.39 0-1.64-1.265-2.719-.984-.796-1.688-1.125-.656-.375-1.312-.656a41 41 0 0 1-1.547-.891q-3.656-2.109-3.656-5.016 0-1.687.937-2.953.937-1.313 2.485-2.015a7.83 7.83 0 0 1 4.546-.657q.657.048 1.454.141l1.312.234q.516.095.844.141.516 2.156.562 4.781 0 .234-.609.235-.656 0-.703-.329-.234-1.312-1.36-2.484-1.077-1.172-2.484-1.172-3.375 0-3.375 2.766 0 .703.141 1.266.187.514.797.984 1.452 1.125 3.421 2.25 2.016 1.125 3.329 2.109 1.968 1.5 1.968 3.516a5.94 5.94 0 0 1-.984 3.328q-.984 1.453-2.625 2.297t-3.609.844"/></svg>