<svg xmlns="http://www.w3.org/2000/svg" width="1080" height="1350" fill="none"><path fill="#000" d="m329.259 441.6 1.2-3.2h12.4l1.2 3.2zm7.32-13.28-4.72 11.12-.32.72-4.16 9.84h-3.8l13-29.4 13 29.4h-3.8l-4.08-9.6-.32-.8zM364.585 438.8q0-2.28-1-3.44t-2.92-1.16q-1.4 0-2.48.6a4.1 4.1 0 0 0-1.64 1.6q-.56 1.04-.56 2.4V450h-3.2v-18.4h3.2v2.88q.92-1.68 2.28-2.48 1.4-.8 3.2-.8 2.92 0 4.6 1.96 1.72 1.92 1.72 5.24V450h-3.2zM387.601 418.8h3.2V450h-3.2zm-15.4 22q0-3 1.24-5.12 1.24-2.16 3.32-3.32t4.56-1.16q2.32 0 4.04 1.16t2.68 3.32q1 2.12 1 5.12 0 2.96-1 5.12-.96 2.16-2.68 3.32t-4.04 1.16q-2.481 0-4.56-1.16-2.08-1.16-3.32-3.32t-1.24-5.12m3.24 0q0 2.12.84 3.6.88 1.48 2.32 2.24t3.12.76q1.4 0 2.76-.76t2.24-2.24.88-3.6-.88-3.6-2.24-2.24-2.76-.76q-1.68 0-3.12.76t-2.32 2.24q-.84 1.48-.84 3.6M423.205 431.6l-12 27.2h-3.6l5.04-11.4-7.04-15.8h3.8l5.84 14.4-1.32-.16 5.68-14.24zM424.036 440.8q0-2.8 1.24-4.96 1.28-2.16 3.44-3.4t4.84-1.24q2.72 0 4.84 1.24a9.05 9.05 0 0 1 3.4 3.4q1.28 2.16 1.28 4.96 0 2.76-1.28 4.96a9.05 9.05 0 0 1-3.4 3.4q-2.12 1.24-4.84 1.24-2.68 0-4.84-1.24a9.36 9.36 0 0 1-3.44-3.4q-1.24-2.2-1.24-4.96m3.24 0q0 1.92.8 3.4a6.57 6.57 0 0 0 2.24 2.36q1.44.84 3.24.84t3.2-.84a6.14 6.14 0 0 0 2.24-2.36q.84-1.48.84-3.4t-.84-3.4a5.8 5.8 0 0 0-2.24-2.36q-1.4-.84-3.2-.84t-3.24.84q-1.4.84-2.24 2.36-.8 1.48-.8 3.4M450.672 442.8q0 2.2 1 3.4t2.92 1.2q1.4 0 2.44-.56 1.08-.6 1.64-1.64.6-1.04.6-2.4v-11.2h3.2V450h-3.2v-2.88q-.92 1.64-2.28 2.48-1.36.8-3.2.8-2.88 0-4.6-1.96t-1.72-5.24v-11.6h3.2zM477.68 431.6h3.6l4.6 11.96 5-13.36 5.36 13.44 4.64-12.04h3.6l-8 19.8-5.56-13.4-5.24 13.4zM507.668 424q0-.92.64-1.56.68-.64 1.56-.64.92 0 1.56.64t.64 1.56q0 .88-.64 1.56-.64.64-1.56.64-.88 0-1.56-.64-.64-.68-.64-1.56m.6 7.6h3.2V450h-3.2zM518.058 418.8h3.2V450h-3.2zM527.277 418.8h3.2V450h-3.2zM551.688 431.6V450h-3.2v-18.4zm5.56 3.52q-.64-.48-1.16-.68-.52-.24-1.32-.24-1.2 0-1.88.6t-.96 1.64q-.24 1.04-.24 2.36h-1.44q0-2.2.76-3.88.8-1.72 2.04-2.72t2.52-1q1 0 1.84.28.88.24 1.6 1zM568.733 450.4q-2.56 0-4.56-1.2-1.96-1.24-3.08-3.4-1.08-2.16-1.08-5 0-2.88 1.12-5.04 1.16-2.16 3.2-3.36 2.08-1.2 4.8-1.2t4.64 1.16q1.96 1.12 3 3.24t1.04 5.04q0 .28-.04.6v.36h-15.72v-2.72h13.2l-1.28 1.84q.12-.2.24-.6.12-.44.12-.72 0-1.64-.68-2.84a4.7 4.7 0 0 0-1.8-1.88q-1.16-.68-2.72-.68-1.84 0-3.16.8-1.28.76-2 2.24-.68 1.44-.72 3.56 0 2.16.68 3.68t2 2.32 3.2.8 3.32-.8q1.44-.84 2.44-2.52l2.6 1.64q-1.44 2.32-3.64 3.52-2.16 1.16-5.12 1.16M583.639 444.32q0 1.04.48 1.8.52.76 1.4 1.16.92.36 2.08.36 1.48 0 2.64-.6 1.2-.6 1.88-1.68.72-1.12.72-2.56l.64 2.4q0 1.76-1.08 2.92-1.04 1.16-2.6 1.72a8.8 8.8 0 0 1-3.04.56 7.5 7.5 0 0 1-3.16-.68 5.9 5.9 0 0 1-2.32-2.04q-.88-1.32-.88-3.2 0-2.68 1.88-4.28 1.92-1.64 5.32-1.64 2 0 3.32.48 1.36.44 2.16 1.04.8.56 1.08.92v1.88q-1.4-.96-2.88-1.36a11 11 0 0 0-3.16-.44q-1.56 0-2.56.4-.96.4-1.44 1.12t-.48 1.72m-.48-8.48-1.56-2.36q1.04-.76 2.84-1.52 1.84-.76 4.4-.76 2.16 0 3.76.68 1.64.64 2.52 1.88.92 1.24.92 3.04V450h-3.2v-12.76q0-.96-.32-1.56a2.4 2.4 0 0 0-.92-1 3.9 3.9 0 0 0-1.32-.52 7.7 7.7 0 0 0-1.6-.16q-1.36 0-2.48.32-1.08.32-1.84.76t-1.2.76M615.257 418.8h3.2V450h-3.2zm-15.4 22q0-3 1.24-5.12 1.24-2.16 3.32-3.32t4.56-1.16q2.32 0 4.04 1.16t2.68 3.32q1 2.12 1 5.12 0 2.96-1 5.12-.96 2.16-2.68 3.32t-4.04 1.16q-2.481 0-4.56-1.16-2.08-1.16-3.32-3.32t-1.24-5.12m3.24 0q0 2.12.84 3.6.88 1.48 2.32 2.24t3.12.76q1.4 0 2.76-.76t2.24-2.24.88-3.6-.88-3.6-2.24-2.24-2.76-.76q-1.68 0-3.12.76t-2.32 2.24q-.84 1.48-.84 3.6M633.461 431.6h9.2v3h-9.2zm3-6.4h3.2V450h-3.2zM649.071 418.8V450h-3.2v-31.2zm8.6 20q0-2.28-1-3.44-.96-1.16-2.92-1.16-1.4 0-2.48.6-1.04.6-1.64 1.64-.56 1.04-.56 2.36h-1.04q0-2.2.84-3.88.84-1.72 2.28-2.72 1.48-1 3.4-1t3.32.8q1.44.8 2.2 2.4.8 1.6.8 4V450h-3.2zM666.886 424q0-.92.64-1.56.681-.64 1.56-.64a2.12 2.12 0 0 1 1.56.64q.64.64.64 1.56 0 .88-.64 1.56a2.12 2.12 0 0 1-1.56.64q-.879 0-1.56-.64-.64-.68-.64-1.56m.601 7.6h3.199V450h-3.199zM678.037 444.36q.56.84 1.28 1.56t1.64 1.16q.96.4 2.08.4 1.36 0 2.12-.6.8-.64.8-1.72 0-.96-.64-1.6-.6-.68-1.56-1.12-.96-.48-2.04-.88a28 28 0 0 1-2.44-1.12 7.1 7.1 0 0 1-2.04-1.72q-.8-1.08-.8-2.68 0-1.64.84-2.72a5.25 5.25 0 0 1 2.24-1.6 8.2 8.2 0 0 1 2.88-.52q1.48 0 2.76.48 1.32.48 2.32 1.28a6 6 0 0 1 1.56 1.84l-2.56 1.64a6.3 6.3 0 0 0-1.92-1.72q-1.12-.68-2.56-.68-1 0-1.72.44t-.72 1.36q0 .72.56 1.28t1.44 1 1.84.84q1.6.64 2.92 1.4 1.32.72 2.08 1.76.8 1.04.8 2.68 0 2.4-1.76 4-1.72 1.6-4.56 1.6-1.84 0-3.32-.64-1.48-.68-2.52-1.72-1-1.04-1.52-2.12zM705.402 418.8h3.2V450h-3.2zM716.061 444.32q0 1.04.48 1.8.52.76 1.4 1.16.92.36 2.08.36 1.48 0 2.64-.6 1.2-.6 1.88-1.68.72-1.12.72-2.56l.64 2.4q0 1.76-1.08 2.92-1.04 1.16-2.6 1.72a8.8 8.8 0 0 1-3.04.56 7.5 7.5 0 0 1-3.16-.68 5.9 5.9 0 0 1-2.32-2.04q-.88-1.32-.88-3.2 0-2.68 1.88-4.28 1.92-1.64 5.32-1.64 2 0 3.32.48 1.36.44 2.16 1.04.8.56 1.08.92v1.88q-1.4-.96-2.88-1.36a11 11 0 0 0-3.16-.44q-1.56 0-2.56.4-.96.4-1.44 1.12t-.48 1.72m-.48-8.48-1.56-2.36q1.04-.76 2.84-1.52 1.84-.76 4.4-.76 2.16 0 3.76.68 1.64.64 2.52 1.88.92 1.24.92 3.04V450h-3.2v-12.76q0-.96-.32-1.56a2.4 2.4 0 0 0-.92-1 3.9 3.9 0 0 0-1.32-.52 7.7 7.7 0 0 0-1.6-.16q-1.36 0-2.48.32-1.08.32-1.84.76t-1.2.76M734.639 444.36q.56.84 1.28 1.56a5.9 5.9 0 0 0 1.64 1.16q.96.4 2.08.4 1.36 0 2.12-.6.8-.64.8-1.72 0-.96-.64-1.6-.6-.68-1.56-1.12-.96-.48-2.04-.88-1.2-.48-2.44-1.12a7.1 7.1 0 0 1-2.04-1.72q-.8-1.08-.8-2.68 0-1.64.84-2.72a5.25 5.25 0 0 1 2.24-1.6 8.2 8.2 0 0 1 2.88-.52q1.479 0 2.76.48 1.32.48 2.32 1.28a6 6 0 0 1 1.56 1.84l-2.56 1.64a6.3 6.3 0 0 0-1.92-1.72q-1.12-.68-2.56-.68-1 0-1.72.44t-.72 1.36q0 .72.56 1.28t1.44 1a30 30 0 0 0 1.84.84 23 23 0 0 1 2.92 1.4q1.32.72 2.08 1.76.8 1.04.8 2.68 0 2.4-1.76 4-1.72 1.6-4.56 1.6-1.84 0-3.32-.64-1.48-.68-2.52-1.72-1-1.04-1.52-2.12zM747.211 431.6h9.2v3h-9.2zm3-6.4h3.2V450h-3.2zM312.72 783.86v-3.76h20.915v3.76h-8.46V813h-3.995v-29.14zM341.853 776.34V813h-3.76v-36.66zm10.105 23.5q0-2.679-1.175-4.042-1.128-1.363-3.431-1.363-1.645 0-2.914.705a5.17 5.17 0 0 0-1.927 1.927q-.658 1.222-.658 2.773h-1.222q0-2.585.987-4.559.987-2.021 2.679-3.196 1.739-1.175 3.995-1.175t3.901.94q1.692.94 2.585 2.82.94 1.88.94 4.7V813h-3.76zM371.622 813.47q-3.007 0-5.358-1.41-2.302-1.457-3.619-3.995-1.269-2.538-1.269-5.875 0-3.384 1.316-5.922 1.363-2.538 3.76-3.948 2.445-1.41 5.64-1.41 3.196 0 5.452 1.363 2.304 1.315 3.525 3.807t1.222 5.922q0 .328-.047.705v.423h-18.471v-3.196h15.51l-1.504 2.162a3.3 3.3 0 0 0 .282-.705q.141-.518.141-.846 0-1.927-.799-3.337a5.5 5.5 0 0 0-2.115-2.209q-1.363-.8-3.196-.799-2.162 0-3.713.94-1.504.893-2.35 2.632-.798 1.692-.846 4.183 0 2.538.799 4.324.8 1.786 2.35 2.726 1.552.94 3.76.94 2.21 0 3.901-.94 1.692-.987 2.867-2.961l3.055 1.927q-1.691 2.726-4.277 4.136-2.538 1.363-6.016 1.363M401.78 799.84q0-2.679-1.175-4.042t-3.431-1.363q-1.645 0-2.914.705a4.83 4.83 0 0 0-1.927 1.88q-.658 1.222-.658 2.82V813h-3.76v-21.62h3.76v3.384q1.08-1.974 2.679-2.914 1.644-.94 3.76-.94 3.43 0 5.405 2.303 2.02 2.256 2.021 6.157V813h-3.76zM444.794 791.38l-14.1 31.96h-4.23l5.922-13.395-8.272-18.565h4.465l6.862 16.92-1.551-.188 6.674-16.732zM446.241 802.19q0-3.29 1.457-5.828a11 11 0 0 1 4.042-3.995q2.538-1.457 5.687-1.457 3.195 0 5.687 1.457a10.63 10.63 0 0 1 3.995 3.995q1.504 2.538 1.504 5.828 0 3.243-1.504 5.828a10.63 10.63 0 0 1-3.995 3.995q-2.492 1.457-5.687 1.457-3.15 0-5.687-1.457a11 11 0 0 1-4.042-3.995q-1.457-2.585-1.457-5.828m3.807 0q0 2.256.94 3.995a7.7 7.7 0 0 0 2.632 2.773q1.692.987 3.807.987t3.76-.987a7.2 7.2 0 0 0 2.632-2.773q.987-1.739.987-3.995t-.987-3.995q-.94-1.786-2.632-2.773-1.645-.987-3.76-.987t-3.807.987q-1.645.987-2.632 2.773-.94 1.739-.94 3.995M478.008 804.54q0 2.585 1.175 3.995t3.431 1.41q1.644 0 2.867-.658 1.269-.705 1.927-1.927.705-1.223.705-2.82v-13.16h3.76V813h-3.76v-3.384q-1.082 1.927-2.679 2.914-1.599.94-3.76.94-3.384 0-5.405-2.303t-2.021-6.157v-13.63h3.76zM510.682 791.38h4.23l5.405 14.053 5.875-15.698 6.298 15.792 5.452-14.147h4.23l-9.4 23.265-6.533-15.745-6.157 15.745zM546.387 782.45q0-1.082.752-1.833.8-.752 1.833-.752 1.082 0 1.833.752a2.5 2.5 0 0 1 .752 1.833q0 1.034-.752 1.833a2.5 2.5 0 0 1-1.833.752q-1.034 0-1.833-.752-.752-.8-.752-1.833m.705 8.93h3.76V813h-3.76zM559.066 776.34h3.76V813h-3.76zM570.368 776.34h3.76V813h-3.76zM599.991 791.38V813h-3.76v-21.62zm6.533 4.136q-.751-.564-1.363-.799-.61-.282-1.551-.282-1.41 0-2.209.705-.798.705-1.128 1.927-.282 1.222-.282 2.773h-1.692q0-2.585.893-4.559.94-2.021 2.397-3.196 1.458-1.175 2.961-1.175 1.176 0 2.162.329 1.035.282 1.88 1.175zM620.489 813.47q-3.007 0-5.358-1.41-2.303-1.457-3.619-3.995-1.269-2.538-1.269-5.875 0-3.384 1.316-5.922 1.363-2.538 3.76-3.948 2.444-1.41 5.64-1.41t5.452 1.363q2.302 1.315 3.525 3.807t1.222 5.922q0 .328-.047.705v.423H612.64v-3.196h15.51l-1.504 2.162a3.3 3.3 0 0 0 .282-.705q.141-.518.141-.846 0-1.927-.799-3.337a5.5 5.5 0 0 0-2.115-2.209q-1.363-.8-3.196-.799-2.162 0-3.713.94-1.504.893-2.35 2.632-.8 1.692-.846 4.183 0 2.538.799 4.324.8 1.786 2.35 2.726t3.76.94 3.901-.94q1.692-.987 2.867-2.961l3.055 1.927q-1.692 2.726-4.277 4.136-2.538 1.363-6.016 1.363M638.473 806.326q0 1.223.564 2.115.612.893 1.645 1.363 1.082.423 2.444.423 1.74 0 3.102-.705 1.41-.705 2.209-1.974.846-1.316.846-3.008l.752 2.82q0 2.068-1.269 3.431-1.221 1.363-3.055 2.021a10.3 10.3 0 0 1-3.572.658 8.8 8.8 0 0 1-3.713-.799 6.96 6.96 0 0 1-2.726-2.397q-1.034-1.55-1.034-3.76 0-3.149 2.209-5.029 2.256-1.927 6.251-1.927 2.35 0 3.901.564 1.599.517 2.538 1.222.94.658 1.269 1.081v2.209q-1.644-1.128-3.384-1.598a13 13 0 0 0-3.713-.517q-1.832 0-3.008.47-1.128.47-1.692 1.316t-.564 2.021m-.564-9.964-1.833-2.773q1.222-.893 3.337-1.786 2.163-.893 5.17-.893 2.538 0 4.418.799 1.928.752 2.961 2.209 1.081 1.457 1.081 3.572V813h-3.76v-14.993q0-1.128-.376-1.833a2.8 2.8 0 0 0-1.081-1.175 4.6 4.6 0 0 0-1.551-.611 9 9 0 0 0-1.88-.188q-1.597 0-2.914.376-1.269.376-2.162.893t-1.41.893M676.094 776.34h3.76V813h-3.76zm-18.095 25.85q0-3.525 1.457-6.016 1.458-2.538 3.901-3.901 2.445-1.363 5.358-1.363 2.727 0 4.747 1.363 2.022 1.363 3.149 3.901 1.175 2.491 1.175 6.016 0 3.478-1.175 6.016-1.127 2.538-3.149 3.901-2.02 1.363-4.747 1.363-2.913 0-5.358-1.363-2.443-1.363-3.901-3.901t-1.457-6.016m3.807 0q0 2.491.987 4.23 1.034 1.739 2.726 2.632a7.74 7.74 0 0 0 3.666.893q1.646 0 3.243-.893 1.599-.893 2.632-2.632t1.034-4.23q0-2.491-1.034-4.23-1.033-1.739-2.632-2.632-1.597-.893-3.243-.893a7.74 7.74 0 0 0-3.666.893q-1.692.893-2.726 2.632-.987 1.738-.987 4.23M698.425 791.38h10.81v3.525h-10.81zm3.525-7.52h3.76V813h-3.76zM717.236 776.34V813h-3.76v-36.66zm10.105 23.5q0-2.679-1.175-4.042-1.128-1.363-3.431-1.363-1.645 0-2.914.705a5.17 5.17 0 0 0-1.927 1.927q-.658 1.222-.658 2.773h-1.222q0-2.585.987-4.559.987-2.021 2.679-3.196 1.739-1.175 3.995-1.175t3.901.94q1.692.94 2.585 2.82.94 1.88.94 4.7V813h-3.76zM738.639 782.45q0-1.082.752-1.833.8-.752 1.833-.752 1.081 0 1.833.752a2.5 2.5 0 0 1 .752 1.833q0 1.034-.752 1.833a2.5 2.5 0 0 1-1.833.752q-1.033 0-1.833-.752-.752-.8-.752-1.833m.705 8.93h3.76V813h-3.76zM752.211 806.373q.658.987 1.504 1.833a7 7 0 0 0 1.927 1.363q1.128.47 2.444.47 1.599 0 2.491-.705.94-.752.94-2.021 0-1.128-.752-1.88-.705-.799-1.833-1.316a24 24 0 0 0-2.397-1.034 33 33 0 0 1-2.867-1.316 8.3 8.3 0 0 1-2.397-2.021q-.94-1.27-.94-3.149 0-1.927.987-3.196a6.17 6.17 0 0 1 2.632-1.88 9.7 9.7 0 0 1 3.384-.611q1.74 0 3.243.564a9.5 9.5 0 0 1 2.726 1.504q1.176.94 1.833 2.162l-3.008 1.927a7.4 7.4 0 0 0-2.256-2.021q-1.316-.8-3.008-.799-1.175 0-2.021.517t-.846 1.598q0 .846.658 1.504.659.658 1.692 1.175 1.034.518 2.162.987a27 27 0 0 1 3.431 1.645q1.551.846 2.444 2.068.94 1.222.94 3.149 0 2.82-2.068 4.7-2.02 1.88-5.358 1.88-2.161 0-3.901-.752-1.738-.799-2.961-2.021-1.174-1.222-1.786-2.491zM181.186 597.44q-6.84 0-11.76-2.88-4.8-2.88-4.8-8.4 0-3.12 1.68-5.52 1.8-2.28 5.52-3.48-.48 1.8-.72 3.48t-.24 3q0 4.92 2.64 7.8 2.64 3 7.8 3 4.8 0 8.52-2.4 3.84-2.4 6.6-6.36a42.8 42.8 0 0 0 4.68-8.4q1.92-4.56 3.24-9t2.04-7.8q.96-4.08 2.16-10.56 1.32-6.6 2.88-14.04-4.8 9.12-11.16 15.12-6.24 5.88-14.88 5.88-7.08 0-10.08-3.96-3-4.08-3-10.32 0-4.68 1.2-10.2 1.32-5.52 2.88-11.04 1.56-5.64 2.76-10.8 1.32-5.16 1.32-9.24 0-3.84-1.56-6.6-1.44-2.76-5.28-2.76-3.36 0-5.76 2.16-2.4 2.04-4.08 5.28a33 33 0 0 0-2.4 6.84q-.72 3.48-.72 6.48 0 1.68.24 3.24t.72 2.64q-4.56 0-6.48-2.4-1.8-2.52-1.8-5.88 0-3.72 1.8-7.56t4.92-6.96q3.24-3.24 7.32-5.16 4.2-2.04 8.88-2.04 4.56 0 7.32 1.92 2.76 1.8 3.96 4.56t1.2 5.64q0 3.36-1.32 8.4-1.2 4.92-2.76 10.44-1.56 5.4-2.76 10.8t-1.2 10.2q0 5.16 1.92 8.4 2.04 3.12 6.48 3.12 4.2 0 7.92-2.64t6.96-7.08 5.88-9.72 4.68-10.44q1.56-6.48 3.24-12.48 1.8-6.12 3.6-10.8 1.8-4.8 3.72-7.56t3.84-2.76q1.2 0 3.12 1.08 1.92.96 3.6 2.76-2.52 3.96-4.32 7.56-1.8 3.48-3.48 7.68-1.56 4.2-3.24 9.96-1.68 5.64-3.84 13.92-2.04 8.28-4.92 20.16a611 611 0 0 1-3.36 12.6 87 87 0 0 1-4.44 12.36q-2.52 5.88-6.12 10.56t-8.76 7.44q-5.04 2.76-12 2.76M235.624 578.84q-5.16 0-7.32-3.24-2.16-3.12-2.16-7.68 0-3.72 1.2-7.68t3.12-7.44q2.04-3.48 4.44-5.64 2.52-2.16 5.04-2.16.6 0 1.2.24.72.12 1.32.36-1.08.96-2.64 3.6-1.44 2.52-2.76 5.88-1.32 3.24-2.28 6.48-.84 3.24-.84 5.52 0 3.6 1.2 5.28 1.2 1.56 3.12 1.56 2.52 0 6-2.64 3.48-2.76 6.84-6.96-3.36-2.76-5.28-7.2-1.8-4.56-1.8-9.24 0-3.96 1.32-7.44 1.44-3.48 4.08-5.52 2.64-2.16 6.36-2.16 4.92 0 6.6 2.64t1.68 6.6q0 4.68-2.28 10.44-2.28 5.64-5.76 10.92 2.16 1.2 4.56 1.2 1.92 0 4.32-.72 2.4-.84 4.68-2.76 2.4-1.92 3.84-5.16l1.44 1.2q-2.4 5.64-6.84 8.04-4.32 2.28-8.28 2.28-1.56 0-3-.24-1.44-.36-2.76-.96-4.08 5.4-9 9-4.8 3.6-9.36 3.6m17.64-17.64q3-4.44 4.92-9.24 2.04-4.92 2.04-9.24 0-3.48-1.08-5.04-.96-1.68-2.52-1.68-2.4 0-4.92 3.48t-2.52 8.76q0 3.48.96 7.08 1.08 3.48 3.12 5.88"/><path fill="#000" d="M280.172 578.6q-4.08 0-6.6-3.6-2.4-3.72-2.4-8.52 0-3.48 1.08-8.04 1.2-4.56 2.88-9t3.48-7.32 3.12-2.88q.6 0 2.04.72 1.44.6 2.4 1.68-1.32 2.04-3.24 6.24t-3.36 9-1.44 8.88q0 .96.24 3 .24 1.92 1.2 3.48t2.88 1.56q2.28 0 4.68-2.28 2.4-2.4 4.8-6.12a85 85 0 0 0 4.8-8.04q2.28-4.32 4.2-8.28 2.04-3.96 3.36-6.6.72.12 2.04.48 1.44.36 2.52.96 1.2.6 1.2 1.68 0 .48-1.2 3.24-1.2 2.64-2.88 6.6a90 90 0 0 0-2.76 7.8q-1.2 3.96-1.2 6.96 0 2.16.84 3.48.96 1.32 3.12 1.32 2.52 0 6.12-2.28t7.32-6.6q3.72-4.44 6.6-10.56l1.56 1.08q-2.52 6.48-6.6 11.52-4.08 4.92-8.64 7.68t-8.88 2.76q-3.12 0-5.04-1.2-1.8-1.2-2.64-3.24-.72-2.04-.72-4.44 0-1.44.24-2.88.24-1.56.6-3.12-2.16 3.96-4.68 7.44-2.52 3.36-5.28 5.4t-5.76 2.04M388.801 579.68q-3.72 0-5.16-3.48-1.32-3.36-1.32-8.16 0-2.4.24-5.16.24-2.88.6-5.64-2.64 5.28-5.76 10.2-3 4.92-6.36 8.04t-7.08 3.12q-3.96 0-6.48-3.6t-2.52-8.52q0-3.48 1.08-8.04 1.2-4.56 2.88-9t3.48-7.32 3.12-2.88q.6 0 2.52.72 1.92.6 1.92 1.68-1.32 2.04-3.24 6.24t-3.36 9.12q-1.44 4.8-1.44 8.76 0 .96.24 3 .24 1.92 1.08 3.48.96 1.56 2.88 1.56 2.76 0 5.88-3.48t6.24-8.76 5.88-10.68q.96-4.92 1.56-7.2.72-2.28 1.44-2.88.72-.72 1.8-.72 1.56 0 2.52.72.96.6.96 1.92 0 .24-.12.6 0 .36-.12.72-.84 2.88-1.68 7.32-.72 4.32-1.2 9t-.48 8.76q0 2.76.6 4.32t2.04 1.56q1.8 0 4.2-2.16 2.4-2.28 4.92-5.88 2.64-3.72 5.04-8.04 2.52-4.32 4.44-8.52 0-6.24.84-9.48.96-3.36 2.28-4.56 1.44-1.2 2.88-1.2 2.28 0 3.24 1.68 1.08 1.56 1.08 2.88 0 .84-.36 1.8-.36.84-.96 1.92-.96 1.8-1.92 4.68-.96 2.76-.96 7.68 0 1.92.36 4.08t1.56 3.6 3.72 1.44 4.8-1.92q2.4-2.04 4.68-6.96l1.56 1.2q-2.64 6-5.88 8.04-3.12 2.04-6 2.04-3.72 0-6.36-2.52-2.52-2.52-3.72-7.56-3 5.52-6.72 10.68t-7.68 8.4q-3.96 3.36-7.68 3.36"/><path fill="#000" d="M437.663 578.12q-4.68 0-6.96-3-2.28-2.88-2.28-7.08 0-2.76.96-6.96 1.08-4.2 2.76-8.76 1.68-4.68 3.84-8.76 2.28-4.08 4.8-6.6 2.52-2.64 4.92-2.64 1.08 0 1.8.72.84.6.84 1.92 0 1.44-1.92 4.68-1.8 3.24-4.32 7.44t-4.44 8.88q-1.8 4.56-1.8 8.76 0 4.32 1.44 5.76t4.44 1.44q4.08 0 8.64-4.08 4.68-4.08 9.84-14.28l1.08 1.2q-3.48 10.32-10.08 15.84-6.48 5.52-13.56 5.52m14.4-54.96q-1.92 0-3.48-.96-1.44-.96-1.44-3 0-2.52 2.88-4.32 3-1.92 5.88-1.92 1.8 0 2.88.84t1.08 2.88q0 2.28-2.52 4.44-2.4 2.04-5.28 2.04"/><path fill="#000" d="M467.929 578.6q-5.16 0-7.44-3.6-2.16-3.48-2.16-8.76 0-5.76 2.16-13.68t5.64-16.68q3.6-8.76 7.8-17.04 4.2-8.4 8.4-15.24t7.68-10.92q3.6-4.08 5.64-4.08 1.32 0 2.16 1.56.84 1.44 1.32 3.6.48 2.04.48 3.72 0 3.24-1.68 8.52-1.56 5.16-4.56 11.64-2.88 6.36-6.96 12.96-3.96 6.48-8.76 12.48-4.68 6-9.96 10.32-.72 3.24-1.2 6.36-.36 3-.36 5.76 0 9.24 5.28 9.24 2.88 0 5.76-2.4 3-2.52 5.64-6.36 2.76-3.84 4.8-8.16 1.2-6.24 3.6-13.32 2.4-7.2 5.52-14.4t6.6-13.8 6.84-11.76 6.24-8.16 4.68-3q1.32 0 2.16 1.56.84 1.44 1.32 3.6.48 2.04.48 3.72 0 3.96-2.04 10.44-2.04 6.36-5.88 13.68-3.72 7.32-9.12 14.52-5.28 7.08-11.88 12.48-.72 3.24-1.2 6.36-.36 3-.36 5.76 0 9.24 5.28 9.24 3.24 0 6.36-2.88 3.24-2.88 6-7.2 2.88-4.44 4.92-9.12l1.8.96q-4.8 10.2-10.44 16.2-5.64 5.88-12.12 5.88-5.76 0-7.92-4.32t-1.56-10.8q-4.2 7.08-9 11.16-4.68 3.96-9.96 3.96m.84-29.28q4.2-4.2 8.16-9.6 3.96-5.52 7.32-11.4 3.48-5.88 6.12-11.4t4.08-9.84q1.44-4.44 1.44-6.84 0-1.2-.36-1.56-.24-.36-.48-.36-.96 0-3.36 3.12-2.28 3-5.4 8.16t-6.36 11.76-6.24 13.8q-2.88 7.2-4.92 14.16m28.44 0q5.28-5.28 9.6-11.64 4.44-6.36 7.68-12.72t5.04-11.64 1.8-8.28q0-1.2-.36-1.56-.24-.36-.48-.36-1.2 0-4.08 3.96-2.76 3.84-6.36 10.44-3.48 6.6-6.96 14.88-3.36 8.28-5.88 16.92M566.619 578.12q-4.08 0-6.48-2.16-2.28-2.16-2.28-5.64 0-3.6 1.68-7.56t3.24-7.8q1.68-3.96 1.68-7.08 0-3.84-2.28-5.64a45 45 0 0 0-4.44-3.48q-2.76 7.08-5.76 13.44t-4.92 9.6l-1.08-2.04q1.68-3.12 4.32-9.12 2.76-6 5.4-13.68-1.2-1.2-1.2-2.88 0-3.6 2.04-5.88t3-2.28q1.32 0 1.44 1.2.24 1.08.24 1.68t-.72 2.4q-.6 1.68-.6 2.04 0 1.68 1.8 3.12 1.92 1.32 4.32 3.12 2.4 1.68 4.2 4.2 1.92 2.4 1.92 6.24 0 3.6-1.56 7.32a118 118 0 0 1-3 7.08q-1.44 3.36-1.44 5.88 0 2.16 1.08 2.88t2.52.72q2.88 0 5.88-1.8 3.12-1.8 6-4.56t5.16-5.76q2.28-3.12 3.36-5.76l1.56 1.2q-2.28 5.04-6.24 9.96-3.96 4.8-8.88 7.92-4.8 3.12-9.96 3.12"/><path fill="#000" d="M600.538 580.28q-7.32 0-11.04-4.08-3.6-3.96-3.6-9.84 0-5.4 2.64-11.4 2.76-6 7.2-11.28 4.56-5.28 9.96-8.52 5.4-3.36 10.68-3.36 2.76 0 5.04 1.44 2.4 1.44 2.4 5.88 0 4.56-2.76 8.64-2.64 3.96-7.08 7.08-4.32 3.12-9.6 5.16-5.16 1.92-10.32 2.4-.24 1.2-.36 2.28t-.12 2.04q0 1.8.36 3.6.48 1.8 1.56 3.36 1.08 1.44 2.88 2.28 1.92.84 4.68.84 5.16 0 10.2-2.88 5.04-3 9.36-7.8t7.32-10.56l1.44 1.08q-3.24 7.2-8.28 12.48-4.92 5.28-10.8 8.16-5.76 3-11.76 3m-5.88-20.16q3.24-1.08 7.32-3.12 4.08-2.16 7.8-5.04 3.84-2.88 6.24-6.36 2.52-3.48 2.52-7.32 0-1.32-.48-2.04t-2.04-.72q-2.88 0-6.12 2.28-3.24 2.16-6.24 5.76t-5.4 7.92-3.6 8.64"/><path fill="#000" d="M633.299 580.64q-3.72 0-6.24-2.52-2.64-2.4-2.64-7.44 0-4.32 1.92-9.24 1.92-5.04 5.28-9.84 3.36-4.92 7.56-8.88 4.32-4.08 9-6.48 4.8-2.4 9.48-2.4t7.8 2.52q3.12 2.4 3.12 6.48 0 3-1.68 4.08-1.56 1.08-4.2 1.08.24-.96.36-2.04.24-1.2.24-2.16 0-2.76-1.32-4.68-1.32-2.04-4.56-2.04-3.36 0-6.84 2.4-3.48 2.28-6.72 6.24a52 52 0 0 0-5.76 8.4q-2.52 4.56-3.96 9t-1.44 7.92q0 4.68 3.24 4.68 2.76 0 6-2.52 3.24-2.64 6.6-6.6 3.48-4.08 6.6-8.4t5.52-7.92q.48-.72.6-.72.72.12 1.8.48 1.2.36 2.04.96t.84 1.56q0 1.08-1.08 3-1.08 1.8-2.4 4.2t-2.4 4.92q-1.08 2.4-1.08 4.56 0 1.8.96 3.6.96 1.68 3.12 1.68 3.24 0 8.52-4.68 5.28-4.8 10.68-14.28l1.2 1.2q-2.52 6.48-6.48 11.4t-8.52 7.68q-4.44 2.76-8.76 2.76-4.44 0-6.6-2.64-2.04-2.64-2.04-5.76 0-.72.12-1.56l.24-1.92q-5.16 6.96-9.48 10.44-4.2 3.48-8.64 3.48"/><path fill="#000" d="M686.884 578.6q-2.04 0-4.2-1.08-2.04-.96-3.36-3.24-1.44-2.28-1.44-5.76 0-3.96 1.92-8.88t5.16-9.72q3.24-4.92 7.44-9 4.2-4.2 8.76-6.6 4.56-2.52 9-2.52 2.52 0 3.84.96 1.44.84 1.44 2.76 0 .48-.12.84 0 .36-.12.84-.6-.96-1.8-1.32-1.08-.48-2.76-.48-3.84 0-7.56 2.4-3.6 2.28-6.72 6.12-3 3.72-5.28 8.04t-3.6 8.4q-1.2 3.96-1.2 6.72 0 2.64 1.2 4.2t3.12 1.56q3.24 0 7.8-4.08 4.68-4.08 9.48-11.52t8.64-17.4q2.64-6.96 5.4-14.16 2.88-7.2 5.76-13.8 2.88-6.72 5.52-11.88 2.76-5.28 5.16-8.28 2.52-3.12 4.44-3.12.96 0 1.68.84.72.72.72 1.92 0 1.92-2.04 6.6-1.92 4.56-5.16 11.04-3.12 6.36-6.6 13.92t-6.72 15.36q-3.12 7.8-5.16 15.12-1.92 7.2-1.92 13.2 0 3.36.36 5.04t2.4 1.68q2.52 0 5.88-2.16t6.72-6.12 5.88-9.48l1.44 1.08q-2.28 6.12-6.24 11.04-3.96 4.8-8.52 7.56-4.44 2.88-8.52 2.88-4.44 0-6.24-3-1.68-2.88-1.68-6 0-2.04.6-5.4t1.68-7.44q-3.84 6.36-8.16 11.52-4.32 5.04-8.52 7.92-4.08 2.88-7.8 2.88M777.895 580.52q-5.16 0-7.92-3t-2.76-8.88q0-3.6.96-8.64 1.08-5.04 2.76-10.68 1.8-5.76 3.84-11.16-1.2-.24-2.28-.72-1.08-.6-2.04-.96v-2.16q.96.12 2.28.6t3 .6q3.36-8.64 7.08-15.96 3.84-7.32 7.32-11.76t5.88-4.44q.96 0 1.68.72.84.6.84 1.92 0 1.2-.96 3.48-.96 2.16-2.64 5.16t-3.72 6.6-4.32 7.68-4.32 8.52q3 .48 5.76.84 2.88.36 5.88.36 3.24 0 6.96-.48t8.52-1.44q3.12-8.52 6.96-16.92 3.96-8.4 7.92-15.24 4.08-6.96 7.68-11.04 3.72-4.2 6.36-4.2 2.16 0 3 2.64.96 2.52.96 4.92 0 4.2-2.16 9.96-2.04 5.64-5.64 11.76-3.6 6-8.4 11.28-4.68 5.16-9.96 8.4-1.92 4.56-3.48 10.56-1.44 6-2.04 11.88-.6 5.76-.12 9.6 2.88-8.28 6.48-15.36t8.04-11.4q4.56-4.32 9.84-4.32 4.92 0 6.96 3.48 2.16 3.36 2.16 7.32 0 3.72-1.32 7.2-1.2 3.48-2.52 6.72t-1.32 6.24q0 2.4.96 3.48 1.08 1.08 2.64 1.08 2.76 0 6.12-2.64 3.48-2.64 6.84-6.96a52.7 52.7 0 0 0 5.76-9.6l1.56 1.44q-2.52 5.88-6.12 10.68-3.6 4.68-7.92 7.44t-9 2.76q-4.08 0-6.24-2.16-2.04-2.16-2.04-5.4 0-2.52.96-5.64t1.8-6.36q.96-3.24.96-6.12 0-3.12-1.32-4.44t-3.24-1.32q-3 0-5.4 2.4t-4.44 6.24q-1.92 3.72-3.72 7.92-1.68 4.2-3.24 8.04-1.56 3.72-3.12 6.12t-3.24 2.4q-1.32 0-2.4-1.32t-1.8-3.72q-.6-2.4-.72-5.52-.12-3.24.36-6.84-4.56 8.04-11.28 13.2-6.6 5.16-13.92 5.16m3.48-4.44q6.24 0 12.24-5.52t10.56-15q.84-3.96 1.68-7.56.96-3.6 2.52-8.04-4.08.96-7.8 1.32-3.6.36-6.96.36t-6.36-.36l-6-.96q-2.76 6.36-4.68 13.08t-1.92 13.08q0 5.16 1.56 7.44 1.56 2.16 5.16 2.16m36.6-42.48q4.2-3.36 7.8-8.04 3.72-4.8 6.6-9.72 2.88-5.04 4.44-9.24 1.68-4.32 1.68-6.6 0-.96-.48-.96-.84 0-3.24 2.64t-5.52 7.32q-3 4.68-6 11.04-3 6.24-5.28 13.56"/><path fill="#000" d="M867.741 578.12q-4.68 0-6.96-3-2.28-2.88-2.28-7.08 0-2.76.96-6.96 1.08-4.2 2.76-8.76 1.68-4.68 3.84-8.76 2.28-4.08 4.8-6.6 2.52-2.64 4.92-2.64 1.08 0 1.8.72.84.6.84 1.92 0 1.44-1.92 4.68-1.8 3.24-4.32 7.44t-4.44 8.88q-1.8 4.56-1.8 8.76 0 4.32 1.44 5.76t4.44 1.44q4.08 0 8.64-4.08 4.68-4.08 9.84-14.28l1.08 1.2q-3.48 10.32-10.08 15.84-6.48 5.52-13.56 5.52m14.4-54.96q-1.92 0-3.48-.96-1.44-.96-1.44-3 0-2.52 2.88-4.32 3-1.92 5.88-1.92 1.8 0 2.88.84t1.08 2.88q0 2.28-2.52 4.44-2.4 2.04-5.28 2.04"/><path fill="#000" d="M900.647 581.12q-5.64 0-9-2.52-3.24-2.4-4.56-6-1.44-3.6-1.44-7.2t.96-5.52 2.28-2.88q1.44-.96 2.64-1.44 1.32-.48 1.8-.96 3.6-3.96 6.6-8.28t5.28-9.12v-1.44q0-4.44 1.44-6.24 1.56-1.92 3.24-1.92.96 0 1.44.48t.48 1.08-.36 1.92-.36 3.36q0 3.96 1.56 8.64 1.56 4.56 3.12 9.72 1.56 5.04 1.56 10.56 0 1.56-.24 3.12-.12 1.44-.48 2.76 4.2-.72 7.92-3.72 3.72-3.12 7.2-9.84l1.08 1.2q-2.28 6.6-6.84 10.08-4.56 3.36-9.96 4.2-1.92 5.16-6.12 7.56-4.08 2.4-9.24 2.4m.24-4.2q1.44 0 3.84-.96t3.72-4.92q-5.04-.96-9-3.96-3.84-3-5.76-6-2.64.12-2.64 4.2 0 4.32 2.52 8.04 2.64 3.6 7.32 3.6m8.16-7.8q.24-1.2.36-2.52t.12-3.12q0-5.64-1.44-11.16-1.32-5.64-2.28-10.56-2.76 4.56-5.88 8.76-3 4.08-5.76 6.84 1.8 3.84 5.52 7.2 3.84 3.36 9.36 4.56M446.506 740.6q-1.2 0-2.76-.84-1.56-.72-2.64-3-1.2-2.28-1.2-6.72 0-5.28 1.8-13.8 1.8-8.4 4.92-18.6t7.2-20.88q4.08-10.8 8.76-20.76 4.8-10.08 9.72-18 5.04-8.04 9.84-12.72t9.12-4.68q2.52 0 3.24 1.56.84 1.56.84 3.6 0 5.16-2.88 11.28-2.76 6.12-7.44 12.36a89 89 0 0 1-10.32 11.76q-5.64 5.52-11.4 9.6-.48 1.2-1.08 2.64l-.96 2.64q1.92.72 2.76 3 1.68 5.52 4.56 7.92 2.88 2.28 6.24 2.28 3.84 0 7.8-2.28 4.08-2.4 7.2-5.52 1.68-3.96 3.72-7.44t4.32-5.52q2.28-2.16 4.44-2.16 1.08 0 1.8.72.84.6.84 1.92 0 1.44-1.92 4.68-1.8 3.24-4.32 7.44t-4.44 8.88q-1.8 4.56-1.8 8.76 0 4.32 1.44 5.76t4.44 1.44q4.08 0 8.64-4.08 4.68-4.08 9.84-14.28l1.08 1.2q-3.48 10.32-10.08 15.84-6.48 5.52-13.56 5.52-4.68 0-6.96-3-2.28-2.88-2.28-7.08 0-2.4.72-6 .84-3.72 2.16-7.68a29.8 29.8 0 0 1-7.32 4.44q-3.96 1.56-7.8 1.56-1.8 0-3.96-.48t-4.32-1.44q.24 1.92.36 3.96.12 1.92.12 3.72 0 7.56-1.56 15-1.56 7.56-4.2 13.8t-6 9.96q-3.24 3.72-6.72 3.72m3.12-5.76q1.68 0 3.72-3.6 2.16-3.48 4.08-9.12t3.12-12.12q1.32-6.48 1.32-12.24 0-1.92-.12-4.44t-.96-4.92q-.72-2.52-2.52-3.96-3.24 9.12-5.76 17.88-2.4 8.64-3.84 15.6-1.32 6.96-1.32 11.16 0 5.76 2.28 5.76m15.6-69q7.8-7.2 13.44-14.4 5.76-7.32 8.88-12.96 3.12-5.76 3.12-8.16 0-1.68-1.68-1.68-3.12 0-7.08 5.16-3.96 5.04-8.28 13.44t-8.4 18.6m43.44-10.68q-1.92 0-3.48-.96-1.44-.96-1.44-3 0-1.68 1.32-3.12 1.44-1.44 3.48-2.28t3.96-.84q1.8 0 2.88.84t1.08 2.88q0 2.28-2.52 4.44-2.4 2.04-5.28 2.04"/><path fill="#000" d="M535.389 710.12q-4.08 0-6.48-2.16-2.28-2.16-2.28-5.64 0-3.6 1.68-7.56t3.24-7.8q1.68-3.96 1.68-7.08 0-3.84-2.28-5.64a45 45 0 0 0-4.44-3.48q-2.76 7.08-5.76 13.44t-4.92 9.6l-1.08-2.04q1.68-3.12 4.32-9.12 2.76-6 5.4-13.68-1.2-1.2-1.2-2.88 0-3.6 2.04-5.88t3-2.28q1.32 0 1.44 1.2.24 1.08.24 1.68t-.72 2.4q-.6 1.68-.6 2.04 0 1.68 1.8 3.12 1.92 1.32 4.32 3.12 2.4 1.68 4.2 4.2 1.92 2.4 1.92 6.24 0 3.6-1.56 7.32a118 118 0 0 1-3 7.08q-1.44 3.36-1.44 5.88 0 2.16 1.08 2.88t2.52.72q2.88 0 5.88-1.8 3.12-1.8 6-4.56t5.16-5.76q2.28-3.12 3.36-5.76l1.56 1.2q-2.28 5.04-6.24 9.96-3.96 4.8-8.88 7.92-4.8 3.12-9.96 3.12"/><path fill="#000" d="M568.947 713.12q-5.64 0-9-2.52-3.24-2.4-4.56-6-1.44-3.6-1.44-7.2t.96-5.52 2.28-2.88q1.44-.96 2.64-1.44 1.32-.48 1.8-.96 3.6-3.96 6.6-8.28t5.28-9.12v-1.44q0-4.44 1.44-6.24 1.56-1.92 3.24-1.92.96 0 1.44.48t.48 1.08-.36 1.92-.36 3.36q0 3.96 1.56 8.64 1.56 4.56 3.12 9.72 1.56 5.04 1.56 10.56 0 1.56-.24 3.12-.12 1.44-.48 2.76 4.2-.72 7.92-3.72 3.72-3.12 7.2-9.84l1.08 1.2q-2.28 6.6-6.84 10.08-4.56 3.36-9.96 4.2-1.92 5.16-6.12 7.56-4.08 2.4-9.24 2.4m.24-4.2q1.44 0 3.84-.96t3.72-4.92q-5.04-.96-9-3.96-3.84-3-5.76-6-2.64.12-2.64 4.2 0 4.32 2.52 8.04 2.64 3.6 7.32 3.6m8.16-7.8q.24-1.2.36-2.52t.12-3.12q0-5.64-1.44-11.16-1.32-5.64-2.28-10.56-2.76 4.56-5.88 8.76-3 4.08-5.76 6.84 1.8 3.84 5.52 7.2 3.84 3.36 9.36 4.56"/><path fill="#000" d="M607.915 712.52q-5.16 0-7.92-3t-2.76-8.88q0-5.28 1.92-12.96 2.04-7.8 5.04-15.96-1.2-.24-2.28-.36-1.08-.24-2.04-.6v-2.16q.96.12 2.28.24t3 .24q2.52-6.48 5.4-12.48 2.88-6.12 5.64-10.8 2.88-4.8 5.4-7.56 2.64-2.88 4.44-2.88.96 0 1.68.72.84.6.84 1.92 0 2.04-2.52 6.72a528 528 0 0 1-6.24 10.92q-3.72 6.36-7.2 13.8h4.44q3.96 0 8.28-.12 4.44-.12 8.88-.6v2.16q-6.6.72-11.88 1.08-5.16.36-9.24.36h-1.8q-2.76 6.36-4.68 13.08t-1.92 13.08q0 5.16 1.56 7.44 1.56 2.16 5.16 2.16 6.24 0 12.24-5.52t10.56-15l1.56 1.2q-2.88 6.72-7.32 12.12-4.32 5.4-9.6 8.52t-10.92 3.12"/></svg>