<svg xmlns="http://www.w3.org/2000/svg" width="1080" height="1350" fill="none"><path fill="#000" d="m338.854 416.88 10.08 29.12h-4.12l-3.36-10h-9.6l-3.4 10h-3.36l10.12-29.12zm-2.16 4.88-3.92 11.52h7.76zM355.128 425.8q.28.68.48 1.4t.28 1.44q1.2-1.2 2.84-2.08 1.641-.92 3.36-.92 2.2 0 3.52.92 1.36.92 1.96 2.52.6 1.56.6 3.64V446h-3.28v-12.2q0-1.24-.2-2.44-.16-1.2-.88-1.96-.68-.8-2.28-.8a5.3 5.3 0 0 0-1.96.4q-1 .36-1.88.96t-1.6 1.28V446h-3.28v-14.08q0-.8-.12-1.84-.12-1.08-.4-2.08-.28-1.04-.8-1.72zM382.163 425.68q1.36 0 2.72.44a6.3 6.3 0 0 1 2.36 1.36q-.04-.56-.08-1.08v-8.52l-.56-2.36h3.84v24.76q0 .84.12 1.88t.4 2.04a7.8 7.8 0 0 0 .72 1.72l-3.52.44a14 14 0 0 1-.48-1.36 8.3 8.3 0 0 1-.28-1.36 7.2 7.2 0 0 1-2.6 2.12 7.4 7.4 0 0 1-3.28.76q-2.08 0-3.64-.88a7.9 7.9 0 0 1-2.6-2.36 12.2 12.2 0 0 1-1.52-3.32 14.7 14.7 0 0 1-.48-3.72q0-2.04.52-3.92.56-1.92 1.64-3.4a8.3 8.3 0 0 1 2.8-2.36q1.68-.88 3.92-.88m.08 2.72q-1.56 0-2.64.68a5.2 5.2 0 0 0-1.68 1.8 9.1 9.1 0 0 0-.88 2.48q-.24 1.32-.24 2.64 0 1.36.28 2.72.321 1.32.96 2.44a5.4 5.4 0 0 0 1.76 1.8q1.12.64 2.72.64 1.4 0 2.56-.8 1.2-.84 2.08-1.84v-6.72q0-1.6-.52-2.92-.48-1.32-1.56-2.12t-2.84-.8M407.087 426.12q.88 2.48 1.72 4.96a368 368 0 0 1 1.76 5.08q.44 1.36.88 2.76.48 1.36.92 2.72.44-1.4.88-2.76.48-1.36.92-2.72l1.72-5.08 1.76-4.96h3.12l-7.04 19.96a33 33 0 0 1-1.12 2.72 17.3 17.3 0 0 1-1.6 2.84 8.3 8.3 0 0 1-2.16 2.16 4.72 4.72 0 0 1-2.8.88h-1.52V452h.44q1.68 0 2.76-1a8.1 8.1 0 0 0 1.84-2.44q.72-1.4 1.2-2.72l-7.28-19.72zM431.263 446.52q-2.92 0-4.92-1.44-1.96-1.48-2.96-3.84-.96-2.36-.96-5.04 0-2 .6-3.88.6-1.92 1.76-3.4a8.5 8.5 0 0 1 2.84-2.4q1.72-.88 3.88-.88 2.96 0 4.92 1.44 2 1.44 2.96 3.8 1 2.36 1 5.08 0 2.04-.6 3.96a10.7 10.7 0 0 1-1.76 3.36 8.2 8.2 0 0 1-2.84 2.36q-1.68.88-3.92.88m.04-2.52q1.56 0 2.6-.72a5.56 5.56 0 0 0 1.72-1.96q.68-1.2.96-2.56.28-1.4.28-2.68 0-1.32-.28-2.68a8.8 8.8 0 0 0-.84-2.56q-.6-1.2-1.68-1.92-1.04-.76-2.6-.76t-2.64.76q-1.04.72-1.68 1.92a9.4 9.4 0 0 0-.92 2.6q-.28 1.36-.28 2.64 0 1.24.28 2.64.28 1.36.88 2.56a5.7 5.7 0 0 0 1.68 1.96q1.04.76 2.52.76M448.668 426.12v12.24q0 1.16.199 2.4.2 1.2.88 2 .72.8 2.24.8 1.48 0 2.681-.64a5.3 5.3 0 0 0 2-1.76q.759-1.16.759-2.68v-10q0-.04-.12-.56l-.239-1.12q-.12-.6-.16-.68h3.839v16q0 .76.24 1.12.28.36.841.36t1.52-.36l.72 2.16a7.2 7.2 0 0 1-1.801.68q-.96.28-1.84.28-1.04 0-1.84-.6t-1.04-2.12q-1.16 1.2-2.8 2.04-1.6.84-3.32.84-2.2 0-3.56-.92-1.32-.92-1.919-2.48-.6-1.6-.6-3.68v-10.96l-.521-2.36zM477.436 426.12l3.44 11.56q.16.52.28 1.08.16.56.32 1.36.16-.8.28-1.32.16-.56.32-1.04l3.64-11.64h2.36l3.48 11.56q.16.52.28 1.08.16.56.32 1.36.16-.8.32-1.36t.32-1.08l3.56-11.56h2.96l-6.28 20.12h-2.4a188 188 0 0 0-1.36-4.44q-.681-2.16-1.32-4.44a239 239 0 0 1-1.36-5.08 98 98 0 0 1-1.44 5.08q-.68 2.28-1.4 4.44a894 894 0 0 1-1.44 4.44h-2.44l-5.88-20.12zM507.204 419.44q0 1-.72 1.72-.68.72-1.72.72-1 0-1.72-.72a2.42 2.42 0 0 1-.68-1.72q0-1 .68-1.72.72-.72 1.72-.72t1.72.72.72 1.72m-.72 6.68V446h-3.32v-17.52l-.48-2.36zM516.523 415.52V446h-3.32v-28.16l-.52-2.32zM526.562 415.52V446h-3.32v-28.16l-.52-2.32zM544.7 425.76q.72 1.76.92 3.72 1.04-1.64 2.8-2.68t3.72-1.04l-.8 3.52q-1.92 0-3.28 1-1.32 1-2.36 2.52V446h-3.32v-14.4q0-.8-.12-1.8t-.4-1.96-.76-1.64zM563.885 425.64q2.4 0 4.04 1a5.9 5.9 0 0 1 2.44 2.72q.84 1.72.84 4.04 0 .56-.08 1.16-.04.56-.12 1.2h-12.64q0 3.8 1.68 5.88t4.48 2.08q1.16 0 2.4-.36 1.28-.36 2.64-1.08l1.24 2a9.7 9.7 0 0 1-3.16 1.68q-1.76.56-3.56.56-2.36 0-4.12-.84a8.8 8.8 0 0 1-2.88-2.32 10.5 10.5 0 0 1-1.68-3.32 12.9 12.9 0 0 1-.56-3.76q0-2 .56-3.88a11 11 0 0 1 1.68-3.4 8.3 8.3 0 0 1 2.84-2.44q1.68-.92 3.96-.92m-.32 2.52q-1.36 0-2.4.76a5.7 5.7 0 0 0-1.68 1.96 8.1 8.1 0 0 0-.88 2.4h9.12q.04-1.68-.48-2.8-.48-1.16-1.44-1.72-.92-.6-2.24-.6M582.971 425.64q3.16 0 4.76 1.72t1.6 4.84v9.96q0 .84.32 1.16.32.28.76.28.36 0 .76-.08.4-.12.76-.28l.72 2.16q-.64.36-1.64.64-.96.32-2 .32t-1.88-.56q-.84-.6-1.04-2.16a9.8 9.8 0 0 1-2.72 2.04 7.4 7.4 0 0 1-3.28.76q-2.36 0-3.92-1.4t-1.56-3.84q0-2.28 1.08-3.64 1.119-1.36 2.88-2.04a15.5 15.5 0 0 1 3.72-.92q2-.24 3.72-.24v-2.12q0-1.12-.28-2-.28-.92-1-1.44-.72-.56-2.04-.56-1.52 0-2.92.6t-2.8 1.76l-1.64-2.36a11.3 11.3 0 0 1 3.6-1.96 12.9 12.9 0 0 1 4.04-.64m3.04 11.32q-1.08 0-2.44.12a11 11 0 0 0-2.64.48q-1.28.36-2.12 1.2-.8.84-.8 2.32 0 1.32.88 1.96.92.6 2.28.6 1.44 0 2.52-.8a5.45 5.45 0 0 0 1.68-2.04q.64-1.24.64-2.56zM603.296 425.68q1.36 0 2.72.44a6.3 6.3 0 0 1 2.36 1.36q-.04-.56-.08-1.08v-8.52l-.56-2.36h3.84v24.76q0 .84.12 1.88t.4 2.04a7.8 7.8 0 0 0 .72 1.72l-3.52.44a14 14 0 0 1-.48-1.36 8.3 8.3 0 0 1-.28-1.36 7.2 7.2 0 0 1-2.6 2.12 7.4 7.4 0 0 1-3.28.76q-2.08 0-3.64-.88a7.9 7.9 0 0 1-2.6-2.36 12.2 12.2 0 0 1-1.52-3.32 14.7 14.7 0 0 1-.48-3.72q0-2.04.52-3.92.56-1.92 1.64-3.4a8.3 8.3 0 0 1 2.8-2.36q1.68-.88 3.92-.88m.08 2.72q-1.56 0-2.64.68a5.2 5.2 0 0 0-1.68 1.8 9.1 9.1 0 0 0-.88 2.48q-.24 1.32-.24 2.64 0 1.36.28 2.72.321 1.32.96 2.44a5.4 5.4 0 0 0 1.76 1.8q1.12.64 2.72.64 1.4 0 2.56-.8 1.2-.84 2.08-1.84v-6.72q0-1.6-.52-2.92-.48-1.32-1.56-2.12t-2.84-.8M632.02 420.44a68 68 0 0 0-.52 2.84q-.2 1.44-.28 2.84h5.2l-.68 2.52h-4.52v12.72q0 .76.16 1.36a1.8 1.8 0 0 0 .64.88q.48.28 1.32.28.64 0 1.28-.12t1.24-.28l.56 2.24q-1 .28-1.92.48-.88.24-2.04.24-2.56 0-3.56-1.36t-1-3.8v-12.64h-2.96v-2q1.2-.04 2-.64t1.32-1.52q.519-.96.84-2 .32-1.08.48-2.04zM643.786 415.52v12.96q1.28-1.2 2.76-2.04t3.28-.84q2.2 0 3.52.92t1.92 2.52q.6 1.56.6 3.64V446h-3.28v-12.24q0-1.24-.2-2.4-.16-1.2-.84-2-.681-.8-2.28-.8a5.3 5.3 0 0 0-2 .4q-.96.4-1.84 1t-1.64 1.24V446h-3.28v-28.12l-.52-2.36zM666.501 419.44q0 1-.72 1.72-.68.72-1.72.72-1 0-1.72-.72a2.42 2.42 0 0 1-.68-1.72q0-1 .68-1.72.72-.72 1.72-.72t1.72.72.72 1.72m-.72 6.68V446h-3.32v-17.52l-.48-2.36zM678.9 425.64q1.36 0 2.68.36a7.9 7.9 0 0 1 2.48 1.04l-1.16 2.56a6.1 6.1 0 0 0-1.96-1.08 6.7 6.7 0 0 0-2.12-.36q-1.48 0-2.6.68-1.08.68-1.08 2.04 0 .96.44 1.6.48.64 1.24 1.08t1.64.88q1 .48 2 1 1.04.48 1.88 1.2a5 5 0 0 1 1.4 1.68q.56.96.56 2.4 0 2-1 3.32-.96 1.28-2.56 1.88-1.56.6-3.4.6a12 12 0 0 1-3.2-.44 12.2 12.2 0 0 1-2.96-1.24l1.4-2.44q.96.72 2.16 1.16t2.32.44q1.52 0 2.64-.72 1.16-.72 1.16-2.16 0-1-.64-1.64-.6-.68-1.56-1.2t-2-1q-1.2-.6-2.36-1.28a6.2 6.2 0 0 1-1.84-1.8q-.72-1.08-.72-2.76 0-1.92 1-3.2 1.04-1.28 2.68-1.92a9 9 0 0 1 3.48-.68M702.226 415.52V446h-3.32v-28.16l-.52-2.32zM715.705 425.64q3.16 0 4.76 1.72t1.6 4.84v9.96q0 .84.32 1.16.32.28.76.28.36 0 .76-.08.4-.12.76-.28l.72 2.16q-.64.36-1.64.64-.96.32-2 .32t-1.88-.56q-.84-.6-1.04-2.16a9.8 9.8 0 0 1-2.72 2.04 7.4 7.4 0 0 1-3.28.76q-2.36 0-3.92-1.4t-1.56-3.84q0-2.28 1.08-3.64 1.12-1.36 2.88-2.04a15.5 15.5 0 0 1 3.72-.92q2-.24 3.72-.24v-2.12q0-1.12-.28-2-.28-.92-1-1.44-.72-.56-2.04-.56-1.52 0-2.92.6t-2.8 1.76l-1.64-2.36a11.3 11.3 0 0 1 3.6-1.96 13 13 0 0 1 4.04-.64m3.04 11.32q-1.08 0-2.44.12a11 11 0 0 0-2.64.48q-1.28.36-2.12 1.2-.8.84-.8 2.32 0 1.32.88 1.96.92.6 2.28.6 1.44 0 2.52-.8a5.45 5.45 0 0 0 1.68-2.04q.64-1.24.64-2.56zM735.111 425.64q1.36 0 2.68.36a7.9 7.9 0 0 1 2.48 1.04l-1.16 2.56a6.1 6.1 0 0 0-1.96-1.08 6.7 6.7 0 0 0-2.12-.36q-1.48 0-2.6.68-1.08.68-1.08 2.04 0 .96.44 1.6.48.64 1.24 1.08t1.64.88q1 .48 2 1 1.04.48 1.88 1.2a5 5 0 0 1 1.4 1.68q.56.96.56 2.4 0 2-1 3.32-.96 1.28-2.56 1.88-1.56.6-3.4.6a12 12 0 0 1-3.2-.44 12.2 12.2 0 0 1-2.96-1.24l1.4-2.44q.96.72 2.16 1.16t2.32.44q1.52 0 2.64-.72 1.16-.72 1.16-2.16 0-1-.64-1.64-.6-.68-1.56-1.2t-2-1q-1.2-.6-2.36-1.28a6.2 6.2 0 0 1-1.84-1.8q-.72-1.08-.72-2.76 0-1.92 1-3.2 1.04-1.28 2.68-1.92a9 9 0 0 1 3.48-.68M750.418 420.44a68 68 0 0 0-.52 2.84q-.2 1.44-.28 2.84h5.2l-.68 2.52h-4.52v12.72q0 .76.16 1.36.2.56.64.88.48.28 1.32.28.64 0 1.28-.12t1.24-.28l.56 2.24q-1 .28-1.92.48-.88.24-2.04.24-2.56 0-3.56-1.36t-1-3.8v-12.64h-2.96v-2q1.2-.04 2-.64t1.32-1.52q.52-.96.84-2 .32-1.08.48-2.04zM322.841 778.027h-10.152v-3.243h24.91v3.243h-10.293V809h-4.465zM346.911 773.186v15.228a17 17 0 0 1 3.243-2.397q1.739-.987 3.854-.987 2.585 0 4.136 1.081 1.551 1.082 2.256 2.961.705 1.833.705 4.277V809h-3.854v-14.382q0-1.456-.235-2.82-.187-1.41-.987-2.35t-2.679-.94q-1.175 0-2.35.47-1.128.47-2.162 1.175t-1.927 1.457V809h-3.854v-33.041l-.611-2.773zM378.066 785.077q2.82 0 4.747 1.175 1.927 1.128 2.867 3.196.987 2.021.987 4.747 0 .658-.094 1.363-.046.659-.141 1.41H371.58q0 4.466 1.974 6.909 1.974 2.444 5.264 2.444 1.364 0 2.82-.423 1.504-.423 3.102-1.269l1.457 2.35a11.5 11.5 0 0 1-3.713 1.974 13.7 13.7 0 0 1-4.183.658q-2.773 0-4.841-.987a10.3 10.3 0 0 1-3.384-2.726 12.4 12.4 0 0 1-1.974-3.901 15 15 0 0 1-.658-4.418q0-2.35.658-4.559a12.9 12.9 0 0 1 1.974-3.995 9.8 9.8 0 0 1 3.337-2.867q1.974-1.081 4.653-1.081m-.376 2.961q-1.598 0-2.82.893a6.7 6.7 0 0 0-1.974 2.303 9.6 9.6 0 0 0-1.034 2.82h10.716q.047-1.974-.564-3.29-.564-1.363-1.692-2.021-1.081-.705-2.632-.705M395.557 785.265q.328.8.564 1.645.234.846.329 1.692 1.41-1.41 3.337-2.444 1.926-1.081 3.948-1.081 2.585 0 4.136 1.081 1.598 1.082 2.303 2.961.705 1.833.705 4.277V809h-3.854v-14.335q0-1.457-.235-2.867-.188-1.41-1.034-2.303-.8-.94-2.679-.94-1.128 0-2.303.47a9.8 9.8 0 0 0-2.209 1.128q-1.034.705-1.88 1.504V809h-3.854v-16.544q0-.94-.141-2.162a15.4 15.4 0 0 0-.47-2.444q-.33-1.222-.94-2.021zM431.34 785.641a433 433 0 0 1 2.021 5.828 446 446 0 0 1 2.068 5.969q.516 1.597 1.034 3.243.564 1.598 1.081 3.196.516-1.645 1.034-3.243.564-1.598 1.081-3.196l2.021-5.969 2.068-5.828h3.666l-8.272 23.453a39 39 0 0 1-1.316 3.196 20.4 20.4 0 0 1-1.88 3.337q-1.081 1.551-2.538 2.538-1.457 1.034-3.29 1.034h-1.786v-3.149h.5169999999999999q1.974 0 3.243-1.175 1.316-1.175 2.162-2.867a28 28 0 0 0 1.41-3.196l-8.554-23.171zM460.217 809.611q-3.43 0-5.781-1.692-2.303-1.739-3.478-4.512-1.128-2.774-1.128-5.922 0-2.35.705-4.559.705-2.256 2.068-3.995a10 10 0 0 1 3.337-2.82q2.02-1.034 4.559-1.034 3.479 0 5.781 1.692 2.35 1.692 3.478 4.465 1.175 2.773 1.175 5.969 0 2.397-.705 4.653a12.5 12.5 0 0 1-2.068 3.948q-1.316 1.739-3.337 2.773-1.974 1.034-4.606 1.034m.047-2.961q1.833 0 3.055-.846a6.5 6.5 0 0 0 2.021-2.303q.8-1.41 1.128-3.008.329-1.645.329-3.149 0-1.551-.329-3.149a10.3 10.3 0 0 0-.987-3.008 5.75 5.75 0 0 0-1.974-2.256q-1.222-.893-3.055-.893t-3.102.893q-1.222.846-1.974 2.256t-1.081 3.055a15.4 15.4 0 0 0-.329 3.102q0 1.457.329 3.102a12.2 12.2 0 0 0 1.034 3.008 6.7 6.7 0 0 0 1.974 2.303q1.223.893 2.961.893M481.137 785.641v14.382q0 1.364.235 2.82.235 1.41 1.034 2.35.846.94 2.632.94 1.739 0 3.149-.752a6.25 6.25 0 0 0 2.35-2.068q.893-1.363.893-3.149v-11.75q0-.047-.141-.658l-.282-1.316q-.141-.705-.188-.799h4.512v18.8q0 .893.282 1.316.329.423.987.423t1.786-.423l.846 2.538a8.5 8.5 0 0 1-2.115.799 7.7 7.7 0 0 1-2.162.329 3.5 3.5 0 0 1-2.162-.705q-.94-.705-1.222-2.491-1.363 1.41-3.29 2.397-1.88.987-3.901.987-2.585 0-4.183-1.081-1.551-1.081-2.256-2.914-.705-1.88-.705-4.324v-12.878l-.611-2.773zM515.88 785.641l4.042 13.583q.188.61.329 1.269.187.658.376 1.598.188-.94.329-1.551.187-.658.376-1.222l4.277-13.677h2.773l4.089 13.583q.188.61.329 1.269.187.658.376 1.598.187-.94.376-1.598.187-.659.376-1.269l4.183-13.583h3.478l-7.379 23.641h-2.82a222 222 0 0 0-1.598-5.217 172 172 0 0 1-1.551-5.217 280 280 0 0 1-1.598-5.969 115 115 0 0 1-1.692 5.969 173 173 0 0 1-1.645 5.217 924 924 0 0 1-1.692 5.217h-2.867l-6.909-23.641zM551.327 777.792q0 1.175-.846 2.021-.799.846-2.021.846-1.175 0-2.021-.846a2.84 2.84 0 0 1-.799-2.021q0-1.175.799-2.021.846-.846 2.021-.846t2.021.846.846 2.021m-.846 7.849V809h-3.901v-20.586l-.564-2.773zM562.747 773.186V809h-3.901v-33.088l-.611-2.726zM575.013 773.186V809h-3.901v-33.088l-.611-2.726zM597.265 785.218a15.7 15.7 0 0 1 1.081 4.371q1.222-1.927 3.29-3.149t4.371-1.222l-.94 4.136q-2.256 0-3.854 1.175-1.55 1.175-2.773 2.961V809h-3.901v-16.92q0-.94-.141-2.115a14.3 14.3 0 0 0-.47-2.303q-.329-1.128-.893-1.927zM620.278 785.077q2.82 0 4.747 1.175 1.926 1.128 2.867 3.196.987 2.021.987 4.747 0 .658-.094 1.363-.048.659-.141 1.41h-14.852q0 4.466 1.974 6.909 1.974 2.444 5.264 2.444 1.362 0 2.82-.423 1.503-.423 3.102-1.269l1.457 2.35a11.5 11.5 0 0 1-3.713 1.974 13.7 13.7 0 0 1-4.183.658q-2.774 0-4.841-.987a10.3 10.3 0 0 1-3.384-2.726 12.4 12.4 0 0 1-1.974-3.901 15 15 0 0 1-.658-4.418q0-2.35.658-4.559a12.8 12.8 0 0 1 1.974-3.995 9.75 9.75 0 0 1 3.337-2.867q1.974-1.081 4.653-1.081m-.376 2.961q-1.599 0-2.82.893a6.7 6.7 0 0 0-1.974 2.303 9.6 9.6 0 0 0-1.034 2.82h10.716q.046-1.974-.564-3.29-.564-1.363-1.692-2.021-1.081-.705-2.632-.705M643.173 785.077q3.713 0 5.593 2.021t1.88 5.687v11.703q0 .987.376 1.363.376.329.893.329.423 0 .893-.094a8 8 0 0 0 .893-.329l.846 2.538q-.752.423-1.927.752a7.4 7.4 0 0 1-2.35.376 3.9 3.9 0 0 1-2.209-.658q-.987-.705-1.222-2.538a11.6 11.6 0 0 1-3.196 2.397 8.7 8.7 0 0 1-3.854.893q-2.773 0-4.606-1.645t-1.833-4.512q0-2.68 1.269-4.277 1.315-1.598 3.384-2.397a18.2 18.2 0 0 1 4.371-1.081 37 37 0 0 1 4.371-.282v-2.491q0-1.316-.329-2.35-.329-1.082-1.175-1.692-.846-.658-2.397-.658a8.6 8.6 0 0 0-3.431.705q-1.645.705-3.29 2.068l-1.927-2.773a13.3 13.3 0 0 1 4.23-2.303 15.2 15.2 0 0 1 4.747-.752m3.572 13.301q-1.27 0-2.867.141a13 13 0 0 0-3.102.564q-1.504.423-2.491 1.41-.94.987-.94 2.726 0 1.551 1.034 2.303 1.082.705 2.679.705 1.692 0 2.961-.94a6.4 6.4 0 0 0 1.974-2.397q.752-1.457.752-3.008zM667.526 785.124q1.597 0 3.196.517a7.4 7.4 0 0 1 2.773 1.598l-.094-1.269v-10.011000000000001l-.658-2.773h4.512v29.093q0 .987.141 2.209.14 1.223.47 2.397a9 9 0 0 0 .846 2.021l-4.136.517a16 16 0 0 1-.564-1.598 9.6 9.6 0 0 1-.329-1.598 8.45 8.45 0 0 1-3.055 2.491 8.7 8.7 0 0 1-3.854.893q-2.444 0-4.277-1.034a9.2 9.2 0 0 1-3.055-2.773 14.2 14.2 0 0 1-1.786-3.901 17.2 17.2 0 0 1-.564-4.371q0-2.397.611-4.606.657-2.256 1.927-3.995a9.7 9.7 0 0 1 3.29-2.773q1.974-1.034 4.606-1.034m.094 3.196q-1.833 0-3.102.799a6.1 6.1 0 0 0-1.974 2.115q-.705 1.316-1.034 2.914a17.3 17.3 0 0 0-.282 3.102q0 1.598.329 3.196a10.9 10.9 0 0 0 1.128 2.867 6.36 6.36 0 0 0 2.068 2.115q1.315.752 3.196.752a5.2 5.2 0 0 0 3.008-.94 13.7 13.7 0 0 0 2.444-2.162v-7.896q0-1.88-.611-3.431-.564-1.55-1.833-2.491-1.27-.94-3.337-.94M702.216 778.967a79 79 0 0 0-.611 3.337 41 41 0 0 0-.329 3.337h6.11l-.799 2.961h-5.311v14.946q0 .893.188 1.598.234.658.752 1.034.564.329 1.551.329.751 0 1.504-.141.752-.141 1.457-.329l.658 2.632q-1.176.329-2.256.564-1.034.282-2.397.282-3.008 0-4.183-1.598-1.176-1.598-1.175-4.465v-14.852h-3.478v-2.35q1.41-.047 2.35-.752a5.7 5.7 0 0 0 1.551-1.786q.61-1.128.987-2.35.376-1.269.564-2.397zM716.511 773.186v15.228a17 17 0 0 1 3.243-2.397q1.739-.987 3.854-.987 2.585 0 4.136 1.081 1.551 1.082 2.256 2.961.705 1.833.705 4.277V809h-3.854v-14.382q0-1.456-.235-2.82-.189-1.41-.987-2.35-.8-.94-2.679-.94a6.3 6.3 0 0 0-2.35.47q-1.128.47-2.162 1.175t-1.927 1.457V809h-3.854v-33.041l-.611-2.773zM743.671 777.792q0 1.175-.846 2.021-.799.846-2.021.846-1.175 0-2.021-.846a2.84 2.84 0 0 1-.799-2.021q0-1.175.799-2.021.846-.846 2.021-.846t2.021.846.846 2.021m-.846 7.849V809h-3.901v-20.586l-.564-2.773zM758.71 785.077q1.598 0 3.149.423a9.3 9.3 0 0 1 2.914 1.222l-1.363 3.008a7.2 7.2 0 0 0-2.303-1.269 7.9 7.9 0 0 0-2.491-.423q-1.739 0-3.055.799-1.269.8-1.269 2.397 0 1.128.517 1.88.564.752 1.457 1.269t1.927 1.034q1.175.564 2.35 1.175a9.5 9.5 0 0 1 2.209 1.41 5.9 5.9 0 0 1 1.645 1.974q.658 1.128.658 2.82 0 2.35-1.175 3.901-1.128 1.504-3.008 2.209-1.833.705-3.995.705-1.88 0-3.76-.517a14.3 14.3 0 0 1-3.478-1.457l1.645-2.867a9.9 9.9 0 0 0 2.538 1.363q1.41.517 2.726.517 1.786 0 3.102-.846 1.363-.846 1.363-2.538 0-1.175-.752-1.927-.705-.8-1.833-1.41a41 41 0 0 0-2.35-1.175q-1.41-.705-2.773-1.504a7.3 7.3 0 0 1-2.162-2.115q-.846-1.269-.846-3.243 0-2.256 1.175-3.76 1.222-1.505 3.149-2.256a10.6 10.6 0 0 1 4.089-.799M132.169 524.24q2.16 0 7.8-10.2 5.76-10.32 11.64-20.64 6-10.32 8.52-10.32t4.08 1.8 1.56 4.32-4.56 10.08-12.24 20.04q-7.68 12.36-15.36 26.88t-10.56 18.12-4.68 3.6q-2.64 0-2.64-4.32 0-3.36 3.36-10.2 1.08-2.04 1.68-3.36.6-1.44 1.92-3.96t2.04-3.84l2.16-4.32q1.56-3 2.28-4.32-7.08-1.8-13.08-8.88a53.3 53.3 0 0 1-9-15.96q-3.12-8.88-3.12-17.28t4.8-8.4q1.92 0 3 3.72 1.2 3.72 2.88 10.68t4.44 12.84q2.76 5.76 6.6 9.84t6.48 4.08M201.912 528.08q0-4.08-1.32-7.68-1.32-3.72-3.84-5.4-8.28 2.28-14.28 12.84-5.88 10.44-5.88 19.68t4.56 11.52q8.64-1.68 14.64-11.76 6.12-10.2 6.12-19.2m-31.56 1.08q4.2-9.36 10.92-15.36 6.84-6.12 13.92-6.12 7.2 0 12 6.12 4.8 6 4.8 14.76 0 8.64-4.2 17.76-4.2 9-11.64 15-7.32 5.88-15.6 5.88-6.12 0-10.2-5.64t-4.08-14.28q0-8.76 4.08-18.12M262.527 511.04q.48-1.92.96-2.64t2.04-.72q1.68 0 3.96 3.12 2.4 3.12 2.4 6 0 1.56-5.28 18.48t-8.16 26.88q-1.44 5.04-4.08 5.04-1.56 0-2.64-1.32t-1.08-4.8 2.76-12.6q-5.04 8.16-10.92 13.44t-10.8 5.28q-4.8 0-9.12-4.56t-4.32-9.36q0-11.4 6.6-28.44 6.72-17.16 11.16-17.16 2.16 0 3.72 2.04 1.68 1.92 1.68 4.44 0 1.08-3.24 7.8-3.24 6.6-6.48 15.6-3.24 8.88-3.24 15.6 0 1.92 1.2 3.24 1.2 1.2 2.88 1.2 4.56 0 10.8-8.04 6.36-8.04 11.52-18.72t7.68-19.8M374.225 520.4l-.84 22.56q0 9.36.84 13.56 5.16-5.4 8.88-12.6 3.84-7.32 5.64-13.56 1.92-6.24 3.24-11.64 1.44-5.52 2.64-8.76t2.76-3.24q2.28 0 4.08 1.92 1.8 1.8 1.8 4.2 0 6.12-5.52 20.16-4.68 12.96-12.24 23.76-7.56 10.68-11.76 10.68t-6.36-4.68q-2.04-4.68-2.28-17.88-.24-13.32.36-23.04-8.28 22.56-14.64 34.08t-10.08 11.52q-1.68 0-3.6-1.56-1.8-1.56-2.88-4.08-2.64-6.36-4.56-24.24-1.8-18-1.8-25.68 0-4.92 3-4.92 2.64 0 4.8 3 2.28 3 2.64 6 .36 2.88.6 16.32.36 13.32 2.28 23.76 4.92-8.52 9.84-21.36 5.04-12.84 8.16-20.16 3.24-7.32 5.88-7.32 3.96 0 6.48 3.72 2.64 3.6 2.64 9.48M422.087 490.64q0-2.4 1.92-4.56t3.84-2.16q2.04 0 4.8 4.92 2.76 4.8 2.76 8.04 0 1.2-1.08 2.16t-2.28.96q-2.88 0-6.48-3.48-3.48-3.48-3.48-5.88m-.6 17.04q2.28 0 4.32 2.76t2.04 5.4-3.48 15.84q-3.48 13.08-8.76 29.4-2.04 6-5.16 6-1.68 0-2.88-1.32-1.2-1.44-1.2-3.12 0-1.8.84-5.52.96-3.84 2.64-10.08 1.8-6.36 2.76-10.32 1.08-3.96 2.16-8.88 1.08-5.04 1.68-8.04.72-3.12 1.56-6.24 1.68-5.88 3.48-5.88M458.961 484.16q0 22.56-9.36 58.56-6 24.48-8.4 24.48-1.68 0-3.96-2.64-2.16-2.64-2.16-4.08t3.48-14.88 6.96-33q3.48-19.68 3.48-35.4 0-1.68.48-2.4t2.04-.72 4.44 3.48q3 3.36 3 6.6M488.375 484.16q0 22.56-9.36 58.56-6 24.48-8.4 24.48-1.68 0-3.96-2.64-2.16-2.64-2.16-4.08t3.48-14.88 6.96-33q3.48-19.68 3.48-35.4 0-1.68.48-2.4t2.04-.72 4.44 3.48q3 3.36 3 6.6M549.513 522.32l-.36-9q0-5.64 2.64-5.64 2.28 0 4.32 3 2.16 2.88 2.16 6.96 0 3.96-.24 6 10.44-15.84 19.8-15.84 5.88 0 5.88 2.88 0 1.44-1.32 2.64t-4.2 2.76q-6.36 2.76-10.8 8.52-4.32 5.64-7.08 12.84t-4.44 12.12q-1.56 4.92-2.4 7.68t-1.92 5.4q-1.92 4.8-4.44 4.8-2.04 0-3.36-2.28-1.2-2.4-1.2-4.56 0-2.28 2.04-8.88 4.92-15.12 4.92-29.4M629.919 527.6q0 6.36-6.96 10.44-6.84 3.96-15.6 3.96-8.64 0-15.72-1.92-1.68 5.28-1.68 9.48 0 4.08 2.52 6.36 2.64 2.28 8.52 2.28 6 0 12.24-2.04 6.36-2.16 6.96-2.16 3.12 0 3.12 2.4 0 3.24-7.32 7.08-7.32 3.72-14.28 3.72-9.36 0-15.24-5.52-5.88-5.64-5.88-14.16t4.56-17.76q4.56-9.36 11.76-15.72t14.28-6.36 12.84 6.72q5.88 6.72 5.88 13.2m-18.12-10.44q-4.44 0-9.24 4.68-4.8 4.56-8.16 11.4 4.8 1.08 10.92 1.08t10.68-1.92q4.56-2.04 4.56-5.28t-3-6.6q-2.88-3.36-5.76-3.36M667.983 507.68q5.4 0 9.96 5.52 4.56 5.4 4.56 9.84 0 4.32-3 8.88 1.44 1.8 1.44 3.12 0 3.36-1.56 11.52-1.44 8.16-1.8 10.68-.24 2.52-.48 4.08-.24 1.44-.6 2.88-.48 3-2.16 3-2.16 0-3.6-3.72-1.32-3.84-1.56-9.84-10.68 13.56-19.8 13.56-5.52 0-10.92-4.68-5.28-4.8-5.28-9.84 0-7.2 5.28-17.76 5.28-10.68 13.68-18.96t15.84-8.28m5.52 21.12q0-11.16-4.44-11.16-4.68 0-10.92 6.72-6.24 6.6-10.56 15t-4.32 13.32q0 2.04 1.68 3.36 1.68 1.2 3.96 1.2 5.64 0 12.72-7.56 7.08-7.68 9.84-18.6.36-1.8 2.04-2.16zM743.673 474.08q1.92 0 4.68 3.6 2.88 3.48 2.88 6.6t-3 17.76q-3 14.52-6.96 30.12-8.64 35.04-11.4 35.04-1.68 0-3.72-2.04-1.92-2.16-1.92-3.72t.84-6.24q-11.76 12-20.52 12-5.28 0-9.6-4.8-4.2-4.8-4.2-9.96 0-7.44 3.96-17.64 4.08-10.32 11.64-18.72t16.08-8.4 11.88 10.2q6.12-25.44 6.72-40.2 0-3.6 2.64-3.6m-13.2 58.92q0-6.48-2.28-10.92-2.16-4.44-5.28-4.44-5.16 0-10.56 6.36t-8.64 14.64q-3.12 8.16-3.12 14.16 0 2.16 1.56 3.48t3.72 1.32q4.68 0 12.6-6.72 8.04-6.72 11.64-15.84l.36-1.44zM813.8 555.2q0 2.28 2.64 2.28 4.56 0 11.04-2.52 6.6-2.64 7.32-2.64 2.16 0 2.16 2.28 0 3.48-7.2 8.04-7.08 4.56-12.96 4.56-5.76 0-9.6-3.12-3.84-3.24-3.84-6.6t1.44-8.52q1.44-5.28 4.08-13.8 2.76-8.64 4.32-14.28-5.64 1.32-7.56 1.32t-3.84-1.92q-1.8-2.04-1.8-3.84 0-2.88 15.6-5.52 2.16-9.96 2.16-17.64 0-3.6 2.4-3.6 2.04 0 5.04 2.64 3 2.52 3 5.76t-2.04 11.4q6.84-.6 10.92-.6 7.2 0 7.2 3.12 0 1.8-3.96 3-3.84 1.2-16.32 3.72-2.52 9.48-6.36 21.72-3.84 12.12-3.84 14.76M860.926 478.76q0-4.68 2.88-4.68 2.28 0 4.8 3.6 2.64 3.6 2.64 6.96 0 7.8-3.96 26.64-3.84 18.72-10.08 37.44 12-21.72 20.04-31.32 8.16-9.72 13.92-9.72 3.12 0 7.2 5.4 4.2 5.4 4.2 10.8t-3 16.2q-7.44 27.12-14.04 27.12-2.64 0-2.64-3.6t2.88-12.12q6.36-18.6 6.36-25.08 0-2.16-1.08-3.6t-2.64-1.44-3.84 1.68-5.52 5.88q-4.08 5.4-8.52 12.12-4.32 6.72-5.28 8.16-.84 1.32-3.12 4.92l-3.24 5.4q-1.08 1.68-2.64 3.72-2.76 3.96-4.2 3.96t-3.84-2.64q-2.4-2.76-2.4-4.56 0-1.92 1.32-7.08 6-23.04 7.56-31.56 6.24-31.2 6.24-42.6M926.462 490.64q0-2.4 1.92-4.56t3.84-2.16q2.04 0 4.8 4.92 2.76 4.8 2.76 8.04 0 1.2-1.08 2.16t-2.28.96q-2.88 0-6.48-3.48-3.48-3.48-3.48-5.88m-.6 17.04q2.28 0 4.32 2.76t2.04 5.4-3.48 15.84q-3.48 13.08-8.76 29.4-2.04 6-5.16 6-1.68 0-2.88-1.32-1.2-1.44-1.2-3.12 0-1.8.84-5.52.96-3.84 2.64-10.08 1.8-6.36 2.76-10.32 1.08-3.96 2.16-8.88 1.08-5.04 1.68-8.04.72-3.12 1.56-6.24 1.68-5.88 3.48-5.88M974.016 507.68q4.08 0 7.68 4.56 3.6 4.44 3.6 7.8 0 2.04-1.92 2.04-1.32 0-4.08-2.04-2.76-2.16-5.64-2.16t-9.12 3.36q-6.12 3.36-6.12 7.08 0 2.76 11.04 9.48 4.2 2.64 7.56 6.84 3.48 4.08 3.48 8.88 0 4.68-6.6 9.24-6.48 4.44-15.24 4.44-8.64 0-15.36-4.2-6.6-4.2-6.6-7.92 0-1.56.72-2.4.84-.96 2.04-.96t3.36 1.56q6.48 4.68 13.44 4.68 7.08 0 10.2-1.56 3.12-1.68 3.12-4.32 0-2.76-3.48-5.76a44.6 44.6 0 0 0-7.68-5.52q-4.08-2.4-7.56-5.88t-3.48-7.08q0-6.36 9.96-13.2 10.08-6.96 16.68-6.96M456.607 695.72q-1.8 3.72-3.12 3.72t-3.24-2.16q-1.92-2.28-1.92-3.84t1.32-6.12q5.76-19.32 8.4-31.44-6 1.08-7.68 1.08t-3.6-1.8-1.92-3.72q0-2.04 4.2-3.24 4.32-1.2 11.28-2.4.48-2.4 1.44-7.68 2.88-16.92 7.68-24 4.8-7.2 13.32-7.2 6.36 0 13.32 5.88 6.96 5.76 6.96 11.76 0 5.88-3 5.88-2.16 0-5.16-3.48-2.88-3.6-6.12-7.08-3.12-3.6-5.76-3.6-6.12 0-11.64 24.96l-.72 3.12q15-1.92 22.68-1.92 7.8 0 7.8 5.88 0 3.24-5.4 20.4-5.4 17.04-7.32 23.76-1.92 6.6-5.04 6.6-1.8 0-3-1.56a6.74 6.74 0 0 1-1.08-3.72q0-2.16 2.04-9.96 2.04-7.92 4.8-18 2.76-10.2 3.84-14.88-5.28.24-21.72 3.12-8.28 34.56-11.64 41.64M514.005 654.32l-.36-9q0-5.64 2.64-5.64 2.28 0 4.32 3 2.16 2.88 2.16 6.96 0 3.96-.24 6 10.44-15.84 19.8-15.84 5.88 0 5.88 2.88 0 1.44-1.32 2.64t-4.2 2.76q-6.36 2.76-10.8 8.52-4.32 5.64-7.08 12.84t-4.44 12.12q-1.56 4.92-2.4 7.68t-1.92 5.4q-1.92 4.8-4.44 4.8-2.04 0-3.36-2.28-1.2-2.4-1.2-4.56 0-2.28 2.04-8.88 4.92-15.12 4.92-29.4M580.852 639.68q4.08 0 7.68 4.56 3.6 4.44 3.6 7.8 0 2.04-1.92 2.04-1.32 0-4.08-2.04-2.76-2.16-5.64-2.16t-9.12 3.36q-6.12 3.36-6.12 7.08 0 2.76 11.04 9.48 4.2 2.64 7.56 6.84 3.48 4.08 3.48 8.88 0 4.68-6.6 9.24-6.48 4.44-15.24 4.44-8.64 0-15.36-4.2-6.6-4.2-6.6-7.92 0-1.56.72-2.4.84-.96 2.04-.96t3.36 1.56q6.48 4.68 13.44 4.68 7.08 0 10.2-1.56 3.12-1.68 3.12-4.32 0-2.76-3.48-5.76a44.6 44.6 0 0 0-7.68-5.52q-4.08-2.4-7.56-5.88t-3.48-7.08q0-6.36 9.96-13.2 10.08-6.96 16.68-6.96M611.065 687.2q0 2.28 2.64 2.28 4.56 0 11.04-2.52 6.6-2.64 7.32-2.64 2.16 0 2.16 2.28 0 3.48-7.2 8.04-7.08 4.56-12.96 4.56-5.76 0-9.6-3.12-3.84-3.24-3.84-6.6t1.44-8.52q1.44-5.28 4.08-13.8 2.76-8.64 4.32-14.28-5.64 1.32-7.56 1.32t-3.84-1.92q-1.8-2.04-1.8-3.84 0-2.88 15.6-5.52 2.16-9.96 2.16-17.64 0-3.6 2.4-3.6 2.04 0 5.04 2.64 3 2.52 3 5.76t-2.04 11.4q6.84-.6 10.92-.6 7.2 0 7.2 3.12 0 1.8-3.96 3-3.84 1.2-16.32 3.72-2.52 9.48-6.36 21.72-3.84 12.12-3.84 14.76"/></svg>