<svg xmlns="http://www.w3.org/2000/svg" width="1080" height="1350" fill="none"><path fill="#000" d="M305.878 444q-.32 0-.56-.24a.77.77 0 0 1-.24-.56q0-.2.04-.44l9.92-25.88q.16-.4.44-.64t.84-.24h2.72q.52 0 .8.24.32.24.48.64l9.88 25.88q.08.24.08.44 0 .32-.24.56a.77.77 0 0 1-.56.24h-2.04q-.48 0-.72-.24a1.7 1.7 0 0 1-.28-.44l-2.2-5.68h-13.12l-2.2 5.68q-.04.2-.28.44t-.72.24zm6.4-9.8h10.8l-5.4-14.2zM334.955 444a1 1 0 0 1-.68-.24 1 1 0 0 1-.24-.68v-18.96q0-.4.24-.64a.93.93 0 0 1 .68-.28h1.88q.4 0 .64.28a.8.8 0 0 1 .28.64v1.76a8 8 0 0 1 2.6-2.2q1.6-.88 4.08-.88 2.6 0 4.4 1.16 1.84 1.12 2.76 3.16.92 2.001.92 4.68v11.28q0 .4-.24.68-.24.24-.64.24h-2a1 1 0 0 1-.68-.24 1 1 0 0 1-.24-.68V432q0-2.8-1.36-4.36-1.36-1.6-4-1.6-2.48 0-4 1.6-1.48 1.56-1.48 4.36v11.08a.92.92 0 0 1-.28.68q-.24.24-.64.24zM365.893 444.4q-2.2 0-3.8-.76-1.6-.8-2.64-2.12a10 10 0 0 1-1.52-3.08 16 16 0 0 1-.56-3.64q-.04-.639-.04-1.2t.04-1.2q.08-1.88.56-3.6a10 10 0 0 1 1.52-3.08 7.1 7.1 0 0 1 2.64-2.12q1.6-.8 3.8-.8 2.36 0 3.92.84t2.56 2.08v-9.2q0-.4.24-.64a.93.93 0 0 1 .68-.28h1.92q.4 0 .64.28.28.24.28.64v26.56a.93.93 0 0 1-.28.68q-.24.24-.64.24h-1.8q-.44 0-.68-.24a1 1 0 0 1-.24-.68v-1.68q-1 1.281-2.6 2.16-1.6.84-4 .84m.84-3.24q2 0 3.2-.92a5.7 5.7 0 0 0 1.8-2.32q.6-1.44.64-2.92.04-.64.04-1.52 0-.92-.04-1.56a6.9 6.9 0 0 0-.68-2.76 5.37 5.37 0 0 0-1.84-2.24q-1.2-.88-3.12-.88-2.04 0-3.24.92-1.2.88-1.72 2.36-.52 1.44-.6 3.12a33 33 0 0 0 0 2.32q.08 1.68.6 3.16.52 1.44 1.72 2.36 1.2.88 3.24.88M394.433 451.6q-.32 0-.56-.24a.77.77 0 0 1-.24-.56q0-.16.04-.32t.16-.4l3.08-7.32-7.64-18.04q-.2-.48-.2-.68 0-.36.24-.6t.6-.24h1.96q.4 0 .64.2a.97.97 0 0 1 .32.48l6.08 14.56 6.24-14.56q.12-.279.32-.48.24-.2.68-.2h1.88q.36 0 .6.24t.24.56q0 .201-.2.72l-11.36 26.2q-.12.28-.36.48-.2.2-.64.2zM420.641 444.4q-3.04 0-5.08-1.16a7.83 7.83 0 0 1-3.12-3.2q-1.08-2.08-1.2-4.72a30 30 0 0 1-.04-1.72q0-1.08.04-1.72.12-2.68 1.2-4.72a8.1 8.1 0 0 1 3.16-3.2q2.04-1.16 5.04-1.16t5.04 1.16a7.84 7.84 0 0 1 3.12 3.2q1.12 2.04 1.24 4.72.04.64.04 1.72 0 1.04-.04 1.72-.12 2.64-1.2 4.72a7.83 7.83 0 0 1-3.12 3.2q-2.04 1.16-5.08 1.16m0-3.08q2.48 0 3.96-1.56 1.48-1.6 1.6-4.64.04-.6.04-1.52t-.04-1.52q-.12-3.04-1.6-4.6-1.48-1.6-3.96-1.6t-4 1.6q-1.48 1.56-1.56 4.6-.04.6-.04 1.52t.04 1.52q.08 3.04 1.56 4.64 1.52 1.56 4 1.56M442.85 444.4q-2.56 0-4.36-1.12-1.76-1.16-2.68-3.2t-.92-4.68v-11.28q0-.4.24-.64a.93.93 0 0 1 .68-.28h2q.4 0 .64.28.28.24.28.64v11.08q0 5.96 5.2 5.96 2.48 0 3.96-1.56 1.52-1.6 1.52-4.4v-11.08q0-.4.24-.64a.93.93 0 0 1 .68-.28h1.96q.44 0 .68.28.24.24.24.64v18.96q0 .4-.24.68-.24.24-.68.24h-1.84q-.4 0-.68-.24a1 1 0 0 1-.24-.68v-1.76a8.2 8.2 0 0 1-2.64 2.24q-1.52.84-4.04.84M473.539 444q-.52 0-.8-.24a2.3 2.3 0 0 1-.48-.76l-5.68-18.56a1.1 1.1 0 0 1-.08-.4q0-.36.24-.6a.9.9 0 0 1 .6-.24h1.76q.44 0 .68.24t.32.44l4.44 15.08 4.76-14.92q.08-.28.32-.56.28-.28.8-.28h1.36q.52 0 .8.28t.32.56l4.76 14.92 4.44-15.08q.04-.2.28-.44t.68-.24h1.76q.36 0 .6.24t.24.6q0 .2-.08.4l-5.68 18.56q-.12.48-.44.76-.279.24-.84.24h-1.56q-.52 0-.88-.24a1.44 1.44 0 0 1-.44-.76l-4.64-14.32-4.64 14.32a1.7 1.7 0 0 1-.48.76q-.32.24-.88.24zM501.01 444q-.4 0-.68-.24a1 1 0 0 1-.24-.68v-18.96q0-.4.24-.64a.93.93 0 0 1 .68-.28h1.92q.4 0 .64.28.24.24.24.64v18.96q0 .4-.24.68-.24.24-.64.24zm-.32-24.68q-.4 0-.68-.24a1 1 0 0 1-.24-.68v-2.16q0-.4.24-.64a.93.93 0 0 1 .68-.28h2.52q.4 0 .64.28.28.24.28.64v2.16a.93.93 0 0 1-.28.68q-.24.24-.64.24zM510.737 444q-.4 0-.68-.24a1 1 0 0 1-.24-.68v-26.56q0-.4.24-.64a.93.93 0 0 1 .68-.28h1.88q.44 0 .68.28.24.24.24.64v26.56q0 .4-.24.68-.24.24-.68.24zM520.464 444q-.4 0-.68-.24a1 1 0 0 1-.24-.68v-26.56q0-.4.24-.64a.93.93 0 0 1 .68-.28h1.88q.44 0 .68.28.24.24.24.64v26.56q0 .4-.24.68-.24.24-.68.24zM539.955 444a1 1 0 0 1-.68-.24 1 1 0 0 1-.24-.68v-18.92q0-.4.24-.68a.93.93 0 0 1 .68-.28h1.84q.4 0 .68.28t.28.68v1.76a5.1 5.1 0 0 1 2.2-2.04q1.4-.68 3.36-.68h1.6q.4 0 .64.28.24.24.24.64v1.64q0 .4-.24.64t-.64.24h-2.4q-2.16 0-3.4 1.28-1.24 1.24-1.24 3.4v11.76a.92.92 0 0 1-.28.68 1 1 0 0 1-.68.24zM562.12 444.4q-4.12 0-6.56-2.52-2.44-2.559-2.68-6.96-.04-.519-.04-1.32 0-.84.04-1.36.159-2.84 1.32-4.96 1.16-2.16 3.16-3.32 2.04-1.16 4.76-1.16 3.04 0 5.08 1.28 2.08 1.28 3.16 3.64t1.08 5.52v.68q0 .44-.28.68-.24.24-.64.24h-13.84v.36a8.5 8.5 0 0 0 .72 3.08 5.7 5.7 0 0 0 1.84 2.28q1.2.88 2.88.88 1.44 0 2.4-.44t1.56-.96q.6-.56.8-.84.36-.519.56-.6.2-.12.64-.12H570q.4 0 .64.24.279.201.24.6-.04.6-.64 1.48-.6.84-1.72 1.68t-2.72 1.4q-1.6.52-3.68.52m-5.44-12.32h10.96v-.12q0-1.8-.68-3.2-.64-1.4-1.88-2.2-1.24-.84-2.96-.84t-2.96.84q-1.2.8-1.84 2.2t-.64 3.2zM582.022 444.4q-2 0-3.639-.8-1.64-.8-2.641-2.16a5.07 5.07 0 0 1-1-3.08q0-2.76 2.241-4.4t5.84-2.16l5.96-.84v-1.16q0-1.92-1.12-3-1.08-1.08-3.56-1.08-1.8 0-2.921.72-1.08.72-1.519 1.84-.24.6-.84.6h-1.801q-.44 0-.68-.24-.2-.28-.2-.64 0-.6.44-1.48.48-.88 1.44-1.72t2.44-1.4q1.52-.6 3.68-.6 2.4 0 4.04.64 1.64.6 2.56 1.64a6 6 0 0 1 1.361 2.36q.44 1.32.44 2.68v12.96a.93.93 0 0 1-.28.68q-.24.24-.641.24h-1.839q-.44 0-.68-.24a1 1 0 0 1-.241-.68v-1.72q-.52.72-1.4 1.44-.879.68-2.199 1.16-1.32.44-3.241.44m.84-3q1.641 0 3-.68 1.36-.72 2.121-2.2.8-1.479.8-3.72v-1.12l-4.641.68q-2.84.4-4.28 1.36-1.44.92-1.44 2.36 0 1.12.64 1.88.681.72 1.68 1.08 1.04.36 2.12.36M605.893 444.4q-2.2 0-3.8-.76-1.6-.8-2.64-2.12a10 10 0 0 1-1.52-3.08 16 16 0 0 1-.56-3.64q-.04-.639-.04-1.2t.04-1.2q.08-1.88.56-3.6a10 10 0 0 1 1.52-3.08 7.1 7.1 0 0 1 2.64-2.12q1.6-.8 3.8-.8 2.36 0 3.92.84t2.56 2.08v-9.2q0-.4.24-.64a.93.93 0 0 1 .68-.28h1.92q.4 0 .64.28.28.24.28.64v26.56a.93.93 0 0 1-.28.68q-.24.24-.64.24h-1.8q-.44 0-.68-.24a1 1 0 0 1-.24-.68v-1.68q-1 1.281-2.6 2.16-1.6.84-4 .84m.84-3.24q2 0 3.2-.92a5.7 5.7 0 0 0 1.8-2.32q.6-1.44.64-2.92.04-.64.04-1.52 0-.92-.04-1.56a6.9 6.9 0 0 0-.68-2.76 5.37 5.37 0 0 0-1.84-2.24q-1.2-.88-3.12-.88-2.04 0-3.24.92-1.2.88-1.72 2.36-.52 1.44-.6 3.12a33 33 0 0 0 0 2.32q.08 1.68.6 3.16.52 1.44 1.72 2.36 1.2.88 3.24.88M639.147 444q-2.24 0-3.64-.84a5.1 5.1 0 0 1-2.04-2.44q-.64-1.6-.64-3.76V426.4h-3.12q-.4 0-.68-.24a1 1 0 0 1-.24-.68v-1.36q0-.4.24-.64a.93.93 0 0 1 .68-.28h3.12v-6.68q0-.4.24-.64a.93.93 0 0 1 .68-.28h1.88q.4 0 .64.28a.8.8 0 0 1 .28.64v6.68h4.96q.4 0 .64.28a.8.8 0 0 1 .28.64v1.36a.92.92 0 0 1-.28.68q-.24.24-.64.24h-4.96v10.28q0 1.88.64 2.96t2.28 1.08h2.44q.4 0 .64.28a.8.8 0 0 1 .28.64v1.44a.92.92 0 0 1-.28.68q-.24.24-.64.24zM647.612 444q-.4 0-.68-.24a1 1 0 0 1-.24-.68v-26.56q0-.4.24-.64a.93.93 0 0 1 .68-.28h2q.44 0 .68.28.24.24.24.64v9.32q1.08-1.36 2.64-2.2t3.96-.84q2.6 0 4.4 1.16 1.84 1.12 2.76 3.16.96 2.001.96 4.68v11.28q0 .4-.24.68-.24.24-.68.24h-2q-.4 0-.68-.24a1 1 0 0 1-.24-.68V432q0-2.8-1.36-4.36-1.36-1.6-4-1.6-2.48 0-4 1.6-1.52 1.56-1.52 4.36v11.08q0 .4-.24.68-.24.24-.68.24zM671.947 444q-.4 0-.68-.24a1 1 0 0 1-.24-.68v-18.96q0-.4.24-.64a.93.93 0 0 1 .68-.28h1.92q.4 0 .64.28.24.24.24.64v18.96q0 .4-.24.68-.24.24-.64.24zm-.32-24.68q-.4 0-.68-.24a1 1 0 0 1-.24-.68v-2.16q0-.4.24-.64a.93.93 0 0 1 .68-.28h2.52q.4 0 .64.28a.8.8 0 0 1 .28.64v2.16a.92.92 0 0 1-.28.68q-.24.24-.64.24zM687.915 444.4q-2.241 0-3.84-.56-1.6-.56-2.6-1.36t-1.52-1.6q-.48-.8-.52-1.28-.04-.44.28-.68t.64-.24h1.76q.24 0 .36.08.16.04.4.32.52.56 1.16 1.12t1.56.92q.96.36 2.36.36 2.04 0 3.36-.76 1.32-.8 1.32-2.32 0-1-.56-1.6-.52-.6-1.92-1.08-1.36-.48-3.76-1-2.4-.56-3.8-1.36-1.4-.84-2-1.96-.6-1.16-.6-2.6 0-1.48.88-2.84.88-1.4 2.56-2.28 1.72-.88 4.28-.88 2.08 0 3.56.52t2.44 1.32q.96.76 1.44 1.52t.52 1.28a.8.8 0 0 1-.24.68q-.28.24-.64.24h-1.68a.9.9 0 0 1-.48-.12 3 3 0 0 1-.32-.28 8.7 8.7 0 0 0-.96-1.04q-.52-.519-1.4-.84-.84-.36-2.24-.36-2.001 0-3 .84t-1 2.12q0 .76.44 1.36t1.68 1.08 3.68 1.04q2.64.52 4.16 1.4t2.16 2.04.64 2.68q0 1.68-1 3.08-.96 1.4-2.88 2.24-1.881.8-4.68.8M711.87 444a1 1 0 0 1-.68-.24 1 1 0 0 1-.24-.68v-26.56q0-.4.24-.64a.93.93 0 0 1 .68-.28h1.88q.44 0 .68.28.24.24.24.64v26.56q0 .4-.24.68-.24.24-.68.24zM726.437 444.4q-2 0-3.64-.8t-2.64-2.16a5.06 5.06 0 0 1-1-3.08q0-2.76 2.24-4.4t5.84-2.16l5.96-.84v-1.16q0-1.92-1.12-3-1.08-1.08-3.56-1.08-1.8 0-2.92.72-1.08.72-1.52 1.84-.24.6-.84.6h-1.8q-.44 0-.68-.24-.2-.28-.2-.64 0-.6.44-1.48.48-.88 1.44-1.72t2.44-1.4q1.52-.6 3.68-.6 2.4 0 4.04.64 1.64.6 2.56 1.64a6 6 0 0 1 1.36 2.36q.44 1.32.44 2.68v12.96a.93.93 0 0 1-.28.68q-.24.24-.64.24h-1.84q-.44 0-.68-.24a1 1 0 0 1-.24-.68v-1.72q-.52.72-1.4 1.44-.88.68-2.2 1.16-1.32.44-3.24.44m.84-3q1.64 0 3-.68 1.36-.72 2.12-2.2.8-1.479.8-3.72v-1.12l-4.64.68q-2.84.4-4.28 1.36-1.44.92-1.44 2.36 0 1.12.64 1.88.68.72 1.68 1.08 1.04.36 2.12.36M749.907 444.4q-2.24 0-3.84-.56t-2.6-1.36-1.52-1.6q-.48-.8-.52-1.28-.04-.44.28-.68t.64-.24h1.76q.24 0 .36.08.16.04.4.32.52.56 1.16 1.12t1.56.92q.96.36 2.36.36 2.04 0 3.36-.76 1.32-.8 1.32-2.32 0-1-.56-1.6-.52-.6-1.92-1.08-1.36-.48-3.76-1-2.4-.56-3.8-1.36-1.4-.84-2-1.96-.6-1.16-.6-2.6 0-1.48.88-2.84.88-1.4 2.56-2.28 1.72-.88 4.28-.88 2.08 0 3.56.52t2.44 1.32q.96.76 1.44 1.52t.52 1.28a.8.8 0 0 1-.24.68q-.28.24-.64.24h-1.68a.9.9 0 0 1-.48-.12 3 3 0 0 1-.32-.28 8.7 8.7 0 0 0-.96-1.04q-.52-.519-1.4-.84-.84-.36-2.24-.36-2 0-3 .84t-1 2.12q0 .76.44 1.36t1.68 1.08 3.68 1.04q2.64.52 4.16 1.4t2.16 2.04.64 2.68a5.18 5.18 0 0 1-1 3.08q-.96 1.4-2.88 2.24-1.88.8-4.68.8M771.178 444q-2.24 0-3.64-.84a5.1 5.1 0 0 1-2.04-2.44q-.64-1.6-.64-3.76V426.4h-3.12q-.4 0-.68-.24a1 1 0 0 1-.24-.68v-1.36q0-.4.24-.64a.93.93 0 0 1 .68-.28h3.12v-6.68q0-.4.24-.64a.93.93 0 0 1 .68-.28h1.88q.4 0 .64.28a.8.8 0 0 1 .28.64v6.68h4.96q.4 0 .64.28a.8.8 0 0 1 .28.64v1.36a.92.92 0 0 1-.28.68q-.24.24-.64.24h-4.96v10.28q0 1.88.64 2.96t2.28 1.08h2.44q.4 0 .64.28a.8.8 0 0 1 .28.64v1.44a.92.92 0 0 1-.28.68q-.24.24-.64.24zM304.417 807q-.47 0-.799-.282a1.18 1.18 0 0 1-.282-.799v-27.636h-9.024q-.47 0-.799-.282a1.18 1.18 0 0 1-.282-.799v-1.974q0-.517.282-.799a1.1 1.1 0 0 1 .799-.329h22.654q.517 0 .799.329.329.282.329.799v1.974q0 .47-.329.799-.282.282-.799.282h-8.977v27.636q0 .47-.329.799-.282.282-.799.282zM323.386 807q-.47 0-.799-.282a1.18 1.18 0 0 1-.282-.799v-31.208q0-.47.282-.752.328-.329.799-.329h2.35q.517 0 .799.329.282.282.282.752v10.951a9.9 9.9 0 0 1 3.102-2.585q1.833-.987 4.653-.987 3.054 0 5.17 1.363 2.161 1.316 3.243 3.713 1.128 2.35 1.128 5.499v13.254q0 .47-.282.799-.282.282-.799.282h-2.35q-.47 0-.799-.282a1.18 1.18 0 0 1-.282-.799V792.9q0-3.29-1.598-5.123-1.599-1.88-4.7-1.88-2.915 0-4.7 1.88-1.786 1.833-1.786 5.123v13.019q0 .47-.282.799-.282.282-.799.282zM361.097 807.47q-4.84 0-7.708-2.961-2.867-3.008-3.149-8.178a21 21 0 0 1-.047-1.551q0-.987.047-1.598.189-3.336 1.551-5.828 1.364-2.538 3.713-3.901 2.398-1.363 5.593-1.363 3.572 0 5.969 1.504 2.445 1.505 3.713 4.277t1.269 6.486v.799q0 .517-.329.799-.281.282-.752.282h-16.262v.423q.095 1.927.846 3.619a6.7 6.7 0 0 0 2.162 2.679q1.41 1.034 3.384 1.034 1.692 0 2.82-.517 1.128-.516 1.833-1.128.705-.657.94-.987.423-.61.658-.705.236-.141.752-.141h2.256q.47 0 .752.282.33.236.282.705-.047.705-.752 1.739-.704.987-2.021 1.974-1.315.987-3.196 1.645-1.88.612-4.324.611m-6.392-14.476h12.878v-.141q0-2.115-.799-3.76-.751-1.644-2.209-2.585-1.456-.987-3.478-.987-2.02 0-3.478.987-1.41.94-2.162 2.585t-.752 3.76zM379.219 807q-.47 0-.799-.282a1.18 1.18 0 0 1-.282-.799v-22.278q0-.47.282-.752a1.1 1.1 0 0 1 .799-.329h2.209q.47 0 .752.329.33.282.329.752v2.068a9.4 9.4 0 0 1 3.055-2.585q1.881-1.034 4.794-1.034 3.055 0 5.17 1.363 2.163 1.316 3.243 3.713 1.081 2.35 1.081 5.499v13.254q0 .47-.282.799-.281.282-.752.282h-2.35q-.47 0-.799-.282a1.18 1.18 0 0 1-.282-.799V792.9q0-3.29-1.598-5.123-1.598-1.88-4.7-1.88-2.913 0-4.7 1.88-1.739 1.833-1.739 5.123v13.019q0 .47-.329.799-.281.282-.752.282zM422.094 815.93a.9.9 0 0 1-.658-.282.9.9 0 0 1-.282-.658q0-.187.047-.376.047-.188.188-.47l3.619-8.601-8.977-21.197q-.235-.564-.235-.799 0-.423.282-.705a.96.96 0 0 1 .705-.282h2.303q.47 0 .752.235.282.236.376.564l7.144 17.108 7.332-17.108a1.8 1.8 0 0 1 .376-.564q.282-.235.799-.235h2.209q.423 0 .705.282a.9.9 0 0 1 .282.658q0 .236-.235.846l-13.348 30.785a1.5 1.5 0 0 1-.423.564q-.236.235-.752.235zM453.358 807.47q-3.572 0-5.969-1.363t-3.666-3.76q-1.269-2.444-1.41-5.546a36 36 0 0 1-.047-2.021q0-1.269.047-2.021.141-3.149 1.41-5.546a9.5 9.5 0 0 1 3.713-3.76q2.397-1.363 5.922-1.363t5.922 1.363 3.666 3.76q1.316 2.397 1.457 5.546.047.752.047 2.021 0 1.223-.047 2.021-.141 3.102-1.41 5.546-1.269 2.398-3.666 3.76-2.397 1.363-5.969 1.363m0-3.619q2.915 0 4.653-1.833 1.739-1.88 1.88-5.452.047-.705.047-1.786t-.047-1.786q-.141-3.572-1.88-5.405-1.738-1.88-4.653-1.88t-4.7 1.88q-1.738 1.833-1.833 5.405-.047.706-.047 1.786t.047 1.786q.094 3.573 1.833 5.452 1.786 1.833 4.7 1.833M479.923 807.47q-3.008 0-5.123-1.316-2.067-1.363-3.149-3.76-1.08-2.397-1.081-5.499v-13.254q0-.47.282-.752a1.1 1.1 0 0 1 .799-.329h2.35q.47 0 .752.329.33.282.329.752v13.019q0 7.003 6.11 7.003 2.914 0 4.653-1.833 1.786-1.88 1.786-5.17v-13.019q0-.47.282-.752a1.1 1.1 0 0 1 .799-.329h2.303q.517 0 .799.329.282.282.282.752v22.278q0 .47-.282.799-.282.282-.799.282h-2.162q-.47 0-.799-.282a1.18 1.18 0 0 1-.282-.799v-2.068a9.65 9.65 0 0 1-3.102 2.632q-1.786.987-4.747.987M516.924 807q-.612 0-.94-.282-.33-.329-.564-.893l-6.674-21.808a1.3 1.3 0 0 1-.094-.47q0-.423.282-.705.329-.282.705-.282h2.068q.517 0 .799.282.282.283.376.517l5.217 17.719 5.593-17.531q.093-.328.376-.658.328-.329.94-.329h1.598q.61 0 .94.329.328.33.376.658l5.593 17.531 5.217-17.719q.047-.234.329-.517.282-.282.799-.282h2.068q.423 0 .705.282a.96.96 0 0 1 .282.705q0 .236-.094.47l-6.674 21.808q-.142.564-.517.893-.33.282-.987.282h-1.833q-.611 0-1.034-.282-.376-.329-.517-.893l-5.452-16.826-5.452 16.826q-.189.564-.564.893-.377.282-1.034.282zM549.671 807q-.47 0-.799-.282a1.18 1.18 0 0 1-.282-.799v-22.278q0-.47.282-.752a1.1 1.1 0 0 1 .799-.329h2.256q.47 0 .752.329.282.282.282.752v22.278q0 .47-.282.799-.282.282-.752.282zm-.376-28.999q-.47 0-.799-.282a1.18 1.18 0 0 1-.282-.799v-2.538q0-.47.282-.752a1.1 1.1 0 0 1 .799-.329h2.961q.47 0 .752.329.33.282.329.752v2.538q0 .47-.329.799-.282.282-.752.282zM561.571 807q-.47 0-.799-.282a1.18 1.18 0 0 1-.282-.799v-31.208q0-.47.282-.752a1.1 1.1 0 0 1 .799-.329h2.209q.517 0 .799.329.282.282.282.752v31.208q0 .47-.282.799-.282.282-.799.282zM573.47 807q-.47 0-.799-.282a1.18 1.18 0 0 1-.282-.799v-31.208q0-.47.282-.752a1.1 1.1 0 0 1 .799-.329h2.209q.517 0 .799.329.282.282.282.752v31.208q0 .47-.282.799-.282.282-.799.282zM597.312 807q-.47 0-.799-.282a1.18 1.18 0 0 1-.282-.799v-22.231q0-.47.282-.799a1.1 1.1 0 0 1 .799-.329h2.162q.47 0 .799.329.329.33.329.799v2.068a5.97 5.97 0 0 1 2.585-2.397q1.645-.798 3.948-.799h1.88q.47 0 .752.329.282.282.282.752v1.927q0 .47-.282.752t-.752.282h-2.82q-2.538 0-3.995 1.504-1.457 1.457-1.457 3.995v13.818q0 .47-.329.799a1.2 1.2 0 0 1-.799.282zM623.826 807.47q-4.842 0-7.708-2.961-2.868-3.008-3.149-8.178a21 21 0 0 1-.047-1.551q0-.987.047-1.598.188-3.336 1.551-5.828 1.362-2.538 3.713-3.901 2.397-1.363 5.593-1.363 3.572 0 5.969 1.504 2.444 1.505 3.713 4.277t1.269 6.486v.799q0 .517-.329.799-.282.282-.752.282h-16.262v.423q.093 1.927.846 3.619a6.7 6.7 0 0 0 2.162 2.679q1.41 1.034 3.384 1.034 1.692 0 2.82-.517 1.128-.516 1.833-1.128.705-.657.94-.987.423-.61.658-.705.234-.141.752-.141h2.256q.47 0 .752.282.328.236.282.705-.048.705-.752 1.739-.705.987-2.021 1.974-1.317.987-3.196 1.645-1.88.612-4.324.611m-6.392-14.476h12.878v-.141q0-2.115-.799-3.76-.753-1.644-2.209-2.585-1.458-.987-3.478-.987-2.022 0-3.478.987-1.41.94-2.162 2.585-.753 1.645-.752 3.76zM647.681 807.47q-2.35 0-4.277-.94-1.926-.939-3.102-2.538-1.175-1.597-1.175-3.619 0-3.243 2.632-5.17 2.632-1.926 6.862-2.538l7.003-.987v-1.363q0-2.256-1.316-3.525-1.269-1.269-4.183-1.269-2.115 0-3.431.846-1.269.846-1.786 2.162-.282.705-.987.705h-2.115q-.517 0-.799-.282a1.26 1.26 0 0 1-.235-.752q0-.704.517-1.739.564-1.034 1.692-2.021t2.867-1.645q1.786-.705 4.324-.705 2.82 0 4.747.752 1.928.706 3.008 1.927a7.1 7.1 0 0 1 1.598 2.773 9.9 9.9 0 0 1 .517 3.149v15.228q0 .47-.329.799-.282.282-.752.282h-2.162q-.517 0-.799-.282a1.18 1.18 0 0 1-.282-.799v-2.021q-.61.846-1.645 1.692-1.034.8-2.585 1.363-1.551.517-3.807.517m.987-3.525q1.927 0 3.525-.799 1.599-.845 2.491-2.585.94-1.739.94-4.371v-1.316l-5.452.799q-3.337.47-5.029 1.598-1.692 1.081-1.692 2.773 0 1.317.752 2.209a5 5 0 0 0 1.974 1.269 7.6 7.6 0 0 0 2.491.423M676.199 807.47q-2.585 0-4.465-.893-1.88-.94-3.102-2.491a11.8 11.8 0 0 1-1.786-3.619 18.8 18.8 0 0 1-.658-4.277 23 23 0 0 1-.047-1.41q0-.657.047-1.41.094-2.208.658-4.23a11.9 11.9 0 0 1 1.786-3.619 8.36 8.36 0 0 1 3.102-2.491q1.88-.94 4.465-.94 2.773 0 4.606.987t3.008 2.444v-10.81q0-.47.282-.752a1.1 1.1 0 0 1 .799-.329h2.256q.47 0 .752.329a.94.94 0 0 1 .329.752v31.208q0 .47-.329.799-.282.282-.752.282h-2.115q-.517 0-.799-.282a1.18 1.18 0 0 1-.282-.799v-1.974q-1.175 1.505-3.055 2.538-1.88.987-4.7.987m.987-3.807q2.35 0 3.76-1.081a6.7 6.7 0 0 0 2.115-2.726 9.5 9.5 0 0 0 .752-3.431 29 29 0 0 0 .047-1.786q0-1.08-.047-1.833-.047-1.644-.799-3.243a6.3 6.3 0 0 0-2.162-2.632q-1.41-1.034-3.666-1.034-2.397 0-3.807 1.081-1.41 1.035-2.021 2.773-.61 1.692-.705 3.666a40 40 0 0 0 0 2.726 13 13 0 0 0 .705 3.713 5.97 5.97 0 0 0 2.021 2.773q1.41 1.035 3.807 1.034M716.213 807q-2.632 0-4.277-.987-1.645-1.034-2.397-2.867-.752-1.88-.752-4.418V786.32h-3.666q-.47 0-.799-.282a1.18 1.18 0 0 1-.282-.799v-1.598q0-.47.282-.752a1.1 1.1 0 0 1 .799-.329h3.666v-7.849q0-.47.282-.752a1.1 1.1 0 0 1 .799-.329h2.209q.47 0 .752.329a.94.94 0 0 1 .329.752v7.849h5.828q.47 0 .752.329a.94.94 0 0 1 .329.752v1.598q0 .47-.329.799-.282.282-.752.282h-5.828v12.079q0 2.21.752 3.478.751 1.269 2.679 1.269h2.867q.47 0 .752.329a.94.94 0 0 1 .329.752v1.692q0 .47-.329.799-.282.282-.752.282zM726.629 807q-.47 0-.799-.282a1.18 1.18 0 0 1-.282-.799v-31.208q0-.47.282-.752a1.1 1.1 0 0 1 .799-.329h2.35q.517 0 .799.329.282.282.282.752v10.951a9.9 9.9 0 0 1 3.102-2.585q1.833-.987 4.653-.987 3.055 0 5.17 1.363 2.163 1.316 3.243 3.713 1.128 2.35 1.128 5.499v13.254q0 .47-.282.799-.282.282-.799.282h-2.35q-.47 0-.799-.282a1.18 1.18 0 0 1-.282-.799V792.9q0-3.29-1.598-5.123-1.598-1.88-4.7-1.88-2.913 0-4.7 1.88-1.785 1.833-1.786 5.123v13.019q0 .47-.282.799-.282.282-.799.282zM755.693 807q-.47 0-.799-.282a1.18 1.18 0 0 1-.282-.799v-22.278q0-.47.282-.752a1.1 1.1 0 0 1 .799-.329h2.256q.47 0 .752.329.282.282.282.752v22.278q0 .47-.282.799-.282.282-.752.282zm-.376-28.999q-.47 0-.799-.282a1.18 1.18 0 0 1-.282-.799v-2.538q0-.47.282-.752a1.1 1.1 0 0 1 .799-.329h2.961q.47 0 .752.329a.94.94 0 0 1 .329.752v2.538q0 .47-.329.799-.282.282-.752.282zM774.925 807.47q-2.633 0-4.512-.658-1.88-.657-3.055-1.598-1.176-.94-1.786-1.88-.564-.94-.611-1.504-.048-.516.329-.799.375-.282.752-.282h2.068q.282 0 .423.094.188.048.47.376.61.659 1.363 1.316.751.658 1.833 1.081 1.128.423 2.773.423 2.397 0 3.948-.893 1.551-.94 1.551-2.726 0-1.175-.658-1.88-.612-.705-2.256-1.269-1.599-.563-4.418-1.175-2.82-.657-4.465-1.598-1.645-.987-2.35-2.303-.705-1.363-.705-3.055 0-1.738 1.034-3.337 1.034-1.644 3.008-2.679 2.02-1.034 5.029-1.034 2.443 0 4.183.611 1.739.612 2.867 1.551 1.128.894 1.692 1.786.563.894.611 1.504a.95.95 0 0 1-.282.799q-.33.282-.752.282h-1.974q-.33 0-.564-.141a3.4 3.4 0 0 1-.376-.329q-.471-.61-1.128-1.222-.612-.61-1.645-.987-.987-.423-2.632-.423-2.35 0-3.525.987t-1.175 2.491q0 .894.517 1.598.516.705 1.974 1.269 1.456.564 4.324 1.222 3.102.612 4.888 1.645 1.785 1.035 2.538 2.397.752 1.364.752 3.149 0 1.974-1.175 3.619-1.128 1.645-3.384 2.632-2.21.94-5.499.94M117.445 542.96 88.285 494h9.84l23.76 40.68h.24l23.76-40.68h9.84l-29.16 48.96V578h-9.12zM154.52 566.96v-37.68l11.04-11.04h30.72l11.04 11.04v37.68L196.28 578h-30.72zm37.92 3.12 6-5.88v-32.16l-6-5.88H169.4l-6 5.88v32.16l6 5.88zM223.557 566.96v-48.72h8.88v45.96l6 5.88h12l14.88-14.88v-36.96h8.88V578h-8.64v-12.72L252.837 578h-18.24zM316.74 518.24h9.12l10.2 49.68h.36l14.4-49.68h8.64l13.08 49.68h.36l11.16-49.68h9.12L378.06 578h-9.6l-13.2-49.32h-.36L340.5 578h-9.72zM405.784 504.56v-5.28l3.6-3.6h5.28l3.6 3.6v5.28l-3.6 3.6h-5.28zm1.8 13.68h8.88V578h-8.88zM436.28 492.32h8.88V578h-8.88zM464.405 492.32h8.88V578h-8.88zM521.227 518.24h8.64v10.68l10.68-10.68h15.48v7.92h-13.2l-12.72 12.72V578h-8.88zM563.152 566.96v-37.68l11.04-11.04h30.12l11.16 11.04v21.48h-43.44v13.44l6 5.88h22.44l6-5.88v-4.56h8.88v7.32L604.312 578h-30.12zm43.44-23.88v-11.04l-6-5.88h-22.56l-6 5.88v11.04zM629.818 568.16v-15.24l9.84-9.72h31.92v-11.4l-6-5.88h-20.4l-6 5.88v4.92h-8.88v-7.44l11.04-11.04h27.96l11.04 11.04V578h-8.52v-10.56L660.778 578h-21.12zm29.16 2.16 12.6-12.12v-7.32h-28.08l-4.8 4.68v10.08l4.8 4.68zM696.512 566.96v-37.68l11.04-11.04h23.04l9.84 8.64v-34.56h8.88V578h-8.64v-10.92L729.752 578h-22.2zm31.32 3.12 12.6-12.6v-21.24l-11.52-10.08h-17.52l-6 5.88v32.16l6 5.88zM802.018 566.96v-40.92h-10.8v-7.8h11.04V498.8h8.64v19.44h18.72v7.8h-18.72v38.16l6 6h12.72v7.8h-16.56zM843.376 492.32h8.88v38.4l12.48-12.48h18.6l11.04 11.04V578h-8.88v-45.96l-6-5.88h-12.36l-14.88 14.88V578h-8.88zM911.213 504.56v-5.28l3.6-3.6h5.28l3.6 3.6v5.28l-3.6 3.6h-5.28zm1.8 13.68h8.88V578h-8.88zM938.11 568.16v-7.44h8.88v4.92l4.8 4.68h22.08l4.8-4.68v-9.24l-4.8-4.8h-25.8l-9.48-9.48v-14.04l9.84-9.84h28.08l9.84 9.84v7.44h-8.88v-4.92l-4.8-4.68h-20.4l-4.8 4.68v8.76l4.8 4.8h25.44l9.84 9.84v14.16l-9.84 9.84h-29.76zM489.507 710h-8.88v-51.84h-28.44V710h-8.88v-51.84h-10.8v-7.92h10.8v-15l10.44-10.44h17.28v7.68h-13.44l-5.4 5.4v12.36h37.32zM507.516 650.24h8.64v10.68l10.68-10.68h15.48v7.92h-13.2l-12.72 12.72V710h-8.88zM548.93 700.16v-7.44h8.88v4.92l4.8 4.68h22.08l4.8-4.68v-9.24l-4.8-4.8h-25.8l-9.48-9.48v-14.04l9.84-9.84h28.08l9.84 9.84v7.44h-8.88v-4.92l-4.8-4.68h-20.4l-4.8 4.68v8.76l4.8 4.8h25.44l9.84 9.84v14.16l-9.84 9.84h-29.76zM618.737 698.96v-40.92h-10.8v-7.8h11.04V630.8h8.64v19.44h18.72v7.8h-18.72v38.16l6 6h12.72v7.8h-16.56z"/></svg>