<svg xmlns="http://www.w3.org/2000/svg" width="1080" height="1350" fill="none"><g clip-path="url(#a)"><g fill="#000" clip-path="url(#b)"><path d="M303.485 446h-3.693l10.682-29.091h3.636L324.792 446h-3.693l-8.693-24.489h-.227zm1.364-11.364h14.886v3.125h-14.886zm27.372-1.761V446h-3.352v-21.818h3.239v3.409h.284a6.24 6.24 0 0 1 2.329-2.671q1.563-1.022 4.034-1.022 2.216 0 3.878.909 1.662.894 2.585 2.727.924 1.818.924 4.602V446h-3.353v-13.636q0-2.572-1.335-4.006-1.335-1.449-3.665-1.449-1.605 0-2.869.696-1.25.696-1.974 2.031-.725 1.336-.725 3.239m28.285 13.58q-2.727 0-4.815-1.378-2.088-1.392-3.267-3.921-1.179-2.543-1.179-6.008 0-3.438 1.179-5.966t3.281-3.906 4.858-1.378q2.13 0 3.366.71 1.25.696 1.904 1.591.667.88 1.037 1.449h.284v-10.739h3.352V446h-3.239v-3.352h-.397q-.37.596-1.051 1.505-.683.895-1.946 1.606-1.264.696-3.367.696m.455-3.012q2.016 0 3.409-1.051 1.392-1.065 2.116-2.94.725-1.89.725-4.361 0-2.443-.711-4.276-.71-1.846-2.102-2.869-1.392-1.037-3.437-1.037-2.131 0-3.552 1.094-1.406 1.08-2.116 2.94-.696 1.847-.696 4.148 0 2.33.71 4.233.724 1.889 2.131 3.011 1.42 1.108 3.523 1.108m29.559 10.739a7.4 7.4 0 0 1-1.52-.142q-.667-.128-.923-.256l.852-2.954q1.222.312 2.159.227.938-.085 1.662-.838.74-.74 1.35-2.401l.625-1.704-8.068-21.932h3.636l6.023 17.386h.227l6.023-17.386h3.636l-9.261 25q-.625 1.69-1.549 2.798-.923 1.122-2.144 1.662-1.208.54-2.728.54m28.189-7.727q-2.955 0-5.184-1.407-2.217-1.406-3.466-3.934-1.236-2.53-1.236-5.909 0-3.41 1.236-5.952 1.25-2.543 3.466-3.949 2.229-1.406 5.184-1.406t5.171 1.406q2.23 1.406 3.466 3.949 1.25 2.543 1.25 5.952 0 3.38-1.25 5.909-1.236 2.528-3.466 3.934-2.217 1.407-5.171 1.407m0-3.012q2.244 0 3.693-1.15t2.145-3.026q.696-1.875.696-4.062t-.696-4.077-2.145-3.054q-1.449-1.165-3.693-1.165t-3.693 1.165q-1.449 1.164-2.145 3.054t-.696 4.077.696 4.062 2.145 3.026q1.449 1.15 3.693 1.15m28.754-6.363v-12.898h3.352V446h-3.352v-3.693h-.228q-.766 1.662-2.386 2.827-1.619 1.15-4.091 1.15-2.045 0-3.636-.895-1.591-.909-2.5-2.727-.909-1.832-.909-4.617v-13.863h3.352v13.636q0 2.387 1.335 3.807 1.35 1.42 3.438 1.42 1.25 0 2.542-.639 1.308-.639 2.188-1.96.894-1.321.895-3.366m25.685 8.92-6.648-21.818h3.523l4.716 16.704h.227l4.659-16.704h3.58l4.602 16.648h.227l4.716-16.648h3.523L489.625 446h-3.295l-4.773-16.761h-.341L476.444 446zm27.557 0v-21.818h3.352V446zm1.704-25.455a2.38 2.38 0 0 1-1.69-.667q-.696-.667-.696-1.605t.696-1.605a2.38 2.38 0 0 1 1.69-.668q.981 0 1.677.668.71.667.71 1.605t-.71 1.605a2.34 2.34 0 0 1-1.677.667m11.14-3.636V446h-3.352v-29.091zm9.493 0V446h-3.353v-29.091zM540.431 446v-21.818h3.239v3.295h.227q.597-1.618 2.159-2.628 1.563-1.008 3.523-1.008.37 0 .923.014.555.015.839.043v3.409a10 10 0 0 0-.782-.128 8 8 0 0 0-1.264-.099q-1.59 0-2.841.667a5.04 5.04 0 0 0-1.96 1.818q-.71 1.15-.71 2.628V446zm23.367.455q-3.154 0-5.44-1.393-2.274-1.406-3.509-3.92-1.221-2.529-1.222-5.881 0-3.351 1.222-5.909 1.236-2.571 3.438-4.005 2.215-1.449 5.17-1.449 1.705 0 3.367.568t3.025 1.846q1.364 1.265 2.173 3.353.81 2.088.81 5.142v1.42h-16.818v-2.897h13.409q0-1.848-.739-3.296a5.57 5.57 0 0 0-2.074-2.287q-1.335-.838-3.153-.838-2.002 0-3.466.994a6.55 6.55 0 0 0-2.23 2.557 7.5 7.5 0 0 0-.781 3.381v1.932q0 2.47.852 4.19.867 1.704 2.401 2.599 1.534.881 3.565.881 1.321 0 2.386-.369a5.1 5.1 0 0 0 1.861-1.136q.781-.767 1.207-1.904l3.239.909a7.2 7.2 0 0 1-1.719 2.898q-1.207 1.236-2.983 1.932-1.775.682-3.991.682m20.554.056q-2.074 0-3.764-.781-1.69-.795-2.685-2.287-.994-1.506-.994-3.636 0-1.875.738-3.04a5.2 5.2 0 0 1 1.975-1.847 10.4 10.4 0 0 1 2.727-.994 33 33 0 0 1 3.026-.54q1.988-.255 3.224-.383 1.25-.142 1.818-.469.583-.327.583-1.136v-.114q0-2.101-1.151-3.267-1.136-1.165-3.452-1.165-2.4 0-3.764 1.051t-1.917 2.245l-3.182-1.137q.852-1.988 2.272-3.096a8.5 8.5 0 0 1 3.125-1.563 13 13 0 0 1 3.353-.454q1.05 0 2.415.255a7.8 7.8 0 0 1 2.656 1.009q1.292.767 2.145 2.315.852 1.548.852 4.148V446H591v-2.955h-.171q-.34.711-1.136 1.52-.795.81-2.117 1.378-1.32.568-3.224.568m.511-3.011q1.989 0 3.353-.781 1.377-.781 2.073-2.017a5.14 5.14 0 0 0 .711-2.6v-3.068q-.213.256-.938.469a16 16 0 0 1-1.648.355 74 74 0 0 1-1.804.256q-.866.1-1.406.17-1.306.17-2.443.554-1.122.369-1.818 1.122-.682.74-.682 2.017 0 1.748 1.293 2.642 1.307.88 3.309.881m23.846 2.955q-2.727 0-4.815-1.378-2.088-1.392-3.267-3.921-1.179-2.543-1.179-6.008 0-3.438 1.179-5.966t3.281-3.906 4.858-1.378q2.13 0 3.366.71 1.25.696 1.904 1.591.668.88 1.037 1.449h.284v-10.739h3.352V446h-3.238v-3.352h-.398q-.37.596-1.051 1.505-.683.895-1.946 1.606-1.264.696-3.367.696m.455-3.012q2.017 0 3.409-1.051 1.392-1.065 2.116-2.94.725-1.89.725-4.361 0-2.443-.711-4.276-.71-1.846-2.102-2.869-1.392-1.037-3.437-1.037-2.131 0-3.551 1.094-1.407 1.08-2.117 2.94-.696 1.847-.696 4.148 0 2.33.71 4.233.724 1.889 2.131 3.011 1.42 1.108 3.523 1.108m36.889-19.261v2.841h-11.307v-2.841zm-8.011-5.227h3.352v20.795q0 1.42.412 2.131.426.696 1.079.937.668.227 1.407.227.554 0 .909-.056l.568-.114.682 3.011a7 7 0 0 1-.952.256q-.61.142-1.548.142a6.75 6.75 0 0 1-2.784-.611 5.5 5.5 0 0 1-2.245-1.861q-.88-1.25-.88-3.153zm16.875 13.92V446h-3.353v-29.091h3.353v10.682h.284a6.16 6.16 0 0 1 2.301-2.685q1.548-1.008 4.119-1.008 2.23 0 3.906.895 1.677.88 2.6 2.713.937 1.818.937 4.63V446h-3.352v-13.636q0-2.6-1.349-4.02-1.336-1.435-3.708-1.435-1.647 0-2.954.696-1.293.696-2.046 2.031-.738 1.336-.738 3.239M675.197 446v-21.818h3.352V446zm1.705-25.455a2.38 2.38 0 0 1-1.691-.667q-.696-.667-.696-1.605t.696-1.605a2.39 2.39 0 0 1 1.691-.668q.98 0 1.676.668.71.667.71 1.605t-.71 1.605a2.34 2.34 0 0 1-1.676.667m23.242 8.523-3.012.852a5.6 5.6 0 0 0-.838-1.463q-.539-.724-1.477-1.193-.937-.469-2.4-.469-2.003 0-3.339.924-1.32.91-1.321 2.315 0 1.25.91 1.975.91.724 2.84 1.207l3.239.795q2.926.71 4.361 2.174 1.434 1.449 1.435 3.735 0 1.875-1.08 3.353-1.066 1.477-2.983 2.329t-4.46.853q-3.338 0-5.526-1.449t-2.77-4.233l3.182-.796q.454 1.762 1.719 2.642 1.278.88 3.338.881 2.344 0 3.722-.994 1.392-1.01 1.392-2.415 0-1.137-.796-1.903-.795-.782-2.443-1.165l-3.636-.853q-2.997-.71-4.404-2.201-1.392-1.506-1.392-3.764 0-1.848 1.037-3.267 1.052-1.42 2.855-2.231 1.818-.809 4.12-.809 3.239 0 5.085 1.42 1.86 1.42 2.642 3.75m20.046-12.159V446h-3.352v-29.091zm12.56 29.602q-2.073 0-3.764-.781-1.69-.795-2.685-2.287-.993-1.506-.994-3.636 0-1.875.739-3.04a5.2 5.2 0 0 1 1.974-1.847 10.4 10.4 0 0 1 2.728-.994 33 33 0 0 1 3.025-.54q1.989-.255 3.225-.383 1.25-.142 1.818-.469.582-.327.582-1.136v-.114q0-2.101-1.15-3.267-1.137-1.165-3.452-1.165-2.401 0-3.764 1.051-1.364 1.051-1.918 2.245l-3.182-1.137q.852-1.988 2.273-3.096a8.5 8.5 0 0 1 3.125-1.563 13 13 0 0 1 3.352-.454q1.052 0 2.415.255a7.7 7.7 0 0 1 2.656 1.009q1.293.767 2.145 2.315t.852 4.148V446h-3.352v-2.955h-.17q-.341.711-1.137 1.52-.795.81-2.116 1.378t-3.225.568m.512-3.011q1.988 0 3.352-.781 1.378-.781 2.074-2.017.71-1.236.71-2.6v-3.068q-.213.256-.937.469-.71.199-1.648.355-.924.142-1.804.256-.867.1-1.406.17-1.308.17-2.444.554-1.122.369-1.818 1.122-.682.74-.682 2.017 0 1.748 1.293 2.642 1.306.88 3.31.881m31.062-14.432-3.012.852a5.6 5.6 0 0 0-.838-1.463q-.54-.724-1.477-1.193t-2.401-.469q-2.003 0-3.338.924-1.321.91-1.321 2.315 0 1.25.909 1.975.909.724 2.841 1.207l3.239.795q2.926.71 4.361 2.174 1.434 1.449 1.434 3.735 0 1.875-1.079 3.353-1.066 1.477-2.983 2.329t-4.46.853q-3.339 0-5.526-1.449t-2.77-4.233l3.182-.796q.454 1.762 1.719 2.642 1.278.88 3.338.881 2.343 0 3.721-.994 1.392-1.01 1.392-2.415 0-1.137-.795-1.903-.795-.782-2.443-1.165l-3.637-.853q-2.997-.71-4.403-2.201-1.392-1.506-1.392-3.764 0-1.848 1.037-3.267 1.051-1.42 2.855-2.231 1.818-.809 4.119-.809 3.239 0 5.085 1.42 1.861 1.42 2.643 3.75m14.932-4.886v2.841h-11.307v-2.841zm-8.011-5.227h3.352v20.795q0 1.42.412 2.131.426.696 1.079.937.668.227 1.407.227.554 0 .909-.056l.568-.114.682 3.011a7 7 0 0 1-.952.256q-.61.142-1.548.142a6.75 6.75 0 0 1-2.784-.611 5.5 5.5 0 0 1-2.245-1.861q-.88-1.25-.88-3.153zM287.234 778.49v-3.672h25.636v3.672h-10.749V809h-4.139v-30.51zm35.899 15.088V809h-3.939v-34.182h3.939v12.551h.334a7.25 7.25 0 0 1 2.704-3.154q1.82-1.185 4.84-1.185 2.62 0 4.59 1.051 1.97 1.035 3.054 3.188 1.102 2.136 1.102 5.441V809h-3.939v-16.023q0-3.054-1.586-4.723-1.569-1.686-4.356-1.686-1.936 0-3.472.818-1.518.818-2.403 2.387-.868 1.569-.868 3.805m35.048 15.956q-3.705 0-6.392-1.636-2.67-1.652-4.123-4.606-1.435-2.971-1.435-6.91t1.435-6.943q1.453-3.021 4.039-4.707 2.604-1.702 6.076-1.702 2.003 0 3.955.667 1.953.669 3.555 2.17 1.603 1.485 2.554 3.939t.951 6.042v1.669h-19.761v-3.405h15.756q0-2.17-.868-3.872a6.54 6.54 0 0 0-2.437-2.687q-1.569-.985-3.705-.985-2.354 0-4.073 1.169a7.7 7.7 0 0 0-2.62 3.004 8.8 8.8 0 0 0-.918 3.972v2.27q0 2.904 1.001 4.924 1.018 2.002 2.821 3.054 1.803 1.035 4.189 1.035 1.553 0 2.804-.434a6 6 0 0 0 2.187-1.335q.918-.902 1.418-2.237l3.806 1.068a8.44 8.44 0 0 1-2.02 3.405q-1.418 1.452-3.505 2.27-2.086.801-4.69.801m21.016-15.956V809h-3.939v-25.636h3.806v4.005h.333a7.3 7.3 0 0 1 2.738-3.137q1.836-1.202 4.74-1.202 2.603 0 4.556 1.068 1.953 1.051 3.038 3.205 1.085 2.136 1.085 5.407V809h-3.939v-16.023q0-3.021-1.569-4.706-1.569-1.703-4.306-1.703-1.886 0-3.372.818-1.468.818-2.32 2.387-.85 1.569-.851 3.805m40.25 25.036a8.7 8.7 0 0 1-1.786-.167q-.784-.15-1.085-.301l1.002-3.471q1.435.367 2.537.267t1.952-.985q.869-.868 1.586-2.821l.734-2.002-9.48-25.77h4.273l7.077 20.429h.267l7.076-20.429h4.273l-10.882 29.375q-.734 1.986-1.819 3.288-1.084 1.319-2.52 1.952-1.419.635-3.205.635m33.592-9.08q-3.471 0-6.092-1.652-2.604-1.653-4.072-4.623-1.452-2.971-1.452-6.944 0-4.005 1.452-6.993 1.468-2.988 4.072-4.64 2.62-1.652 6.092-1.652t6.075 1.652q2.62 1.652 4.073 4.64 1.469 2.988 1.469 6.993 0 3.973-1.469 6.944-1.452 2.97-4.073 4.623-2.603 1.652-6.075 1.652m0-3.538q2.637 0 4.34-1.352 1.702-1.351 2.52-3.555.818-2.203.818-4.774 0-2.57-.818-4.79t-2.52-3.588q-1.703-1.37-4.34-1.369-2.637 0-4.339 1.369t-2.521 3.588q-.818 2.22-.818 4.79t.818 4.774q.819 2.204 2.521 3.555 1.702 1.352 4.339 1.352m34.255-7.478v-15.154h3.939V809h-3.939v-4.339h-.267q-.9 1.952-2.804 3.321-1.902 1.352-4.806 1.352-2.404 0-4.273-1.052-1.87-1.068-2.938-3.204-1.068-2.154-1.068-5.425v-16.289h3.939v16.022q0 2.805 1.569 4.473 1.585 1.67 4.039 1.669 1.469 0 2.988-.751 1.535-.75 2.57-2.303 1.051-1.552 1.051-3.956M518.415 809l-7.811-25.636h4.139l5.541 19.627h.267l5.475-19.627h4.206l5.407 19.561h.267l5.541-19.561h4.14L537.776 809h-3.873l-5.608-19.695h-.4L522.287 809zm32.849 0v-25.636h3.939V809zm2.003-29.909a2.8 2.8 0 0 1-1.986-.785q-.818-.784-.818-1.886t.818-1.886a2.8 2.8 0 0 1 1.986-.784 2.74 2.74 0 0 1 1.969.784q.835.785.835 1.886 0 1.102-.835 1.886a2.74 2.74 0 0 1-1.969.785m13.559-4.273V809h-3.939v-34.182zm11.624 0V809h-3.939v-34.182zM599.823 809v-25.636h3.805v3.872h.267q.701-1.903 2.537-3.088t4.139-1.185q.434 0 1.085.017.65.017.985.05v4.006q-.201-.05-.918-.151a9 9 0 0 0-1.485-.117q-1.87 0-3.339.785a5.9 5.9 0 0 0-2.303 2.136q-.834 1.353-.834 3.088V809zm27.925.534q-3.705 0-6.392-1.636-2.67-1.652-4.123-4.606-1.435-2.971-1.435-6.91t1.435-6.943q1.452-3.021 4.039-4.707 2.604-1.702 6.076-1.702 2.003 0 3.955.667 1.953.669 3.555 2.17 1.603 1.485 2.554 3.939t.951 6.042v1.669h-19.761v-3.405h15.756q0-2.17-.868-3.872a6.54 6.54 0 0 0-2.437-2.687q-1.569-.985-3.705-.985-2.354 0-4.073 1.169a7.7 7.7 0 0 0-2.62 3.004 8.8 8.8 0 0 0-.918 3.972v2.27q0 2.904 1.001 4.924 1.018 2.002 2.821 3.054 1.803 1.035 4.189 1.035 1.553 0 2.804-.434a6 6 0 0 0 2.187-1.335q.918-.902 1.418-2.237l3.806 1.068a8.44 8.44 0 0 1-2.02 3.405q-1.418 1.452-3.505 2.27-2.086.801-4.69.801m24.621.067q-2.437 0-4.423-.918-1.986-.935-3.154-2.687-1.168-1.77-1.168-4.273 0-2.203.867-3.572a6.1 6.1 0 0 1 2.32-2.169 12.2 12.2 0 0 1 3.205-1.169 39 39 0 0 1 3.555-.634q2.337-.3 3.789-.451 1.469-.167 2.136-.55.684-.384.684-1.336v-.133q0-2.47-1.352-3.839-1.335-1.369-4.055-1.369-2.821 0-4.423 1.236-1.603 1.235-2.253 2.637l-3.739-1.336q1.001-2.336 2.67-3.638a10 10 0 0 1 3.672-1.836 15.3 15.3 0 0 1 3.939-.534q1.236 0 2.837.3 1.62.284 3.122 1.185 1.518.902 2.52 2.721 1 1.82 1.001 4.873V809h-3.939v-3.472h-.2q-.4.835-1.335 1.786t-2.487 1.619q-1.553.668-3.789.668m.601-3.539q2.337 0 3.939-.917 1.619-.918 2.437-2.37.834-1.453.834-3.055v-3.605q-.25.3-1.101.551-.835.234-1.936.417-1.086.167-2.12.301-1.019.116-1.652.2a15 15 0 0 0-2.871.651q-1.319.434-2.136 1.318-.802.868-.802 2.37 0 2.053 1.519 3.105 1.536 1.035 3.889 1.034m28.489 3.472q-3.204 0-5.658-1.619-2.453-1.635-3.839-4.606-1.385-2.988-1.385-7.06 0-4.04 1.385-7.01 1.386-2.971 3.856-4.59 2.47-1.62 5.708-1.619 2.503 0 3.955.834 1.47.819 2.237 1.87.785 1.035 1.218 1.702h.334v-12.618h3.939V809h-3.805v-3.939h-.468a25 25 0 0 1-1.235 1.769q-.801 1.052-2.286 1.886-1.486.818-3.956.818m.534-3.538q2.37 0 4.006-1.235 1.635-1.252 2.487-3.455.85-2.22.851-5.124 0-2.871-.835-5.024-.834-2.17-2.47-3.371-1.636-1.22-4.039-1.219-2.504 0-4.172 1.285-1.653 1.27-2.487 3.455-.819 2.17-.818 4.874 0 2.737.834 4.974.852 2.219 2.504 3.538 1.669 1.302 4.139 1.302m44.285-22.632v3.338h-13.286v-3.338zm-9.413-6.142h3.939v24.434q0 1.669.484 2.504.5.817 1.268 1.101a5.1 5.1 0 0 0 1.652.267q.65 0 1.069-.066l.667-.134.801 3.538q-.4.151-1.118.301-.717.167-1.819.167a7.9 7.9 0 0 1-3.272-.718 6.5 6.5 0 0 1-2.637-2.186q-1.034-1.469-1.034-3.706zm20.298 16.356V809h-3.939v-34.182h3.939v12.551h.333a7.25 7.25 0 0 1 2.704-3.154q1.82-1.185 4.841-1.185 2.62 0 4.589 1.051 1.97 1.035 3.055 3.188 1.101 2.136 1.101 5.441V809h-3.939v-16.023q0-3.054-1.585-4.723-1.569-1.686-4.356-1.686-1.936 0-3.472.818-1.52.818-2.403 2.387-.868 1.569-.868 3.805M761.462 809v-25.636h3.939V809zm2.003-29.909a2.8 2.8 0 0 1-1.986-.785q-.818-.784-.818-1.886t.818-1.886a2.8 2.8 0 0 1 1.986-.784q1.151 0 1.97.784.834.785.834 1.886 0 1.102-.834 1.886a2.75 2.75 0 0 1-1.97.785m27.78 10.014-3.539 1.002a6.6 6.6 0 0 0-.984-1.72q-.635-.85-1.736-1.402-1.101-.55-2.821-.55-2.353 0-3.922 1.085-1.552 1.068-1.552 2.72 0 1.469 1.068 2.32t3.338 1.419l3.805.934q3.44.835 5.124 2.554 1.686 1.702 1.686 4.39 0 2.202-1.268 3.938-1.252 1.737-3.505 2.738t-5.241 1.001q-3.922 0-6.493-1.702-2.57-1.702-3.254-4.974l3.738-.935q.534 2.07 2.02 3.105 1.502 1.035 3.922 1.034 2.754 0 4.373-1.168 1.636-1.185 1.636-2.837 0-1.335-.935-2.237-.934-.918-2.871-1.368l-4.272-1.002q-3.522-.834-5.174-2.587-1.636-1.768-1.636-4.423 0-2.17 1.218-3.838 1.236-1.67 3.355-2.621 2.137-.951 4.84-.951 3.806 0 5.975 1.669 2.187 1.669 3.105 4.406M201.535 572h-3.48q-1.32 0-1.32-1.44v-27.72l-23.28-46.56q-.72-1.44.84-1.44h4.32q1.08 0 1.68 1.44l19.2 39.24h.6l19.08-39.24q.6-1.44 1.68-1.44h4.44q1.32 0 .84 1.44l-23.4 46.56v27.72q0 1.44-1.2 1.44m54.14-5.4h13.68q5.52 0 8.4-3 3-3.12 3-8.88v-42.6q0-5.76-3-8.76-2.88-3.12-8.4-3.12h-13.68q-5.52 0-8.4 3.12t-2.88 8.76v42.6q0 5.64 2.88 8.76t8.4 3.12m14.28 5.4h-14.76q-7.8 0-12.36-4.56-4.44-4.56-4.44-12.48v-43.08q0-7.92 4.44-12.48 4.56-4.56 12.36-4.56h14.76q7.8 0 12.24 4.56 4.56 4.56 4.56 12.48v43.08q0 7.92-4.56 12.48-4.44 4.56-12.24 4.56m77.728-77.16h3.36q1.32 0 1.32 1.32v58.8q0 7.92-4.56 12.48-4.44 4.56-12.24 4.56h-13.44q-7.8 0-12.36-4.56-4.44-4.56-4.44-12.48v-58.68q0-1.44 1.2-1.44h3.48q1.32 0 1.32 1.44v58.44q0 5.64 2.88 8.76t8.4 3.12h12.36q5.52 0 8.4-3 3-3.12 3-8.88v-58.44q0-1.44 1.32-1.44M421.886 572h-6q-1.32 0-1.68-1.44l-16.44-74.28q-.36-1.44 1.2-1.44h3.96q1.32 0 1.56 1.44l14.28 68.88h.6l18.24-69q.24-1.32 1.56-1.32h4.56q1.44 0 1.68 1.32l18.36 69h.6l14.16-68.88q.24-1.44 1.68-1.44h4.08q1.44 0 1.08 1.44l-16.44 74.28q-.24 1.44-1.56 1.44h-6.12q-1.32 0-1.68-1.44l-17.76-67.68h-.48l-17.88 67.68q-.36 1.44-1.56 1.44m84.113-75.72v74.28q0 1.44-1.32 1.44h-3.48q-1.2 0-1.2-1.44v-74.28q0-1.44 1.2-1.44h3.48q1.32 0 1.32 1.44M566.415 572h-38.16q-1.2 0-1.2-1.44v-74.28q0-1.44 1.2-1.44h3.48q1.32 0 1.32 1.44v69q0 1.08 1.2 1.08h32.16q1.44 0 1.44 1.32v3q0 1.32-1.44 1.32m54.141 0h-38.16q-1.2 0-1.2-1.44v-74.28q0-1.44 1.2-1.44h3.48q1.32 0 1.32 1.44v69q0 1.08 1.2 1.08h32.16q1.44 0 1.44 1.32v3q0 1.32-1.44 1.32m51.453 0h-3.48q-1.2 0-1.2-1.44v-74.28q0-1.44 1.2-1.44h27.36q7.8 0 12.36 4.56t4.56 12.48v11.4q0 6.72-3.48 11.04-3.36 4.32-9.24 5.52v.48l14.28 30.24q.72 1.44-.84 1.44h-3.72q-1.56 0-2.16-1.44l-14.16-30.24h-18.96q-1.2 0-1.2 1.08v29.16q0 1.44-1.32 1.44m2.52-36.84h20.76q5.52 0 8.52-3 3-3.12 3-8.76v-11.28q0-5.64-3-8.76t-8.52-3.12h-20.76q-1.2 0-1.2 1.08v32.76q0 1.08 1.2 1.08M769.71 572h-37.08q-1.2 0-1.2-1.44v-74.28q0-1.44 1.2-1.44h37.08q1.44 0 1.44 1.32v2.76q0 1.32-1.44 1.32h-31.08q-1.2 0-1.2 1.08v27.6q0 1.08 1.2 1.08h27.72q1.32 0 1.32 1.32v2.76q0 1.32-1.32 1.32h-27.72q-1.2 0-1.2 1.08v29.04q0 1.08 1.2 1.08h31.08q1.44 0 1.44 1.32v2.76q0 1.32-1.44 1.32m17.454 0h-3.72q-1.32 0-.84-1.44l23.88-74.28q.36-1.44 1.68-1.44h5.64q1.2 0 1.68 1.44l23.88 74.28q.36 1.44-.84 1.44h-3.84q-1.2 0-1.56-1.44l-6.48-19.2h-31.44l-6.48 19.2q-.48 1.44-1.56 1.44m23.52-70.56-13.8 44.52h28.2l-13.92-44.52zm49.704 65.16h23.04q5.52 0 8.4-3 3-3.12 3-8.88v-42.6q0-5.76-3-8.76-2.88-3.12-8.4-3.12h-23.04q-1.2 0-1.2 1.08v64.2q0 1.08 1.2 1.08m-7.2 3.96v-74.28q0-1.44 1.2-1.44h29.64q7.8 0 12.24 4.56 4.56 4.56 4.56 12.48v43.08q0 7.92-4.56 12.48-4.44 4.56-12.24 4.56h-29.64q-1.2 0-1.2-1.44M311.766 704h-3.48q-1.32 0-1.32-1.44v-69.24q0-1.08-1.2-1.08h-17.4q-1.44 0-1.44-1.32v-2.76q0-1.32 1.44-1.32h43.2q1.44 0 1.44 1.32v2.76q0 1.32-1.44 1.32h-17.4q-1.2 0-1.2 1.08v69.24q0 1.44-1.2 1.44m38.27 0h-3.48q-1.2 0-1.2-1.44v-74.28q0-1.44 1.2-1.44h3.48q1.32 0 1.32 1.44v32.76q0 1.08 1.2 1.08h33.6q1.2 0 1.2-1.08v-32.76q0-1.44 1.2-1.44h3.48q1.32 0 1.32 1.44v74.28q0 1.44-1.32 1.44h-3.48q-1.2 0-1.2-1.44V668.6q0-1.08-1.2-1.08h-33.6q-1.2 0-1.2 1.08v33.96q0 1.44-1.32 1.44m70.358-75.72v74.28q0 1.44-1.32 1.44h-3.48q-1.2 0-1.2-1.44v-74.28q0-1.44 1.2-1.44h3.48q1.32 0 1.32 1.44m20.576 58.68v-4.32q0-1.32 1.32-1.32h3.48q1.32 0 1.32 1.32v3.96q0 12 11.64 12h12.48q11.64 0 11.64-12.12v-5.04q0-5.28-4.32-8.28t-10.44-4.32-12.36-2.76q-6.12-1.44-10.44-5.28t-4.32-10.32v-6.6q0-7.92 4.56-12.48t12.36-4.56h13.92q7.8 0 12.36 4.56t4.56 12.48v3.36q0 1.32-1.32 1.32h-3.48q-1.32 0-1.32-1.32v-3q0-12-11.64-12h-12.36q-11.52 0-11.52 12.24v6q0 8.28 14.76 11.16 6.12 1.2 12.24 2.76 6.24 1.56 10.56 5.64t4.32 11.04v5.88q0 7.92-4.56 12.48T472.05 704h-14.16q-7.8 0-12.36-4.56t-4.56-12.48M545.505 704h-3.48q-1.2 0-1.2-1.44v-74.28q0-1.44 1.2-1.44h36.96q1.44 0 1.44 1.32v2.76q0 1.32-1.44 1.32h-30.96q-1.2 0-1.2 1.08v29.16q0 .96 1.2.96h27.72q1.32 0 1.32 1.32v2.88q0 1.32-1.32 1.32h-27.72q-1.2 0-1.2.96v32.64q0 1.44-1.32 1.44m56.998-75.72v74.28q0 1.44-1.32 1.44h-3.48q-1.2 0-1.2-1.44v-74.28q0-1.44 1.2-1.44h3.48q1.32 0 1.32 1.44M628.239 704h-3.48q-1.2 0-1.2-1.44v-74.28q0-1.44 1.2-1.44h27.36q7.8 0 12.36 4.56t4.56 12.48v11.4q0 6.72-3.48 11.04-3.36 4.32-9.24 5.52v.48l14.28 30.24q.72 1.44-.84 1.44h-3.72q-1.56 0-2.16-1.44l-14.16-30.24h-18.96q-1.2 0-1.2 1.08v29.16q0 1.44-1.32 1.44m2.52-36.84h20.76q5.52 0 8.52-3 3-3.12 3-8.76v-11.28q0-5.64-3-8.76t-8.52-3.12h-20.76q-1.2 0-1.2 1.08v32.76q0 1.08 1.2 1.08m56.422 19.8v-4.32q0-1.32 1.32-1.32h3.48q1.32 0 1.32 1.32v3.96q0 12 11.64 12h12.48q11.64 0 11.64-12.12v-5.04q0-5.28-4.32-8.28t-10.44-4.32-12.36-2.76q-6.12-1.44-10.44-5.28t-4.32-10.32v-6.6q0-7.92 4.56-12.48t12.36-4.56h13.92q7.8 0 12.36 4.56t4.56 12.48v3.36q0 1.32-1.32 1.32h-3.48q-1.32 0-1.32-1.32v-3q0-12-11.64-12h-12.36q-11.52 0-11.52 12.24v6q0 8.28 14.76 11.16 6.12 1.2 12.24 2.76 6.24 1.56 10.56 5.64t4.32 11.04v5.88q0 7.92-4.56 12.48t-12.36 4.56h-14.16q-7.8 0-12.36-4.56t-4.56-12.48M771.844 704h-3.48q-1.32 0-1.32-1.44v-69.24q0-1.08-1.2-1.08h-17.4q-1.44 0-1.44-1.32v-2.76q0-1.32 1.44-1.32h43.2q1.44 0 1.44 1.32v2.76q0 1.32-1.44 1.32h-17.4q-1.2 0-1.2 1.08v69.24q0 1.44-1.2 1.44"/></g></g><defs><clipPath id="a"><path fill="#fff" d="M0 0h1080v1350H0z"/></clipPath><clipPath id="b"><path fill="#fff" d="M0 0h1080v1350H0z"/></clipPath></defs></svg>