<svg xmlns="http://www.w3.org/2000/svg" width="1080" height="1350" fill="none"><path fill="#000" d="M323.942 418.999h2.76l9.72 28h-2.4l-2.72-8h-11.96l-2.72 8h-2.4zm6.68 17.96-5.24-15.44h-.12l-5.2 15.44zM340.641 427.079h2.2v4.64l4.64-4.64h5.88l3.48 3.48v16.44h-2.24v-15.72l-2.2-2.16h-4.24l-5.28 5.24v12.64h-2.24zM362.624 443.519v-12.96l3.48-3.48h7.52l3.64 3.16v-11.8h2.24v28.56h-2.2v-3.96l-3.96 3.96h-7.24zm10.16 1.44 4.48-4.48v-7.76l-4.2-3.64h-6l-2.2 2.16v11.56l2.2 2.16zM411.407 427.079v25.16l-3.48 3.44h-9.32l-2.84-2.8v-2.28h2.24v1.56l1.56 1.52h7.4l2.2-2.16v-9.24l-4.72 4.72h-5.8l-3.48-3.48v-16.44h2.24v15.72l2.2 2.16h4.2l5.36-5.4v-12.48zM417.389 443.519v-12.96l3.48-3.48h9.92l3.48 3.48v12.96l-3.48 3.48h-9.92zm12.44 1.44 2.2-2.16v-11.56l-2.2-2.16h-8l-2.2 2.16v11.56l2.2 2.16zM440.05 443.519v-16.44h2.24v15.72l2.2 2.16h4.2l5.28-5.28v-12.6h2.24v19.92h-2.2v-4.64l-4.64 4.64h-5.84zM470.447 427.079h2.32l3.64 17.32h.12l5.16-17.32h2.24l4.68 17.32h.12l3.96-17.32h2.32l-4.96 19.92h-2.48l-4.72-17.24h-.08l-5.2 17.24h-2.52zM499.62 422.399v-1.52l1-1h1.44l1 1v1.52l-1 1h-1.44zm.6 4.68h2.24v19.92h-2.24zM509.474 418.439h2.24v28.56h-2.24zM518.497 418.439h2.24v28.56h-2.24zM536.774 427.079h2.2v3.72l3.76-3.72h4.92v2h-4.28l-4.36 4.32v13.6h-2.24zM550.436 443.519v-12.96l3.48-3.48h9.72l3.52 3.48v7.08h-14.48v5.12l2.24 2.2h7.72l2.24-2.16v-1.76h2.24v2.44l-3.52 3.52h-9.68zm14.48-7.84v-4.4l-2.2-2.2h-7.84l-2.2 2.2v4.4zM572.345 443.919v-5.24l3.08-3h10.8v-4.44l-2.2-2.2h-7.04l-2.24 2.2v1.8h-2.24v-2.48l3.48-3.48h9l3.48 3.48v16.44h-2.2v-3.88l-4 3.88h-6.84zm9.4 1.08 4.48-4.4v-2.92h-9.88l-1.76 1.68v3.92l1.76 1.72zM594.264 443.519v-12.96l3.48-3.48h7.52l3.64 3.16v-11.8h2.24v28.56h-2.2v-3.96l-3.96 3.96h-7.24zm10.16 1.44 4.48-4.48v-7.76l-4.2-3.64h-6l-2.2 2.16v11.56l2.2 2.16zM628.808 443.519v-14.48h-3.6v-1.96h3.68v-6.48h2.16v6.48h6.24v2h-6.24v13.72l2.2 2.2h4.04v2h-5zM642.281 418.439h2.24v13.24l4.6-4.6h5.96l3.48 3.48v16.44h-2.24v-15.76l-2.2-2.16h-4.32l-5.28 5.28v12.64h-2.24zM664.542 422.399v-1.52l1-1h1.44l1 1v1.52l-1 1h-1.44zm.6 4.68h2.24v19.92h-2.24zM673.195 443.919v-2.48h2.24v1.8l1.8 1.76h7.68l1.8-1.76v-3.52l-1.8-1.8h-8.6l-2.96-2.96v-4.8l3.12-3.08h9l3.08 3.08v2.48h-2.24v-1.8l-1.8-1.8h-7.08l-1.84 1.8v3.36l1.84 1.8h8.4l3.12 3.12v4.76l-3.12 3.12h-9.56zM704.005 418.439h2.24v28.56h-2.24zM712.228 443.919v-5.24l3.08-3h10.8v-4.44l-2.2-2.2h-7.04l-2.24 2.2v1.8h-2.24v-2.48l3.48-3.48h9l3.48 3.48v16.44h-2.2v-3.88l-4 3.88h-6.84zm9.4 1.08 4.48-4.4v-2.92h-9.88l-1.76 1.68v3.92l1.76 1.72zM733.547 443.919v-2.48h2.24v1.8l1.8 1.76h7.68l1.8-1.76v-3.52l-1.8-1.8h-8.6l-2.96-2.96v-4.8l3.12-3.08h9l3.08 3.08v2.48h-2.24v-1.8l-1.8-1.8h-7.08l-1.84 1.8v3.36l1.84 1.8h8.4l3.12 3.12v4.76l-3.12 3.12h-9.56zM756.503 443.519v-14.48h-3.6v-1.96h3.68v-6.48h2.16v6.48h6.24v2h-6.24v13.72l2.2 2.2h4.04v2h-5zM312.43 779.496h-9.964v-2.397h22.654v2.397h-9.964v30.503h-2.726zM330.984 776.441h2.632v15.557l5.405-5.405h7.003l4.089 4.089v19.317h-2.632v-18.518l-2.585-2.538h-5.076l-6.204 6.204v14.852h-2.632zM357.375 805.91v-15.228l4.089-4.089h11.421l4.136 4.089v8.319h-17.014v6.016l2.632 2.585h9.071l2.632-2.538v-2.068h2.632v2.867l-4.136 4.136h-11.374zm17.014-9.212v-5.17l-2.585-2.585h-9.212l-2.585 2.585v5.17zM384.294 786.593h2.585v5.452l5.452-5.452h6.909l4.089 4.089v19.317h-2.632v-18.471l-2.585-2.538h-4.982l-6.204 6.157v14.852h-2.632zM441.488 786.593v29.563l-4.089 4.042h-10.951l-3.337-3.29v-2.679h2.632v1.833l1.833 1.786h8.695l2.585-2.538v-10.857l-5.546 5.546h-6.815l-4.089-4.089v-19.317h2.632v18.471l2.585 2.538h4.935l6.298-6.345v-14.664zM448.987 805.91v-15.228l4.089-4.089h11.656l4.089 4.089v15.228l-4.089 4.089h-11.656zm14.617 1.692 2.585-2.538v-13.583l-2.585-2.538h-9.4l-2.585 2.538v13.583l2.585 2.538zM476.083 805.91v-19.317h2.632v18.471l2.585 2.538h4.935l6.204-6.204v-14.805h2.632v23.406h-2.585v-5.452l-5.452 5.452h-6.862zM512.74 786.593h2.726l4.277 20.351h.141l6.063-20.351h2.632l5.499 20.351h.141l4.653-20.351h2.726l-5.828 23.406h-2.914l-5.546-20.257h-.094l-6.11 20.257h-2.961zM547.488 781.094v-1.786l1.175-1.175h1.692l1.175 1.175v1.786l-1.175 1.175h-1.692zm.705 5.499h2.633v23.406h-2.633zM559.536 776.441h2.632v33.558h-2.632zM570.608 776.441h2.632v33.558h-2.632zM593.023 786.593h2.585v4.371l4.418-4.371h5.781v2.35h-5.029l-5.123 5.076v15.98h-2.632zM609.547 805.91v-15.228l4.089-4.089h11.421l4.136 4.089v8.319h-17.014v6.016l2.632 2.585h9.071l2.632-2.538v-2.068h2.632v2.867l-4.136 4.136h-11.374zm17.014-9.212v-5.17l-2.585-2.585h-9.212l-2.585 2.585v5.17zM635.76 806.38v-6.157l3.619-3.525h12.69v-5.217l-2.585-2.585h-8.272l-2.632 2.585v2.115h-2.632v-2.914l4.089-4.089h10.575l4.089 4.089v19.317h-2.585v-4.559l-4.7 4.559h-8.037zm11.045 1.269 5.264-5.17v-3.431H640.46l-2.068 1.974v4.606l2.068 2.021zM661.985 805.91v-15.228l4.089-4.089h8.836l4.277 3.713v-13.865h2.632v33.558h-2.585v-4.653l-4.653 4.653h-8.507zm11.938 1.692 5.264-5.264v-9.118l-4.935-4.277h-7.05l-2.585 2.538v13.583l2.585 2.538zM703.514 805.91v-17.014h-4.23v-2.303h4.324v-7.614h2.538v7.614h7.332v2.35h-7.332v16.121l2.585 2.585h4.747v2.35h-5.875zM719.815 776.441h2.632v15.557l5.405-5.405h7.003l4.089 4.089v19.317h-2.632v-18.518l-2.585-2.538h-5.076l-6.204 6.204v14.852h-2.632zM746.442 781.094v-1.786l1.175-1.175h1.692l1.175 1.175v1.786l-1.175 1.175h-1.692zm.705 5.499h2.632v23.406h-2.632zM757.079 806.38v-2.914h2.632v2.115l2.115 2.068h9.024l2.115-2.068v-4.136l-2.115-2.115h-10.105l-3.478-3.478v-5.64l3.666-3.619h10.575l3.619 3.619v2.914h-2.632v-2.115l-2.115-2.115h-8.319l-2.162 2.115v3.948l2.162 2.115h9.87l3.666 3.666v5.593l-3.666 3.666h-11.233zM84.053 548.679h-.84v20.52h-1.2v-20.52h-1.2q-2.64 0-4.8-1.2-2.04-1.2-3.96-3.84l-11.64-16.2q-1.32-1.8-1.56-4.2t-.24-5.04v-13.8h1.2v13.8q0 2.52.24 4.8.24 2.16 1.44 3.96l11.64 16.2q1.56 2.4 3.6 3.36t4.08.96h3.24q2.28 0 4.08-.96 1.92-1.08 3.72-3.36l12-16.2q1.2-1.56 1.44-3.84.24-2.4.24-4.92v-13.8h1.2v13.8q0 2.64-.24 5.04-.12 2.28-1.56 4.2l-12 16.2q-1.92 2.64-4.08 3.84-2.04 1.2-4.8 1.2M193.263 554.559q0 7.2-5.16 11.76-5.16 4.44-19.2 4.44t-19.08-4.44q-5.04-4.56-5.04-11.76v-35.4q0-7.2 5.04-11.64 5.04-4.56 19.08-4.56t19.2 4.56q5.16 4.44 5.16 11.64zm-47.28 0q0 6.72 4.8 10.92 4.8 4.08 18.12 4.08t18.24-4.08q4.92-4.2 4.92-10.92v-35.4q0-6.72-4.92-10.8-4.92-4.2-18.24-4.2t-18.12 4.2q-4.8 4.08-4.8 10.8zM234.219 504.399h1.2v50.04q0 6.72 4.68 10.92 4.8 4.08 18.12 4.08t18.12-4.08q4.8-4.2 4.8-10.92v-50.04h1.2v50.04q0 7.2-5.04 11.76-5.04 4.44-19.08 4.44t-19.08-4.44q-4.92-4.56-4.92-11.76zM382.504 538.599q1.92 0 3.12 1.2 1.2 1.08 2.76 4.44l9.84 22.08q.48 1.2 1.44 1.44t1.8.24h.6q.96 0 1.8-.72.84-.84.96-1.8l3-13.68q.48-2.28.48-5.88.12-3.6.12-6.24v-35.28h1.2v35.4q0 2.64-.12 6.24 0 3.6-.48 5.88l-3 13.56q-.48 1.92-1.56 2.88-.96.84-2.4.84h-.84q-1.08 0-2.28-.36a2.9 2.9 0 0 1-1.68-1.68l-9.84-22.32q-1.44-3.24-2.52-4.08-.96-.96-2.4-.96h-5.4q-1.44 0-2.52.96-.96.84-2.4 4.08l-9.84 22.32a2.9 2.9 0 0 1-1.68 1.68q-1.2.36-2.28.36h-.84q-1.44 0-2.52-.84-.96-.96-1.44-2.88l-3-13.56q-.48-2.28-.6-5.88v-41.64h1.2v41.52q.12 3.6.6 5.88l3 13.68q.12.96.96 1.8.84.72 1.8.72h.6q.84 0 1.8-.24t1.44-1.44l9.84-22.08q1.56-3.36 2.76-4.44 1.2-1.2 3.12-1.2zM484.87 569.199h-38.16v-1.2h18.6v-62.4h-18.6v-1.2h38.16v1.2h-18.36v62.4h18.36zM523.566 569.199v-64.8h1.2v63.6h41.76v-23.64h1.2v24.84zM607.004 569.199v-64.8h1.2v63.6h41.76v-23.64h1.2v24.84zM743.463 505.599h-26.16v34.68h26.16q7.44 0 9.96-3.6t2.52-10.2v-8.4q0-5.52-3.12-9-3-3.48-9.36-3.48m-26.16 63.6h-1.2v-64.8h27.36q6.96 0 10.32 3.96 3.36 3.84 3.36 9.72v8.28q0 5.52-1.44 9.12-1.44 3.48-5.76 4.8h1.32q7.32 0 10.92 3.36 3.6 3.24 3.6 9.48v16.08h-1.2v-16.08q0-5.88-3.24-8.76-3.24-3-10.08-3h-33.96zM845.842 567.999v1.2h-40.44v-64.8h40.44v1.2h-39.24v30.12h29.52v1.2h-29.52v31.08zM882.958 543.639v3.72h46.8v-3.72q0-3.24-.6-6a32.4 32.4 0 0 0-1.32-5.16l-8.28-19.56q-1.32-3.12-2.76-5.16-1.44-2.16-4.8-2.16h-11.76q-3.6 0-5.04 2.16-1.44 2.04-2.64 5.04l-7.68 19.68q-.84 2.4-1.44 5.16-.48 2.76-.48 6m46.8 25.56v-20.64h-46.8v20.64h-1.2v-25.56q0-3.36.48-6.12.6-2.88 1.56-5.52l7.68-19.68q1.32-3.36 3-5.64t5.76-2.28h11.76q3.96 0 5.52 2.28 1.68 2.28 3.12 5.76l8.28 19.56q.96 2.64 1.44 5.52.6 2.76.6 6.12v25.56zM971.574 569.199v-64.8h29.036q6.12 0 9.84 1.32 3.84 1.32 5.88 3.6 2.04 2.16 2.76 5.28.72 3 .72 6.48v31.8q0 3.48-.72 6.48-.6 3-2.64 5.16t-5.88 3.48q-3.84 1.2-9.96 1.2zm29.036-63.6h-27.836v62.4h27.836q5.76 0 9.24-1.08 3.6-1.2 5.52-3.12a9.96 9.96 0 0 0 2.52-4.8q.72-2.88.72-6.12v-31.8q0-3.24-.72-6.12t-2.64-4.92-5.52-3.24q-3.48-1.2-9.12-1.2M209.209 701.199v-63.6h-24.6v-1.2h50.4v1.2h-24.6v63.6zM270.439 701.199v-64.8h1.2v31.8h46.08v-31.8h1.2v64.8h-1.2v-31.8h-46.08v31.8zM395.573 701.199h-38.16v-1.2h18.6v-62.4h-18.6v-1.2h38.16v1.2h-18.36v62.4h18.36zM470.99 636.399v1.2h-26.64q-5.04 0-8.04 2.76t-3 6.96v9.84q0 4.2 1.68 5.88t4.44 2.16l25.32 5.16q3.6.72 5.88 3.12 2.4 2.4 2.4 8.64v6.96q0 5.28-3.6 8.76-3.6 3.36-9.72 3.36h-29.88v-1.2h29.88q5.52 0 8.76-3 3.36-3.12 3.36-7.92v-6.96q0-5.64-2.04-7.68-1.92-2.16-5.28-2.88l-25.32-5.16q-3.12-.6-5.16-2.4-1.92-1.92-1.92-6.84v-9.84q0-4.8 3.36-7.8 3.36-3.12 8.88-3.12zM539.27 701.199v-64.8h38.28v1.2h-37.08v34.32h27.36v1.2h-27.36v28.08zM647.409 701.199h-38.16v-1.2h18.6v-62.4h-18.6v-1.2h38.16v1.2h-18.36v62.4h18.36zM713.345 637.599h-26.16v34.68h26.16q7.44 0 9.96-3.6t2.52-10.2v-8.4q0-5.52-3.12-9-3-3.48-9.36-3.48m-26.16 63.6h-1.2v-64.8h27.36q6.96 0 10.32 3.96 3.36 3.84 3.36 9.72v8.28q0 5.52-1.44 9.12-1.44 3.48-5.76 4.8h1.32q7.32 0 10.92 3.36 3.6 3.24 3.6 9.48v16.08h-1.2v-16.08q0-5.88-3.24-8.76-3.24-3-10.08-3h-33.96zM812.005 636.399v1.2h-26.64q-5.04 0-8.04 2.76t-3 6.96v9.84q0 4.2 1.68 5.88t4.44 2.16l25.32 5.16q3.6.72 5.88 3.12 2.4 2.4 2.4 8.64v6.96q0 5.28-3.6 8.76-3.6 3.36-9.72 3.36h-29.88v-1.2h29.88q5.52 0 8.76-3 3.36-3.12 3.36-7.92v-6.96q0-5.64-2.04-7.68-1.92-2.16-5.28-2.88l-25.32-5.16q-3.12-.6-5.16-2.4-1.92-1.92-1.92-6.84v-9.84q0-4.8 3.36-7.8 3.36-3.12 8.88-3.12zM869.56 701.199v-63.6h-24.6v-1.2h50.4v1.2h-24.6v63.6z"/><path fill="#000" d="M237.009 634.4v5.199h-24.601V703.2h-5.199v-63.601h-24.601V634.4zm160.564 0v5.199h-18.36v58.4h18.36v5.201h-42.16v-5.201h18.601v-58.4h-18.601V634.4zm74.257 54.679-.014.594q-.197 4.402-3.346 7.326-3.24 3-8.76 3h-29.88v1.2h29.88q6.12 0 9.72-3.36 3.374-3.262 3.586-8.106l.014-.654v-6.96q0-6.24-2.4-8.64-2.28-2.4-5.88-3.12l-25.32-5.16q-2.76-.48-4.44-2.16-1.575-1.575-1.674-5.365l-.006-.515v-9.84q0-4.2 3-6.96 2.812-2.587 7.418-2.749l.622-.011h26.64v-1.2h-26.64V634.4h28.639v5.199H444.35c-2.983 0-5.137.808-6.686 2.233-1.574 1.448-2.354 3.228-2.354 5.488v9.84c0 2.644.549 3.921 1.093 4.465.731.731 1.727 1.27 3.091 1.551l.278.053.029.005.028.006 25.312 5.158c2.74.548 5.073 1.757 6.902 3.667 2.186 2.186 2.986 5.766 2.986 10.055v6.96c0 4.029-1.397 7.479-4.21 10.198l-.025.023c-2.855 2.665-6.626 3.899-11.084 3.899h-31.881v-5.201h31.881c3.307 0 5.697-.89 7.4-2.467 1.81-1.682 2.719-3.78 2.719-6.452zM579.55 634.4v5.199h-37.08v30.32h27.359v5.201H542.47v28.08h-5.2v-68.8zm69.859 0v5.199h-18.36v58.4h18.36v5.201h-42.16v-5.201h18.601v-58.4h-18.601V634.4zm86.256 50.719q0-6.24-3.6-9.48-3.6-3.36-10.92-3.36h-1.32q4.32-1.32 5.76-4.8 1.44-3.6 1.44-9.12v-8.28q0-5.88-3.36-9.72-3.36-3.96-10.32-3.96h-27.36v64.8h1.2v-27.84h33.96q6.84 0 10.08 3 3.24 2.88 3.24 8.76v16.08h1.2zm77.18 3.96-.013.594q-.197 4.402-3.347 7.326-3.24 3-8.76 3h-29.88v1.2h29.88q6.12 0 9.72-3.36 3.375-3.262 3.586-8.106l.014-.654v-6.96q0-6.24-2.4-8.64-2.28-2.4-5.88-3.12l-25.32-5.16q-2.76-.48-4.44-2.16-1.574-1.575-1.673-5.365l-.007-.515v-9.84q0-4.2 3-6.96 2.813-2.587 7.418-2.749l.622-.011h26.64v-1.2h-26.64V634.4h28.64v5.199h-28.64c-2.982 0-5.137.808-6.685 2.233-1.575 1.448-2.355 3.228-2.355 5.488v9.84c0 2.644.55 3.921 1.094 4.465.731.731 1.726 1.27 3.091 1.551l.278.053.028.005.029.006 25.311 5.158c2.741.548 5.073 1.757 6.903 3.667 2.186 2.186 2.986 5.766 2.986 10.055v6.96c0 4.029-1.397 7.479-4.21 10.198l-.025.023c-2.855 2.665-6.627 3.899-11.084 3.899h-31.881v-5.201h31.881c3.307 0 5.696-.89 7.4-2.467 1.81-1.682 2.719-3.78 2.719-6.452zM897.36 634.4v5.199h-24.6V703.2h-5.199v-63.601H842.96V634.4zm-539.947 1.999v1.2h18.6v62.4h-18.6v1.2h38.16v-1.2h-18.36v-62.4h18.36v-1.2zm251.836 0v1.2h18.6v62.4h-18.6v1.2h38.16v-1.2h-18.36v-62.4h18.36v-1.2zm201.596 45.721c0-3.675-.697-5.508-1.454-6.266l-.041-.042-.039-.044c-.947-1.065-2.3-1.845-4.205-2.253l-25.279-5.152c-2.371-.456-4.435-1.39-6.105-2.864l-.047-.041-.044-.044c-1.863-1.863-2.506-4.836-2.506-8.254v-9.84c0-3.728 1.333-6.885 4.028-9.292 2.679-2.473 6.151-3.628 10.212-3.628v1.999l-.681.013q-5.049.183-8.199 3.107-3.36 3-3.36 7.8v9.84l.008.604q.112 4.437 1.912 6.236 2.04 1.8 5.16 2.4l25.32 5.16q3.36.72 5.28 2.88 2.04 2.04 2.04 7.68v6.96l-2 .001zm-341.016 0c0-3.675-.696-5.508-1.454-6.266l-.041-.042-.039-.044c-.947-1.065-2.3-1.845-4.204-2.253l-25.279-5.152c-2.372-.456-4.436-1.39-6.106-2.864l-.047-.041-.044-.044c-1.862-1.863-2.506-4.836-2.506-8.254v-9.84c0-3.728 1.333-6.886 4.029-9.292 2.678-2.473 6.15-3.628 10.212-3.628v1.999l-.682.013q-5.048.183-8.198 3.107-3.36 3-3.36 7.8v9.84l.007.604q.113 4.437 1.913 6.236 2.04 1.8 5.16 2.4l25.32 5.16q3.36.72 5.28 2.88 2.04 2.04 2.04 7.68v6.96l-2.001.001zm253.996-32.04c0-3.282-.916-5.777-2.609-7.665l-.026-.03c-1.49-1.728-3.953-2.786-7.844-2.786h-24.16v30.681h24.16c4.757 0 7.215-1.167 8.321-2.747 1.354-1.934 2.158-4.87 2.158-9.054zm-452.186-13.681h-1.2v64.8h1.2v-31.8h46.08v31.8h1.2v-64.8h-1.2v31.8h-46.08zm-128.857-81.84V519.16c0-5.319 1.887-9.756 5.698-13.123l.381-.33c4.023-3.346 10.925-4.748 20.041-4.748l.001 2q-14.04 0-19.08 4.56-5.04 4.44-5.04 11.64v35.4q0 7.2 5.04 11.76 5.04 4.44 19.08 4.44t19.2-4.44q4.998-4.416 5.155-11.312l.005-.448v-35.4q0-7.2-5.16-11.64-5.16-4.56-19.2-4.56l-.001-2c9.404 0 16.468 1.493 20.504 5.044 3.91 3.365 5.857 7.812 5.857 13.157v35.399c0 5.344-1.945 9.82-5.836 13.259l-.02.017c-4.03 3.469-11.092 4.924-20.505 4.924-4.772 0-8.866-.376-12.243-1.162-3.364-.783-6.142-2.001-8.158-3.777l-.011-.009-.01-.009c-3.806-3.444-5.698-7.916-5.698-13.243M486.87 502.4v5.199h-18.36v58.4h18.36v5.201h-42.16v-5.201h18.601v-58.4H444.71V502.4zm36.696 1.999v64.8h44.16v-24.84h-1.2v23.64h-41.76v-63.6zm83.438 0v64.8h44.16v-24.84h-1.2v23.64h-41.76v-63.6zm158.779 48.72q0-6.24-3.6-9.48-3.6-3.36-10.92-3.36h-1.32q4.32-1.32 5.76-4.8 1.44-3.6 1.44-9.12v-8.28q0-5.88-3.36-9.72-3.36-3.96-10.32-3.96h-27.36v64.8h1.2v-27.84h33.96q6.84 0 10.08 3 3.24 2.88 3.24 8.76v16.08h1.2zm82.06-50.719v5.199h-39.24v26.12h29.519v5.2h-29.519v27.08h39.24v5.201h-44.441v-68.8zm83.115 41.239q0-3.36-.6-6.12-.48-2.88-1.44-5.52l-8.28-19.56q-1.44-3.48-3.12-5.76-1.56-2.28-5.52-2.28h-11.76V502.4h11.76c2.968 0 5.567.859 7.13 3.093 1.242 1.685 2.355 3.758 3.358 6.181l8.274 19.546.02.047.018.049a33 33 0 0 1 1.524 5.828c.428 1.989.636 4.158.636 6.495V571.2h-5.2v-20.641h-42.8V571.2h-5.2v-27.561c0-2.333.167-4.489.51-6.462l.005-.033.007-.032a42 42 0 0 1 1.638-5.796l.009-.022.008-.022 7.68-19.68.001-.004c.927-2.36 2.005-4.403 3.252-6.095 1.644-2.23 4.311-3.093 7.37-3.093v1.999l-.501.01q-3.684.133-5.259 2.27-1.68 2.28-3 5.64l-7.68 19.68q-.96 2.64-1.56 5.52-.48 2.76-.48 6.12v25.56h1.2v-20.64h46.8v20.64h1.2zm88.852-22.56q0-3.48-.72-6.48-.72-3.12-2.76-5.28-2.04-2.28-5.88-3.6-3.72-1.32-9.84-1.32h-29.036v64.8h29.036q6.12 0 9.96-1.2 3.84-1.32 5.88-3.48t2.64-5.16c.42-1.75.66-3.622.71-5.617l.01-.863zm-829.748-1.919c0-3.92-1.4-6.943-4.196-9.261l-.011-.009-.011-.01c-2.692-2.297-8.116-3.72-16.942-3.72-4.347 0-7.915.343-10.738.998-2.836.657-4.8 1.6-6.064 2.707l-.011.009-.011.009c-2.72 2.312-4.096 5.339-4.096 9.277v35.399c0 3.93 1.372 7.004 4.1 9.399 1.264 1.074 3.23 1.991 6.07 2.63 2.829.637 6.401.971 10.75.971 8.819 0 14.251-1.38 16.951-3.608 2.809-2.403 4.209-5.475 4.209-9.392zm45.357 35.279v-50.04h-1.2v50.04l.005.448q.149 6.896 4.915 11.312 5.04 4.44 19.08 4.44t19.08-4.44q4.882-4.416 5.035-11.312l.005-.448v-50.04h-1.2v50.04l-.004.418q-.146 6.434-4.796 10.502-4.8 4.08-18.12 4.08t-18.12-4.08q-4.534-4.068-4.675-10.502zm211.291-50.04v1.2h18.6v62.4h-18.6v1.2h38.16v-1.2h-18.36v-62.4h18.36v-1.2zm358.692 0v64.8h40.44v-1.2h-39.24v-31.08h29.52v-1.2h-29.52v-30.12h39.24v-1.2zm-454.218 0h-1.2v41.64q.12 3.6.6 5.88l3 13.56q.48 1.92 1.44 2.88 1.08.84 2.52.84h.84q1.08 0 2.28-.36a2.9 2.9 0 0 0 1.68-1.68l9.84-22.32q1.44-3.24 2.4-4.08 1.08-.96 2.52-.96h5.4q1.44 0 2.4.96 1.08.84 2.52 4.08l9.84 22.32q.48 1.2 1.68 1.68 1.2.36 2.28.36h.84q1.44 0 2.4-.84 1.08-.96 1.56-2.88l3-13.56q.48-2.28.48-5.88.12-3.6.12-6.24v-35.4h-1.2v35.28q0 2.64-.12 6.24 0 3.6-.48 5.88l-3 13.68q-.12.96-.96 1.8-.84.72-1.8.72h-.6q-.84 0-1.8-.24t-1.44-1.44l-9.84-22.08q-1.56-3.36-2.76-4.44-1.2-1.2-3.12-1.2h-5.4v-2h5.4c1.699 0 3.243.54 4.458 1.714l.211.2c1.052 1.047 2.046 2.776 3.024 4.884l.007.015.006.013 9.841 22.08.015.036.014.036c.056.14.106.218.134.256.481.116.895.166 1.25.166h.599c.084 0 .219-.017.44-.192.271-.287.323-.477.336-.576l.012-.091 3.015-13.753c.281-1.332.438-3.14.438-5.468v-.033l.001-.033q.119-3.577.119-6.174V502.4h5.2v37.399q0 2.684-.121 6.307c-.003 2.444-.166 4.533-.523 6.226l-.003.019-3.006 13.587-.007.026c-.383 1.53-1.059 2.9-2.172 3.89l-.006.006-.006.005c-1.052.92-2.339 1.335-3.717 1.335h-.839a9.9 9.9 0 0 1-2.855-.445l-.086-.025-.082-.033a4.9 4.9 0 0 1-2.767-2.731l-9.838-22.315c-.459-1.032-.868-1.824-1.224-2.401-.374-.605-.615-.848-.696-.912l-.099-.076-.088-.089c-.24-.24-.52-.374-.985-.374h-5.4c-.469 0-.837.14-1.192.455l-.012.01c-.075.066-.305.325-.672.949-.348.59-.754 1.394-1.215 2.432l.001.001-9.84 22.32-.001-.001a4.9 4.9 0 0 1-2.767 2.732l-.083.033-.085.025a9.9 9.9 0 0 1-2.854.445h-.84c-1.38 0-2.658-.414-3.748-1.262l-.099-.076-.088-.088c-.987-.988-1.595-2.329-1.965-3.81l-.007-.026-3.006-13.587-.004-.019c-.353-1.678-.561-3.765-.643-6.226l-.001-.033V502.4h5.201v43.472c.078 2.32.269 4.141.553 5.499l3.02 13.769.012.091c.012.099.064.29.335.578.221.174.356.19.44.19h.6c.354 0 .768-.05 1.249-.166.027-.038.077-.116.133-.256l.015-.036.016-.036 9.839-22.08.007-.013.006-.015c1.044-2.248 2.106-4.066 3.237-5.084 1.214-1.174 2.758-1.714 4.458-1.714v2q-1.92 0-3.12 1.2-1.2 1.08-2.76 4.44l-9.84 22.08q-.48 1.2-1.44 1.44t-1.8.24h-.6q-.96 0-1.8-.72-.84-.84-.96-1.8l-3-13.68q-.48-2.28-.6-5.88zm665.426 16.681q0-3.016-.66-5.635c-.4-1.609-1.12-2.938-2.15-4.034-.99-1.049-2.51-1.983-4.7-2.714l-.01-.003-.01-.004c-2.03-.7-4.82-1.091-8.47-1.091h-25.836v58.4h25.836c3.73 0 6.58-.352 8.63-.984 2.19-.733 3.71-1.632 4.7-2.614a7.9 7.9 0 0 0 2-3.826l.01-.031v-.03q.66-2.619.66-5.635zm-956.797-2.881v-13.8h-1.2v13.8l.004.657q.026 2.284.236 4.383.24 2.4 1.56 4.2l11.64 16.2q1.92 2.64 3.96 3.84 2.16 1.2 4.8 1.2h1.2v20.52h1.2v-20.52h.84q2.76 0 4.8-1.2 2.16-1.2 4.08-3.84l12-16.2q1.44-1.92 1.56-4.2.21-2.1.236-4.383l.004-.657v-13.8h-1.2v13.8l-.004.629a49 49 0 0 1-.236 4.291q-.24 2.28-1.44 3.84l-12 16.2q-1.8 2.28-3.72 3.36-1.8.96-4.08.96h-3.24q-2.04 0-4.08-.96t-3.6-3.36l-11.64-16.2q-1.2-1.8-1.44-3.96a45 45 0 0 1-.236-4.173zm867.945 25.44c0-2.037-.189-3.893-.555-5.575l-.009-.041-.006-.041a30.6 30.6 0 0 0-1.22-4.789l-8.252-19.494c-.843-1.992-1.698-3.576-2.552-4.786l-.016-.022-.014-.022c-.482-.723-1.344-1.27-3.136-1.27h-11.76c-2.013 0-2.92.586-3.376 1.27l-.014.022-.016.022c-.848 1.201-1.659 2.735-2.417 4.629l-7.66 19.627a42 42 0 0 0-1.352 4.845c-.294 1.702-.445 3.576-.445 5.625v1.721h42.8zM753.942 518.08c0-3.282-.916-5.777-2.609-7.665l-.025-.03c-1.491-1.728-3.954-2.786-7.845-2.786h-24.16v30.681h24.16c4.757 0 7.215-1.167 8.321-2.747 1.354-1.934 2.158-4.87 2.158-9.054zM210.409 701.199v-63.6h24.6v-1.2h-50.4v1.2h24.6v63.6zm330.061 0v-28.08h27.36v-1.2h-27.36v-34.32h37.08v-1.2h-38.28v64.8zm330.29 0v-63.6h24.6v-1.2h-50.4v1.2h24.6v63.6zm-144.935-42.72q0 6.6-2.52 10.2t-9.96 3.6h-26.16v-34.68h26.16q6.36 0 9.36 3.48 3.12 3.48 3.12 9zm3.2-.119c0 3.835-.497 7.149-1.583 9.862l-.004.011-.004.012a9.6 9.6 0 0 1-1.463 2.441c2.977.548 5.492 1.668 7.431 3.467 2.936 2.642 4.263 6.414 4.263 10.967v18.08h-5.199v-18.08c0-3.562-.973-5.847-2.57-7.266l-.014-.014-.016-.013c-1.632-1.512-4.398-2.467-8.72-2.467h-31.96v27.84h-5.201v-68.8h29.361c5.003 0 9.086 1.432 11.824 4.642 2.607 2.98 3.855 6.712 3.855 11.038zM320.919 703.2h-5.2v-31.8h-42.08v31.8h-5.201v-68.8h5.201v31.8h42.08v-31.8h5.2zm608.839-155.841h-46.8v-3.72q0-3.24.48-6 .6-2.76 1.44-5.16l7.68-19.68q1.2-3 2.64-5.04 1.35-2.024 4.599-2.151l.441-.009h11.76q3.36 0 4.8 2.16 1.44 2.04 2.76 5.16l8.28 19.56q.84 2.4 1.32 5.16.6 2.76.6 6zm88.852 5.52-.01.805a24.6 24.6 0 0 1-.71 5.315 9.96 9.96 0 0 1-2.52 4.8q-1.92 1.92-5.52 3.12-3.48 1.08-9.24 1.08h-27.836v-62.4h27.836q5.64 0 9.12 1.2 3.6 1.2 5.52 3.24t2.64 4.92.72 6.12zm3.2 0c0 2.458-.25 4.777-.77 6.948-.48 2.325-1.52 4.363-3.13 6.066-1.65 1.745-3.93 3.05-6.69 3.998l-.02.009-.03.009c-2.82.883-6.37 1.291-10.56 1.291h-31.036v-68.8h31.036c4.19 0 7.72.446 10.49 1.428 2.78.956 5.07 2.313 6.73 4.158 1.59 1.707 2.66 3.773 3.21 6.146l.18.822c.4 1.931.59 3.975.59 6.126zm-829.747 1.68q0 6.72-4.92 10.92-4.92 4.08-18.24 4.08t-18.12-4.08q-4.8-4.2-4.8-10.92v-35.4q0-6.72 4.8-10.8 4.8-4.2 18.12-4.2l.824.005q12.65.127 17.416 4.195 4.92 4.08 4.92 10.8zm563.88-28.08q0 6.6-2.52 10.2t-9.96 3.6h-26.16v-34.68h26.16q6.36 0 9.36 3.48 3.12 3.48 3.12 9zm3.2-.119c0 3.835-.498 7.149-1.583 9.862l-.004.011-.005.012a9.6 9.6 0 0 1-1.463 2.441c2.977.548 5.492 1.668 7.432 3.467 2.935 2.642 4.262 6.414 4.262 10.967v18.08h-5.199v-18.08c0-3.562-.973-5.847-2.569-7.266l-.015-.014-.016-.013c-1.632-1.512-4.398-2.467-8.72-2.467h-31.96v27.84h-5.2v-68.8h29.36c5.003 0 9.086 1.432 11.824 4.642 2.607 2.98 3.856 6.712 3.856 11.038zm-650.41-8.16q.001 2.73-.25 5.239c-.118 1.897-.782 3.638-1.944 5.19l.001.001-11.99 16.185c-1.388 1.908-2.939 3.408-4.684 4.388l.001.001c-1.4.823-2.965 1.284-4.654 1.426v20.57h-5.2v-20.546c-1.775-.108-3.441-.576-4.971-1.426l-.022-.012-.021-.012c-1.668-.982-3.18-2.485-4.563-4.388l-.007-.01-11.64-16.199c-1.101-1.508-1.734-3.249-1.926-5.168a52 52 0 0 1-.246-4.561l-.004-.678v-15.8h5.2v15.8q0 2.418.228 4.579l.059.416a6.75 6.75 0 0 0 1.047 2.639l11.638 16.197.026.039c.89 1.371 1.83 2.195 2.774 2.639 1.122.528 2.193.77 3.229.77h3.24c1.22 0 2.242-.253 3.114-.713.986-.558 2.03-1.473 3.11-2.84l11.968-16.157.022-.029c.538-.7.906-1.611 1.035-2.82q.23-2.296.23-4.72v-15.8h5.2zm175.606 36.24c0 5.327-1.892 9.798-5.698 13.242l-.01.01-.01.008c-2.016 1.776-4.794 2.994-8.158 3.777-3.377.786-7.471 1.162-12.244 1.162s-8.866-.376-12.243-1.162c-3.365-.783-6.143-2.001-8.159-3.777l-.019-.017-.019-.017c-3.72-3.448-5.56-7.915-5.56-13.226V502.4h5.2v52.04c0 3.943 1.342 7.019 3.991 9.408 1.265 1.069 3.227 1.983 6.059 2.62 2.828.637 6.4.972 10.75.972s7.922-.335 10.751-.972c2.836-.638 4.801-1.554 6.065-2.626 2.731-2.396 4.105-5.47 4.105-9.402V502.4h5.199zm242.428 11.559h37.759V542.36h5.201v28.84h-48.161v-68.8h5.201zm83.437 0h37.76V542.36h5.2v28.84h-48.16v-68.8h5.2z"/></svg>