<svg xmlns="http://www.w3.org/2000/svg" width="1080" height="1350" fill="none"><path fill="#000" d="m218.211 448 7.6-29.2h4.84l7.56 29.2h-3.64l-1.92-7.76h-8.84l-1.92 7.76zm6.32-10.8h7.36l-2.24-9q-.64-2.56-1-4.28t-.44-2.24q-.08.52-.44 2.24a105 105 0 0 1-1 4.24zM243.875 448v-22h3.6v4.2h.76l-.76.84q0-2.6 1.56-4 1.56-1.44 4.32-1.44 3.321 0 5.28 2.04t1.96 5.56V448h-3.6v-14.4q0-2.36-1.28-3.6-1.24-1.28-3.4-1.28-2.24 0-3.56 1.36-1.28 1.36-1.28 3.92v14zM274.9 448.4q-3.28 0-5.32-2.2-2-2.2-2-5.96v-6.44q0-3.8 2-6t5.32-2.2q2.72 0 4.36 1.48t1.64 3.96l-.72-.84h.8l-.08-5v-6.4h3.6V448h-3.6v-4.2h-.72l.72-.84q0 2.52-1.64 4-1.64 1.44-4.36 1.44m1.2-3.12q2.24 0 3.52-1.4t1.28-3.88v-6q0-2.48-1.28-3.88t-3.52-1.4q-2.28 0-3.6 1.36t-1.32 3.92v6q0 2.56 1.32 3.92t3.6 1.36M319.268 455.2l3.24-8.56-8.16-20.64h4l5.12 13.6q.28.68.52 1.64.24.92.4 1.56.16-.64.4-1.56.24-.96.48-1.64l4.8-13.6h3.88l-10.84 29.2zM348.133 448.32q-2.64 0-4.56-1a7.26 7.26 0 0 1-3-2.88q-1.04-1.92-1.04-4.52v-5.84q0-2.64 1.04-4.52a7.26 7.26 0 0 1 3-2.88q1.92-1 4.56-1t4.56 1a7 7 0 0 1 2.96 2.88q1.08 1.88 1.08 4.48v5.88q0 2.6-1.08 4.52a7 7 0 0 1-2.96 2.88q-1.92 1-4.56 1m0-3.2q2.36 0 3.68-1.32t1.32-3.88v-5.84q0-2.56-1.32-3.88t-3.68-1.32q-2.32 0-3.68 1.32-1.32 1.32-1.32 3.88v5.84q0 2.56 1.32 3.88 1.36 1.32 3.68 1.32M372.077 448.4q-3.8 0-6.08-2.24-2.28-2.28-2.28-6.16v-14h3.6v14q0 2.48 1.28 3.88 1.281 1.36 3.48 1.36 2.24 0 3.52-1.36 1.32-1.4 1.32-3.88v-14h3.6v14q0 3.88-2.32 6.16-2.319 2.24-6.12 2.24M413.006 448l-3.52-22h3.2l2.2 15.6q.12.88.24 1.92.16 1 .24 1.68.08-.68.24-1.68.2-1.04.32-1.92l2.44-15.6h3.44l2.44 15.6q.12.88.28 1.92.2 1 .28 1.68.08-.68.24-1.68.2-1.04.32-1.92l2.28-15.6h3.04l-3.68 22h-3.96l-2.36-15.2a67 67 0 0 0-.36-2.24 36 36 0 0 1-.28-1.76q-.08.64-.24 1.76a67 67 0 0 1-.36 2.24l-2.48 15.2zM435.47 448v-3.28h7.8v-15.44h-6.8V426h10.4v18.72h7.4V448zm9.2-25.96q-1.32 0-2.08-.68t-.76-1.84q0-1.2.76-1.88.76-.72 2.08-.72t2.08.72q.76.68.76 1.88 0 1.16-.76 1.84t-2.08.68M471.055 448q-1.92 0-3.36-.76a5.47 5.47 0 0 1-2.24-2.16q-.8-1.4-.8-3.28v-19.72h-7.4v-3.28h11v23q0 1.36.76 2.16.759.76 2.04.76h7V448zM495.039 448q-1.92 0-3.36-.76a5.47 5.47 0 0 1-2.24-2.16q-.8-1.4-.8-3.28v-19.72h-7.4v-3.28h11v23q0 1.36.76 2.16.76.76 2.04.76h7V448zM532.448 448v-22h3.52v4.2h.84l-1.16 2.6q0-3.56 1.52-5.36 1.56-1.84 4.6-1.84 3.48 0 5.52 2.2 2.08 2.16 2.08 5.88V435h-3.6v-1q0-2.6-1.28-3.96-1.24-1.4-3.56-1.4-2.28 0-3.6 1.4-1.28 1.4-1.28 3.96v14zM563.992 448.4q-2.6 0-4.56-1.04a7.53 7.53 0 0 1-3-2.92q-1.04-1.92-1.04-4.44v-6q0-2.56 1.04-4.44a7.53 7.53 0 0 1 3-2.92q1.96-1.04 4.56-1.04t4.52 1.04q1.96 1.04 3 2.92 1.08 1.88 1.08 4.44v3.88h-13.68V440q0 2.6 1.32 4 1.32 1.36 3.76 1.36 2.08 0 3.36-.72 1.281-.76 1.56-2.24h3.6q-.36 2.76-2.72 4.4-2.32 1.6-5.8 1.6m5.08-12.92V434q0-2.6-1.32-4-1.28-1.4-3.76-1.4-2.44 0-3.76 1.4t-1.32 4v1.16h10.44zM586.057 448.4q-3.48 0-5.48-1.76-2-1.8-2-4.84 0-3.08 2-4.84t5.4-1.76h6.8V433q0-2.04-1.24-3.12-1.2-1.12-3.44-1.12-1.96 0-3.28.84-1.32.8-1.52 2.2h-3.6q.36-2.84 2.68-4.52t5.8-1.68q3.8 0 6 1.96t2.2 5.32V448h-3.52v-4.2h-.6l.6-.6q0 2.4-1.88 3.8-1.84 1.4-4.92 1.4m.88-2.84q2.559 0 4.2-1.28 1.64-1.28 1.64-3.28v-3.12h-6.72q-1.8 0-2.84 1t-1.04 2.72q0 1.84 1.24 2.92 1.28 1.04 3.52 1.04M610.681 448.4q-3.28 0-5.32-2.2-2-2.2-2-5.96v-6.44q0-3.8 2-6t5.32-2.2q2.72 0 4.36 1.48t1.64 3.96l-.72-.84h.8l-.08-5v-6.4h3.6V448h-3.6v-4.2h-.72l.72-.84q0 2.52-1.64 4-1.64 1.44-4.36 1.44m1.2-3.12q2.24 0 3.52-1.4t1.28-3.88v-6q0-2.48-1.28-3.88t-3.52-1.4q-2.28 0-3.6 1.36t-1.32 3.92v6q0 2.56 1.32 3.92t3.6 1.36M662.33 448q-2.841 0-4.44-1.52-1.56-1.52-1.56-4.28v-12.92h-6.2V426h6.2v-6.2h3.6v6.2h8.8v3.28h-8.8v12.92q0 2.52 2.4 2.52h6V448zM675.594 448v-29.2h3.6v11.4h.76l-.76.84q0-2.6 1.56-4 1.56-1.44 4.32-1.44 3.32 0 5.28 2.04t1.96 5.56V448h-3.6v-14.4q0-2.36-1.28-3.64-1.24-1.32-3.4-1.32-2.24 0-3.56 1.4-1.28 1.4-1.28 3.96v14zM699.298 448v-3.28h7.8v-15.44h-6.8V426h10.4v18.72h7.4V448zm9.2-25.96q-1.32 0-2.08-.68t-.76-1.84q0-1.2.76-1.88.76-.72 2.08-.72t2.08.72q.76.68.76 1.88 0 1.16-.76 1.84t-2.08.68M731.203 448.32q-2.24 0-3.92-.68-1.64-.72-2.64-2-.96-1.28-1.16-3.04h3.6q.24 1.16 1.28 1.84 1.08.68 2.84.68h1.68q2.12 0 3.16-.84 1.04-.88 1.04-2.32 0-1.4-.96-2.2-.921-.84-2.76-1.12l-2.96-.48q-3.24-.56-4.84-2-1.56-1.48-1.56-4.28 0-2.96 1.88-4.56 1.88-1.64 5.64-1.64h1.52q3.16 0 5.08 1.48t2.32 4h-3.6q-.24-1.04-1.2-1.64-.96-.64-2.6-.64h-1.52q-2.04 0-3 .76-.92.76-.92 2.28 0 1.36.8 2t2.52.92l2.96.48q3.56.56 5.16 2.08 1.64 1.52 1.64 4.4 0 3.04-1.96 4.8-1.92 1.72-5.84 1.72zM782.852 448q-1.92 0-3.36-.76a5.47 5.47 0 0 1-2.24-2.16q-.8-1.4-.8-3.28v-19.72h-7.4v-3.28h11v23q0 1.36.76 2.16.759.76 2.04.76h7V448zM801.916 448.4q-3.48 0-5.48-1.76-2-1.8-2-4.84 0-3.08 2-4.84t5.4-1.76h6.8V433q0-2.04-1.24-3.12-1.2-1.12-3.44-1.12-1.96 0-3.28.84-1.32.8-1.52 2.2h-3.6q.36-2.84 2.68-4.52t5.8-1.68q3.8 0 6 1.96t2.2 5.32V448h-3.52v-4.2h-.6l.6-.6q0 2.4-1.88 3.8-1.84 1.4-4.92 1.4m.88-2.84q2.56 0 4.2-1.28t1.64-3.28v-3.12h-6.72q-1.8 0-2.84 1t-1.04 2.72q0 1.84 1.24 2.92 1.28 1.04 3.52 1.04M827.14 448.32q-2.24 0-3.92-.68-1.64-.72-2.64-2-.96-1.28-1.16-3.04h3.6q.24 1.16 1.28 1.84 1.08.68 2.84.68h1.68q2.12 0 3.16-.84 1.04-.88 1.04-2.32 0-1.4-.96-2.2-.92-.84-2.76-1.12l-2.96-.48q-3.24-.56-4.84-2-1.56-1.48-1.56-4.28 0-2.96 1.88-4.56 1.881-1.64 5.64-1.64h1.52q3.16 0 5.08 1.48t2.32 4h-3.6q-.24-1.04-1.2-1.64-.96-.64-2.6-.64h-1.52q-2.04 0-3 .76-.92.76-.92 2.28 0 1.36.8 2 .801.64 2.52.92l2.96.48q3.561.56 5.16 2.08 1.64 1.52 1.64 4.4 0 3.04-1.96 4.8-1.92 1.72-5.84 1.72zM854.205 448q-2.841 0-4.44-1.52-1.56-1.52-1.56-4.28v-12.92h-6.2V426h6.2v-6.2h3.6v6.2h8.8v3.28h-8.8v12.92q0 2.52 2.4 2.52h6V448zM222.226 811v-30.503h-9.4v-3.854h23.03v3.854h-9.4V811zM243.217 811v-34.31h4.23v13.395h.893l-.893.987q0-3.055 1.833-4.7 1.833-1.692 5.076-1.692 3.9 0 6.204 2.397t2.303 6.533V811h-4.23v-16.92q0-2.773-1.504-4.277-1.457-1.551-3.995-1.551-2.632 0-4.183 1.645-1.504 1.645-1.504 4.653V811zM281.644 811.47q-3.054 0-5.358-1.222a8.84 8.84 0 0 1-3.525-3.431q-1.221-2.256-1.222-5.217v-7.05q0-3.008 1.222-5.217a8.84 8.84 0 0 1 3.525-3.431q2.304-1.222 5.358-1.222 3.055 0 5.311 1.222 2.304 1.222 3.525 3.431 1.269 2.21 1.269 5.217v4.559h-16.074v2.491q0 3.055 1.551 4.7 1.551 1.598 4.418 1.598 2.445 0 3.948-.846 1.505-.893 1.833-2.632h4.23q-.423 3.243-3.196 5.17-2.726 1.88-6.815 1.88m5.969-15.181v-1.739q0-3.055-1.551-4.7-1.503-1.645-4.418-1.645-2.867 0-4.418 1.645t-1.551 4.7v1.363h12.267zM300.52 811v-25.85h4.23v4.935h.893l-.893.987q0-3.055 1.833-4.7 1.833-1.692 5.076-1.692 3.901 0 6.204 2.397t2.303 6.533V811h-4.23v-16.92q0-2.773-1.504-4.23-1.457-1.504-3.995-1.504-2.632 0-4.183 1.598-1.504 1.598-1.504 4.606V811zM361.865 819.46l3.807-10.058-9.588-24.252h4.7l6.016 15.98q.33.8.611 1.927.282 1.082.47 1.833.188-.751.47-1.833.282-1.128.564-1.927l5.64-15.98h4.559l-12.737 34.31zM396.251 811.376q-3.102 0-5.358-1.175a8.53 8.53 0 0 1-3.525-3.384q-1.222-2.256-1.222-5.311v-6.862q0-3.102 1.222-5.311a8.53 8.53 0 0 1 3.525-3.384q2.256-1.175 5.358-1.175t5.358 1.175a8.23 8.23 0 0 1 3.478 3.384q1.269 2.209 1.269 5.264v6.909q0 3.055-1.269 5.311a8.23 8.23 0 0 1-3.478 3.384q-2.256 1.175-5.358 1.175m0-3.76q2.773 0 4.324-1.551t1.551-4.559v-6.862q0-3.008-1.551-4.559t-4.324-1.551q-2.726 0-4.324 1.551-1.551 1.551-1.551 4.559v6.862q0 3.008 1.551 4.559 1.598 1.551 4.324 1.551M424.856 811.47q-4.465 0-7.144-2.632-2.679-2.68-2.679-7.238v-16.45h4.23v16.45q0 2.914 1.504 4.559 1.503 1.598 4.089 1.598 2.631 0 4.136-1.598 1.551-1.645 1.551-4.559v-16.45h4.23v16.45q0 4.559-2.726 7.238-2.727 2.632-7.191 2.632M473.887 811l-4.136-25.85h3.76l2.585 18.33q.141 1.034.282 2.256.188 1.174.282 1.974.094-.8.282-1.974.235-1.222.376-2.256l2.867-18.33h4.042l2.867 18.33q.141 1.034.329 2.256.235 1.174.329 1.974.094-.8.282-1.974.235-1.222.376-2.256l2.679-18.33h3.572L490.337 811h-4.653l-2.773-17.86a75 75 0 0 0-.423-2.632 43 43 0 0 1-.329-2.068q-.094.752-.282 2.068a75 75 0 0 1-.423 2.632L478.54 811zM500.753 811v-3.854h9.165v-18.142h-7.99v-3.854h12.22v21.996h8.695V811zm10.81-30.503q-1.551 0-2.444-.799-.894-.799-.893-2.162 0-1.41.893-2.209.893-.846 2.444-.846t2.444.846q.893.8.893 2.209 0 1.363-.893 2.162-.894.8-2.444.799M543.034 811q-2.256 0-3.948-.893a6.4 6.4 0 0 1-2.632-2.538q-.94-1.645-.94-3.854v-23.171h-8.695v-3.854h12.925v27.025q0 1.597.893 2.538.894.893 2.397.893h8.225V811zM571.686 811q-2.256 0-3.948-.893a6.4 6.4 0 0 1-2.632-2.538q-.94-1.645-.94-3.854v-23.171h-8.695v-3.854h12.925v27.025q0 1.597.893 2.538.892.893 2.397.893h8.225V811zM616.581 811v-25.85h4.136v4.935h.987l-1.363 3.055q0-4.183 1.786-6.298 1.833-2.162 5.405-2.162 4.089 0 6.486 2.585 2.444 2.538 2.444 6.909v1.551h-4.23v-1.175q0-3.055-1.504-4.653-1.457-1.645-4.183-1.645-2.679 0-4.23 1.645-1.504 1.645-1.504 4.653V811zM654.116 811.47q-3.056 0-5.358-1.222a8.84 8.84 0 0 1-3.525-3.431q-1.222-2.256-1.222-5.217v-7.05q0-3.008 1.222-5.217a8.84 8.84 0 0 1 3.525-3.431q2.303-1.222 5.358-1.222t5.311 1.222q2.302 1.222 3.525 3.431 1.269 2.21 1.269 5.217v4.559h-16.074v2.491q0 3.055 1.551 4.7 1.55 1.598 4.418 1.598 2.444 0 3.948-.846 1.503-.893 1.833-2.632h4.23q-.423 3.243-3.196 5.17-2.726 1.88-6.815 1.88m5.969-15.181v-1.739q0-3.055-1.551-4.7-1.505-1.645-4.418-1.645-2.868 0-4.418 1.645t-1.551 4.7v1.363h12.267zM680.511 811.47q-4.089 0-6.439-2.068-2.35-2.115-2.35-5.687 0-3.619 2.35-5.687t6.345-2.068h7.99v-2.585q0-2.397-1.457-3.666-1.41-1.316-4.042-1.316-2.303 0-3.854.987-1.55.94-1.786 2.585h-4.23q.423-3.337 3.149-5.311t6.815-1.974q4.466 0 7.05 2.303 2.586 2.303 2.585 6.251V811h-4.136v-4.935h-.705l.705-.705q0 2.82-2.209 4.465-2.162 1.645-5.781 1.645m1.034-3.337q3.009 0 4.935-1.504 1.927-1.504 1.927-3.854v-3.666h-7.896q-2.115 0-3.337 1.175t-1.222 3.196q0 2.162 1.457 3.431 1.505 1.222 4.136 1.222M709.915 811.47q-3.854 0-6.251-2.585-2.35-2.585-2.35-7.003v-7.567q0-4.466 2.35-7.05 2.35-2.585 6.251-2.585 3.196 0 5.123 1.739t1.927 4.653l-.846-.987h.94l-.094-5.875v-7.52h4.23V811h-4.23v-4.935h-.846l.846-.987q0 2.961-1.927 4.7-1.927 1.692-5.123 1.692m1.41-3.666q2.632 0 4.136-1.645t1.504-4.559v-7.05q0-2.914-1.504-4.559t-4.136-1.645q-2.679 0-4.23 1.598t-1.551 4.606v7.05q0 3.008 1.551 4.606t4.23 1.598M771.542 811q-3.336 0-5.217-1.786-1.833-1.786-1.833-5.029v-15.181h-7.285v-3.854h7.285v-7.285h4.23v7.285h10.34v3.854h-10.34v15.181q0 2.961 2.82 2.961h7.05V811zM787.598 811v-34.31h4.23v13.395h.893l-.893.987q0-3.055 1.833-4.7 1.833-1.692 5.076-1.692 3.902 0 6.204 2.397 2.303 2.397 2.303 6.533V811h-4.23v-16.92q0-2.773-1.504-4.277-1.457-1.551-3.995-1.551-2.632 0-4.183 1.645-1.504 1.645-1.504 4.653V811zM815.921 811v-3.854h9.165v-18.142h-7.99v-3.854h12.22v21.996h8.695V811zm10.81-30.503q-1.551 0-2.444-.799-.894-.799-.893-2.162 0-1.41.893-2.209.893-.846 2.444-.846t2.444.846q.893.8.893 2.209 0 1.363-.893 2.162-.893.8-2.444.799M853.878 811.376q-2.631 0-4.606-.799-1.926-.846-3.102-2.35-1.128-1.504-1.363-3.572h4.23q.283 1.363 1.504 2.162 1.27.8 3.337.799h1.974q2.492 0 3.713-.987 1.222-1.034 1.222-2.726 0-1.645-1.128-2.585-1.08-.987-3.243-1.316l-3.478-.564q-3.807-.658-5.687-2.35-1.833-1.739-1.833-5.029 0-3.478 2.209-5.358 2.21-1.927 6.627-1.927h1.786q3.713 0 5.969 1.739t2.726 4.7h-4.23q-.282-1.222-1.41-1.927-1.128-.752-3.055-.752h-1.786q-2.397 0-3.525.893-1.08.893-1.081 2.679 0 1.598.94 2.35t2.961 1.081l3.478.564q4.183.658 6.063 2.444 1.927 1.786 1.927 5.17 0 3.571-2.303 5.64-2.256 2.02-6.862 2.021zM205.324 579v-25.2h-10.56l-19.44-58.8h11.4l15.6 49.44h16.8l15.6-49.44h11.4l-19.44 58.8h-10.56V579zM255.682 568.2v-45.6l10.8-10.8h37.2l10.8 10.8v45.6l-10.8 10.8h-37.2zm10.8 1.2h37.2v-48h-37.2zM388.235 511.8V579h-49.2l-10.8-10.8v-56.4h10.8v57.6h38.4v-57.6zM442.461 579l-11.04-67.2h10.68l9.24 57.6h6.48l11.76-51.6h14.88l11.76 51.6h6.48l9.24-57.6h10.68l-11.04 67.2h-23.64l-10.92-48.96-10.92 48.96zM534.602 579v-67.2h10.8V579zm0-75.6v-9.6h10.8v9.6zM559.798 579v-84h10.8v84zM584.993 579v-84h10.8v84zM641.36 579v-56.4l10.8-10.8h36v9.6h-36V579zM697.127 568.2v-45.6l10.8-10.8h46.8V549h-46.8v20.4h44.4v9.6h-44.4zm10.8-27.6 36.48-1.2v-18h-36.48zM767.309 568.2v-27.6l48-1.2v-18h-45.6v-9.6h45.6l10.8 10.8V579h-48zm10.8-18v19.2h37.2v-21.6zM900.462 495v84h-49.8l-10.8-10.8v-45.6l10.8-10.8h39V495zm-49.8 74.4h39v-48h-39zM292.903 633l10.8-6v19.2h31.2v9.6h-31.2v45.6h31.2v9.6h-31.2l-10.8-10.8zM344.466 711v-84h10.8v16.8h38.4l10.8 10.8V711h-10.8v-57.6h-38.4V711zM418.88 711v-67.2h10.8V711zm0-75.6v-9.6h10.8v9.6zM443.475 711v-9.6h48v-19.8h-48v-27l10.8-10.8h48v9.6h-48V672h48v28.56L491.835 711zM547.2 711v-73.2L558 627h28.8v9.6H558v22.8h28.8v9.6H558v42zM596.419 711v-67.2h10.8V711zm0-75.6v-9.6h10.8v9.6zM621.614 711v-56.4l10.8-10.8h36v9.6h-36V711zM677.381 711v-9.6h48v-19.8h-48v-27l10.8-10.8h48v9.6h-48V672h48v28.56L725.741 711zM749.934 633l10.8-6v19.2h31.2v9.6h-31.2v45.6h31.2v9.6h-31.2l-10.8-10.8z"/></svg>