<svg xmlns="http://www.w3.org/2000/svg" width="1080" height="1350" fill="none"><path fill="#000" d="M310.046 444h-3.4l-2.8-7.32h-11.96l-2.8 7.32h-3.36l10.28-26.4h3.8zm-17-10.32h9.64l-4.84-13zM314.812 444v-20h2.8l.28 4.48-.52-.44q.64-1.6 1.72-2.56a6.45 6.45 0 0 1 2.48-1.44q1.44-.44 2.96-.44 2.16 0 3.92.84a6.3 6.3 0 0 1 2.8 2.48q1.08 1.68 1.08 4.28V444h-3.2v-11.68q0-3.32-1.44-4.6-1.4-1.32-3.48-1.32-1.44 0-2.88.68t-2.4 2.2q-.92 1.52-.92 4.08V444zM347.378 444.4q-2.48 0-4.56-1.24t-3.32-3.56q-1.24-2.36-1.24-5.6 0-3.321 1.32-5.64 1.32-2.32 3.48-3.52a9.16 9.16 0 0 1 4.64-1.24q2.48 0 4.28 1.28 1.84 1.28 2.44 3.4l-.4.28V414.8h3.2V444h-2.8l-.28-4.84.44-.24q-.28 1.76-1.36 3-1.04 1.2-2.6 1.84a8.3 8.3 0 0 1-3.24.64m.32-2.8q1.92 0 3.32-.96 1.44-.96 2.2-2.72.8-1.8.8-4.2 0-2.28-.8-3.92-.76-1.641-2.16-2.52-1.36-.88-3.2-.88-3.04 0-4.72 2.08t-1.68 5.52 1.64 5.52 4.6 2.08M393.713 424l-9.4 23.36q-.759 1.96-1.68 3.08-.88 1.16-2 1.64-1.08.52-2.52.52a7.7 7.7 0 0 1-2.52-.4 7 7 0 0 1-2-1l.88-2.8q.801.72 1.68 1.04.921.36 1.8.36 1.04 0 1.96-.64.921-.64 1.68-2.6l1.04-2.6-2-4.76-6.36-15.2h3.64l5 13.04 1.24 3.56 1.44-3.96 4.68-12.64zM406.178 423.6q2.84 0 5 1.24 2.2 1.239 3.44 3.6 1.24 2.32 1.24 5.56t-1.24 5.6q-1.24 2.32-3.44 3.56-2.16 1.24-5 1.24-2.8 0-5-1.24t-3.44-3.56q-1.24-2.36-1.24-5.6t1.24-5.56q1.24-2.361 3.44-3.6 2.2-1.24 5-1.24m0 2.76q-2.04 0-3.48.92t-2.24 2.64q-.76 1.68-.76 4.08 0 2.36.76 4.08.8 1.719 2.24 2.64 1.44.92 3.48.92t3.48-.92q1.44-.921 2.2-2.64.8-1.72.8-4.08 0-2.4-.8-4.08-.76-1.72-2.2-2.64t-3.48-.92M429.123 444.4q-1.92 0-3.64-.72-1.68-.72-2.76-2.32-1.04-1.64-1.04-4.24V424h3.2v12.28q0 3.039 1.32 4.2 1.32 1.12 3.72 1.12 1.12 0 2.2-.36a5.6 5.6 0 0 0 1.92-1.2q.88-.84 1.36-2.12.52-1.28.52-3.04V424h3.2v20h-2.8l-.2-3.04q-1.04 1.8-2.84 2.64-1.76.8-4.16.8M484.385 424h3.56l-6.96 20h-3.2l-5.64-15.92-5.32 15.92h-3.2l-6.96-20h3.56l5.04 16.28 5.44-16.28h3.2l5.44 16.28zM494.342 420.16q-1.08 0-1.76-.64-.64-.68-.64-1.76t.64-1.72q.68-.68 1.76-.68t1.72.68q.68.64.68 1.72t-.68 1.76q-.64.64-1.72.64m1.6 3.84v20h-3.2v-20zM506.407 414.8v24.12q0 1.52.56 2.12.56.56 1.8.56.8 0 1.32-.12t1.4-.44l-.52 2.8q-.64.28-1.4.4a7.6 7.6 0 0 1-1.56.16q-2.44 0-3.64-1.32-1.16-1.32-1.16-4.04V414.8zM518.634 414.8v24.12q0 1.52.56 2.12.56.56 1.8.56.8 0 1.32-.12t1.4-.44l-.52 2.8q-.64.28-1.4.4a7.6 7.6 0 0 1-1.56.16q-2.44 0-3.64-1.32-1.16-1.32-1.16-4.04V414.8zM540.047 444v-20h2.6l.44 3.28q.84-1.84 2.44-2.76 1.64-.92 3.96-.92a8 8 0 0 1 1.12.08q.639.08 1.08.32l-.56 2.92a5 5 0 0 0-.96-.24q-.52-.08-1.48-.08-1.24 0-2.52.72-1.24.72-2.08 2.2-.84 1.44-.84 3.68V444zM564.11 444.4q-2.84 0-5.08-1.24-2.2-1.24-3.44-3.56-1.24-2.36-1.24-5.6t1.24-5.56q1.24-2.361 3.4-3.6 2.16-1.24 4.92-1.24 2.8 0 4.76 1.2a7.84 7.84 0 0 1 3.04 3.28q1.04 2.04 1.04 4.6 0 .68-.04 1.24a10 10 0 0 1-.12 1h-16.16v-2.84h14.76l-1.64.32q0-2.88-1.6-4.44-1.56-1.56-4.12-1.56-1.96 0-3.4.92-1.4.88-2.2 2.6-.76 1.68-.76 4.08 0 2.36.8 4.08.8 1.719 2.24 2.64 1.48.88 3.52.88 2.2 0 3.56-.84a6.34 6.34 0 0 0 2.24-2.28l2.52 1.48a8.4 8.4 0 0 1-1.96 2.36q-1.161.999-2.76 1.56-1.56.52-3.52.52M590.516 431.08q0-2.24-1.2-3.44-1.2-1.24-3.4-1.24-2.08 0-3.52.92-1.44.879-2.12 2.88l-2.6-1.6q.8-2.241 2.96-3.6 2.16-1.4 5.36-1.4 2.16 0 3.92.76 1.76.72 2.76 2.24 1.04 1.479 1.04 3.84v9.68q0 1.44 1.52 1.44.76 0 1.48-.2l-.16 2.52q-.8.4-2.08.4-1.16 0-2.08-.44a3.3 3.3 0 0 1-1.44-1.32q-.52-.921-.52-2.28v-.4l.8.12q-.48 1.56-1.64 2.56a8 8 0 0 1-2.6 1.44q-1.44.44-2.84.44-1.76 0-3.28-.6t-2.44-1.8q-.88-1.24-.88-3.04 0-2.24 1.48-3.68 1.52-1.48 4.2-2l7.92-1.56v2.64l-6.44 1.32q-1.96.4-2.92 1.12t-.96 2q0 1.239.96 2.04 1 .76 2.8.76 1.16 0 2.2-.28a6.4 6.4 0 0 0 1.92-.92q.84-.64 1.32-1.56.48-.96.48-2.24zM609.292 444.4q-2.48 0-4.56-1.24t-3.32-3.56q-1.24-2.36-1.24-5.6 0-3.321 1.32-5.64 1.32-2.32 3.48-3.52a9.16 9.16 0 0 1 4.64-1.24q2.48 0 4.28 1.28 1.84 1.28 2.44 3.4l-.4.28V414.8h3.2V444h-2.8l-.28-4.84.44-.24q-.28 1.76-1.36 3-1.04 1.2-2.6 1.84a8.3 8.3 0 0 1-3.24.64m.32-2.8q1.92 0 3.32-.96 1.44-.96 2.2-2.72.8-1.8.8-4.2 0-2.28-.8-3.92-.76-1.641-2.16-2.52-1.36-.88-3.2-.88-3.04 0-4.72 2.08t-1.68 5.52 1.64 5.52 4.6 2.08M644.142 418.32v20.16q0 1.48.84 2.2t2.16.72q1.16 0 2-.4a5.5 5.5 0 0 0 1.52-1.08l1.12 2.68q-.92.84-2.2 1.32-1.24.48-2.88.48a7.7 7.7 0 0 1-2.84-.52 4.8 4.8 0 0 1-2.12-1.72q-.76-1.2-.8-3.12V419.2zm7.28 5.68v2.76h-14.48V424zM656.18 444v-29.2h3.2V427q1.04-1.8 2.76-2.6t3.76-.8q2.16 0 3.92.84 1.76.8 2.8 2.48 1.08 1.68 1.08 4.28V444h-3.2v-11.68q0-3.32-1.44-4.6-1.401-1.32-3.48-1.32-1.44 0-2.88.68t-2.401 2.24q-.92 1.52-.919 4.08V444zM682.545 420.16q-1.08 0-1.76-.64-.64-.68-.64-1.76t.64-1.72q.68-.68 1.76-.68t1.72.68q.68.64.68 1.72t-.68 1.76q-.64.64-1.72.64m1.6 3.84v20h-3.2v-20zM698.77 444.4q-2.92 0-5.4-1.24-2.44-1.24-3.76-3.52l2.72-1.96q.88 1.839 2.56 2.88 1.72 1.04 4.12 1.04 2.12 0 3.32-.8 1.2-.84 1.2-2.16 0-.84-.56-1.52-.52-.72-2.04-1.04l-4.8-1q-2.92-.6-4.2-2-1.24-1.401-1.24-3.48a5.24 5.24 0 0 1 .92-3q.96-1.36 2.68-2.16 1.76-.84 4.12-.84 2.96 0 5 1.16a7.24 7.24 0 0 1 3.04 3.28l-2.68 1.76q-.68-1.76-2.2-2.56-1.52-.84-3.16-.84-1.44 0-2.48.4-1 .4-1.56 1.12-.52.68-.52 1.56t.6 1.64q.6.72 2.24 1.04l5 1.04q2.8.56 3.92 1.84t1.12 3.12q0 1.88-1 3.32-1 1.4-2.8 2.16t-4.16.76M729.337 414.8v24.12q0 1.52.56 2.12.56.56 1.8.56.8 0 1.32-.12t1.4-.44l-.52 2.8q-.64.28-1.4.4a7.6 7.6 0 0 1-1.56.16q-2.44 0-3.64-1.32-1.16-1.32-1.16-4.04V414.8zM750.203 431.08q0-2.24-1.2-3.44-1.2-1.24-3.4-1.24-2.08 0-3.52.92-1.44.879-2.12 2.88l-2.6-1.6q.8-2.241 2.96-3.6 2.16-1.4 5.36-1.4 2.16 0 3.92.76 1.761.72 2.76 2.24 1.04 1.479 1.04 3.84v9.68q0 1.44 1.52 1.44.76 0 1.48-.2l-.16 2.52q-.8.4-2.08.4-1.16 0-2.08-.44a3.3 3.3 0 0 1-1.44-1.32q-.52-.921-.52-2.28v-.4l.8.12q-.48 1.56-1.64 2.56a8 8 0 0 1-2.6 1.44q-1.44.44-2.84.44-1.76 0-3.28-.6t-2.44-1.8q-.88-1.24-.88-3.04 0-2.24 1.48-3.68 1.521-1.48 4.2-2l7.92-1.56v2.64l-6.44 1.32q-1.96.4-2.92 1.12t-.96 2q0 1.239.96 2.04 1 .76 2.8.76 1.16 0 2.2-.28a6.4 6.4 0 0 0 1.92-.92q.84-.64 1.32-1.56.48-.96.48-2.24zM768.38 444.4q-2.92 0-5.401-1.24-2.439-1.24-3.759-3.52l2.72-1.96q.88 1.839 2.56 2.88 1.72 1.04 4.12 1.04 2.12 0 3.32-.8 1.2-.84 1.2-2.16 0-.84-.56-1.52-.52-.72-2.041-1.04l-4.799-1q-2.92-.6-4.201-2-1.24-1.401-1.24-3.48 0-1.641.921-3 .96-1.36 2.68-2.16 1.76-.84 4.12-.84 2.96 0 5 1.16a7.24 7.24 0 0 1 3.04 3.28l-2.68 1.76q-.68-1.76-2.2-2.56-1.52-.84-3.16-.84-1.44 0-2.481.4-.999.4-1.56 1.12a2.5 2.5 0 0 0-.519 1.56q0 .88.6 1.64.6.72 2.239 1.04l5 1.04q2.8.56 3.921 1.84t1.12 3.12q0 1.88-1 3.32-1 1.4-2.801 2.16-1.8.76-4.159.76M786.993 418.32v20.16q0 1.48.84 2.2t2.16.72q1.16 0 2-.4a5.5 5.5 0 0 0 1.52-1.08l1.12 2.68q-.92.84-2.2 1.32-1.239.48-2.88.48a7.7 7.7 0 0 1-2.84-.52 4.8 4.8 0 0 1-2.12-1.72q-.76-1.2-.8-3.12V419.2zm7.28 5.68v2.76h-14.48V424zM300.372 775.98v3.525h-10.81V807h-3.76v-27.495h-10.81v-3.525zM305.776 807v-34.31h3.76v14.335q1.223-2.115 3.243-3.055t4.418-.94q2.538 0 4.606.987 2.068.94 3.29 2.914 1.269 1.974 1.269 5.029V807h-3.76v-13.724q0-3.902-1.692-5.405-1.646-1.551-4.089-1.551-1.692 0-3.384.799-1.692.798-2.82 2.632-1.081 1.785-1.081 4.794V807zM345.169 807.47q-3.338 0-5.969-1.457-2.586-1.458-4.042-4.183-1.457-2.773-1.457-6.58t1.457-6.533q1.457-2.774 3.995-4.23t5.781-1.457q3.29 0 5.593 1.41a9.2 9.2 0 0 1 3.572 3.854q1.222 2.396 1.222 5.405 0 .798-.047 1.457-.048.657-.141 1.175h-18.988v-3.337h17.343l-1.927.376q0-3.384-1.88-5.217-1.833-1.833-4.841-1.833-2.304 0-3.995 1.081-1.646 1.033-2.585 3.055-.893 1.974-.893 4.794 0 2.772.94 4.794.94 2.02 2.632 3.102 1.739 1.034 4.136 1.034 2.584 0 4.183-.987a7.45 7.45 0 0 0 2.632-2.679l2.961 1.739a9.8 9.8 0 0 1-2.303 2.773q-1.364 1.174-3.243 1.833-1.833.61-4.136.611M362.942 807v-23.5h3.29l.329 5.264-.611-.517q.752-1.88 2.021-3.008a7.6 7.6 0 0 1 2.914-1.692 11.8 11.8 0 0 1 3.478-.517q2.538 0 4.606.987 2.067.94 3.29 2.914 1.269 1.974 1.269 5.029V807h-3.76v-13.724q0-3.902-1.692-5.405-1.645-1.551-4.089-1.551-1.692 0-3.384.799-1.692.798-2.82 2.585-1.081 1.785-1.081 4.794V807zM427.123 783.5l-11.045 27.448q-.893 2.302-1.974 3.619-1.033 1.363-2.35 1.927-1.269.61-2.961.611-1.598 0-2.961-.47a8.3 8.3 0 0 1-2.35-1.175l1.034-3.29q.94.846 1.974 1.222a5.8 5.8 0 0 0 2.115.423q1.223 0 2.303-.752 1.082-.753 1.974-3.055l1.222-3.055-2.35-5.593-7.473-17.86h4.277l5.875 15.322 1.457 4.183 1.692-4.653 5.499-14.852zM442.24 783.03q3.337 0 5.875 1.457 2.584 1.456 4.042 4.23 1.457 2.726 1.457 6.533t-1.457 6.58q-1.458 2.725-4.042 4.183-2.538 1.457-5.875 1.457-3.29 0-5.875-1.457t-4.042-4.183q-1.457-2.773-1.457-6.58t1.457-6.533q1.456-2.774 4.042-4.23 2.584-1.457 5.875-1.457m0 3.243q-2.397 0-4.089 1.081t-2.632 3.102q-.893 1.974-.893 4.794 0 2.772.893 4.794.94 2.02 2.632 3.102 1.692 1.08 4.089 1.081t4.089-1.081 2.585-3.102q.94-2.022.94-4.794 0-2.82-.94-4.794-.893-2.022-2.585-3.102t-4.089-1.081M469.669 807.47q-2.255 0-4.277-.846-1.974-.846-3.243-2.726-1.222-1.928-1.222-4.982V783.5h3.76v14.429q0 3.571 1.551 4.935 1.551 1.316 4.371 1.316 1.316 0 2.585-.423a6.55 6.55 0 0 0 2.256-1.41q1.034-.988 1.598-2.491.611-1.505.611-3.572V783.5h3.76V807h-3.29l-.235-3.572q-1.222 2.115-3.337 3.102-2.067.94-4.888.94M535.542 783.5h4.183l-8.178 23.5h-3.76l-6.627-18.706L514.909 807h-3.76l-8.178-23.5h4.183l5.922 19.129 6.392-19.129h3.76l6.392 19.129zM547.712 778.988q-1.269 0-2.068-.752-.752-.8-.752-2.068 0-1.27.752-2.021.8-.8 2.068-.799 1.27 0 2.021.799.8.752.799 2.021 0 1.269-.799 2.068-.752.752-2.021.752m1.88 4.512V807h-3.76v-23.5zM562.359 772.69v28.341q0 1.786.658 2.491.657.657 2.115.658.939 0 1.551-.141.61-.141 1.645-.517l-.611 3.29a6.7 6.7 0 0 1-1.645.47 9 9 0 0 1-1.833.188q-2.868 0-4.277-1.551-1.363-1.552-1.363-4.747V772.69zM577.195 772.69v28.341q0 1.786.658 2.491.657.657 2.115.658.939 0 1.551-.141.61-.141 1.645-.517l-.611 3.29a6.7 6.7 0 0 1-1.645.47 9 9 0 0 1-1.833.188q-2.868 0-4.277-1.551-1.363-1.552-1.363-4.747V772.69zM603.295 807v-23.5h3.055l.517 3.854q.987-2.163 2.867-3.243 1.927-1.081 4.653-1.081.611 0 1.316.094.753.093 1.269.376l-.658 3.431a6 6 0 0 0-1.128-.282q-.61-.094-1.739-.094-1.457 0-2.961.846-1.457.845-2.444 2.585-.987 1.692-.987 4.324V807zM632.039 807.47q-3.336 0-5.969-1.457-2.584-1.458-4.042-4.183-1.457-2.773-1.457-6.58t1.457-6.533q1.457-2.774 3.995-4.23t5.781-1.457q3.29 0 5.593 1.41a9.2 9.2 0 0 1 3.572 3.854q1.222 2.396 1.222 5.405 0 .798-.047 1.457-.046.657-.141 1.175h-18.988v-3.337h17.343l-1.927.376q0-3.384-1.88-5.217-1.832-1.833-4.841-1.833-2.303 0-3.995 1.081-1.644 1.033-2.585 3.055-.893 1.974-.893 4.794 0 2.772.94 4.794.94 2.02 2.632 3.102 1.74 1.034 4.136 1.034 2.586 0 4.183-.987a7.44 7.44 0 0 0 2.632-2.679l2.961 1.739a9.8 9.8 0 0 1-2.303 2.773q-1.362 1.174-3.243 1.833-1.832.61-4.136.611M663.536 791.819q0-2.632-1.41-4.042-1.41-1.458-3.995-1.457-2.444 0-4.136 1.081-1.692 1.034-2.491 3.384l-3.055-1.88q.94-2.632 3.478-4.23 2.538-1.645 6.298-1.645 2.538 0 4.606.893 2.068.846 3.243 2.632 1.222 1.739 1.222 4.512v11.374q0 1.692 1.786 1.692a6.5 6.5 0 0 0 1.739-.235l-.188 2.961q-.94.47-2.444.47-1.362 0-2.444-.517a3.87 3.87 0 0 1-1.692-1.551q-.61-1.082-.611-2.679v-.47l.94.141q-.564 1.833-1.927 3.008a9.4 9.4 0 0 1-3.055 1.692q-1.692.516-3.337.517-2.067 0-3.854-.705-1.785-.705-2.867-2.115-1.034-1.457-1.034-3.572 0-2.632 1.739-4.324 1.787-1.74 4.935-2.35l9.306-1.833v3.102l-7.567 1.551q-2.303.47-3.431 1.316t-1.128 2.35q0 1.457 1.128 2.397 1.175.893 3.29.893 1.364 0 2.585-.329a7.5 7.5 0 0 0 2.256-1.081 5.5 5.5 0 0 0 1.551-1.833q.564-1.128.564-2.632zM686.068 807.47q-2.913 0-5.358-1.457-2.443-1.458-3.901-4.183-1.457-2.773-1.457-6.58 0-3.901 1.551-6.627t4.089-4.136a10.77 10.77 0 0 1 5.452-1.457q2.914 0 5.029 1.504 2.163 1.503 2.867 3.995l-.47.329V772.69h3.76V807h-3.29l-.329-5.687.517-.282q-.329 2.067-1.598 3.525-1.221 1.41-3.055 2.162a9.7 9.7 0 0 1-3.807.752m.376-3.29q2.257 0 3.901-1.128 1.692-1.128 2.585-3.196.94-2.115.94-4.935 0-2.68-.94-4.606-.893-1.928-2.538-2.961-1.597-1.034-3.76-1.034-3.572 0-5.546 2.444t-1.974 6.486 1.927 6.486 5.405 2.444M727.957 776.826v23.688q0 1.739.987 2.585t2.538.846q1.363 0 2.35-.47a6.4 6.4 0 0 0 1.786-1.269l1.316 3.149q-1.082.987-2.585 1.551-1.457.564-3.384.564a9 9 0 0 1-3.337-.611 5.64 5.64 0 0 1-2.491-2.021q-.893-1.41-.94-3.666V777.86zm8.554 6.674v3.243h-17.014V783.5zM742.571 807v-34.31h3.76v14.335q1.222-2.115 3.243-3.055t4.418-.94q2.538 0 4.606.987 2.069.94 3.29 2.914 1.269 1.974 1.269 5.029V807h-3.76v-13.724q0-3.902-1.692-5.405-1.644-1.551-4.089-1.551-1.692 0-3.384.799-1.692.798-2.82 2.632-1.08 1.785-1.081 4.794V807zM774.021 778.988q-1.27 0-2.068-.752-.752-.8-.752-2.068 0-1.27.752-2.021.798-.8 2.068-.799 1.268 0 2.021.799.799.752.799 2.021t-.799 2.068q-.752.752-2.021.752m1.88 4.512V807h-3.76v-23.5zM793.555 807.47q-3.43 0-6.345-1.457-2.867-1.457-4.418-4.136l3.196-2.303q1.034 2.161 3.008 3.384 2.021 1.221 4.841 1.222 2.491 0 3.901-.94 1.41-.987 1.41-2.538 0-.987-.658-1.786-.61-.846-2.397-1.222l-5.64-1.175q-3.43-.706-4.935-2.35-1.457-1.645-1.457-4.089a6.16 6.16 0 0 1 1.081-3.525q1.128-1.599 3.149-2.538 2.069-.987 4.841-.987 3.478 0 5.875 1.363a8.5 8.5 0 0 1 3.572 3.854l-3.149 2.068q-.798-2.069-2.585-3.008-1.785-.987-3.713-.987-1.692 0-2.914.47-1.174.47-1.833 1.316a2.94 2.94 0 0 0-.611 1.833q0 1.033.705 1.927.706.846 2.632 1.222l5.875 1.222q3.29.657 4.606 2.162 1.317 1.503 1.316 3.666 0 2.209-1.175 3.901-1.175 1.644-3.29 2.538t-4.888.893M123.834 589.68h-.24q-.12 0-.24.12l-.36.12q-.36 0-.36-.24-.48-.24-.6-.72-4.2-.72-5.4-1.2l-4.2-1.2h-.6q-.6 0-.96-.24-1.08 0-1.8-.24-.96-.12-3.12-.84t-3.12-1.08q-1.92-.6-5.52-2.04-1.68-.72-2.52-.96l-2.76-1.68q-.96-.72-.96-1.44 0-2.28 1.08-4.8.36-.84.96-2.04.72-1.2 1.32-2.76.24-.72 1.32-2.16 2.88-4.8 3.12-5.28.48-1.32.48-2.4 0-1.8-1.92-3.72-1.8-1.8-1.8-3.48-.6 0-.6.12h-.36q-.24-.24-.24-.48-3.84-4.8-7.8-11.64-5.04-7.92-8.16-14.4-.96-1.44-2.28-5.16a52 52 0 0 1-2.64-6.6q-1.32-3.72-1.32-4.8 0-1.2 2.64-3.12 1.08-.72 2.52-1.44l2.16-1.08q.6-.12 5.04-1.32l1.68-.6q.48-.36 1.08-.36.72 0 2.28-.48 3.48-.72 4.08-.96l4.32-.96q3.6-1.2 4.2-1.32l.24-.12h.6q2.52 0 3.36 1.2.72.72 2.4 3.36.24.72.84 1.68.72.96.96 1.2l.96 1.32.84.96q.48.6.96 1.44t1.08 1.8q3.12 5.52 4.8 7.8 1.08 1.56 1.8 1.56.36 0 1.2-1.32 1.08-1.68 3.96-7.68 1.56-3.84 3.72-8.76 1.08-2.16 1.2-2.64.48-2.16 1.08-2.76.6-.96 2.16-.96 3.84 0 10.08 1.56 6.12 1.8 11.76 4.68 5.76 3.12 7.8 5.76 0 3.24-1.56 6l-11.04 24.36-10.8 24.48-.48.12q-.12 0-.36.24-7.92 15.48-14.52 27.84-.24.48-1.44.48zM204.755 582q-.96 0-2.64-.24-.84-.24-2.64-.24-4.56 0-11.28-2.04h-.84q-.84 0-1.8-.48-.24-.24-.6-.36-.36-.24-.84-.6l-2.52-1.44q-3.6-2.04-6.36-5.64-2.76-3.72-4.44-8.16-3.24-8.16-3.24-16.68 0-9.48 3.84-18.24 4.08-9.24 10.92-14.64 7.56-6 16.8-6 2.88 0 4.44.24 0-.24.36-.24h.36q8.4 0 15 .6 5.64.84 10.44 3.48 9.6 6.36 13.8 13.92 4.44 8.4 4.44 19.8t-5.4 21.36l-1.2 1.92q-.48.72-.6.72l-.36.6-.84.48q-5.16 7.68-15.6 10.44-6.96 1.44-19.2 1.44m2.04-9q1.08 0 1.68-1.32 1.44-2.16 2.4-8.4.12-1.08.6-4.8t.6-6.96q.48-8.16.48-10.08v-3.72q0-4.32-.36-7.44-.36-4.92-1.44-7.8-1.08-1.44-1.68-1.44-1.2 0-2.28 1.8t-1.68 6.6l-2.52 19.2v3.96q.36 5.04.36 6.6l.24 2.88.36 3.84q0 .96.24 1.68l1.32 4.44q.12.48.6.72.6.24 1.08.24M279.261 580.8q-4.8.24-8.16-.24-2.76-.6-5.04-1.68t-4.2-3.36q-3.84-4.8-5.16-12.6-.96-6.36-.72-13.92v-5.28q0-1.08.12-1.68v-5.76l.36-.84v-.36q.12-.24.12-.84.36-4.32.36-6.96l.24-4.44q.12-3 .12-6.96 0-1.56-.12-2.16-.24-1.44-.24-2.28 0-1.8 3.72-1.8h1.68q1.44 0 1.92-.24l14.64.24.12.24q.24.12.36.12l.96-.36q6.24 0 8.04 1.2 1.2.84 1.68 2.52.6 1.68.6 4.56 0 1.92.24 5.28.24 1.68.24 5.28v1.2q-.24 3.48-.48 11.4l-.12 5.76V552q-.24 1.44-.24 3.84v3.6q-.12 1.68.48 4.68.6.96 1.08.96.72 0 5.4-1.8l2.88-1.44q1.2-.48 1.2-.96V521.4q-.36-2.52-.36-3.96-.12-.6-.12-1.8v-3q0-1.44.6-2.04.24-.36 1.2-.36.24 0 .48.24.24.12.24.36v.24q1.2-.48 5.16-.84 3.24-.36 7.2-.36h7.2l12.6.36q.24 0 .36.12.24.12.24.24.12 0 .12.12v.72q-.12 0-.12.36l.6-.12q.12-.24.36-.24.36 0 .36.6 0 21-.24 34.92-.12 13.8-.96 27.96 0 .6-.96 1.8-.48.6-.84.96-.12.24-.36.36t-.36.24q-.12-.12-.84-.24-.72-.24-1.2-.24l-.36.24q-.24.24-.48.24-4.8.84-15.12.84h-5.28q-3 0-5.28-.48-.84-.6-1.8-3-.12-.84-.48-1.44-.24-.6-.6-.6-.96 0-3 1.32-.24.24-.72.6-.36.24-.72.6-.96.72-1.32 1.2-3.24 1.8-7.68 2.64-3 .72-5.52.72-2.76 0-4.08.12M405.215 579q-3.72 0-5.76-.36-2.88-.24-4.56-.24-.96 0-2.64.24-.84.24-2.76.24-.48 0-.96-.12-.36-.12-.72-.12-.84-.36-1.56-.36l-1.08.12q-1.08-.12-1.08-1.2l-6.84-31.8q-3-13.68-5.04-24.96-.72-1.08-.84-2.76-.12-.6-.12-1.8v-1.68q0-1.44.48-2.28t1.32-.84h3.6q.84.12 2.64.12l4.56.12h5.16q.24.12.48.12h.36l.12.36q.48 0 .6-.36l.84-.12h.72q.24 0 .48.12.84 0 1.92.12t2.52.12q.84.12 2.4.12.6 1.44 1.92 8.04.48 1.8 1.2 6.36l1.32 7.08.12.96q.12.24.36 2.04l.48 2.52.36 2.52q.24.72.24 1.2.12.36.12.72v.6q.12.12.12.24v.36q.12.24.12.6.24 0 .24.6l.12-.6q0-.48.24-.96 0-.36.24-.84 0-.48.24-1.92l.48-2.52q.24-1.68.48-2.52 0-1.08.24-2.04v-.6q.12-.24.12-.36l1.44-7.08.6-3.12q.84-5.4 1.56-8.16.24-1.08 1.08-3.12h1.92l2.16-.12q0-.24.36-.36.36-.24.84-.24h4.68l5.64.12h.36q0-.12.12-.12.48 0 .6.12l.24.12h6.24l.96.12q0 .12.12.24.12 0 .12.12l.6-.36h.12q.24-.12.48-.12h.36q.12 0 .36.12h.72q.96.36 1.56.36.96 1.92 1.92 7.2.48 1.8 1.2 5.64l1.32 6.6.12 1.2q.12.36.24 1.2t.12 1.2q.12.72.24 1.8.24.96.24 1.68l.6 3.12q0 1.2.24 2.4l.12 1.2q0 .6.24.96v.6l.12-.6q0-.48.24-.96v-.36q.12-.36.24-.84l.24-2.4.48-3.12q.48-2.4.48-3.48l.36-2.4q.24-.6.24-1.2.72-4.32 1.2-6.6 1.2-6.84 2.16-10.2.24-.84.6-1.56.36-.84.48-1.08 1.44 0 2.88-.36 1.08 0 1.68-.12h.36l.24.12v.36q.84 0 .96-.36h.12q.12 0 .12-.12h6l4.44-.12q1.92 0 2.76-.12h3.72q1.68 0 1.68 3.12-.36.96-.6 2.04-.12 1.08-.24 1.56-.12 1.2-.12 2.64-2.64 12.24-6.84 27.96l-7.08 28.8q-.72.12-.96.72-.12.12-.12.36v.12l-.84-.12q-.72 0-1.2.36-.24 0-.6.12t-.6.12q-1.8 0-2.76-.24-1.68-.24-2.64-.24-.48.24-.84.24-1.2.36-3.24.36h-1.92q-3.48 0-5.64-.36-2.64-.24-4.56-.24-.48 0-1.68.24-.6.24-1.68.24-.36 0-.72-.12-.24-.12-.6-.12-.48-.36-1.2-.36l-.96.12q-.96-.12-.96-1.2l-6.6-33.36-6.84 33.36q-.84.24-.84.72-.12.12-.12.36v.12l-.96-.12q-.36 0-.6.36-.24 0-.36.12t-.36.12q-2.28 0-3.12-.24-2.16-.24-3.48-.24 0 .48-.96.48-.36.12-1.8.12M492.098 580.56q-2.16 0-2.761-4.32-.36-1.8-.359-3.24 0-1.92-.12-2.4-.12-3.48-.6-11.04l-.361-4.56q-.72-10.56-.72-15.6v-29.16q0-.96 2.16-1.44 1.2-.36 3.361-.36 1.44 0 3.12.24 1.68.12 2.519.12 1.8.24 5.641.24l.479-.36h5.28q.36.36.841.36h.479q.12-.12.601-.12.24-.12.72-.12.12-.12.239-.12h.12q.36 0 .841.24.48.12.72.12h8.879l.361 20.64q0 .12-.24.84-.12.6-.241 1.68-.36 4.32-.359 6.84v23.4l-.361 4.56q-.36 3-.239 4.92 0 2.52-.24 4.08-.12 1.44-.72 2.28-.72.84-2.28.84l-.121-.12-.359-.12q-.24 0-.24.12h-.6q-.72.24-.84.36-.6 0-2.76-.36l-1.68-.12q-.6 0-.72.48h-10.68l-3.121.6-2.879.36zM565.193 579.6l-1.56-.24h-1.92q-1.8-.24-6.24-.48-.96 0-1.8-.12t-1.56-.12h-2.64l-1.2-.12q-3.84 0-5.64.12-1.8.24-5.64.24h-2.4l-2.16.12-.36-.48v-17.64q0-2.88-.24-4.2v-2.88l.48-5.16q.36-4.8.36-13.8.24-14.52 1.8-21 .84-3.48 2.76-4.44l14.04.12q1.8.12 5.16.12h5.76q.6.12 2.16.24 1.68.12 2.52.6.72.6.96 1.68.36.96.36 2.88l-.12.96v1.44q-.36.84-.36 1.68-.24.96-.12 1.92v1.8q.12.6.12 1.68l.12.96v2.76l.12 3.84q.12 1.2.12 3.36.24 1.68.6 2.28 0 .84-.12 1.8t-.12 1.92q-.12 1.44-.12 4.32 0 2.76.12 4.08 0 1.92.6 3.96 1.2.48 2.76.48 3.96 0 8.16-.12 4.32-.12 7.68-.72.72.12 1.32.96.72.84.72 1.44l-.84 20.64q-.24.72-.96.96-2.04.96-5.64 1.2-4.8.72-6.36.72h-2.04q-2.4 0-3.6.12-2.4.24-3.36.24zM628.245 579.6l-1.56-.24h-1.92q-1.8-.24-6.24-.48-.96 0-1.8-.12t-1.56-.12h-2.64l-1.2-.12q-3.84 0-5.64.12-1.8.24-5.64.24h-2.4l-2.16.12-.36-.48v-17.64q0-2.88-.24-4.2v-2.88l.48-5.16q.36-4.8.36-13.8.24-14.52 1.8-21 .84-3.48 2.76-4.44l14.04.12q1.8.12 5.16.12h5.76q.6.12 2.16.24 1.68.12 2.52.6.72.6.96 1.68.36.96.36 2.88l-.12.96v1.44q-.36.84-.36 1.68-.24.96-.12 1.92v1.8q.12.6.12 1.68l.12.96v2.76l.12 3.84q.12 1.2.12 3.36.24 1.68.6 2.28 0 .84-.12 1.8t-.12 1.92q-.12 1.44-.12 4.32 0 2.76.12 4.08 0 1.92.6 3.96 1.2.48 2.76.48 3.96 0 8.16-.12 4.32-.12 7.68-.72.72.12 1.32.96.72.84.72 1.44l-.84 20.64q-.24.72-.96.96-2.04.96-5.64 1.2-4.8.72-6.36.72h-2.04q-2.4 0-3.6.12-2.4.24-3.36.24zM739.754 580.32q-5.28-5.16-9-10.44-2.64-3.48-8.16-12.36l-2.04-3.24q-.12-.12-.24-.12v-.12h-.6l-.48.24q-.12 1.56-.12 8.4 0 4.44-.48 10.44l-.12 3.6q-.48 1.32-.6 1.32h-1.2q-13.2.96-19.2.96h-4.08q-1.32 0-1.92-.12h-.84l-3.72-1.2-.24-.84q-.24 0-.36-.48v-.72q-.36-5.04-.6-7.32-.48-6.48-.6-9.48-.24-2.88-.24-3.72l-.6-6.6-.12-3.6q-.12-1.08-.12-3v-1.08q.24-.6.24-1.92v-2.04q.12-.48.12-1.08l-.12-.96v-1.2q0-.84-.24-1.32v-.72l.12-3q.12-.84.12-2.52.24-3.6.24-6.84v-1.2q-.12-.36-.12-1.56v-2.88q-.36-.36-.36-.72 0-1.68 3-2.4 1.56-.48 4.44-.48 28.08 0 42 1.92 13.68 1.92 19.2 6.6 2.4 2.28 3.36 5.4 1.08 3 1.08 7.2 0 6.72-3.84 11.28-2.52 2.52-5.88 4.2.72 1.8 4.2 7.2.72.84 1.32 1.8.72.96 1.68 2.04 2.28 3.12 5.28 6.84.12.48.96 2.04.6.24.6.6.12.24-.12.72-.96 1.44-5.64 4.2-.6.6-1.44 1.2-2.4 1.92-6.6 3.96-3.84 2.04-6.6 2.88-1.08.6-1.32.24m-21.84-42.24q1.56 0 4.2-.6 2.52-.72 3.6-1.44 1.8-1.08 3.12-2.4a5.4 5.4 0 0 0 1.32-3.6q0-3.36-2.04-5.4-1.8-1.44-4.44-1.44h-5.16q0 1.56-.24 4.92l-.12 2.52q-.24 2.4-.24 7.44M774.074 578.52q-.24 0-.36-.48-.84-1.08-1.2-2.64-.36-.6-.6-1.56-1.08-2.16-1.56-6-.48-5.52-.48-8.76-.12-1.44-.12-3.96v-2.88q0-3.6-.12-5.64-.12-2.16-.12-8.52 0-17.04.72-26.28 0-1.44 4.08-2.16h6.6q6.84 0 10.2.24 5.04.36 10.2.36 1.2 0 1.8-.12h1.8l.6.48q3.96-.84 8.16-1.08t10.2-.24q.24 0 .6.36h3.84q.96 0 1.44 1.08.6 1.08.96 3.12.48 1.56.72 3.84.48 3 .84 3.96 0 3.36-1.2 3.36-.12 0-.36-.36l-.48-.12q-.6-.12-1.32.12-.72.36-1.56.36-.72 0-1.2-.36-.24-.12-1.08-.12-1.08 0-2.52.36-.48.12-1.92.36-1.32.24-3.12.24-5.16 0-7.44.24-1.32.12-2.52.72v-.24q-.48 0-.84 1.2-.84 2.04-1.08 5.64-.12 1.08-.12 2.4t.36 1.8q.48.48 1.44.48.72 0 1.2-.48.24 0 .6.12t.6.36h10.2q.12-.24.36-.36t.48-.12q1.2 0 1.8.36.72.36 2.88.72 1.2 0 1.68.72.6.84.6 1.56l2.52 7.92q.36 1.92-3.6 2.52-2.28.48-8.76.48h-8.76q-1.68 0-2.52.24-.84.12-1.08.84-.48.6-.48 1.92v.48q0 .6.12.84l-.12 2.64q-.12.84-.12 2.52v3q5.4 0 11.04-.36 5.52-.36 10.92-.36.36 0 .6.6.24.48.24 1.2.24.72.24 1.56.24 1.8.72 3.36l.84 3.48v3.72l-.96.84h-1.2q-1.32 0-1.68-.12-.36-.24-.84-.24l-.72.36q-.48.24-.84.48v-.6l-1.44.12h-1.8q-.48 0-.72-.24l-.96-.12q-4.44 0-6.24.84zM841.852 579.12q-2.28 0-1.8-4.08 0-1.44.6-3.24 0-.84.12-1.32.12-.6.12-.96a527 527 0 0 1 6.12-25.8l8.16-31.92q0-.24.36-.6t.72-.6h.84q1.44 0 2.28-.36.72-.12 2.52-.12 2.88 0 4.32.12 2.16.36 4.44.36l6.24-.12q.96-.24 2.28-.24l5.28-.24h3.96q2.28 0 4.44.12h3.36q1.2.12 3.48.12h4.56q.36 0 .72.12t.6.24q.48.24 1.2.24h1.08q.84.6.84 1.2l8.52 31.68q3.96 15.24 6.24 25.8 0 .6.36 2.28.48 2.4.48 3.84 0 .84-.24 2.28-.6 1.2-1.68 1.2h-1.32q-1.56 0-2.4-.12h-7.2q-.84 0-.96-.12h-6.6l-.12-.24q-.24-.24-.72-.24l-.36.24q0 .24-.24.24h-1.2q-.6-.24-2.16-.24-2.88-.24-4.8-.24-1.32-2.76-3.12-12.12-2.52.36-5.76.36h-6.12q-.48 1.8-.6 3-.12.6-.96 4.08t-1.56 4.68l-.72.24q-.36.12-.6.24h-.48q-.72 0-.96-.24-.48-.24-.6-.24l-4.56.24h-3.36q-.6.12-.96.24h-11.040000000000001q-1.08.12-4.44.12h-2.88q-.72.12-2.28.12zm48.24-25.68q-.72-4.08-.84-4.8l-.96-5.76q-.24-1.68-.48-3-.24-1.44-.36-2.64-.36-1.44-.6-2.64-.12-1.32-.36-2.4-.12-.72-.24-1.8-.12-1.2-.36-1.68l-.24-1.44q0-.48-.24-.84l-.12-.72-.24.72v.84q0 .12-.12.48-.12.24-.24.96-.12.6-.24 1.56-.12.84-.36 1.92l-.84 4.92-.96 5.52-.36 2.64q-.24.96-.48 3.12-1.08 5.4-.96 4.92h5.28q.12-.12.36-.24.24-.24.36-.24h.36q.6 0 .96.12.48.12.84.24.72.24 1.44.24M951.726 579q-4.56-.12-15.72-.12-1.68 0-2.28-2.16-.36-1.2-.36-4.2 0-5.4-.24-9.48 0-3.72-.24-13.56l-.12-14.4V512.4q0-.84.84-1.8.96-.96 1.8-.96l6.96.12q1.68.12 4.92.12 3.48.12 8.64.12 7.68 0 12-.12 4.2-.24 14.04-.24 6.72 0 12.36 2.4c4.72 2 8.484 5.12 11.284 9.36q4.8 7.44 4.8 19.32 0 10.68-2.4 17.88-2.28 7.2-7.44 11.64-5.285 4.56-13.924 6.72-8.52 2.04-21.36 2.04zm14.4-13.56q2.64 0 3.48-.24t1.2-.6q1.8-1.8 3.36-10.68 1.32-8.28 1.32-15.48v-1.92q0-4.2-.6-8.04-.48-4.68-1.92-7.68-.84-1.32-2.16-1.32-1.08 0-2.64.6l-.84.36q0 2.76-.24 12.36l-.12 7.44q0 2.4-.12 3.72l-.12 3.72zM233.235 711.36q-1.08-1.68-1.44-6.12-.48-3.96-.48-11.52l.12-13.2q.12-4.8.12-15.24l-.36-.36h-11.88q-2.64 0-3.48-6-.48-3.24-.48-9.48v-1.56q.24-.84.24-2.64v-2.4l.12-.96.48-.48 2.16.12h2.4q5.28 0 8.04-.12h24.36q1.56.12 4.44.12h3q.48-.24 1.56-.24.84-.24 1.56-.24 2.28 0 3.48.24 2.4.24 3.6.24l3.12-.12h4.68q3.6 0 4.92.12l1.68.12.36.36q.24.12.24.24v20.4q0 .72-.84 1.56-.72.84-1.44 1.08-3.96-.84-10.32-.84h-4.56q-1.8 0-2.4 4.56-.24 1.32-.24 3.84v3.6q0 2.4.12 3.6v3.36q0 4.92-.48 9.12-.24 3.12-.24 4.56-.24 1.44-.24 3.96 0 3.6-.24 6-.12 3.72-2.76 3.96-2.88.36-3.36.36zM309.593 711.36q-5.04 0-8.52-.24-3.36-.24-6.36-1.08-.48 0-.72-.48-.24-.6-.36-.84-.12-.6-.12-1.44-.72-12.12-1.32-18.84-.6-7.92-.6-19.8v-3l.12-4.56.24-5.4.12-3q.12-.84.12-2.64v-4.56q0-2.28.12-3 0-.36.48-.36 1.08 0 1.92-.48h1.08q.84-.12 1.44 0h20.52q2.16 0 3.24.12l3.6.12q1.32 0 1.92.24.72.12 1.08.72.36.36.48 1.44t.12 2.4v2.64q0 1.2.12 1.68v2.04q.12.48.12 1.2l-.12 3.6q-.12 1.2-.12 3.48 0 1.32.24 1.8.36.6 1.08.6.24 0 1.2-.24.36 0 .96-.12t1.32-.12h1.2q.6.24 2.16.24.6 0 1.08-.12.6-.12 1.08-.12 1.08 0 1.08-.24v-6.72q0-1.8.12-2.88v-3.36q.12-1.2.12-3.36 0-2.04.12-2.76v-1.8h.96q.72 0 .72-.48h5.76q3.6 0 5.4.24 3.12.24 5.04.24l7.56-.24q1.8-.24 4.44-.24h3.12q2.4 0 3.24.48t.84 2.4V654q0 2.4-.12 3.84l-.12 2.88q0 1.92-.24 5.76l-.12 2.04.12 1.92-1.2 38.04q0 .36-.72 1.56-.72.96-1.44.96h-8.4q-4.68 0-9.24-.36-3-.12-9-.12h-2.04q-1.68 0-2.28-1.2-.48-1.56-.6-4.08l-1.2-19.8h-1.2q-2.88 0-4.2-.12l-1.2-.24h-4.92q-.48 0-.6.36t-.12.84v22.8q0 .36-.12.72-.12.24-.12.48-.12.36-.6.36-.12 0-.36.12t-.6.24q-4.44 0-8.4.36zM390.728 712.56q-2.16 0-2.76-4.32-.36-1.8-.36-3.24 0-1.92-.12-2.4-.12-3.48-.6-11.04l-.36-4.56q-.72-10.56-.72-15.6v-29.16q0-.96 2.16-1.44 1.2-.36 3.36-.36 1.44 0 3.12.24 1.68.12 2.52.12 1.8.24 5.64.24l.48-.36h5.28q.36.36.84.36h.48q.12-.12.6-.12.24-.12.72-.12.12-.12.24-.12h.12q.36 0 .84.24.48.12.72.12h8.88l.36 20.64q0 .12-.24.84-.12.6-.24 1.68-.36 4.32-.36 6.84v23.4l-.36 4.56q-.36 3-.24 4.92 0 2.52-.24 4.08-.12 1.44-.72 2.28-.72.84-2.28.84l-.12-.12-.36-.12q-.24 0-.24.12h-.6q-.72.24-.84.36-.6 0-2.76-.36l-1.68-.12q-.6 0-.72.48h-10.68l-3.12.6-2.88.36zM444.624 713.4l-2.76-.48q-3.96-.6-6.6-1.44-1.44-.12-2.52-.84-.96-.36-1.2-.96l-2.64-14.88v-.6q0-.84.12-1.2.24-.48.84-.6 7.8 3 15.36 3 2.4 0 3.72.12 4.56 0 6.6-1.2 1.08-.72 1.08-2.04 0-1.92-1.2-3.12-1.2-1.32-3.48-2.28l-3.84-1.44q-1.68-.36-3.84-1.32 0-.12-.12-.12-.12-.12-.24-.36-.48-.12-2.04-1.2l-.72-.36q.24 0 .24-.12t-.36-.24q-.36-.24-1.44-.72-.96-.6-1.68-1.32-1.08-.6-1.08-1.44v-.6q-3 0-5.16-6.24-1.8-6.36-1.8-9 0-11.16 9.6-17.16 7.8-4.92 21.48-6.6 8.88-.96 22.08-.96 1.68.6 2.64.72 2.16.12 2.88 1.44.36.6.6 2.4.36 1.92.72 11.16.24.24.24.72 0 .96-2.64 1.56-2.88.36-3.72.36l-2.76.36q-4.68.6-6.12.84-4.92.84-6.84 3-1.2 1.44-1.2 3 0 .84.24 1.32t1.2 1.08q1.08.6 6.24 3 5.52 2.4 11.04 6.24 4.68 3.24 6.72 8.64 1.08 2.28 1.08 6 0 3.36-.84 5.76-3.12 7.92-11.76 12.96-4.08 2.4-8.52 3.72-4.44 1.44-8.52 1.44l-17.64.36zM531.255 711.48q-1.2 0-1.8-1.08-.6-1.2-1.08-3.36-.12-.96-.12-3.24-.24-1.08-.24-2.28-.24-3.72-.96-12.12-.6-4.92-.6-12.12v-34.2q0-.24.24-.6t.48-.6h.48q.12.12.6.12 1.32 0 2.64-.36 1.92-.24 2.88-.24 3 0 4.68.24.96 0 2.16.12t2.64.12l.36-.36h5.28q.36.36.96.36l.24-.24h.72q.48 0 .6-.12h.36q1.32 0 1.68.36h27.6q.12.12.36.24t.36.12l.48-.24q.12-.12.36-.12 2.76 0 3.961 4.56 1.08 4.32 1.079 10.44 0 .6-.48.96-.48.24-1.56.48-.36 0-.84.12-.36 0-.96-.12h-6.36q-1.2 0-1.92.12h-1.08q-1.44.36-3.6.36h-2.2800000000000002q-.24-.12-.36-.12l-.84.36q-.12.24-.12 1.2-.24 1.2-.48 5.4l-.12 5.04v.72q.12.24.36.48h2.16q4.2 0 7.68.6 1.8.24 3.24.96 1.56.72 2.16 1.68.96 1.56.96 4.92 0 3-.12 4.2v4.08q-1.56.84-5.04 1.32-2.52.6-5.28.6-.36 0-.36-.12-.24-.24-.36-.24-.6 0-.6.24-.24.12-.6.12h-.6l-.6-.24-.48.24-.24.48q-.12.12-.24.12h-1.44q-1.68 0-2.4.48-.24.12-.6.48-.24.36-.48.6 0 8.64-.12 11.64-.36 5.28-1.2 6.96l-5.64.12q-.96.24-2.16.24h-1.2q-1.08 0-1.2-.24a2.7 2.7 0 0 0-.84-.12q-.6 0-.84.36h-16.08q-.72.12-2.04.12zm71.52 1.08q-2.16 0-2.76-4.32-.36-1.8-.36-3.24 0-1.92-.12-2.4-.12-3.48-.6-11.04l-.359-4.56q-.72-10.56-.721-15.6v-29.16q0-.96 2.16-1.44 1.2-.36 3.36-.36 1.44 0 3.12.24 1.68.12 2.521.12 1.8.24 5.639.24l.48-.36h5.28q.36.36.84.36h.48q.12-.12.6-.12.24-.12.72-.12.12-.12.24-.12h.12q.36 0 .84.24.48.12.72.12h8.88l.36 20.64q0 .12-.24.84-.12.6-.24 1.68-.36 4.32-.36 6.84v23.4l-.359 4.56q-.36 3-.241 4.92 0 2.52-.24 4.08-.12 1.44-.72 2.28-.72.84-2.28.84l-.12-.12-.36-.12q-.24 0-.24.12h-.6q-.72.24-.84.36-.6 0-2.76-.36l-1.68-.12q-.6 0-.72.48h-10.68l-3.12.6-2.88.36zM698.15 712.32q-5.28-5.16-9-10.44-2.64-3.48-8.16-12.36l-2.04-3.24q-.12-.12-.24-.12v-.12h-.6l-.48.24q-.12 1.56-.12 8.4 0 4.44-.48 10.44l-.12 3.6q-.48 1.32-.6 1.32h-1.2q-13.2.96-19.2.96h-4.08q-1.32 0-1.92-.12h-.84l-3.72-1.2-.24-.84q-.24 0-.36-.48v-.72q-.36-5.04-.6-7.32-.48-6.48-.6-9.48-.24-2.88-.24-3.72l-.6-6.6-.12-3.6q-.12-1.08-.12-3v-1.08q.24-.6.24-1.92v-2.04q.12-.48.12-1.08l-.12-.96v-1.2q0-.84-.24-1.32v-.72l.12-3q.12-.84.12-2.52.24-3.6.24-6.84v-1.2q-.12-.36-.12-1.56v-2.88q-.36-.36-.36-.72 0-1.68 3-2.4 1.56-.48 4.44-.48 28.08 0 42 1.92 13.68 1.92 19.2 6.6 2.4 2.28 3.36 5.4 1.08 3 1.08 7.2 0 6.72-3.84 11.28-2.52 2.52-5.88 4.2.72 1.8 4.2 7.2.72.84 1.32 1.8.72.96 1.68 2.04 2.28 3.12 5.28 6.84.12.48.96 2.04.6.24.6.6.12.24-.12.72-.96 1.44-5.64 4.2-.6.6-1.44 1.2-2.4 1.92-6.6 3.96-3.84 2.04-6.6 2.88-1.08.6-1.32.24m-21.84-42.24q1.56 0 4.2-.6 2.52-.72 3.6-1.44 1.8-1.08 3.12-2.4a5.4 5.4 0 0 0 1.32-3.6q0-3.36-2.04-5.4-1.8-1.44-4.44-1.44h-5.16q0 1.56-.24 4.92l-.12 2.52q-.24 2.4-.24 7.44M741.83 713.4l-2.76-.48q-3.96-.6-6.6-1.44-1.44-.12-2.52-.84-.96-.36-1.2-.96l-2.64-14.88v-.6q0-.84.12-1.2.24-.48.84-.6 7.8 3 15.36 3 2.4 0 3.72.12 4.56 0 6.6-1.2 1.08-.72 1.08-2.04 0-1.92-1.2-3.12-1.2-1.32-3.48-2.28l-3.84-1.44q-1.68-.36-3.84-1.32 0-.12-.12-.12-.12-.12-.24-.36-.48-.12-2.04-1.2l-.72-.36q.24 0 .24-.12t-.36-.24q-.36-.24-1.44-.72-.96-.6-1.68-1.32-1.08-.6-1.08-1.44v-.6q-3 0-5.16-6.24-1.8-6.36-1.8-9 0-11.16 9.6-17.16 7.8-4.92 21.48-6.6 8.88-.96 22.08-.96 1.68.6 2.64.72 2.16.12 2.88 1.44.36.6.6 2.4.36 1.92.72 11.16.24.24.24.72 0 .96-2.64 1.56-2.88.36-3.72.36l-2.76.36q-4.68.6-6.12.84-4.92.84-6.84 3-1.2 1.44-1.2 3 0 .84.24 1.32t1.2 1.08q1.08.6 6.24 3 5.52 2.4 11.04 6.24 4.68 3.24 6.72 8.64 1.08 2.28 1.08 6 0 3.36-.84 5.76-3.12 7.92-11.76 12.96-4.08 2.4-8.52 3.72-4.44 1.44-8.52 1.44l-17.64.36zM812.764 711.36q-1.08-1.68-1.44-6.12-.48-3.96-.48-11.52l.12-13.2q.12-4.8.12-15.24l-.36-.36h-11.88q-2.64 0-3.48-6-.48-3.24-.48-9.48v-1.56q.24-.84.24-2.64v-2.4l.12-.96.48-.48 2.16.12h2.4q5.28 0 8.04-.12h24.36q1.56.12 4.44.12h3q.48-.24 1.56-.24.84-.24 1.56-.24 2.28 0 3.48.24 2.4.24 3.6.24l3.12-.12h4.68q3.6 0 4.92.12l1.68.12.36.36q.24.12.24.24v20.4q0 .72-.84 1.56-.72.84-1.44 1.08-3.96-.84-10.32-.84h-4.56q-1.8 0-2.4 4.56-.24 1.32-.24 3.84v3.6q0 2.4.12 3.6v3.36q0 4.92-.48 9.12-.24 3.12-.24 4.56-.24 1.44-.24 3.96 0 3.6-.24 6-.12 3.72-2.76 3.96-2.88.36-3.36.36z"/></svg>