<svg xmlns="http://www.w3.org/2000/svg" width="1080" height="1350" fill="none"><path fill="#000" d="m324.083 450-3.515-9.062h-11.446L305.626 450h-3.359l11.172-28.672h2.988L327.521 450zm-4.511-12.012-3.34-9.004q-.117-.351-.391-1.152l-.527-1.66q-.273-.86-.449-1.387a38 38 0 0 1-.43 1.602 40 40 0 0 1-.43 1.465q-.215.663-.371 1.132l-3.398 9.004zM341.134 428.203q3.809 0 5.762 1.875 1.953 1.855 1.953 5.977V450h-3.203v-13.73q0-2.676-1.231-4.004-1.21-1.329-3.73-1.328-3.555 0-5 2.011t-1.445 5.84V450h-3.243v-21.406h2.618l.488 3.086h.176a6.4 6.4 0 0 1 1.738-1.895 7.6 7.6 0 0 1 2.363-1.172 9.2 9.2 0 0 1 2.754-.41M363.146 450.391q-4.063 0-6.445-2.774-2.364-2.773-2.364-8.242 0-5.528 2.422-8.34 2.422-2.832 6.446-2.832 1.699 0 2.968.449 1.27.45 2.188 1.211a7.4 7.4 0 0 1 1.543 1.699h.234a32 32 0 0 1-.156-1.66 24 24 0 0 1-.078-1.718v-8.575h3.242V450h-2.617l-.489-3.047h-.136a7.4 7.4 0 0 1-1.543 1.738q-.918.782-2.207 1.25-1.27.45-3.008.45m.508-2.696q3.437 0 4.863-1.953t1.426-5.801v-.586q0-4.082-1.367-6.269-1.348-2.187-4.922-2.188-2.988 0-4.473 2.305-1.484 2.286-1.484 6.25 0 3.945 1.465 6.094 1.484 2.148 4.492 2.148M387.033 428.594h3.476l4.727 12.422q.41 1.094.761 2.109.352.996.625 1.914.274.918.43 1.777h.137q.273-.977.781-2.558.508-1.602 1.094-3.262l4.473-12.402h3.496l-9.317 24.551q-.742 1.972-1.738 3.437-.976 1.465-2.383 2.246-1.406.801-3.398.801a10 10 0 0 1-1.621-.117 10 10 0 0 1-1.211-.235v-2.597q.429.097 1.035.175.625.08 1.289.079 1.21 0 2.09-.469a4.3 4.3 0 0 0 1.543-1.328q.644-.88 1.113-2.09l1.172-3.008zM428.908 439.258q0 2.637-.684 4.707-.683 2.07-1.973 3.496a8.6 8.6 0 0 1-3.125 2.187q-1.816.743-4.121.743-2.148 0-3.945-.743a8.9 8.9 0 0 1-3.086-2.187q-1.289-1.426-2.012-3.496-.702-2.07-.703-4.707 0-3.516 1.192-5.977 1.191-2.48 3.398-3.769 2.226-1.31 5.293-1.309 2.93 0 5.117 1.309 2.208 1.308 3.418 3.789 1.23 2.46 1.231 5.957m-16.289 0q0 2.578.683 4.472.684 1.895 2.11 2.93t3.671 1.035q2.227 0 3.653-1.035 1.445-1.035 2.129-2.93.683-1.894.683-4.472 0-2.559-.683-4.414-.684-1.875-2.11-2.891-1.426-1.015-3.691-1.015-3.34 0-4.902 2.207-1.543 2.207-1.543 6.113M452.189 428.594V450h-2.656l-.469-3.008h-.176a6.2 6.2 0 0 1-1.719 1.875 7.5 7.5 0 0 1-2.382 1.133 9.7 9.7 0 0 1-2.793.391q-2.54 0-4.258-.821a5.52 5.52 0 0 1-2.598-2.539q-.86-1.719-.859-4.414v-14.023h3.281v13.789q0 2.675 1.211 4.004 1.211 1.308 3.691 1.308 2.384 0 3.789-.898 1.427-.899 2.051-2.637.625-1.758.625-4.297v-11.269zM486.857 449.961l-3.809-12.461q-.254-.801-.488-1.562l-.41-1.485a99 99 0 0 0-.332-1.328l-.235-1.074h-.136a26 26 0 0 1-.547 2.402q-.176.723-.391 1.524a28 28 0 0 1-.488 1.582l-3.984 12.402h-3.653l-5.898-21.406h3.359l3.086 11.816q.312 1.172.586 2.324.293 1.134.488 2.149.216.996.313 1.738h.156q.117-.488.254-1.172l.332-1.445q.195-.781.41-1.543a42 42 0 0 1 .43-1.465l3.945-12.402h3.496l3.809 12.383q.293.937.566 1.953.293 1.015.528 1.972.234.937.332 1.68h.156q.078-.664.293-1.641.215-.976.488-2.148.293-1.172.606-2.383l3.125-11.816h3.3l-5.918 21.406zM503.693 428.594V450h-3.242v-21.406zm-1.582-8.008q.8 0 1.367.527.586.509.586 1.602 0 1.074-.586 1.601a1.93 1.93 0 0 1-1.367.528q-.84 0-1.406-.528-.547-.527-.547-1.601 0-1.093.547-1.602.566-.527 1.406-.527M513.83 450h-3.262v-30.391h3.262zM523.947 450h-3.262v-30.391h3.262zM550.919 428.203q.645 0 1.348.078.703.059 1.25.176l-.41 3.008a9 9 0 0 0-1.172-.215q-.644-.078-1.211-.078-1.289 0-2.441.527a5.8 5.8 0 0 0-1.993 1.485q-.859.956-1.347 2.324-.489 1.347-.488 3.008V450h-3.262v-21.406h2.695l.352 3.945h.136q.664-1.191 1.602-2.168a7.2 7.2 0 0 1 2.168-1.582q1.25-.586 2.773-.586M565.802 428.203q2.735 0 4.688 1.211 1.953 1.21 2.988 3.398 1.035 2.169 1.035 5.079v2.011h-14.785q.058 3.77 1.875 5.743 1.817 1.972 5.117 1.972 2.031 0 3.594-.371a20 20 0 0 0 3.242-1.094v2.852a15.8 15.8 0 0 1-3.223 1.055q-1.581.332-3.75.332-3.086 0-5.39-1.25-2.286-1.27-3.555-3.711-1.269-2.442-1.269-5.977 0-3.457 1.152-5.976 1.172-2.54 3.281-3.907 2.129-1.367 5-1.367m-.039 2.656q-2.598 0-4.141 1.7-1.542 1.698-1.835 4.746h11.328q-.02-1.914-.606-3.36-.566-1.464-1.738-2.265-1.172-.82-3.008-.821M588.029 428.242q3.828 0 5.683 1.719 1.856 1.719 1.856 5.488V450h-2.363l-.625-3.164h-.157a12 12 0 0 1-1.875 1.973 7 7 0 0 1-2.265 1.191q-1.27.39-3.125.391-1.953 0-3.477-.684a5.4 5.4 0 0 1-2.383-2.07q-.86-1.387-.859-3.516 0-3.203 2.539-4.922t7.734-1.875l3.692-.156v-1.309q0-2.773-1.192-3.886-1.191-1.114-3.359-1.114-1.68 0-3.203.489a22 22 0 0 0-2.891 1.152l-.996-2.461q1.446-.743 3.32-1.269a14.5 14.5 0 0 1 3.946-.528m4.336 11.211-3.262.137q-4.004.156-5.645 1.308-1.64 1.153-1.64 3.262 0 1.836 1.113 2.715t2.949.879q2.851 0 4.668-1.582t1.817-4.746zM609.865 450.391q-4.063 0-6.446-2.774-2.363-2.773-2.363-8.242 0-5.528 2.422-8.34 2.422-2.832 6.445-2.832 1.7 0 2.969.449 1.27.45 2.188 1.211a7.3 7.3 0 0 1 1.542 1.699h.235a32 32 0 0 1-.156-1.66 24 24 0 0 1-.079-1.718v-8.575h3.243V450h-2.618l-.488-3.047h-.137a7.4 7.4 0 0 1-1.542 1.738q-.918.782-2.208 1.25-1.269.45-3.007.45m.507-2.696q3.438 0 4.864-1.953t1.426-5.801v-.586q0-4.082-1.368-6.269-1.347-2.187-4.922-2.188-2.988 0-4.472 2.305-1.485 2.286-1.485 6.25 0 3.945 1.465 6.094 1.485 2.148 4.492 2.148M644.044 447.734q.801 0 1.641-.136.84-.137 1.367-.332v2.519q-.566.254-1.582.43-.996.176-1.953.176-1.699 0-3.086-.586-1.387-.606-2.226-2.032-.82-1.425-.821-3.945v-12.695h-3.047v-1.582l3.067-1.27 1.289-4.648h1.953v4.961h6.269v2.539h-6.269v12.597q0 2.012.918 3.008.938.996 2.48.996M654.63 419.609v9.082q0 .782-.039 1.582a15 15 0 0 1-.136 1.446h.214a6.4 6.4 0 0 1 1.68-1.895 7.3 7.3 0 0 1 2.344-1.172 9.2 9.2 0 0 1 2.773-.41q2.578 0 4.297.82a5.4 5.4 0 0 1 2.598 2.54q.879 1.718.879 4.453V450h-3.203v-13.73q0-2.676-1.231-4.004-1.211-1.329-3.73-1.328-2.383 0-3.809.917-1.406.899-2.031 2.657-.606 1.758-.606 4.297V450h-3.242v-30.391zM679.162 428.594V450h-3.243v-21.406zm-1.582-8.008q.8 0 1.367.527.586.509.586 1.602 0 1.074-.586 1.601a1.94 1.94 0 0 1-1.367.528q-.84 0-1.407-.528-.547-.527-.547-1.601 0-1.093.547-1.602.567-.527 1.407-.527M699.884 444.141q0 2.05-1.035 3.457-1.016 1.386-2.93 2.09-1.894.702-4.531.703-2.246 0-3.887-.352-1.64-.351-2.871-.996v-2.988q1.309.644 3.125 1.172t3.711.527q2.773 0 4.024-.899 1.25-.897 1.25-2.441 0-.879-.508-1.543-.489-.684-1.66-1.309-1.173-.644-3.242-1.406-2.052-.781-3.555-1.543-1.485-.781-2.305-1.894-.801-1.113-.801-2.891 0-2.715 2.188-4.16 2.207-1.465 5.781-1.465 1.934 0 3.613.391 1.7.371 3.164 1.015l-1.093 2.598a20 20 0 0 0-2.832-.957 12.2 12.2 0 0 0-3.067-.391q-2.245 0-3.457.743-1.191.741-1.191 2.031 0 .996.547 1.64.565.645 1.797 1.211 1.23.567 3.242 1.328 2.012.743 3.476 1.543 1.466.781 2.246 1.915.801 1.113.801 2.871M718.751 450h-3.261v-30.391h3.261zM733.615 428.242q3.828 0 5.683 1.719 1.856 1.719 1.856 5.488V450h-2.364l-.625-3.164h-.156a12 12 0 0 1-1.875 1.973 7 7 0 0 1-2.265 1.191q-1.27.39-3.125.391-1.953 0-3.477-.684a5.4 5.4 0 0 1-2.383-2.07q-.86-1.387-.859-3.516 0-3.203 2.539-4.922t7.734-1.875l3.692-.156v-1.309q0-2.773-1.192-3.886-1.191-1.114-3.359-1.114-1.68 0-3.203.489a22 22 0 0 0-2.891 1.152l-.996-2.461q1.446-.743 3.32-1.269a14.5 14.5 0 0 1 3.946-.528m4.336 11.211-3.262.137q-4.004.156-5.645 1.308-1.64 1.153-1.64 3.262 0 1.836 1.113 2.715t2.949.879q2.851 0 4.668-1.582t1.817-4.746zM761.681 444.141q0 2.05-1.035 3.457-1.016 1.386-2.93 2.09-1.894.702-4.531.703-2.246 0-3.887-.352-1.64-.351-2.871-.996v-2.988q1.309.644 3.125 1.172t3.711.527q2.773 0 4.024-.899 1.25-.897 1.25-2.441 0-.879-.508-1.543-.489-.684-1.66-1.309-1.172-.644-3.243-1.406-2.05-.781-3.554-1.543-1.485-.781-2.305-1.894-.801-1.113-.801-2.891 0-2.715 2.188-4.16 2.207-1.465 5.781-1.465 1.933 0 3.613.391 1.7.371 3.164 1.015l-1.093 2.598a20 20 0 0 0-2.832-.957 12.2 12.2 0 0 0-3.067-.391q-2.246 0-3.457.743-1.191.741-1.191 2.031 0 .996.547 1.64.566.645 1.796 1.211 1.232.567 3.243 1.328 2.012.743 3.476 1.543 1.465.781 2.246 1.915.801 1.113.801 2.871M773.81 447.734q.801 0 1.641-.136.84-.137 1.367-.332v2.519q-.567.254-1.582.43-.996.176-1.953.176-1.7 0-3.086-.586-1.387-.606-2.227-2.032-.82-1.425-.82-3.945v-12.695h-3.047v-1.582l3.066-1.27 1.289-4.648h1.954v4.961h6.269v2.539h-6.269v12.597q0 2.012.918 3.008.937.996 2.48.996M303.279 813h-3.925v-30.109h-10.556v-3.443h24.991v3.443h-10.51zM322.567 777.291v10.671q0 .918-.046 1.859-.045.918-.16 1.699h.252a7.5 7.5 0 0 1 1.974-2.227 8.6 8.6 0 0 1 2.753-1.376 10.8 10.8 0 0 1 3.259-.482q3.03 0 5.049.963a6.35 6.35 0 0 1 3.052 2.984q1.033 2.019 1.033 5.232V813h-3.764v-16.133q0-3.144-1.445-4.705-1.423-1.56-4.384-1.56-2.8 0-4.475 1.078-1.652 1.056-2.387 3.121-.711 2.066-.711 5.049V813h-3.81v-35.709zM357.736 787.389q3.213 0 5.508 1.423 2.295 1.422 3.511 3.993 1.217 2.547 1.217 5.966v2.364h-17.373q.069 4.43 2.203 6.747 2.134 2.319 6.013 2.318 2.387 0 4.223-.436a23.4 23.4 0 0 0 3.809-1.285v3.351a18.5 18.5 0 0 1-3.787 1.239q-1.859.39-4.406.39-3.625 0-6.334-1.469-2.685-1.492-4.177-4.36t-1.491-7.023q0-4.062 1.354-7.022 1.377-2.983 3.855-4.59 2.502-1.606 5.875-1.606m-.046 3.121q-3.051 0-4.865 1.996-1.814 1.997-2.157 5.577h13.31q-.023-2.249-.711-3.947-.666-1.722-2.042-2.662-1.377-.964-3.535-.964M386.824 787.389q4.475 0 6.77 2.203 2.295 2.18 2.295 7.022V813h-3.764v-16.133q0-3.144-1.446-4.705-1.422-1.56-4.383-1.56-4.176 0-5.875 2.363t-1.698 6.862V813h-3.81v-25.152h3.075l.574 3.626h.207a7.5 7.5 0 0 1 2.042-2.226 8.9 8.9 0 0 1 2.777-1.377 10.7 10.7 0 0 1 3.236-.482M412.916 787.848h4.085l5.554 14.595q.482 1.285.895 2.479.413 1.17.734 2.249.322 1.078.505 2.088h.161q.321-1.148.918-3.006.597-1.882 1.285-3.833l5.255-14.572h4.108l-10.946 28.847q-.873 2.317-2.043 4.039-1.147 1.72-2.8 2.639-1.651.94-3.993.941-1.078 0-1.905-.138a12 12 0 0 1-1.423-.275v-3.052q.505.114 1.217.206.734.092 1.514.092 1.423 0 2.456-.551 1.056-.528 1.813-1.56t1.308-2.456l1.377-3.534zM462.589 800.378q0 3.098-.803 5.531t-2.318 4.108a10.1 10.1 0 0 1-3.672 2.57q-2.133.872-4.842.872-2.524 0-4.636-.872a10.5 10.5 0 0 1-3.626-2.57q-1.514-1.676-2.363-4.108-.826-2.433-.826-5.531 0-4.131 1.399-7.023 1.4-2.914 3.994-4.429 2.616-1.537 6.219-1.537 3.442 0 6.013 1.537 2.592 1.538 4.016 4.452 1.445 2.892 1.445 7m-19.139 0q0 3.029.803 5.255t2.479 3.443q1.675 1.216 4.314 1.216 2.617 0 4.291-1.216 1.699-1.217 2.502-3.443t.803-5.255q0-3.006-.803-5.187-.804-2.203-2.479-3.396-1.674-1.193-4.337-1.193-3.924 0-5.76 2.593-1.813 2.593-1.813 7.183M490.415 787.848V813h-3.121l-.551-3.534h-.207a7.3 7.3 0 0 1-2.019 2.203 8.8 8.8 0 0 1-2.8 1.331 11.4 11.4 0 0 1-3.282.459q-2.983 0-5.003-.964t-3.052-2.983q-1.01-2.02-1.01-5.187v-16.477h3.856v16.202q0 3.144 1.423 4.704 1.422 1.538 4.337 1.538 2.8 0 4.452-1.056 1.675-1.055 2.41-3.098.735-2.065.734-5.049v-13.241zM532.09 812.954l-4.475-14.642q-.299-.94-.574-1.835l-.482-1.745a127 127 0 0 0-.39-1.56l-.276-1.262h-.16a31 31 0 0 1-.643 2.822q-.205.85-.459 1.79a31 31 0 0 1-.574 1.859l-4.681 14.573h-4.292l-6.93-25.152h3.947l3.626 13.884q.367 1.377.688 2.731.345 1.331.574 2.524.253 1.171.367 2.043h.184q.138-.574.298-1.377l.39-1.698q.23-.918.482-1.813.253-.918.505-1.721l4.636-14.573h4.108l4.475 14.55q.344 1.101.665 2.294.345 1.194.62 2.318.276 1.103.39 1.974h.184q.092-.78.344-1.928.253-1.147.574-2.524.343-1.377.711-2.8l3.672-13.884h3.879l-6.954 25.152zM552.342 787.848V813h-3.81v-25.152zm-1.859-9.41q.94 0 1.607.62.688.597.688 1.882 0 1.262-.688 1.882-.666.62-1.607.619-.987 0-1.652-.619-.643-.62-.643-1.882 0-1.285.643-1.882.665-.62 1.652-.62M564.723 813h-3.833v-35.709h3.833zM577.08 813h-3.832v-35.709h3.832zM609.713 787.389q.757 0 1.584.091.825.069 1.468.207l-.481 3.534a11 11 0 0 0-1.377-.252q-.758-.092-1.423-.092-1.515 0-2.869.62a6.8 6.8 0 0 0-2.341 1.744q-1.01 1.124-1.583 2.731-.574 1.582-.574 3.534V813h-3.833v-25.152h3.167l.414 4.635h.16a12.3 12.3 0 0 1 1.882-2.547 8.5 8.5 0 0 1 2.547-1.859q1.47-.688 3.259-.688M627.67 787.389q3.213 0 5.508 1.423 2.295 1.422 3.512 3.993 1.216 2.547 1.216 5.966v2.364h-17.373q.07 4.43 2.203 6.747 2.134 2.319 6.013 2.318 2.387 0 4.223-.436a23.3 23.3 0 0 0 3.809-1.285v3.351a18.6 18.6 0 0 1-3.786 1.239q-1.86.39-4.407.39-3.625 0-6.334-1.469-2.685-1.492-4.176-4.36t-1.492-7.023q0-4.062 1.354-7.022 1.377-2.983 3.855-4.59 2.502-1.606 5.875-1.606m-.045 3.121q-3.053 0-4.866 1.996-1.812 1.997-2.157 5.577h13.311q-.024-2.249-.712-3.947-.665-1.722-2.042-2.662-1.377-.964-3.534-.964M654.257 787.435q4.497 0 6.678 2.019t2.18 6.449V813h-2.777l-.734-3.718h-.184q-1.056 1.377-2.203 2.318a8.2 8.2 0 0 1-2.662 1.4q-1.491.459-3.672.459-2.294 0-4.085-.803a6.37 6.37 0 0 1-2.8-2.433q-1.01-1.629-1.009-4.131 0-3.764 2.983-5.783t9.088-2.203l4.337-.184v-1.537q0-3.26-1.4-4.567t-3.947-1.308q-1.974 0-3.764.573a26 26 0 0 0-3.396 1.355l-1.17-2.892q1.698-.872 3.901-1.492a17 17 0 0 1 4.636-.619m5.094 13.172-3.832.161q-4.705.183-6.632 1.538-1.928 1.354-1.928 3.832 0 2.158 1.308 3.19t3.465 1.033q3.35 0 5.485-1.859 2.134-1.859 2.134-5.577zM680.384 813.459q-4.774 0-7.573-3.259-2.778-3.259-2.777-9.684 0-6.495 2.846-9.8 2.845-3.327 7.573-3.327 1.997 0 3.488.528 1.492.527 2.57 1.422a8.6 8.6 0 0 1 1.813 1.997h.276a38 38 0 0 1-.184-1.951 29 29 0 0 1-.092-2.019v-10.075h3.81V813h-3.075l-.574-3.58h-.161a8.7 8.7 0 0 1-1.813 2.042q-1.078.918-2.593 1.469-1.491.528-3.534.528m.597-3.167q4.038 0 5.714-2.295 1.675-2.295 1.675-6.816v-.688q0-4.797-1.606-7.367-1.584-2.57-5.783-2.57-3.511 0-5.256 2.708-1.744 2.685-1.744 7.343 0 4.636 1.721 7.161 1.744 2.524 5.279 2.524M721.485 810.338q.94 0 1.928-.161.987-.16 1.606-.39v2.961q-.665.298-1.859.504-1.17.207-2.295.207-1.996 0-3.626-.688-1.629-.712-2.616-2.387-.964-1.675-.964-4.636v-14.917h-3.58v-1.859l3.603-1.492 1.515-5.461h2.295v5.829h7.367v2.983h-7.367v14.802q0 2.364 1.078 3.534 1.102 1.171 2.915 1.171M734.393 777.291v10.671q0 .918-.045 1.859a18 18 0 0 1-.161 1.699h.252a7.5 7.5 0 0 1 1.974-2.227 8.6 8.6 0 0 1 2.754-1.376 10.8 10.8 0 0 1 3.259-.482q3.029 0 5.049.963a6.35 6.35 0 0 1 3.052 2.984q1.033 2.019 1.033 5.232V813h-3.764v-16.133q0-3.144-1.446-4.705-1.423-1.56-4.383-1.56-2.8 0-4.475 1.078-1.652 1.056-2.387 3.121-.712 2.066-.712 5.049V813h-3.809v-35.709zM763.688 787.848V813h-3.81v-25.152zm-1.859-9.41q.941 0 1.606.62.689.597.689 1.882 0 1.262-.689 1.882a2.27 2.27 0 0 1-1.606.619q-.987 0-1.652-.619-.643-.62-.643-1.882 0-1.285.643-1.882.665-.62 1.652-.62M788.507 806.115q0 2.41-1.216 4.062-1.193 1.63-3.443 2.456-2.226.826-5.324.826-2.639 0-4.567-.413t-3.373-1.171v-3.511q1.538.758 3.671 1.377a15.6 15.6 0 0 0 4.361.62q3.258 0 4.727-1.056t1.469-2.868q0-1.033-.597-1.813-.573-.803-1.95-1.538-1.377-.758-3.81-1.652-2.41-.918-4.177-1.813-1.743-.918-2.708-2.226-.94-1.31-.941-3.397 0-3.19 2.571-4.888 2.593-1.722 6.793-1.721 2.272 0 4.245.459 1.997.435 3.718 1.193l-1.285 3.052a24 24 0 0 0-3.328-1.124 14.3 14.3 0 0 0-3.603-.459q-2.639 0-4.062.872-1.4.872-1.4 2.387 0 1.17.643 1.927.666.757 2.111 1.423t3.81 1.561q2.363.871 4.085 1.813 1.72.917 2.639 2.249.94 1.308.941 3.373M171.557 587v-22.92l-23.76-59.64h25.8l11.64 36.48 11.4-36.48h25.68l-24.96 59.64V587zM250.55 587.96q-10.2 0-18-3.96t-12.24-10.92q-4.32-7.08-4.32-16.2 0-9.36 4.44-16.2 4.56-6.96 12.36-10.8t17.88-3.84q10.32 0 18.12 3.96 7.8 3.84 12.12 10.8 4.32 6.84 4.32 16.08t-4.44 16.32q-4.32 6.96-12.12 10.92-7.8 3.84-18.12 3.84m.24-18q4.92 0 8.04-3.6 3.24-3.72 3.24-9.48t-3.12-9.36q-3.12-3.72-7.92-3.72-5.16 0-8.4 3.72-3.12 3.6-3.12 9.36t3.12 9.48q3.24 3.6 8.16 3.6M326.024 587.96q-15.24 0-23.88-7.68-8.52-7.8-8.52-21.48v-31.92h24.72v33q0 4.8 2.04 7.08 2.16 2.28 5.76 2.28 3.48 0 5.4-2.28 2.04-2.28 2.04-7.08v-33h24.24v31.92q0 13.8-8.4 21.48-8.28 7.68-23.4 7.68M402.767 587l-15.6-60.12h25.68l8.04 37.8 9.48-37.8h20.64l9.6 38.76 8.04-38.76h20.52L474.647 587h-28.68l-7.92-30.6-7.56 30.6zM518.338 587.96q-8.04 0-13.08-2.88-4.92-2.88-7.2-7.8t-2.28-11.04v-39.36h25.32v35.88q0 2.76 1.56 4.32 1.68 1.44 3.96 1.44 2.4 0 4.92-1.44l1.32 16.68q-2.64 2.04-6.84 3.12t-7.68 1.08m-9.84-67.68q-5.52 0-9.48-3.48-3.96-3.6-3.96-8.76 0-3.6 1.92-6.24 1.92-2.76 5.04-4.32t6.48-1.56q3.72 0 6.72 1.68 3.12 1.68 4.92 4.44 1.92 2.76 1.92 6 0 3.6-2.04 6.36-1.92 2.76-5.04 4.32-3 1.56-6.48 1.56M562.669 587.96q-8.52 0-13.92-2.88-5.28-2.88-7.68-7.8t-2.4-11.04v-60.72l25.32-3.72v60.96q0 2.76 1.8 4.32 1.8 1.44 4.68 1.44t5.76-1.44l1.8 16.68q-2.88 2.04-7.32 3.12t-8.04 1.08M607.669 587.96q-8.52 0-13.92-2.88-5.28-2.88-7.68-7.8t-2.4-11.04v-60.72l25.32-3.72v60.96q0 2.76 1.8 4.32 1.8 1.44 4.68 1.44t5.76-1.44l1.8 16.68q-2.88 2.04-7.32 3.12t-8.04 1.08M651.412 587v-60.12h24.96v15q2.4-8.16 7.44-12 5.16-3.84 12.24-3.84l3 21.24q-2.88-.36-5.64-.36-16.68 0-16.68 13.68V587zM740.646 571.16q3.48 0 7.32-.72 3.96-.72 8.04-2.64l2.88 15.48q-4.44 2.28-9.72 3.48-5.16 1.2-11.88 1.2-12.12 0-20.4-3.96-8.16-3.96-12.36-10.92t-4.2-16.08q0-9.36 4.44-16.32 4.56-6.96 12.12-10.8t16.68-3.84q13.56 0 20.76 8.52 7.2 8.4 7.2 24l-35.76 4.56q3.96 8.04 14.88 8.04m-16.8-19.08 18.84-3.96q-.48-3.84-2.64-5.64-2.16-1.92-5.4-1.92-4.8 0-7.68 3.36-2.76 3.24-3.12 8.16M796.408 587.96q-8.28 0-15-3.96-6.72-4.08-10.68-11.16-3.84-7.08-3.84-16.2t3.84-15.96q3.96-6.84 10.68-10.68 6.72-3.96 15-3.96 5.88 0 11.4 3.24t8.52 10.68v-13.08h24.96V587h-25.2v-11.16q-2.88 5.88-7.68 9t-12 3.12m7.8-18.96q4.92 0 8.4-3.48 3.48-3.6 3.48-8.76t-3.48-8.4q-3.48-3.36-8.4-3.36-5.16 0-8.64 3.48t-3.48 8.52 3.48 8.52 8.64 3.48M879.846 587.96q-8.28 0-15-3.96-6.72-4.08-10.68-11.16-3.84-7.08-3.84-16.2t3.84-15.96q3.96-6.84 10.68-10.68 6.72-3.96 15-3.96 5.88 0 11.28 3.24 5.52 3.12 8.16 10.2v-31.56l25.32-3.72V587h-25.08v-11.16q-2.88 5.88-7.68 9t-12 3.12m7.8-18.96q4.92 0 8.4-3.48 3.48-3.6 3.48-8.76t-3.48-8.4q-3.48-3.36-8.4-3.36-5.16 0-8.64 3.48t-3.48 8.52 3.48 8.52 8.64 3.48M322.013 719.96q-8.52 0-13.92-2.88-5.28-2.88-7.68-7.8t-2.4-11.04v-24.48h-7.68v-14.88h9.48l11.16-18.96h12.36v18.96h13.92v14.88h-13.92v21q0 2.76 1.8 4.32 1.8 1.44 4.68 1.44t5.76-1.44l1.8 16.68q-2.88 2.04-7.32 3.12t-8.04 1.08M346.021 719v-79.08l25.32-3.72v35.04q2.52-6.24 7.92-9.72t12.96-3.48q11.76 0 18.24 8.16 6.48 8.04 6.48 22.8v30h-25.32v-31.32q0-10.68-8.64-10.68-5.16 0-8.4 3.84-3.24 3.72-3.24 10.08V719zM450.487 719.96q-8.04 0-13.08-2.88-4.92-2.88-7.2-7.8t-2.28-11.04v-39.36h25.32v35.88q0 2.76 1.56 4.32 1.68 1.44 3.96 1.44 2.4 0 4.92-1.44l1.32 16.68q-2.64 2.04-6.84 3.12t-7.68 1.08m-9.84-67.68q-5.52 0-9.48-3.48-3.96-3.6-3.96-8.76 0-3.6 1.92-6.24 1.92-2.76 5.04-4.32t6.48-1.56q3.72 0 6.72 1.68 3.12 1.68 4.92 4.44 1.92 2.76 1.92 6 0 3.6-2.04 6.36-1.92 2.76-5.04 4.32-3 1.56-6.48 1.56M490.497 719.96q-5.4 0-10.92-1.08t-9.96-3l3.48-15.12q2.76 1.44 7.56 2.52 4.8.96 8.52.96 6 0 6-3.24 0-1.56-1.92-2.28-1.8-.72-4.8-1.2-2.88-.6-6.24-1.44-3.36-.96-6.36-2.76-2.88-1.92-4.8-5.4-1.8-3.48-1.8-9.12 0-9.48 7.44-15.12 7.56-5.64 20.64-5.64 5.04 0 9.36.72a24.6 24.6 0 0 1 8.4 3l-2.52 14.64q-6.36-2.64-13.32-2.64-4.44 0-6.48.72-1.92.72-1.92 2.4 0 1.32 1.92 2.04t4.92 1.44q3.12.6 6.48 1.8 3.36 1.08 6.36 3.12 3.12 2.04 5.04 5.52 1.92 3.36 1.92 8.76 0 9.6-7.08 15t-19.92 5.4M607.087 649.88q-5.52 0-9.48-3.48-3.96-3.6-3.96-8.76 0-3.6 1.92-6.24 1.92-2.76 5.04-4.32t6.48-1.56q3.72 0 6.72 1.68 3.12 1.68 4.92 4.44 1.92 2.76 1.92 6 0 3.6-2.04 6.36-1.92 2.76-5.04 4.32-3 1.56-6.48 1.56m23.04 49.2 1.32 16.68q-2.64 2.04-6.84 3.12t-7.68 1.08q-8.04 0-13.08-2.88-4.92-2.88-7.2-7.8t-2.28-11.04v-24.48h-19.2V719h-25.32v-45.24h-7.56v-14.88h7.56v-3.48q0-6.6 3.24-11.28 3.24-4.8 9-7.32 5.76-2.64 13.32-2.64 3.96 0 7.92.72 4.08.6 7.08 1.92l-.84 15.24q-2.64-.6-5.16-.84-2.52-.36-4.92-.36-8.04 0-8.04 4.92 0 1.56.84 3.12h47.4v35.88q0 2.76 1.56 4.32 1.68 1.44 3.96 1.44 2.4 0 4.92-1.44M637.583 719v-60.12h24.96v15q2.4-8.16 7.44-12 5.16-3.84 12.24-3.84l3 21.24q-2.88-.36-5.64-.36-16.68 0-16.68 13.68V719zM710.575 719.96q-5.4 0-10.92-1.08t-9.96-3l3.48-15.12q2.76 1.44 7.56 2.52 4.8.96 8.52.96 6 0 6-3.24 0-1.56-1.92-2.28-1.8-.72-4.8-1.2-2.88-.6-6.24-1.44-3.36-.96-6.36-2.76-2.88-1.92-4.8-5.4-1.8-3.48-1.8-9.12 0-9.48 7.44-15.12 7.56-5.64 20.64-5.64 5.04 0 9.36.72a24.6 24.6 0 0 1 8.4 3l-2.52 14.64q-6.36-2.64-13.32-2.64-4.44 0-6.48.72-1.92.72-1.92 2.4 0 1.32 1.92 2.04t4.92 1.44q3.12.6 6.48 1.8 3.36 1.08 6.36 3.12 3.12 2.04 5.04 5.52 1.92 3.36 1.92 8.76 0 9.6-7.08 15t-19.92 5.4M771.662 719.96q-8.52 0-13.92-2.88-5.28-2.88-7.68-7.8t-2.4-11.04v-24.48h-7.68v-14.88h9.48l11.16-18.96h12.36v18.96h13.92v14.88h-13.92v21q0 2.76 1.8 4.32 1.8 1.44 4.68 1.44t5.76-1.44l1.8 16.68q-2.88 2.04-7.32 3.12t-8.04 1.08"/></svg>