<svg xmlns="http://www.w3.org/2000/svg" width="1080" height="1350" fill="none"><path fill="#000" d="m302.107 447 12.44-28.2h2.88l12.64 28.2h-3.44l-3.52-8.04 1.48.84h-17.24l1.6-.84-3.44 8.04zm13.84-24.4-6.48 15.2-.96-.72h14.88l-.72.72-6.64-15.2zM333.961 447v-15.44q0-1.12-.12-2.28-.08-1.2-.2-2.36h3.12l.4 4.4h-.48q.88-2.32 2.8-3.52 1.96-1.24 4.52-1.24 3.56 0 5.36 1.92 1.84 1.88 1.84 5.96V447h-3.24v-12.36q0-2.84-1.16-4.12-1.12-1.32-3.52-1.32-2.8 0-4.44 1.72t-1.64 4.6V447zM364.998 447.36q-2.64 0-4.64-1.24-2-1.281-3.12-3.6-1.08-2.32-1.08-5.56 0-3.28 1.08-5.6 1.12-2.32 3.12-3.56t4.64-1.24q2.721 0 4.68 1.36a6.55 6.55 0 0 1 2.68 3.68h-.48v-14.04h3.24V447h-3.2v-4.8h.44q-.639 2.4-2.64 3.8-2 1.36-4.72 1.36m.68-2.64q2.841 0 4.56-1.96 1.72-2 1.72-5.8 0-3.84-1.72-5.8-1.719-2-4.56-2t-4.56 2q-1.68 1.96-1.68 5.8 0 3.8 1.68 5.8 1.72 1.96 4.56 1.96M391.012 456.08l-.76-2.68q1.881-.44 3.12-1.04 1.28-.56 2.12-1.52t1.44-2.4l1.04-2.36-.08 1.36-8.76-20.52h3.52l7.24 17.64h-1.04l7.16-17.64h3.4l-9.28 21.76q-.8 1.92-1.76 3.2-.96 1.32-2.08 2.12-1.08.84-2.4 1.32t-2.88.76M421.029 447.36q-2.88 0-5.04-1.24-2.12-1.281-3.28-3.6-1.16-2.36-1.16-5.56 0-3.24 1.16-5.56t3.28-3.56q2.16-1.28 5.04-1.28 2.92 0 5.04 1.28 2.16 1.24 3.32 3.56 1.2 2.32 1.2 5.56 0 3.2-1.2 5.56-1.16 2.319-3.32 3.6-2.12 1.24-5.04 1.24m0-2.64q2.88 0 4.56-1.96 1.68-2 1.68-5.8 0-3.84-1.72-5.8-1.68-2-4.52-2t-4.52 2q-1.68 1.96-1.68 5.8 0 3.8 1.68 5.8 1.68 1.96 4.52 1.96M442.72 447.36q-3.56 0-5.4-1.96-1.8-1.96-1.8-6v-12.48h3.24v12.4q0 2.76 1.12 4.08 1.12 1.28 3.48 1.28 2.64 0 4.24-1.72t1.6-4.6v-11.44h3.24V447h-3.16v-4.52h.52q-.84 2.319-2.72 3.6-1.84 1.28-4.36 1.28M474.516 447l-7.44-20.08h3.44l6.2 17.68h-1.04l6.4-17.68h2.8l6.28 17.68h-1l6.24-17.68h3.28l-7.48 20.08h-3.12l-6.48-17.96h1.6l-6.52 17.96zM503.922 447v-20.08h3.24V447zm-.4-24.64v-3.64h4v3.64zM513.453 447v-29.44h3.24V447zM522.984 447v-29.44h3.24V447zM542.865 447v-15.24q0-1.2-.08-2.44a34 34 0 0 0-.16-2.4h3.12l.4 4.88-.56.04q.4-1.8 1.4-2.96a6.2 6.2 0 0 1 2.36-1.72q1.36-.6 2.84-.6.6 0 1.04.04.48.04.88.2l-.04 2.88a4.6 4.6 0 0 0-1.12-.24 7 7 0 0 0-1.12-.08q-1.76 0-3.08.84a5.64 5.64 0 0 0-1.96 2.16 6.3 6.3 0 0 0-.64 2.8V447zM566.162 447.36q-4.72 0-7.44-2.72-2.72-2.76-2.72-7.64 0-3.16 1.2-5.48 1.2-2.36 3.36-3.64 2.16-1.32 4.96-1.32 2.76 0 4.64 1.16t2.88 3.32q1 2.12 1 5.04v1.2h-15.56v-2.04h13.44l-.68.52q0-3.2-1.44-5t-4.28-1.8q-3 0-4.68 2.12-1.68 2.079-1.68 5.64v.36q0 3.76 1.84 5.72 1.88 1.92 5.24 1.92 1.8 0 3.36-.52 1.6-.561 3.04-1.8l1.12 2.28q-1.32 1.28-3.36 2-2 .68-4.24.68M586.64 447.36q-2.68 0-4.68-1.24-2-1.281-3.12-3.6-1.08-2.32-1.08-5.56 0-3.28 1.08-5.6 1.12-2.32 3.12-3.56t4.68-1.24q2.72 0 4.68 1.4 2 1.359 2.64 3.72h-.48l.44-4.76h3.12q-.12 1.16-.24 2.36-.08 1.16-.08 2.28V447h-3.24v-4.72h.44q-.64 2.36-2.64 3.72t-4.64 1.36m.64-2.64q2.88 0 4.56-1.96 1.68-2 1.68-5.8 0-3.84-1.68-5.8-1.68-2-4.56-2-2.84 0-4.56 2-1.68 1.96-1.68 5.8 0 3.8 1.68 5.8 1.72 1.96 4.56 1.96M610.584 447.36q-2.64 0-4.64-1.24-2-1.281-3.12-3.6-1.08-2.32-1.08-5.56 0-3.28 1.08-5.6 1.12-2.32 3.12-3.56t4.64-1.24q2.721 0 4.68 1.36a6.55 6.55 0 0 1 2.68 3.68h-.48v-14.04h3.24V447h-3.2v-4.8h.44q-.639 2.4-2.64 3.8-2 1.36-4.72 1.36m.68-2.64q2.841 0 4.56-1.96 1.72-2 1.72-5.8 0-3.84-1.72-5.8-1.719-2-4.56-2t-4.56 2q-1.68 1.96-1.68 5.8 0 3.8 1.68 5.8 1.72 1.96 4.56 1.96M644.518 447.36q-2.96 0-4.52-1.68-1.56-1.72-1.56-5.16v-11.08h-3.92v-2.52h3.92v-5.48l3.24-.92v6.4h5.76v2.52h-5.76v10.72q0 2.4.8 3.44.84 1 2.48 1 .76 0 1.36-.12.6-.16 1.08-.36v2.72a5.6 5.6 0 0 1-1.36.36 7.4 7.4 0 0 1-1.52.16M651.383 447v-29.44h3.24v13.8h-.52q.84-2.36 2.8-3.56 2-1.24 4.6-1.24 3.6 0 5.36 1.96 1.76 1.92 1.76 5.84V447h-3.24v-12.44q0-2.8-1.12-4.08-1.08-1.28-3.52-1.28-2.8 0-4.48 1.72-1.64 1.72-1.64 4.52V447zM674.82 447v-20.08h3.24V447zm-.4-24.64v-3.64h4v3.64zM691.031 447.36q-2.4 0-4.48-.64-2.08-.68-3.44-1.88l1.12-2.28a10.4 10.4 0 0 0 3.2 1.72q1.76.56 3.64.56 2.4 0 3.6-.84 1.24-.88 1.24-2.4 0-1.16-.8-1.84-.759-.72-2.52-1.12l-3.72-.76q-2.559-.56-3.84-1.88-1.28-1.36-1.28-3.44 0-1.76.92-3.08.92-1.36 2.68-2.12 1.76-.8 4.12-.8 2.2 0 4.04.68 1.881.64 3.12 1.88l-1.16 2.24a7.6 7.6 0 0 0-2.76-1.72 8.5 8.5 0 0 0-3.16-.6q-2.36 0-3.56.96-1.16.92-1.16 2.44 0 1.16.72 1.92.76.72 2.32 1.08l3.72.76q2.72.6 4.04 1.88 1.36 1.239 1.36 3.36 0 1.8-1 3.16-1 1.32-2.8 2.04-1.76.72-4.16.72M714.625 447v-29.44h3.24V447zM731.796 447.36q-2.68 0-4.68-1.24-2-1.281-3.12-3.6-1.08-2.32-1.08-5.56 0-3.28 1.08-5.6 1.12-2.32 3.12-3.56t4.68-1.24q2.72 0 4.68 1.4 2 1.359 2.64 3.72h-.48l.44-4.76h3.12q-.12 1.16-.24 2.36-.08 1.16-.08 2.28V447h-3.24v-4.72h.44q-.64 2.36-2.64 3.72t-4.64 1.36m.64-2.64q2.88 0 4.56-1.96 1.68-2 1.68-5.8 0-3.84-1.68-5.8-1.68-2-4.56-2-2.84 0-4.56 2-1.68 1.96-1.68 5.8 0 3.8 1.68 5.8 1.72 1.96 4.56 1.96M754.82 447.36q-2.4 0-4.48-.64-2.08-.68-3.44-1.88l1.12-2.28a10.4 10.4 0 0 0 3.2 1.72q1.76.56 3.64.56 2.4 0 3.6-.84 1.24-.88 1.24-2.4 0-1.16-.8-1.84-.759-.72-2.52-1.12l-3.72-.76q-2.559-.56-3.84-1.88-1.28-1.36-1.28-3.44 0-1.76.92-3.08.92-1.36 2.68-2.12 1.76-.8 4.12-.8 2.2 0 4.04.68 1.881.64 3.12 1.88l-1.16 2.24a7.6 7.6 0 0 0-2.76-1.72 8.5 8.5 0 0 0-3.16-.6q-2.36 0-3.56.96-1.16.92-1.16 2.44 0 1.16.72 1.92.76.72 2.32 1.08l3.72.76q2.72.6 4.04 1.88 1.36 1.239 1.36 3.36 0 1.8-1 3.16-1 1.32-2.8 2.04-1.76.72-4.16.72M774.909 447.36q-2.96 0-4.52-1.68-1.56-1.72-1.56-5.16v-11.08h-3.92v-2.52h3.92v-5.48l3.24-.92v6.4h5.76v2.52h-5.76v10.72q0 2.4.8 3.44.84 1 2.48 1 .76 0 1.36-.12.6-.16 1.08-.36v2.72q-.56.24-1.36.36a7.4 7.4 0 0 1-1.52.16M302.346 810v-29.845h-11.703v-3.29h27.26v3.29h-11.656V810zM322.722 810v-34.592h3.807v16.215h-.611q.986-2.773 3.29-4.183 2.35-1.457 5.405-1.457 4.23 0 6.298 2.303 2.067 2.256 2.068 6.862V810h-3.807v-14.617q0-3.291-1.316-4.794-1.27-1.504-4.136-1.504-3.29 0-5.264 2.021-1.927 2.02-1.927 5.311V810zM361.212 810.423q-5.547 0-8.742-3.196-3.196-3.244-3.196-8.977 0-3.714 1.41-6.439 1.41-2.774 3.948-4.277 2.537-1.551 5.828-1.551 3.243 0 5.452 1.363t3.384 3.901q1.175 2.49 1.175 5.922v1.41h-18.283v-2.397h15.792l-.799.611q0-3.76-1.692-5.875t-5.029-2.115q-3.525 0-5.499 2.491-1.974 2.444-1.974 6.627v.423q0 4.417 2.162 6.721 2.208 2.256 6.157 2.256 2.115 0 3.948-.611 1.88-.659 3.572-2.115l1.316 2.679q-1.551 1.503-3.948 2.35a15.4 15.4 0 0 1-4.982.799M376.766 810v-18.142q0-1.317-.141-2.679a77 77 0 0 0-.235-2.773h3.666l.47 5.17h-.564q1.034-2.726 3.29-4.136 2.303-1.457 5.311-1.457 4.183 0 6.298 2.256 2.162 2.208 2.162 7.003V810h-3.807v-14.523q0-3.338-1.363-4.841-1.316-1.551-4.136-1.551-3.29 0-5.217 2.021t-1.927 5.405V810zM416.56 820.669l-.893-3.149q2.21-.517 3.666-1.222 1.504-.658 2.491-1.786t1.692-2.82l1.222-2.773-.094 1.598-10.293-24.111h4.136l8.507 20.727h-1.222l8.413-20.727h3.995l-10.904 25.568q-.94 2.256-2.068 3.76-1.128 1.55-2.444 2.491a10.3 10.3 0 0 1-2.82 1.551 20.6 20.6 0 0 1-3.384.893M452.299 810.423q-3.384 0-5.922-1.457-2.49-1.504-3.854-4.23-1.363-2.774-1.363-6.533 0-3.807 1.363-6.533 1.364-2.727 3.854-4.183 2.538-1.504 5.922-1.504 3.432 0 5.922 1.504 2.538 1.456 3.901 4.183 1.41 2.726 1.41 6.533 0 3.76-1.41 6.533-1.363 2.726-3.901 4.23-2.49 1.457-5.922 1.457m0-3.102q3.384 0 5.358-2.303 1.974-2.35 1.974-6.815 0-4.512-2.021-6.815-1.974-2.35-5.311-2.35t-5.311 2.35q-1.974 2.303-1.974 6.815 0 4.464 1.974 6.815 1.974 2.303 5.311 2.303M478.257 810.423q-4.184 0-6.345-2.303-2.115-2.304-2.115-7.05v-14.664h3.807v14.57q0 3.243 1.316 4.794 1.315 1.504 4.089 1.504 3.102 0 4.982-2.021t1.88-5.405v-13.442h3.807V810h-3.713v-5.311h.611q-.987 2.726-3.196 4.23-2.162 1.504-5.123 1.504M516.557 810l-8.742-23.594h4.042l7.285 20.774h-1.222l7.52-20.774h3.29l7.379 20.774h-1.175l7.332-20.774h3.854L537.331 810h-3.666l-7.614-21.103h1.88L520.27 810zM551.578 810v-23.594h3.807V810zm-.47-28.952v-4.277h4.7v4.277zM563.248 810v-34.592h3.807V810zM574.917 810v-34.592h3.807V810zM599.217 810v-17.907q0-1.41-.094-2.867a40 40 0 0 0-.188-2.82h3.666l.47 5.734-.658.047q.47-2.115 1.645-3.478a7.3 7.3 0 0 1 2.773-2.021 8.2 8.2 0 0 1 3.337-.705q.705 0 1.222.047.564.046 1.034.235l-.047 3.384a5.5 5.5 0 0 0-1.316-.282 8 8 0 0 0-1.316-.094q-2.068 0-3.619.987a6.63 6.63 0 0 0-2.303 2.538 7.45 7.45 0 0 0-.752 3.29V810zM627.061 810.423q-5.547 0-8.742-3.196-3.196-3.244-3.196-8.977 0-3.714 1.41-6.439 1.41-2.774 3.948-4.277 2.538-1.551 5.828-1.551 3.243 0 5.452 1.363t3.384 3.901q1.175 2.49 1.175 5.922v1.41h-18.283v-2.397h15.792l-.799.611q0-3.76-1.692-5.875t-5.029-2.115q-3.525 0-5.499 2.491-1.974 2.444-1.974 6.627v.423q0 4.417 2.162 6.721 2.21 2.256 6.157 2.256 2.115 0 3.948-.611 1.88-.659 3.572-2.115l1.316 2.679q-1.551 1.503-3.948 2.35a15.4 15.4 0 0 1-4.982.799M651.592 810.423q-3.149 0-5.499-1.457-2.349-1.504-3.666-4.23-1.269-2.726-1.269-6.533 0-3.855 1.269-6.58 1.317-2.727 3.666-4.183 2.35-1.457 5.499-1.457 3.197 0 5.499 1.645 2.35 1.597 3.102 4.371h-.564l.517-5.593h3.666q-.141 1.362-.282 2.773a39 39 0 0 0-.094 2.679V810h-3.807v-5.546h.517q-.751 2.772-3.102 4.371-2.35 1.598-5.452 1.598m.752-3.102q3.384 0 5.358-2.303 1.974-2.35 1.974-6.815 0-4.512-1.974-6.815-1.974-2.35-5.358-2.35-3.336 0-5.358 2.35-1.974 2.303-1.974 6.815 0 4.464 1.974 6.815 2.022 2.303 5.358 2.303M680.197 810.423q-3.102 0-5.452-1.457-2.35-1.504-3.666-4.23-1.269-2.726-1.269-6.533 0-3.855 1.269-6.58 1.316-2.727 3.666-4.183 2.35-1.457 5.452-1.457 3.197 0 5.499 1.598 2.35 1.597 3.149 4.324h-.564v-16.497h3.807V810h-3.76v-5.64h.517q-.751 2.82-3.102 4.465-2.35 1.598-5.546 1.598m.799-3.102q3.337 0 5.358-2.303 2.02-2.35 2.021-6.815 0-4.512-2.021-6.815-2.02-2.35-5.358-2.35t-5.358 2.35q-1.974 2.303-1.974 6.815 0 4.464 1.974 6.815 2.02 2.303 5.358 2.303M721.009 810.423q-3.477 0-5.311-1.974-1.833-2.022-1.833-6.063v-13.019h-4.606v-2.961h4.606v-6.439l3.807-1.081v7.52h6.768v2.961h-6.768v12.596q0 2.82.94 4.042.987 1.175 2.914 1.175.894 0 1.598-.141.705-.189 1.269-.423v3.196q-.657.282-1.598.423a8.7 8.7 0 0 1-1.786.188M729.545 810v-34.592h3.807v16.215h-.611q.987-2.773 3.29-4.183 2.35-1.457 5.405-1.457 4.23 0 6.298 2.303 2.068 2.256 2.068 6.862V810h-3.807v-14.617q0-3.291-1.316-4.794-1.27-1.504-4.136-1.504-3.29 0-5.264 2.021-1.927 2.02-1.927 5.311V810zM757.554 810v-23.594h3.807V810zm-.47-28.952v-4.277h4.7v4.277zM777.072 810.423q-2.82 0-5.264-.752-2.443-.8-4.042-2.209l1.316-2.679a12.2 12.2 0 0 0 3.76 2.021q2.069.657 4.277.658 2.82 0 4.23-.987 1.457-1.035 1.457-2.82 0-1.364-.94-2.162-.892-.846-2.961-1.316l-4.371-.893q-3.008-.658-4.512-2.209-1.503-1.599-1.504-4.042 0-2.068 1.081-3.619 1.082-1.599 3.149-2.491 2.069-.94 4.841-.94 2.586 0 4.747.799 2.21.751 3.666 2.209l-1.363 2.632a9 9 0 0 0-3.243-2.021 10 10 0 0 0-3.713-.705q-2.773 0-4.183 1.128-1.362 1.08-1.363 2.867 0 1.362.846 2.256.894.846 2.726 1.269l4.371.893q3.196.705 4.747 2.209 1.598 1.457 1.598 3.948 0 2.115-1.175 3.713-1.175 1.551-3.29 2.397-2.068.846-4.888.846M187.441 497.375q0 5.156-1.406 11.367-1.289 6.21-3.398 12.539a191 191 0 0 1-4.571 12.305q-2.46 5.976-4.57 10.546a683 683 0 0 0-2.93 6.563 221 221 0 0 1-3.75 8.32 196 196 0 0 1-4.57 9.024q-2.343 4.452-4.922 8.086-2.578 3.514-5.273 5.742-2.695 2.343-5.391 2.344-3.75 0-5.39-2.813-1.524-2.695-1.524-6.094 0-3.28 1.055-6.914a65 65 0 0 1 2.812-7.383 101 101 0 0 1 3.75-7.031 336 336 0 0 1 3.867-6.094q-2.343-.585-4.57-2.109-2.226-1.524-3.281-3.633-1.875-4.101-3.867-9.258a165 165 0 0 1-3.633-10.429 141 141 0 0 1-2.578-10.664q-1.055-5.39-1.055-9.844 0-2.11.469-4.57.468-2.579 1.523-4.688 1.173-2.226 2.93-3.633 1.875-1.523 4.57-1.523 3.047 0 5.391 2.344 2.344 2.226 4.101 5.742 1.875 3.516 3.165 7.851a126 126 0 0 1 2.226 8.555 149 149 0 0 1 1.524 7.734q.585 3.516 1.054 5.508.47-1.757 1.524-5.273a325 325 0 0 1 2.695-7.969 196 196 0 0 1 3.633-8.906q2.109-4.57 4.336-8.321 2.343-3.75 4.922-6.093 2.577-2.461 5.273-2.461 1.757 0 2.93 1.289 1.171 1.289 1.758 3.047a14.7 14.7 0 0 1 .937 3.633q.234 1.875.234 3.164M207.832 581.398q-5.976 0-10.43-3.164-4.452-3.164-7.5-8.086-3.046-4.922-4.57-10.898-1.523-6.094-1.523-11.954 0-6.21 1.523-12.773 1.524-6.68 4.688-12.07 3.163-5.508 8.085-8.907 4.923-3.515 11.719-3.515 6.563 0 11.133 3.633 4.688 3.515 7.5 8.906 2.813 5.274 3.984 11.601 1.173 6.329.821 11.954-.353 6.21-1.992 12.539-1.524 6.327-4.571 11.367-3.047 5.039-7.734 8.203-4.688 3.164-11.133 3.164m1.172-52.969q-1.758 0-3.164 1.875-1.29 1.875-2.227 4.571a41 41 0 0 0-1.289 5.742q-.469 2.93-.469 5.156 0 2.812.469 6.094.587 3.281 1.524 6.094.938 2.695 2.226 4.57 1.406 1.758 3.164 1.758 1.875 0 3.164-1.758 1.407-1.758 2.227-4.453t1.172-5.86q.351-3.28.351-6.093 0-2.579-.468-5.625-.47-3.165-1.407-5.86-.82-2.695-2.226-4.453-1.29-1.758-3.047-1.758M290.566 544.484q0 6.446-1.289 12.773-1.288 6.328-4.336 11.368-3.046 4.922-8.203 7.968-5.039 3.048-12.656 3.047-7.5 0-12.539-2.929-5.039-3.048-8.086-7.969-2.93-4.921-4.219-11.133a68 68 0 0 1-1.172-12.656q0-7.031 1.641-13.946.351-1.875 1.289-5.156a48 48 0 0 1 2.578-6.562q1.641-3.282 3.633-5.625 2.11-2.344 4.57-2.344 2.345 0 3.75 1.289 1.407 1.289 2.227 3.281.82 1.875 1.055 4.102.234 2.109.234 3.867 0 2.696-.469 5.273a118 118 0 0 1-.82 5.157l-.938 7.031a71 71 0 0 0-.351 7.031q0 1.758.117 3.985.234 2.109.938 4.101.702 1.992 1.992 3.399 1.288 1.289 3.633 1.289 3.046 0 4.804-1.641 1.875-1.64 2.696-4.102.937-2.46 1.171-5.273a62 62 0 0 0 .235-5.156q0-5.157-.703-10.078a399 399 0 0 1-1.289-10.196q-.118-.585-.118-1.64 0-1.758.586-3.516a11 11 0 0 1 1.641-3.164 7.8 7.8 0 0 1 2.578-2.227q1.524-.937 3.399-.937 2.578 0 4.57 1.875 1.992 1.758 3.281 4.687 1.407 2.813 2.227 6.446a56 56 0 0 1 1.406 7.031q.586 3.399.703 6.445.234 3.048.234 4.805M384.316 579.523q-3.75 0-6.796-3.984-2.93-3.985-5.157-9.493a99 99 0 0 1-3.75-11.484q-1.406-5.859-2.109-9.726-.937 2.343-2.578 5.742a89 89 0 0 1-3.633 7.148 155 155 0 0 1-4.336 7.617q-2.343 3.75-4.922 6.797-2.46 3.047-5.039 4.922-2.461 1.875-4.805 1.875-3.163 0-5.625-3.047-2.343-3.046-3.984-7.969-1.64-4.922-2.812-10.898a157 157 0 0 1-1.641-11.953 214 214 0 0 1-.82-11.133q-.235-5.156-.235-8.32 0-2.93.235-5.625.351-2.696 1.171-4.805.938-2.11 2.579-3.281 1.757-1.29 4.57-1.289 2.695 0 4.57 1.992 1.992 1.992 3.281 5.273 1.29 3.165 2.11 7.266a90 90 0 0 1 1.289 8.203q.469 4.102.586 8.086.234 3.867.351 6.68.703-2.461 1.993-5.977a332 332 0 0 1 2.812-7.617 146 146 0 0 1 3.281-8.086q1.875-3.984 3.633-7.148 1.875-3.164 3.633-5.157t3.398-1.992h.118q2.109 0 4.101 1.992 1.992 1.993 3.867 5.157t3.516 7.265a128 128 0 0 1 3.047 8.203q1.406 4.102 2.461 8.086a334 334 0 0 1 1.758 6.68q.117-3.399.351-7.617.234-4.336.82-8.672a95 95 0 0 1 1.758-8.438q1.173-4.101 2.813-7.265 1.641-3.281 3.984-5.156 2.462-1.993 5.625-1.993 3.281 0 4.805 2.344 1.64 2.227 1.64 5.508 0 3.516-.937 9.375-.82 5.86-2.344 12.773a201 201 0 0 1-3.633 13.829q-1.992 6.914-4.453 12.539-2.46 5.625-5.156 9.257-2.696 3.516-5.391 3.516M431.426 496.203q0 1.64-.938 2.929-.82 1.29-2.226 2.344a14 14 0 0 1-3.047 1.524q-1.641.468-3.047.468-2.344 0-4.102-1.172-1.757-1.172-1.757-3.632 0-1.758.82-3.047.938-1.407 2.226-2.227a9.3 9.3 0 0 1 2.93-1.406 11.5 11.5 0 0 1 3.164-.469q2.227 0 4.102 1.055t1.875 3.633m.937 39.843v3.516q0 1.758-.117 3.399-.117 1.992-.117 5.39 0 3.281-.234 7.149a93 93 0 0 1-.821 7.851q-.468 3.984-1.64 7.266-1.172 3.28-3.164 5.39-1.875 1.993-4.805 2.11-2.228.117-3.75-1.758-1.524-1.875-2.578-4.805-.937-3.047-1.407-6.679-.468-3.75-.703-7.149a98 98 0 0 1-.234-6.445v-9.61q0-3.514.234-7.5.235-3.984.821-8.085.702-4.103 1.875-7.5 1.289-3.399 3.281-5.508t5.039-2.11q3.164 0 4.805 3.164t2.461 7.383a52 52 0 0 1 .937 8.438q.117 4.101.117 6.093M462.598 506.984q0 6.329-.586 12.773a173 173 0 0 0-.469 12.774q0 8.32.469 16.64.586 8.32.586 16.758a56 56 0 0 1-.235 4.805q-.234 2.578-1.172 4.805a9 9 0 0 1-2.578 3.75q-1.758 1.523-4.687 1.523-2.813 0-4.922-2.812-1.992-2.696-3.399-6.914-1.288-4.336-2.226-9.61a173 173 0 0 1-1.289-10.195q-.352-5.04-.586-9.141-.117-4.219-.117-6.211 0-2.226.117-6.445.235-4.219.82-9.141.587-4.921 1.524-9.961 1.054-5.156 2.695-9.257 1.641-4.22 3.867-6.797 2.344-2.696 5.508-2.696 2.578 0 3.867 1.758 1.407 1.64 1.992 4.102.586 2.343.703 5.039a99 99 0 0 1 .118 4.453M493.418 506.984q0 6.329-.586 12.773a173 173 0 0 0-.469 12.774q0 8.32.469 16.64.586 8.32.586 16.758 0 2.11-.234 4.805-.235 2.578-1.172 4.805a9 9 0 0 1-2.578 3.75q-1.758 1.523-4.688 1.523-2.813 0-4.922-2.812-1.992-2.696-3.398-6.914-1.29-4.336-2.227-9.61a174 174 0 0 1-1.289-10.195q-.351-5.04-.586-9.141-.117-4.219-.117-6.211 0-2.226.117-6.445.234-4.219.821-9.141.585-4.921 1.523-9.961 1.055-5.156 2.695-9.257 1.641-4.22 3.867-6.797 2.344-2.696 5.508-2.696 2.578 0 3.867 1.758 1.407 1.64 1.993 4.102.586 2.343.703 5.039.117 2.578.117 4.453M571.23 534.171q-1.64.118-2.812-.234l-2.344-.937a24 24 0 0 0-2.109-.821q-1.055-.468-2.344-.351-2.344.117-4.219 1.289-1.758 1.172-3.281 2.929a20.2 20.2 0 0 0-2.461 3.985 23.4 23.4 0 0 0-1.64 4.219q-.352 1.405-.586 4.336a145 145 0 0 0-.118 6.093 188 188 0 0 0-.117 6.446q0 3.046-.234 4.804-.118 1.875-.586 4.453a19.4 19.4 0 0 1-1.524 4.688q-.937 2.226-2.578 3.75t-4.218 1.523q-1.993 0-3.516-1.172-1.407-1.171-2.461-3.046-.937-1.993-1.641-4.571a57 57 0 0 1-.937-5.273q-.351-2.812-.586-5.625a895 895 0 0 0-.234-5.274v-4.687a64 64 0 0 0 .117-3.399 145 145 0 0 0-.469-8.203 150 150 0 0 1-.234-8.32q0-2.579.234-5.742.234-3.165 1.289-5.86 1.055-2.812 3.047-4.687 2.109-1.875 5.742-1.875 1.992 0 3.399 1.289 1.406 1.289 2.226 3.164a17.2 17.2 0 0 1 1.406 3.984q.47 2.11.586 3.868 2.813-4.57 6.328-7.383 3.516-2.93 9.141-3.164a18.6 18.6 0 0 1 5.508.586q2.813.585 5.039 2.109a10.8 10.8 0 0 1 3.75 3.75q1.523 2.345 1.641 5.508.234 3.75-2.227 5.742t-5.977 2.109M630.293 557.14q0 3.985-2.578 7.852-2.461 3.75-6.328 6.797a36.9 36.9 0 0 1-8.086 4.804q-4.336 1.758-7.969 1.758-6.212 0-11.133-3.047a29.1 29.1 0 0 1-8.086-7.968q-3.28-4.805-5.039-10.547-1.64-5.86-1.64-11.368 0-5.859 1.64-12.539 1.641-6.68 4.922-12.304 3.398-5.625 8.438-9.375 5.156-3.75 12.187-3.75 3.984 0 7.617 1.406 3.634 1.289 6.328 3.75 2.696 2.462 4.336 5.859 1.641 3.399 1.641 7.618 0 5.507-2.344 10.312t-6.211 8.32q-3.867 3.516-8.906 5.743-5.039 2.109-10.312 2.343.468 3.4 2.695 4.922 2.343 1.524 5.508 1.524 2.344 0 4.57-1.172a49 49 0 0 0 4.336-2.578 53 53 0 0 1 4.101-2.696q2.11-1.172 4.219-1.172 2.344 0 4.219 1.524 1.875 1.523 1.875 3.984m-18.984-28.711q0-1.523-.821-3.164-.82-1.64-2.578-1.64-2.578 0-4.336 1.406-1.758 1.289-2.929 3.398a19.6 19.6 0 0 0-1.875 4.336q-.586 2.344-.704 4.336a88 88 0 0 0 3.868-.937 23.7 23.7 0 0 0 4.336-1.524q2.11-1.054 3.515-2.578 1.524-1.523 1.524-3.633M684.785 561.476q0 2.109-.234 5.508a32 32 0 0 1-.938 6.68q-.82 3.164-2.578 5.507-1.757 2.344-4.922 2.344-4.335 0-6.679-2.812t-2.227-7.032q-3.75 3.282-8.555 5.157-4.687 1.875-9.609 1.875-3.399 0-6.445-1.641a20.1 20.1 0 0 1-5.391-4.219 21.4 21.4 0 0 1-3.75-5.742q-1.406-3.281-1.406-6.445 0-5.625 3.398-9.844 3.516-4.218 8.555-7.148a48.5 48.5 0 0 1 10.664-4.805q5.742-1.758 10.195-2.344v-1.054q.117-.47.117-1.055 0-3.633-1.992-5.86-1.992-2.226-5.625-2.226-2.93 0-5.039 1.055a25 25 0 0 0-3.984 2.226q-1.875 1.172-3.75 2.227-1.875.937-4.219.937-2.578 0-4.453-1.64-1.758-1.64-1.758-4.219 0-3.867 2.227-7.031a20.6 20.6 0 0 1 5.742-5.274 29.5 29.5 0 0 1 7.5-3.398q4.101-1.29 7.5-1.289 3.164 0 6.328.82a20.7 20.7 0 0 1 5.977 2.344 20.1 20.1 0 0 1 5.039 3.867q2.343 2.226 3.75 5.273 2.11 4.337 3.398 9.258a80 80 0 0 1 1.992 9.961q.704 5.039.938 10.195.234 5.04.234 9.844m-18.75-3.75-.351-7.969h-.469a1.04 1.04 0 0 0-.469-.117q-1.524 0-3.867.821-2.226.702-4.336 2.109-2.109 1.289-3.633 2.93-1.406 1.64-1.406 3.398 0 1.64 1.172 2.227 1.171.586 2.695.586 2.578 0 5.508-1.29 2.93-1.405 5.156-2.695M742.324 500.89q0 8.554-.703 16.992a245 245 0 0 0-.586 16.993q0 6.913.352 13.711.468 6.796.468 13.71 0 1.875-.117 4.571a22 22 0 0 1-.82 5.039q-.587 2.46-2.109 4.219-1.407 1.757-4.102 1.757-3.516 0-5.859-2.578-2.227-2.696-2.813-5.976-2.227 4.218-6.445 7.148-4.22 2.93-9.141 2.93-5.273 0-9.14-3.633-3.75-3.633-6.329-8.789a52 52 0 0 1-3.75-10.781q-1.171-5.625-1.171-9.727 0-2.93.351-6.68.352-3.75 1.172-7.617a60 60 0 0 1 2.344-7.5q1.406-3.75 3.515-6.679 2.227-2.93 5.157-4.688 3.047-1.758 6.914-1.758 4.218 0 8.086 2.461 3.867 2.461 5.859 6.094l1.055-18.633q.117-2.226.351-5.156.235-3.046.938-5.742.82-2.696 2.461-4.571 1.64-1.875 4.804-1.875 3.399 0 5.274 1.641 1.875 1.64 2.695 4.219.938 2.46 1.055 5.39.234 2.93.234 5.508m-19.101 52.031q0-2.694-.118-5.273a59 59 0 0 1 0-5.273 63 63 0 0 0-1.64-3.282 14.6 14.6 0 0 0-2.344-3.398 11.9 11.9 0 0 0-2.93-2.695q-1.64-1.055-3.515-1.055-2.109 0-3.399 1.289-1.289 1.289-1.875 3.164-.586 1.758-.82 3.867a67 67 0 0 0-.117 3.633q0 1.407.234 4.219a47 47 0 0 0 .821 5.508q.702 2.812 1.875 4.921 1.171 2.11 3.164 2.11a8.4 8.4 0 0 0 3.046-.586 16.6 16.6 0 0 0 2.813-1.641 24 24 0 0 0 2.578-2.226 56 56 0 0 0 2.227-2.344zM805.605 582.218q-8.32 0-13.007-2.226-4.57-2.11-6.914-6.094-2.227-3.984-2.696-9.609-.468-5.625-.468-12.539 0-5.508.351-11.016.351-5.625 1.055-11.953-1.64 0-2.578.117h-1.524q-3.75 0-6.445-1.641-2.813-1.64-2.813-5.039 0-2.109 1.641-3.75 1.524-1.64 3.984-2.812a28 28 0 0 1 5.274-1.875q2.93-.703 5.508-.938 0-3.28.468-7.265.47-3.985 1.641-7.383 1.289-3.516 3.398-5.859t5.391-2.344q1.875 0 3.281 1.172 1.524 1.054 2.461 2.812.938 1.641 1.407 3.75.468 2.11.468 4.102 0 2.344-.351 4.804-.352 2.461-1.289 6.094 1.992-.234 2.695-.234a8 8 0 0 1 1.289-.117q1.992 0 4.102.351 2.226.352 3.984 1.172 1.875.82 3.047 2.227 1.172 1.289 1.172 3.164 0 2.109-1.758 3.75-1.64 1.64-4.219 2.812a30.5 30.5 0 0 1-5.508 1.875 52 52 0 0 1-5.507.82 150 150 0 0 0-1.055 8.907 304 304 0 0 1-.586 8.086 641 641 0 0 0-.469 4.101 70 70 0 0 0-.117 4.102q0 1.523.117 3.633.118 1.992.82 3.867a8.46 8.46 0 0 0 2.227 3.281q1.524 1.289 4.219 1.289 1.64 0 3.398-.234a18 18 0 0 1 3.516-.352q3.046 0 4.336 2.11 1.406 2.11 1.406 5.39 0 2.461-1.523 4.336-1.407 1.758-3.633 2.813-2.227 1.172-5.039 1.757-2.696.586-5.157.586M876.504 547.648q0 1.992-.117 5.977 0 3.867-.352 8.203-.234 4.219-.703 8.086-.468 3.75-1.172 5.507-.937 2.227-2.461 3.868-1.523 1.64-4.101 1.64-3.985 0-5.743-3.164-1.757-3.163-2.343-7.851t-.469-10.196-.117-10.195-1.289-7.852q-1.054-3.164-3.867-3.164-3.868 0-5.977 1.289-1.992 1.172-2.93 3.165-.82 1.992-1.054 4.57a146 146 0 0 1-.352 5.39q-.234 2.696-.352 7.266a50 50 0 0 1-1.054 9.024q-.938 4.452-3.164 7.734-2.11 3.164-6.328 3.164-2.578 0-4.219-1.992-1.524-1.992-2.461-5.156-.938-3.165-1.406-7.032a128 128 0 0 1-.469-7.5v-6.797q.117-3.046.117-4.57 0-2.344.117-7.734.235-5.39.821-11.953.585-6.68 1.523-13.711t2.461-12.774q1.524-5.859 3.633-9.492 2.226-3.633 5.156-3.516 1.875.118 3.164 1.641 1.407 1.524 2.227 3.984.937 2.344 1.523 5.157t.82 5.625a39 39 0 0 1 .352 5.039 78 78 0 0 1 .117 3.633 159 159 0 0 1-.469 12.187q2.695-3.633 7.149-5.977 4.57-2.343 9.14-2.343 5.86 0 8.79 3.281 3.046 3.164 4.335 7.969 1.29 4.687 1.407 10.078.117 5.273.117 9.492M904.16 496.203q0 1.64-.937 2.929-.82 1.29-2.227 2.344a14 14 0 0 1-3.047 1.524q-1.64.468-3.047.468-2.343 0-4.101-1.172t-1.758-3.632q0-1.758.82-3.047.937-1.407 2.227-2.227a9.2 9.2 0 0 1 2.93-1.406 11.5 11.5 0 0 1 3.164-.469q2.226 0 4.101 1.055t1.875 3.633m.938 39.843v3.516a47 47 0 0 1-.118 3.399q-.117 1.992-.117 5.39 0 3.281-.234 7.149a93 93 0 0 1-.82 7.851q-.47 3.984-1.641 7.266-1.172 3.28-3.164 5.39-1.875 1.993-4.805 2.11-2.226.117-3.75-1.758-1.523-1.875-2.578-4.805-.938-3.047-1.406-6.679-.47-3.75-.703-7.149a97 97 0 0 1-.235-6.445v-9.61q0-3.514.235-7.5.234-3.984.82-8.085.704-4.103 1.875-7.5 1.289-3.399 3.281-5.508t5.039-2.11q3.164 0 4.805 3.164t2.461 7.383a51.6 51.6 0 0 1 .937 8.438q.118 4.101.118 6.093M947.754 513.546q0 3.399-2.344 5.04-2.226 1.64-5.039 3.164a25.6 25.6 0 0 0-5.156 3.398q-2.227 1.992-2.227 5.977 0 2.11.938 3.632a16.7 16.7 0 0 0 2.461 2.813q1.523 1.171 3.281 2.461a18.7 18.7 0 0 1 3.164 2.93q1.524 1.64 2.461 3.984 1.055 2.343 1.055 5.742 0 4.922-2.578 9.727-2.462 4.687-6.446 8.437a32 32 0 0 1-8.789 5.86q-4.921 2.226-9.726 2.226a23 23 0 0 1-3.985-.351q-1.992-.235-3.633-1.055a7.8 7.8 0 0 1-2.578-2.227q-1.054-1.522-1.054-3.867 0-3.28 1.289-5.039a9.1 9.1 0 0 1 3.281-2.93 19.7 19.7 0 0 1 4.219-1.64 31.5 31.5 0 0 0 4.336-1.407q1.992-.937 3.281-2.343 1.289-1.407 1.289-3.985 0-2.46-1.992-5.039a106 106 0 0 0-4.219-5.625 62 62 0 0 1-4.336-6.445q-1.875-3.399-1.875-7.5 0-5.038 1.992-9.258 2.109-4.335 5.508-7.5a26.2 26.2 0 0 1 7.969-4.922q4.454-1.875 9.375-1.875 1.875 0 3.633.352 1.874.351 3.281 1.289 1.406.82 2.226 2.344.938 1.406.938 3.632M488.613 639.921q0 2.227-.468 4.336-.353 1.993-1.407 3.516-1.054 1.524-2.812 2.461-1.758.82-4.336.82-2.93 0-4.336-1.172t-1.992-2.812a14.5 14.5 0 0 1-.469-3.75q0-1.992-.234-3.633-.118-1.758-.821-2.93-.703-1.171-2.578-1.171-1.758 0-2.93 2.695-1.055 2.695-1.757 6.211a54 54 0 0 0-.938 6.914q-.234 3.281-.234 4.453a43 43 0 0 1 2.929-.352 18.6 18.6 0 0 1 3.047-.234q1.641 0 3.399.352 1.757.351 3.281 1.171a5.85 5.85 0 0 1 2.461 2.11q.937 1.289.937 3.281 0 2.109-1.875 3.75-1.757 1.64-4.335 2.813a38 38 0 0 1-5.04 1.757q-2.577.704-4.101.938.351 8.086.351 16.289 0 7.734-.351 15.234-.235 3.633-2.578 5.977-2.227 2.343-5.86 2.344-1.992 0-3.398-.821a6.4 6.4 0 0 1-2.344-1.992 11.5 11.5 0 0 1-1.523-2.93 16.2 16.2 0 0 1-.586-3.398 425 425 0 0 1-.938-14.062 219 219 0 0 1-.234-14.297 12 12 0 0 1-1.641.117h-1.523q-1.406 0-3.399-.352a17 17 0 0 1-3.867-1.172 12.8 12.8 0 0 1-3.047-2.226q-1.289-1.29-1.289-3.281 0-2.578 1.758-4.336 1.64-1.758 3.985-2.813a20 20 0 0 1 5.039-1.64 88 88 0 0 1 4.687-.704v-1.875q0-5.742 1.055-12.304t3.75-12.188q2.696-5.625 7.383-9.258 4.687-3.75 11.953-3.75 4.57 0 7.851 1.993a15.8 15.8 0 0 1 5.391 5.039q2.11 3.047 3.047 7.031.937 3.867.937 7.851M503.613 628.203q0 1.64-.937 2.929-.82 1.29-2.227 2.344a14 14 0 0 1-3.047 1.524q-1.64.468-3.047.468-2.343 0-4.101-1.172t-1.758-3.632q0-1.758.82-3.047.938-1.407 2.227-2.227a9.2 9.2 0 0 1 2.93-1.406 11.5 11.5 0 0 1 3.164-.469q2.226 0 4.101 1.055t1.875 3.633m.938 39.843v3.516q0 1.758-.117 3.399-.118 1.992-.118 5.39 0 3.281-.234 7.149a93 93 0 0 1-.82 7.851q-.47 3.984-1.641 7.266-1.172 3.28-3.164 5.39-1.875 1.993-4.805 2.11-2.226.117-3.75-1.758-1.523-1.875-2.578-4.805-.938-3.047-1.406-6.679-.47-3.75-.703-7.149a98 98 0 0 1-.235-6.445v-9.61q0-3.514.235-7.5.234-3.984.82-8.085.704-4.103 1.875-7.5 1.29-3.399 3.281-5.508 1.993-2.11 5.039-2.11 3.164 0 4.805 3.164t2.461 7.383.938 8.438q.117 4.101.117 6.093M553.535 666.171q-1.64.118-2.812-.234l-2.344-.937a24 24 0 0 0-2.109-.821q-1.056-.468-2.344-.351-2.344.117-4.219 1.289-1.758 1.172-3.281 2.929a20 20 0 0 0-2.461 3.985 23.5 23.5 0 0 0-1.641 4.219q-.35 1.405-.586 4.336a147 147 0 0 0-.117 6.093 188 188 0 0 0-.117 6.446q0 3.046-.234 4.804-.118 1.875-.586 4.453a19.4 19.4 0 0 1-1.524 4.688q-.937 2.226-2.578 3.75-1.64 1.523-4.219 1.523-1.992 0-3.515-1.172-1.407-1.171-2.461-3.046-.937-1.993-1.641-4.571a57 57 0 0 1-.937-5.273q-.352-2.812-.586-5.625a891 891 0 0 0-.235-5.274v-4.687a64 64 0 0 0 .117-3.399 145 145 0 0 0-.468-8.203 149 149 0 0 1-.235-8.32q0-2.579.235-5.742.234-3.165 1.289-5.86 1.055-2.812 3.047-4.687 2.109-1.875 5.742-1.875 1.992 0 3.398 1.289t2.227 3.164a17.2 17.2 0 0 1 1.406 3.984q.47 2.11.586 3.868 2.812-4.57 6.328-7.383 3.516-2.93 9.141-3.164a18.6 18.6 0 0 1 5.508.586q2.812.585 5.039 2.109a10.8 10.8 0 0 1 3.75 3.75q1.523 2.345 1.64 5.508.235 3.75-2.226 5.742t-5.977 2.109M597.832 645.546q0 3.399-2.344 5.04-2.226 1.64-5.039 3.164a25.6 25.6 0 0 0-5.156 3.398q-2.226 1.992-2.227 5.977 0 2.11.938 3.632a16.7 16.7 0 0 0 2.461 2.813q1.523 1.171 3.281 2.461a18.7 18.7 0 0 1 3.164 2.93q1.524 1.64 2.461 3.984 1.055 2.343 1.055 5.742 0 4.922-2.578 9.727-2.461 4.687-6.446 8.437a32 32 0 0 1-8.789 5.86q-4.922 2.226-9.726 2.226-1.993 0-3.985-.351-1.992-.235-3.632-1.055a7.8 7.8 0 0 1-2.579-2.227q-1.054-1.522-1.054-3.867 0-3.28 1.289-5.039a9.1 9.1 0 0 1 3.281-2.93 19.7 19.7 0 0 1 4.219-1.64 31.4 31.4 0 0 0 4.336-1.407q1.992-.937 3.281-2.343 1.289-1.407 1.289-3.985 0-2.46-1.992-5.039a105 105 0 0 0-4.219-5.625 62 62 0 0 1-4.336-6.445q-1.875-3.399-1.875-7.5 0-5.038 1.992-9.258 2.11-4.335 5.508-7.5a26.2 26.2 0 0 1 7.969-4.922q4.454-1.875 9.375-1.875 1.875 0 3.633.352 1.874.351 3.281 1.289 1.406.82 2.227 2.344.937 1.406.937 3.632"/><path fill="#000" d="M629.824 714.218q-8.32 0-13.008-2.226-4.57-2.11-6.914-6.094-2.226-3.984-2.695-9.609t-.469-12.539q0-5.508.352-11.016.351-5.625 1.055-11.953-1.641 0-2.579.117h-1.523q-3.75 0-6.445-1.641-2.813-1.64-2.813-5.039 0-2.109 1.641-3.75 1.523-1.64 3.984-2.812a28 28 0 0 1 5.274-1.875q2.93-.703 5.507-.938 0-3.28.469-7.265.47-3.985 1.641-7.383 1.289-3.516 3.398-5.859t5.391-2.344q1.875 0 3.281 1.172 1.524 1.054 2.461 2.812.938 1.641 1.406 3.75.47 2.11.469 4.102 0 2.344-.352 4.804-.351 2.461-1.289 6.094 1.993-.234 2.696-.234a8 8 0 0 1 1.289-.117q1.992 0 4.101.351 2.227.352 3.985 1.172 1.874.82 3.047 2.227 1.171 1.289 1.171 3.164 0 2.109-1.757 3.75-1.64 1.64-4.219 2.812a30.5 30.5 0 0 1-5.508 1.875 52 52 0 0 1-5.508.82q-.703 4.805-1.054 8.907a308 308 0 0 1-.586 8.086 576 576 0 0 0-.469 4.101 70 70 0 0 0-.117 4.102q0 1.523.117 3.633a13.1 13.1 0 0 0 .82 3.867 8.46 8.46 0 0 0 2.227 3.281q1.523 1.289 4.219 1.289 1.64 0 3.398-.234a18 18 0 0 1 3.516-.352q3.046 0 4.336 2.11 1.406 2.11 1.406 5.39 0 2.461-1.524 4.336-1.406 1.758-3.632 2.813-2.227 1.172-5.04 1.757-2.694.586-5.156.586"/></svg>