<svg width="1080" height="1350" viewBox="0 0 1080 1350" fill="none" xmlns="http://www.w3.org/2000/svg">
<path d="M308.809 420.246H312.578L322.441 448H319.082L316.27 439.934H304.824L302.012 448H298.945L308.809 420.246ZM310.547 423.488L305.82 437.023H315.254L310.547 423.488ZM326.953 428.703H329.199L329.902 430.344C332.389 428.99 334.655 428.312 336.699 428.312C337.754 428.312 338.672 428.482 339.453 428.82C340.234 429.146 340.84 429.562 341.27 430.07C341.699 430.565 342.038 431.197 342.285 431.965C342.546 432.72 342.708 433.443 342.773 434.133C342.852 434.823 342.891 435.611 342.891 436.496V448H339.688V436.281C339.688 432.896 338.229 431.203 335.312 431.203C333.802 431.203 332.083 431.704 330.156 432.707V448H326.953V428.703ZM348.945 438.684C348.945 437.017 349.18 435.52 349.648 434.191C350.117 432.863 350.762 431.776 351.582 430.93C352.402 430.083 353.359 429.439 354.453 428.996C355.56 428.54 356.751 428.312 358.027 428.312C359.564 428.312 361.12 428.658 362.695 429.348V418.488H365.898V448H363.672L363.145 446.789C361.335 447.857 359.447 448.391 357.48 448.391C356.673 448.391 355.885 448.293 355.117 448.098C354.349 447.902 353.587 447.564 352.832 447.082C352.077 446.6 351.413 446.001 350.84 445.285C350.28 444.556 349.824 443.625 349.473 442.492C349.121 441.359 348.945 440.09 348.945 438.684ZM358.535 445.754C359.954 445.754 361.341 445.389 362.695 444.66V431.77C361.302 431.145 359.902 430.832 358.496 430.832C357.897 430.832 357.318 430.897 356.758 431.027C356.198 431.158 355.625 431.392 355.039 431.73C354.453 432.069 353.945 432.505 353.516 433.039C353.099 433.573 352.754 434.283 352.48 435.168C352.207 436.04 352.07 437.043 352.07 438.176C352.07 439.348 352.214 440.396 352.5 441.32C352.786 442.232 353.151 442.961 353.594 443.508C354.036 444.055 354.557 444.504 355.156 444.855C355.755 445.207 356.328 445.448 356.875 445.578C357.422 445.695 357.975 445.754 358.535 445.754ZM381.523 428.703H385.039L391.211 445.07L396.953 428.703H400.273L389.141 458.371H385.723L389.59 448.957L381.523 428.703ZM413.184 428.332C415.853 428.332 418.047 429.185 419.766 430.891C421.497 432.596 422.363 434.953 422.363 437.961C422.363 441.151 421.478 443.69 419.707 445.578C417.949 447.453 415.671 448.391 412.871 448.391C410.202 448.391 408.021 447.512 406.328 445.754C404.635 443.983 403.789 441.587 403.789 438.566C403.789 435.454 404.648 432.974 406.367 431.125C408.099 429.263 410.371 428.332 413.184 428.332ZM412.91 431.066C411.309 431.066 409.909 431.685 408.711 432.922C407.513 434.159 406.914 435.858 406.914 438.02C406.914 440.168 407.5 441.978 408.672 443.449C409.844 444.921 411.361 445.656 413.223 445.656C414.941 445.656 416.374 445.005 417.52 443.703C418.665 442.401 419.238 440.702 419.238 438.605C419.238 437.408 419.049 436.32 418.672 435.344C418.307 434.367 417.819 433.573 417.207 432.961C416.608 432.349 415.938 431.88 415.195 431.555C414.453 431.229 413.691 431.066 412.91 431.066ZM441.191 428.703H444.395V448H442.148L441.465 446.379C439.004 447.72 436.732 448.391 434.648 448.391C433.594 448.391 432.676 448.228 431.895 447.902C431.113 447.564 430.508 447.147 430.078 446.652C429.648 446.158 429.303 445.533 429.043 444.777C428.783 444.009 428.613 443.28 428.535 442.59C428.47 441.9 428.438 441.112 428.438 440.227V428.703H431.641V440.461C431.641 443.833 433.105 445.52 436.035 445.52C437.546 445.52 439.264 445.018 441.191 444.016V428.703ZM460.039 428.703H463.457L468.691 444.895L473.652 428.703H476.797L481.953 444.875L487.188 428.703H490.605L483.555 448H480.332L475.195 432.355L470.117 448H466.895L460.039 428.703ZM495.02 420.246H498.809V423.938H495.02V420.246ZM495.312 428.703H498.516V448H495.312V428.703ZM505.938 418.488H509.141V448H505.938V418.488ZM516.953 418.488H520.156V448H516.953V418.488ZM541.367 430.148C542.995 428.938 544.792 428.332 546.758 428.332C548.112 428.332 549.342 428.586 550.449 429.094L549.473 431.652C548.457 431.262 547.402 431.066 546.309 431.066C544.681 431.066 543.151 431.516 541.719 432.414V448H538.516V428.703H540.762L541.367 430.148ZM562.48 428.332C563.418 428.332 564.258 428.449 565 428.684C565.755 428.905 566.38 429.191 566.875 429.543C567.37 429.895 567.793 430.357 568.145 430.93C568.509 431.49 568.783 432.036 568.965 432.57C569.16 433.091 569.31 433.723 569.414 434.465C569.518 435.207 569.583 435.852 569.609 436.398C569.635 436.945 569.648 437.59 569.648 438.332V439.855H556.387C556.387 440.559 556.543 441.262 556.855 441.965C557.181 442.655 557.63 443.293 558.203 443.879C558.789 444.452 559.551 444.921 560.488 445.285C561.439 445.65 562.487 445.832 563.633 445.832C564.987 445.832 566.452 445.598 568.027 445.129L568.594 447.316C566.497 448.033 564.44 448.391 562.422 448.391C561.003 448.391 559.74 448.202 558.633 447.824C557.539 447.447 556.654 446.958 555.977 446.359C555.312 445.747 554.766 445.018 554.336 444.172C553.906 443.326 553.607 442.486 553.438 441.652C553.281 440.806 553.203 439.914 553.203 438.977C553.203 437.531 553.379 436.21 553.73 435.012C554.082 433.814 554.557 432.811 555.156 432.004C555.755 431.184 556.452 430.493 557.246 429.934C558.053 429.374 558.893 428.97 559.766 428.723C560.651 428.462 561.556 428.332 562.48 428.332ZM561.797 431.105C560.651 431.105 559.661 431.424 558.828 432.062C558.008 432.688 557.409 433.469 557.031 434.406C556.654 435.344 556.465 436.353 556.465 437.434H566.543C566.543 433.215 564.961 431.105 561.797 431.105ZM582.09 428.332C583.522 428.332 584.733 428.501 585.723 428.84C586.725 429.165 587.493 429.647 588.027 430.285C588.574 430.923 588.965 431.633 589.199 432.414C589.434 433.195 589.551 434.094 589.551 435.109V448H587.285L586.543 446.242C584.967 447.674 583.158 448.391 581.113 448.391C579.29 448.391 577.747 447.844 576.484 446.75C575.221 445.643 574.59 444.354 574.59 442.883C574.59 442.102 574.733 441.398 575.02 440.773C575.306 440.148 575.716 439.628 576.25 439.211C576.797 438.794 577.415 438.443 578.105 438.156C578.796 437.857 579.596 437.629 580.508 437.473C581.432 437.316 582.357 437.206 583.281 437.141C584.206 437.076 585.221 437.043 586.328 437.043V435.52C586.328 435.077 586.309 434.693 586.27 434.367C586.243 434.042 586.139 433.651 585.957 433.195C585.775 432.74 585.527 432.368 585.215 432.082C584.902 431.783 584.434 431.529 583.809 431.32C583.184 431.099 582.441 430.988 581.582 430.988C580.254 430.988 578.535 431.281 576.426 431.867L575.82 429.523C577.956 428.729 580.046 428.332 582.09 428.332ZM586.328 439.465H585.137C584.395 439.465 583.75 439.478 583.203 439.504C582.656 439.53 582.012 439.608 581.27 439.738C580.54 439.855 579.941 440.025 579.473 440.246C579.004 440.467 578.6 440.793 578.262 441.223C577.936 441.639 577.773 442.141 577.773 442.727C577.773 443.547 578.184 444.276 579.004 444.914C579.837 445.552 580.827 445.871 581.973 445.871C583.652 445.871 585.104 445.214 586.328 443.898V439.465ZM595.625 438.684C595.625 437.017 595.859 435.52 596.328 434.191C596.797 432.863 597.441 431.776 598.262 430.93C599.082 430.083 600.039 429.439 601.133 428.996C602.24 428.54 603.431 428.312 604.707 428.312C606.243 428.312 607.799 428.658 609.375 429.348V418.488H612.578V448H610.352L609.824 446.789C608.014 447.857 606.126 448.391 604.16 448.391C603.353 448.391 602.565 448.293 601.797 448.098C601.029 447.902 600.267 447.564 599.512 447.082C598.757 446.6 598.092 446.001 597.52 445.285C596.96 444.556 596.504 443.625 596.152 442.492C595.801 441.359 595.625 440.09 595.625 438.684ZM605.215 445.754C606.634 445.754 608.021 445.389 609.375 444.66V431.77C607.982 431.145 606.582 430.832 605.176 430.832C604.577 430.832 603.997 430.897 603.438 431.027C602.878 431.158 602.305 431.392 601.719 431.73C601.133 432.069 600.625 432.505 600.195 433.039C599.779 433.573 599.434 434.283 599.16 435.168C598.887 436.04 598.75 437.043 598.75 438.176C598.75 439.348 598.893 440.396 599.18 441.32C599.466 442.232 599.831 442.961 600.273 443.508C600.716 444.055 601.237 444.504 601.836 444.855C602.435 445.207 603.008 445.448 603.555 445.578C604.102 445.695 604.655 445.754 605.215 445.754ZM640.996 447.668C639.108 448.15 637.637 448.391 636.582 448.391C635.527 448.391 634.635 448.221 633.906 447.883C633.177 447.544 632.624 447.062 632.246 446.438C631.868 445.812 631.595 445.142 631.426 444.426C631.27 443.697 631.191 442.863 631.191 441.926V431.223H628.594V428.703H631.191V423.176H634.395V428.703H640.273V431.223H634.395V441.887C634.395 444.556 635.449 445.891 637.559 445.891C637.936 445.891 638.932 445.754 640.547 445.48L640.996 447.668ZM654.453 431.203C652.93 431.203 651.211 431.704 649.297 432.707V448H646.094V418.488H649.297V430.168C651.576 428.957 653.711 428.352 655.703 428.352C656.562 428.352 657.331 428.462 658.008 428.684C658.698 428.905 659.264 429.185 659.707 429.523C660.15 429.849 660.527 430.279 660.84 430.812C661.165 431.333 661.406 431.828 661.562 432.297C661.732 432.753 661.855 433.299 661.934 433.938C662.025 434.576 662.077 435.096 662.09 435.5C662.116 435.904 662.129 436.379 662.129 436.926V448H658.848V436.34C658.848 432.915 657.383 431.203 654.453 431.203ZM668.887 420.246H672.676V423.938H668.887V420.246ZM669.18 428.703H672.383V448H669.18V428.703ZM687.422 428.332C687.695 428.332 687.949 428.339 688.184 428.352C688.431 428.352 688.665 428.365 688.887 428.391C689.121 428.417 689.316 428.436 689.473 428.449C689.642 428.462 689.831 428.488 690.039 428.527C690.26 428.566 690.417 428.599 690.508 428.625C690.612 428.638 690.775 428.677 690.996 428.742C691.23 428.794 691.374 428.827 691.426 428.84C691.478 428.853 691.628 428.898 691.875 428.977C692.135 429.055 692.285 429.1 692.324 429.113L691.504 431.555C689.759 431.073 688.223 430.832 686.895 430.832C686.126 430.832 685.443 430.91 684.844 431.066C684.258 431.223 683.802 431.411 683.477 431.633C683.164 431.854 682.904 432.115 682.695 432.414C682.5 432.701 682.37 432.954 682.305 433.176C682.253 433.397 682.227 433.612 682.227 433.82C682.227 434.354 682.5 434.829 683.047 435.246C683.607 435.663 684.297 436.001 685.117 436.262C685.951 436.522 686.849 436.835 687.812 437.199C688.776 437.551 689.668 437.928 690.488 438.332C691.322 438.723 692.012 439.276 692.559 439.992C693.118 440.708 693.398 441.535 693.398 442.473C693.398 443.007 693.327 443.527 693.184 444.035C693.053 444.53 692.793 445.051 692.402 445.598C692.025 446.145 691.53 446.62 690.918 447.023C690.319 447.414 689.512 447.74 688.496 448C687.48 448.26 686.315 448.391 685 448.391C683.008 448.391 680.82 447.902 678.438 446.926L679.336 444.504C680.677 444.999 681.771 445.35 682.617 445.559C683.477 445.767 684.316 445.871 685.137 445.871C688.314 445.871 689.902 444.862 689.902 442.844C689.902 442.401 689.746 442.01 689.434 441.672C689.121 441.333 688.704 441.06 688.184 440.852C687.663 440.63 687.07 440.409 686.406 440.188C685.755 439.953 685.085 439.738 684.395 439.543C683.717 439.348 683.047 439.094 682.383 438.781C681.732 438.456 681.146 438.104 680.625 437.727C680.104 437.336 679.688 436.835 679.375 436.223C679.062 435.611 678.906 434.921 678.906 434.152C678.906 433.684 678.978 433.208 679.121 432.727C679.277 432.232 679.557 431.717 679.961 431.184C680.378 430.637 680.892 430.161 681.504 429.758C682.116 429.341 682.93 429.003 683.945 428.742C684.974 428.469 686.133 428.332 687.422 428.332ZM710.586 418.488H713.789V448H710.586V418.488ZM727.598 428.332C729.03 428.332 730.241 428.501 731.23 428.84C732.233 429.165 733.001 429.647 733.535 430.285C734.082 430.923 734.473 431.633 734.707 432.414C734.941 433.195 735.059 434.094 735.059 435.109V448H732.793L732.051 446.242C730.475 447.674 728.665 448.391 726.621 448.391C724.798 448.391 723.255 447.844 721.992 446.75C720.729 445.643 720.098 444.354 720.098 442.883C720.098 442.102 720.241 441.398 720.527 440.773C720.814 440.148 721.224 439.628 721.758 439.211C722.305 438.794 722.923 438.443 723.613 438.156C724.303 437.857 725.104 437.629 726.016 437.473C726.94 437.316 727.865 437.206 728.789 437.141C729.714 437.076 730.729 437.043 731.836 437.043V435.52C731.836 435.077 731.816 434.693 731.777 434.367C731.751 434.042 731.647 433.651 731.465 433.195C731.283 432.74 731.035 432.368 730.723 432.082C730.41 431.783 729.941 431.529 729.316 431.32C728.691 431.099 727.949 430.988 727.09 430.988C725.762 430.988 724.043 431.281 721.934 431.867L721.328 429.523C723.464 428.729 725.553 428.332 727.598 428.332ZM731.836 439.465H730.645C729.902 439.465 729.258 439.478 728.711 439.504C728.164 439.53 727.52 439.608 726.777 439.738C726.048 439.855 725.449 440.025 724.98 440.246C724.512 440.467 724.108 440.793 723.77 441.223C723.444 441.639 723.281 442.141 723.281 442.727C723.281 443.547 723.691 444.276 724.512 444.914C725.345 445.552 726.335 445.871 727.48 445.871C729.16 445.871 730.612 445.214 731.836 443.898V439.465ZM750.117 428.332C750.391 428.332 750.645 428.339 750.879 428.352C751.126 428.352 751.361 428.365 751.582 428.391C751.816 428.417 752.012 428.436 752.168 428.449C752.337 428.462 752.526 428.488 752.734 428.527C752.956 428.566 753.112 428.599 753.203 428.625C753.307 428.638 753.47 428.677 753.691 428.742C753.926 428.794 754.069 428.827 754.121 428.84C754.173 428.853 754.323 428.898 754.57 428.977C754.831 429.055 754.98 429.1 755.02 429.113L754.199 431.555C752.454 431.073 750.918 430.832 749.59 430.832C748.822 430.832 748.138 430.91 747.539 431.066C746.953 431.223 746.497 431.411 746.172 431.633C745.859 431.854 745.599 432.115 745.391 432.414C745.195 432.701 745.065 432.954 745 433.176C744.948 433.397 744.922 433.612 744.922 433.82C744.922 434.354 745.195 434.829 745.742 435.246C746.302 435.663 746.992 436.001 747.812 436.262C748.646 436.522 749.544 436.835 750.508 437.199C751.471 437.551 752.363 437.928 753.184 438.332C754.017 438.723 754.707 439.276 755.254 439.992C755.814 440.708 756.094 441.535 756.094 442.473C756.094 443.007 756.022 443.527 755.879 444.035C755.749 444.53 755.488 445.051 755.098 445.598C754.72 446.145 754.225 446.62 753.613 447.023C753.014 447.414 752.207 447.74 751.191 448C750.176 448.26 749.01 448.391 747.695 448.391C745.703 448.391 743.516 447.902 741.133 446.926L742.031 444.504C743.372 444.999 744.466 445.35 745.312 445.559C746.172 445.767 747.012 445.871 747.832 445.871C751.009 445.871 752.598 444.862 752.598 442.844C752.598 442.401 752.441 442.01 752.129 441.672C751.816 441.333 751.4 441.06 750.879 440.852C750.358 440.63 749.766 440.409 749.102 440.188C748.451 439.953 747.78 439.738 747.09 439.543C746.413 439.348 745.742 439.094 745.078 438.781C744.427 438.456 743.841 438.104 743.32 437.727C742.799 437.336 742.383 436.835 742.07 436.223C741.758 435.611 741.602 434.921 741.602 434.152C741.602 433.684 741.673 433.208 741.816 432.727C741.973 432.232 742.253 431.717 742.656 431.184C743.073 430.637 743.587 430.161 744.199 429.758C744.811 429.341 745.625 429.003 746.641 428.742C747.669 428.469 748.828 428.332 750.117 428.332ZM772.207 447.668C770.319 448.15 768.848 448.391 767.793 448.391C766.738 448.391 765.846 448.221 765.117 447.883C764.388 447.544 763.835 447.062 763.457 446.438C763.079 445.812 762.806 445.142 762.637 444.426C762.48 443.697 762.402 442.863 762.402 441.926V431.223H759.805V428.703H762.402V423.176H765.605V428.703H771.484V431.223H765.605V441.887C765.605 444.556 766.66 445.891 768.77 445.891C769.147 445.891 770.143 445.754 771.758 445.48L772.207 447.668ZM158.066 544.902L138.496 479.922H153.789L165.391 528.203H166.094L177.695 479.922H192.93L173.242 544.902V580H158.066V544.902ZM215.02 580.879C212.441 580.879 209.844 580.508 207.227 579.766C204.609 578.984 202.188 577.422 199.961 575.078C197.773 572.734 196.016 569.199 194.688 564.473C193.359 559.707 192.695 553.34 192.695 545.371V532.715C192.695 524.863 193.379 518.652 194.746 514.082C196.113 509.473 197.91 506.055 200.137 503.828C202.363 501.562 204.785 500.098 207.402 499.434C210.02 498.73 212.578 498.379 215.078 498.379C217.5 498.379 220 498.711 222.578 499.375C225.156 500 227.539 501.426 229.727 503.652C231.914 505.84 233.691 509.258 235.059 513.906C236.426 518.516 237.109 524.785 237.109 532.715V545.371C237.109 553.223 236.406 559.512 235 564.238C233.594 568.926 231.777 572.48 229.551 574.902C227.324 577.285 224.922 578.887 222.344 579.707C219.805 580.488 217.363 580.879 215.02 580.879ZM215.137 569.863C217.793 569.863 219.629 568.398 220.645 565.469C221.699 562.539 222.227 557.305 222.227 549.766V529.668C222.227 522.09 221.699 516.816 220.645 513.848C219.629 510.879 217.793 509.395 215.137 509.395C212.363 509.395 210.41 510.879 209.277 513.848C208.145 516.816 207.578 522.09 207.578 529.668V549.766C207.578 557.305 208.145 562.539 209.277 565.469C210.41 568.398 212.363 569.863 215.137 569.863ZM250 499.316H264.824V558.672C264.824 562.227 265.371 564.707 266.465 566.113C267.559 567.48 269.16 568.164 271.27 568.164C274.395 568.164 277.109 566.582 279.414 563.418V499.316H294.238V580H282.93L281.465 571.387H281.406C279.102 575.059 276.484 577.578 273.555 578.945C270.664 580.273 267.734 580.938 264.766 580.938C260.078 580.938 256.445 579.297 253.867 576.016C251.289 572.695 250 567.734 250 561.133V499.316ZM342.812 580L329.512 499.316H343.633L349.434 543.027L350.84 559.375H351.309L353.066 543.027L360.801 499.316H373.281L381.25 543.027L383.418 559.375H383.887L384.883 543.027L389.98 499.316H403.809L390.742 580H377.09L368.711 535.117L366.836 522.754H366.367L364.668 535.117L357.051 580H342.812ZM420.449 488.125C417.715 488.125 415.508 487.266 413.828 485.547C412.188 483.828 411.367 481.406 411.367 478.281C411.367 474.805 412.188 472.344 413.828 470.898C415.508 469.453 417.734 468.73 420.508 468.73C423.398 468.73 425.645 469.512 427.246 471.074C428.887 472.637 429.707 475.039 429.707 478.281C429.707 481.328 428.887 483.73 427.246 485.488C425.605 487.246 423.34 488.125 420.449 488.125ZM413.125 499.316H427.949V580H413.125V499.316ZM443.125 473.418H457.949V580H443.125V473.418ZM473.125 473.418H487.949V580H473.125V473.418ZM529.023 499.316H539.863L541.152 507.52C542.754 504.473 544.629 502.188 546.777 500.664C548.926 499.141 551.113 498.379 553.34 498.379C561.66 498.379 565.82 503.613 565.82 514.082C565.82 515.41 565.625 517.168 565.234 519.355C564.844 521.504 564.375 523.398 563.828 525.039H553.516V518.77C553.516 515.527 553.027 513.34 552.051 512.207C551.074 511.035 549.863 510.449 548.418 510.449C546.582 510.449 545.059 511.895 543.848 514.785V580H529.023V499.316ZM571.68 546.953V531.719C571.68 525.547 572.207 520.43 573.262 516.367C574.316 512.305 575.703 509.062 577.422 506.641C579.18 504.219 581.094 502.422 583.164 501.25C585.273 500.078 587.363 499.316 589.434 498.965C591.504 498.574 593.398 498.379 595.117 498.379C598.672 498.379 601.953 499.141 604.961 500.664C607.969 502.148 610.371 504.727 612.168 508.398C614.004 512.031 614.922 517.09 614.922 523.574C614.922 526.816 614.746 530.137 614.395 533.535C614.043 536.895 613.574 539.863 612.988 542.441H586.562V550.645C586.562 557.676 587.148 562.637 588.32 565.527C589.531 568.418 591.816 569.863 595.176 569.863C597.012 569.863 598.672 569.082 600.156 567.52C601.641 565.918 602.383 562.988 602.383 558.73V555.215H614.57V558.906C614.57 566.562 612.734 572.148 609.062 575.664C605.43 579.141 600.156 580.879 593.242 580.879C586.289 580.879 580.957 578.223 577.246 572.91C573.535 567.598 571.68 558.945 571.68 546.953ZM601.094 532.48C601.172 531.621 601.23 530.332 601.27 528.613C601.309 526.855 601.328 525.449 601.328 524.395C601.328 519.043 600.762 515.215 599.629 512.91C598.496 510.605 596.699 509.434 594.238 509.395C591.621 509.395 589.688 510.723 588.438 513.379C587.188 515.996 586.562 520.781 586.562 527.734V532.48H601.094ZM640.996 535.176C642.48 534.434 644.082 533.672 645.801 532.891C647.52 532.109 649.102 531.465 650.547 530.957V521.172C650.547 519.141 650.449 517.246 650.254 515.488C650.098 513.73 649.57 512.305 648.672 511.211C647.812 510.078 646.328 509.512 644.219 509.512C642.109 509.512 640.215 510.371 638.535 512.09C636.855 513.809 636.016 516.992 636.016 521.641V524.863H624.707C624.004 521.816 623.652 519.16 623.652 516.895C623.652 510.879 625.625 506.309 629.57 503.184C633.516 500.02 638.555 498.438 644.688 498.438C650.039 498.438 654.219 499.199 657.227 500.723C660.234 502.207 662.344 504.473 663.555 507.52C664.766 510.527 665.371 514.355 665.371 519.004V580H653.945L652.891 573.086C651.328 575.352 649.258 577.227 646.68 578.711C644.102 580.195 641.113 580.938 637.715 580.938C634.199 580.938 631.309 580.039 629.043 578.242C626.777 576.445 625.078 574.082 623.945 571.152C622.852 568.184 622.305 564.961 622.305 561.484C622.305 554.844 623.887 549.57 627.051 545.664C630.215 541.719 634.863 538.223 640.996 535.176ZM644.277 569.629C645.527 569.629 646.68 569.316 647.734 568.691C648.789 568.027 649.727 567.227 650.547 566.289V540.859C649.805 541.172 649.004 541.543 648.145 541.973C647.285 542.402 646.289 542.969 645.156 543.672C643.086 544.961 641.152 546.895 639.355 549.473C637.559 552.012 636.66 555.254 636.66 559.199C636.66 562.285 637.266 564.805 638.477 566.758C639.688 568.672 641.621 569.629 644.277 569.629ZM678.555 551.816V526.211C678.555 520.781 679.004 516.328 679.902 512.852C680.801 509.375 681.953 506.66 683.359 504.707C684.805 502.715 686.328 501.289 687.93 500.43C689.57 499.531 691.133 498.984 692.617 498.789C694.102 498.555 695.312 498.438 696.25 498.438C699.18 498.438 701.719 499.16 703.867 500.605C706.016 502.012 707.637 503.535 708.73 505.176L708.789 505.117L708.32 494.922V473.418H723.086V580H711.543L710.254 572.5C708.965 574.648 707.188 576.602 704.922 578.359C702.656 580.078 699.648 580.938 695.898 580.938C694.531 580.938 692.871 580.684 690.918 580.176C689.004 579.668 687.09 578.496 685.176 576.66C683.301 574.785 681.719 571.895 680.43 567.988C679.18 564.043 678.555 558.652 678.555 551.816ZM708.32 563.066V516.367C707.578 514.766 706.582 513.379 705.332 512.207C704.121 511.035 702.637 510.449 700.879 510.449C699.434 510.449 698.145 510.84 697.012 511.621C695.918 512.363 695.039 513.789 694.375 515.898C693.75 517.969 693.438 521.016 693.438 525.039V554.16C693.438 558.145 693.75 561.211 694.375 563.359C695.039 565.469 695.938 566.914 697.07 567.695C698.203 568.477 699.492 568.867 700.938 568.867C702.891 568.867 704.453 568.281 705.625 567.109C706.797 565.898 707.695 564.551 708.32 563.066ZM765.391 510.566H758.535V499.316H766.68L769.668 478.398H780.215V499.316H793.691V510.566H780.215V560.02C780.215 563.535 780.84 565.762 782.09 566.699C783.379 567.637 784.883 568.105 786.602 568.105C789.336 568.105 791.68 567.5 793.633 566.289V575.664C791.953 577.734 790 579.141 787.773 579.883C785.547 580.586 783.398 580.938 781.328 580.938C778.594 580.938 775.996 580.41 773.535 579.355C771.113 578.262 769.141 576.211 767.617 573.203C766.133 570.156 765.391 565.723 765.391 559.902V510.566ZM802.949 473.418H817.773V492.402L817.012 506.23C819.199 503.223 821.641 501.172 824.336 500.078C827.031 498.945 829.746 498.379 832.48 498.379C837.168 498.379 840.801 500.039 843.379 503.359C845.957 506.68 847.246 511.621 847.246 518.184V580H832.422V519.941C832.422 516.387 831.875 513.926 830.781 512.559C829.688 511.152 828.086 510.449 825.977 510.449C824.492 510.449 823.027 510.957 821.582 511.973C820.176 512.988 818.906 514.355 817.773 516.074V580H802.949V473.418ZM869.629 488.125C866.895 488.125 864.688 487.266 863.008 485.547C861.367 483.828 860.547 481.406 860.547 478.281C860.547 474.805 861.367 472.344 863.008 470.898C864.688 469.453 866.914 468.73 869.688 468.73C872.578 468.73 874.824 469.512 876.426 471.074C878.066 472.637 878.887 475.039 878.887 478.281C878.887 481.328 878.066 483.73 876.426 485.488C874.785 487.246 872.52 488.125 869.629 488.125ZM862.305 499.316H877.129V580H862.305V499.316ZM888.438 563.125C888.438 561.367 888.594 559.668 888.906 558.027C889.258 556.387 889.59 555.078 889.902 554.102H900.332C900.332 559.961 901.055 564.062 902.5 566.406C903.984 568.711 906.094 569.863 908.828 569.863C910.781 569.863 912.305 569.277 913.398 568.105C914.492 566.895 915.039 565.469 915.039 563.828C915.039 562.109 914.57 560.449 913.633 558.848C912.734 557.246 911.484 555.488 909.883 553.574L899.512 540.801C896.699 537.246 894.18 533.535 891.953 529.668C889.766 525.762 888.672 521.465 888.672 516.777C888.672 512.598 889.59 509.16 891.426 506.465C893.262 503.73 895.684 501.699 898.691 500.371C901.699 499.043 904.961 498.379 908.477 498.379C914.297 498.379 918.945 499.785 922.422 502.598C925.898 505.371 927.637 509.551 927.637 515.137C927.637 516.973 927.461 518.789 927.109 520.586C926.797 522.344 926.484 523.848 926.172 525.098H915.918C915.84 519.785 915.215 515.84 914.043 513.262C912.871 510.684 910.938 509.395 908.242 509.395C905.977 509.395 904.414 510.098 903.555 511.504C902.695 512.91 902.266 514.473 902.266 516.191C902.266 518.066 902.734 519.766 903.672 521.289C904.609 522.773 905.82 524.453 907.305 526.328L919.023 540.508C920.156 541.914 921.465 543.711 922.949 545.898C924.434 548.047 925.723 550.488 926.816 553.223C927.949 555.918 928.516 558.848 928.516 562.012C928.516 567.676 926.738 572.246 923.184 575.723C919.629 579.16 914.551 580.879 907.949 580.879C904.355 580.879 901.074 580.332 898.105 579.238C895.137 578.105 892.773 576.25 891.016 573.672C889.297 571.055 888.438 567.539 888.438 563.125ZM445.059 642.566H438.32V631.316H445.059V625.516C445.059 619.656 445.859 615.223 447.461 612.215C449.062 609.168 451.191 607.117 453.848 606.062C456.543 604.969 459.531 604.422 462.812 604.422C464.258 604.422 465.918 604.598 467.793 604.949C469.707 605.262 471.328 605.75 472.656 606.414V616.844C471.016 616.414 469.18 616.199 467.148 616.199C465.234 616.199 463.535 616.883 462.051 618.25C460.605 619.578 459.883 622 459.883 625.516V631.316H471.66V642.566H459.883V712H445.059V642.566ZM486.426 620.125C483.691 620.125 481.484 619.266 479.805 617.547C478.164 615.828 477.344 613.406 477.344 610.281C477.344 606.805 478.164 604.344 479.805 602.898C481.484 601.453 483.711 600.73 486.484 600.73C489.375 600.73 491.621 601.512 493.223 603.074C494.863 604.637 495.684 607.039 495.684 610.281C495.684 613.328 494.863 615.73 493.223 617.488C491.582 619.246 489.316 620.125 486.426 620.125ZM479.102 631.316H493.926V712H479.102V631.316ZM509.102 631.316H519.941L521.23 639.52C522.832 636.473 524.707 634.188 526.855 632.664C529.004 631.141 531.191 630.379 533.418 630.379C541.738 630.379 545.898 635.613 545.898 646.082C545.898 647.41 545.703 649.168 545.312 651.355C544.922 653.504 544.453 655.398 543.906 657.039H533.594V650.77C533.594 647.527 533.105 645.34 532.129 644.207C531.152 643.035 529.941 642.449 528.496 642.449C526.66 642.449 525.137 643.895 523.926 646.785V712H509.102V631.316ZM551.172 695.125C551.172 693.367 551.328 691.668 551.641 690.027C551.992 688.387 552.324 687.078 552.637 686.102H563.066C563.066 691.961 563.789 696.062 565.234 698.406C566.719 700.711 568.828 701.863 571.562 701.863C573.516 701.863 575.039 701.277 576.133 700.105C577.227 698.895 577.773 697.469 577.773 695.828C577.773 694.109 577.305 692.449 576.367 690.848C575.469 689.246 574.219 687.488 572.617 685.574L562.246 672.801C559.434 669.246 556.914 665.535 554.688 661.668C552.5 657.762 551.406 653.465 551.406 648.777C551.406 644.598 552.324 641.16 554.16 638.465C555.996 635.73 558.418 633.699 561.426 632.371C564.434 631.043 567.695 630.379 571.211 630.379C577.031 630.379 581.68 631.785 585.156 634.598C588.633 637.371 590.371 641.551 590.371 647.137C590.371 648.973 590.195 650.789 589.844 652.586C589.531 654.344 589.219 655.848 588.906 657.098H578.652C578.574 651.785 577.949 647.84 576.777 645.262C575.605 642.684 573.672 641.395 570.977 641.395C568.711 641.395 567.148 642.098 566.289 643.504C565.43 644.91 565 646.473 565 648.191C565 650.066 565.469 651.766 566.406 653.289C567.344 654.773 568.555 656.453 570.039 658.328L581.758 672.508C582.891 673.914 584.199 675.711 585.684 677.898C587.168 680.047 588.457 682.488 589.551 685.223C590.684 687.918 591.25 690.848 591.25 694.012C591.25 699.676 589.473 704.246 585.918 707.723C582.363 711.16 577.285 712.879 570.684 712.879C567.09 712.879 563.809 712.332 560.84 711.238C557.871 710.105 555.508 708.25 553.75 705.672C552.031 703.055 551.172 699.539 551.172 695.125ZM603.555 642.566H596.699V631.316H604.844L607.832 610.398H618.379V631.316H631.855V642.566H618.379V692.02C618.379 695.535 619.004 697.762 620.254 698.699C621.543 699.637 623.047 700.105 624.766 700.105C627.5 700.105 629.844 699.5 631.797 698.289V707.664C630.117 709.734 628.164 711.141 625.938 711.883C623.711 712.586 621.562 712.938 619.492 712.938C616.758 712.938 614.16 712.41 611.699 711.355C609.277 710.262 607.305 708.211 605.781 705.203C604.297 702.156 603.555 697.723 603.555 691.902V642.566ZM286.469 777.695H312.719V781.211H301.586V811H297.602V781.211H286.469V777.695ZM327.32 790.844C325.492 790.844 323.43 791.445 321.133 792.648V811H317.289V775.586H321.133V789.602C323.867 788.148 326.43 787.422 328.82 787.422C329.852 787.422 330.773 787.555 331.586 787.82C332.414 788.086 333.094 788.422 333.625 788.828C334.156 789.219 334.609 789.734 334.984 790.375C335.375 791 335.664 791.594 335.852 792.156C336.055 792.703 336.203 793.359 336.297 794.125C336.406 794.891 336.469 795.516 336.484 796C336.516 796.484 336.531 797.055 336.531 797.711V811H332.594V797.008C332.594 792.898 330.836 790.844 327.32 790.844ZM354.953 787.398C356.078 787.398 357.086 787.539 357.977 787.82C358.883 788.086 359.633 788.43 360.227 788.852C360.82 789.273 361.328 789.828 361.75 790.516C362.188 791.188 362.516 791.844 362.734 792.484C362.969 793.109 363.148 793.867 363.273 794.758C363.398 795.648 363.477 796.422 363.508 797.078C363.539 797.734 363.555 798.508 363.555 799.398V801.227H347.641C347.641 802.07 347.828 802.914 348.203 803.758C348.594 804.586 349.133 805.352 349.82 806.055C350.523 806.742 351.438 807.305 352.562 807.742C353.703 808.18 354.961 808.398 356.336 808.398C357.961 808.398 359.719 808.117 361.609 807.555L362.289 810.18C359.773 811.039 357.305 811.469 354.883 811.469C353.18 811.469 351.664 811.242 350.336 810.789C349.023 810.336 347.961 809.75 347.148 809.031C346.352 808.297 345.695 807.422 345.18 806.406C344.664 805.391 344.305 804.383 344.102 803.383C343.914 802.367 343.82 801.297 343.82 800.172C343.82 798.438 344.031 796.852 344.453 795.414C344.875 793.977 345.445 792.773 346.164 791.805C346.883 790.82 347.719 789.992 348.672 789.32C349.641 788.648 350.648 788.164 351.695 787.867C352.758 787.555 353.844 787.398 354.953 787.398ZM354.133 790.727C352.758 790.727 351.57 791.109 350.57 791.875C349.586 792.625 348.867 793.562 348.414 794.688C347.961 795.812 347.734 797.023 347.734 798.32H359.828C359.828 793.258 357.93 790.727 354.133 790.727ZM370.82 787.844H373.516L374.359 789.812C377.344 788.188 380.062 787.375 382.516 787.375C383.781 787.375 384.883 787.578 385.82 787.984C386.758 788.375 387.484 788.875 388 789.484C388.516 790.078 388.922 790.836 389.219 791.758C389.531 792.664 389.727 793.531 389.805 794.359C389.898 795.188 389.945 796.133 389.945 797.195V811H386.102V796.938C386.102 792.875 384.352 790.844 380.852 790.844C379.039 790.844 376.977 791.445 374.664 792.648V811H370.82V787.844ZM408.461 787.844H412.68L420.086 807.484L426.977 787.844H430.961L417.602 823.445H413.5L418.141 812.148L408.461 787.844ZM446.453 787.398C449.656 787.398 452.289 788.422 454.352 790.469C456.43 792.516 457.469 795.344 457.469 798.953C457.469 802.781 456.406 805.828 454.281 808.094C452.172 810.344 449.438 811.469 446.078 811.469C442.875 811.469 440.258 810.414 438.227 808.305C436.195 806.18 435.18 803.305 435.18 799.68C435.18 795.945 436.211 792.969 438.273 790.75C440.352 788.516 443.078 787.398 446.453 787.398ZM446.125 790.68C444.203 790.68 442.523 791.422 441.086 792.906C439.648 794.391 438.93 796.43 438.93 799.023C438.93 801.602 439.633 803.773 441.039 805.539C442.445 807.305 444.266 808.188 446.5 808.188C448.562 808.188 450.281 807.406 451.656 805.844C453.031 804.281 453.719 802.242 453.719 799.727C453.719 798.289 453.492 796.984 453.039 795.812C452.602 794.641 452.016 793.688 451.281 792.953C450.562 792.219 449.758 791.656 448.867 791.266C447.977 790.875 447.062 790.68 446.125 790.68ZM480.062 787.844H483.906V811H481.211L480.391 809.055C477.438 810.664 474.711 811.469 472.211 811.469C470.945 811.469 469.844 811.273 468.906 810.883C467.969 810.477 467.242 809.977 466.727 809.383C466.211 808.789 465.797 808.039 465.484 807.133C465.172 806.211 464.969 805.336 464.875 804.508C464.797 803.68 464.758 802.734 464.758 801.672V787.844H468.602V801.953C468.602 806 470.359 808.023 473.875 808.023C475.688 808.023 477.75 807.422 480.062 806.219V787.844ZM502.68 787.844H506.781L513.062 807.273L519.016 787.844H522.789L528.977 807.25L535.258 787.844H539.359L530.898 811H527.031L520.867 792.227L514.773 811H510.906L502.68 787.844ZM544.656 777.695H549.203V782.125H544.656V777.695ZM545.008 787.844H548.852V811H545.008V787.844ZM557.758 775.586H561.602V811H557.758V775.586ZM570.977 775.586H574.82V811H570.977V775.586ZM600.273 789.578C602.227 788.125 604.383 787.398 606.742 787.398C608.367 787.398 609.844 787.703 611.172 788.312L610 791.383C608.781 790.914 607.516 790.68 606.203 790.68C604.25 790.68 602.414 791.219 600.695 792.297V811H596.852V787.844H599.547L600.273 789.578ZM625.609 787.398C626.734 787.398 627.742 787.539 628.633 787.82C629.539 788.086 630.289 788.43 630.883 788.852C631.477 789.273 631.984 789.828 632.406 790.516C632.844 791.188 633.172 791.844 633.391 792.484C633.625 793.109 633.805 793.867 633.93 794.758C634.055 795.648 634.133 796.422 634.164 797.078C634.195 797.734 634.211 798.508 634.211 799.398V801.227H618.297C618.297 802.07 618.484 802.914 618.859 803.758C619.25 804.586 619.789 805.352 620.477 806.055C621.18 806.742 622.094 807.305 623.219 807.742C624.359 808.18 625.617 808.398 626.992 808.398C628.617 808.398 630.375 808.117 632.266 807.555L632.945 810.18C630.43 811.039 627.961 811.469 625.539 811.469C623.836 811.469 622.32 811.242 620.992 810.789C619.68 810.336 618.617 809.75 617.805 809.031C617.008 808.297 616.352 807.422 615.836 806.406C615.32 805.391 614.961 804.383 614.758 803.383C614.57 802.367 614.477 801.297 614.477 800.172C614.477 798.438 614.688 796.852 615.109 795.414C615.531 793.977 616.102 792.773 616.82 791.805C617.539 790.82 618.375 789.992 619.328 789.32C620.297 788.648 621.305 788.164 622.352 787.867C623.414 787.555 624.5 787.398 625.609 787.398ZM624.789 790.727C623.414 790.727 622.227 791.109 621.227 791.875C620.242 792.625 619.523 793.562 619.07 794.688C618.617 795.812 618.391 797.023 618.391 798.32H630.484C630.484 793.258 628.586 790.727 624.789 790.727ZM649.141 787.398C650.859 787.398 652.312 787.602 653.5 788.008C654.703 788.398 655.625 788.977 656.266 789.742C656.922 790.508 657.391 791.359 657.672 792.297C657.953 793.234 658.094 794.312 658.094 795.531V811H655.375L654.484 808.891C652.594 810.609 650.422 811.469 647.969 811.469C645.781 811.469 643.93 810.812 642.414 809.5C640.898 808.172 640.141 806.625 640.141 804.859C640.141 803.922 640.312 803.078 640.656 802.328C641 801.578 641.492 800.953 642.133 800.453C642.789 799.953 643.531 799.531 644.359 799.188C645.188 798.828 646.148 798.555 647.242 798.367C648.352 798.18 649.461 798.047 650.57 797.969C651.68 797.891 652.898 797.852 654.227 797.852V796.023C654.227 795.492 654.203 795.031 654.156 794.641C654.125 794.25 654 793.781 653.781 793.234C653.562 792.688 653.266 792.242 652.891 791.898C652.516 791.539 651.953 791.234 651.203 790.984C650.453 790.719 649.562 790.586 648.531 790.586C646.938 790.586 644.875 790.938 642.344 791.641L641.617 788.828C644.18 787.875 646.688 787.398 649.141 787.398ZM654.227 800.758H652.797C651.906 800.758 651.133 800.773 650.477 800.805C649.82 800.836 649.047 800.93 648.156 801.086C647.281 801.227 646.562 801.43 646 801.695C645.438 801.961 644.953 802.352 644.547 802.867C644.156 803.367 643.961 803.969 643.961 804.672C643.961 805.656 644.453 806.531 645.438 807.297C646.438 808.062 647.625 808.445 649 808.445C651.016 808.445 652.758 807.656 654.227 806.078V800.758ZM665.383 799.82C665.383 797.82 665.664 796.023 666.227 794.43C666.789 792.836 667.562 791.531 668.547 790.516C669.531 789.5 670.68 788.727 671.992 788.195C673.32 787.648 674.75 787.375 676.281 787.375C678.125 787.375 679.992 787.789 681.883 788.617V775.586H685.727V811H683.055L682.422 809.547C680.25 810.828 677.984 811.469 675.625 811.469C674.656 811.469 673.711 811.352 672.789 811.117C671.867 810.883 670.953 810.477 670.047 809.898C669.141 809.32 668.344 808.602 667.656 807.742C666.984 806.867 666.438 805.75 666.016 804.391C665.594 803.031 665.383 801.508 665.383 799.82ZM676.891 808.305C678.594 808.305 680.258 807.867 681.883 806.992V791.523C680.211 790.773 678.531 790.398 676.844 790.398C676.125 790.398 675.43 790.477 674.758 790.633C674.086 790.789 673.398 791.07 672.695 791.477C671.992 791.883 671.383 792.406 670.867 793.047C670.367 793.688 669.953 794.539 669.625 795.602C669.297 796.648 669.133 797.852 669.133 799.211C669.133 800.617 669.305 801.875 669.648 802.984C669.992 804.078 670.43 804.953 670.961 805.609C671.492 806.266 672.117 806.805 672.836 807.227C673.555 807.648 674.242 807.938 674.898 808.094C675.555 808.234 676.219 808.305 676.891 808.305ZM719.828 810.602C717.562 811.18 715.797 811.469 714.531 811.469C713.266 811.469 712.195 811.266 711.32 810.859C710.445 810.453 709.781 809.875 709.328 809.125C708.875 808.375 708.547 807.57 708.344 806.711C708.156 805.836 708.062 804.836 708.062 803.711V790.867H704.945V787.844H708.062V781.211H711.906V787.844H718.961V790.867H711.906V803.664C711.906 806.867 713.172 808.469 715.703 808.469C716.156 808.469 717.352 808.305 719.289 807.977L719.828 810.602ZM735.977 790.844C734.148 790.844 732.086 791.445 729.789 792.648V811H725.945V775.586H729.789V789.602C732.523 788.148 735.086 787.422 737.477 787.422C738.508 787.422 739.43 787.555 740.242 787.82C741.07 788.086 741.75 788.422 742.281 788.828C742.812 789.219 743.266 789.734 743.641 790.375C744.031 791 744.32 791.594 744.508 792.156C744.711 792.703 744.859 793.359 744.953 794.125C745.062 794.891 745.125 795.516 745.141 796C745.172 796.484 745.188 797.055 745.188 797.711V811H741.25V797.008C741.25 792.898 739.492 790.844 735.977 790.844ZM753.297 777.695H757.844V782.125H753.297V777.695ZM753.648 787.844H757.492V811H753.648V787.844ZM775.539 787.398C775.867 787.398 776.172 787.406 776.453 787.422C776.75 787.422 777.031 787.438 777.297 787.469C777.578 787.5 777.812 787.523 778 787.539C778.203 787.555 778.43 787.586 778.68 787.633C778.945 787.68 779.133 787.719 779.242 787.75C779.367 787.766 779.562 787.812 779.828 787.891C780.109 787.953 780.281 787.992 780.344 788.008C780.406 788.023 780.586 788.078 780.883 788.172C781.195 788.266 781.375 788.32 781.422 788.336L780.438 791.266C778.344 790.688 776.5 790.398 774.906 790.398C773.984 790.398 773.164 790.492 772.445 790.68C771.742 790.867 771.195 791.094 770.805 791.359C770.43 791.625 770.117 791.938 769.867 792.297C769.633 792.641 769.477 792.945 769.398 793.211C769.336 793.477 769.305 793.734 769.305 793.984C769.305 794.625 769.633 795.195 770.289 795.695C770.961 796.195 771.789 796.602 772.773 796.914C773.773 797.227 774.852 797.602 776.008 798.039C777.164 798.461 778.234 798.914 779.219 799.398C780.219 799.867 781.047 800.531 781.703 801.391C782.375 802.25 782.711 803.242 782.711 804.367C782.711 805.008 782.625 805.633 782.453 806.242C782.297 806.836 781.984 807.461 781.516 808.117C781.062 808.773 780.469 809.344 779.734 809.828C779.016 810.297 778.047 810.688 776.828 811C775.609 811.312 774.211 811.469 772.633 811.469C770.242 811.469 767.617 810.883 764.758 809.711L765.836 806.805C767.445 807.398 768.758 807.82 769.773 808.07C770.805 808.32 771.812 808.445 772.797 808.445C776.609 808.445 778.516 807.234 778.516 804.812C778.516 804.281 778.328 803.812 777.953 803.406C777.578 803 777.078 802.672 776.453 802.422C775.828 802.156 775.117 801.891 774.32 801.625C773.539 801.344 772.734 801.086 771.906 800.852C771.094 800.617 770.289 800.312 769.492 799.938C768.711 799.547 768.008 799.125 767.383 798.672C766.758 798.203 766.258 797.602 765.883 796.867C765.508 796.133 765.32 795.305 765.32 794.383C765.32 793.82 765.406 793.25 765.578 792.672C765.766 792.078 766.102 791.461 766.586 790.82C767.086 790.164 767.703 789.594 768.438 789.109C769.172 788.609 770.148 788.203 771.367 787.891C772.602 787.562 773.992 787.398 775.539 787.398Z" fill="black"/>
</svg>
