<svg xmlns="http://www.w3.org/2000/svg" width="1080" height="1350" fill="none"><path fill="#000" d="m306.803 444 8.64-25.12h3.8l8.439 25.12h-3.28l-2.119-6.44h-10l-2.2 6.44zm6.28-8.88h8.399l-4.199-12.44zM346.371 444v-11.24q0-2.74-1.32-4.16-1.3-1.44-3.56-1.44-1.72 0-2.98.94t-1.94 2.7q-.68 1.74-.68 4.16h-1.2q0-3.339.88-5.7.88-2.36 2.56-3.6 1.7-1.26 4.12-1.26 2.26 0 3.86 1.02 1.62 1 2.48 2.88t.86 4.46V444zm-13.6 0v-19.12h2.68l.44 4.4V444zM363.752 444.48a7.75 7.75 0 0 1-4.26-1.24q-1.94-1.26-3.1-3.52-1.16-2.28-1.16-5.36 0-3.06 1.14-5.3t3.02-3.44a7.55 7.55 0 0 1 4.16-1.22q2.1 0 3.68 1.02 1.6 1.02 2.48 2.94t.88 4.64h-1.2q0-1.9-.76-3.2-.74-1.3-1.94-1.96-1.2-.68-2.58-.68a5 5 0 0 0-2.86.88q-1.28.86-2.06 2.48-.76 1.6-.76 3.84 0 2.28.76 3.92.78 1.641 2.06 2.52 1.3.88 2.86.88 1.3 0 2.5-.68 1.22-.68 2-1.98.78-1.32.78-3.18h1.2q0 2.78-.92 4.72-.9 1.92-2.46 2.92-1.54 1-3.46 1m6.16-.48-.52-4.48v-22.8h3.12V444zM386.955 424.88h3.48l6.24 16.4h-.72l4.84-16.4h3.2l-7.2 22.96q-.9 2.88-2.4 4.44t-3.84 1.56q-1.26 0-2.4-.36-1.12-.36-2.32-1.04v-2.88q1.06.84 2.04 1.2 1 .36 2.08.36 1.2 0 2-.76.82-.76 1.36-1.96.54-1.18.92-2.48l.56-1.92zM415.668 444.48q-2.58 0-4.6-1.14-2-1.14-3.16-3.38t-1.16-5.52q0-3.3 1.16-5.52 1.16-2.24 3.16-3.38 2.02-1.14 4.6-1.14 2.559 0 4.56 1.14 2.02 1.14 3.16 3.38 1.16 2.22 1.16 5.52 0 3.28-1.16 5.52-1.14 2.24-3.16 3.38-2.001 1.14-4.56 1.14m-.08-2.72q1.86 0 3.16-.88 1.3-.9 1.96-2.54.68-1.64.68-3.9 0-3.42-1.42-5.38-1.42-1.98-4.22-1.98-1.881 0-3.18.9-1.28.88-1.96 2.54-.66 1.64-.66 3.92 0 3.38 1.42 5.36 1.44 1.96 4.22 1.96M443.623 424.84h3.12V444h-3.12zm-13.56 0h3.12v11.92q0 2.4 1.16 3.64 1.179 1.24 3.36 1.24 1.8 0 3.12-.96 1.34-.96 2.06-2.64.74-1.7.74-3.88h1.16q0 3.22-.94 5.5-.92 2.28-2.62 3.5-1.68 1.2-3.96 1.2-2.16 0-3.78-.8t-2.52-2.42q-.9-1.64-.9-4.14zM461.014 424.88h3.24l4.88 15.96h-.4l4.76-15.04h2.6l4.72 15.08h-.36l4.88-16h3.12l-6.28 19.12h-3.04l-4.64-14.12h.48l-4.6 14.12h-3.04zM495.078 420.36q-.96 0-1.52-.54-.56-.56-.56-1.46 0-.88.56-1.4t1.52-.52 1.52.52.56 1.4q0 .9-.56 1.46-.56.54-1.52.54m-1.56 23.64v-19.16h3.12V444zM505.232 444v-27.28h3.12V444zM516.443 444v-27.28h3.12V444zM537.146 444v-19.16h3.12V444zm2.16-8.64q0-3.64.7-6.04.7-2.42 2.04-3.6 1.36-1.2 3.3-1.2.64 0 1.16.1.54.08 1.08.26l-.2 3.08q-.56-.18-1.22-.3a5.8 5.8 0 0 0-1.18-.14q-1.7 0-2.74.98-1.04.96-1.52 2.72-.46 1.761-.46 4.14zM558.239 444.48q-2.48 0-4.44-1.26-1.94-1.28-3.08-3.54-1.12-2.26-1.12-5.2 0-3.14 1.12-5.4t3.06-3.46q1.96-1.22 4.46-1.22 2.181 0 3.72.88a6.95 6.95 0 0 1 2.48 2.38q.94 1.5 1.3 3.4.38 1.881.22 3.9h-13.84v-1.92h11.78l-.92.6q.06-1.18-.14-2.36a6.7 6.7 0 0 0-.7-2.16 4.1 4.1 0 0 0-1.46-1.6q-.939-.6-2.4-.6-1.84 0-3.08.94t-1.86 2.48q-.62 1.521-.62 3.3v1.28q0 2 .6 3.58.62 1.58 1.84 2.5t3.08.92 3.06-.9 1.46-2.66h3.24q-.3 1.9-1.36 3.28a7 7 0 0 1-2.7 2.1q-1.64.74-3.7.74M583.986 444l-.4-4.2v-8.2q0-2.58-1.1-3.7-1.1-1.14-3.3-1.14-1.24 0-2.26.36-1 .36-1.6 1.12-.58.741-.58 1.92h-3.48q0-2.08 1.02-3.34 1.02-1.28 2.8-1.84 1.8-.58 4.1-.58 2.2 0 3.9.74a5.65 5.65 0 0 1 2.66 2.36q.96 1.6.96 4.18V444zm-6.52.48q-2.36 0-3.9-.84t-2.3-2.18a5.64 5.64 0 0 1-.76-2.82q0-1.94.96-3.16.98-1.22 2.66-1.78 1.68-.58 3.78-.58 1.5 0 3 .3 1.52.3 2.96.82v1.96q-1.2-.48-2.72-.76-1.5-.28-2.76-.28-1.92 0-3.24.8-1.32.78-1.32 2.68 0 1.401 1 2.4 1.02 1 3.24 1 1.56 0 2.8-.72 1.26-.74 1.98-1.84.74-1.1.74-2.2h.76q0 1.92-.84 3.56a6.6 6.6 0 0 1-2.36 2.64q-1.54 1-3.68 1M601.017 444.48a7.75 7.75 0 0 1-4.259-1.24q-1.94-1.26-3.1-3.52-1.161-2.28-1.161-5.36 0-3.06 1.141-5.3 1.14-2.24 3.02-3.44a7.55 7.55 0 0 1 4.16-1.22q2.1 0 3.679 1.02 1.6 1.02 2.481 2.94t.88 4.64h-1.2q0-1.9-.761-3.2-.74-1.3-1.94-1.96a5.15 5.15 0 0 0-2.579-.68q-1.56 0-2.861.88-1.28.86-2.06 2.48-.759 1.6-.759 3.84 0 2.28.759 3.92.78 1.641 2.06 2.52 1.3.88 2.861.88 1.3 0 2.5-.68 1.22-.68 2-1.98.78-1.32.78-3.18h1.2q0 2.78-.92 4.72-.9 1.92-2.46 2.92-1.54 1-3.461 1m6.16-.48-.519-4.48v-22.8h3.119V444zM633.261 444.48q-1.56 0-2.8-.6t-1.96-1.8-.72-3v-19.52h3.08V439q0 2.96 2.76 2.96a6.8 6.8 0 0 0 1.58-.18q.78-.18 1.74-.54l.44 2.24q-1.02.441-2.04.72-1 .28-2.08.28m-8.56-17.44v-2.16h12.2v2.16zM656.02 444v-11.24q0-2.74-1.32-4.16-1.3-1.44-3.56-1.44-1.72 0-2.98.94t-1.94 2.7q-.68 1.74-.68 4.16h-1.2q0-3.339.88-5.7.88-2.36 2.56-3.6 1.7-1.26 4.12-1.26 2.26 0 3.86 1.02 1.62 1 2.48 2.88t.86 4.46V444zm-13.6 0v-27.28h3.12V444zM668.32 420.36q-.96 0-1.52-.54-.56-.56-.56-1.46 0-.88.56-1.4t1.52-.52 1.52.52.56 1.4q0 .9-.56 1.46-.56.54-1.52.54M666.76 444v-19.16h3.12V444zM685.354 444.48q-2.78 0-4.64-.78-1.86-.8-2.82-2.18-.96-1.4-1.02-3.2h3q.1 1.82 1.46 2.74 1.38.9 3.74.9 1.24 0 2.28-.4t1.66-1.1.62-1.58q0-1.12-.82-1.76t-2.62-1.12l-3.72-1.2q-2.42-.76-3.72-2.08-1.28-1.34-1.28-3.2 0-2.319 2.04-3.72 2.04-1.4 5.36-1.4 3.52 0 5.46 1.44t2.02 3.6h-3.08q-.18-1.26-1.28-1.9-1.1-.66-3.12-.66-1.94 0-3.04.88-1.08.861-1.08 1.92 0 1.98 3.4 2.92l3.8 1.28q2.46.74 3.76 1.94 1.32 1.2 1.32 3.06 0 1.44-.94 2.72t-2.66 2.08q-1.719.8-4.08.8M708.982 444v-27.28h3.12V444zM732.033 444l-.4-4.2v-8.2q0-2.58-1.1-3.7-1.1-1.14-3.3-1.14-1.24 0-2.26.36-1 .36-1.6 1.12-.58.741-.58 1.92h-3.48q0-2.08 1.02-3.34 1.02-1.28 2.8-1.84 1.8-.58 4.1-.58 2.2 0 3.9.74a5.65 5.65 0 0 1 2.66 2.36q.96 1.6.96 4.18V444zm-6.52.48q-2.36 0-3.9-.84t-2.3-2.18a5.6 5.6 0 0 1-.76-2.82q0-1.94.96-3.16.98-1.22 2.66-1.78 1.68-.58 3.78-.58 1.5 0 3 .3 1.52.3 2.96.82v1.96q-1.2-.48-2.72-.76-1.5-.28-2.76-.28-1.92 0-3.24.8-1.32.78-1.32 2.68 0 1.401 1 2.4 1.02 1 3.24 1 1.56 0 2.8-.72 1.26-.74 1.98-1.84.74-1.1.74-2.2h.76q0 1.92-.84 3.56a6.6 6.6 0 0 1-2.36 2.64q-1.54 1-3.68 1M749.104 444.48q-2.78 0-4.64-.78-1.86-.8-2.82-2.18-.96-1.4-1.02-3.2h3q.1 1.82 1.46 2.74 1.38.9 3.74.9 1.24 0 2.28-.4t1.66-1.1.62-1.58q0-1.12-.82-1.76t-2.62-1.12l-3.72-1.2q-2.42-.76-3.72-2.08-1.28-1.34-1.28-3.2 0-2.319 2.04-3.72 2.04-1.4 5.36-1.4 3.52 0 5.46 1.44t2.02 3.6h-3.08q-.18-1.26-1.28-1.9-1.1-.66-3.12-.66-1.94 0-3.04.88-1.08.861-1.08 1.92 0 1.98 3.4 2.92l3.8 1.28q2.46.74 3.76 1.94 1.32 1.2 1.32 3.06 0 1.44-.94 2.72t-2.66 2.08q-1.719.8-4.08.8M769.12 444.48q-1.56 0-2.8-.6t-1.96-1.8-.72-3v-19.52h3.08V439q0 2.96 2.76 2.96.82 0 1.58-.18.78-.18 1.74-.54l.44 2.24q-1.02.441-2.04.72-1 .28-2.08.28m-8.56-17.44v-2.16h12.2v2.16zM295.069 779.633v-3.149h22.983v3.149h-10.505l.823-.846V806h-3.666v-27.213l.822.846zM339.53 806v-13.207q0-3.219-1.551-4.888-1.528-1.692-4.183-1.692-2.022 0-3.502 1.105t-2.279 3.172q-.8 2.045-.799 4.888h-1.41q0-3.924 1.034-6.697t3.008-4.23q1.997-1.48 4.841-1.481 2.655 0 4.535 1.199 1.904 1.174 2.914 3.384t1.011 5.24V806zm-15.98 0v-32.054h3.666V806zM360.187 806.564q-2.915 0-5.217-1.48-2.28-1.504-3.619-4.16-1.316-2.655-1.316-6.11 0-3.688 1.316-6.345 1.316-2.655 3.595-4.065 2.304-1.434 5.241-1.434 2.562 0 4.371 1.034a8.2 8.2 0 0 1 2.914 2.797q1.104 1.763 1.527 3.995.447 2.21.259 4.582h-16.262v-2.256h13.841l-1.081.705a12.7 12.7 0 0 0-.164-2.773 7.9 7.9 0 0 0-.823-2.538 4.84 4.84 0 0 0-1.715-1.88q-1.104-.705-2.82-.705-2.162 0-3.619 1.105t-2.186 2.914q-.728 1.786-.728 3.877v1.504q0 2.35.705 4.207.728 1.857 2.162 2.937 1.434 1.081 3.619 1.081t3.595-1.057 1.716-3.126h3.807q-.353 2.233-1.598 3.854-1.245 1.599-3.173 2.468-1.926.87-4.347.869M392.978 806v-13.207q0-3.219-1.551-4.888-1.528-1.692-4.183-1.692-2.022 0-3.502 1.105t-2.279 3.172q-.8 2.045-.799 4.888h-1.41q0-3.924 1.034-6.697t3.008-4.23q1.997-1.48 4.841-1.481 2.655 0 4.535 1.199 1.903 1.174 2.914 3.384t1.011 5.24V806zm-15.98 0v-22.466h3.149l.517 5.17V806zM413.743 783.534h4.089l7.332 19.27h-.846l5.687-19.27h3.76l-8.46 26.978q-1.057 3.384-2.82 5.217t-4.512 1.833a9.3 9.3 0 0 1-2.82-.423 14.7 14.7 0 0 1-2.726-1.222v-3.384q1.245.987 2.397 1.41a7.2 7.2 0 0 0 2.444.423q1.41 0 2.35-.893.963-.893 1.598-2.303.634-1.386 1.081-2.914l.658-2.256zM447.951 806.564q-3.032 0-5.405-1.339-2.35-1.34-3.713-3.972t-1.363-6.486q0-3.877 1.363-6.486 1.362-2.631 3.713-3.971 2.373-1.34 5.405-1.34 3.007 0 5.358 1.34 2.373 1.34 3.713 3.971 1.363 2.609 1.363 6.486 0 3.855-1.363 6.486-1.34 2.633-3.713 3.972-2.35 1.34-5.358 1.339m-.094-3.196q2.185 0 3.713-1.034 1.527-1.057 2.303-2.984.798-1.927.799-4.583 0-4.018-1.669-6.321-1.668-2.327-4.958-2.327-2.209 0-3.737 1.058-1.503 1.034-2.303 2.984-.775 1.927-.775 4.606 0 3.972 1.668 6.298 1.692 2.303 4.959 2.303M481.268 783.487h3.666V806h-3.666zm-15.933 0h3.666v14.006q0 2.82 1.363 4.277 1.386 1.457 3.948 1.457 2.115 0 3.666-1.128 1.574-1.128 2.42-3.102.87-1.997.87-4.559h1.363q0 3.784-1.105 6.463-1.08 2.68-3.078 4.112-1.974 1.41-4.653 1.41-2.538 0-4.442-.94t-2.961-2.843q-1.057-1.927-1.057-4.865zM502.642 783.534h3.807l5.734 18.753h-.47l5.593-17.672h3.055l5.546 17.719h-.423l5.734-18.8h3.666L527.505 806h-3.572l-5.452-16.591h.564L513.64 806h-3.572zM543.138 778.223q-1.128 0-1.786-.634-.658-.658-.658-1.716 0-1.033.658-1.645.658-.61 1.786-.611 1.128 0 1.786.611.658.612.658 1.645 0 1.058-.658 1.716-.658.634-1.786.634M541.305 806v-22.513h3.666V806zM555.539 806v-32.054h3.666V806zM569.182 806v-32.054h3.666V806zM594.448 806v-22.513h3.666V806zm2.538-10.152q0-4.277.822-7.097.823-2.842 2.397-4.23 1.598-1.41 3.878-1.41.752 0 1.363.118a7.5 7.5 0 0 1 1.269.305l-.235 3.619a11 11 0 0 0-1.434-.352 6.7 6.7 0 0 0-1.386-.165q-1.998 0-3.22 1.152-1.221 1.128-1.786 3.196-.54 2.068-.54 4.864zM619.702 806.564q-2.913 0-5.217-1.48-2.279-1.504-3.619-4.16-1.316-2.655-1.316-6.11 0-3.688 1.316-6.345 1.317-2.655 3.596-4.065 2.303-1.434 5.24-1.434 2.562 0 4.371 1.034a8.2 8.2 0 0 1 2.914 2.797q1.105 1.763 1.528 3.995.446 2.21.258 4.582h-16.262v-2.256h13.842l-1.081.705a12.7 12.7 0 0 0-.165-2.773 8 8 0 0 0-.822-2.538 4.84 4.84 0 0 0-1.716-1.88q-1.104-.705-2.82-.705-2.161 0-3.619 1.105-1.457 1.105-2.185 2.914-.729 1.786-.729 3.877v1.504q0 2.35.705 4.207.73 1.857 2.162 2.937 1.434 1.081 3.619 1.081t3.596-1.057 1.715-3.126h3.807q-.352 2.233-1.598 3.854-1.245 1.599-3.172 2.468-1.927.87-4.348.869M650.425 806l-.47-4.935v-9.635q0-3.032-1.293-4.347-1.292-1.34-3.877-1.34-1.458 0-2.656.423-1.175.423-1.88 1.316-.681.87-.681 2.256h-4.089q0-2.443 1.198-3.924 1.199-1.504 3.29-2.162 2.115-.682 4.818-.682 2.585 0 4.582.87 1.998.87 3.126 2.773 1.128 1.88 1.128 4.911V806zm-7.661.564q-2.773 0-4.583-.987-1.81-.986-2.702-2.561a6.6 6.6 0 0 1-.893-3.314q0-2.279 1.128-3.713 1.15-1.433 3.125-2.091 1.974-.681 4.442-.682 1.763 0 3.525.353 1.786.352 3.478.963v2.303q-1.41-.563-3.196-.893-1.762-.329-3.243-.329-2.256 0-3.807.94-1.551.917-1.551 3.149 0 1.646 1.175 2.82 1.198 1.175 3.807 1.175 1.832 0 3.29-.846 1.48-.869 2.326-2.162.87-1.292.87-2.585h.893q0 2.256-.987 4.183a7.8 7.8 0 0 1-2.773 3.102q-1.81 1.176-4.324 1.175M670.907 806.564a9.1 9.1 0 0 1-5.006-1.457q-2.28-1.48-3.642-4.136-1.363-2.679-1.363-6.298 0-3.595 1.339-6.227 1.34-2.632 3.549-4.042a8.86 8.86 0 0 1 4.888-1.434q2.467 0 4.324 1.199 1.88 1.198 2.914 3.454t1.034 5.452h-1.41q0-2.232-.893-3.76-.87-1.527-2.28-2.303a6.05 6.05 0 0 0-3.031-.799 5.87 5.87 0 0 0-3.361 1.034q-1.504 1.01-2.42 2.914-.894 1.881-.893 4.512 0 2.68.893 4.606.916 1.928 2.42 2.961a5.86 5.86 0 0 0 3.361 1.034q1.527 0 2.937-.799 1.434-.798 2.35-2.326.917-1.551.917-3.737h1.41q0 3.267-1.081 5.546-1.058 2.256-2.891 3.431-1.809 1.176-4.065 1.175m7.238-.564-.611-5.264v-26.79h3.666V806zM709.732 806.564q-1.832 0-3.29-.705a5.36 5.36 0 0 1-2.303-2.115q-.846-1.41-.846-3.525v-22.936h3.619v22.842q0 3.478 3.243 3.478.964 0 1.857-.211a16 16 0 0 0 2.044-.635l.517 2.632q-1.198.517-2.397.846a9 9 0 0 1-2.444.329m-10.058-20.492v-2.538h14.335v2.538zM736.944 806v-13.207q0-3.219-1.551-4.888-1.528-1.692-4.183-1.692-2.02 0-3.501 1.105t-2.28 3.172q-.8 2.045-.799 4.888h-1.41q0-3.924 1.034-6.697t3.008-4.23q1.997-1.48 4.841-1.481 2.655 0 4.536 1.199 1.903 1.174 2.914 3.384 1.01 2.209 1.01 5.24V806zm-15.98 0v-32.054h3.666V806zM751.867 778.223q-1.128 0-1.786-.634-.657-.658-.658-1.716 0-1.033.658-1.645.658-.61 1.786-.611 1.129 0 1.786.611.658.612.658 1.645 0 1.058-.658 1.716-.658.634-1.786.634M750.034 806v-22.513h3.666V806zM772.352 806.564q-3.266 0-5.452-.916-2.185-.94-3.313-2.562-1.128-1.644-1.199-3.76h3.525q.118 2.139 1.716 3.22 1.622 1.057 4.394 1.057 1.458 0 2.679-.47 1.222-.47 1.951-1.292.728-.822.728-1.857 0-1.315-.963-2.068-.963-.752-3.079-1.316l-4.371-1.41q-2.842-.893-4.371-2.444-1.504-1.574-1.504-3.76 0-2.725 2.397-4.371 2.398-1.645 6.298-1.645 4.136 0 6.416 1.692t2.373 4.23h-3.619q-.211-1.48-1.504-2.232-1.292-.776-3.666-.776-2.279 0-3.572 1.034-1.269 1.011-1.269 2.256 0 2.327 3.995 3.431l4.465 1.504q2.89.87 4.418 2.28 1.551 1.41 1.551 3.595 0 1.692-1.104 3.196t-3.126 2.444q-2.02.94-4.794.94M245.969 494.72q5.88 4.08 5.88 7.92 0 2.28-2.76 6.36l-25.92 38.76v22.92q0 2.76-.24 4.2-.12 1.32-1.08 3.12t-3.24 2.52-6.12.72-6.12-.72-3.24-2.52q-.96-1.92-1.2-3.24-.12-1.44-.12-4.32v-22.68L175.889 509q-2.76-4.08-2.76-6.36 0-3.84 5.28-7.32 5.28-3.6 7.56-3.6t3.6.96q2.04 1.32 4.32 4.92l18.6 29.76 18.6-29.76q2.28-3.6 3.96-4.68 1.68-1.2 3.84-1.2 2.28 0 7.08 3M242.18 549.44q0-14.4 10.08-23.76t23.04-9.36 22.92 9.36q9.96 9.24 9.96 23.64 0 9.96-5.16 17.76-5.16 7.68-12.6 11.4-7.32 3.6-15.24 3.6t-15.36-3.84q-7.44-3.96-12.6-11.52-5.04-7.68-5.04-17.28m25.08 8.64q3.84 2.88 7.8 2.88t7.92-3 3.96-8.88-3.72-8.76-8.04-2.88-8.04 3-3.72 8.88q0 5.76 3.84 8.76M344.014 580.76q-12.12 0-20.16-9.12-7.92-9.24-7.92-22.44v-21q0-2.88.12-4.2.24-1.32 1.08-3.12 1.68-3.24 9.36-3.24 8.4 0 9.84 4.56.72 1.92.72 6.12v21q0 4.92 2.76 7.68 2.88 2.76 7.56 2.76 4.8 0 7.68-2.88 3-2.88 3-7.56v-21.24q0-2.76.12-4.08.24-1.44 1.2-3.24 1.56-3.12 9.24-3.12 7.56 0 9.24 3.24.84 1.8.96 3.24.24 1.32.24 4.08v42.48q0 2.64-.24 4.08-.12 1.32-1.08 3-1.8 3.12-9.24 3.12-7.32 0-9-2.88-1.2-2.04-1.2-4.92-.48.84-2.16 2.4t-3.24 2.64q-4.08 2.64-8.88 2.64M499.939 518.24q7.68 3.36 7.68 8.28 0 2.04-1.92 6.6-1.92 4.44-3.24 7.8l-13.2 32.16q-1.8 5.28-6 7.44-1.8.84-4.56.84t-5.4-2.04q-2.52-2.16-3.36-4.32l-.96-2.04q-.96-2.4-7.08-18.72-1.2 2.88-3.6 9.48-2.28 6.48-3 8.16-.6 1.56-.84 2.16-.12.48-.96 1.92t-1.92 2.52q-2.88 2.88-6.6 2.88t-6.24-2.04q-2.52-2.16-3.36-4.32l-18.12-44.16q-1.2-3.6-1.2-4.68 0-4.8 6.84-7.56 3.84-1.56 6.24-1.56t3.84 1.08q1.56.96 2.16 2.04.6.96.96 2.04 2.04 4.8 8.52 22.56l7.08-19.44q.72-2.4 2.64-4.2 3.48-3.48 7.08-3.48t6.12 1.92q2.64 1.92 3.6 3.84l.96 2.04q6 16.8 7.08 19.2l7.32-19.92q2.88-7.68 8.64-7.68 2.28 0 4.8 1.2M514.215 528.32q0-2.76.12-4.08.24-1.44 1.08-3.24 1.68-3.12 9.36-3.12 5.76 0 8.16 2.04 2.04 1.68 2.16 5.16.12 1.2.12 3.48v42q0 2.76-.24 4.2-.12 1.32-1.08 3.12-1.56 3.12-9.24 3.12-7.56 0-9.24-3.24-.84-1.8-1.08-3.12-.12-1.32-.12-4.2zm19.68-22.2q-.84 1.68-3.12 2.4t-6.12.72q-3.72 0-6-.72t-3.24-2.52q-.84-1.8-1.08-3.12-.12-1.44-.12-4.2t.12-4.08q.24-1.44 1.08-3.12 1.68-3.24 9.36-3.24 7.56 0 9.12 3.24.96 1.8 1.08 3.24.24 1.32.24 4.08t-.24 4.2q-.12 1.32-1.08 3.12M566.881 559.76q3.96 0 5.88 2.04t1.92 8.4-2.04 8.52q-2.04 2.04-5.88 2.04-12.12 0-17.04-5.76-4.92-5.88-4.92-19.44v-57.24q0-2.76.12-4.08.24-1.44 1.08-3.24 1.68-3.12 9.36-3.12 7.32 0 9.12 3.36.96 1.68 1.08 3.12.24 1.32.24 4.08v57.6q0 3.72 1.08 3.72m31.32-3.72q0 2.28.96 3t4.92.72 6.6 2.04 2.64 8.4-2.88 8.52q-2.76 2.04-7.8 2.04-25.44 0-25.44-25.2l-.12-57.24q0-2.76.12-4.08.24-1.44 1.2-3.24 1.8-3.12 9.36-3.12 7.32 0 9.12 3.36 1.32 2.64 1.32 7.2zM693.23 518.48q2.28.72 3.72 2.52 1.56 1.68 1.56 5.52t-2.28 8.4-6.6 4.56q-2.16 0-4.2-.96-1.92-.96-5.16-.96t-6.12 2.28q-2.76 2.28-2.76 5.52v25.2q0 2.76-.24 4.2-.12 1.32-1.08 3.12-1.8 3.12-9.36 3.12-5.76 0-8.28-2.04-1.92-1.68-2.16-5.16v-45.599999999999994q0-2.76.12-4.08.24-1.44 1.08-3.12 1.68-3.24 9.36-3.24 7.2 0 9 2.76 1.32 1.92 1.32 3.96.6-.84 1.68-2.04 1.2-1.2 4.92-3.24t6.48-2.04q2.88 0 4.8.36 1.92.24 4.2.96M762.44 541.88q0 7.32-3.72 10.92-3.6 3.48-8.04 3.48h-28.44q0 3.36 3.96 5.64t7.92 2.28q6.96 0 10.92-1.44l1.32-.48q2.88-1.32 4.8-1.32 3.84 0 6.6 5.4 1.56 3.24 1.56 5.52 0 10.68-25.56 10.68-8.88 0-15.84-3-6.84-3.12-10.68-8.16-7.56-9.72-7.56-21.72 0-15.12 9.72-24.12 9.84-9.12 24.48-9.12 16.68 0 24.48 11.76 4.08 6.24 4.08 13.68m-25.32 3.48q4.56 0 4.56-3.84 0-2.76-2.16-4.44-2.04-1.68-6-1.68-3.84 0-7.68 3.24-3.84 3.12-3.84 6.72zM811.31 524.48q.72-6.72 9.48-6.72 4.68 0 6.96.72t3.12 2.52q.96 1.8 1.08 3.24.24 1.32.24 4.08v42q0 2.76-.24 4.2-.12 1.32-.96 3.12-1.68 3.12-8.28 3.12-6.48 0-8.76-1.56-2.16-1.68-2.52-4.8-4.44 6.36-14.88 6.36-10.32 0-19.2-9.48t-8.88-21.96q0-12.6 8.88-21.96 9-9.48 19.68-9.48 4.08 0 7.44 1.44t4.68 2.76q1.32 1.2 2.16 2.4m-21.84 24.96q0 3.96 3.12 7.2 3.12 3.12 7.56 3.12t7.32-3.24q3-3.24 3-7.08 0-3.96-2.88-7.32-2.76-3.36-7.56-3.36-4.68 0-7.68 3.36-2.88 3.36-2.88 7.32M884.114 491.48q.96-1.8 3.24-2.52t6-.72q3.84 0 6.12.72t3.12 2.52q.96 1.8 1.08 3.24.24 1.32.24 4.08v71.64q0 2.76-.24 4.2-.12 1.32-1.08 3-1.8 3.24-10.2 3.24-8.28 0-9.24-5.88-5.04 5.76-14.04 5.76-10.8 0-19.68-9.36-8.88-9.48-8.88-21.96 0-12.6 8.88-22.08 9-9.48 19.68-9.48 8.88 0 13.8 6v-25.2q0-2.76.12-4.08.24-1.44 1.08-3.12m-19.44 65.16q3.12 3.24 7.56 3.24t7.32-3.24q3-3.24 3-7.08 0-3.96-2.88-7.32-2.76-3.36-7.56-3.36t-7.68 3.36q-2.88 3.24-2.88 7.2t3.12 7.2M334.255 671l-7.8-.48v16.56q0 3.24.96 4.68 1.08 1.44 3.84 1.44 2.88 0 4.32.24 1.56.12 3.24 1.08 2.76 1.56 2.76 8.04 0 7.56-3.36 9.24-1.8.84-3.24 1.08-1.32.12-3.96.12-12.48 0-18.96-5.64t-6.48-19.08v-17.76q-2.28.36-4.92.36t-4.44-2.04q-1.68-2.04-1.68-6.96t.6-7.08q.6-2.28 1.68-3.24 1.92-1.56 4.8-1.56l3.96.48v-12.36q0-2.76.12-4.08.24-1.32 1.2-2.88 1.56-3 9.24-3 8.16 0 9.72 4.44.6 1.92.6 6.12v11.76q5.28-.48 7.92-.48 2.76 0 4.08.24 1.44.12 3.24 1.08 3.12 1.56 3.12 9.24 0 7.56-3.24 9.24-1.8.84-3.24 1.08-1.32.12-4.08.12M386.481 650q12 0 19.92 9.12 8.04 9.12 8.04 22.32v21.12q0 2.76-.24 4.2-.12 1.32-1.08 3.12-1.56 3.12-9.24 3.12-7.32 0-9.12-3.12-.96-1.8-1.2-3.24-.12-1.44-.12-4.32v-21q0-4.92-2.76-7.68t-7.08-2.76q-4.2 0-7.44 2.64-3.24 2.52-3.72 5.76v23.28q0 2.76-.24 4.2-.12 1.32-1.08 3.12-1.56 3.12-9.24 3.12-7.56 0-9.24-3.24-.84-1.8-1.08-3.12-.12-1.32-.12-4.2v-71.76q0-2.76.12-4.08.24-1.44 1.08-3.12 1.68-3.24 9.36-3.24 7.56 0 9.12 3.24.96 1.8 1.08 3.24.24 1.32.24 4.08v26.52q6-7.32 14.04-7.32M424.098 660.32q0-2.76.12-4.08.24-1.44 1.08-3.24 1.68-3.12 9.36-3.12 5.76 0 8.16 2.04 2.04 1.68 2.16 5.16.12 1.2.12 3.48v42q0 2.76-.24 4.2-.12 1.32-1.08 3.12-1.56 3.12-9.24 3.12-7.56 0-9.24-3.24-.84-1.8-1.08-3.12-.12-1.32-.12-4.2zm19.68-22.2q-.84 1.68-3.12 2.4t-6.12.72q-3.72 0-6-.72t-3.24-2.52q-.84-1.8-1.08-3.12-.12-1.44-.12-4.2t.12-4.08q.24-1.44 1.08-3.12 1.68-3.24 9.36-3.24 7.56 0 9.12 3.24.96 1.8 1.08 3.24.24 1.32.24 4.08t-.24 4.2q-.12 1.32-1.08 3.12M455.164 707.36q-2.28-1.44-2.28-4.56t4.56-9.48q1.32-2.04 4.2-2.04 3 0 8.04 3 5.04 2.88 9.12 2.88 7.32 0 7.32-2.88 0-2.28-8.04-3.36-7.56-1.08-15-5.64-3.48-2.16-5.76-6.72-2.28-4.68-2.28-11.04 0-18.96 26.04-18.96 8.52 0 17.52 4.08 4.2 1.92 4.2 4.8t-2.64 7.08-5.4 4.2q-1.44 0-5.4-1.8-3.84-1.8-8.4-1.8-7.08 0-7.08 2.64 0 3.6 8.16 4.68 7.92.84 15.36 4.56 3.48 1.68 5.76 5.88 2.4 4.08 2.4 10.32t-2.4 10.68q-2.28 4.32-6.48 6.48-7.68 3.72-19.32 3.72-11.52 0-22.2-6.72M580.706 649.88q8.28 0 9.72 4.56.72 2.28.72 6t-.84 6q-.72 2.16-2.4 3.12-2.52 1.44-7.32 1.44l-7.68-.48v32.16q0 4.56-1.2 6.84-1.08 2.16-3.48 2.88-2.28.72-6 .72t-6-.72q-2.16-.84-3.12-2.52-.96-1.8-1.2-3.24-.12-1.44-.12-4.2v-31.8h-4.32q-3.12-.24-4.44-1.44-2.28-2.28-2.28-8.76 0-9.84 7.08-9.84h3.96v-6.36q0-9.24 6.6-16.68 6.6-7.56 19.08-7.56 2.76 0 4.08.24 1.44.12 3.24 1.08 3.24 1.56 3.24 9.24 0 5.76-2.04 8.28-1.68 1.92-5.28 2.16h-3.36q-4.44 0-4.44 3v6.6zm17.52 10.44q0-2.76.12-4.08.24-1.44 1.08-3.24 1.68-3.12 9.36-3.12 5.76 0 8.16 2.04 2.04 1.68 2.16 5.16.12 1.2.12 3.48v42q0 2.76-.24 4.2-.12 1.32-1.08 3.12-1.56 3.12-9.24 3.12-7.56 0-9.24-3.24-.84-1.8-1.08-3.12-.12-1.32-.12-4.2zm19.68-22.2q-.84 1.68-3.12 2.4t-6.12.72q-3.72 0-6-.72t-3.24-2.52q-.84-1.8-1.08-3.12-.12-1.44-.12-4.2t.12-4.08q.24-1.44 1.08-3.12 1.68-3.24 9.36-3.24 7.56 0 9.12 3.24.96 1.8 1.08 3.24.24 1.32.24 4.08t-.24 4.2q-.12 1.32-1.08 3.12M671.784 650.48q2.28.72 3.72 2.52 1.56 1.68 1.56 5.52t-2.28 8.4-6.6 4.56q-2.16 0-4.2-.96-1.92-.96-5.16-.96t-6.12 2.28q-2.76 2.28-2.76 5.52v25.2q0 2.76-.24 4.2-.12 1.32-1.08 3.12-1.8 3.12-9.36 3.12-5.76 0-8.28-2.04-1.92-1.68-2.16-5.16v-45.599999999999994q0-2.76.12-4.08.24-1.44 1.08-3.12 1.68-3.24 9.36-3.24 7.2 0 9 2.76 1.32 1.92 1.32 3.96.6-.84 1.68-2.04 1.2-1.2 4.92-3.24t6.48-2.04q2.88 0 4.8.36 1.92.24 4.2.96M681.804 707.36q-2.28-1.44-2.28-4.56t4.56-9.48q1.32-2.04 4.2-2.04 3 0 8.04 3 5.04 2.88 9.12 2.88 7.32 0 7.32-2.88 0-2.28-8.04-3.36-7.56-1.08-15-5.64-3.48-2.16-5.76-6.72-2.28-4.68-2.28-11.04 0-18.96 26.04-18.96 8.52 0 17.52 4.08 4.2 1.92 4.2 4.8t-2.64 7.08-5.4 4.2q-1.44 0-5.4-1.8-3.84-1.8-8.4-1.8-7.08 0-7.08 2.64 0 3.6 8.16 4.68 7.92.84 15.36 4.56 3.48 1.68 5.76 5.88 2.4 4.08 2.4 10.32t-2.4 10.68q-2.28 4.32-6.48 6.48-7.68 3.72-19.32 3.72-11.52 0-22.2-6.72M774.88 671l-7.8-.48v16.56q0 3.24.96 4.68 1.08 1.44 3.84 1.44 2.88 0 4.32.24 1.56.12 3.24 1.08 2.76 1.56 2.76 8.04 0 7.56-3.36 9.24-1.8.84-3.24 1.08-1.32.12-3.96.12-12.48 0-18.96-5.64t-6.48-19.08v-17.76q-2.28.36-4.92.36t-4.44-2.04q-1.68-2.04-1.68-6.96t.6-7.08q.6-2.28 1.68-3.24 1.92-1.56 4.8-1.56l3.96.48v-12.36q0-2.76.12-4.08.24-1.32 1.2-2.88 1.56-3 9.24-3 8.16 0 9.72 4.44.6 1.92.6 6.12v11.76q5.28-.48 7.92-.48 2.76 0 4.08.24 1.44.12 3.24 1.08 3.12 1.56 3.12 9.24 0 7.56-3.24 9.24-1.8.84-3.24 1.08-1.32.12-4.08.12"/></svg>