<svg xmlns="http://www.w3.org/2000/svg" width="1080" height="1350" fill="none"><path fill="#000" d="M302.138 444.2q-.84 0-1.32-.52t-.48-1.28q0-.32.2-.8l10.2-24.08q.28-.64.84-1.12.6-.52 1.48-.52h.4q.92 0 1.48.52.561.48.84 1.12l10.2 24.08q.2.48.2.8 0 .76-.48 1.28t-1.32.52q-1.24 0-1.72-1.12l-2.6-6.24h-13.6l-2.6 6.24q-.48 1.12-1.72 1.12m5.72-10.68h10.8l-5.4-13zM332.908 444.2a1.74 1.74 0 0 1-1.28-.52 1.74 1.74 0 0 1-.52-1.28v-17.16q0-.801.52-1.32.52-.52 1.28-.52t1.28.52q.56.519.56 1.32v1.64a15.4 15.4 0 0 1 3-2.52q1.76-1.16 4.44-1.16 2.28 0 3.88 1.08 1.6 1.04 2.44 2.84.84 1.76.84 3.92v11.36q0 .76-.56 1.28-.52.52-1.28.52a1.74 1.74 0 0 1-1.28-.52 1.74 1.74 0 0 1-.52-1.28v-10.96q0-2.28-1.04-3.56-1-1.32-3.36-1.32-2.16 0-3.76 1.16t-2.8 2.68v12q0 .76-.56 1.28-.52.52-1.28.52M363.923 444.4q-2.4 0-4.64-1.24-2.2-1.24-3.64-3.6-1.4-2.361-1.4-5.76 0-3.4 1.4-5.76 1.44-2.361 3.64-3.6 2.24-1.24 4.64-1.24 2.12 0 3.8.8t3.04 2.24v-9.8q0-.801.52-1.32.56-.52 1.32-.52t1.28.52.52 1.32v25.96q0 .76-.52 1.28t-1.28.52-1.32-.52a1.74 1.74 0 0 1-.52-1.28v-1.04q-1.36 1.44-3.04 2.24t-3.8.8m.52-3.4q1.96 0 3.56-.84a10.6 10.6 0 0 0 2.76-2.16v-8.4a9.9 9.9 0 0 0-2.76-2.12q-1.6-.88-3.56-.88-2.84 0-4.72 1.84-1.84 1.8-1.84 5.36 0 3.52 1.84 5.36 1.88 1.84 4.72 1.84M395.668 453.4q-.72 0-1.24-.52-.48-.52-.48-1.24 0-.36.12-.64l2.6-6.68-7.52-18.32a3 3 0 0 0-.12-.36 2 2 0 0 1-.04-.4q0-.76.52-1.28.52-.56 1.28-.56.56 0 1 .32.48.32.68.8l6.16 15.28 6.28-15.2q.24-.56.64-.88.44-.32 1.04-.32.76 0 1.28.56.52.52.52 1.28 0 .36-.12.68l-10.92 26.24q-.24.52-.64.88t-1.04.36M421.319 444.4q-3.081 0-5.4-1.32a9.47 9.47 0 0 1-3.6-3.72q-1.24-2.4-1.24-5.56t1.24-5.52q1.28-2.4 3.6-3.72 2.319-1.36 5.4-1.36 3.08 0 5.36 1.36 2.319 1.32 3.6 3.72 1.28 2.36 1.28 5.52t-1.28 5.56a9.5 9.5 0 0 1-3.6 3.72q-2.28 1.32-5.36 1.32m0-3.32q1.52 0 3.04-.72t2.52-2.32q1.04-1.64 1.04-4.28t-1.04-4.24q-1-1.6-2.52-2.28-1.52-.72-3.04-.72t-3.08.72q-1.521.68-2.52 2.28t-1 4.24q0 2.64 1 4.28.999 1.6 2.52 2.32 1.56.72 3.08.72M443.615 444.4q-2.28 0-3.88-1.04a6.94 6.94 0 0 1-2.44-2.88q-.84-1.8-.84-3.92V425.2q0-.76.52-1.28.56-.52 1.32-.52t1.28.52.52 1.28v10.96q0 2.28 1.04 3.6 1.04 1.28 3.36 1.28 2.16 0 3.76-1.16 1.6-1.2 2.8-2.68v-12q0-.76.52-1.28.56-.52 1.32-.52t1.28.52.52 1.28v17.16q0 .759-.52 1.32-.52.52-1.28.52t-1.32-.52a1.88 1.88 0 0 1-.52-1.32v-1.64q-1.24 1.359-3 2.52-1.761 1.16-4.44 1.16M477.5 444.2q-.8 0-1.44-.48-.64-.52-.88-1.2l-5.68-16.64q-.12-.36-.12-.68 0-.76.52-1.28t1.28-.52q.56 0 1 .28.48.28.64.8l4.68 15.4 4.64-15.04q.201-.64.72-1.04.56-.4 1.24-.4t1.24.4.72 1.04l4.64 15.04 4.68-15.4a1.36 1.36 0 0 1 .64-.8q.48-.28 1-.28.76 0 1.28.52t.52 1.28q0 .32-.12.68l-5.68 16.64q-.24.68-.88 1.2a2.34 2.34 0 0 1-1.44.48q-.8 0-1.44-.48a3 3 0 0 1-.92-1.24l-4.24-13.24-4.24 13.24q-.28.72-.92 1.24-.64.48-1.44.48M504.82 419.44q-.84 0-1.44-.6t-.6-1.44v-.16q0-.84.6-1.44t1.44-.6h.24q.84 0 1.44.6t.6 1.44v.16q0 .84-.6 1.44t-1.44.6zm.08 24.76q-.76 0-1.28-.52a1.74 1.74 0 0 1-.52-1.28v-17.16q0-.801.52-1.32.52-.52 1.28-.52.8 0 1.32.52.52.519.52 1.32v17.16q0 .76-.52 1.28t-1.32.52M514.861 444.2a1.74 1.74 0 0 1-1.28-.52 1.74 1.74 0 0 1-.52-1.28v-25.96q0-.801.52-1.32.52-.52 1.28-.52.8 0 1.32.52.52.519.52 1.32v25.96q0 .76-.52 1.28t-1.32.52M524.822 444.2a1.74 1.74 0 0 1-1.28-.52 1.74 1.74 0 0 1-.52-1.28v-25.96q0-.801.52-1.32.52-.52 1.28-.52.8 0 1.32.52.52.519.52 1.32v25.96q0 .76-.52 1.28t-1.32.52M545.173 444.2q-.76 0-1.28-.52a1.74 1.74 0 0 1-.52-1.28v-17.16q0-.76.52-1.28.52-.56 1.28-.56t1.28.56q.56.52.56 1.28v1.72q1.08-1.44 2.64-2.6t3.64-1.16h.2q.76 0 1.24.52.52.52.52 1.28t-.52 1.24q-.519.48-1.32.48h-.2q-1.96 0-3.56 1a8.2 8.2 0 0 0-2.64 2.52v12.16q0 .76-.56 1.28a1.74 1.74 0 0 1-1.28.52M567.22 444.4q-4.88 0-7.64-2.76-2.72-2.8-2.72-7.84 0-2.72 1-5.12a8.95 8.95 0 0 1 3.12-3.96q2.12-1.52 5.44-1.52 3.08 0 5.2 1.44a8.9 8.9 0 0 1 3.2 3.68q1.12 2.28 1.12 4.96 0 .76-.52 1.28-.48.52-1.32.52h-13.56q.32 2.679 2.04 4.32 1.72 1.6 4.96 1.6 1.8 0 3.04-.32 1.24-.36 2.36-.92.32-.16.72-.16.64 0 1.12.44t.48 1.12q0 .48-.32.88-.28.36-.72.6-1.32.76-2.88 1.28-1.52.48-4.12.48m-6.68-12.28h11.8q-.12-2.08-1.08-3.36-.92-1.28-2.24-1.88t-2.6-.6-2.6.6-2.24 1.88-1.04 3.36M585.956 444.4a7.5 7.5 0 0 1-3.24-.72 6.15 6.15 0 0 1-2.4-2.04q-.88-1.36-.88-3.24 0-2.84 2.24-4.64 2.28-1.84 6.96-1.84h4.84v-.32q0-2.68-1.32-3.8-1.32-1.16-4.04-1.16-1.68 0-2.96.32-1.24.28-2.36.64-.32.08-.52.08-.6 0-1.04-.44a1.47 1.47 0 0 1-.44-1.08q0-1.08 1.04-1.52 1.4-.6 3.08-1 1.72-.44 3.84-.44 2.92 0 4.76 1.16t2.72 2.96.88 3.76v11.32q0 .76-.56 1.28-.52.52-1.28.52t-1.28-.52a1.74 1.74 0 0 1-.52-1.28v-1.04q-1.08 1.12-2.88 2.08t-4.64.96m1.36-3.2a7.1 7.1 0 0 0 3.52-.92q1.64-.92 2.64-2.08v-3.36h-4.36q-2.8 0-4.44.72-1.6.72-1.6 2.44 0 1.28.88 2.24.92.96 3.36.96M611.657 444.4q-2.4 0-4.64-1.24-2.2-1.24-3.64-3.6-1.4-2.361-1.4-5.76 0-3.4 1.4-5.76 1.44-2.361 3.64-3.6 2.24-1.24 4.64-1.24 2.12 0 3.8.8t3.04 2.24v-9.8q0-.801.52-1.32.56-.52 1.32-.52t1.28.52.52 1.32v25.96q0 .76-.52 1.28t-1.28.52-1.32-.52a1.74 1.74 0 0 1-.52-1.28v-1.04q-1.36 1.44-3.04 2.24t-3.8.8m.52-3.4q1.96 0 3.56-.84a10.6 10.6 0 0 0 2.76-2.16v-8.4a9.9 9.9 0 0 0-2.76-2.12q-1.6-.88-3.56-.88-2.84 0-4.72 1.84-1.84 1.8-1.84 5.36 0 3.52 1.84 5.36 1.88 1.84 4.72 1.84M645.882 444.4q-.72 0-1.72-.16-.96-.12-1.92-.6-.92-.52-1.56-1.6t-.64-2.92v-12.4h-2.84q-.76 0-.76-.76 0-.4.36-.68l5.44-5.32q.08-.08.24-.2a.7.7 0 0 1 .44-.16q.32 0 .52.24.24.24.24.56v3.2h4.52q.68 0 1.12.44t.44 1.12q0 .64-.44 1.12-.44.44-1.12.44h-4.52v12.08q0 1.16.44 1.68t1.04.64q.64.08 1.12.08.96 0 1.4-.16.48-.2 1-.2.56 0 1 .4t.44 1.04q0 .92-.92 1.4-.72.32-1.56.52-.8.2-1.76.2M655.915 444.2q-.76 0-1.28-.52a1.74 1.74 0 0 1-.52-1.28v-25.96q0-.801.52-1.32a1.74 1.74 0 0 1 1.28-.52q.76 0 1.28.52.56.519.56 1.32v10.44a15.5 15.5 0 0 1 3-2.52q1.761-1.16 4.44-1.16 2.28 0 3.88 1.08 1.6 1.04 2.44 2.84.84 1.76.84 3.92v11.36q0 .76-.56 1.28a1.74 1.74 0 0 1-1.28.52q-.76 0-1.28-.52a1.74 1.74 0 0 1-.52-1.28v-10.96q0-2.28-1.04-3.56-.999-1.32-3.36-1.32-2.16 0-3.76 1.16t-2.8 2.68v12q0 .76-.56 1.28a1.74 1.74 0 0 1-1.28.52M680.21 419.44q-.84 0-1.44-.6t-.6-1.44v-.16q0-.84.6-1.44t1.44-.6h.24q.84 0 1.44.6t.6 1.44v.16q0 .84-.6 1.44t-1.44.6zm.08 24.76q-.76 0-1.28-.52a1.74 1.74 0 0 1-.52-1.28v-17.16q0-.801.52-1.32a1.74 1.74 0 0 1 1.28-.52q.801 0 1.32.52.52.519.52 1.32v17.16q0 .76-.52 1.28-.519.52-1.32.52M695.051 444.4q-2.2 0-4-.48a14.8 14.8 0 0 1-3.28-1.32q-.68-.48-.68-1.32 0-.6.44-1.08.44-.52 1.12-.52.36 0 .72.16 1.08.48 2.36.84 1.32.36 3.08.36 2.32 0 3.36-.72 1.08-.76 1.08-2.12 0-.88-.88-1.36-.84-.48-2.24-.8-1.359-.36-2.88-.72a18 18 0 0 1-2.92-1.04 6.5 6.5 0 0 1-2.24-1.8q-.84-1.16-.84-2.96 0-2.72 1.96-4.52t5.84-1.8q1.64 0 3.08.28a18 18 0 0 1 2.72.72q.561.16.84.64.32.44.32.88 0 .64-.48 1.12-.44.48-1.12.48h-.28l-.24-.08a14.4 14.4 0 0 0-2.12-.52q-1.12-.2-2.44-.2-2.2 0-3.4.8t-1.2 2q0 1.04.84 1.6.88.56 2.24.92 1.4.32 2.92.68 1.56.36 2.92 1.04 1.4.639 2.24 1.8.88 1.16.88 3.12 0 2.439-1.96 4.2-1.92 1.72-5.76 1.72M719.861 444.2a1.74 1.74 0 0 1-1.28-.52 1.74 1.74 0 0 1-.52-1.28v-25.96q0-.801.52-1.32.52-.52 1.28-.52.8 0 1.32.52.52.519.52 1.32v25.96q0 .76-.52 1.28t-1.32.52M733.222 444.4a7.5 7.5 0 0 1-3.24-.72 6.15 6.15 0 0 1-2.4-2.04q-.88-1.36-.88-3.24 0-2.84 2.24-4.64 2.28-1.84 6.96-1.84h4.84v-.32q0-2.68-1.32-3.8-1.32-1.16-4.04-1.16-1.68 0-2.96.32-1.24.28-2.36.64-.32.08-.52.08-.6 0-1.04-.44a1.47 1.47 0 0 1-.44-1.08q0-1.08 1.04-1.52 1.4-.6 3.08-1 1.719-.44 3.84-.44 2.92 0 4.76 1.16t2.72 2.96.88 3.76v11.32q0 .76-.56 1.28-.52.52-1.28.52a1.74 1.74 0 0 1-1.28-.52 1.74 1.74 0 0 1-.52-1.28v-1.04q-1.08 1.12-2.88 2.08t-4.64.96m1.36-3.2a7.1 7.1 0 0 0 3.52-.92q1.64-.92 2.64-2.08v-3.36h-4.36q-2.8 0-4.44.72-1.6.72-1.6 2.44 0 1.28.88 2.24.92.96 3.36.96M757.083 444.4q-2.2 0-4-.48a14.8 14.8 0 0 1-3.28-1.32q-.68-.48-.68-1.32 0-.6.44-1.08a1.4 1.4 0 0 1 1.12-.52q.36 0 .72.16 1.08.48 2.36.84 1.32.36 3.08.36 2.319 0 3.36-.72 1.08-.76 1.08-2.12 0-.88-.88-1.36-.84-.48-2.24-.8-1.36-.36-2.88-.72a18 18 0 0 1-2.92-1.04q-1.36-.681-2.24-1.8-.84-1.16-.84-2.96 0-2.72 1.96-4.52t5.84-1.8q1.64 0 3.08.28 1.48.279 2.72.72.56.16.84.64.32.44.32.88 0 .64-.48 1.12-.44.48-1.12.48h-.28l-.24-.08a14.4 14.4 0 0 0-2.12-.52q-1.12-.2-2.44-.2-2.2 0-3.4.8t-1.2 2q0 1.04.84 1.6.88.56 2.24.92 1.4.32 2.92.68 1.56.36 2.92 1.04 1.4.639 2.24 1.8.88 1.16.88 3.12 0 2.439-1.96 4.2-1.92 1.72-5.76 1.72M776.585 444.4q-.72 0-1.72-.16-.96-.12-1.92-.6-.92-.52-1.56-1.6t-.64-2.92v-12.4h-2.84q-.76 0-.76-.76 0-.4.36-.68l5.44-5.32a2 2 0 0 1 .24-.2.7.7 0 0 1 .44-.16q.32 0 .52.24.24.24.24.56v3.2h4.52q.68 0 1.12.44t.44 1.12q0 .64-.44 1.12-.44.44-1.12.44h-4.52v12.08q0 1.16.44 1.68t1.04.64q.64.08 1.12.08.96 0 1.4-.16.48-.2 1-.2.56 0 1 .4t.44 1.04q0 .92-.92 1.4-.72.32-1.56.52-.8.2-1.76.2M300.398 806.235a2.04 2.04 0 0 1-1.504-.611 2.04 2.04 0 0 1-.611-1.504v-26.931h-9.588q-.846 0-1.41-.564t-.564-1.41.564-1.41a1.84 1.84 0 0 1 1.41-.611h23.406q.846 0 1.41.611.61.564.611 1.41a1.84 1.84 0 0 1-.611 1.41q-.564.564-1.41.564h-9.541v26.931q0 .892-.658 1.504a2.05 2.05 0 0 1-1.504.611M320.773 806.235a2.05 2.05 0 0 1-1.504-.611 2.05 2.05 0 0 1-.611-1.504v-30.503q0-.94.611-1.551t1.504-.611 1.504.611q.658.61.658 1.551v12.267a18.2 18.2 0 0 1 3.525-2.961q2.069-1.363 5.217-1.363 2.68 0 4.559 1.269 1.88 1.221 2.867 3.337.987 2.068.987 4.606v13.348q0 .892-.658 1.504a2.05 2.05 0 0 1-1.504.611 2.05 2.05 0 0 1-1.504-.611 2.05 2.05 0 0 1-.611-1.504v-12.878q0-2.68-1.222-4.183-1.174-1.551-3.948-1.551-2.538 0-4.418 1.363a16.5 16.5 0 0 0-3.29 3.149v14.1q0 .892-.658 1.504a2.05 2.05 0 0 1-1.504.611M358.485 806.47q-5.734 0-8.977-3.243-3.196-3.29-3.196-9.212 0-3.196 1.175-6.016 1.175-2.868 3.666-4.653 2.49-1.786 6.392-1.786 3.618 0 6.11 1.692a10.46 10.46 0 0 1 3.76 4.324q1.316 2.678 1.316 5.828 0 .892-.611 1.504-.564.61-1.551.611h-15.933q.375 3.149 2.397 5.076 2.02 1.88 5.828 1.88 2.115 0 3.572-.376a16.5 16.5 0 0 0 2.773-1.081q.375-.188.846-.188.752 0 1.316.517.564.516.564 1.316 0 .564-.376 1.034-.33.423-.846.705a18.5 18.5 0 0 1-3.384 1.504q-1.787.564-4.841.564m-7.849-14.429h13.865q-.141-2.445-1.269-3.948-1.081-1.504-2.632-2.209t-3.055-.705-3.055.705-2.632 2.209-1.222 3.948M376.975 806.235a2.04 2.04 0 0 1-1.504-.611 2.04 2.04 0 0 1-.611-1.504v-20.163q0-.94.611-1.551.61-.612 1.504-.611.892 0 1.504.611.658.61.658 1.551v1.927a18.1 18.1 0 0 1 3.525-2.961q2.067-1.363 5.217-1.363 2.678 0 4.559 1.269 1.88 1.221 2.867 3.337.987 2.068.987 4.606v13.348q0 .892-.658 1.504a2.05 2.05 0 0 1-1.504.611 2.04 2.04 0 0 1-1.504-.611 2.04 2.04 0 0 1-.611-1.504v-12.878q0-2.68-1.222-4.183-1.176-1.551-3.948-1.551-2.538 0-4.418 1.363a16.5 16.5 0 0 0-3.29 3.149v14.1q0 .892-.658 1.504a2.05 2.05 0 0 1-1.504.611M422.007 817.045a2 2 0 0 1-1.457-.611 2.08 2.08 0 0 1-.564-1.457q0-.423.141-.752l3.055-7.849-8.836-21.526a3 3 0 0 0-.141-.423 2.4 2.4 0 0 1-.047-.47q0-.894.611-1.504a1.97 1.97 0 0 1 1.504-.658q.659 0 1.175.376.564.375.799.94l7.238 17.954 7.379-17.86q.282-.659.752-1.034.517-.376 1.222-.376a1.97 1.97 0 0 1 1.504.658q.611.61.611 1.504 0 .423-.141.799l-12.831 30.832a3.1 3.1 0 0 1-.752 1.034q-.47.423-1.222.423M452.617 806.47q-3.62 0-6.345-1.551a11.14 11.14 0 0 1-4.23-4.371q-1.457-2.82-1.457-6.533t1.457-6.486q1.505-2.82 4.23-4.371 2.726-1.598 6.345-1.598 3.62 0 6.298 1.598 2.726 1.551 4.23 4.371 1.504 2.772 1.504 6.486t-1.504 6.533a11.14 11.14 0 0 1-4.23 4.371q-2.679 1.551-6.298 1.551m0-3.901q1.786 0 3.572-.846t2.961-2.726q1.222-1.927 1.222-5.029t-1.222-4.982q-1.175-1.881-2.961-2.679-1.786-.846-3.572-.846t-3.619.846q-1.786.798-2.961 2.679t-1.175 4.982 1.175 5.029q1.174 1.88 2.961 2.726 1.833.846 3.619.846M479.285 806.47q-2.68 0-4.559-1.222-1.88-1.269-2.867-3.384t-.987-4.606V783.91q0-.894.611-1.504a2.2 2.2 0 0 1 1.551-.611q.892 0 1.504.611.61.61.611 1.504v12.878q0 2.679 1.222 4.23 1.221 1.504 3.948 1.504 2.538 0 4.418-1.363 1.88-1.41 3.29-3.149v-14.1q0-.894.611-1.504a2.2 2.2 0 0 1 1.551-.611q.892 0 1.504.611.61.61.611 1.504v20.163q0 .893-.611 1.551a2.05 2.05 0 0 1-1.504.611 2.2 2.2 0 0 1-1.551-.611 2.2 2.2 0 0 1-.611-1.551v-1.927q-1.458 1.598-3.525 2.961-2.069 1.362-5.217 1.363M520.04 806.235q-.939 0-1.692-.564-.752-.612-1.034-1.41l-6.674-19.552a2.5 2.5 0 0 1-.141-.799q0-.894.611-1.504a2.04 2.04 0 0 1 1.504-.611q.659 0 1.175.329.564.328.752.94l5.499 18.095 5.452-17.672a2.4 2.4 0 0 1 .846-1.222q.659-.47 1.457-.47.8 0 1.457.47.659.47.846 1.222l5.452 17.672 5.499-18.095a1.6 1.6 0 0 1 .752-.94q.564-.33 1.175-.329.894 0 1.504.611.612.61.611 1.504 0 .376-.141.799l-6.674 19.552q-.282.798-1.034 1.41a2.75 2.75 0 0 1-1.692.564q-.939 0-1.692-.564a3.5 3.5 0 0 1-1.081-1.457l-4.982-15.557-4.982 15.557a3.5 3.5 0 0 1-1.081 1.457 2.75 2.75 0 0 1-1.692.564M552.611 777.142a2.3 2.3 0 0 1-1.692-.705 2.3 2.3 0 0 1-.705-1.692v-.188q0-.987.705-1.692a2.3 2.3 0 0 1 1.692-.705h.282q.987 0 1.692.705t.705 1.692v.188q0 .987-.705 1.692t-1.692.705zm.094 29.093a2.05 2.05 0 0 1-1.504-.611 2.05 2.05 0 0 1-.611-1.504v-20.163q0-.94.611-1.551.611-.612 1.504-.611.94 0 1.551.611.61.61.611 1.551v20.163q0 .892-.611 1.504-.61.61-1.551.611M564.879 806.235a2.05 2.05 0 0 1-1.504-.611 2.05 2.05 0 0 1-.611-1.504v-30.503q0-.94.611-1.551a2.04 2.04 0 0 1 1.504-.611q.94 0 1.551.611.611.61.611 1.551v30.503q0 .892-.611 1.504-.61.61-1.551.611M577.053 806.235a2.05 2.05 0 0 1-1.504-.611 2.05 2.05 0 0 1-.611-1.504v-30.503q0-.94.611-1.551a2.04 2.04 0 0 1 1.504-.611q.94 0 1.551.611.611.61.611 1.551v30.503q0 .892-.611 1.504-.61.61-1.551.611M601.906 806.235a2.05 2.05 0 0 1-1.504-.611 2.05 2.05 0 0 1-.611-1.504v-20.163q0-.894.611-1.504a1.97 1.97 0 0 1 1.504-.658 1.97 1.97 0 0 1 1.504.658q.658.61.658 1.504v2.021a15.1 15.1 0 0 1 3.102-3.055q1.833-1.363 4.277-1.363h.235q.894 0 1.457.611.611.61.611 1.504 0 .893-.611 1.457-.61.564-1.551.564h-.235q-2.302 0-4.183 1.175a9.7 9.7 0 0 0-3.102 2.961v14.288q0 .892-.658 1.504a2.04 2.04 0 0 1-1.504.611M628.281 806.47q-5.734 0-8.977-3.243-3.196-3.29-3.196-9.212 0-3.196 1.175-6.016 1.174-2.868 3.666-4.653 2.491-1.786 6.392-1.786 3.619 0 6.11 1.692a10.45 10.45 0 0 1 3.76 4.324q1.316 2.678 1.316 5.828 0 .892-.611 1.504-.564.61-1.551.611h-15.933q.376 3.149 2.397 5.076 2.02 1.88 5.828 1.88 2.115 0 3.572-.376a16.5 16.5 0 0 0 2.773-1.081q.377-.188.846-.188.752 0 1.316.517.564.516.564 1.316 0 .564-.376 1.034a2.7 2.7 0 0 1-.846.705 18.5 18.5 0 0 1-3.384 1.504q-1.786.564-4.841.564m-7.849-14.429h13.865q-.141-2.445-1.269-3.948-1.081-1.504-2.632-2.209-1.55-.705-3.055-.705-1.504 0-3.055.705-1.55.705-2.632 2.209-1.081 1.503-1.222 3.948M650.766 806.47a8.8 8.8 0 0 1-3.807-.846 7.24 7.24 0 0 1-2.82-2.397q-1.034-1.599-1.034-3.807 0-3.337 2.632-5.452 2.679-2.163 8.178-2.162h5.687v-.376q0-3.15-1.551-4.465-1.55-1.363-4.747-1.363-1.974 0-3.478.376-1.457.329-2.773.752a2.7 2.7 0 0 1-.611.094q-.705 0-1.222-.517a1.73 1.73 0 0 1-.517-1.269q0-1.27 1.222-1.786a22 22 0 0 1 3.619-1.175q2.02-.517 4.512-.517 3.431 0 5.593 1.363t3.196 3.478a9.94 9.94 0 0 1 1.034 4.418v13.301q0 .892-.658 1.504a2.05 2.05 0 0 1-1.504.611 2.05 2.05 0 0 1-1.504-.611 2.05 2.05 0 0 1-.611-1.504v-1.222q-1.269 1.316-3.384 2.444t-5.452 1.128m1.598-3.76a8.3 8.3 0 0 0 4.136-1.081q1.928-1.082 3.102-2.444v-3.948h-5.123q-3.29 0-5.217.846-1.88.846-1.88 2.867 0 1.504 1.034 2.632 1.082 1.128 3.948 1.128M681.435 806.47q-2.82 0-5.452-1.457-2.586-1.458-4.277-4.23-1.645-2.774-1.645-6.768 0-3.996 1.645-6.768 1.692-2.774 4.277-4.23 2.631-1.457 5.452-1.457 2.49 0 4.465.94 1.973.94 3.572 2.632v-11.515q0-.94.611-1.551a2.2 2.2 0 0 1 1.551-.611q.892 0 1.504.611.61.61.611 1.551v30.503q0 .892-.611 1.504a2.05 2.05 0 0 1-1.504.611 2.2 2.2 0 0 1-1.551-.611 2.04 2.04 0 0 1-.611-1.504v-1.222q-1.599 1.692-3.572 2.632-1.975.94-4.465.94m.611-3.995q2.302 0 4.183-.987a12.4 12.4 0 0 0 3.243-2.538v-9.87a11.6 11.6 0 0 0-3.243-2.491q-1.88-1.035-4.183-1.034-3.338 0-5.546 2.162-2.163 2.115-2.162 6.298 0 4.135 2.162 6.298 2.208 2.162 5.546 2.162M722.589 806.47q-.845 0-2.021-.188a7 7 0 0 1-2.256-.705q-1.081-.611-1.833-1.88-.752-1.27-.752-3.431v-14.57h-3.337q-.893 0-.893-.893 0-.47.423-.799l6.392-6.251q.095-.094.282-.235a.8.8 0 0 1 .517-.188q.377 0 .611.282a.9.9 0 0 1 .282.658v3.76h5.311q.799 0 1.316.517.517.516.517 1.316 0 .752-.517 1.316-.517.517-1.316.517h-5.311v14.194q0 1.362.517 1.974.517.61 1.222.752.752.094 1.316.094 1.128 0 1.645-.188a3 3 0 0 1 1.175-.235q.658 0 1.175.47t.517 1.222q0 1.08-1.081 1.645-.846.375-1.833.611a8.6 8.6 0 0 1-2.068.235M734.848 806.235a2.05 2.05 0 0 1-1.504-.611 2.05 2.05 0 0 1-.611-1.504v-30.503q0-.94.611-1.551a2.04 2.04 0 0 1 1.504-.611q.894 0 1.504.611.658.61.658 1.551v12.267a18.2 18.2 0 0 1 3.525-2.961q2.069-1.363 5.217-1.363 2.68 0 4.559 1.269 1.88 1.221 2.867 3.337.987 2.068.987 4.606v13.348q0 .892-.658 1.504a2.04 2.04 0 0 1-1.504.611 2.05 2.05 0 0 1-1.504-.611 2.05 2.05 0 0 1-.611-1.504v-12.878q0-2.68-1.222-4.183-1.174-1.551-3.948-1.551-2.538 0-4.418 1.363a16.5 16.5 0 0 0-3.29 3.149v14.1q0 .892-.658 1.504a2.04 2.04 0 0 1-1.504.611M763.865 777.142a2.3 2.3 0 0 1-1.692-.705 2.3 2.3 0 0 1-.705-1.692v-.188q0-.987.705-1.692a2.3 2.3 0 0 1 1.692-.705h.282q.987 0 1.692.705t.705 1.692v.188q0 .987-.705 1.692t-1.692.705zm.094 29.093a2.05 2.05 0 0 1-1.504-.611 2.05 2.05 0 0 1-.611-1.504v-20.163q0-.94.611-1.551.611-.612 1.504-.611.94 0 1.551.611.61.61.611 1.551v20.163q0 .892-.611 1.504-.61.61-1.551.611M781.773 806.47q-2.585 0-4.7-.564a17.4 17.4 0 0 1-3.854-1.551q-.798-.564-.799-1.551 0-.705.517-1.269a1.65 1.65 0 0 1 1.316-.611q.423 0 .846.188a20.5 20.5 0 0 0 2.773.987q1.552.423 3.619.423 2.727 0 3.948-.846 1.269-.894 1.269-2.491 0-1.034-1.034-1.598-.987-.565-2.632-.94a133 133 0 0 0-3.384-.846 21.4 21.4 0 0 1-3.431-1.222q-1.597-.8-2.632-2.115-.987-1.363-.987-3.478 0-3.196 2.303-5.311t6.862-2.115q1.927 0 3.619.329 1.74.328 3.196.846.659.188.987.752.376.516.376 1.034 0 .752-.564 1.316-.516.564-1.316.564h-.329l-.282-.094a17 17 0 0 0-2.491-.611 16.3 16.3 0 0 0-2.867-.235q-2.585 0-3.995.94t-1.41 2.35q0 1.221.987 1.88 1.035.658 2.632 1.081a411 411 0 0 1 3.431.799q1.833.423 3.431 1.222 1.645.752 2.632 2.115 1.034 1.362 1.034 3.666 0 2.866-2.303 4.935-2.256 2.02-6.768 2.021M131.75 569.56q-.24-6.6-.48-14.04-.12-7.56-.12-17.4l-23.88-34.2q-.96-1.32-1.56-2.76-.48-1.44-.48-2.76 0-2.28 1.2-3.72 1.32-1.56 4.44-1.56 2.52 0 4.44 1.44 2.04 1.32 3.72 3.96l17.88 28.44 17.88-28.44q1.68-2.64 3.6-3.96a7.72 7.72 0 0 1 4.56-1.44q3.12 0 4.32 1.56 1.32 1.44 1.32 3.72 0 1.32-.6 2.76-.48 1.44-1.44 2.76l-23.4 33.48q0 8.16-.24 15.72-.12 7.44-.48 16.32-.12 2.88-.6 4.44-.36 1.56-1.08 2.4t-1.68.96q-.84.24-2.04.24-2.16 0-3.6-1.44-1.44-1.56-1.68-6.48M196.464 516.16q6.84 0 12.24 2.16 5.4 2.04 9.12 5.88 3.84 3.84 5.88 9.36t2.04 12.36q0 7.56-2.4 13.56-2.28 6-6.48 10.2-4.08 4.2-9.84 6.48-5.64 2.28-12.36 2.28-7.32 0-12.96-2.52-5.52-2.52-9.36-6.84-3.72-4.32-5.64-9.96t-1.92-11.88q0-6.84 2.16-12.48 2.28-5.76 6.36-9.84 4.2-4.2 10.08-6.48t13.08-2.28m-1.32 51.24q4.92 0 8.4-1.68 3.48-1.8 5.64-4.68 2.28-2.88 3.24-6.48 1.08-3.72 1.08-7.68 0-4.08-1.08-7.56-.96-3.6-3.12-6.24-2.04-2.64-5.4-4.08-3.24-1.56-7.8-1.56-4.68 0-8.16 1.56t-5.88 4.32q-2.28 2.64-3.48 6.36t-1.2 8.04q0 8.76 4.44 14.28 4.56 5.4 13.32 5.4M247.039 522.64q.24 3.12.12 7.56 0 4.44.12 9.36.24 4.8.84 9.72.6 4.8 2.04 8.64 1.56 3.84 4.2 6.24 2.76 2.4 7.08 2.4t6.96-2.4q2.76-2.4 4.2-6.24 1.56-3.84 2.16-8.64.6-4.92.72-9.72.24-4.92.12-9.36 0-4.44.24-7.56.48-7.44 6.12-7.44 2.16 0 3.36 1.2t1.68 3.36q.6 2.16.72 5.16t.12 6.72q0 7.68-.84 15.96-.72 8.16-3.48 15-2.64 6.84-7.92 11.28t-14.16 4.44-14.16-4.44-8.04-11.28q-2.64-6.84-3.48-15-.72-8.28-.72-15.96 0-3.72.12-6.72t.6-5.16q.6-2.16 1.8-3.36t3.36-1.2q5.64 0 6.12 7.44M355.873 531.64q.72-1.56 2.04-2.28 1.44-.84 3.12-.84 1.44 0 2.76.72 1.44.72 2.28 2.28 3.48 6.48 6.24 13.2 2.88 6.6 6.12 13.44 3-9.72 5.28-18.72 2.28-9.12 4.68-17.88.84-3.12 2.28-4.08 1.44-1.08 3.72-1.08 2.04 0 3.36 1.2 1.32 1.08 1.32 3 0 1.56-.84 5.52-.72 3.84-2.04 9-1.2 5.04-2.76 10.8-1.44 5.76-3 11.04-1.44 5.28-2.76 9.6t-2.04 6.48q-.96 2.76-2.28 4.08-1.32 1.44-4.08 1.44-2.52 0-4.2-1.92-1.68-2.04-3.12-4.8-.48-.96-1.56-3.24t-2.64-5.4q-1.44-3.12-3.24-6.84-1.68-3.72-3.48-7.56-1.8 3.84-3.72 7.56-1.8 3.72-3.36 6.96-1.56 3.12-2.76 5.4-1.08 2.28-1.56 3.24-1.44 2.76-3.12 4.8-1.56 1.92-4.2 1.92-4.2 0-6.36-5.52-.84-2.16-2.16-6.36-1.32-4.32-2.76-9.6t-2.88-10.92q-1.44-5.76-2.64-10.8-1.08-5.04-1.8-8.88t-.72-5.52q0-2.04 1.08-3.36 1.2-1.32 3.36-1.32 2.4 0 3.84 1.08 1.56.96 2.4 4.08 2.4 8.76 4.68 17.88 2.28 9 5.28 18.72 2.64-5.76 5.28-12t6.96-14.52M411.928 569.56q-.24-4.44-.48-10.08-.12-5.76-.12-12.6 0-8.52.12-14.52.12-6.12.6-9.96.6-3.96 1.8-5.76 1.2-1.92 3.36-1.92 2.04 0 3.6 1.44t1.8 6.24q.72 12.6.72 24.36 0 6-.24 11.28-.24 5.16-.48 11.4-.12 2.88-.6 4.44-.36 1.56-1.08 2.4t-1.68.96q-.84.24-2.04.24-2.16 0-3.6-1.44-1.44-1.56-1.68-6.48m5.4-76.56q2.76 0 5.04 2.16 2.4 2.16 2.4 5.16 0 2.88-2.4 5.04-2.4 2.04-5.4 2.04-2.52 0-4.8-2.04-2.16-2.16-2.16-5.28 0-2.88 2.16-4.92 2.28-2.16 5.16-2.16M438.878 570.04q-.12-4.32-.24-10.08t-.24-12.48q0-6.72-.12-14.16v-15.24q0-8.52.12-14.64t.6-10.08q.6-3.96 1.8-5.76 1.2-1.92 3.36-1.92 2.04 0 3.6 1.32t1.8 6.12q.48 8.64.6 18 .12 9.24.12 18.24v10.44q0 4.92-.12 9.84-.12 4.8-.24 9.84t-.36 10.44q-.12 2.88-.6 4.44-.36 1.56-1.08 2.4t-1.68.96q-.84.24-2.04.24-2.16 0-3.6-1.44-1.44-1.56-1.68-6.48M465.714 570.04q-.12-4.32-.24-10.08t-.24-12.48q0-6.72-.12-14.16v-15.24q0-8.52.12-14.64t.6-10.08q.6-3.96 1.8-5.76 1.2-1.92 3.36-1.92 2.04 0 3.6 1.32t1.8 6.12q.48 8.64.6 18 .12 9.24.12 18.24v10.44q0 4.92-.12 9.84-.12 4.8-.24 9.84t-.36 10.44q-.12 2.88-.6 4.44-.36 1.56-1.08 2.4t-1.68.96q-.84.24-2.04.24-2.16 0-3.6-1.44-1.44-1.56-1.68-6.48M517.508 569.68q-.48-4.2-.6-10.2t-.12-14.52V531.4q.12-5.16.72-9.12.6-4.92 1.8-6.36 1.32-1.44 3.36-1.44 1.44 0 2.52.24 1.2.24 2.04 1.08.96.72 1.44 2.16t.48 3.96q0 .48.12.96v1.08q.12.48.12 1.2 3.24-4.08 7.32-6.96 4.2-2.88 9.48-2.88 7.08 0 7.08 5.88 0 2.16-.96 3.6-.84 1.44-2.52 2.4-1.56.84-3.72 1.32-2.04.48-4.56.96-3.84.72-7.2 2.76-3.36 1.92-4.56 4.92v3.36q.12 1.08.12 1.8.12.72.12 1.56v2.64q0 6.12-.24 11.52-.24 5.28-.48 11.52-.12 2.88-.72 4.44-.48 1.56-1.32 2.4-.72.84-1.68.96-.96.24-1.92.24-3.36 0-4.56-1.44-1.08-1.56-1.56-6.48M589.863 554.92q-4.2 0-8.88-.6-4.56-.72-9.96-2.88 1.08 7.32 6 11.04 5.04 3.72 14.4 3.72 3.36 0 6-.36 2.76-.48 4.8-.96 2.04-.6 3.6-.96 1.56-.48 2.88-.48 1.68 0 3.24 1.08 1.56.96 1.56 3.36 0 3-2.52 4.92-2.4 1.92-6 3.12-3.48 1.08-7.44 1.44-3.96.48-6.96.48-7.08 0-13.08-1.92-5.88-1.92-10.2-5.76-4.32-3.96-6.72-9.72t-2.4-13.44q0-7.44 2.28-13.2 2.4-5.76 6.48-9.72t9.6-6q5.64-2.04 12.12-2.04 5.04 0 9.72 1.32 4.8 1.32 8.4 3.96 3.72 2.64 5.88 6.72 2.28 3.96 2.28 9.36 0 4.8-1.8 8.16t-5.16 5.4q-3.24 2.04-7.92 3-4.56.96-10.2.96m-.84-27.84q-3.24 0-6.24.84-3 .72-5.52 2.52-2.4 1.68-4.08 4.56-1.68 2.76-2.28 6.96 4.56 2.04 8.88 2.88 4.32.72 9.12.72 7.08 0 10.44-1.68 3.48-1.8 3.48-6.36 0-4.2-3.24-7.32-3.12-3.12-10.56-3.12M675.561 577.48q-1.92 0-3.12-.6a5.16 5.16 0 0 1-1.68-1.8q-.6-1.08-.84-2.52-.24-1.56-.36-3.24-3 3.72-7.8 6.24-4.68 2.52-12 2.52-4.68 0-9.6-1.32-4.8-1.44-8.76-4.8-3.96-3.48-6.48-9.24t-2.52-14.52q0-6.84 1.68-12.84t5.04-10.44q3.48-4.56 8.64-7.2t12.12-2.64q6.12 0 10.92 2.28 4.8 2.16 8.64 7.2 0-1.44.12-2.88.12-1.56.6-2.76.6-1.32 1.8-2.04 1.2-.84 3.24-.84 1.8 0 3.36 1.44t1.8 6.24q.36 6.36.48 11.4.24 5.04.24 10.44 0 6.6-.12 12.12t-.6 11.76q-.24 2.76-.72 4.44-.36 1.56-.96 2.4-.6.72-1.44.96t-1.68.24m-6.48-30.48q0-6.24-1.92-10.2-1.8-3.96-4.68-6.12-2.76-2.28-6-3.12t-6-.84q-4.32 0-7.44 1.56-3 1.56-4.92 4.32-1.92 2.64-2.88 6.36-.84 3.6-.84 7.92 0 10.56 4.56 15.6 4.68 5.04 12.6 5.04 4.68 0 7.92-1.56 3.36-1.68 5.4-4.44 2.16-2.76 3.12-6.48 1.08-3.84 1.08-8.04M745.19 576.76q-2.4 0-4.08-1.92-1.56-1.92-2.159-4.44-1.44 1.32-3.361 2.64-1.8 1.32-4.2 2.52-2.4 1.08-5.28 1.8t-6.24.72q-4.08 0-9.12-1.32-4.92-1.44-9.36-4.8-4.32-3.48-7.32-9.36-2.88-5.88-2.88-14.76 0-7.56 2.28-13.44t6.36-9.84q4.2-4.08 9.84-6.12 5.76-2.16 12.48-2.16 5.76 0 9.12 1.32t5.28 3.12v-15.36q.12-3.96.12-7.2.12-3.24.24-4.92.24-4.08 1.44-5.52 1.2-1.56 4.2-1.56 3.12 0 4.2 1.56 1.2 1.44 1.44 5.16.12 1.56.12 4.2.12 2.64.12 5.76v6.36q.12 3.12.12 5.76v5.88q0 12.24-.24 22.56-.12 10.32-.12 16.44.24 1.32.96 2.52l1.68 2.4q.96 1.2 1.68 2.52t.72 2.76q0 1.68-.839 3a7.5 7.5 0 0 1-2.161 2.04q-1.2.84-2.64 1.32-1.32.36-2.4.36m-23.16-10.56q7.44 0 11.4-4.44t3.96-14.64q0-19.56-15.48-19.56-3.6 0-6.96 1.08t-5.999 3.36q-2.521 2.28-4.201 5.76-1.56 3.48-1.56 8.28 0 3.96 1.08 7.56 1.2 3.6 3.48 6.48 2.4 2.76 5.88 4.44 3.6 1.68 8.4 1.68M798.283 569.2q-.36-7.56-.48-17.88v-23.64q-1.2.12-2.88.12h-2.52q-2.16 0-3.96-.12-1.68-.12-3-.72t-2.04-1.68q-.72-1.2-.72-3.24 0-5.76 8.64-5.76h3.24q1.92 0 3.24.24 0-6.36.24-10.2t.84-5.88q.72-2.16 1.8-2.76 1.2-.72 3-.72 1.92 0 3.12 1.32t1.8 3.36q.72 2.04.84 4.56.24 2.52.24 4.92 0 1.68-.12 3.12v2.4q1.68-.48 3.48-.48 1.8-.12 3.48-.12 4.44 0 6.84 1.44 2.4 1.32 2.4 4.44 0 1.92-.84 3.12-.84 1.08-2.28 1.68-1.32.6-3.24.84-1.8.12-3.96.12h-2.76q-1.56 0-2.88-.24v11.64q0 5.28-.12 10.2l-.24 9.6q-.12 4.8-.36 10.2-.12 2.88-.6 4.44-.36 1.56-1.08 2.4t-1.68 1.08q-.84.12-2.04.12-2.16 0-3.72-1.44-1.44-1.56-1.68-6.48M863.738 527.68q-4.44 0-8.04 1.32-3.48 1.32-7.92 3.6v2.28q0 2.16-.12 5.52 0 3.36-.12 7.56 0 4.08-.12 8.28 0 4.08-.24 7.8-.12 3.72-.24 6.24-.24 2.52-.6 3.96-.24 1.44-.72 2.16-.36.6-1.08.72t-1.56.12q-2.04 0-3.24-.24-1.08-.12-1.8-.72-.72-.72-1.08-2.04-.24-1.32-.48-3.6t-.48-6.24q-.12-4.08-.24-9-.12-5.04-.24-10.68v-22.8q.12-6.24.24-11.88.12-5.76.24-10.2.12-4.56.36-6.72.24-3.12 1.08-5.4.96-2.28 4.08-2.28 2.4 0 3.84 1.68 1.56 1.68 1.8 6.36.24 4.2.36 11.76.24 7.44.36 16.8 1.68-1.32 4.08-2.4 2.4-1.2 5.04-1.92 2.64-.84 5.4-1.32t5.16-.48q5.76 0 9.96 2.76 4.32 2.64 6.84 7.68 1.68 3.24 2.52 7.2.84 3.84 1.2 8.16l.24 3.84q.12 1.8.12 3.96.12 2.04.12 4.68v6.24q0 3.6-.12 6.72-.12 3-.72 5.28-.48 2.16-1.68 3.48-1.2 1.2-3.36 1.2-3.12 0-4.68-1.92-1.44-2.04-1.44-4.8v-2.52q0-2.4-.12-5.52 0-3.24-.12-6.48 0-3.24-.12-5.28-.12-1.92-.36-4.08-.12-2.28-.48-4.56-.24-2.28-.72-4.32-.48-2.16-1.2-3.84-1.68-3.96-4.2-5.04t-5.4-1.08M903.061 569.56q-.24-4.44-.48-10.08-.12-5.76-.12-12.6 0-8.52.12-14.52.12-6.12.6-9.96.6-3.96 1.8-5.76 1.2-1.92 3.36-1.92 2.04 0 3.6 1.44t1.8 6.24q.72 12.6.72 24.36 0 6-.24 11.28-.24 5.16-.48 11.4-.12 2.88-.6 4.44-.36 1.56-1.08 2.4t-1.68.96q-.84.24-2.04.24-2.16 0-3.6-1.44-1.44-1.56-1.68-6.48m5.4-76.56q2.76 0 5.04 2.16 2.4 2.16 2.4 5.16 0 2.88-2.4 5.04-2.4 2.04-5.4 2.04-2.52 0-4.8-2.04-2.16-2.16-2.16-5.28 0-2.88 2.16-4.92 2.28-2.16 5.16-2.16M950.411 514.36q2.52 0 6.36.48 3.84.36 7.32 1.56 3.48 1.08 6 3.12t2.52 5.16q0 1.8-1.08 3.12-.96 1.32-3.12 1.32-1.56 0-3.6-.48l-4.32-1.08q-2.28-.72-5.04-1.2-2.64-.48-5.64-.48-5.04 0-8.28 1.56-3.12 1.56-3.12 4.92 0 1.92 1.08 3.24 1.2 1.32 3.12 2.4 2.04.96 4.68 1.68 2.76.72 5.76 1.44 3.72.96 7.32 2.16 3.72 1.2 6.6 3.36 2.88 2.04 4.68 5.28 1.8 3.12 1.8 7.8 0 8.88-6.72 14.16-6.72 5.16-19.8 5.16-2.88 0-6.84-.48-3.96-.36-7.44-1.56-3.48-1.08-6-3.12-2.4-2.16-2.4-5.64 0-2.4 1.08-3.6 1.2-1.32 2.88-1.32 1.32 0 2.76.84t3.48 1.8 4.92 1.8 7.08.84q1.56 0 4.08-.12 2.52-.24 4.92-1.08 2.52-.84 4.2-2.28 1.8-1.56 1.8-4.32 0-2.16-1.2-3.6-1.2-1.56-3.24-2.64t-4.8-1.8q-2.64-.84-5.64-1.68-3.48-.96-7.08-2.16-3.48-1.2-6.36-3.12a15.75 15.75 0 0 1-4.68-4.8q-1.8-3-1.8-7.32 0-4.08 1.68-7.56 1.68-3.6 4.8-6.24t7.44-4.08q4.44-1.44 9.84-1.44M443.675 660.28l-2.64.24h-2.4q-3.96 0-5.88-1.2-2.04-1.32-2.04-4.92 0-2.76 1.56-4.32 1.44-1.68 5.88-1.68 2.76 0 5.64.36v-6.96q0-4.8 1.08-9.12t3.36-7.56q2.28-3.36 5.88-5.28 3.72-2.04 9-2.04 4.8 0 6.72 1.44 1.92 1.32 1.92 4.44t-2.52 3.84-5.76.72q-3.96 0-6 3.48-1.92 3.48-1.92 8.52v8.4q1.56-.36 3-.36 1.56-.12 3.24-.12 4.44 0 6.24 1.44 1.92 1.44 1.92 4.56 0 3.96-2.52 5.16-2.52 1.08-6.72 1.08h-2.52q-1.32 0-2.64-.24v41.28q0 2.88-.48 4.44t-1.32 2.4-1.92.96q-1.08.24-2.28.24-1.08 0-2.16-.36-1.08-.24-1.92-1.08-.72-.96-1.32-2.52-.48-1.56-.48-3.96zm35.76 41.28q-.24-4.44-.48-10.08-.12-5.76-.12-12.6 0-8.52.12-14.52.12-6.12.6-9.96.6-3.96 1.8-5.76 1.2-1.92 3.36-1.92 2.04 0 3.6 1.44t1.8 6.24q.72 12.6.72 24.36 0 6-.24 11.28-.24 5.16-.48 11.4-.12 2.88-.6 4.44-.36 1.56-1.08 2.4t-1.68.96q-.84.24-2.04.24-2.16 0-3.6-1.44-1.44-1.56-1.68-6.48m5.4-76.56q2.76 0 5.04 2.16 2.4 2.16 2.4 5.16 0 2.88-2.4 5.04-2.4 2.04-5.4 2.04-2.52 0-4.8-2.04-2.16-2.16-2.16-5.28 0-2.88 2.16-4.92 2.28-2.16 5.16-2.16M506.317 701.68q-.48-4.2-.6-10.2t-.12-14.52V663.4q.12-5.16.72-9.12.6-4.92 1.8-6.36 1.32-1.44 3.36-1.44 1.44 0 2.52.24 1.2.24 2.04 1.08.96.72 1.44 2.16t.48 3.96q0 .48.12.96v1.08q.12.48.12 1.2 3.24-4.08 7.32-6.96 4.2-2.88 9.48-2.88 7.08 0 7.08 5.88 0 2.16-.96 3.6-.84 1.44-2.52 2.4-1.56.84-3.72 1.32-2.04.48-4.56.96-3.84.72-7.2 2.76-3.36 1.92-4.56 4.92v3.36q.12 1.08.12 1.8.12.72.12 1.56v2.64q0 6.12-.24 11.52-.24 5.28-.48 11.52-.12 2.88-.72 4.44-.48 1.56-1.32 2.4-.72.84-1.68.96-.96.24-1.92.24-3.36 0-4.56-1.44-1.08-1.56-1.56-6.48M572.071 646.36q2.52 0 6.36.48 3.84.36 7.32 1.56 3.48 1.08 6 3.12t2.52 5.16q0 1.8-1.08 3.12-.96 1.32-3.12 1.32-1.56 0-3.6-.48l-4.32-1.08q-2.28-.72-5.04-1.2-2.64-.48-5.64-.48-5.04 0-8.28 1.56-3.12 1.56-3.12 4.92 0 1.92 1.08 3.24 1.2 1.32 3.12 2.4 2.04.96 4.68 1.68 2.76.72 5.76 1.44 3.72.96 7.32 2.16 3.72 1.2 6.6 3.36 2.88 2.04 4.68 5.28 1.8 3.12 1.8 7.8 0 8.88-6.72 14.16-6.72 5.16-19.8 5.16-2.88 0-6.84-.48-3.96-.36-7.44-1.56-3.48-1.08-6-3.12-2.4-2.16-2.4-5.64 0-2.4 1.08-3.6 1.2-1.32 2.88-1.32 1.32 0 2.76.84t3.48 1.8 4.92 1.8 7.08.84q1.56 0 4.08-.12 2.52-.24 4.92-1.08 2.52-.84 4.2-2.28 1.8-1.56 1.8-4.32 0-2.16-1.2-3.6-1.2-1.56-3.24-2.64t-4.8-1.8q-2.64-.84-5.64-1.68-3.48-.96-7.08-2.16-3.48-1.2-6.36-3.12a15.75 15.75 0 0 1-4.68-4.8q-1.8-3-1.8-7.32 0-4.08 1.68-7.56 1.68-3.6 4.8-6.24t7.44-4.08q4.44-1.44 9.84-1.44M616.467 701.2q-.36-7.56-.48-17.88v-23.64q-1.2.12-2.88.12h-2.52q-2.16 0-3.96-.12-1.68-.12-3-.72t-2.04-1.68q-.72-1.2-.72-3.24 0-5.76 8.64-5.76h3.24q1.92 0 3.24.24 0-6.36.24-10.2t.84-5.88q.72-2.16 1.8-2.76 1.2-.72 3-.72 1.92 0 3.12 1.32t1.8 3.36q.72 2.04.84 4.56.24 2.52.24 4.92 0 1.68-.12 3.12v2.4q1.68-.48 3.48-.48 1.8-.12 3.48-.12 4.44 0 6.84 1.44 2.4 1.32 2.4 4.44 0 1.92-.84 3.12-.84 1.08-2.28 1.68-1.32.6-3.24.84-1.8.12-3.96.12h-2.76q-1.56 0-2.88-.24v11.64q0 5.28-.12 10.2l-.24 9.6q-.12 4.8-.36 10.2-.12 2.88-.6 4.44-.36 1.56-1.08 2.4t-1.68 1.08q-.84.12-2.04.12-2.16 0-3.72-1.44-1.44-1.56-1.68-6.48"/></svg>