<svg xmlns="http://www.w3.org/2000/svg" width="1080" height="1350" fill="none"><path fill="#000" d="m331.804 448-2.8-8.24h-11.28l-2.8 8.24h-3.4l9.76-27.92h4.28l9.76 27.92zm-8.36-24.8h-.2l-4.72 13.6h9.64zM339.629 448v-20.64h3.2v3.36h.16q.76-1.76 2.12-2.8 1.4-1.04 3.72-1.04 3.2 0 5.04 2.08 1.88 2.04 1.88 5.8V448h-3.2v-12.68q0-5.56-4.68-5.56-.96 0-1.88.24-.88.24-1.6.72t-1.16 1.24q-.4.72-.4 1.72V448zM375.563 444.64h-.16q-1.88 3.84-6.04 3.84-1.92 0-3.48-.76a7.7 7.7 0 0 1-2.68-2.16q-1.08-1.4-1.68-3.4-.56-2-.56-4.48t.56-4.48q.6-2 1.68-3.4a7.76 7.76 0 0 1 2.68-2.16q1.56-.76 3.48-.76 2.16 0 3.68.96 1.56.921 2.36 2.88h.16V418.4h3.2V448h-3.2zm-5.32.96q1.08 0 2.04-.28 1-.28 1.72-.8.72-.56 1.12-1.32.44-.8.44-1.8v-7.68q0-.84-.44-1.56a3.7 3.7 0 0 0-1.12-1.28q-.72-.52-1.72-.8a6.4 6.4 0 0 0-2.04-.32q-2.72 0-4.28 1.72-1.56 1.68-1.56 4.44v3.52q0 2.76 1.56 4.48 1.56 1.68 4.28 1.68M407.739 427.36h3.16l-9.24 25.44q-.36.92-.72 1.52-.36.64-.88 1-.519.36-1.32.52-.76.16-1.88.16h-1.64v-2.8h3.24l1.56-4.4-7.72-21.44h3.2l4.96 14.04.96 3.36h.2l1.12-3.36zM422.585 448.48q-2.08 0-3.8-.76a8.5 8.5 0 0 1-2.96-2.16q-1.2-1.44-1.88-3.4-.68-2-.68-4.48 0-2.439.68-4.44.68-2 1.88-3.4a8.3 8.3 0 0 1 2.96-2.2q1.72-.76 3.8-.76t3.76.76a8.3 8.3 0 0 1 2.96 2.2q1.24 1.4 1.92 3.4t.68 4.44q0 2.48-.68 4.48-.68 1.96-1.92 3.4a8.5 8.5 0 0 1-2.96 2.16q-1.68.76-3.76.76m0-2.84q2.6 0 4.24-1.6t1.64-4.88v-2.96q0-3.28-1.64-4.88t-4.24-1.6-4.24 1.6-1.64 4.88v2.96q0 3.28 1.64 4.88t4.24 1.6M449.888 444.64h-.16q-.32.72-.8 1.44a5.4 5.4 0 0 1-1.12 1.24q-.68.52-1.64.84t-2.24.32q-3.2 0-5.08-2.04-1.88-2.08-1.88-5.84v-13.24h3.2v12.68q0 5.56 4.72 5.56.96 0 1.84-.24.92-.24 1.6-.72.72-.48 1.12-1.2.44-.759.44-1.8v-14.28h3.2V448h-3.2zM467.195 427.36h3.12l2.2 8.92 2.2 9.04h.08l2.52-9.04 2.6-8.92h2.84l2.68 8.92 2.56 9.04h.08l2.12-9.04 2.24-8.92h3l-5.48 20.64h-3.96l-2.88-9.92-1.8-6.28h-.08l-1.76 6.28-2.88 9.92h-3.88zM501.658 422.52q-1.04 0-1.52-.48-.44-.519-.44-1.32v-.52q0-.8.44-1.28.48-.52 1.52-.52t1.48.52q.48.48.48 1.28v.52q0 .801-.48 1.32-.44.48-1.48.48m-1.6 4.84h3.2V448h-3.2zM513.458 448q-1.68 0-2.56-.92-.84-.96-.84-2.4V418.4h3.2v26.8h3.04v2.8zM524.162 448q-1.68 0-2.56-.92-.84-.96-.84-2.4V418.4h3.2v26.8h3.04v2.8zM541.113 448v-20.64h3.2v3.8h.2q.56-1.479 2-2.64 1.44-1.16 3.96-1.16h1.24v3.2h-1.88q-2.6 0-4.08 1-1.44.96-1.44 2.44v14zM563.365 448.48q-2.12 0-3.84-.76a8.6 8.6 0 0 1-2.92-2.16q-1.2-1.44-1.88-3.4-.64-2-.64-4.48 0-2.439.64-4.44.68-2 1.88-3.4a8.4 8.4 0 0 1 2.92-2.2q1.72-.76 3.84-.76 2.08 0 3.72.76a8.1 8.1 0 0 1 2.8 2.12q1.16 1.32 1.76 3.16.64 1.84.64 4.04v1.52h-14.84v.96q0 1.32.4 2.48.441 1.12 1.2 1.96.801.84 1.92 1.32 1.16.48 2.6.48 1.96 0 3.4-.92 1.48-.92 2.28-2.64l2.28 1.64q-.999 2.12-3.12 3.44-2.12 1.28-5.04 1.28m0-18.92q-1.32 0-2.4.48-1.08.44-1.88 1.28a6.3 6.3 0 0 0-1.2 2q-.44 1.12-.44 2.48v.28h11.4v-.44q0-2.76-1.52-4.4-1.479-1.68-3.96-1.68M592.558 448q-1.8 0-2.6-.96-.759-.96-.96-2.4h-.2q-.68 1.92-2.24 2.88t-3.72.96q-3.28 0-5.12-1.68-1.8-1.68-1.8-4.56 0-2.92 2.12-4.48 2.16-1.56 6.68-1.56h4.08v-2.04q0-2.199-1.2-3.36-1.2-1.16-3.68-1.16-1.88 0-3.16.84-1.24.84-2.08 2.24l-1.92-1.8q.84-1.68 2.68-2.84 1.84-1.2 4.64-1.2 3.76 0 5.84 1.84t2.08 5.12v11.36h2.36v2.8zm-9.2-2.24q1.2 0 2.2-.28t1.72-.8q.72-.519 1.12-1.2t.4-1.48v-3.4h-4.24q-2.76 0-4.04.8-1.24.8-1.24 2.32v.84q0 1.52 1.08 2.36 1.12.84 3 .84M612.126 444.64h-.16q-1.88 3.84-6.04 3.84-1.92 0-3.48-.76a7.7 7.7 0 0 1-2.68-2.16q-1.08-1.4-1.68-3.4-.56-2-.56-4.48t.56-4.48q.6-2 1.68-3.4a7.75 7.75 0 0 1 2.68-2.16q1.56-.76 3.48-.76 2.16 0 3.68.96 1.56.921 2.36 2.88h.16V418.4h3.2V448h-3.2zm-5.32.96q1.08 0 2.04-.28 1-.28 1.72-.8.72-.56 1.12-1.32.44-.8.44-1.8v-7.68q0-.84-.44-1.56a3.7 3.7 0 0 0-1.12-1.28q-.72-.52-1.72-.8a6.4 6.4 0 0 0-2.04-.32q-2.72 0-4.28 1.72-1.56 1.68-1.56 4.44v3.52q0 2.76 1.56 4.48 1.56 1.68 4.28 1.68M636.142 448q-1.68 0-2.56-.92-.84-.96-.84-2.48v-14.44h-3.4v-2.8h1.92q1.04 0 1.4-.4.4-.44.4-1.48v-3.84h2.88v5.72h4.52v2.8h-4.52v15.04h4.2v2.8zM645.605 418.4h3.2v12.32h.16q.76-1.76 2.12-2.8 1.401-1.04 3.72-1.04 3.201 0 5.04 2.08 1.88 2.04 1.88 5.8V448h-3.2v-12.68q0-5.56-4.68-5.56-.96 0-1.88.24-.88.24-1.6.72t-1.16 1.24q-.4.72-.4 1.72V448h-3.2zM669.94 422.52q-1.04 0-1.52-.48-.44-.519-.44-1.32v-.52q0-.8.44-1.28.48-.52 1.52-.52t1.48.52q.48.48.48 1.28v.52q0 .801-.48 1.32-.44.48-1.48.48m-1.6 4.84h3.2V448h-3.2zM684.54 448.48q-2.88 0-4.84-1.08a11.3 11.3 0 0 1-3.32-2.96l2.28-1.84q1.2 1.52 2.68 2.36 1.48.8 3.44.8 2.04 0 3.16-.88 1.16-.88 1.16-2.48 0-1.2-.8-2.04-.76-.879-2.8-1.2l-1.64-.24a14.7 14.7 0 0 1-2.64-.6 8.4 8.4 0 0 1-2.12-1.12 5.3 5.3 0 0 1-1.4-1.76q-.48-1.04-.48-2.48 0-1.52.56-2.64a5.4 5.4 0 0 1 1.52-1.92q1-.76 2.36-1.12 1.36-.4 2.92-.4 2.52 0 4.2.88a9.4 9.4 0 0 1 3 2.44l-2.12 1.92q-.68-.96-2-1.72-1.32-.8-3.32-.8t-3.04.88q-1 .84-1 2.32 0 1.52 1 2.2 1.04.68 2.96 1l1.6.24q3.44.52 4.88 2 1.44 1.44 1.44 3.8 0 3-2.04 4.72t-5.6 1.72M710.685 448q-1.68 0-2.56-.92-.84-.96-.84-2.4V418.4h3.2v26.8h3.04v2.8zM733.183 448q-1.8 0-2.6-.96-.759-.96-.96-2.4h-.2q-.68 1.92-2.24 2.88t-3.72.96q-3.28 0-5.12-1.68-1.8-1.68-1.8-4.56 0-2.92 2.12-4.48 2.16-1.56 6.68-1.56h4.08v-2.04q0-2.199-1.2-3.36-1.2-1.16-3.68-1.16-1.88 0-3.16.84-1.24.84-2.08 2.24l-1.92-1.8q.84-1.68 2.68-2.84 1.84-1.2 4.64-1.2 3.76 0 5.84 1.84t2.08 5.12v11.36h2.36v2.8zm-9.2-2.24q1.2 0 2.2-.28t1.72-.8q.72-.519 1.12-1.2t.4-1.48v-3.4h-4.24q-2.76 0-4.04.8-1.24.8-1.24 2.32v.84q0 1.52 1.08 2.36 1.12.84 3 .84M745.751 448.48q-2.88 0-4.84-1.08a11.3 11.3 0 0 1-3.32-2.96l2.28-1.84q1.2 1.52 2.68 2.36 1.48.8 3.44.8 2.04 0 3.16-.88 1.16-.88 1.16-2.48 0-1.2-.8-2.04-.76-.879-2.8-1.2l-1.64-.24a14.7 14.7 0 0 1-2.64-.6 8.4 8.4 0 0 1-2.12-1.12 5.3 5.3 0 0 1-1.4-1.76q-.48-1.04-.48-2.48 0-1.52.56-2.64a5.4 5.4 0 0 1 1.52-1.92q1-.76 2.36-1.12 1.36-.4 2.92-.4 2.52 0 4.2.88a9.4 9.4 0 0 1 3 2.44l-2.12 1.92q-.68-.96-2-1.72-1.32-.8-3.32-.8t-3.04.88q-1 .84-1 2.32 0 1.52 1 2.2 1.04.68 2.96 1l1.6.24q3.44.52 4.88 2 1.44 1.44 1.44 3.8 0 3-2.04 4.72t-5.6 1.72M763.329 448q-1.68 0-2.56-.92-.84-.96-.84-2.48v-14.44h-3.4v-2.8h1.92q1.04 0 1.4-.4.4-.44.4-1.48v-3.84h2.88v5.72h4.52v2.8h-4.52v15.04h4.2v2.8zM313.23 781.672V811h-3.948v-29.328h-10.434v-3.478h24.816v3.478zM329.175 776.22h3.76v14.476h.188q.893-2.067 2.491-3.29 1.645-1.222 4.371-1.222 3.76 0 5.922 2.444 2.21 2.397 2.209 6.815V811h-3.76v-14.899q0-6.533-5.499-6.533-1.128 0-2.209.282a6.4 6.4 0 0 0-1.88.846 4.35 4.35 0 0 0-1.363 1.457q-.47.846-.47 2.021V811h-3.76zM365.476 811.564q-2.491 0-4.512-.893a10.1 10.1 0 0 1-3.431-2.538q-1.41-1.691-2.209-3.995-.752-2.35-.752-5.264 0-2.867.752-5.217.8-2.35 2.209-3.995a9.84 9.84 0 0 1 3.431-2.585q2.02-.893 4.512-.893 2.444 0 4.371.893a9.6 9.6 0 0 1 3.29 2.491q1.363 1.551 2.068 3.713.752 2.163.752 4.747v1.786H358.52v1.128q0 1.552.47 2.914a7.5 7.5 0 0 0 1.41 2.303 6.75 6.75 0 0 0 2.256 1.551q1.363.564 3.055.564 2.303 0 3.995-1.081 1.739-1.08 2.679-3.102l2.679 1.927q-1.175 2.491-3.666 4.042-2.491 1.504-5.922 1.504m0-22.231q-1.551 0-2.82.564a6.3 6.3 0 0 0-2.209 1.504q-.893.988-1.41 2.35-.517 1.317-.517 2.914v.329h13.395v-.517q0-3.243-1.786-5.17-1.738-1.974-4.653-1.974M382.623 811v-24.252h3.76v3.948h.188q.893-2.067 2.491-3.29 1.645-1.222 4.371-1.222 3.76 0 5.922 2.444 2.21 2.397 2.209 6.815V811h-3.76v-14.899q0-6.533-5.499-6.533-1.128 0-2.209.282a6.4 6.4 0 0 0-1.88.846 4.35 4.35 0 0 0-1.363 1.457q-.47.846-.47 2.021V811zM436.329 786.748h3.713l-10.857 29.892q-.423 1.081-.846 1.786-.422.753-1.034 1.175-.61.423-1.551.611-.892.188-2.209.188h-1.927v-3.29h3.807l1.833-5.17-9.071-25.192h3.76l5.828 16.497 1.128 3.948h.235l1.316-3.948zM454.243 811.564q-2.444 0-4.465-.893a10 10 0 0 1-3.478-2.538q-1.41-1.691-2.209-3.995-.8-2.35-.799-5.264 0-2.867.799-5.217.8-2.35 2.209-3.995a9.7 9.7 0 0 1 3.478-2.585q2.021-.893 4.465-.893t4.418.893a9.7 9.7 0 0 1 3.478 2.585q1.457 1.646 2.256 3.995.8 2.35.799 5.217 0 2.915-.799 5.264-.8 2.303-2.256 3.995a10 10 0 0 1-3.478 2.538q-1.974.894-4.418.893m0-3.337q3.055 0 4.982-1.88t1.927-5.734v-3.478q0-3.853-1.927-5.734t-4.982-1.88q-3.055 0-4.982 1.88t-1.927 5.734v3.478q0 3.855 1.927 5.734t4.982 1.88M486.794 807.052h-.188a11.4 11.4 0 0 1-.94 1.692 6.4 6.4 0 0 1-1.316 1.457q-.8.612-1.927.987-1.129.376-2.632.376-3.76 0-5.969-2.397-2.21-2.443-2.209-6.862v-15.557h3.76v14.899q0 6.533 5.546 6.533 1.127 0 2.162-.282 1.08-.282 1.88-.846a4.04 4.04 0 0 0 1.316-1.41q.517-.892.517-2.115v-16.779h3.76V811h-3.76zM508.07 786.748h3.666l2.585 10.481 2.585 10.622H517l2.961-10.622 3.055-10.481h3.337l3.149 10.481 3.008 10.622h.094l2.491-10.622 2.632-10.481h3.525L534.813 811h-4.653l-3.384-11.656-2.115-7.379h-.094l-2.068 7.379L519.115 811h-4.559zM549.034 781.061q-1.221 0-1.786-.564-.517-.61-.517-1.551v-.611q0-.94.517-1.504.564-.61 1.786-.611 1.222 0 1.739.611.564.565.564 1.504v.611q0 .94-.564 1.551-.517.564-1.739.564m-1.88 5.687h3.76V811h-3.76zM563.369 811q-1.974 0-3.008-1.081-.987-1.128-.987-2.82V776.22h3.76v31.49h3.572V811zM576.415 811q-1.974 0-3.008-1.081-.987-1.128-.987-2.82V776.22h3.76v31.49h3.572V811zM597.273 811v-24.252h3.76v4.465h.235q.658-1.738 2.35-3.102t4.653-1.363h1.457v3.76h-2.209q-3.054 0-4.794 1.175-1.692 1.128-1.692 2.867V811zM623.89 811.564q-2.491 0-4.512-.893a10.1 10.1 0 0 1-3.431-2.538q-1.41-1.691-2.209-3.995-.752-2.35-.752-5.264 0-2.867.752-5.217.799-2.35 2.209-3.995a9.84 9.84 0 0 1 3.431-2.585q2.02-.893 4.512-.893 2.443 0 4.371.893a9.6 9.6 0 0 1 3.29 2.491q1.362 1.551 2.068 3.713.752 2.163.752 4.747v1.786h-17.437v1.128q0 1.552.47 2.914a7.4 7.4 0 0 0 1.41 2.303 6.7 6.7 0 0 0 2.256 1.551q1.363.564 3.055.564 2.303 0 3.995-1.081 1.739-1.08 2.679-3.102l2.679 1.927q-1.176 2.491-3.666 4.042-2.491 1.504-5.922 1.504m0-22.231q-1.551 0-2.82.564a6.3 6.3 0 0 0-2.209 1.504 7.3 7.3 0 0 0-1.41 2.35q-.517 1.317-.517 2.914v.329h13.395v-.517q0-3.243-1.786-5.17-1.74-1.974-4.653-1.974M658.662 811q-2.115 0-3.055-1.128-.894-1.128-1.128-2.82h-.235q-.8 2.256-2.632 3.384t-4.371 1.128q-3.855 0-6.016-1.974-2.115-1.974-2.115-5.358 0-3.43 2.491-5.264 2.538-1.833 7.849-1.833h4.794v-2.397q0-2.584-1.41-3.948-1.41-1.362-4.324-1.363-2.21 0-3.713.987-1.457.987-2.444 2.632l-2.256-2.115q.986-1.974 3.149-3.337 2.161-1.41 5.452-1.41 4.417 0 6.862 2.162 2.444 2.163 2.444 6.016v13.348h2.773V811zm-10.81-2.632q1.41 0 2.585-.329 1.175-.328 2.021-.94a4.7 4.7 0 0 0 1.316-1.41 3.37 3.37 0 0 0 .47-1.739v-3.995h-4.982q-3.244 0-4.747.94-1.457.94-1.457 2.726v.987q0 1.786 1.269 2.773 1.316.987 3.525.987M682.123 807.052h-.188q-2.209 4.512-7.097 4.512-2.256 0-4.089-.893a9.1 9.1 0 0 1-3.149-2.538q-1.269-1.644-1.974-3.995-.658-2.35-.658-5.264 0-2.913.658-5.264.705-2.35 1.974-3.995a9.1 9.1 0 0 1 3.149-2.538q1.833-.893 4.089-.893 2.538 0 4.324 1.128 1.833 1.082 2.773 3.384h.188V776.22h3.76V811h-3.76zm-6.251 1.128q1.269 0 2.397-.329 1.175-.328 2.021-.94a4.75 4.75 0 0 0 1.316-1.551q.517-.939.517-2.115v-9.024q0-.987-.517-1.833a4.3 4.3 0 0 0-1.316-1.504q-.846-.61-2.021-.94a7.6 7.6 0 0 0-2.397-.376q-3.196 0-5.029 2.021-1.833 1.974-1.833 5.217v4.136q0 3.243 1.833 5.264 1.833 1.974 5.029 1.974M711.282 811q-1.973 0-3.008-1.081-.987-1.128-.987-2.914v-16.967h-3.995v-3.29h2.256q1.222 0 1.645-.47.47-.516.47-1.739v-4.512h3.384v6.721h5.311v3.29h-5.311v17.672h4.935V811zM722.872 776.22h3.76v14.476h.188q.892-2.067 2.491-3.29 1.644-1.222 4.371-1.222 3.759 0 5.922 2.444 2.208 2.397 2.209 6.815V811h-3.76v-14.899q0-6.533-5.499-6.533-1.129 0-2.209.282a6.4 6.4 0 0 0-1.88.846 4.3 4.3 0 0 0-1.363 1.457q-.47.846-.47 2.021V811h-3.76zM751.935 781.061q-1.222 0-1.786-.564-.517-.61-.517-1.551v-.611q0-.94.517-1.504.564-.61 1.786-.611 1.221 0 1.739.611.564.565.564 1.504v.611q0 .94-.564 1.551-.518.564-1.739.564m-1.88 5.687h3.76V811h-3.76zM769.56 811.564q-3.384 0-5.687-1.269a13.3 13.3 0 0 1-3.901-3.478l2.679-2.162q1.41 1.786 3.149 2.773 1.738.94 4.042.94 2.396 0 3.713-1.034 1.363-1.033 1.363-2.914 0-1.41-.94-2.397-.894-1.033-3.29-1.41l-1.927-.282a17.3 17.3 0 0 1-3.102-.705 9.9 9.9 0 0 1-2.491-1.316 6.2 6.2 0 0 1-1.645-2.068q-.564-1.221-.564-2.914 0-1.785.658-3.102a6.36 6.36 0 0 1 1.786-2.256q1.174-.893 2.773-1.316a12.1 12.1 0 0 1 3.431-.47q2.961 0 4.935 1.034a11 11 0 0 1 3.525 2.867l-2.491 2.256q-.8-1.127-2.35-2.021-1.552-.94-3.901-.94-2.35 0-3.572 1.034-1.175.987-1.175 2.726 0 1.787 1.175 2.585 1.221.8 3.478 1.175l1.88.282q4.041.612 5.734 2.35 1.692 1.692 1.692 4.465 0 3.525-2.397 5.546t-6.58 2.021M101.562 575.6q-2.28 0-3.96-1.56-1.56-1.56-1.56-3.84v-30.6l-28.68-40.2q-.96-1.56-.96-3.24 0-2.28 1.44-3.84 1.56-1.68 3.84-1.68 3 0 4.8 2.76l25.08 36.48 25.08-36.48q1.8-2.76 4.8-2.76 2.4 0 3.84 1.68 1.56 1.56 1.44 3.84 0 1.68-.96 3.24l-28.8 40.2v30.6q0 2.28-1.56 3.84t-3.84 1.56M167.26 576.2q-9.24 0-16.2-3.96-6.96-4.08-10.8-11.16-3.72-7.2-3.72-16.68t3.72-16.56q3.84-7.2 10.8-11.16 6.96-4.08 16.2-4.08t16.08 4.08q6.96 3.96 10.8 11.16 3.84 7.08 3.84 16.56t-3.84 16.68q-3.84 7.08-10.8 11.16-6.84 3.96-16.08 3.96m0-9.96q4.56 0 9.12-2.16t7.56-6.96q3.12-4.92 3.12-12.84t-3.12-12.72q-3-4.8-7.56-6.84-4.56-2.16-9.12-2.16t-9.24 2.16q-4.56 2.04-7.56 6.84t-3 12.72 3 12.84q3 4.8 7.56 6.96 4.68 2.16 9.24 2.16M234.147 576.2q-6.84 0-11.64-3.12-4.8-3.24-7.32-8.64t-2.52-11.76V518.6q0-2.28 1.56-3.84 1.68-1.56 3.96-1.56t3.84 1.56 1.56 3.84v32.88q0 6.84 3.12 10.8 3.12 3.84 10.08 3.84 6.48 0 11.28-3.48 4.8-3.6 8.4-8.04v-36q0-2.28 1.56-3.84 1.68-1.56 3.96-1.56t3.84 1.56 1.56 3.84v51.48q0 2.28-1.56 3.96-1.56 1.56-3.84 1.56t-3.96-1.56q-1.56-1.68-1.56-3.96v-4.92q-3.72 4.08-9 7.56t-13.32 3.48M335.804 575.6q-2.4 0-4.32-1.44-1.92-1.56-2.64-3.6l-17.04-49.92q-.36-1.08-.36-2.04 0-2.28 1.56-3.84t3.84-1.56q1.68 0 3 .84 1.44.84 1.92 2.4l14.04 46.2 13.92-45.12q.6-1.92 2.16-3.12 1.68-1.2 3.72-1.2t3.72 1.2 2.16 3.12l13.92 45.12 14.04-46.2q.48-1.56 1.92-2.4t3-.84q2.28 0 3.84 1.56t1.56 3.84q0 .96-.36 2.04l-17.04 49.92q-.72 2.04-2.64 3.6a7.02 7.02 0 0 1-4.32 1.44q-2.4 0-4.32-1.44-1.92-1.56-2.76-3.72l-12.72-39.72-12.72 39.72q-.84 2.16-2.76 3.72a7.02 7.02 0 0 1-4.32 1.44M417.763 501.32q-2.52 0-4.32-1.8t-1.8-4.32v-.48q0-2.52 1.8-4.32t4.32-1.8h.72q2.52 0 4.32 1.8t1.8 4.32v.48q0 2.52-1.8 4.32t-4.32 1.8zm.24 74.28q-2.28 0-3.84-1.56t-1.56-3.84v-51.48q0-2.4 1.56-3.96t3.84-1.56q2.4 0 3.96 1.56t1.56 3.96v51.48q0 2.28-1.56 3.84t-3.96 1.56M447.886 575.6q-2.28 0-3.84-1.56t-1.56-3.84v-77.88q0-2.4 1.56-3.96t3.84-1.56q2.4 0 3.96 1.56t1.56 3.96v77.88q0 2.28-1.56 3.84t-3.96 1.56M477.769 575.6q-2.28 0-3.84-1.56t-1.56-3.84v-77.88q0-2.4 1.56-3.96t3.84-1.56q2.4 0 3.96 1.56t1.56 3.96v77.88q0 2.28-1.56 3.84t-3.96 1.56M538.824 575.6q-2.28 0-3.84-1.56t-1.56-3.84v-51.48q0-2.28 1.56-3.84 1.56-1.68 3.84-1.68t3.84 1.68q1.68 1.56 1.68 3.84v5.16q3.24-4.32 7.92-7.8t10.92-3.48h.6q2.28 0 3.72 1.56 1.56 1.56 1.56 3.84t-1.56 3.72-3.96 1.44h-.6q-5.88 0-10.68 3-4.8 2.88-7.92 7.56v36.48q0 2.28-1.68 3.84-1.56 1.56-3.84 1.56M604.963 576.2q-14.64 0-22.92-8.28-8.16-8.4-8.16-23.52 0-8.16 3-15.36 3-7.32 9.36-11.88t16.32-4.56q9.24 0 15.6 4.32 6.36 4.2 9.6 11.04 3.36 6.84 3.36 14.88 0 2.28-1.56 3.84-1.44 1.56-3.96 1.56h-40.68q.96 8.04 6.12 12.96 5.16 4.8 14.88 4.8 5.4 0 9.12-.96a42 42 0 0 0 7.08-2.76q.96-.48 2.16-.48 1.92 0 3.36 1.32t1.44 3.36q0 1.44-.96 2.64-.84 1.08-2.16 1.8-3.96 2.28-8.64 3.84-4.56 1.44-12.36 1.44m-20.04-36.84h35.4q-.36-6.24-3.24-10.08-2.76-3.84-6.72-5.64t-7.8-1.8-7.8 1.8-6.72 5.64-3.12 10.08M661.172 576.2q-5.16 0-9.72-2.16-4.44-2.16-7.2-6.12-2.64-4.08-2.64-9.72 0-8.52 6.72-13.92 6.84-5.52 20.88-5.52h14.52v-.96q0-8.04-3.96-11.4-3.96-3.48-12.12-3.48-5.04 0-8.88.96-3.72.84-7.08 1.92-.96.24-1.56.24-1.8 0-3.12-1.32t-1.32-3.24q0-3.24 3.12-4.56 4.2-1.8 9.24-3 5.16-1.32 11.52-1.32 8.76 0 14.28 3.48t8.16 8.88 2.64 11.28v33.96q0 2.28-1.68 3.84-1.56 1.56-3.84 1.56t-3.84-1.56-1.56-3.84v-3.12q-3.24 3.36-8.64 6.24t-13.92 2.88m4.08-9.6q5.64 0 10.56-2.76t7.92-6.24v-10.08h-13.08q-8.4 0-13.32 2.16-4.8 2.16-4.8 7.32 0 3.84 2.64 6.72 2.76 2.88 10.08 2.88M738.275 576.2q-7.2 0-13.92-3.72-6.6-3.72-10.92-10.8-4.2-7.08-4.2-17.28t4.2-17.28q4.32-7.08 10.92-10.8 6.72-3.72 13.92-3.72 6.36 0 11.4 2.4t9.12 6.72v-29.4q0-2.4 1.56-3.96 1.68-1.56 3.96-1.56t3.84 1.56 1.56 3.96v77.88q0 2.28-1.56 3.84t-3.84 1.56-3.96-1.56q-1.56-1.56-1.56-3.84v-3.12q-4.08 4.32-9.12 6.72t-11.4 2.4m1.56-10.2q5.88 0 10.68-2.52 4.8-2.64 8.28-6.48v-25.2q-3.48-3.84-8.28-6.36-4.8-2.64-10.68-2.64-8.52 0-14.16 5.52-5.52 5.4-5.52 16.08 0 10.56 5.52 16.08 5.64 5.52 14.16 5.52M840.95 576.2q-2.16 0-5.16-.48-2.88-.36-5.76-1.8-2.76-1.56-4.68-4.8t-1.92-8.76v-37.2h-8.52q-2.28 0-2.28-2.28 0-1.2 1.08-2.04l16.32-15.96q.24-.24.72-.6.6-.48 1.32-.48.96 0 1.56.72.72.72.72 1.68v9.6h13.56q2.04 0 3.36 1.32t1.32 3.36q0 1.92-1.32 3.36-1.32 1.32-3.36 1.32h-13.56v36.24q0 3.48 1.32 5.04t3.12 1.92q1.92.24 3.36.24 2.88 0 4.2-.48 1.44-.6 3-.6 1.68 0 3 1.2t1.32 3.12q0 2.76-2.76 4.2-2.16.96-4.68 1.56-2.4.6-5.28.6M871.05 575.6q-2.28 0-3.84-1.56t-1.56-3.84v-77.88q0-2.4 1.56-3.96t3.84-1.56 3.84 1.56q1.68 1.56 1.68 3.96v31.32q3.84-4.2 9-7.56 5.28-3.48 13.32-3.48 6.84 0 11.64 3.24 4.8 3.12 7.32 8.52 2.52 5.28 2.52 11.76v34.08q0 2.28-1.68 3.84-1.56 1.56-3.84 1.56t-3.84-1.56-1.56-3.84v-32.88q0-6.84-3.12-10.68-3-3.96-10.08-3.96-6.48 0-11.28 3.48t-8.4 8.04v36q0 2.28-1.68 3.84-1.56 1.56-3.84 1.56M943.935 501.32q-2.52 0-4.32-1.8t-1.8-4.32v-.48q0-2.52 1.8-4.32t4.32-1.8h.72q2.52 0 4.32 1.8t1.8 4.32v.48q0 2.52-1.8 4.32t-4.32 1.8zm.24 74.28q-2.28 0-3.84-1.56t-1.56-3.84v-51.48q0-2.4 1.56-3.96t3.84-1.56q2.4 0 3.96 1.56t1.56 3.96v51.48q0 2.28-1.56 3.84t-3.96 1.56M988.458 576.2q-6.6 0-12-1.44-5.28-1.44-9.84-3.96-2.04-1.44-2.04-3.96 0-1.8 1.32-3.24 1.32-1.56 3.36-1.56 1.08 0 2.16.48 3.24 1.44 7.08 2.52 3.96 1.08 9.24 1.08 6.96 0 10.08-2.16 3.241-2.28 3.242-6.36 0-2.64-2.642-4.08-2.52-1.44-6.72-2.4-4.08-1.08-8.64-2.16-4.56-1.2-8.76-3.12-4.08-2.04-6.72-5.4-2.52-3.48-2.52-8.88 0-8.16 5.88-13.56t17.52-5.4q4.92 0 9.24.84 4.442.84 8.162 2.16 1.68.48 2.52 1.92.96 1.32.96 2.64 0 1.92-1.44 3.36-1.32 1.44-3.36 1.44h-.84l-.72-.24q-2.881-.96-6.362-1.56-3.36-.6-7.32-.6-6.6 0-10.2 2.4t-3.6 6q0 3.12 2.52 4.8 2.64 1.68 6.72 2.76 4.2.96 8.76 2.04 4.68 1.08 8.762 3.12 4.2 1.92 6.72 5.4 2.64 3.48 2.64 9.36 0 7.32-5.88 12.6-5.761 5.16-17.282 5.16M446.763 707.6q-2.28 0-3.84-1.56t-1.561-3.84v-47.04h-7.079q-1.92 0-3.361-1.32-1.32-1.44-1.319-3.36 0-2.04 1.319-3.36 1.44-1.32 3.361-1.32h7.079v-6.96q0-7.56 2.641-12.12 2.76-4.56 6.959-6.48 4.2-2.04 8.4-2.04 3 0 5.641.72 2.64.6 4.799 1.68 1.08.48 1.921 1.68.84 1.08.839 2.52 0 1.68-1.32 3.12-1.2 1.44-3.12 1.44-1.44 0-2.88-.36t-3.12-.36q-4.44 0-7.2 2.16-2.64 2.04-2.639 8.4v6.6h36.839q2.28.12 3.72 1.68t1.441 3.84v50.88q0 2.28-1.56 3.84t-3.96 1.56q-2.28 0-3.84-1.56t-1.561-3.84v-47.04h-31.079v47.04q0 2.28-1.56 3.84t-3.96 1.56m41.759-74.28q-2.52 0-4.319-1.8-1.8-1.8-1.801-4.32v-.48q0-2.52 1.801-4.32t4.319-1.8h.72q2.52 0 4.32 1.8t1.801 4.32v.48q0 2.52-1.801 4.32t-4.32 1.8zM518.609 707.6q-2.28 0-3.84-1.56t-1.56-3.84v-51.48q0-2.28 1.56-3.84 1.56-1.68 3.84-1.68t3.84 1.68q1.68 1.56 1.68 3.84v5.16q3.24-4.32 7.92-7.8t10.92-3.48h.6q2.28 0 3.72 1.56 1.56 1.56 1.56 3.84t-1.56 3.72-3.96 1.44h-.6q-5.88 0-10.68 3-4.8 2.88-7.92 7.56v36.48q0 2.28-1.68 3.84-1.56 1.56-3.84 1.56M578.946 708.2q-6.6 0-12-1.44-5.28-1.44-9.84-3.96-2.04-1.44-2.04-3.96 0-1.8 1.32-3.24 1.32-1.56 3.36-1.56 1.08 0 2.16.48 3.24 1.44 7.08 2.52 3.96 1.08 9.24 1.08 6.96 0 10.08-2.16 3.24-2.28 3.24-6.36 0-2.64-2.64-4.08-2.52-1.44-6.72-2.4-4.08-1.08-8.64-2.16-4.56-1.2-8.76-3.12-4.08-2.04-6.72-5.4-2.52-3.48-2.52-8.88 0-8.16 5.88-13.56t17.52-5.4q4.92 0 9.24.84 4.44.84 8.16 2.16 1.68.48 2.52 1.92.96 1.32.96 2.64 0 1.92-1.44 3.36-1.32 1.44-3.36 1.44h-.84l-.72-.24q-2.88-.96-6.36-1.56-3.36-.6-7.32-.6-6.6 0-10.2 2.4t-3.6 6q0 3.12 2.52 4.8 2.64 1.68 6.72 2.76 4.2.96 8.76 2.04 4.68 1.08 8.76 3.12 4.2 1.92 6.72 5.4 2.64 3.48 2.64 9.36 0 7.32-5.88 12.6-5.76 5.16-17.28 5.16M637.454 708.2q-2.16 0-5.16-.48-2.88-.36-5.76-1.8-2.76-1.56-4.68-4.8t-1.92-8.76v-37.2h-8.52q-2.28 0-2.28-2.28 0-1.2 1.08-2.04l16.32-15.96q.24-.24.72-.6.6-.48 1.32-.48.96 0 1.56.72.72.72.72 1.68v9.6h13.56q2.04 0 3.36 1.32t1.32 3.36q0 1.92-1.32 3.36-1.32 1.32-3.36 1.32h-13.56v36.24q0 3.48 1.32 5.04t3.12 1.92q1.92.24 3.36.24 2.88 0 4.2-.48 1.44-.6 3-.6 1.68 0 3 1.2t1.32 3.12q0 2.76-2.76 4.2-2.16.96-4.68 1.56-2.4.6-5.28.6"/></svg>