<svg xmlns="http://www.w3.org/2000/svg" width="1080" height="1350" fill="none"><path fill="#000" d="m330.032 437.36-4.5-11.66a25 25 0 0 1-.42-1.2q-.219-.7-.42-1.48-.42 1.62-.86 2.7l-4.5 11.64zm8.08 10.64h-3q-.519 0-.84-.26a1.6 1.6 0 0 1-.48-.66l-2.68-6.92h-12.86l-2.68 6.92q-.12.36-.46.64-.339.28-.84.28h-3l11.46-28.66h3.92zm6.213-17.32q.66-.74 1.4-1.34t1.56-1.02a7.6 7.6 0 0 1 1.76-.66 8.1 8.1 0 0 1 2.02-.24q1.66 0 2.92.56 1.28.54 2.12 1.56.86 1 1.3 2.42t.44 3.14V448h-3.58v-12.9q0-2.3-1.06-3.56-1.041-1.28-3.18-1.28-1.58 0-2.96.76-1.36.76-2.52 2.06V448h-3.58v-20.26h2.14q.76 0 .94.74zm32.144 1.88q-.999-1.34-2.16-1.86-1.16-.54-2.6-.54-2.82 0-4.34 2.02t-1.52 5.76q0 1.98.34 3.4.34 1.4 1 2.32.66.9 1.62 1.32t2.18.42q1.761 0 3.06-.8 1.32-.8 2.42-2.26zm3.56-14.02V448h-2.12q-.759 0-.96-.74l-.32-2.46a11 11 0 0 1-2.96 2.52q-1.659.96-3.84.96-1.74 0-3.16-.66a6.65 6.65 0 0 1-2.42-1.98q-1-1.3-1.54-3.24t-.54-4.46q0-2.24.6-4.16.6-1.94 1.72-3.36a7.9 7.9 0 0 1 2.74-2.22q1.64-.82 3.68-.82 1.86 0 3.18.64a7.5 7.5 0 0 1 2.38 1.74v-11.22zm32.322 9.2-11.3 26.24q-.18.4-.46.64-.26.24-.82.24h-2.64l3.7-8.04-8.36-19.08h3.08q.459 0 .72.24.28.22.38.5l5.42 12.76q.32.84.54 1.76.279-.94.6-1.78l5.26-12.74q.12-.32.4-.52.3-.22.66-.22zm11.138-.32q2.22 0 4 .74a8.6 8.6 0 0 1 3.04 2.1q1.26 1.36 1.92 3.3.68 1.92.68 4.3 0 2.4-.68 4.32-.66 1.92-1.92 3.28a8.6 8.6 0 0 1-3.04 2.1q-1.78.72-4 .72-2.24 0-4.04-.72a8.6 8.6 0 0 1-3.04-2.1q-1.26-1.36-1.94-3.28-.66-1.92-.66-4.32 0-2.38.66-4.3.68-1.94 1.94-3.3a8.6 8.6 0 0 1 3.04-2.1q1.8-.74 4.04-.74m0 18.08q3 0 4.48-2 1.48-2.02 1.48-5.62 0-3.62-1.48-5.64t-4.48-2.02q-1.52 0-2.66.52a5 5 0 0 0-1.88 1.5q-.74.98-1.12 2.42-.36 1.42-.36 3.22 0 3.6 1.48 5.62 1.5 2 4.54 2m30.815-17.76V448h-2.12q-.759 0-.96-.74l-.28-2.18q-1.32 1.46-2.96 2.36-1.64.88-3.76.88-1.659 0-2.94-.54a5.9 5.9 0 0 1-2.12-1.56q-.86-1-1.3-2.42-.42-1.42-.42-3.14v-12.92h3.56v12.92q0 2.3 1.04 3.56 1.06 1.26 3.22 1.26a6.05 6.05 0 0 0 2.94-.74q1.38-.76 2.54-2.08v-14.92zm42.999 0-6.56 20.26h-2.82q-.52 0-.72-.68l-4.48-13.74a8 8 0 0 1-.26-.92q-.1-.48-.2-.94-.1.46-.2.94a9 9 0 0 1-.26.94l-4.56 13.72q-.18.68-.8.68h-2.68l-6.56-20.26h2.8q.42 0 .7.22.3.22.4.52l3.88 13.04q.34 1.44.54 2.72.18-.66.36-1.34.2-.68.42-1.38l4.28-13.12q.1-.3.34-.5.26-.2.62-.2h1.56q.4 0 .66.2t.36.5l4.18 13.12q.22.7.4 1.38t.34 1.34q.1-.66.24-1.32.16-.68.34-1.4l3.96-13.04a1 1 0 0 1 .38-.52q.28-.22.66-.22zm7.226 0V448h-3.56v-20.26zm.76-6.36q0 .52-.22.98-.2.44-.56.8-.34.34-.82.54-.46.2-.98.2a2.4 2.4 0 0 1-.98-.2 2.6 2.6 0 0 1-.78-.54 3 3 0 0 1-.54-.8 2.4 2.4 0 0 1-.2-.98q0-.52.2-.98.201-.48.54-.82.34-.36.78-.56.46-.2.98-.2t.98.2q.48.2.82.56.36.34.56.82.22.46.22.98m8.77-2.84V448h-3.56v-29.46zm9.453 0V448h-3.56v-29.46zm19.387 13.26q.96-2.08 2.36-3.24 1.401-1.18 3.42-1.18.64 0 1.22.14.6.14 1.06.44l-.26 2.66q-.12.5-.6.5-.28 0-.82-.12t-1.22-.12q-.96 0-1.72.28-.74.28-1.34.84-.58.54-1.06 1.36a12 12 0 0 0-.84 1.84V448h-3.58v-20.26h2.04q.58 0 .8.22t.3.76zm23.93 3.86q0-1.24-.36-2.26a4.8 4.8 0 0 0-1.02-1.78 4.3 4.3 0 0 0-1.62-1.16q-.96-.42-2.18-.42-2.56 0-4.06 1.5-1.48 1.48-1.84 4.12zm2.88 9.5q-.66.8-1.58 1.4-.92.58-1.98.96a11.7 11.7 0 0 1-2.16.56q-1.119.2-2.22.2-2.1 0-3.88-.7a8.8 8.8 0 0 1-3.06-2.08q-1.28-1.38-2-3.4t-.72-4.64q0-2.12.64-3.96.66-1.84 1.88-3.18a8.45 8.45 0 0 1 2.98-2.12q1.761-.78 3.96-.78 1.821 0 3.36.62a7.3 7.3 0 0 1 2.68 1.76q1.14 1.14 1.78 2.84.64 1.68.64 3.84 0 .84-.18 1.12t-.68.28h-13.54q.06 1.92.52 3.34.48 1.42 1.32 2.38.84.94 2 1.42 1.16.46 2.6.46 1.34 0 2.3-.3.981-.32 1.68-.68.7-.36 1.16-.66.48-.32.82-.32.44 0 .68.34zm15.673-6.28q-2.46.08-4.2.4-1.72.3-2.82.8-1.08.5-1.58 1.18-.48.68-.48 1.52 0 .8.26 1.38t.7.96q.46.36 1.06.54.62.16 1.32.16.94 0 1.72-.18a6.6 6.6 0 0 0 1.46-.56q.7-.36 1.32-.86.64-.5 1.24-1.14zm-11.5-8.28q1.68-1.62 3.62-2.42t4.3-.8q1.7 0 3.02.56t2.22 1.56 1.36 2.42.46 3.12V448h-1.58q-.52 0-.8-.16-.28-.18-.44-.68l-.4-1.92q-.8.74-1.56 1.32a10 10 0 0 1-1.6.96q-.84.38-1.8.58a9.2 9.2 0 0 1-2.1.22 7.5 7.5 0 0 1-2.22-.32 5.4 5.4 0 0 1-1.82-1 4.8 4.8 0 0 1-1.22-1.66q-.44-1.02-.44-2.4 0-1.2.66-2.3.66-1.12 2.14-1.98t3.86-1.4q2.38-.56 5.84-.64v-1.58q0-2.36-1.02-3.56-1.02-1.22-2.98-1.22-1.32 0-2.22.34a8 8 0 0 0-1.54.74q-.64.4-1.12.74-.46.32-.92.32-.36 0-.62-.18a1.9 1.9 0 0 1-.44-.48zm33.603 1.96q-1-1.34-2.16-1.86-1.16-.54-2.6-.54-2.82 0-4.34 2.02t-1.52 5.76q0 1.98.34 3.4.34 1.4 1 2.32.66.9 1.62 1.32t2.18.42q1.76 0 3.06-.8 1.32-.8 2.42-2.26zm3.56-14.02V448h-2.12q-.76 0-.96-.74l-.32-2.46a11 11 0 0 1-2.96 2.52q-1.66.96-3.84.96-1.74 0-3.16-.66a6.64 6.64 0 0 1-2.42-1.98q-1-1.3-1.54-3.24t-.54-4.46q0-2.24.6-4.16.6-1.94 1.72-3.36a7.9 7.9 0 0 1 2.74-2.22q1.64-.82 3.68-.82 1.86 0 3.18.64a7.55 7.55 0 0 1 2.38 1.74v-11.22zm22.077 29.78q-2.4 0-3.7-1.34-1.28-1.34-1.28-3.86v-12.4h-2.44a.83.83 0 0 1-.54-.18q-.22-.2-.22-.6v-1.42l3.32-.42.82-6.26a.85.85 0 0 1 .26-.48.8.8 0 0 1 .56-.2h1.8v6.98h5.86v2.58h-5.86v12.16q0 1.28.62 1.9t1.6.62q.56 0 .96-.14.42-.16.72-.34t.5-.32q.22-.16.38-.16.28 0 .5.34l1.04 1.7q-.92.86-2.22 1.36a7.7 7.7 0 0 1-2.68.48m11.696-17.88a10.8 10.8 0 0 1 2.88-2.2q1.58-.82 3.64-.82 1.66 0 2.92.56 1.28.54 2.12 1.56.86 1 1.3 2.42t.44 3.14V448h-3.58v-12.9q0-2.3-1.06-3.56-1.04-1.28-3.18-1.28-1.58 0-2.96.76-1.36.76-2.52 2.06V448h-3.58v-29.46h3.58zm22.485-2.7V448h-3.56v-20.26zm.76-6.36q0 .52-.22.98-.2.44-.56.8-.34.34-.82.54a2.4 2.4 0 0 1-.98.2q-.52 0-.98-.2a2.6 2.6 0 0 1-.78-.54 2.9 2.9 0 0 1-.54-.8 2.4 2.4 0 0 1-.2-.98q0-.52.2-.98.2-.48.54-.82.339-.36.78-.56.46-.2.98-.2t.98.2q.48.2.82.56.36.34.56.82.22.46.22.98m16.889 9.7a.79.79 0 0 1-.74.44q-.3 0-.68-.22a12 12 0 0 0-.94-.48 7 7 0 0 0-1.3-.5q-.76-.24-1.8-.24-.9 0-1.62.24-.72.22-1.24.62-.5.4-.78.94a2.5 2.5 0 0 0-.26 1.14q0 .78.44 1.3.46.52 1.2.9t1.68.68q.94.28 1.92.62 1 .32 1.94.72t1.68 1 1.18 1.48q.46.86.46 2.08a6.7 6.7 0 0 1-.5 2.6 5.8 5.8 0 0 1-1.48 2.06q-.98.86-2.4 1.36t-3.28.5q-2.12 0-3.84-.68-1.72-.7-2.92-1.78l.84-1.36a1.2 1.2 0 0 1 .38-.4q.22-.14.56-.14.36 0 .76.28t.96.62q.58.34 1.4.62t2.04.28q1.04 0 1.82-.26.78-.28 1.3-.74t.76-1.06q.26-.6.26-1.28 0-.84-.46-1.38-.44-.56-1.18-.94a8.7 8.7 0 0 0-1.7-.68l-1.94-.62q-.98-.32-1.94-.72a7.1 7.1 0 0 1-1.68-1.04 4.8 4.8 0 0 1-1.2-1.52q-.44-.92-.44-2.22 0-1.16.48-2.22.48-1.08 1.4-1.88.92-.82 2.26-1.3t3.06-.48q2 0 3.58.64a8.3 8.3 0 0 1 2.76 1.72zm19.419-12.54V448h-3.56v-29.46zm16.753 20.34q-2.46.08-4.2.4-1.719.3-2.82.8-1.08.5-1.58 1.18-.48.68-.48 1.52 0 .8.26 1.38t.7.96q.46.36 1.06.54.621.16 1.32.16.94 0 1.72-.18a6.6 6.6 0 0 0 1.46-.56q.7-.36 1.32-.86.64-.5 1.24-1.14zm-11.5-8.28q1.68-1.62 3.62-2.42t4.3-.8q1.7 0 3.02.56t2.22 1.56 1.36 2.42.46 3.12V448h-1.58q-.52 0-.8-.16-.28-.18-.44-.68l-.4-1.92q-.8.74-1.56 1.32a10 10 0 0 1-1.6.96q-.84.38-1.8.58a9.2 9.2 0 0 1-2.1.22 7.5 7.5 0 0 1-2.22-.32 5.4 5.4 0 0 1-1.82-1 4.85 4.85 0 0 1-1.22-1.66q-.44-1.02-.44-2.4 0-1.2.66-2.3.66-1.12 2.14-1.98t3.86-1.4q2.38-.56 5.84-.64v-1.58q0-2.36-1.02-3.56-1.02-1.22-2.98-1.22-1.32 0-2.22.34-.88.32-1.54.74-.64.4-1.12.74-.46.32-.92.32-.36 0-.62-.18a1.9 1.9 0 0 1-.44-.48zm32.203.48a.79.79 0 0 1-.74.44q-.3 0-.68-.22a12 12 0 0 0-.94-.48 7 7 0 0 0-1.3-.5q-.76-.24-1.8-.24-.9 0-1.62.24-.72.22-1.24.62-.5.4-.78.94a2.5 2.5 0 0 0-.26 1.14q0 .78.44 1.3.46.52 1.2.9t1.68.68q.94.28 1.92.62 1 .32 1.94.72t1.68 1 1.18 1.48q.46.86.46 2.08a6.7 6.7 0 0 1-.5 2.6 5.8 5.8 0 0 1-1.48 2.06q-.98.86-2.4 1.36t-3.28.5q-2.12 0-3.84-.68-1.72-.7-2.92-1.78l.84-1.36a1.2 1.2 0 0 1 .38-.4q.22-.14.56-.14.36 0 .76.28t.96.62q.58.34 1.4.62t2.04.28q1.04 0 1.82-.26.78-.28 1.3-.74t.76-1.06q.26-.6.26-1.28 0-.84-.46-1.38-.44-.56-1.18-.94a8.7 8.7 0 0 0-1.7-.68l-1.94-.62q-.98-.32-1.94-.72a7.1 7.1 0 0 1-1.68-1.04 4.8 4.8 0 0 1-1.2-1.52q-.44-.92-.44-2.22 0-1.16.48-2.22.48-1.08 1.4-1.88.92-.82 2.26-1.3t3.06-.48q2 0 3.58.64a8.3 8.3 0 0 1 2.76 1.72zm11.725 17.24q-2.4 0-3.7-1.34-1.28-1.34-1.28-3.86v-12.4h-2.44a.82.82 0 0 1-.54-.18q-.22-.2-.22-.6v-1.42l3.32-.42.82-6.26q.06-.3.26-.48a.8.8 0 0 1 .56-.2h1.8v6.98h5.86v2.58h-5.86v12.16q0 1.28.62 1.9t1.6.62q.56 0 .96-.14.42-.16.72-.34t.5-.32q.22-.16.38-.16.28 0 .5.34l1.04 1.7q-.921.86-2.22 1.36a7.7 7.7 0 0 1-2.68.48m-581.54 50.293 2.226-.117q.996 0 2.227.879 1.289.88 1.289 1.523-.293 1.29-13.828 23.555-42.246 69.433-46.524 78.34a67 67 0 0 1 4.746-4.512q2.637-2.168 2.93-2.168.351 0 .703.352.352.41.352.762 0 .41-.528.996-.527.585-3.691 4.629-3.105 4.101-4.629 5.8a31.4 31.4 0 0 0-2.754 3.692q-1.172 1.992-2.051 2.812-.82.82-2.05.821-3.575 0-6.035-3.106-2.403-3.047-2.403-5.156 0-4.103 17.403-31.992 17.46-27.891 30.761-46.817-30.762 36.328-48.984 47.696-6.328 3.984-10.313 3.984-1.933 0-3.867-1.113-1.875-1.114-2.754-2.813-.82-1.699-.82-6.035 0-4.395 3.75-12.539 3.75-8.204 9.668-17.52 10.488-16.64 19.336-28.476-7.851 7.09-12.832 7.09-2.286 0-3.047-.645a73 73 0 0 1-1.992-2.109q-1.23-1.465-1.23-3.164 0-1.758.585-2.754.644-.996 1.172-1.524 1.993-1.992 2.578-2.343.587-.352 1.406-.352.879 0 .879.293 0 .234-.644.762-.586.527-.586.82t.644.293 1.641-.293q.997-.351 2.578-1.172a424 424 0 0 0 2.93-1.582 535 535 0 0 0 3.984-2.285 193 193 0 0 1 3.985-2.344q1.406-.762 4.043-2.695 2.695-1.992 3.984-2.695 2.168-1.29 3.516-.762 1.406.527 2.168.703a4.6 4.6 0 0 1 1.406.527q.645.294 1.172.703 1.816 1.29 1.816 3.047 0 1.7-1.699 3.985-1.64 2.284-7.441 10.84a1609 1609 0 0 0-13.126 19.57q-7.265 11.016-12.832 20.684-5.507 9.667-5.507 12.187 0 .879.468.879.47 0 3.457-2.285 15.704-12.129 40.02-38.028 19.98-21.269 23.555-26.308 1.113-1.524 2.168-2.051 1.113-.528 3.339-.527zm24.609 36.739q1.758 0 3.574 1.582 1.875 1.581 1.875 4.863 0 3.222-2.285 8.437-2.285 5.157-6.269 10.547a89 89 0 0 1-8.789 10.078q-4.747 4.687-10.313 7.735-5.508 2.988-10.019 2.988t-7.266-2.812q-2.695-2.872-2.695-7.911 0-5.097 2.461-11.25 2.519-6.152 6.445-10.839a62.3 62.3 0 0 1 8.496-8.497q9.55-7.675 16.758-7.675 3.222 0 4.863 1.582.586.527.586.937v.352q.82-.117 2.578-.117m-5.918 7.793h-.41q-2.05 0-2.051-2.989-4.277 1.406-8.965 4.922t-8.379 8.32q-7.5 9.61-7.617 16.231 0 3.28 2.403 3.281 2.402 0 7.148-3.164t9.375-9.023q4.687-5.86 6.973-10.137 2.343-4.337 2.343-5.859 0-1.582-.82-1.582m59.707 18.457q1.113 0 1.348 1.699.234 1.699.234 3.515t-.351 2.52q-1.7 3.28-7.442 8.027-5.742 4.688-10.898 4.688-3.165 0-5.86-1.934-2.694-1.875-2.695-6.621t2.52-9.316q-14.532 18.222-22.793 18.222-3.282 0-5.332-2.343-1.993-2.344-1.993-4.805 0-2.52.704-5.156a56 56 0 0 1 1.464-4.805q.821-2.11 2.344-5.215a228 228 0 0 1 2.344-4.512 169 169 0 0 1 2.402-4.218 400 400 0 0 0 4.395-7.676q2.754-4.805 4.511-7.09 1.817-2.343 3.516-2.344 1.7-.059 2.988 1.348 1.29 1.406 1.289 2.285 0 .88-3.925 7.91-11.602 20.977-11.602 24.434 0 .879.645.879 2.813 0 14.004-12.188 11.191-12.187 12.949-15.586 1.757-3.457 3.398-5.8 1.7-2.344 2.52-2.872 2.519-1.64 6.504-1.757.643 0 .996.058.352.058.82.996.47.938.469 1.465-.528 1.64-4.688 8.731-4.1 7.09-4.57 8.027-6.914 14.296-6.914 18.633 0 2.46 1.875 2.461 3.399-.469 8.203-5.45a153 153 0 0 0 3.457-3.691q1.758-1.875 2.168-2.168.411-.351.996-.351m83.672-25.137-.703-2.813q0-2.401 1.641-3.75 1.699-1.406 4.218-1.406 4.922 0 4.922 6.27 0 4.511-4.453 12.48-4.453 7.91-10.547 15.352-6.035 7.383-12.832 12.89-6.796 5.45-10.488 5.45-3.633 0-5.156-1.993-1.524-1.992-1.524-3.808 0-1.875.176-3.516a33.6 33.6 0 0 1 3.164-10.957q-6.27 8.204-13.477 14.766-7.207 6.504-12.07 6.504-2.343 0-3.75-1.407-1.406-1.406-1.406-4.746 0-3.398 4.043-12.656 4.042-9.316 7.734-14.941-1.347.82-2.402.82-.996 0-2.227-1.113-1.172-1.173-1.172-1.817t.879-1.875 6.739-6.035q5.86-4.863 8.027-4.863t4.102.82q1.992.82 1.992 2.285 0 1.407-8.145 16.699t-8.144 16.583q0 .175.117.175 1.23 0 12.246-12.539 11.075-12.538 17.402-20.625.879-1.465 2.637-1.465l.527.059 3.223-.645q.762 0 1.465.586.762.587.762 1.055 0 .47-2.11 4.219-2.05 3.75-6.738 14.18t-4.688 14.648q0 1.055.762 1.055 2.226 0 9.258-8.028 7.09-8.086 11.543-15.468 4.453-7.383 4.453-10.43m43.711-20.801q0 3.34-3.105 6.738-3.106 3.34-6.504 3.34-3.34 0-3.34-3.515t2.929-6.68q2.989-3.223 6.563-3.223 1.582 0 2.519.879t.938 2.461m-9.492 51.152q0 1.758-.352 2.52-2.871 5.859-9.14 9.492-6.27 3.574-10.899 3.574t-7.969-3.105q-3.339-3.106-3.339-6.328 0-3.224 3.222-9.375 3.223-6.153 6.446-11.367t3.222-5.625q0-.47-1.23-1.758-1.172-1.29-1.172-1.875 0-.645 2.402-3.223 2.461-2.637 5.918-5.156 3.516-2.578 5.332-2.578 1.875 0 3.34 1.64t1.465 2.989q0 1.347-13.945 25.371-.177.35-.997 1.582a43 43 0 0 0-1.23 1.992q-.41.762-.996 1.875-1.172 2.343-1.172 3.926 0 1.992 2.695 1.992 2.696 0 5.567-1.817 2.93-1.875 5.039-4.101 5.508-5.918 6.269-5.918 1.524 0 1.524 5.273m44.297-74.765q2.812 0 4.922 1.699 2.168 1.64 2.168 4.922t-3.633 10.312q-3.633 6.973-8.731 14.297-5.097 7.266-11.543 15.469-10.195 13.008-19.57 23.379-.059.704-.527 2.637a17.7 17.7 0 0 0-.411 3.808q0 1.933 1.758 3.516 1.817 1.523 4.453 1.523t5.625-1.875q3.047-1.875 5.274-4.16 5.86-6.035 7.265-6.035 1.407 0 1.407 4.277v1.172q0 2.286-.821 3.34-4.921 6.035-11.074 9.023-6.152 2.93-11.66 2.93t-8.379-3.34q-2.871-3.398-2.871-9.257 0-11.427 6.094-26.836 6.152-15.469 13.828-26.309 17.285-24.492 26.426-24.492m-2.637 9.726q0-.879-.586-.879-2.05 0-10.781 11.719t-12.656 18.692q-3.868 6.972-7.325 17.519 6.915-8.203 19.102-25.547 12.246-17.401 12.246-21.504m33.574-9.726q2.813 0 4.922 1.699 2.168 1.64 2.168 4.922t-3.633 10.312q-3.633 6.973-8.73 14.297-5.098 7.266-11.543 15.469-10.196 13.008-19.571 23.379-.058.704-.527 2.637a17.8 17.8 0 0 0-.41 3.808q0 1.933 1.758 3.516 1.816 1.523 4.453 1.523t5.625-1.875q3.047-1.875 5.273-4.16 5.86-6.035 7.266-6.035t1.406 4.277v1.172q0 2.286-.82 3.34-4.922 6.035-11.074 9.023-6.153 2.93-11.66 2.93t-8.379-3.34q-2.871-3.398-2.871-9.257 0-11.427 6.093-26.836 6.153-15.469 13.828-26.309 17.286-24.492 26.426-24.492m-2.637 9.726q0-.879-.586-.879-2.05 0-10.781 11.719-8.73 11.719-12.656 18.692-3.867 6.972-7.324 17.519 6.913-8.203 19.101-25.547 12.246-17.401 12.246-21.504m29.122 46.289q13.827-15.702 23.554-15.703 2.403 0 3.926 1.465 1.582 1.406 1.582 3.692 0 2.285-3.281 7.675-3.223 5.332-5.977 9.024-1.464 1.875-3.34 1.875-1.817 0-2.871-1.348-.996-1.347-.996-3.164 0-4.043 4.336-9.141l-.117-.117q-1.934.175-9.609 7.617-7.619 7.441-13.008 13.36-5.332 5.86-11.602 14.297-1.816 2.519-3.105 2.519-1.23 0-3.282-.762-2.11-.82-2.519-1.171-.47-.352-.469-1.172 0-.82.469-1.875.468-1.113 1.758-3.106 1.23-1.992 3.75-6.445 2.578-4.453 7.969-13.477 5.39-9.023 6.445-10.898 2.226-3.867 3.633-5.625 2.636-3.34 8.906-3.34 1.406 0 1.406 1.758 0 2.754-5.098 10.371zm63.105-11.894q0 3.867-3.164 6.797-3.106 2.93-7.09 2.929-1.289 0-1.699-.586-.41-.644-.41-1.64t.234-1.934q-2.11.704-4.687 2.168-2.579 1.465-6.329 4.336t-3.75 4.278q0 .468 1.348.468 1.406 0 4.277-.937 2.872-.996 3.985-.996 1.172 0 1.523.117.762.41 1.641 1.816.879 1.348.879 2.168 0 .762-1.524 2.051a11.3 11.3 0 0 1-3.457 1.992q-1.933.645-2.578.996-12.363 6.915-12.363 9.493 0 4.57 7.793 4.57 4.98 0 10.019-3.164 4.278-2.696 7.676-5.449 3.457-2.813 4.336-3.457.938-.645 1.406-.645 1.524 0 1.524 3.398t-.41 4.512q-.41 1.054-2.344 2.637-12.539 10.195-23.731 10.195-5.976 0-9.55-1.64-6.563-2.99-6.563-9.141 0-8.087 11.192-12.246-2.228-.996-2.871-2.52-.645-1.582-.645-4.98 0-3.457 3.164-7.266 3.223-3.867 7.852-6.328 10.312-5.566 18.398-5.566 1.934 0 3.926.937t1.992 2.637m42.48-.703q4.454 0 4.454 3.047 0 1.64-.762 2.402t-3.281 5.098q-2.462 4.277-5.508 11.015-2.988 6.68-3.867 11.426-.177.587-.176 1.641 0 3.222 1.758 3.222t4.16-1.64a33 33 0 0 0 4.277-3.575 114 114 0 0 0 3.633-3.925q1.817-1.992 2.168-2.285t1.055-.293q1.113 0 1.347 1.699.235 1.699.235 3.515t-.352 2.52q-1.7 3.34-7.5 8.027-5.742 4.688-10.488 4.688-4.688 0-6.914-2.871t-2.227-6.328q0-3.516 1.172-6.153-4.863 6.328-11.191 10.723-6.27 4.394-10.254 4.394t-6.504-2.402q-3.223-2.988-3.223-8.262 0-5.331 2.344-10.664a38.4 38.4 0 0 1 6.269-9.785 61.6 61.6 0 0 1 8.497-8.086Q554.453 535 562.656 535q3.164 0 5.156 1.055 1.993 1.055 2.52 2.636 1.407-2.11 2.344-2.636.996-.586 2.929-.586m-7.793 6.504q-10.019 0-20.742 11.132-3.808 3.985-7.031 9.551-3.164 5.567-3.164 7.617 0 2.052 1.172 2.051 1.641 0 9.141-6.445 7.5-6.504 9.96-9.551 2.696-3.399 10.664-14.355m85.547-49.805q1.114 0 1.758.703.645.703.645 1.465 0 .703-1.172 2.695-1.113 1.934-5.215 8.555a1163 1163 0 0 0-6.387 10.312q-13.3 21.621-20.859 36.563t-7.559 18.047v.469q0 2.402 1.758 2.402t4.219-1.641q2.52-1.64 4.394-3.515t3.75-3.868q1.934-2.05 2.344-2.402.41-.351 1.055-.351.996 0 1.289 1.289.293 1.23.293 3.515 0 2.227-.352 2.93-1.698 3.28-7.5 8.027-5.742 4.688-10.898 4.688-8.79 0-8.789-7.442 0-4.629 3.515-12.129-4.745 6.153-9.668 10.489-9.14 7.969-15.878 7.969-3.75 0-5.567-2.637-1.758-2.637-1.758-7.559 0-4.98 3.868-11.894a52.9 52.9 0 0 1 9.609-12.422 56.1 56.1 0 0 1 12.832-9.258q7.031-3.75 12.949-3.75 1.875 0 4.395 2.285 1.698-2.696 6.269-10.781 14.356-24.2 18.985-29.531 2.46-3.223 7.675-3.223m-36.504 49.043q-8.437 1.875-15.703 7.851-7.265 5.978-10.898 12.54-3.633 6.504-3.633 8.437 0 1.934.82 1.934 3.516 0 17.403-15.703 6.914-7.735 12.011-15.059m77.637-36.68 2.403.586q.527 0 .937.528.41.526.41.996 0 .468-1.23 2.519a177 177 0 0 1-2.93 4.688q-1.641 2.577-1.758 2.812 4.57-.351 6.446-.351 1.934 0 2.636.293.703.234 1.582 1.464.938 1.173 1.7 1.817.76.585.761 1.816 0 1.231-1.523 2.11a8.1 8.1 0 0 1-3.164.996q-13.595 1.347-15 1.406-4.746 7.266-13.301 22.676-8.496 15.351-9.023 19.218-.235 1.758-.235 2.872 0 2.285 2.402 2.285t5.333-1.817a44 44 0 0 0 5.39-4.043q6.563-5.859 7.031-5.859 1.524 0 1.524 5.273 0 2.871-2.637 5.157-5.918 5.098-9.961 7.675-4.042 2.579-8.086 2.579a7.3 7.3 0 0 1-1.64-.176q-4.688-.879-6.914-3.399-2.168-2.577-2.168-6.914.058-4.335 2.578-10.488 2.577-6.211 6.445-13.184 6.329-11.367 12.656-21.328l-2.226.293q-6.798.762-7.91.762h-.528a8.6 8.6 0 0 1-3.281-.645q-1.582-.702-1.582-1.699 0-.996.82-1.933.88-.938 1.055-1.465.41-1.29 3.047-2.871 2.695-1.582 4.043-1.641a66 66 0 0 1 2.578-.176q1.289-.058 2.812-.117a76 76 0 0 0 2.403-.117l5.273-.234q4.922-7.383 6.738-9.493 1.875-2.11 2.168-2.285.293-.234 1.172-.234zm37.031 58.184q.411 2.696.411 4.277 0 1.524-.586 2.696-.528 1.113-2.461 3.222-1.875 2.05-4.512 4.16-6.445 5.098-13.184 5.098-9.668 0-9.668-8.555 0-7.441 12.95-29.648.468-.82.644-1.172-4.512 3.164-17.285 17.285-12.715 14.063-16.934 19.922-.351.527-1.757 1.172-1.407.644-2.227.644-.762 0-1.641-.527-.937-.468-1.171-.469-.762 0-.762-.527 0-.47 2.109-5.332 2.051-4.922 5.449-12.188 9.317-20.039 27.715-52.148 6.446-11.25 10.078-15.937 2.579-3.34 8.672-3.34 1.29 0 1.465.761.176.762.176 1.641t-.352 1.758l-6.269 9.785q-18.633 29.063-28.067 48.164 9.141-11.133 17.754-17.168 5.332-3.809 7.969-3.809 2.696 0 4.863.879 2.168.82 2.168 4.043 0 1.173-3.808 8.672-11.426 22.5-11.426 25.02 0 2.46 2.051 2.461 2.988 0 9.199-5.801 4.688-4.395 5.918-5.625.703-.527 1.289-.527 1.113 0 1.23 1.113m33.809-47.051q0 3.34-3.105 6.738-3.106 3.34-6.504 3.34-3.34 0-3.34-3.515t2.929-6.68q2.989-3.223 6.563-3.223 1.582 0 2.52.879t.937 2.461m-9.492 51.152q0 1.758-.352 2.52-2.871 5.859-9.14 9.492-6.27 3.574-10.899 3.574t-7.969-3.105-3.339-6.328q0-3.224 3.222-9.375 3.223-6.153 6.446-11.367t3.222-5.625q0-.47-1.23-1.758-1.172-1.29-1.172-1.875 0-.645 2.402-3.223 2.462-2.637 5.918-5.156 3.516-2.578 5.332-2.578 1.875 0 3.34 1.64t1.465 2.989q0 1.347-13.945 25.371-.177.35-.996 1.582a42 42 0 0 0-1.231 1.992q-.41.762-.996 1.875-1.172 2.343-1.172 3.926 0 1.992 2.695 1.992 2.696 0 5.567-1.817 2.93-1.875 5.039-4.101 5.508-5.918 6.269-5.918 1.524 0 1.524 5.273m2.168 1.465-.059.938q0 1.464 1.113 2.519 1.114 1.055 2.051 1.055 7.032 0 12.422-2.109 5.45-2.11 5.449-4.219 0-.996-1.992-1.699-1.934-.762-6.621-1.817-4.629-1.113-6.738-1.699-2.11-.644-3.34-1.172t-2.52-1.465q-2.753-1.933-2.753-5.742 0-3.867 2.812-7.617 2.871-3.808 7.148-6.504a62 62 0 0 1 9.2-4.746q9.726-4.043 16.347-4.043 6.504 0 8.028 2.812.468.997.468 2.227v.41q0 3.106-1.347 4.863-1.29 1.758-4.16 3.165-2.812 1.406-4.512 1.406-1.641 0-2.109-.235a2.6 2.6 0 0 1-.704-.586 1.6 1.6 0 0 0-.761-.585q-.41-.177-.41-.879 0-.704.585-1.407a4.7 4.7 0 0 0 .821-1.582q-3.867.176-8.086 1.817-4.22 1.582-7.266 3.574-2.988 1.992-4.98 3.809-1.992 1.816-1.992 2.695 0 .82 2.695 1.347 12.129 2.403 15.937 4.161t5.274 3.984 1.465 4.043q0 3.75-2.989 7.09t-7.382 5.449q-9.435 4.629-16.465 4.629-6.973 0-9.668-2.168-2.637-2.11-2.637-5.039 0-2.93 1.465-5.391 1.523-2.519 3.867-2.519t2.344 1.23m59.414-7.148-.469-1.641q0-.468.469-.762.468-.351 1.172-1.347.762-.996 1.054-1.289.352-.294.938-.821.644-.586 1.055-.937 1.172-.996 1.64-1.113.47-.176 1.641-.528 3.633-1.172 6.152-1.64 14.941-24.961 23.965-39.024 9.082-14.12 10.313-15.586 1.289-1.523 4.511-2.695t4.688-1.113q1.523 0 1.523 1.289 0 .527-.41 1.406-.351.879-6.387 10.371-22.324 34.98-28.593 45.352l1.464.527q13.594-2.52 14.122-2.52.586 0 2.812.821 2.285.762 2.988.879 1.348.234 1.348 2.226 0 1.934-1.23 2.168-.997.176-4.805 1.172-3.75.937-6.035 1.465 3.105 3.691 3.105 7.852 0 4.16-3.691 11.015-3.692 6.797-9.434 13.477a160 160 0 0 1-12.07 12.597q-6.27 5.918-12.07 9.551-5.802 3.692-8.555 3.692-2.812 0-4.981-1.524-2.226-1.464-2.226-4.394t1.23-6.856q1.173-3.867 2.578-7.148 1.406-3.223 4.805-9.317 3.633-6.562 13.125-22.441-1.641.293-2.519.293a3.4 3.4 0 0 1-1.641-.41q-.762-.41-1.055-1.055-.527-1.171-.527-1.992m16.465 25.254q4.393-5.098 7.383-10.664 2.988-5.625 2.988-9.141 0-3.574-3.457-6.27l-6.504 1.465a559 559 0 0 0-3.106 5.215 427 427 0 0 1-3.398 5.742q-1.289 2.227-3.34 5.743a4662 4662 0 0 1-3.457 5.918q-1.347 2.402-3.047 5.39a196 196 0 0 0-2.695 5.156 144 144 0 0 0-2.109 4.278q-1.935 4.1-1.934 5.332 0 1.23.644 1.23 1.173 0 4.864-2.695 3.633-2.637 8.203-7.148a131 131 0 0 0 8.965-9.551m68.203-70.723q0 3.34-3.106 6.738-3.105 3.34-6.504 3.34-3.339 0-3.339-3.515t2.929-6.68q2.988-3.223 6.563-3.223 1.582 0 2.519.879t.938 2.461m-9.492 51.152q0 1.758-.352 2.52-2.871 5.859-9.141 9.492-6.269 3.574-10.898 3.574t-7.969-3.105-3.34-6.328q0-3.224 3.223-9.375 3.223-6.153 6.445-11.367t3.223-5.625q0-.47-1.23-1.758-1.173-1.29-1.172-1.875 0-.645 2.402-3.223 2.461-2.637 5.918-5.156 3.516-2.578 5.332-2.578 1.875 0 3.34 1.64t1.465 2.989q0 1.347-13.946 25.371-.175.35-.996 1.582a42 42 0 0 0-1.23 1.992q-.411.762-.996 1.875-1.172 2.343-1.172 3.926 0 1.992 2.695 1.992 2.696 0 5.567-1.817 2.929-1.875 5.039-4.101 5.508-5.918 6.269-5.918 1.524 0 1.524 5.273m14.882-18.75q13.829-15.702 23.555-15.703 2.403 0 3.926 1.465 1.582 1.406 1.582 3.692 0 2.285-3.281 7.675-3.223 5.332-5.977 9.024-1.464 1.875-3.34 1.875-1.817 0-2.871-1.348-.996-1.347-.996-3.164 0-4.043 4.336-9.141l-.117-.117q-1.933.175-9.609 7.617-7.618 7.441-13.008 13.36-5.332 5.86-11.602 14.297-1.817 2.519-3.105 2.519-1.23 0-3.282-.762-2.11-.82-2.519-1.171-.47-.352-.469-1.172 0-.82.469-1.875.468-1.113 1.758-3.106 1.23-1.992 3.75-6.445 2.578-4.453 7.968-13.477 5.391-9.023 6.446-10.898 2.226-3.867 3.633-5.625 2.636-3.34 8.906-3.34 1.406 0 1.406 1.758 0 2.754-5.098 10.371zm29.239 20.215-.059.938q0 1.464 1.113 2.519 1.114 1.055 2.051 1.055 7.031 0 12.422-2.109 5.45-2.11 5.449-4.219 0-.996-1.992-1.699-1.933-.762-6.621-1.817-4.629-1.113-6.738-1.699-2.11-.644-3.34-1.172t-2.52-1.465q-2.754-1.933-2.754-5.742 0-3.867 2.813-7.617 2.871-3.808 7.148-6.504a62 62 0 0 1 9.2-4.746q9.726-4.043 16.347-4.043 6.504 0 8.028 2.812.468.997.468 2.227v.41q0 3.106-1.347 4.863-1.29 1.758-4.16 3.165-2.812 1.406-4.512 1.406-1.64 0-2.11-.235a2.6 2.6 0 0 1-.703-.586 1.6 1.6 0 0 0-.761-.585q-.411-.177-.411-.879 0-.704.586-1.407a4.7 4.7 0 0 0 .821-1.582q-3.868.176-8.086 1.817-4.22 1.582-7.266 3.574-2.988 1.992-4.98 3.809-1.992 1.816-1.993 2.695 0 .82 2.696 1.347 12.129 2.403 15.937 4.161t5.274 3.984q1.464 2.226 1.465 4.043 0 3.75-2.989 7.09t-7.383 5.449q-9.433 4.629-16.464 4.629-6.973 0-9.668-2.168-2.637-2.11-2.637-5.039 0-2.93 1.465-5.391 1.523-2.519 3.867-2.519t2.344 1.23m78.051-63.75 2.4.586c.35 0 .66.176.94.528.27.351.41.683.41.996q0 .468-1.23 2.519c-.83 1.367-1.8 2.93-2.93 4.688-1.1 1.718-1.68 2.656-1.76 2.812 3.04-.234 5.19-.351 6.44-.351q1.935 0 2.64.293c.47.156 1 .644 1.58 1.464.63.782 1.19 1.387 1.7 1.817.51.39.76.996.76 1.816s-.51 1.524-1.52 2.11a8.1 8.1 0 0 1-3.16.996q-13.605 1.347-15 1.406c-3.17 4.844-7.602 12.402-13.306 22.676q-8.496 15.351-9.023 19.218-.234 1.758-.234 2.872 0 2.285 2.402 2.285t5.332-1.817a44 44 0 0 0 5.391-4.043c4.378-3.906 6.718-5.859 7.028-5.859q1.53 0 1.53 5.273 0 2.871-2.64 5.157-5.919 5.098-9.961 7.675-4.044 2.579-8.086 2.579a7.3 7.3 0 0 1-1.641-.176q-4.688-.879-6.914-3.399-2.168-2.577-2.168-6.914.058-4.335 2.578-10.488 2.578-6.211 6.445-13.184 6.328-11.367 12.657-21.328l-2.227.293q-6.797.762-7.91.762h-.527a8.6 8.6 0 0 1-3.282-.645q-1.582-.702-1.582-1.699 0-.996.821-1.933.879-.938 1.054-1.465.41-1.29 3.047-2.871 2.696-1.582 4.043-1.641a66 66 0 0 1 2.578-.176q1.29-.058 2.813-.117a76 76 0 0 0 2.402-.117l5.27-.234c3.28-4.922 5.53-8.086 6.74-9.493 1.25-1.406 1.97-2.168 2.17-2.285q.3-.234 1.17-.234zM326.351 648.52h-11.136V679h-4.632v-30.48h-11.16v-3.912h26.928zm7.97 9.408a12.9 12.9 0 0 1 3.456-2.64q1.896-.984 4.368-.984 1.992 0 3.504.672a6.5 6.5 0 0 1 2.544 1.872q1.032 1.2 1.56 2.904t.528 3.768V679h-4.296v-15.48q0-2.76-1.272-4.272-1.248-1.536-3.816-1.536a7.25 7.25 0 0 0-3.552.912q-1.632.912-3.024 2.472V679h-4.296v-35.352h4.296zm38.741 6.264q0-1.488-.432-2.712-.408-1.248-1.224-2.136a5.2 5.2 0 0 0-1.944-1.392q-1.152-.504-2.616-.504-3.072 0-4.872 1.8-1.776 1.776-2.208 4.944zm3.456 11.4q-.792.96-1.896 1.68-1.104.696-2.376 1.152-1.248.456-2.592.672-1.344.24-2.664.24-2.52 0-4.656-.84a10.5 10.5 0 0 1-3.672-2.496q-1.536-1.656-2.4-4.08t-.864-5.568q0-2.544.768-4.752.792-2.208 2.256-3.816 1.464-1.632 3.576-2.544 2.112-.936 4.752-.936 2.184 0 4.032.744a8.8 8.8 0 0 1 3.216 2.112q1.368 1.368 2.136 3.408.768 2.016.768 4.608 0 1.008-.216 1.344t-.816.336h-16.248q.072 2.304.624 4.008.576 1.704 1.584 2.856a6.5 6.5 0 0 0 2.4 1.704q1.392.552 3.12.552 1.608 0 2.76-.36a14 14 0 0 0 2.016-.816q.84-.432 1.392-.792.576-.384.984-.384.528 0 .816.408zm9.664-17.376a14.4 14.4 0 0 1 1.68-1.608q.888-.72 1.872-1.224a9 9 0 0 1 2.112-.792 9.8 9.8 0 0 1 2.424-.288q1.992 0 3.504.672a6.5 6.5 0 0 1 2.544 1.872q1.032 1.2 1.56 2.904t.528 3.768V679h-4.296v-15.48q0-2.76-1.272-4.272-1.248-1.536-3.816-1.536a7.25 7.25 0 0 0-3.552.912q-1.632.912-3.024 2.472V679h-4.296v-24.312h2.568q.912 0 1.128.888zm54.772-3.528-13.56 31.488q-.216.48-.552.768-.312.288-.984.288h-3.168l4.44-9.648-10.032-22.896h3.696q.552 0 .864.288.336.264.456.6l6.504 15.312q.384 1.008.648 2.112.336-1.128.72-2.136l6.312-15.288q.144-.384.48-.624a1.3 1.3 0 0 1 .792-.264zm13.366-.384q2.664 0 4.8.888a10.3 10.3 0 0 1 3.648 2.52q1.512 1.632 2.304 3.96.816 2.304.816 5.16 0 2.88-.816 5.184-.792 2.304-2.304 3.936a10.3 10.3 0 0 1-3.648 2.52q-2.136.864-4.8.864-2.688 0-4.848-.864a10.3 10.3 0 0 1-3.648-2.52q-1.512-1.632-2.328-3.936-.792-2.304-.792-5.184 0-2.856.792-5.16.816-2.328 2.328-3.96a10.3 10.3 0 0 1 3.648-2.52q2.16-.888 4.848-.888m0 21.696q3.6 0 5.376-2.4 1.776-2.424 1.776-6.744 0-4.344-1.776-6.768t-5.376-2.424q-1.824 0-3.192.624a6 6 0 0 0-2.256 1.8q-.888 1.176-1.344 2.904-.432 1.704-.432 3.864 0 4.32 1.776 6.744 1.8 2.4 5.448 2.4m36.978-21.312V679h-2.544q-.912 0-1.152-.888l-.336-2.616a13.6 13.6 0 0 1-3.552 2.832q-1.968 1.056-4.512 1.056-1.992 0-3.528-.648a7.1 7.1 0 0 1-2.544-1.872q-1.032-1.2-1.56-2.904-.504-1.704-.504-3.768v-15.504h4.272v15.504q0 2.76 1.248 4.272 1.272 1.512 3.864 1.512 1.896 0 3.528-.888 1.656-.912 3.048-2.496v-17.904zm51.598 0L535.024 679h-3.384q-.624 0-.864-.816l-5.376-16.488a10 10 0 0 1-.312-1.104q-.12-.576-.24-1.128-.12.552-.24 1.128-.12.552-.312 1.128l-5.472 16.464q-.216.816-.96.816h-3.216l-7.872-24.312h3.36q.504 0 .84.264.36.264.48.624l4.656 15.648a43 43 0 0 1 .648 3.264q.216-.792.432-1.608.24-.816.504-1.656l5.136-15.744q.12-.36.408-.6.312-.24.744-.24h1.872q.48 0 .792.24t.432.6l5.016 15.744q.264.84.48 1.656t.408 1.608q.12-.792.288-1.584.192-.816.408-1.68l4.752-15.648q.12-.384.456-.624.336-.264.792-.264zm8.672 0V679h-4.272v-24.312zm.912-7.632q0 .624-.264 1.176a3.3 3.3 0 0 1-.672.96 3 3 0 0 1-.984.648q-.552.24-1.176.24t-1.176-.24a3.2 3.2 0 0 1-.936-.648 3.5 3.5 0 0 1-.648-.96q-.24-.552-.24-1.176t.24-1.176a3 3 0 0 1 .648-.984q.408-.432.936-.672.552-.24 1.176-.24t1.176.24q.576.24.984.672.432.408.672.984.264.552.264 1.176m10.523-3.408V679h-4.272v-35.352zm11.344 0V679h-4.272v-35.352zm23.265 15.912q1.152-2.496 2.832-3.888 1.68-1.416 4.104-1.416.768 0 1.464.168.72.168 1.272.528l-.312 3.192q-.144.6-.72.6-.336 0-.984-.144a6.8 6.8 0 0 0-1.464-.144q-1.152 0-2.064.336a4.9 4.9 0 0 0-1.608 1.008q-.696.648-1.272 1.632-.552.96-1.008 2.208V679h-4.296v-24.312h2.448q.696 0 .96.264t.36.912zm28.716 4.632q0-1.488-.432-2.712-.408-1.248-1.224-2.136a5.2 5.2 0 0 0-1.944-1.392q-1.152-.504-2.616-.504-3.072 0-4.872 1.8-1.776 1.776-2.208 4.944zm3.456 11.4q-.792.96-1.896 1.68-1.104.696-2.376 1.152-1.248.456-2.592.672-1.344.24-2.664.24-2.52 0-4.656-.84a10.5 10.5 0 0 1-3.672-2.496q-1.536-1.656-2.4-4.08t-.864-5.568q0-2.544.768-4.752.792-2.208 2.256-3.816 1.464-1.632 3.576-2.544 2.112-.936 4.752-.936 2.184 0 4.032.744a8.8 8.8 0 0 1 3.216 2.112q1.368 1.368 2.136 3.408.768 2.016.768 4.608 0 1.008-.216 1.344t-.816.336h-16.248q.072 2.304.624 4.008.576 1.704 1.584 2.856a6.5 6.5 0 0 0 2.4 1.704q1.392.552 3.12.552 1.608 0 2.76-.36a14 14 0 0 0 2.016-.816q.84-.432 1.392-.792.576-.384.984-.384.528 0 .816.408zm18.807-7.536q-2.952.096-5.04.48-2.064.36-3.384.96-1.296.6-1.896 1.416a3.1 3.1 0 0 0-.576 1.824q0 .96.312 1.656t.84 1.152q.552.432 1.272.648a6.3 6.3 0 0 0 1.584.192q1.128 0 2.064-.216a8 8 0 0 0 1.752-.672 9.3 9.3 0 0 0 1.584-1.032q.768-.6 1.488-1.368zm-13.8-9.936q2.016-1.944 4.344-2.904t5.16-.96q2.04 0 3.624.672t2.664 1.872 1.632 2.904.552 3.744V679h-1.896q-.624 0-.96-.192-.336-.216-.528-.816l-.48-2.304q-.96.888-1.872 1.584-.912.672-1.92 1.152-1.008.456-2.16.696-1.128.264-2.52.264a9 9 0 0 1-2.664-.384 6.4 6.4 0 0 1-2.184-1.2q-.912-.792-1.464-1.992-.528-1.224-.528-2.88 0-1.44.792-2.76.792-1.344 2.568-2.376t4.632-1.68q2.856-.672 7.008-.768v-1.896q0-2.832-1.224-4.272-1.224-1.464-3.576-1.464-1.584 0-2.664.408a9.5 9.5 0 0 0-1.848.888q-.768.48-1.344.888-.552.384-1.104.384-.432 0-.744-.216a2.3 2.3 0 0 1-.528-.576zm40.324 2.352q-1.2-1.608-2.592-2.232-1.392-.648-3.12-.648-3.384 0-5.208 2.424t-1.824 6.912q0 2.376.408 4.08.408 1.68 1.2 2.784.792 1.08 1.944 1.584t2.616.504q2.112 0 3.672-.96 1.584-.96 2.904-2.712zm4.272-16.824V679h-2.544q-.912 0-1.152-.888l-.384-2.952q-1.56 1.872-3.552 3.024t-4.608 1.152q-2.088 0-3.792-.792a8 8 0 0 1-2.904-2.376q-1.2-1.56-1.848-3.888t-.648-5.352q0-2.688.72-4.992.72-2.328 2.064-4.032a9.5 9.5 0 0 1 3.288-2.664q1.968-.984 4.416-.984 2.232 0 3.816.768a9.1 9.1 0 0 1 2.856 2.088v-13.464zm26.492 35.736q-2.88 0-4.44-1.608-1.536-1.608-1.536-4.632v-14.88h-2.928a1 1 0 0 1-.648-.216q-.264-.24-.264-.72v-1.704l3.984-.504.984-7.512q.072-.36.312-.576a.96.96 0 0 1 .672-.24h2.16v8.376h7.032v3.096h-7.032v14.592q0 1.536.744 2.28t1.92.744q.672 0 1.152-.168.504-.192.864-.408t.6-.384q.264-.192.456-.192.336 0 .6.408l1.248 2.04q-1.104 1.032-2.664 1.632a9.2 9.2 0 0 1-3.216.576m14.035-21.456a12.9 12.9 0 0 1 3.456-2.64q1.896-.984 4.368-.984 1.992 0 3.504.672a6.5 6.5 0 0 1 2.544 1.872q1.032 1.2 1.56 2.904t.528 3.768V679h-4.296v-15.48q0-2.76-1.272-4.272-1.248-1.536-3.816-1.536a7.25 7.25 0 0 0-3.552.912q-1.632.912-3.024 2.472V679h-4.296v-35.352h4.296zm26.982-3.24V679h-4.272v-24.312zm.912-7.632q0 .624-.264 1.176a3.3 3.3 0 0 1-.672.96 3 3 0 0 1-.984.648q-.552.24-1.176.24t-1.176-.24a3.2 3.2 0 0 1-.936-.648 3.5 3.5 0 0 1-.648-.96q-.24-.552-.24-1.176t.24-1.176a3 3 0 0 1 .648-.984q.408-.432.936-.672.552-.24 1.176-.24t1.176.24q.576.24.984.672.432.408.672.984.264.552.264 1.176m20.267 11.64a.95.95 0 0 1-.888.528q-.36 0-.816-.264a14 14 0 0 0-1.128-.576 8.6 8.6 0 0 0-1.56-.6q-.912-.288-2.16-.288-1.08 0-1.944.288a4.6 4.6 0 0 0-1.488.744q-.6.48-.936 1.128a3 3 0 0 0-.312 1.368q0 .936.528 1.56.552.624 1.44 1.08t2.016.816q1.128.336 2.304.744 1.2.384 2.328.864t2.016 1.2a5.3 5.3 0 0 1 1.416 1.776q.552 1.032.552 2.496 0 1.68-.6 3.12a6.9 6.9 0 0 1-1.776 2.472q-1.176 1.032-2.88 1.632t-3.936.6q-2.544 0-4.608-.816-2.064-.84-3.504-2.136l1.008-1.632q.192-.312.456-.48t.672-.168q.432 0 .912.336t1.152.744q.696.408 1.68.744t2.448.336q1.248 0 2.184-.312.936-.336 1.56-.888t.912-1.272q.312-.72.312-1.536 0-1.008-.552-1.656-.528-.672-1.416-1.128a10.4 10.4 0 0 0-2.04-.816l-2.328-.744a31 31 0 0 1-2.328-.864 8.6 8.6 0 0 1-2.016-1.248 5.8 5.8 0 0 1-1.44-1.824q-.528-1.104-.528-2.664 0-1.392.576-2.664a6.4 6.4 0 0 1 1.68-2.256q1.104-.984 2.712-1.56t3.672-.576q2.4 0 4.296.768 1.92.744 3.312 2.064z"/></svg>