<svg xmlns="http://www.w3.org/2000/svg" width="1080" height="1350" fill="none"><path fill="#000" d="M227.656 441.637h-9.492L215.879 449h-3.613l9.179-28.438h3.028L233.496 449h-3.594zm-8.515-3.145h7.558l-3.75-12.344zM238.105 449v-21.133h3.243l.254 3.125a9.3 9.3 0 0 1 1.015-1.211 7.5 7.5 0 0 1 1.192-.976 7.6 7.6 0 0 1 2.031-.957 8.2 8.2 0 0 1 2.344-.371q1.66 0 3.007.468a5.76 5.76 0 0 1 2.325 1.465q.957.996 1.464 2.539.528 1.524.528 3.633V449h-3.613v-13.34q0-1.406-.313-2.383-.312-.976-.918-1.582a3.7 3.7 0 0 0-1.523-.879q-.879-.273-2.032-.273a5.7 5.7 0 0 0-1.855.293q-.86.273-1.582.762a7 7 0 0 0-1.094.996 7 7 0 0 0-.859 1.25V449zm23.34-10.742q0-2.364.586-4.336.606-1.992 1.719-3.418a7.8 7.8 0 0 1 2.656-2.227q1.563-.8 3.496-.8 1.895 0 3.301.644a6.8 6.8 0 0 1 2.461 1.836V419h3.613v30h-3.32l-.156-2.227a6.9 6.9 0 0 1-2.52 1.954q-1.464.663-3.418.664-1.914 0-3.476-.821a8 8 0 0 1-2.637-2.265q-1.094-1.446-1.699-3.399-.606-1.973-.606-4.238zm3.614.41q0 1.543.332 2.93.331 1.386 1.035 2.441a5.16 5.16 0 0 0 1.758 1.68q1.074.605 2.578.605 1.816 0 3.008-.82 1.19-.82 1.894-2.207v-9.805a6 6 0 0 0-1.894-2.109q-1.192-.84-2.969-.84-1.524 0-2.617.625a5.16 5.16 0 0 0-1.758 1.68q-.704 1.074-1.035 2.48a12.5 12.5 0 0 0-.332 2.93zm46.816 18.867q-.509 0-1.191-.117a24 24 0 0 1-1.036-.195l.586-2.95q.489.04.957.059.489.039.762.039.742 0 1.348-.41a5.3 5.3 0 0 0 1.113-.977q.469-.566.801-1.172.351-.605.547-.996l1.445-2.812-9.102-20.137h4.043l5.801 13.633.938 2.559.996-2.481 5.449-13.711h4.043l-10.723 24.395a14 14 0 0 1-.957 1.738 8.5 8.5 0 0 1-1.386 1.699 7.4 7.4 0 0 1-1.914 1.309q-1.094.527-2.52.527m21.309-19.297q0-2.285.664-4.238.663-1.972 1.914-3.418a8.66 8.66 0 0 1 3.008-2.266q1.777-.839 4.003-.839 2.247 0 4.024.839a8.8 8.8 0 0 1 3.047 2.266q1.23 1.446 1.894 3.418.664 1.953.664 4.238v.43q0 2.285-.664 4.238t-1.894 3.399a8.9 8.9 0 0 1-3.028 2.265q-1.776.82-4.004.821-2.246 0-4.042-.821a8.7 8.7 0 0 1-3.008-2.265q-1.251-1.446-1.914-3.399-.664-1.953-.664-4.238zm3.613.43q0 1.563.371 2.988.37 1.407 1.133 2.481a5.46 5.46 0 0 0 1.875 1.699q1.133.625 2.636.625 1.485 0 2.598-.625a5.65 5.65 0 0 0 1.895-1.699q.742-1.074 1.113-2.481.37-1.425.371-2.988v-.43q0-1.542-.391-2.949-.37-1.425-1.113-2.5a5.64 5.64 0 0 0-1.894-1.699q-1.114-.645-2.618-.645t-2.617.645a5.5 5.5 0 0 0-1.855 1.699q-.762 1.075-1.133 2.5a11.5 11.5 0 0 0-.371 2.949zM372.148 449l-.214-2.91a7.6 7.6 0 0 1-2.637 2.441q-1.582.86-3.652.86-1.66 0-3.008-.508a5.86 5.86 0 0 1-2.305-1.621q-.957-1.094-1.484-2.774-.508-1.7-.508-4.062v-12.559h3.613v12.598q0 1.719.274 2.851.273 1.134.82 1.797.546.684 1.328.957.801.274 1.836.274 1.21 0 2.168-.274a5.6 5.6 0 0 0 1.66-.8 4.5 4.5 0 0 0 1.016-.977q.449-.586.742-1.27v-15.156h3.633V449zm36.153 0-4.492-21.133h3.203l2.461 13.477.429 3.027.528-3.027 3.379-13.477h2.324l3.359 13.477.567 3.32.527-3.32 2.344-13.477h3.203L421.641 449h-2.852l-3.301-12.949-.547-3.281-.527 3.281L411.152 449zm22.558-21.133h10.801v18.008h6.895V449h-17.696v-3.125h7.188v-14.863h-7.188zm6.719-5.547q0-.468.137-.879.156-.41.469-.703.254-.253.644-.39.411-.157.918-.157t.899.157q.39.137.644.39.313.274.469.684t.156.898q0 .88-.547 1.465-.546.586-1.621.586-1.094 0-1.641-.586-.527-.585-.527-1.465m17.305-3.32h10.801v26.875h6.894V449h-17.695v-3.125h7.187v-23.73h-7.187zm24.023 0h10.801v26.875h6.895V449h-17.696v-3.125h7.188v-23.73h-7.188zm61.328 8.477q.997 0 2.071.136 1.094.137 1.64.371l-.488 3.536a17 17 0 0 0-2.012-.332 16 16 0 0 0-1.972-.118q-1.329 0-2.403.332a5.5 5.5 0 0 0-1.875.938 5.7 5.7 0 0 0-1.269 1.348 7.9 7.9 0 0 0-.879 1.757V449h-3.633v-21.133h3.438l.156 2.832.019.528q1.29-1.739 3.086-2.735 1.817-1.015 4.121-1.015m19.512 21.914q-2.226 0-4.101-.762a9.3 9.3 0 0 1-3.184-2.129 9.7 9.7 0 0 1-2.07-3.242q-.743-1.875-.743-4.082v-.821q0-2.558.821-4.57.82-2.031 2.187-3.437a9.5 9.5 0 0 1 3.067-2.129 9 9 0 0 1 3.554-.742q2.286 0 3.985.8 1.719.782 2.851 2.168 1.133 1.407 1.68 3.301.567 1.894.566 4.102v1.621h-15.097v.136q.137 1.544.605 2.715a6.9 6.9 0 0 0 1.328 2.071 6.15 6.15 0 0 0 2.071 1.504q1.21.546 2.675.546 1.933 0 3.438-.781a7.46 7.46 0 0 0 2.5-2.07l2.207 1.719q-1.055 1.601-3.164 2.851-2.09 1.23-5.176 1.231m-.469-18.946q-1.093 0-2.07.41a5.4 5.4 0 0 0-1.758 1.153q-.781.781-1.328 1.914-.527 1.113-.742 2.578h11.367v-.176q0-.976-.371-2.09-.37-1.132-1.035-1.953a5 5 0 0 0-1.68-1.328q-.996-.507-2.383-.508M588.32 449a4.2 4.2 0 0 1-.351-1.016 13 13 0 0 1-.176-1.289 9.7 9.7 0 0 1-1.231 1.035 8.5 8.5 0 0 1-1.464.86 9.4 9.4 0 0 1-1.739.586 8.6 8.6 0 0 1-1.953.215q-1.68 0-3.047-.489-1.347-.488-2.285-1.328a5.7 5.7 0 0 1-1.484-1.953 6.1 6.1 0 0 1-.508-2.48q0-1.739.684-3.047a6.2 6.2 0 0 1 1.972-2.188q1.27-.859 3.047-1.289 1.797-.429 4.004-.429h3.945v-1.661q0-.957-.351-1.718a3.8 3.8 0 0 0-.996-1.309q-.645-.528-1.582-.82-.918-.293-2.071-.293-1.074 0-1.933.273a4.7 4.7 0 0 0-1.426.723 3.3 3.3 0 0 0-.918 1.074 2.74 2.74 0 0 0-.312 1.27h-3.633a5.1 5.1 0 0 1 .586-2.266q.585-1.113 1.679-2.012 1.074-.879 2.618-1.426 1.562-.546 3.535-.546 1.797 0 3.34.449 1.542.429 2.675 1.308a6.4 6.4 0 0 1 1.758 2.227q.645 1.328.645 3.105v9.825q0 1.054.195 2.246.195 1.172.547 2.051V449zm-6.386-2.754q1.054 0 1.972-.273a7.6 7.6 0 0 0 1.68-.723 6.3 6.3 0 0 0 1.289-1.016q.547-.585.859-1.211v-4.277h-3.359q-1.875 0-3.281.332-1.387.312-2.207.977-.586.468-.899 1.113a3.5 3.5 0 0 0-.293 1.465q0 .781.254 1.445.274.664.801 1.133.528.488 1.328.762.8.273 1.856.273m15.839-7.988q0-2.364.586-4.336.606-1.992 1.719-3.418a7.8 7.8 0 0 1 2.656-2.227q1.563-.8 3.496-.8 1.895 0 3.301.644a6.8 6.8 0 0 1 2.461 1.836V419h3.613v30h-3.32l-.156-2.227a6.9 6.9 0 0 1-2.52 1.954q-1.464.663-3.418.664-1.913 0-3.476-.821a8 8 0 0 1-2.637-2.265q-1.093-1.446-1.699-3.399-.606-1.973-.606-4.238zm3.614.41q0 1.543.332 2.93.332 1.386 1.035 2.441a5.2 5.2 0 0 0 1.758 1.68q1.074.605 2.578.605 1.816 0 3.008-.82 1.19-.82 1.894-2.207v-9.805a6 6 0 0 0-1.894-2.109q-1.192-.84-2.969-.84-1.524 0-2.617.625a5.2 5.2 0 0 0-1.758 1.68q-.703 1.074-1.035 2.48a12.5 12.5 0 0 0-.332 2.93zm53.672-15.918v5.117h8.046v2.793h-8.046v11.485q0 1.23.312 2.031.313.801.859 1.269.548.489 1.25.684.723.195 1.524.195.586 0 1.211-.058a35 35 0 0 0 2.324-.371q.528-.118.859-.196l.508 2.559a5.4 5.4 0 0 1-1.094.488q-.644.195-1.406.332-.762.156-1.621.234-.84.08-1.68.079a8.7 8.7 0 0 1-2.636-.391 5.5 5.5 0 0 1-2.11-1.289q-.899-.86-1.425-2.227-.508-1.386-.508-3.339V430.66h-5.547v-2.793h5.547v-5.117zm19.082 8.262q.429-.645.957-1.172a7.5 7.5 0 0 1 1.113-.957 7 7 0 0 1 2.051-1.035 8.5 8.5 0 0 1 2.402-.371q1.66 0 3.008.488a5.66 5.66 0 0 1 2.324 1.484q.957 1.016 1.465 2.578.527 1.543.527 3.672V449h-3.613v-13.34q0-1.25-.293-2.187-.293-.957-.859-1.582a3.65 3.65 0 0 0-1.524-1.016q-.918-.351-2.109-.332-.977 0-1.856.273a6 6 0 0 0-1.621.782q-.585.39-1.093.918a7 7 0 0 0-.879 1.132V449h-3.614v-30h3.614zm20.976-3.145h10.801v18.008h6.894V449h-17.695v-3.125h7.188v-14.863h-7.188zm6.719-5.547q0-.468.137-.879.156-.41.468-.703a1.7 1.7 0 0 1 .645-.39 2.5 2.5 0 0 1 .918-.157q.508 0 .898.157.391.137.645.39.312.274.469.684t.156.898q0 .88-.547 1.465t-1.621.586q-1.094 0-1.641-.586-.527-.585-.527-1.465m30.781 21.075q0-.645-.254-1.153-.253-.527-.859-.957t-1.602-.781q-.996-.371-2.48-.664a25.4 25.4 0 0 1-3.32-.899q-1.485-.526-2.54-1.269-1.074-.723-1.66-1.699-.585-.996-.586-2.305 0-1.289.606-2.402a6.1 6.1 0 0 1 1.699-1.973q1.094-.84 2.598-1.328 1.523-.488 3.34-.488 1.953 0 3.515.507 1.563.509 2.656 1.407a6.2 6.2 0 0 1 1.68 2.109q.606 1.192.606 2.578h-3.614q0-.683-.351-1.328a3.8 3.8 0 0 0-.977-1.172 5 5 0 0 0-1.523-.82q-.879-.313-1.992-.313-1.153 0-2.032.254-.86.253-1.425.684a2.9 2.9 0 0 0-.879.996 2.5 2.5 0 0 0-.293 1.172q0 .625.234 1.113.235.489.82.879.567.39 1.524.703.976.312 2.461.606 1.953.41 3.496.957 1.542.526 2.597 1.269 1.055.762 1.602 1.758.567.996.566 2.305 0 1.406-.644 2.558a5.9 5.9 0 0 1-1.758 1.973q-1.132.82-2.715 1.269-1.582.45-3.457.45-2.148 0-3.828-.567-1.68-.585-2.832-1.543a6.5 6.5 0 0 1-1.797-2.187 5.9 5.9 0 0 1-.605-2.598h3.613q.078 1.113.586 1.875.528.762 1.309 1.231a5.3 5.3 0 0 0 1.699.664q.937.195 1.855.195 1.446 0 2.52-.332 1.074-.351 1.679-.957a2.7 2.7 0 0 0 .567-.82q.195-.45.195-.957M767.188 419h10.8v26.875h6.895V449h-17.695v-3.125h7.187v-23.73h-7.187zm37.343 30a4.2 4.2 0 0 1-.351-1.016 13 13 0 0 1-.176-1.289 9.7 9.7 0 0 1-1.231 1.035 8.5 8.5 0 0 1-1.464.86 9.4 9.4 0 0 1-1.739.586 8.6 8.6 0 0 1-1.953.215q-1.68 0-3.047-.489-1.347-.488-2.285-1.328a5.7 5.7 0 0 1-1.484-1.953 6.1 6.1 0 0 1-.508-2.48q0-1.739.684-3.047a6.2 6.2 0 0 1 1.972-2.188q1.27-.859 3.047-1.289 1.797-.429 4.004-.429h3.945v-1.661q0-.957-.351-1.718a3.8 3.8 0 0 0-.996-1.309q-.645-.528-1.582-.82-.918-.293-2.071-.293-1.074 0-1.933.273a4.7 4.7 0 0 0-1.426.723 3.3 3.3 0 0 0-.918 1.074 2.74 2.74 0 0 0-.313 1.27h-3.632a5.1 5.1 0 0 1 .586-2.266q.585-1.113 1.679-2.012 1.074-.879 2.617-1.426 1.563-.546 3.536-.546 1.797 0 3.339.449 1.544.429 2.676 1.308a6.4 6.4 0 0 1 1.758 2.227q.645 1.328.645 3.105v9.825q0 1.054.195 2.246.195 1.172.547 2.051V449zm-6.386-2.754q1.054 0 1.972-.273a7.6 7.6 0 0 0 1.68-.723 6.3 6.3 0 0 0 1.289-1.016q.547-.585.859-1.211v-4.277h-3.359q-1.875 0-3.281.332-1.387.312-2.207.977-.586.468-.899 1.113a3.5 3.5 0 0 0-.293 1.465q0 .781.254 1.445.273.664.801 1.133.527.488 1.328.762.8.273 1.856.273m30.566-2.851q0-.645-.254-1.153-.254-.527-.859-.957-.606-.43-1.602-.781-.996-.371-2.48-.664a25.5 25.5 0 0 1-3.321-.899q-1.484-.526-2.539-1.269-1.074-.723-1.66-1.699-.586-.996-.586-2.305 0-1.289.606-2.402a6.1 6.1 0 0 1 1.699-1.973q1.094-.84 2.597-1.328 1.524-.488 3.34-.488 1.953 0 3.516.507 1.563.509 2.656 1.407a6.2 6.2 0 0 1 1.68 2.109q.606 1.192.605 2.578h-3.613q0-.683-.351-1.328a3.8 3.8 0 0 0-.977-1.172 5 5 0 0 0-1.523-.82q-.879-.313-1.993-.313-1.152 0-2.031.254-.86.253-1.426.684-.585.429-.879.996a2.5 2.5 0 0 0-.293 1.172q0 .625.235 1.113.235.489.82.879.567.39 1.524.703.977.312 2.46.606 1.954.41 3.497.957 1.542.526 2.597 1.269 1.054.762 1.602 1.758.566.996.566 2.305 0 1.406-.644 2.558a5.9 5.9 0 0 1-1.758 1.973q-1.132.82-2.715 1.269-1.582.45-3.457.45-2.148 0-3.828-.567-1.68-.585-2.832-1.543a6.5 6.5 0 0 1-1.797-2.187 5.9 5.9 0 0 1-.605-2.598h3.613q.078 1.113.586 1.875.527.762 1.308 1.231a5.3 5.3 0 0 0 1.7.664q.937.195 1.855.195 1.445 0 2.52-.332 1.074-.351 1.679-.957.371-.372.567-.82.195-.45.195-.957m18.535-20.645v5.117h8.047v2.793h-8.047v11.485q0 1.23.313 2.031.312.801.859 1.269.547.489 1.25.684.723.195 1.523.195.587 0 1.211-.058a35 35 0 0 0 2.325-.371q.527-.118.859-.196l.508 2.559q-.45.273-1.094.488-.644.195-1.406.332-.762.156-1.621.234-.84.08-1.68.079a8.7 8.7 0 0 1-2.637-.391 5.5 5.5 0 0 1-2.109-1.289q-.898-.86-1.426-2.227-.507-1.386-.508-3.339V430.66h-5.547v-2.793h5.547v-5.117zM103.355 581q-1.2 0-2.04-.72-.72-.84-.72-2.04v-28.32l-28.92-48.96-.24-.72a2.7 2.7 0 0 1-.12-.84q0-.96.72-1.68t1.68-.72h6.24q1.08 0 1.92.6.84.48 1.2 1.44l23.4 38.88 23.4-38.88q.6-.96 1.32-1.44.84-.6 1.92-.6h6.12q1.08 0 1.8.72t.72 1.68q0 .48-.12.84t-.36.72l-28.8 48.96v28.32q0 1.2-.84 2.04-.72.72-2.04.72zm66.417 1.2q-9.12 0-15.24-3.48t-9.36-9.6q-3.24-6.24-3.6-14.16-.12-2.04-.12-5.16 0-3.24.12-5.16.36-8.04 3.6-14.16 3.36-6.12 9.48-9.6t15.12-3.48 15.12 3.48 9.36 9.6q3.36 6.12 3.72 14.16.12 1.92.12 5.16 0 3.12-.12 5.16-.36 7.92-3.6 14.16-3.24 6.12-9.36 9.6t-15.24 3.48m0-9.24q7.44 0 11.88-4.68 4.44-4.8 4.8-13.92.12-1.8.12-4.56t-.12-4.56q-.36-9.12-4.8-13.8-4.44-4.8-11.88-4.8t-12 4.8q-4.44 4.68-4.68 13.8-.12 1.8-.12 4.56t.12 4.56q.24 9.12 4.68 13.92 4.56 4.68 12 4.68m66.626 9.24q-7.68 0-13.08-3.36-5.28-3.48-8.04-9.6t-2.76-14.04v-33.84q0-1.2.72-1.92.84-.84 2.04-.84h6q1.2 0 1.92.84.84.72.84 1.92v33.24q0 17.88 15.6 17.88 7.44 0 11.88-4.68 4.56-4.8 4.56-13.2v-33.24q0-1.2.72-1.92.84-.84 2.04-.84h5.88q1.32 0 2.04.84.72.72.72 1.92v56.88q0 1.2-.72 2.04-.72.72-2.04.72h-5.52q-1.2 0-2.04-.72-.72-.84-.72-2.04v-5.28q-3.24 4.2-7.92 6.72-4.56 2.52-12.12 2.52m92.069-1.2q-1.56 0-2.4-.72-.84-.84-1.44-2.28l-17.04-55.68q-.24-.6-.24-1.2 0-1.08.72-1.8.84-.72 1.8-.72h5.28q1.32 0 2.04.72t.96 1.32l13.32 45.24 14.28-44.76q.24-.84.96-1.68.84-.84 2.4-.84h4.08q1.56 0 2.4.84t.96 1.68l14.28 44.76 13.32-45.24q.12-.6.84-1.32t2.04-.72h5.28q1.08 0 1.8.72t.72 1.8q0 .6-.24 1.2L377.547 578q-.36 1.44-1.32 2.28-.84.72-2.52.72h-4.68q-1.56 0-2.64-.72-.96-.84-1.32-2.28l-13.92-42.96-13.92 42.96q-.48 1.44-1.44 2.28-.96.72-2.64.72zm82.411 0q-1.2 0-2.04-.72-.72-.84-.72-2.04v-56.88q0-1.2.72-1.92.84-.84 2.04-.84h5.76q1.2 0 1.92.84.72.72.72 1.92v56.88q0 1.2-.72 2.04-.72.72-1.92.72zm-.96-74.04q-1.2 0-2.04-.72-.72-.84-.72-2.04v-6.48q0-1.2.72-1.92.84-.84 2.04-.84h7.56q1.2 0 1.92.84.84.72.84 1.92v6.48q0 1.2-.84 2.04-.72.72-1.92.72zM440.061 581q-1.2 0-2.04-.72-.72-.84-.72-2.04v-79.68q0-1.2.72-1.92.84-.84 2.04-.84h5.64q1.32 0 2.04.84.72.72.72 1.92v79.68q0 1.2-.72 2.04-.72.72-2.04.72zm29.179 0q-1.2 0-2.04-.72-.72-.84-.72-2.04v-79.68q0-1.2.72-1.92.84-.84 2.04-.84h5.64q1.32 0 2.04.84.72.72.72 1.92v79.68q0 1.2-.72 2.04-.72.72-2.04.72zm58.474 0q-1.2 0-2.04-.72-.72-.84-.72-2.04v-56.76q0-1.2.72-2.04.84-.84 2.04-.84h5.52q1.2 0 2.04.84t.84 2.04v5.28q2.4-4.08 6.6-6.12t10.08-2.04h4.8q1.2 0 1.92.84.72.72.72 1.92v4.92q0 1.2-.72 1.92t-1.92.72h-7.2q-6.48 0-10.2 3.84-3.72 3.72-3.72 10.2v35.28q0 1.2-.84 2.04-.84.72-2.04.72zm66.494 1.2q-12.36 0-19.68-7.56-7.32-7.68-8.04-20.88-.12-1.56-.12-3.96 0-2.52.12-4.08.48-8.52 3.96-14.88 3.48-6.48 9.48-9.96 6.12-3.48 14.28-3.48 9.12 0 15.24 3.84 6.24 3.84 9.48 10.92t3.24 16.56v2.04q0 1.32-.84 2.04-.72.72-1.92.72h-41.52v1.08q.24 4.92 2.16 9.24 1.92 4.2 5.52 6.84t8.64 2.64q4.32 0 7.2-1.32t4.68-2.88q1.8-1.68 2.4-2.52 1.08-1.56 1.68-1.8.6-.36 1.92-.36h5.76q1.2 0 1.92.72.84.6.72 1.8-.12 1.8-1.92 4.44-1.8 2.52-5.16 5.04t-8.16 4.2q-4.8 1.56-11.04 1.56m-16.32-36.96h32.88v-.36q0-5.4-2.04-9.6-1.92-4.2-5.64-6.6-3.72-2.52-8.88-2.52t-8.88 2.52q-3.6 2.4-5.52 6.6t-1.92 9.6zm76.029 36.96q-6 0-10.92-2.4t-7.92-6.48-3-9.24q0-8.28 6.72-13.2t17.52-6.48l17.88-2.52v-3.48q0-5.76-3.36-9-3.24-3.24-10.68-3.24-5.4 0-8.76 2.16-3.24 2.16-4.56 5.52-.72 1.8-2.52 1.8h-5.4q-1.32 0-2.04-.72-.6-.84-.6-1.92 0-1.8 1.32-4.44 1.44-2.64 4.32-5.16t7.32-4.2q4.56-1.8 11.04-1.8 7.2 0 12.12 1.92 4.92 1.8 7.68 4.92 2.88 3.12 4.08 7.08 1.32 3.96 1.32 8.04v38.88q0 1.2-.84 2.04-.72.72-1.92.72h-5.52q-1.32 0-2.04-.72-.72-.84-.72-2.04v-5.16q-1.56 2.16-4.2 4.32-2.64 2.04-6.6 3.48-3.96 1.32-9.72 1.32m2.52-9q4.92 0 9-2.04 4.08-2.16 6.36-6.6 2.4-4.44 2.4-11.16v-3.36l-13.92 2.04q-8.52 1.2-12.84 4.08-4.32 2.76-4.32 7.08 0 3.36 1.92 5.64 2.04 2.16 5.04 3.24 3.12 1.08 6.36 1.08m69.091 9q-6.6 0-11.4-2.28-4.8-2.4-7.92-6.36-3-4.08-4.56-9.24-1.44-5.16-1.68-10.92-.12-1.92-.12-3.6t.12-3.6q.24-5.64 1.68-10.8 1.56-5.16 4.56-9.24 3.12-4.08 7.92-6.36 4.8-2.4 11.4-2.4 7.08 0 11.76 2.52t7.68 6.24v-27.6q0-1.2.72-1.92.84-.84 2.04-.84h5.76q1.2 0 1.92.84.84.72.84 1.92v79.68q0 1.2-.84 2.04-.72.72-1.92.72h-5.4q-1.32 0-2.04-.72-.72-.84-.72-2.04v-5.04q-3 3.84-7.8 6.48-4.8 2.52-12 2.52m2.52-9.72q6 0 9.6-2.76t5.4-6.96q1.8-4.32 1.92-8.76.12-1.92.12-4.56 0-2.76-.12-4.68-.12-4.2-2.04-8.28-1.8-4.08-5.52-6.72-3.6-2.64-9.36-2.64-6.12 0-9.72 2.76-3.6 2.64-5.16 7.08-1.56 4.32-1.8 9.36-.12 3.48 0 6.96.24 5.04 1.8 9.48 1.56 4.32 5.16 7.08 3.6 2.64 9.72 2.64m97.243 8.52q-6.72 0-10.92-2.52-4.2-2.64-6.12-7.32-1.92-4.8-1.92-11.28V528.2h-9.36q-1.2 0-2.04-.72-.72-.84-.72-2.04v-4.08q0-1.2.72-1.92.84-.84 2.04-.84h9.36v-20.04q0-1.2.72-1.92.84-.84 2.04-.84h5.64q1.2 0 1.92.84.84.72.84 1.92v20.04h14.88q1.2 0 1.92.84.84.72.84 1.92v4.08q0 1.2-.84 2.04-.72.72-1.92.72h-14.88v30.84q0 5.64 1.92 8.88t6.84 3.24h7.32q1.2 0 1.92.84.84.72.84 1.92v4.32q0 1.2-.84 2.04-.72.72-1.92.72zm25.395 0q-1.2 0-2.04-.72-.72-.84-.72-2.04v-79.68q0-1.2.72-1.92.84-.84 2.04-.84h6q1.32 0 2.04.84.72.72.72 1.92v27.96q3.24-4.08 7.92-6.6t11.88-2.52q7.8 0 13.2 3.48 5.52 3.36 8.28 9.48 2.88 6 2.88 14.04v33.84q0 1.2-.72 2.04-.72.72-2.04.72h-6q-1.2 0-2.04-.72-.72-.84-.72-2.04V545q0-8.4-4.08-13.08-4.08-4.8-12-4.8-7.44 0-12 4.8-4.56 4.68-4.56 13.08v33.24q0 1.2-.72 2.04-.72.72-2.04.72zm73.005 0q-1.2 0-2.04-.72-.72-.84-.72-2.04v-56.88q0-1.2.72-1.92.84-.84 2.04-.84h5.76q1.2 0 1.92.84.72.72.72 1.92v56.88q0 1.2-.72 2.04-.72.72-1.92.72zm-.96-74.04q-1.2 0-2.04-.72-.72-.84-.72-2.04v-6.48q0-1.2.72-1.92.84-.84 2.04-.84h7.56q1.2 0 1.92.84.84.72.84 1.92v6.48q0 1.2-.84 2.04-.72.72-1.92.72zm48.862 75.24q-6.72 0-11.52-1.68t-7.8-4.08-4.56-4.8q-1.44-2.4-1.56-3.84-.12-1.32.84-2.04t1.92-.72h5.28q.72 0 1.08.24.48.12 1.2.96 1.56 1.68 3.48 3.36t4.68 2.76q2.88 1.08 7.08 1.08 6.12 0 10.08-2.28 3.96-2.4 3.96-6.96 0-3-1.68-4.8-1.56-1.8-5.76-3.24-4.08-1.44-11.28-3-7.2-1.68-11.4-4.08-4.2-2.52-6-5.88-1.8-3.48-1.8-7.8 0-4.44 2.64-8.52 2.64-4.2 7.68-6.84 5.16-2.64 12.84-2.64 6.24 0 10.68 1.56t7.32 3.96q2.88 2.28 4.32 4.56t1.56 3.84q.12 1.2-.72 2.04-.84.72-1.92.72h-5.04q-.84 0-1.44-.36-.48-.36-.96-.84-1.2-1.56-2.88-3.12-1.56-1.56-4.2-2.52-2.52-1.08-6.72-1.08-6 0-9 2.52t-3 6.36q0 2.28 1.32 4.08t5.04 3.24 11.04 3.12q7.92 1.56 12.48 4.2t6.48 6.12 1.92 8.04q0 5.04-3 9.24-2.88 4.2-8.64 6.72-5.64 2.4-14.04 2.4M443.193 713q-1.2 0-2.041-.72-.719-.84-.719-2.04V660.2h-10.2q-1.2 0-2.04-.72-.72-.84-.72-2.04v-4.08q0-1.2.72-1.92.84-.84 2.04-.84h10.2v-6q0-6.12 2.04-10.68 2.04-4.68 6.48-7.2 4.56-2.52 12.12-2.52h18.48q1.2 0 1.92.84.84.72.84 1.92v4.08q0 1.2-.84 2.04-.72.72-1.92.72h-18.24q-5.64 0-7.68 3-2.04 2.88-2.04 8.4v5.4h27.96q1.2 0 1.92.84.84.72.84 1.92v56.88q0 1.2-.84 2.04-.72.72-1.92.72h-5.52q-1.32 0-2.04-.72-.72-.84-.72-2.04V660.2h-19.68v50.04q0 1.2-.84 2.04-.72.72-1.92.72zm59.619 0q-1.2 0-2.04-.72-.72-.84-.72-2.04v-56.76q0-1.2.72-2.04.84-.84 2.04-.84h5.52q1.2 0 2.04.84t.84 2.04v5.28q2.4-4.08 6.6-6.12t10.08-2.04h4.8q1.2 0 1.92.84.72.72.72 1.92v4.92q0 1.2-.72 1.92t-1.92.72h-7.2q-6.48 0-10.2 3.84-3.72 3.72-3.72 10.2v35.28q0 1.2-.84 2.04-.84.72-2.04.72zm64.426 1.2q-6.72 0-11.52-1.68t-7.8-4.08-4.56-4.8q-1.44-2.4-1.56-3.84-.12-1.32.84-2.04t1.92-.72h5.28q.72 0 1.08.24.48.12 1.2.96 1.56 1.68 3.48 3.36t4.68 2.76q2.88 1.08 7.08 1.08 6.12 0 10.08-2.28 3.96-2.4 3.96-6.96 0-3-1.68-4.8-1.56-1.8-5.76-3.24-4.08-1.44-11.28-3-7.2-1.68-11.4-4.08-4.2-2.52-6-5.88-1.8-3.48-1.8-7.8 0-4.44 2.64-8.52 2.64-4.2 7.68-6.84 5.16-2.64 12.84-2.64 6.24 0 10.68 1.56t7.32 3.96q2.88 2.28 4.32 4.56t1.56 3.84q.12 1.2-.72 2.04-.84.72-1.92.72h-5.04q-.84 0-1.44-.36-.48-.36-.96-.84-1.2-1.56-2.88-3.12-1.56-1.56-4.2-2.52-2.52-1.08-6.72-1.08-6 0-9 2.52t-3 6.36q0 2.28 1.32 4.08t5.04 3.24 11.04 3.12q7.92 1.56 12.48 4.2t6.48 6.12 1.92 8.04q0 5.04-3 9.24-2.88 4.2-8.64 6.72-5.64 2.4-14.04 2.4m63.815-1.2q-6.72 0-10.92-2.52-4.2-2.64-6.12-7.32-1.92-4.8-1.92-11.28V660.2h-9.36q-1.2 0-2.04-.72-.72-.84-.72-2.04v-4.08q0-1.2.72-1.92.84-.84 2.04-.84h9.36v-20.04q0-1.2.719-1.92a2.78 2.78 0 0 1 2.041-.84h5.64q1.2 0 1.92.84.84.72.84 1.92v20.04h14.88q1.2 0 1.92.84.84.72.84 1.92v4.08q0 1.2-.84 2.04-.72.72-1.92.72h-14.88v30.84q0 5.64 1.92 8.88t6.84 3.24h7.32q1.2 0 1.92.84.84.72.84 1.92v4.32q0 1.2-.84 2.04-.72.72-1.92.72zM230.57 781.578h-10.547V812h-4.218v-30.422h-10.547v-3.703h25.312zm10.149 8.836a9 9 0 0 1 1.148-1.406q.633-.656 1.336-1.149a8.5 8.5 0 0 1 2.461-1.242 10.2 10.2 0 0 1 2.883-.445q1.992 0 3.609.586a6.8 6.8 0 0 1 2.789 1.781q1.149 1.22 1.758 3.094.633 1.851.633 4.406V812H253v-16.008q0-1.5-.352-2.625-.351-1.148-1.031-1.898a4.4 4.4 0 0 0-1.828-1.219q-1.101-.422-2.531-.398-1.172 0-2.227.328a7.2 7.2 0 0 0-1.945.937q-.703.47-1.313 1.102a8.3 8.3 0 0 0-1.054 1.359V812h-4.336v-36h4.336zm35.695 22.055q-2.672 0-4.922-.914-2.226-.914-3.82-2.555-1.595-1.641-2.484-3.891-.891-2.25-.891-4.898v-.984q0-3.07.984-5.485.985-2.438 2.625-4.125a11.4 11.4 0 0 1 3.68-2.555 10.8 10.8 0 0 1 4.266-.89q2.741 0 4.781.961 2.062.938 3.422 2.601 1.36 1.688 2.015 3.961.68 2.274.68 4.922v1.945h-18.117v.165q.163 1.851.726 3.257a8.3 8.3 0 0 0 1.594 2.485 7.4 7.4 0 0 0 2.485 1.804q1.453.657 3.21.657 2.32 0 4.125-.938a8.9 8.9 0 0 0 3-2.484l2.649 2.062q-1.266 1.923-3.797 3.422-2.508 1.477-6.211 1.477m-.562-22.735q-1.313 0-2.485.493a6.4 6.4 0 0 0-2.109 1.382q-.937.938-1.594 2.297-.633 1.336-.891 3.094h13.641v-.211q0-1.171-.445-2.508-.446-1.359-1.242-2.343a6 6 0 0 0-2.016-1.594q-1.196-.61-2.859-.61M294.039 812v-25.359h3.891l.304 3.75q.563-.798 1.219-1.453.68-.68 1.43-1.172 1.125-.75 2.437-1.149a9.8 9.8 0 0 1 2.813-.445q1.992 0 3.609.562a6.9 6.9 0 0 1 2.789 1.758q1.149 1.196 1.758 3.047.633 1.829.633 4.359V812h-4.336v-16.008q0-1.687-.375-2.859t-1.102-1.899a4.4 4.4 0 0 0-1.828-1.054q-1.054-.328-2.437-.328-1.195 0-2.227.351a7.4 7.4 0 0 0-1.898.914 8.6 8.6 0 0 0-1.313 1.195 8.6 8.6 0 0 0-1.031 1.5V812zm59.695 10.242q-.609 0-1.429-.14a28 28 0 0 1-1.243-.235l.704-3.539q.585.047 1.148.07.586.047.914.047.891 0 1.617-.492.75-.492 1.336-1.172.563-.68.961-1.406.422-.727.656-1.195l1.735-3.375-10.922-24.164h4.851L361.023 803l1.125 3.07 1.196-2.976 6.539-16.453h4.851l-12.867 29.273a17 17 0 0 1-1.148 2.086 10.3 10.3 0 0 1-1.664 2.039 8.9 8.9 0 0 1-2.297 1.57q-1.312.633-3.024.633m25.571-23.156q0-2.742.797-5.086.796-2.367 2.296-4.102a10.4 10.4 0 0 1 3.61-2.718q2.133-1.008 4.804-1.008 2.696 0 4.829 1.008a10.6 10.6 0 0 1 3.656 2.718q1.476 1.735 2.273 4.102.798 2.344.797 5.086v.516q0 2.742-.797 5.086-.797 2.343-2.273 4.078a10.6 10.6 0 0 1-3.633 2.718q-2.133.985-4.805.985-2.695 0-4.851-.985a10.4 10.4 0 0 1-3.61-2.718q-1.5-1.735-2.296-4.078-.797-2.344-.797-5.086zm4.336.516q0 1.875.445 3.586.446 1.687 1.359 2.976a6.55 6.55 0 0 0 2.25 2.039q1.36.75 3.164.75 1.782 0 3.118-.75a6.8 6.8 0 0 0 2.273-2.039q.89-1.29 1.336-2.976.445-1.711.445-3.586v-.516q0-1.851-.469-3.539-.445-1.711-1.335-3a6.8 6.8 0 0 0-2.274-2.039q-1.336-.774-3.141-.774t-3.14.774a6.6 6.6 0 0 0-2.227 2.039q-.913 1.289-1.359 3a13.8 13.8 0 0 0-.445 3.539zM426.062 812l-.257-3.492q-1.266 1.875-3.164 2.93-1.899 1.03-4.383 1.031-1.992 0-3.61-.61a7 7 0 0 1-2.765-1.945q-1.15-1.312-1.781-3.328-.61-2.038-.61-4.875v-15.07h4.336v15.117q0 2.062.328 3.422t.985 2.156q.656.82 1.593 1.148.961.328 2.204.328 1.452 0 2.601-.328 1.149-.35 1.992-.961a5.4 5.4 0 0 0 1.219-1.171q.538-.703.891-1.524v-18.187H430V812zm43.383 0-5.39-25.359h3.843l2.954 16.171.515 3.633.633-3.633 4.055-16.171h2.789l4.031 16.171.68 3.985.633-3.985L487 786.641h3.844L485.453 812h-3.422l-3.961-15.539-.656-3.938-.633 3.938L472.867 812zm27.071-25.359h12.961v21.609h8.273V812h-21.234v-3.75h8.625v-17.836h-8.625zm8.062-6.657q0-.562.164-1.054.188-.492.563-.844.305-.304.773-.469a3.1 3.1 0 0 1 1.102-.187q.609 0 1.078.187.468.165.773.469.375.328.563.82t.187 1.078q0 1.055-.656 1.758t-1.945.703q-1.313 0-1.969-.703-.633-.703-.633-1.758M525.344 776h12.961v32.25h8.273V812h-21.234v-3.75h8.625v-28.477h-8.625zm28.828 0h12.961v32.25h8.273V812h-21.234v-3.75h8.625v-28.477h-8.625zm73.594 10.172q1.195 0 2.484.164 1.312.164 1.969.445l-.586 4.242a21 21 0 0 0-2.414-.398 19 19 0 0 0-2.367-.141q-1.595 0-2.883.399-1.29.375-2.25 1.125a6.9 6.9 0 0 0-1.524 1.617 9.5 9.5 0 0 0-1.054 2.109V812h-4.36v-25.359h4.125l.188 3.398.023.633q1.547-2.086 3.703-3.281 2.18-1.22 4.946-1.219m23.414 26.297q-2.673 0-4.922-.914-2.227-.914-3.82-2.555-1.594-1.641-2.485-3.891t-.891-4.898v-.984q0-3.07.985-5.485.984-2.438 2.625-4.125a11.4 11.4 0 0 1 3.68-2.555q2.085-.89 4.265-.89 2.742 0 4.781.961 2.063.938 3.422 2.601 1.36 1.688 2.016 3.961.68 2.274.68 4.922v1.945h-18.118v.165q.165 1.851.727 3.257a8.3 8.3 0 0 0 1.594 2.485 7.4 7.4 0 0 0 2.484 1.804q1.453.657 3.211.657 2.32 0 4.125-.938a8.95 8.95 0 0 0 3-2.484l2.649 2.062q-1.266 1.923-3.797 3.422-2.509 1.477-6.211 1.477m-.563-22.735q-1.312 0-2.484.493a6.4 6.4 0 0 0-2.11 1.382q-.938.938-1.593 2.297-.633 1.336-.891 3.094h13.641v-.211q0-1.171-.446-2.508-.445-1.359-1.242-2.343a6 6 0 0 0-2.015-1.594q-1.195-.61-2.86-.61M685.469 812a5 5 0 0 1-.422-1.219q-.14-.75-.211-1.547-.657.657-1.477 1.243a10.2 10.2 0 0 1-1.757 1.031q-.985.445-2.086.703-1.102.258-2.344.258-2.016 0-3.656-.586-1.618-.586-2.743-1.594a6.9 6.9 0 0 1-1.781-2.344 7.3 7.3 0 0 1-.609-2.976q0-2.086.82-3.657a7.5 7.5 0 0 1 2.367-2.624q1.524-1.032 3.657-1.547 2.156-.516 4.804-.516h4.735v-1.992q0-1.149-.422-2.063a4.5 4.5 0 0 0-1.196-1.57q-.773-.633-1.898-.984-1.101-.352-2.484-.352-1.29 0-2.321.328-1.008.329-1.711.867a3.95 3.95 0 0 0-1.101 1.289q-.375.728-.375 1.524h-4.36q.024-1.383.704-2.719.702-1.336 2.015-2.414 1.29-1.054 3.141-1.711 1.875-.656 4.242-.656 2.156 0 4.008.539 1.85.516 3.211 1.57a7.7 7.7 0 0 1 2.109 2.672q.774 1.594.774 3.727v11.789q0 1.265.234 2.695.234 1.407.656 2.461V812zm-7.664-3.305q1.265 0 2.367-.328a9 9 0 0 0 2.016-.867 7.6 7.6 0 0 0 1.546-1.219 6.2 6.2 0 0 0 1.032-1.453v-5.133h-4.032q-2.25 0-3.937.399-1.663.375-2.649 1.172-.702.562-1.078 1.336-.351.773-.351 1.757 0 .937.304 1.735.328.797.961 1.359.634.586 1.594.914t2.227.328m19.007-9.586q0-2.835.704-5.203.726-2.391 2.062-4.101a9.35 9.35 0 0 1 3.188-2.672q1.875-.961 4.195-.961 2.274 0 3.961.773a8.16 8.16 0 0 1 2.953 2.203V776h4.336v36h-3.984l-.188-2.672a8.3 8.3 0 0 1-3.023 2.344q-1.758.797-4.102.797-2.297 0-4.172-.985a9.6 9.6 0 0 1-3.164-2.718q-1.313-1.735-2.039-4.078-.726-2.368-.727-5.086zm4.336.493q0 1.851.399 3.515.398 1.665 1.242 2.93a6.2 6.2 0 0 0 2.109 2.015q1.29.727 3.094.727 2.18 0 3.61-.984 1.429-.985 2.273-2.649v-11.765a7.24 7.24 0 0 0-2.273-2.532q-1.43-1.007-3.563-1.007-1.829 0-3.141.75a6.2 6.2 0 0 0-2.109 2.015q-.844 1.29-1.242 2.977a15 15 0 0 0-.399 3.515zm64.407-19.102v6.141h9.656v3.351h-9.656v13.781q0 1.477.375 2.438t1.031 1.523q.655.586 1.5.821a7 7 0 0 0 1.828.234q.703 0 1.453-.07.75-.094 1.477-.211.703-.117 1.312-.235.633-.14 1.031-.234l.61 3.07q-.54.328-1.313.586-.773.235-1.687.399a18 18 0 0 1-1.945.281q-1.008.094-2.016.094-1.688 0-3.164-.469a6.6 6.6 0 0 1-2.531-1.547q-1.078-1.03-1.711-2.672-.61-1.664-.61-4.008v-13.781h-6.656v-3.351h6.656V780.5zm22.898 9.914a9 9 0 0 1 1.149-1.406q.632-.656 1.336-1.149a8.5 8.5 0 0 1 2.46-1.242 10.2 10.2 0 0 1 2.883-.445q1.992 0 3.61.586a6.8 6.8 0 0 1 2.789 1.781q1.148 1.22 1.758 3.094.632 1.851.632 4.406V812h-4.336v-16.008q0-1.5-.351-2.625-.352-1.148-1.031-1.898a4.4 4.4 0 0 0-1.829-1.219q-1.101-.422-2.531-.398-1.172 0-2.226.328a7.2 7.2 0 0 0-1.946.937q-.702.47-1.312 1.102a8.3 8.3 0 0 0-1.055 1.359V812h-4.336v-36h4.336zm25.172-3.773h12.961v21.609h8.273V812h-21.234v-3.75h8.625v-17.836h-8.625zm8.063-6.657q0-.562.164-1.054.187-.492.562-.844.304-.304.774-.469a3.1 3.1 0 0 1 1.101-.187q.61 0 1.078.187.47.165.774.469.375.328.562.82t.188 1.078q0 1.055-.657 1.758-.656.703-1.945.703-1.312 0-1.969-.703-.633-.703-.632-1.758m36.937 25.289a3.05 3.05 0 0 0-.305-1.382q-.305-.633-1.031-1.149t-1.922-.937q-1.196-.446-2.976-.797a30.5 30.5 0 0 1-3.985-1.078q-1.78-.633-3.047-1.524-1.289-.867-1.992-2.039-.703-1.196-.703-2.765a5.9 5.9 0 0 1 .727-2.883q.726-1.36 2.039-2.367 1.313-1.008 3.117-1.594 1.829-.586 4.008-.586 2.343 0 4.218.609 1.875.61 3.188 1.688a7.5 7.5 0 0 1 2.016 2.531q.726 1.43.726 3.094h-4.336q0-.82-.422-1.594-.422-.797-1.172-1.406-.75-.61-1.828-.985-1.055-.375-2.39-.375-1.383 0-2.438.305-1.031.305-1.711.82-.702.516-1.054 1.196a3 3 0 0 0-.352 1.406q0 .75.281 1.336t.985 1.055q.68.468 1.828.843 1.171.375 2.953.727 2.344.492 4.195 1.148 1.852.633 3.117 1.524 1.266.914 1.922 2.109.68 1.196.68 2.766 0 1.687-.773 3.07-.75 1.383-2.11 2.367t-3.258 1.524q-1.898.539-4.148.539-2.578 0-4.594-.68-2.015-.704-3.398-1.851-1.407-1.125-2.157-2.626a7.1 7.1 0 0 1-.726-3.117h4.336q.093 1.336.703 2.25a5.05 5.05 0 0 0 1.57 1.477q.915.562 2.039.797t2.227.234q1.734 0 3.023-.398 1.29-.422 2.016-1.149.445-.446.68-.984.234-.54.234-1.149"/></svg>