<svg xmlns="http://www.w3.org/2000/svg" width="1080" height="1350" fill="none"><path fill="#000" d="M322.52 421.082 313.105 447h-3.847l10.84-28.438h2.48zM330.41 447l-9.433-25.918-.059-2.52h2.48L334.277 447zm-.488-10.527v3.086h-15.977v-3.086zm11.23-6.094V447h-3.613v-21.133h3.418zm-.859 5.254-1.504-.059q.02-2.168.645-4.004.624-1.856 1.757-3.222a7.8 7.8 0 0 1 2.696-2.11q1.582-.762 3.496-.761 1.562 0 2.812.429a5.1 5.1 0 0 1 2.129 1.328q.899.918 1.367 2.383.47 1.446.469 3.535V447h-3.633v-13.887q0-1.66-.488-2.656-.488-1.015-1.426-1.465-.937-.469-2.304-.469-1.348 0-2.461.567a5.9 5.9 0 0 0-1.895 1.562 7.8 7.8 0 0 0-1.23 2.286 8.3 8.3 0 0 0-.43 2.695m32.676 7.265V417h3.633v30h-3.321zm-14.219-6.23v-.41q0-2.423.586-4.395.606-1.992 1.699-3.418 1.113-1.425 2.637-2.187 1.543-.781 3.437-.781 1.993 0 3.477.703a6.7 6.7 0 0 1 2.539 2.011q1.055 1.309 1.66 3.164.606 1.856.84 4.2v1.797q-.214 2.324-.84 4.179-.605 1.856-1.66 3.164a6.94 6.94 0 0 1-2.539 2.012q-1.505.684-3.516.684-1.855 0-3.398-.801-1.524-.801-2.637-2.246-1.093-1.446-1.699-3.399-.586-1.973-.586-4.277m3.633-.41v.41q0 1.582.312 2.969.332 1.386 1.016 2.441a5.04 5.04 0 0 0 1.738 1.66q1.054.586 2.52.586 1.797 0 2.949-.762a5.7 5.7 0 0 0 1.875-2.011q.703-1.251 1.094-2.715v-4.707a10.5 10.5 0 0 0-.684-2.07 6.4 6.4 0 0 0-1.133-1.797 4.9 4.9 0 0 0-1.699-1.27q-.996-.469-2.363-.469-1.485 0-2.559.625a5 5 0 0 0-1.738 1.68q-.683 1.055-1.016 2.461a13.5 13.5 0 0 0-.312 2.969m35.703 8.554 5.879-18.945h3.867l-8.477 24.395a13 13 0 0 1-.781 1.679 8 8 0 0 1-1.211 1.739 5.8 5.8 0 0 1-1.797 1.328q-1.035.527-2.48.527-.43 0-1.094-.117a11 11 0 0 1-.937-.195l-.02-2.93a8 8 0 0 0 .488.039q.353.039.489.039 1.23 0 2.09-.332a3.16 3.16 0 0 0 1.445-1.074q.606-.743 1.035-2.051zm-4.316-18.945 5.488 16.406.937 3.809-2.597 1.328-7.774-21.543zm16.054 10.801v-.449q0-2.285.664-4.239.664-1.972 1.914-3.418a8.55 8.55 0 0 1 3.028-2.265q1.777-.82 3.984-.82 2.226 0 4.004.82a8.5 8.5 0 0 1 3.047 2.265q1.27 1.446 1.933 3.418.664 1.954.664 4.239v.449q0 2.285-.664 4.238t-1.933 3.418a8.9 8.9 0 0 1-3.027 2.266q-1.758.801-3.985.801t-4.004-.801a9.1 9.1 0 0 1-3.047-2.266q-1.25-1.464-1.914-3.418-.664-1.953-.664-4.238m3.614-.449v.449q0 1.582.371 2.988a7.9 7.9 0 0 0 1.113 2.461 5.6 5.6 0 0 0 1.894 1.699q1.134.606 2.637.606 1.485 0 2.598-.606a5.45 5.45 0 0 0 1.875-1.699 7.9 7.9 0 0 0 1.113-2.461q.39-1.406.391-2.988v-.449q0-1.563-.391-2.949-.37-1.407-1.133-2.481a5.4 5.4 0 0 0-1.875-1.719q-1.113-.624-2.617-.625-1.485 0-2.617.625a5.6 5.6 0 0 0-1.875 1.719q-.743 1.074-1.113 2.481a11.3 11.3 0 0 0-.371 2.949m33.085 5.898v-16.25h3.633V447h-3.457zm.684-4.453 1.504-.039q0 2.109-.449 3.906-.43 1.778-1.407 3.086-.976 1.309-2.558 2.051-1.582.723-3.848.723-1.542 0-2.832-.45a5.65 5.65 0 0 1-2.187-1.386q-.919-.938-1.426-2.442-.489-1.503-.488-3.613v-13.633h3.613v13.672q0 1.426.312 2.363.333.918.879 1.465.567.528 1.25.742.704.215 1.446.215 2.305 0 3.652-.879a5 5 0 0 0 1.934-2.402q.605-1.524.605-3.379m23.731 5.586 5.429-17.383h2.383l-.469 3.457L472.754 447h-2.324zm-3.653-17.383 4.629 17.578.332 3.555h-2.441l-6.133-21.133zm16.66 17.442 4.414-17.442h3.594L485.82 447h-2.422zm-4.668-17.442 5.313 17.09.605 4.043h-2.304l-5.684-17.715-.469-3.418zm20.313 0V447h-3.633v-21.133zm-3.906-5.605q0-.879.527-1.485.547-.605 1.601-.605 1.036 0 1.583.605.566.606.566 1.485 0 .84-.566 1.445-.547.586-1.583.586-1.054 0-1.601-.586a2.13 2.13 0 0 1-.527-1.445M509.316 417v30h-3.632v-30zm9.727 0v30h-3.633v-30zm19.336 12.188V447h-3.613v-21.133h3.515zm6.601-3.438-.019 3.359a5 5 0 0 0-.859-.117 9 9 0 0 0-.899-.039q-1.25 0-2.207.391a4.6 4.6 0 0 0-1.621 1.094 5.3 5.3 0 0 0-1.055 1.679 8 8 0 0 0-.488 2.11l-1.016.585q0-1.913.372-3.593.39-1.68 1.191-2.969.801-1.308 2.031-2.031 1.25-.742 2.969-.742.39 0 .898.097.508.078.703.176m11.719 21.641q-2.207 0-4.004-.743a9.1 9.1 0 0 1-3.066-2.128q-1.269-1.368-1.953-3.243t-.684-4.101v-.821q0-2.577.762-4.589.762-2.032 2.07-3.438 1.309-1.406 2.969-2.129a8.5 8.5 0 0 1 3.437-.722q2.266 0 3.907.781a7.14 7.14 0 0 1 2.715 2.187q1.055 1.388 1.562 3.282.508 1.875.508 4.101v1.621h-15.781V434.5h12.168v-.273a9 9 0 0 0-.586-2.735 4.9 4.9 0 0 0-1.563-2.187q-1.074-.86-2.93-.86-1.23 0-2.265.528-1.036.507-1.777 1.523-.742 1.016-1.153 2.481-.41 1.464-.41 3.378v.821q0 1.503.41 2.832.43 1.308 1.231 2.304a5.9 5.9 0 0 0 1.972 1.563q1.173.566 2.657.566 1.913 0 3.242-.781a8 8 0 0 0 2.324-2.09l2.187 1.739a10 10 0 0 1-1.738 1.972q-1.054.938-2.598 1.524-1.523.585-3.613.586m24.903-4.004v-10.879q0-1.25-.508-2.168-.489-.938-1.485-1.445t-2.461-.508q-1.367 0-2.402.468-1.016.47-1.601 1.231-.567.762-.567 1.641h-3.613q0-1.133.586-2.247.585-1.113 1.679-2.011 1.114-.918 2.657-1.446 1.562-.546 3.476-.546 2.305 0 4.063.781 1.777.781 2.773 2.363 1.016 1.563 1.016 3.926v9.844q0 1.054.176 2.246.195 1.191.566 2.051V447h-3.769q-.274-.625-.43-1.66a13.4 13.4 0 0 1-.156-1.953m.625-9.199.039 2.539h-3.653q-1.542 0-2.754.253-1.21.236-2.031.723-.82.489-1.25 1.231-.43.722-.43 1.699 0 .996.45 1.816.448.82 1.347 1.309.918.469 2.246.469 1.66 0 2.93-.704 1.27-.702 2.012-1.718.762-1.016.82-1.973l1.543 1.738q-.136.82-.742 1.817-.606.996-1.621 1.914-.996.898-2.383 1.504-1.367.585-3.086.586-2.149 0-3.769-.84-1.602-.84-2.5-2.246-.879-1.426-.879-3.184 0-1.7.664-2.988a5.75 5.75 0 0 1 1.914-2.168q1.25-.88 3.008-1.328 1.757-.45 3.925-.449zm21.992 8.71V417h3.633v30h-3.321zM590 436.668v-.41q0-2.423.586-4.395.606-1.992 1.699-3.418 1.113-1.425 2.637-2.187 1.543-.781 3.437-.781 1.993 0 3.477.703a6.7 6.7 0 0 1 2.539 2.011q1.055 1.309 1.66 3.164.606 1.856.84 4.2v1.797q-.215 2.324-.84 4.179-.605 1.856-1.66 3.164a6.94 6.94 0 0 1-2.539 2.012q-1.505.684-3.516.684-1.855 0-3.398-.801-1.524-.801-2.637-2.246-1.093-1.446-1.699-3.399-.586-1.973-.586-4.277m3.633-.41v.41q0 1.582.312 2.969.332 1.386 1.016 2.441a5.04 5.04 0 0 0 1.738 1.66q1.054.586 2.52.586 1.797 0 2.949-.762a5.7 5.7 0 0 0 1.875-2.011q.703-1.251 1.094-2.715v-4.707a10.5 10.5 0 0 0-.684-2.07 6.4 6.4 0 0 0-1.133-1.797 4.9 4.9 0 0 0-1.699-1.27q-.996-.469-2.363-.469-1.485 0-2.559.625a5 5 0 0 0-1.738 1.68q-.684 1.055-1.016 2.461a13.5 13.5 0 0 0-.312 2.969m38.613-10.391v2.774H620.82v-2.774zm-7.558-5.137h3.613v21.036q0 1.074.332 1.621t.859.722a3.5 3.5 0 0 0 1.133.176q.449 0 .937-.078.509-.097.762-.156l.02 2.949a8.5 8.5 0 0 1-1.133.254q-.684.137-1.66.137a5.6 5.6 0 0 1-2.442-.528q-1.113-.526-1.777-1.758-.644-1.25-.644-3.359zm15.41-3.73v30h-3.614v-30zm-.86 18.633-1.504-.059q.02-2.168.645-4.004.625-1.856 1.758-3.222a7.8 7.8 0 0 1 2.695-2.11q1.582-.762 3.496-.761 1.563 0 2.813.429a5.1 5.1 0 0 1 2.129 1.328q.897.918 1.367 2.383.468 1.446.468 3.535V447h-3.632v-13.887q0-1.66-.489-2.656-.488-1.015-1.425-1.465-.938-.469-2.305-.469-1.348 0-2.461.567a5.9 5.9 0 0 0-1.895 1.562 7.9 7.9 0 0 0-1.23 2.286 8.4 8.4 0 0 0-.43 2.695m23.203-9.766V447h-3.632v-21.133zm-3.906-5.605q0-.879.527-1.485.548-.605 1.602-.605 1.035 0 1.582.605.567.606.566 1.485a2.04 2.04 0 0 1-.566 1.445q-.547.586-1.582.586-1.054 0-1.602-.586a2.13 2.13 0 0 1-.527-1.445m22.012 21.133q0-.782-.352-1.446-.332-.684-1.386-1.23-1.036-.566-3.125-.977a25 25 0 0 1-3.184-.879q-1.407-.507-2.402-1.23-.977-.723-1.504-1.699-.528-.976-.528-2.286 0-1.25.547-2.363a6.35 6.35 0 0 1 1.582-1.973q1.035-.859 2.481-1.347t3.222-.488q2.54 0 4.336.898 1.797.899 2.754 2.402.957 1.485.957 3.301h-3.613q0-.879-.527-1.699-.508-.84-1.504-1.387-.976-.546-2.403-.547-1.503 0-2.441.469-.918.45-1.348 1.152-.41.704-.41 1.485 0 .585.196 1.054.214.45.742.84.527.372 1.484.703.957.333 2.441.664 2.598.587 4.278 1.407t2.5 2.011.82 2.891q0 1.387-.586 2.539-.566 1.152-1.66 1.992-1.074.82-2.578 1.289-1.485.45-3.34.45-2.793 0-4.726-.996-1.934-.997-2.93-2.579t-.996-3.339h3.633q.078 1.484.859 2.363a4.4 4.4 0 0 0 1.914 1.23 7.5 7.5 0 0 0 2.246.352q1.484 0 2.481-.391 1.015-.39 1.543-1.074.527-.684.527-1.562M702.754 417v30h-3.633v-30zm18.262 26.387v-10.879q0-1.25-.508-2.168-.488-.938-1.485-1.445-.996-.508-2.461-.508-1.367 0-2.402.468-1.016.47-1.601 1.231-.567.762-.567 1.641h-3.613q0-1.133.586-2.247.585-1.113 1.68-2.011 1.113-.918 2.656-1.446 1.562-.546 3.476-.546 2.305 0 4.063.781 1.777.781 2.773 2.363 1.016 1.563 1.016 3.926v9.844q0 1.054.176 2.246.195 1.191.566 2.051V447h-3.769q-.274-.625-.43-1.66a13.4 13.4 0 0 1-.156-1.953m.625-9.199.039 2.539h-3.653q-1.542 0-2.754.253-1.21.236-2.031.723-.82.489-1.25 1.231-.43.722-.43 1.699 0 .996.45 1.816.448.82 1.347 1.309.918.469 2.246.469 1.66 0 2.93-.704 1.27-.702 2.012-1.718.762-1.016.82-1.973l1.543 1.738q-.136.82-.742 1.817-.606.996-1.621 1.914-.996.898-2.383 1.504-1.367.585-3.086.586-2.149 0-3.769-.84-1.602-.84-2.5-2.246-.879-1.426-.879-3.184 0-1.7.664-2.988a5.75 5.75 0 0 1 1.914-2.168q1.25-.88 3.008-1.328 1.758-.45 3.925-.449zm20.976 7.207q0-.782-.351-1.446-.333-.684-1.387-1.23-1.035-.566-3.125-.977a25 25 0 0 1-3.184-.879q-1.406-.507-2.402-1.23-.976-.723-1.504-1.699-.527-.976-.527-2.286 0-1.25.547-2.363.566-1.113 1.582-1.973 1.035-.859 2.48-1.347t3.223-.488q2.539 0 4.336.898 1.797.899 2.754 2.402.957 1.485.957 3.301h-3.614q0-.879-.527-1.699-.508-.84-1.504-1.387-.977-.546-2.402-.547-1.505 0-2.442.469-.918.45-1.347 1.152-.41.704-.41 1.485 0 .585.195 1.054.214.45.742.84.528.372 1.484.703.957.333 2.442.664 2.598.587 4.277 1.407t2.5 2.011.82 2.891q0 1.387-.585 2.539a5.6 5.6 0 0 1-1.661 1.992q-1.074.82-2.578 1.289-1.484.45-3.34.45-2.793 0-4.726-.996-1.934-.997-2.93-2.579t-.996-3.339h3.633q.078 1.484.859 2.363a4.4 4.4 0 0 0 1.914 1.23 7.5 7.5 0 0 0 2.246.352q1.485 0 2.481-.391 1.015-.39 1.543-1.074.527-.684.527-1.562m17.207-15.528v2.774h-11.426v-2.774zm-7.558-5.137h3.613v21.036q0 1.074.332 1.621t.859.722a3.5 3.5 0 0 0 1.133.176q.45 0 .938-.078.507-.097.761-.156l.02 2.949a8.5 8.5 0 0 1-1.133.254q-.684.137-1.66.137a5.6 5.6 0 0 1-2.441-.528q-1.114-.526-1.778-1.758-.644-1.25-.644-3.359zM136.445 579v-33.926l-16.465-69.199h20.45l5.742 34.922 5.742-34.922h20.391l-16.407 69.199V579zm66.27.938q-26.25 0-26.25-27.247v-35.273q0-12.422 6.973-19.805 6.972-7.441 19.277-7.441 12.363 0 19.336 7.441 6.972 7.383 6.972 19.805v35.273q0 27.246-26.308 27.247m0-16.172q2.637 0 3.75-1.875 1.172-1.934 1.172-4.864v-42.949q0-7.676-4.922-7.676t-4.922 7.676v42.949q0 2.93 1.113 4.864 1.173 1.875 3.809 1.875m51.035 16.172q-7.031 0-10.781-2.93-3.692-2.93-5.039-8.145-1.348-5.273-1.348-12.304v-65.45h21.094v62.989q0 5.273.82 7.382.82 2.052 3.867 2.051 3.282 0 4.102-2.929.879-2.93.879-7.559v-61.934h20.918V579h-20.977v-9.375q-1.992 5.039-4.805 7.676-2.753 2.637-8.73 2.637m80.273-.938-10.605-87.891h17.988l5.801 47.227 5.098-47.227h20.097l6.036 47.227 4.863-47.227h18.047L390.625 579h-22.09l-6.328-49.863L356.699 579zm74.239-93.281v-17.461h20.976v17.461zm0 93.281v-87.891h20.976V579zm29.297 0V475.875h21.328V579zm29.765 0V475.875h21.328V579zm57.891 0v-87.891h21.328v9.786q1.523-5.098 5.391-7.969 3.867-2.871 9.726-2.871v17.519q-2.578 0-6.152.586-3.574.528-6.27 1.524-2.695.938-2.695 2.109V579zm66.211.938q-9.375 0-14.942-3.516t-7.968-10.137q-2.403-6.62-2.403-15.937v-35.332q0-12.246 7.032-18.516 7.03-6.328 19.335-6.328 25.313 0 25.313 24.844v6.386q0 11.602-.234 15.586H587.09v16.992q0 2.344.293 4.629.293 2.227 1.289 3.692 1.054 1.465 3.34 1.465 3.28 0 4.101-2.813.82-2.87.821-7.441v-8.438h20.859v4.981q0 9.843-2.461 16.523-2.403 6.621-8.203 10.02-5.742 3.34-15.703 3.34m-4.453-53.379h9.961v-11.836q0-4.746-1.172-6.797-1.172-2.11-3.516-2.11-2.52 0-3.926 1.993-1.347 1.992-1.347 6.914zm54.433 53.379q-7.324 0-11.191-3.399-3.808-3.399-5.215-9.316-1.406-5.918-1.406-13.418 0-8.028 1.582-13.125 1.581-5.156 5.39-8.438 3.868-3.281 10.606-5.566l13.008-4.453v-9.024q0-7.09-4.629-7.09-4.22 0-4.219 5.743v5.273h-20.391a10 10 0 0 1-.058-1.172v-1.699q0-13.125 6.152-18.574 6.212-5.508 19.629-5.508 7.032 0 12.598 2.519 5.566 2.461 8.789 7.325 3.28 4.863 3.281 12.011V579h-20.859v-10.43q-1.524 5.508-5.039 8.438-3.516 2.93-8.028 2.93m8.262-16.29q2.578 0 3.516-2.168.937-2.167.937-4.687v-24.492q-4.336 1.758-6.738 4.453-2.403 2.637-2.403 7.793v11.308q0 7.793 4.688 7.793m51.035 16.29q-6.093 0-9.668-2.227t-5.332-6.152q-1.758-3.927-2.344-9.2-.527-5.273-.527-11.308v-38.203q0-10.137 3.574-16.407 3.633-6.269 12.246-6.269 6.387 0 9.786 2.754 3.456 2.695 5.332 7.558v-24.609h21.328V579H713.77v-9.316q-1.758 4.746-4.688 7.5-2.871 2.754-8.379 2.754m8.027-16.407q2.99 0 3.985-2.402 1.055-2.403 1.055-8.613v-36.973q0-3.106-.938-6.094-.879-3.047-3.984-3.047-3.399 0-4.278 2.871t-.879 6.27v36.973q0 11.015 5.039 11.015m80.625 16.407q-8.496 0-11.484-3.575-2.93-3.633-2.93-11.074v-54.785h-5.918v-15.996h5.918v-18.633h20.391v18.633h5.918v15.996h-5.918v49.863q0 2.168.703 3.047t2.695.879q1.407 0 2.52-.234v14.296q-.703.236-4.395.879-3.69.704-7.5.704m18.633-.938V475.875h21.563v23.965q1.7-4.921 5.215-7.266 3.515-2.402 8.203-2.402 9.14 0 13.301 5.742t4.16 15.41V579h-21.211v-66.328q0-2.871-1.231-4.688-1.172-1.816-3.75-1.816-2.167 0-3.457 1.875-1.23 1.875-1.23 4.453V579zm60.586-93.281v-17.461h20.977v17.461zm0 93.281v-87.891h20.977V579zm53.379.938q-26.016 0-26.015-26.368v-6.972h21.093v10.312q0 2.988 1.172 4.688 1.171 1.698 3.75 1.699 4.57 0 4.57-6.856 0-5.742-2.402-8.554-2.402-2.871-5.859-5.508l-11.192-8.613q-5.273-4.102-8.027-8.672t-2.754-12.715q0-7.558 3.574-12.481 3.633-4.921 9.551-7.324 5.976-2.402 12.891-2.402 25.547 0 25.547 25.488v1.641h-21.68v-3.34q0-2.637-.938-5.098-.878-2.46-3.515-2.461-4.453 0-4.453 4.688 0 4.746 3.75 7.441l13.007 9.492q6.094 4.395 10.196 10.43 4.16 6.036 4.16 16.055 0 12.422-7.09 18.926-7.031 6.504-19.336 6.504M442.129 711v-68.027h-3.809v-15.996h3.809V621q0-14.18 14.18-14.18 6.679 0 10.781 1.7v12.949q-1.465-.293-1.934-.293-1.816 0-2.226 1.347-.41 1.29-.41 3.34v1.114h4.57v16.23h-4.16V711zm31.582-93.281v-17.461h20.977v17.461zm0 93.281v-87.891h20.977V711zm29.297 0v-87.891h21.328v9.786q1.523-5.098 5.391-7.969 3.867-2.871 9.726-2.871v17.519q-2.578 0-6.152.586-3.574.528-6.27 1.524-2.695.938-2.695 2.109V711zm65.683.938q-26.015 0-26.015-26.368v-6.972h21.094v10.312q0 2.988 1.171 4.688 1.173 1.698 3.75 1.699 4.57 0 4.571-6.856 0-5.742-2.403-8.554-2.402-2.871-5.859-5.508l-11.191-8.613q-5.274-4.102-8.028-8.672t-2.754-12.715q0-7.558 3.575-12.481 3.632-4.921 9.55-7.324 5.977-2.402 12.891-2.402 25.547 0 25.547 25.488v1.641h-21.68v-3.34q0-2.637-.937-5.098-.879-2.46-3.516-2.461-4.453 0-4.453 4.688 0 4.746 3.75 7.441l13.008 9.492q6.093 4.395 10.195 10.43 4.16 6.036 4.16 16.055 0 12.422-7.09 18.926-7.03 6.504-19.336 6.504m50.918 0q-8.496 0-11.484-3.575-2.93-3.633-2.93-11.074v-54.785h-5.918v-15.996h5.918v-18.633h20.391v18.633h5.918v15.996h-5.918v49.863q0 2.168.703 3.047t2.695.879q1.407 0 2.52-.234v14.296q-.703.236-4.395.879a40 40 0 0 1-7.5.704m-305.578 63.937V810h-4.453v-34.125zm10.969 0v3.703h-26.367v-3.703zm8.742-1.875v36h-4.336v-36zm-1.031 22.359-1.805-.07q.024-2.601.774-4.805.75-2.226 2.109-3.867a9.4 9.4 0 0 1 3.234-2.531q1.9-.914 4.196-.914 1.875 0 3.375.516 1.5.492 2.554 1.593 1.079 1.102 1.641 2.86.563 1.734.563 4.242V810h-4.36v-16.664q0-1.992-.586-3.188-.585-1.218-1.711-1.757-1.125-.563-2.765-.563-1.618 0-2.953.68a7.1 7.1 0 0 0-2.274 1.875 9.4 9.4 0 0 0-1.476 2.742 10 10 0 0 0-.516 3.234m33.656 14.11q-2.648 0-4.805-.891a10.9 10.9 0 0 1-3.679-2.555q-1.524-1.64-2.344-3.89t-.82-4.922v-.984q0-3.094.914-5.508.913-2.437 2.484-4.125t3.563-2.555a10.2 10.2 0 0 1 4.125-.867q2.719 0 4.687.937 1.992.938 3.258 2.625 1.266 1.665 1.875 3.938.609 2.25.609 4.922v1.945h-18.937V795h14.601v-.328a10.8 10.8 0 0 0-.703-3.281 5.9 5.9 0 0 0-1.875-2.625q-1.289-1.032-3.515-1.032a5.9 5.9 0 0 0-2.719.633q-1.242.61-2.133 1.828-.891 1.22-1.383 2.977-.492 1.758-.492 4.055v.984q0 1.805.492 3.398a8.7 8.7 0 0 0 1.477 2.766 7.1 7.1 0 0 0 2.367 1.875q1.407.68 3.188.68 2.297 0 3.89-.938 1.594-.937 2.789-2.508l2.625 2.086q-.82 1.242-2.086 2.368-1.264 1.125-3.117 1.828-1.828.702-4.336.703m19.266-20.414V810h-4.336v-25.359h4.101zm-1.031 6.304-1.805-.07q.023-2.601.773-4.805.75-2.226 2.11-3.867a9.4 9.4 0 0 1 3.234-2.531q1.899-.914 4.195-.914 1.875 0 3.375.516 1.5.492 2.555 1.593 1.078 1.102 1.641 2.86.562 1.734.562 4.242V810h-4.359v-16.664q0-1.992-.586-3.188-.586-1.218-1.711-1.757-1.125-.563-2.766-.563-1.617 0-2.953.68a7.05 7.05 0 0 0-2.273 1.875 9.5 9.5 0 0 0-1.477 2.742 10 10 0 0 0-.515 3.234m42.257 11.016 7.055-22.734h4.641l-10.172 29.273a16 16 0 0 1-.938 2.016 9.7 9.7 0 0 1-1.453 2.086 6.9 6.9 0 0 1-2.156 1.593q-1.242.633-2.977.633-.515 0-1.312-.14a13 13 0 0 1-1.125-.235l-.024-3.515q.188.023.586.046.423.047.586.047 1.478 0 2.508-.398a3.8 3.8 0 0 0 1.734-1.289q.727-.89 1.243-2.461zm-5.179-22.734 6.586 19.687 1.125 4.57-3.118 1.594-9.328-25.851zm19.265 12.961v-.54q0-2.742.797-5.085.797-2.368 2.297-4.102 1.5-1.758 3.633-2.719 2.133-.984 4.781-.984 2.672 0 4.805.984a10.2 10.2 0 0 1 3.656 2.719q1.524 1.734 2.32 4.102.798 2.343.797 5.085v.54q0 2.742-.797 5.086-.796 2.343-2.32 4.101a10.6 10.6 0 0 1-3.633 2.719q-2.11.96-4.781.961-2.672 0-4.805-.961a10.9 10.9 0 0 1-3.656-2.719q-1.5-1.758-2.297-4.101t-.797-5.086m4.336-.54v.54q0 1.897.446 3.586.445 1.663 1.335 2.953a6.8 6.8 0 0 0 2.274 2.039q1.36.726 3.164.726 1.782 0 3.117-.726a6.55 6.55 0 0 0 2.25-2.039q.89-1.29 1.336-2.953.47-1.689.469-3.586v-.54q0-1.874-.469-3.539-.446-1.687-1.359-2.976a6.5 6.5 0 0 0-2.25-2.063q-1.337-.75-3.141-.75-1.78 0-3.141.75-1.335.75-2.25 2.063-.89 1.288-1.335 2.976a13.6 13.6 0 0 0-.446 3.539m39.703 7.079v-19.5h4.36V810h-4.149zm.821-5.344 1.804-.047q0 2.531-.539 4.688-.515 2.132-1.687 3.703t-3.071 2.461q-1.897.867-4.617.867-1.851 0-3.398-.539a6.8 6.8 0 0 1-2.625-1.664q-1.101-1.125-1.711-2.93-.586-1.804-.586-4.336v-16.359h4.336v16.406q0 1.711.375 2.836.399 1.101 1.055 1.758.68.632 1.5.89.843.258 1.734.258 2.766 0 4.383-1.055a6 6 0 0 0 2.32-2.882q.726-1.829.727-4.055m28.476 6.703 6.516-20.859h2.859l-.562 4.148L516.461 810h-2.789zm-4.383-20.859 5.555 21.093.399 4.266h-2.93l-7.36-25.359zm19.993 20.929 5.297-20.929h4.312L532.141 810h-2.907zm-5.602-20.929 6.375 20.507.727 4.852h-2.766l-6.82-21.258-.563-4.101zm24.375 0V810h-4.359v-25.359zm-4.687-6.727q0-1.055.632-1.781.657-.727 1.922-.727 1.242 0 1.899.727.68.726.679 1.781a2.45 2.45 0 0 1-.679 1.734q-.657.704-1.899.704-1.265 0-1.922-.704-.632-.726-.632-1.734M560.336 774v36h-4.359v-36zm11.672 0v36h-4.36v-36zm23.203 14.625V810h-4.336v-25.359h4.219zm7.922-4.125-.024 4.031a6 6 0 0 0-1.031-.14 11 11 0 0 0-1.078-.047q-1.5 0-2.648.468a5.5 5.5 0 0 0-1.946 1.313 6.3 6.3 0 0 0-1.265 2.016 9.6 9.6 0 0 0-.586 2.531l-1.219.703q0-2.297.445-4.313.469-2.015 1.43-3.562.961-1.57 2.437-2.438 1.5-.89 3.563-.89.468 0 1.078.117.61.094.844.211m14.062 25.969q-2.648 0-4.804-.891a10.9 10.9 0 0 1-3.68-2.555q-1.524-1.64-2.344-3.89t-.82-4.922v-.984q0-3.094.914-5.508.913-2.437 2.484-4.125t3.563-2.555a10.2 10.2 0 0 1 4.125-.867q2.718 0 4.687.937 1.992.938 3.258 2.625 1.266 1.665 1.875 3.938.609 2.25.609 4.922v1.945h-18.937V795h14.602v-.328a10.8 10.8 0 0 0-.704-3.281 5.9 5.9 0 0 0-1.875-2.625q-1.289-1.032-3.515-1.032a5.9 5.9 0 0 0-2.719.633q-1.242.61-2.133 1.828-.89 1.22-1.383 2.977-.492 1.758-.492 4.055v.984q0 1.805.492 3.398a8.7 8.7 0 0 0 1.477 2.766 7.1 7.1 0 0 0 2.367 1.875q1.407.68 3.188.68 2.297 0 3.89-.938 1.594-.937 2.789-2.508l2.625 2.086q-.82 1.242-2.086 2.368-1.264 1.125-3.117 1.828-1.828.702-4.336.703m29.883-4.805v-13.055q0-1.5-.609-2.601-.587-1.125-1.781-1.735-1.196-.609-2.954-.609-1.64 0-2.882.563-1.22.563-1.922 1.476-.68.914-.68 1.969h-4.336q0-1.36.703-2.695.704-1.337 2.016-2.415 1.335-1.101 3.187-1.734 1.875-.656 4.172-.656 2.766 0 4.875.937 2.133.938 3.328 2.836 1.22 1.875 1.219 4.711v11.813q0 1.265.211 2.695.234 1.43.68 2.461V810h-4.524q-.328-.75-.515-1.992a16 16 0 0 1-.188-2.344m.75-11.039.047 3.047h-4.383q-1.851 0-3.304.305-1.454.28-2.438.867-.984.586-1.5 1.476-.516.867-.516 2.039 0 1.196.539 2.18.54.985 1.618 1.57 1.1.563 2.695.563 1.992 0 3.516-.844 1.523-.844 2.414-2.062.913-1.22.984-2.368l1.852 2.086q-.165.985-.891 2.18t-1.945 2.297q-1.195 1.078-2.86 1.805-1.64.702-3.703.703-2.578 0-4.523-1.008-1.923-1.008-3-2.695-1.055-1.711-1.055-3.821 0-2.038.797-3.586a6.9 6.9 0 0 1 2.297-2.601q1.5-1.055 3.609-1.594t4.711-.539zm26.391 10.453V774h4.359v36h-3.984zm-17.063-7.476v-.493q0-2.906.703-5.273.727-2.39 2.039-4.102 1.337-1.71 3.164-2.625 1.852-.937 4.126-.937 2.39 0 4.171.844a8 8 0 0 1 3.047 2.414q1.266 1.57 1.992 3.797.728 2.226 1.008 5.039v2.156q-.258 2.788-1.008 5.016-.726 2.226-1.992 3.796a8.3 8.3 0 0 1-3.047 2.414q-1.804.82-4.218.821-2.227 0-4.079-.961-1.827-.961-3.164-2.696-1.312-1.734-2.039-4.078-.702-2.367-.703-5.132m4.36-.493v.493q0 1.898.375 3.562.398 1.664 1.218 2.93a6.05 6.05 0 0 0 2.086 1.992q1.266.703 3.024.703 2.156 0 3.539-.914a6.8 6.8 0 0 0 2.25-2.414q.843-1.5 1.312-3.258v-5.648a12.5 12.5 0 0 0-.82-2.485 7.7 7.7 0 0 0-1.359-2.156 5.9 5.9 0 0 0-2.039-1.523q-1.196-.563-2.836-.563-1.781 0-3.071.75a6 6 0 0 0-2.086 2.016q-.82 1.266-1.218 2.953a16.2 16.2 0 0 0-.375 3.562m46.336-12.468v3.328h-13.711v-3.328zm-9.071-6.164h4.336v25.242q0 1.289.399 1.945.398.657 1.031.867.633.211 1.359.211.54 0 1.125-.094.61-.117.914-.187l.024 3.539a10 10 0 0 1-1.36.305q-.82.164-1.992.164-1.593 0-2.929-.633-1.337-.633-2.133-2.109-.774-1.5-.774-4.032zM717.273 774v36h-4.335v-36zm-1.031 22.359-1.804-.07q.023-2.601.773-4.805.75-2.226 2.109-3.867a9.4 9.4 0 0 1 3.235-2.531q1.898-.914 4.195-.914 1.875 0 3.375.516 1.5.492 2.555 1.593 1.077 1.102 1.64 2.86.563 1.734.563 4.242V810h-4.36v-16.664q0-1.992-.585-3.188-.586-1.218-1.711-1.757-1.125-.563-2.766-.563-1.617 0-2.953.68a7.1 7.1 0 0 0-2.274 1.875 9.4 9.4 0 0 0-1.476 2.742 10 10 0 0 0-.516 3.234m27.844-11.718V810h-4.359v-25.359zm-4.688-6.727q0-1.055.633-1.781.656-.727 1.922-.727 1.242 0 1.899.727.68.726.679 1.781a2.45 2.45 0 0 1-.679 1.734q-.657.704-1.899.704-1.266 0-1.922-.704-.633-.726-.633-1.734m26.414 25.359a3.65 3.65 0 0 0-.421-1.734q-.4-.82-1.664-1.477-1.243-.68-3.75-1.171a30 30 0 0 1-3.821-1.055q-1.687-.609-2.883-1.477-1.171-.866-1.804-2.039-.633-1.172-.633-2.742 0-1.5.656-2.836a7.6 7.6 0 0 1 1.899-2.367q1.242-1.031 2.976-1.617t3.867-.586q3.048 0 5.204 1.078t3.304 2.883q1.149 1.781 1.149 3.961h-4.336q0-1.055-.633-2.039-.61-1.008-1.805-1.664-1.171-.657-2.883-.657-1.804 0-2.929.563-1.102.539-1.617 1.383a3.47 3.47 0 0 0-.493 1.781q0 .704.235 1.266.258.539.89 1.007.633.445 1.782.844 1.148.398 2.929.797 3.117.703 5.133 1.687t3 2.415.984 3.468q0 1.664-.703 3.047-.68 1.383-1.992 2.391-1.289.984-3.094 1.547-1.78.539-4.007.539-3.352 0-5.672-1.196t-3.516-3.093q-1.195-1.899-1.195-4.008h4.359q.094 1.781 1.031 2.836a5.26 5.26 0 0 0 2.297 1.476 9 9 0 0 0 2.696.422q1.78 0 2.976-.468 1.22-.47 1.852-1.29a2.98 2.98 0 0 0 .632-1.875"/></svg>