<svg width="483" height="169" viewBox="0 0 483 169" fill="none" xmlns="http://www.w3.org/2000/svg">
<g clip-path="url(#clip0_2383_965)">
<path d="M272.319 59.2254C272.319 45.1314 272.562 32.0094 273.291 19.8594L236.112 26.9064V30.3084L239.757 30.7944C242.43 31.0374 244.131 32.0094 245.103 33.4674C246.075 35.1684 246.804 37.5984 247.29 41.2434C247.776 48.2904 248.262 64.3284 248.019 89.6004C248.019 114.629 247.776 130.424 247.29 136.499C260.655 139.415 271.104 140.63 278.88 140.63C293.46 140.63 304.881 136.499 313.143 127.994C321.405 119.732 325.779 108.068 325.779 93.7314C325.779 82.3104 322.62 72.8334 316.302 65.3004C309.984 57.7674 301.965 54.1224 292.488 54.1224C286.17 54.1224 279.609 55.8234 272.319 59.2254ZM273.048 134.069C272.562 126.293 272.076 102.965 272.076 64.8144C274.263 64.0854 277.179 63.5994 280.824 63.5994C286.656 63.5994 291.273 66.5154 294.675 72.5904C298.077 78.6654 299.778 85.9554 299.778 95.1894C299.778 106.61 297.834 115.844 293.946 123.62C290.058 131.153 285.198 135.041 279.123 135.041C277.179 134.555 275.235 134.312 273.048 134.069ZM96.6297 22.2894H-0.570312V27.1494L4.53269 27.6354C8.42069 28.3644 11.0937 29.8224 12.7947 32.0094C14.4957 34.4394 15.4677 38.3274 15.7107 43.6734C17.6547 69.9174 17.6547 94.4604 15.7107 117.059C15.2247 122.405 14.2527 126.293 12.7947 128.723C11.0937 131.153 8.42069 132.611 4.53269 133.097L-0.570312 133.826V138.686H62.1237V133.826L55.5627 133.34C53.9617 133.206 52.4044 132.75 50.9845 131.998C49.5646 131.246 48.3115 130.215 47.3007 128.966C45.5997 126.536 44.6277 122.648 44.3847 117.302C43.6557 107.582 43.1697 96.4044 43.1697 84.0114L56.2917 84.2544C63.3387 84.4974 68.1987 89.8434 70.6287 100.535H75.4887V60.9264H70.6287C68.1987 71.3754 63.5817 76.7214 56.2917 76.9644L43.1697 77.2074C43.1697 55.3374 43.6557 39.7854 44.3847 30.3084H63.5817C77.1897 30.3084 86.4237 39.0564 91.7697 56.5524L97.6017 54.8514L96.6297 22.2894ZM85.2087 97.1334C85.2087 109.769 88.8537 120.218 95.9007 128.48C102.948 136.742 113.397 140.63 126.519 140.63C139.641 140.63 150.333 136.499 158.109 127.994C165.885 119.732 169.53 109.283 169.53 96.6474C169.53 84.0114 165.885 73.5624 158.838 65.3004C151.791 57.0384 141.342 53.1504 128.22 53.1504C115.098 53.1504 104.406 57.2814 96.6297 65.7864C88.8537 74.0484 85.2087 84.4974 85.2087 97.1334ZM139.398 69.4314C142.314 76.4784 143.529 85.7124 143.529 96.8904C143.529 122.648 138.183 135.284 127.734 135.284C122.388 135.284 118.257 131.639 115.341 124.349C112.425 117.059 111.21 107.825 111.21 96.8904C111.21 71.3754 116.556 58.7394 127.005 58.7394C132.351 58.4964 136.482 62.1414 139.398 69.4314ZM344.733 128.48C352.752 136.499 362.958 140.63 375.108 140.63C382.641 140.63 389.202 139.172 395.034 136.013C400.866 133.097 405.483 129.452 408.642 125.078L406.212 122.162C400.866 126.293 394.791 128.237 387.744 128.237C378.024 128.237 370.491 125.078 365.388 118.517C360.042 111.956 357.612 103.694 358.098 93.0024H410.1C410.1 81.3384 407.184 71.8614 401.109 64.3284C395.034 57.0384 386.529 53.3934 375.594 53.3934C361.986 53.3934 351.537 57.7674 344.004 66.2724C336.471 74.7774 332.826 85.2264 332.826 97.6194C332.826 110.255 336.714 120.461 344.733 128.48ZM362.715 67.4874C365.388 61.6554 368.79 58.7394 373.407 58.7394C380.697 58.7394 384.342 67.9734 384.342 86.6844L358.584 87.1704C358.827 79.8804 360.042 73.3194 362.715 67.4874ZM475.467 57.7674C468.906 54.8514 460.644 53.1504 450.681 53.1504C440.475 53.1504 432.456 55.8234 426.381 60.9264C420.306 66.0294 417.147 72.3474 417.147 79.8804C417.147 86.4414 419.091 91.5444 422.736 95.1894C426.381 98.8344 432.213 101.993 439.746 104.666C446.55 107.096 451.41 109.526 453.84 111.713C456.27 114.143 457.728 116.816 457.728 120.461C457.728 123.863 456.513 127.022 453.84 129.452C451.41 132.125 448.008 133.34 443.634 133.34C432.942 133.34 424.923 125.564 419.334 110.012L415.203 111.227L416.175 135.527C424.923 138.929 434.643 140.63 445.335 140.63C456.513 140.63 465.018 138.2 471.336 133.097C477.654 128.237 480.813 121.19 480.813 112.442C480.813 106.61 479.355 101.75 476.196 98.1054C473.037 94.4604 467.934 91.3014 460.644 88.3854C452.625 85.4694 447.036 82.7964 444.12 80.3664C441.204 77.9364 439.746 75.0204 439.746 71.3754C439.746 67.7304 440.718 64.8144 442.905 62.3844C445.092 59.9544 447.765 58.9824 451.167 58.9824C460.887 58.9824 467.934 66.0294 472.308 79.8804L476.439 78.6654L475.467 57.7674ZM241.701 55.5804C238.299 53.8794 234.654 53.1504 230.523 53.1504C226.392 53.1504 222.261 54.8514 217.644 58.2534C213.027 61.6554 209.625 66.2724 206.952 72.5904L207.195 53.1504L170.259 60.4404V63.8424L173.904 64.0854C178.521 64.5714 181.194 68.2164 181.68 74.7774C183.138 89.8434 183.138 105.881 181.68 122.891C181.194 129.452 178.521 132.854 173.904 133.583L170.259 134.069V138.686H221.775V134.069L215.214 133.583C210.597 133.097 207.924 129.452 207.438 122.891C205.98 108.797 205.737 93.7314 206.952 78.1794C208.41 75.7494 211.569 74.2914 216.429 73.8054C221.289 73.3194 226.878 74.7774 232.71 78.1794L241.701 55.5804Z" fill="#191919"/>
</g>
<defs>
<clipPath id="clip0_2383_965">
<rect width="483" height="169" fill="white"/>
</clipPath>
</defs>
</svg>
