<svg width="87" height="28" viewBox="0 0 87 28" fill="none" xmlns="http://www.w3.org/2000/svg">
<path d="M5.14702e-07 12.3438C-0.00085966 10.0832 1.07647 7.95552 2.90485 6.60692L11.5355 0.240985C11.8535 0.00645427 12.2659 -0.0617382 12.6433 0.0577907C13.1532 0.21927 13.4993 0.689412 13.4993 1.22052V16.4643C13.4993 18.6808 12.4626 20.7718 10.6929 22.1245L3.60999 27.5384C3.21844 27.8377 2.73808 28 2.24383 28C1.00775 28 0.0055796 27.0059 0.00511289 25.7794L5.14702e-07 12.3438Z" fill="#DBCEFF"/>
<path d="M6.75034 12.3438C6.74948 10.0832 7.82681 7.95552 9.65519 6.60692L18.2859 0.240985C18.6038 0.00645427 19.0162 -0.0617382 19.3936 0.0577907C19.9035 0.21927 20.2497 0.689412 20.2497 1.22052V16.4643C20.2497 18.6808 19.2129 20.7718 17.4433 22.1245L10.3603 27.5384C9.96878 27.8377 9.48842 28 8.99417 28C7.75809 28 6.75592 27.0059 6.75545 25.7794L6.75034 12.3438Z" fill="#AC8EFF"/>
<path d="M13.5007 12.3438C13.4998 10.0832 14.5772 7.95552 16.4055 6.60692L25.0362 0.240985C25.3542 0.00645427 25.7665 -0.0617382 26.144 0.0577907C26.6539 0.21927 27 0.689412 27 1.22052V16.4643C27 18.6808 25.9633 20.7718 24.1936 22.1245L17.1107 27.5384C16.7191 27.8377 16.2388 28 15.7445 28C14.5084 28 13.5063 27.0059 13.5058 25.7794L13.5007 12.3438Z" fill="#7B4CFF"/>
<path d="M50.8144 8.89458C52.1905 8.89458 53.3337 9.38848 54.2441 10.3763C55.1544 11.3426 55.6096 12.6847 55.6096 14.4026V24.4846H53.4502V15.369C53.4502 13.7799 53.1538 12.6418 52.561 11.9546C51.9682 11.246 51.1955 10.8917 50.2428 10.8917C49.0784 10.8917 48.1681 11.3533 47.5118 12.2767C46.8767 13.1786 46.5062 14.4134 46.4004 15.981V24.4846H44.241V15.369C44.241 13.7799 43.9446 12.6418 43.3518 11.9546C42.759 11.246 41.9863 10.8917 41.0336 10.8917C39.7422 10.8917 38.7684 11.4392 38.1121 12.5344C37.477 13.6296 37.1594 15.1005 37.1594 16.9473V24.4846H35V9.40996H37.1594V11.7613C37.6463 10.838 38.2603 10.1293 39.0012 9.63543C39.7634 9.14153 40.6314 8.89458 41.6052 8.89458C42.6849 8.89458 43.627 9.19522 44.4315 9.79649C45.236 10.3763 45.797 11.2138 46.1146 12.3089C46.5803 11.2352 47.2154 10.3978 48.0199 9.79649C48.8244 9.19522 49.7559 8.89458 50.8144 8.89458Z" fill="black"/>
<path d="M60.2946 24.4846V9.40996H62.454V24.4846H60.2946ZM61.3743 6.47877C60.8873 6.47877 60.4745 6.30698 60.1358 5.9634C59.8182 5.61982 59.6595 5.20107 59.6595 4.70718C59.6595 4.23475 59.8182 3.83748 60.1358 3.51537C60.4745 3.17179 60.8873 3 61.3743 3C61.84 3 62.2423 3.17179 62.581 3.51537C62.9197 3.83748 63.0891 4.24549 63.0891 4.73939C63.0891 5.21181 62.9197 5.61982 62.581 5.9634C62.2423 6.30698 61.84 6.47877 61.3743 6.47877Z" fill="black"/>
<path d="M74.6031 8.89458C75.1112 8.89458 75.5981 8.96974 76.0639 9.12006V11.1171C75.6193 10.9024 75.1324 10.795 74.6031 10.795C73.6928 10.795 72.8459 11.0527 72.0626 11.5681C71.2793 12.0835 70.6442 12.835 70.1573 13.8228C69.6915 14.7892 69.4586 15.938 69.4586 17.2694V24.4846H67.2992V9.40996H69.4586V12.4378C70.0302 11.3211 70.75 10.4514 71.618 9.8287C72.5072 9.20595 73.5022 8.89458 74.6031 8.89458Z" fill="black"/>
<path d="M85.0466 8.89458C85.5547 8.89458 86.0416 8.96974 86.5073 9.12006V11.1171C86.0628 10.9024 85.5758 10.795 85.0466 10.795C84.1362 10.795 83.2894 11.0527 82.5061 11.5681C81.7228 12.0835 81.0877 12.835 80.6007 13.8228C80.135 14.7892 79.9021 15.938 79.9021 17.2694V24.4846H77.7427V9.40996H79.9021V12.4378C80.4737 11.3211 81.1935 10.4514 82.0615 9.8287C82.9507 9.20595 83.9457 8.89458 85.0466 8.89458Z" fill="black"/>
</svg>
